<?xml version="1.0" standalone="no"?>
<!DOCTYPE svg PUBLIC "-//W3C//DTD SVG 1.1//EN" "http://www.w3.org/Graphics/SVG/1.1/DTD/svg11.dtd" >
<svg xmlns="http://www.w3.org/2000/svg" xmlns:xlink="http://www.w3.org/1999/xlink" version="1.1">
<metadata></metadata>
<defs>
<font id="conakryregular" horiz-adv-x="1024" >
<font-face units-per-em="2048" ascent="1638" descent="-410" />
<missing-glyph horiz-adv-x="512" />
<glyph unicode="&#xd;" horiz-adv-x="512" />
<glyph unicode=" "  horiz-adv-x="512" />
<glyph unicode="&#x09;" horiz-adv-x="512" />
<glyph unicode="&#xa0;" horiz-adv-x="512" />
<glyph unicode="!" horiz-adv-x="682" d="M455 1221q-3 -34 -21 -232l-56 -609q-4 -39 -33 -39q-30 0 -34 39l-63 609q-19 184 -19 242q0 175 118 175q106 0 106 -171q2 -3 2 -14zM460 97q0 -50 -36.5 -84.5t-86.5 -34.5q-46 0 -80.5 34.5t-34.5 80.5q0 52 35.5 85.5t87.5 33.5q48 0 81.5 -33.5t33.5 -81.5z" />
<glyph unicode="&#x22;" horiz-adv-x="836" d="M702 1280q0 -107 -27 -240q-17 -83 -49 -237h-48l-46 226q-32 157 -32 237q0 121 102 121q100 0 100 -107zM335 1279q0 -97 -30 -239l-50 -237h-43l-50 230q-27 124 -27 232q0 122 98 122q102 0 102 -108z" />
<glyph unicode="#" d="M998 965l-39 -121h-140l-98 -309h145l-37 -123h-144l-145 -475h-127l144 475h-248l-145 -475h-125l140 475h-153l39 123h151l93 309h-151l37 121h151l131 436h126l-126 -436h249l125 436h127l-127 -436h147zM685 844h-246l-93 -309h250z" />
<glyph unicode="$" d="M968 339q0 -165 -126 -268q-115 -95 -285 -101l-1 -117h-82v120q-34 5 -131 40q-89 32 -112 32q-49 0 -58 -67h-56l-61 441h61q115 -321 358 -353v531q-177 103 -243 165q-119 113 -119 257l4 11q0 153 103 252.5t256 99.5l1 119h82l-1 -131l101 -36q59 -21 103 -21 q56 0 78 67h50l41 -443h-56q-110 314 -317 344v-460q210 -130 274 -190q136 -128 136 -292zM476 874v408q-72 -11 -121 -60q-52 -52 -52 -123q0 -107 173 -225zM756 287q0 137 -199 261v-484q90 10 144.5 71t54.5 152z" />
<glyph unicode="%" horiz-adv-x="1706" d="M1487 449q0 -164 -84 -306q-98 -165 -251 -165q-114 0 -185 84q-68 79 -68 195q0 163 110 299q117 144 277 144q201 0 201 -251zM1368 1453l-913 -1531h-117l818 1363q-123 -65 -246 -65q-53 0 -103 11q8 -43 8 -87q0 -154 -93 -304q-106 -171 -250 -171q-113 0 -185 88 q-68 82 -68 197q0 166 113 303q119 144 282 144q39 0 133 -56t163 -56q160 0 376 164h82zM744 1149q0 47 -26 108q-18 16 -88 58q-108 -24 -180 -177q-62 -132 -62 -257l-5 -11q0 -50 32 -84.5t81 -34.5v-4q105 0 182 153q66 131 66 249zM1420 453q0 66 -26 110 q-32 55 -93 55q-73 0 -146 -126q-87 -151 -87 -311q0 -125 99 -125q113 0 189 148q64 124 64 249z" />
<glyph unicode="&#x26;" horiz-adv-x="1593" d="M1538 220q-57 -120 -123 -175q-81 -67 -201 -67q-94 0 -185 57q-61 38 -152 125q-239 -190 -457 -190q-160 0 -258 78q-107 85 -107 241q0 170 137 305q96 95 288 190q-80 153 -80 302q0 146 89 230.5t235 84.5q120 0 199 -68q84 -71 84 -189q0 -199 -315 -345 q96 -165 263 -417q65 83 115 181q62 122 62 199q0 81 -93 84v46h400v-46q-94 -3 -156 -88q-13 -17 -64 -115q-94 -179 -205 -328q181 -177 308 -177q90 0 184 108zM884 1155q0 72 -36 122q-40 57 -109 57q-80 0 -120 -69q-33 -57 -33 -142q0 -84 76 -246q222 112 222 278z M811 227q-184 236 -305 473q-235 -138 -235 -333q0 -110 81 -192t191 -82q138 0 268 134z" />
<glyph unicode="'" horiz-adv-x="369" d="M285 1280q0 -103 -29 -240q-14 -66 -51 -237h-44q-14 64 -49 230q-28 132 -28 232q0 122 97 122q46 0 75 -30.5t29 -76.5z" />
<glyph unicode="(" horiz-adv-x="682" d="M609 1334q-207 -156 -286 -376q-64 -178 -64 -472q0 -281 67 -459q79 -209 278 -366l-30 -41q-501 324 -501 885q0 565 506 877z" />
<glyph unicode=")" horiz-adv-x="682" d="M606 510q0 -548 -499 -892l-26 47q203 177 274 369q60 162 60 456q0 306 -59 469q-71 197 -280 380l29 41q234 -142 366 -369q135 -231 135 -501z" />
<glyph unicode="*" d="M893 762q0 -25 -23.5 -43.5t-49.5 -18.5q-52 0 -97 51q-20 24 -74 87q-9 10 -104 73q0 -9 -2 -28t-2 -28q0 -44 28 -128.5t28 -128.5q0 -31 -24.5 -54.5t-55.5 -23.5t-55 25.5t-24 56.5l-5 11q1 22 22 87q36 112 36 207q-87 -47 -166 -138q-58 -67 -108 -67 q-33 0 -57.5 21t-24.5 54l-4 2q0 81 149 102q76 11 186 71q-59 35 -91 43q-75 18 -146 38q-98 26 -98 90l4 6q0 72 78 72q51 0 102 -54q21 -23 81 -89q17 -14 95 -63q0 111 -32 206q-8 24 -21 82l-5 6q0 36 24.5 64.5t59.5 28.5q80 0 80 -93q0 -50 -28 -147t-28 -147 q99 60 160 128q74 82 123 82q69 0 69 -82q0 -56 -51 -80q-39 -18 -136 -43q-89 -23 -135 -48q77 -50 173 -71q79 -18 102 -31q47 -27 47 -88z" />
<glyph unicode="+" horiz-adv-x="1155" d="M1113 551h-480v-481h-111v481h-480v110h480v481h111v-481h480v-110z" />
<glyph unicode="," horiz-adv-x="512" d="M404 19q0 -208 -279 -343l-15 45q210 132 210 249q-9 24 -26 24q-13 0 -39 -4.5t-39 -4.5q-43 0 -75.5 32.5t-32.5 75.5q0 55 41 88q37 31 93 31q76 0 121 -60q41 -54 41 -133z" />
<glyph unicode="-" horiz-adv-x="682" d="M611 460h-540v175h540v-175z" />
<glyph unicode="." horiz-adv-x="512" d="M375 99q0 -49 -35 -85t-84 -36q-47 0 -83 34t-36 81t36 83t83 36q48 0 83.5 -33t35.5 -80z" />
<glyph unicode="/" horiz-adv-x="569" d="M563 1412l-456 -1434h-101l449 1434h108z" />
<glyph unicode="0" d="M981 700q0 -282 -97 -474q-125 -248 -378 -248q-233 0 -361 250q-102 200 -102 459q0 266 103 464q128 246 370 246q238 0 364 -242q101 -194 101 -455zM775 687q0 632 -263 632q-259 0 -259 -585q0 -682 268 -682q154 0 207 205q47 182 47 430z" />
<glyph unicode="1" d="M805 0h-573v41q107 0 147 31q46 36 46 140v900q0 89 -63 89q-25 0 -143 -46v41l391 201v-1196q0 -102 50 -134q33 -21 145 -26v-41z" />
<glyph unicode="2" d="M959 283l-95 -283h-799v32l177 188q249 265 295 325q159 209 159 394q0 130 -75 211t-204 81q-115 0 -192 -81q-57 -60 -108 -185l-41 13q71 415 438 415q166 0 266.5 -105.5t100.5 -272.5q0 -183 -224 -456q-115 -140 -370 -384h387q3 0 9.5 -2t9.5 -2q155 0 223 127z " />
<glyph unicode="3" d="M924 458q0 -224 -175 -358q-160 -122 -390 -122q-90 0 -161 28q-96 38 -96 113q0 53 25 72q22 16 76 16q28 0 70 -35q58 -48 89 -65q67 -36 150 -36q114 0 185 85q68 80 68 196q0 152 -100 244q-96 88 -250 88q-25 0 -89 -4v41q352 114 352 315q0 102 -80 162 q-71 54 -177 54q-115 0 -180 -55q-53 -45 -105 -161l-36 20q77 345 414 345q137 0 231 -72q104 -78 104 -211q0 -164 -171 -282q246 -123 246 -378z" />
<glyph unicode="4" d="M972 339h-199v-339h-170v339h-551v177l622 877h99v-903h199v-151zM603 490v654l-471 -654h471z" />
<glyph unicode="5" d="M940 1408l-63 -207h-531l-46 -165q269 -15 428 -138q181 -141 181 -399q0 -235 -166 -381q-159 -140 -397 -140q-262 0 -262 126l5 4q-3 88 101 88q42 0 142.5 -61.5t153.5 -61.5q119 0 196 108q68 97 68 221q0 236 -197 352q-154 91 -412 101l142 516h497q95 0 127 52z " />
<glyph unicode="6" d="M959 469q0 -208 -111 -348q-120 -151 -323 -151q-223 0 -349 185q-111 163 -111 396q0 254 112 465q122 229 341 327q146 65 374 65v-43q-252 -40 -383 -176q-117 -121 -189 -379q146 77 272 77q170 0 272 -127q95 -117 95 -291zM771 367q0 161 -58 271q-73 139 -220 139 q-78 0 -199 -75q-22 -87 -22 -182q0 -183 49 -301q69 -167 226 -167q115 0 175 105q49 86 49 210z" />
<glyph unicode="7" d="M963 1375l-453 -1397h-141l409 1227h-406q-121 0 -163 -31q-23 -17 -101 -133l-47 15l125 319h777z" />
<glyph unicode="8" d="M915 330q0 -163 -117 -261q-110 -91 -276 -91q-163 0 -280 84q-131 94 -131 251l-2 2q0 204 264 376q-127 102 -170 156q-76 95 -76 213q0 162 114 253q104 84 270 84q151 0 251 -67q116 -78 116 -222q0 -121 -79 -208q-57 -63 -184 -131q140 -105 205 -185 q95 -118 95 -254zM725 1103q0 98 -62.5 159.5t-160.5 61.5q-92 0 -150 -51q-61 -53 -61 -144q0 -164 248 -308q91 65 131 118q55 73 55 164zM748 268q0 112 -109 216q-46 44 -204 151q-79 -63 -114 -132q-16 -32 -24 -81l-13 -83q-2 -5 -4 -13q0 -120 69 -195t188 -75 q93 0 152 59.5t59 152.5z" />
<glyph unicode="9" d="M958 814q0 -390 -223 -622q-227 -237 -615 -237v51q259 20 410 172q134 136 203 401q-155 -96 -289 -95l-6 -5q-170 0 -274 126q-98 117 -98 291q0 205 114 347q124 154 324 154q223 0 347 -187q107 -162 107 -396zM748 825q0 499 -252 499q-229 0 -229 -329 q0 -142 50 -257q66 -151 190 -151q99 0 235 89q6 46 6 149z" />
<glyph unicode=":" horiz-adv-x="569" d="M397 833q0 -48 -33.5 -82t-81.5 -34q-50 0 -82 34.5t-32 84.5q0 48 33 82t81 34q49 0 82 -35t33 -84zM401 97q0 -49 -35 -82.5t-84 -33.5q-47 0 -80.5 34.5t-33.5 81.5q0 50 32 84.5t82 34.5t84.5 -34.5t34.5 -84.5z" />
<glyph unicode=";" horiz-adv-x="569" d="M382 833q0 -48 -34.5 -82t-82.5 -34q-50 0 -84.5 34.5t-34.5 84.5q0 49 34 83.5t83 34.5q51 0 85 -35t34 -86zM433 26q0 -201 -278 -350l-15 45q203 132 203 249q0 25 -22 26q-20 -11 -67 -11q-118 0 -118 108q0 55 40 88q37 31 93 31q79 0 123 -55q41 -50 41 -131z" />
<glyph unicode="&#x3c;" horiz-adv-x="1155" d="M1098 -16l-1041 471v127l1041 471v-140l-871 -395l871 -395v-139z" />
<glyph unicode="=" horiz-adv-x="1155" d="M1094 655h-1033v136h1033v-136zM1094 246h-1033v135h1033v-135z" />
<glyph unicode="&#x3e;" horiz-adv-x="1155" d="M1098 455l-1041 -471v139l871 395l-871 395v140l1041 -471v-127z" />
<glyph unicode="?" horiz-adv-x="909" d="M814 1060q0 -102 -61 -201q-23 -37 -128 -168q-84 -105 -114 -177q-21 -51 -45 -173h-41q0 130 96 374.5t96 374.5q0 99 -61 170q-64 74 -161 74q-64 0 -118 -32q-64 -37 -64 -97q0 -3 37 -59.5t37 -89.5q0 -39 -25 -66t-64 -27q-63 0 -84 53q-7 17 -17 102q-2 17 -2 27 q0 119 120 192q105 64 238 64q155 0 256 -92q105 -96 105 -249zM559 93q0 -48 -34.5 -80t-82.5 -32q-49 0 -86 33.5t-37 82.5q0 48 37 83.5t86 35.5q52 0 84.5 -35.5t32.5 -87.5z" />
<glyph unicode="@" horiz-adv-x="1886" d="M1653 780q0 -179 -99 -324q-111 -163 -282 -163q-64 0 -120 40q-62 43 -62 105q-40 -52 -107 -95q-75 -48 -133 -48q-197 0 -197 254q0 173 111 325q121 166 293 166q58 0 90 -28q22 -19 55 -78l21 78h141l-133 -520q-4 -16 -4 -41q0 -91 78 -91q123 0 201 153 q65 127 65 265q0 230 -182 390q-175 153 -408 153q-282 0 -437 -214q-138 -191 -138 -482q0 -249 173 -413q169 -161 420 -161q190 0 406 99l25 -62q-261 -117 -429 -117q-307 0 -529 180q-239 193 -239 494q0 323 212 531t536 208q279 0 470 -160q202 -170 202 -444z M1167 817q0 133 -88 133q-120 0 -205 -143q-75 -126 -75 -252q0 -172 129 -172q99 0 175 173q64 145 64 261z" />
<glyph unicode="A" horiz-adv-x="1479" d="M1440 0h-516v48l27 -1q101 -4 101 67q0 65 -44 162q-13 28 -73 156h-512q-112 -243 -112 -318q0 -68 138 -66v-48h-410v48q86 18 145 108q28 43 82 170l447 1054h47l505 -1173q40 -93 58 -114q37 -44 117 -48v-45zM898 527l-216 520l-218 -520h434z" />
<glyph unicode="B" horiz-adv-x="1366" d="M1268 365q0 -223 -201 -308q-134 -57 -393 -57h-565v52q109 2 148 48q37 43 37 153v820q0 139 -28 176q-33 44 -168 55v52h546q557 0 557 -352q0 -115 -57 -185q-49 -59 -163 -109q148 -72 203 -127q84 -84 84 -218zM985 995q0 269 -356 269q-29 0 -117 -5v-512h82 q175 0 261 38q130 57 130 210zM1022 371q0 283 -408 283h-102v-447q0 -87 33 -106q23 -13 82 -13q187 0 275 48q120 65 120 235z" />
<glyph unicode="C" horiz-adv-x="1366" d="M1302 242q-252 -272 -562 -272q-304 0 -492 199q-184 194 -184 500q0 312 196 514.5t506 202.5q123 0 277 -52q41 -14 71 -19l2 -2q59 8 97 73h41l20 -468l-57 -11q-129 378 -442 378q-231 0 -359 -194q-110 -167 -110 -411q0 -260 120 -419q133 -179 385 -179 q220 0 443 205z" />
<glyph unicode="D" horiz-adv-x="1479" d="M1422 679q0 -334 -234 -515q-212 -164 -554 -164h-577v52q95 1 135 37q44 38 44 131v886q0 108 -34 150q-39 46 -145 45v54h443q421 0 639 -124q283 -161 283 -552zM1184 668q0 290 -167 446q-163 152 -455 152q-110 0 -110 -97v-1050q0 -33 120 -33q291 0 448 144 q164 150 164 438z" />
<glyph unicode="E" horiz-adv-x="1251" d="M1220 350l-97 -350h-1092v56q114 4 147 47q27 35 27 146v832q0 125 -24 162q-33 51 -150 55v58h1075l11 -309h-63q-32 132 -80 173q-52 43 -185 43h-289q-74 0 -74 -21v-488h295q120 0 161.5 37t59.5 157h56v-484h-56q-13 109 -52 148q-42 42 -149 42h-315v-462 q0 -66 22 -84q18 -15 84 -15h197q173 0 260 52t164 205h67z" />
<glyph unicode="F" horiz-adv-x="1139" d="M1110 1047h-60q-31 131 -70 168q-46 44 -175 44h-381v-501h280q115 0 159.5 38.5t52.5 151.5h65v-488h-61q-25 127 -50 155q-35 39 -156 39h-290v-395q0 -114 27 -151q35 -48 150 -52v-56h-572v56q117 9 149 52q26 35 26 149v855q0 108 -33.5 144t-141.5 44v56h1073z" />
<glyph unicode="G" horiz-adv-x="1479" d="M1426 676q-87 3 -116 -50q-20 -37 -20 -132v-390q-282 -130 -509 -130q-319 0 -520 182q-208 189 -208 505t187 516q192 205 506 205q120 0 302 -52q24 -7 72 -15l2 -2q52 7 90 69h41l22 -445h-63q-113 348 -447 348q-221 0 -352 -182q-117 -162 -117 -392 q0 -640 521 -640q137 0 262 78v350q0 96 -37 133t-134 44v52h518v-52z" />
<glyph unicode="H" horiz-adv-x="1479" d="M1437 0h-574v56q118 4 152 50q27 36 27 153v369h-598v-390q0 -102 34.5 -140t135.5 -42v-56h-572v56q121 4 154 47q27 35 27 160v839q0 116 -33 153q-35 41 -148 45v56h572v-56q-105 -9 -137.5 -47t-32.5 -145v-365h598v356q0 114 -32 153q-36 44 -147 48v56h574v-56 q-120 -4 -156 -57q-28 -41 -28 -161v-814q0 -119 28 -158q36 -50 156 -54v-56z" />
<glyph unicode="I" horiz-adv-x="682" d="M650 0h-618v52q120 3 159.5 43t39.5 160v827q0 132 -29 170q-37 49 -170 48v56h618v-56q-136 1 -174 -49q-31 -40 -31 -180v-797q0 -134 30 -173q38 -50 175 -49v-52z" />
<glyph unicode="J" horiz-adv-x="797" d="M764 1300q-116 -4 -153 -56q-28 -40 -28 -156v-695q0 -182 -77 -292q-89 -127 -264 -127q-78 0 -138 35q-71 41 -71 114q0 108 112 108q52 0 96.5 -84t63.5 -84q62 0 62 108v918q0 130 -27 165q-33 42 -159 46l-4 56h587v-56z" />
<glyph unicode="K" horiz-adv-x="1479" d="M1435 0h-618v48l34 -1q104 -3 104 46q0 53 -204 276q-158 172 -264 270l-52 -41v-330q0 -124 28 -163q36 -50 153 -53v-52h-572v56q121 3 156 51q28 38 28 164v823q0 119 -28 156q-35 47 -156 50v56h577v-56q-116 -3 -153 -48q-33 -40 -33 -159v-372q107 75 291 250 q221 210 221 273q0 68 -134 65v47h525v-47q-116 -9 -209 -75q-48 -34 -163 -152q-160 -164 -309 -305l469 -518q92 -102 136 -137q84 -68 173 -77v-45z" />
<glyph unicode="L" horiz-adv-x="1251" d="M1215 365l-106 -365h-1073v56q118 12 149 54q26 36 26 158v831q0 117 -27 152q-32 41 -144 49v56h573v-56q-122 -3 -158 -48q-32 -40 -32 -163v-858q0 -139 203 -139q228 0 315 38q118 52 209 235h65z" />
<glyph unicode="M" horiz-adv-x="1821" d="M1768 0h-562v52q106 8 138.5 45t32.5 145v881l-510 -1123h-26l-501 1071v-766q0 -135 26 -179q36 -61 160 -74v-52h-473v52q96 9 137 40q49 39 49 130v963q0 76 -61 100q-33 13 -125 13v58h402l468 -1017l443 1017h402v-58q-121 -13 -151 -56q-24 -34 -24 -161v-848 q0 -102 36 -137.5t139 -43.5v-52z" />
<glyph unicode="N" horiz-adv-x="1479" d="M1440 1300q-130 -22 -160 -74q-21 -36 -21 -178v-1074h-46l-881 1084l1 -760q0 -138 25 -182q37 -65 164 -68v-48h-483v48q130 8 167 67q27 43 27 182v891q-81 114 -194 112v56h345l773 -974v666q0 134 -26 178q-36 61 -159 74v56h468v-56z" />
<glyph unicode="O" horiz-adv-x="1479" d="M1409 659q0 -293 -187 -488q-190 -197 -482 -197q-297 0 -486 203q-184 198 -184 497q0 303 185 503q190 205 491 205t487 -214q176 -204 176 -509zM1163 726q0 229 -95 383q-113 184 -328 184q-229 0 -339 -215q-85 -166 -85 -419q0 -243 90 -403q112 -200 336 -200 q421 0 421 670z" />
<glyph unicode="P" horiz-adv-x="1139" d="M1105 959q0 -249 -238 -332q-138 -48 -446 -48v-292q0 -139 26 -177q35 -51 168 -54v-56h-581v56q121 12 152 59q23 35 23 164v807q0 123 -25 161q-34 51 -150 53v56h423q286 0 430 -61q218 -92 218 -336zM872 980q0 279 -376 279q-75 0 -75 -80v-505h127q324 0 324 306z " />
<glyph unicode="Q" horiz-adv-x="1479" d="M1407 -354h-82q-457 0 -681 240l-86 92q-13 14 -104 63q-106 57 -162 102q-75 60 -125 146q-95 163 -95 391q0 303 183 499q188 201 489 201q293 0 477 -206q177 -199 177 -495q0 -260 -135.5 -440t-384.5 -250q224 -298 529 -298v-45zM1156 713q0 228 -92 387 q-112 193 -324 193l-3 5q-239 0 -346 -217q-81 -163 -81 -429q0 -238 93 -398q113 -194 334 -194q236 0 341 223q78 165 78 430z" />
<glyph unicode="R" horiz-adv-x="1366" d="M1332 0h-328l-475 613h-108v-360q0 -112 31 -149q35 -41 144 -48v-56h-562v56q110 3 145 53q26 38 26 148v861q0 103 -34.5 141t-136.5 41v56h472q271 0 401 -55q200 -85 200 -316q0 -264 -347 -342l311 -395q81 -103 109 -128q66 -59 152 -68v-52zM881 1006 q0 257 -368 257q-53 0 -72.5 -20t-19.5 -73v-460q74 -4 58 -4q402 0 402 300z" />
<glyph unicode="S" horiz-adv-x="1139" d="M1025 339q0 -174 -132 -276q-121 -93 -300 -93q-93 0 -175 30q-122 45 -129 45q-50 0 -59 -67h-56l-60 441h60q128 -356 408 -356q102 0 166.5 61.5t64.5 162.5q0 136 -166 242q-18 11 -310 192q-167 131 -167 309q0 152 106 252t259 100q49 0 142.5 -34.5t142.5 -34.5 q57 0 78 67h49l41 -443h-56q-121 348 -365 348q-81 0 -142 -52q-65 -54 -65 -134q0 -112 172 -225l321 -210q172 -143 172 -325z" />
<glyph unicode="T" horiz-adv-x="1251" d="M1211 999h-61q-30 180 -139 231q-70 33 -278 33v-989q0 -131 31 -171q37 -48 164 -47v-56h-603v56q130 3 163 48q27 36 27 170v989h-92q-169 0 -229 -49.5t-95 -214.5h-59l18 357h1133z" />
<glyph unicode="U" horiz-adv-x="1479" d="M1438 1303q-124 -4 -161 -70q-25 -45 -25 -180v-589q0 -245 -141 -372q-135 -122 -383 -122q-278 0 -403 166q-109 145 -109 432v547q0 104 -35 143q-38 42 -140 43v54h581v-54q-120 -2 -157 -52q-29 -40 -29 -158v-108q1 -150 1 -153l1 -262q0 -246 49 -342 q73 -144 295 -144q237 0 315 153q52 102 52 366v483q0 127 -26 165q-35 51 -156 52v54h471v-52z" />
<glyph unicode="V" horiz-adv-x="1479" d="M1428 1300q-87 -12 -138 -91q-17 -27 -69 -157l-428 -1078h-36l-480 1073q-66 148 -77 164q-56 83 -149 89v56h546v-56h-30q-121 0 -119 -67l4 -2q1 -41 56 -164l320 -717l274 706q46 119 46 170q0 73 -143 72v58h423v-56z" />
<glyph unicode="W" horiz-adv-x="1933" d="M1901 1300q-90 -11 -142 -97q-17 -29 -67 -167q-141 -391 -363 -1058h-41q-56 188 -149 421l-166 415q-105 -277 -302 -836h-41l-387 1054q-50 136 -69 167q-51 83 -142 101v56h500v-56h-25q-100 0 -100 -58q0 -34 22 -93l278 -747l210 552l-56 145q-45 117 -66 144 q-45 58 -142 57v56h538v-56q-146 2 -149 -69h4q10 -46 33 -106l283 -723l237 669q35 99 35 145q0 88 -134 84v56h401v-56z" />
<glyph unicode="X" horiz-adv-x="1479" d="M1433 0h-594v48q70 2 92 7q57 13 57 57q0 57 -283 465q-346 -391 -346 -458q0 -73 145 -71v-48h-458v48q95 13 186 100q40 39 138 165l274 355l-259 380q-85 125 -131 170q-87 86 -188 89v48h609v-48h-24q-125 0 -125 -58q0 -53 252 -417l216 268q78 97 78 145 q0 55 -130 62v48h476v-48q-115 -6 -213 -99q-34 -32 -155 -186l-211 -268l270 -413q86 -132 135 -185q96 -105 189 -108v-48z" />
<glyph unicode="Y" horiz-adv-x="1479" d="M1425 1296q-108 -13 -224 -156q-35 -43 -160 -237l-192 -298v-342q0 -124 36.5 -163.5t159.5 -43.5v-56h-613v56q121 4 158 35q43 36 43 155v342l-324 490q-70 105 -105 143q-69 74 -150 84v51h572v-56l-36 1q-113 3 -113 -53l4 -4q12 -58 327 -522q308 458 308 511 q0 70 -138 67v56h447v-60z" />
<glyph unicode="Z" horiz-adv-x="1251" d="M1215 365l-45 -365h-1134v41l851 1231h-419q-172 0 -238 -52q-69 -53 -101 -220h-56l30 356h1067v-32l-855 -1238h439q200 0 269 44q79 51 136 235h56z" />
<glyph unicode="[" horiz-adv-x="682" d="M572 -341h-462v1697h462v-58h-158q-114 0 -114 -87q0 -17 2 -51.5t2 -51.5v-1220q0 -5 -2 -14.5t-2 -13.5q0 -78 31.5 -110.5t109.5 -32.5q22 0 65.5 2t65.5 2v-62z" />
<glyph unicode="\" horiz-adv-x="569" d="M563 -22h-99l-458 1434h108z" />
<glyph unicode="]" horiz-adv-x="682" d="M572 -341h-462v58h190q51 0 69 28q13 21 13 76v1345q0 66 -18 93q-23 34 -86 34h-168v63h462v-1697z" />
<glyph unicode="^" horiz-adv-x="961" d="M912 608h-139l-293 592l-293 -592h-139l371 748h123z" />
<glyph unicode="_" d="M1024 -256h-1024v102h1024v-102z" />
<glyph unicode="`" horiz-adv-x="682" d="M521 1077h-67l-293 346h248z" />
<glyph unicode="a" horiz-adv-x="909" d="M870 73q-88 -99 -186 -99q-101 0 -133 140q-160 -133 -307 -133q-91 0 -150 76q-55 70 -55 163q0 163 184 276q96 59 328 137v95q0 164 -147 164q-154 0 -154 -87q0 -13 3.5 -38.5t3.5 -38.5q0 -93 -93 -93q-95 0 -95 101q0 109 126 169q99 47 222 47q308 0 308 -312 v-444q0 -97 65 -97q28 0 80 39v-65zM548 196v365q-155 -48 -214 -86q-109 -70 -109 -188q0 -66 33 -118q38 -61 100 -61q96 0 190 88z" />
<glyph unicode="b" d="M986 490q0 -212 -135 -358q-139 -151 -349 -151q-88 0 -176 27q-103 31 -154 85v1071q0 76 -32 100q-26 20 -102 19v32l304 97v-609q132 151 290 151q168 0 268 -153q86 -132 86 -311zM802 423q0 145 -55 254q-69 137 -199 137q-74 0 -134 -35q-72 -42 -72 -110v-535 q101 -78 216 -78q133 0 196 124q48 95 48 243z" />
<glyph unicode="c" horiz-adv-x="909" d="M862 304q-137 -326 -415 -326q-181 0 -295 151q-105 139 -105 324q0 206 130 349q135 146 339 146q114 0 210 -55q114 -65 114 -172q0 -93 -89 -93q-77 0 -98 67q-10 34 -37 124q-33 66 -130 66q-129 0 -205 -119q-65 -102 -65 -239q0 -156 80 -268q90 -125 239 -125 q97 0 169 57q54 43 116 139z" />
<glyph unicode="d" d="M988 89l-313 -115v119q-97 -69 -125 -83q-63 -32 -147 -32q-170 0 -274 144q-93 129 -93 306q0 200 113 354q125 170 319 170q103 0 207 -80v298q0 113 -71 113q-33 0 -67 -9v41l309 97v-1185q0 -110 77 -108l11 4q39 0 54 2v-36zM675 190v402q0 136 -35 202 q-48 91 -172 91q-126 0 -196 -123q-57 -101 -57 -237q0 -159 63 -281q78 -151 222 -151q109 0 175 97z" />
<glyph unicode="e" horiz-adv-x="909" d="M865 335q-151 -361 -434 -361q-192 0 -296 147q-91 128 -91 328t107 345q118 160 312 160q179 0 276 -132q84 -114 93 -302h-626q0 -4 -1 -10.5t-1 -10.5q0 -159 79 -261q86 -113 241 -113q174 0 300 227zM634 592q-25 278 -216 278q-192 0 -207 -278h423z" />
<glyph unicode="f" horiz-adv-x="682" d="M712 1267q0 -82 -82 -82q-46 0 -104 74.5t-99 74.5q-118 0 -118 -226q0 -120 6 -180h246v-77h-246v-603q0 -133 26 -166q32 -41 160 -45v-37h-531v37q104 -1 138 49q26 39 26 149v616h-164v77h164q12 478 360 478q79 0 141 -30q77 -37 77 -109z" />
<glyph unicode="g" d="M968 803h-160q37 -128 37 -179q0 -138 -100 -231t-239 -93l-7 4q-36 4 -108 16q-99 -68 -104 -124q22 -56 301 -56q171 0 250 -37q117 -55 117 -204q0 -157 -196 -260q-164 -86 -338 -86q-120 0 -230 53q-135 65 -135 172q0 40 84 123q20 20 117 110q-103 44 -103 103 t47 107q12 12 89 83q11 13 38 35q-185 105 -185 281q0 158 109 251q104 88 264 88q70 0 180 -41q59 -22 134 -24q-44 1 138 2v-93zM676 550q0 119 -45 217q-57 125 -162 125q-149 0 -149 -190q0 -120 40 -213q53 -124 156 -124q78 0 121 55q39 50 39 130zM886 -127 q0 45 -41 72q-35 23 -83 25l-308 11q-47 7 -141 15q-97 -115 -97 -162q0 -149 313 -149q122 0 221 37q136 51 136 151z" />
<glyph unicode="h" d="M1002 0h-442v37q87 6 116 53q22 36 22 130v387q0 108 -24 153q-35 65 -132 65q-60 0 -117 -38q-27 -18 -97 -81v-486q0 -91 21 -127q27 -47 111 -56v-37h-438v37q83 6 110 56q19 36 19 127v959q0 70 -28 89q-22 15 -95 15v41l300 92v-613q95 82 134 104q73 41 164 41 q251 0 251 -335v-393q0 -90 18 -124q26 -50 107 -59v-37z" />
<glyph unicode="i" horiz-adv-x="569" d="M369 1252q0 -41 -29 -70t-70 -29q-40 0 -71 29.5t-31 69.5t31 70t71 30q43 0 71 -28.5t28 -71.5zM528 0h-487v41q105 0 136 47q23 35 23 140v463q0 123 -62 123q-5 0 -87 -11v37l329 119v-717q0 -113 18 -147q29 -54 130 -54v-41z" />
<glyph unicode="j" horiz-adv-x="569" d="M382 1252q0 -41 -29 -70t-70 -29q-40 0 -71 29.5t-31 69.5t31 70t71 30q43 0 71 -28.5t28 -71.5zM380 26q0 -469 -357 -469q-70 0 -122 24q-68 31 -68 93q0 80 82 80q38 0 100 -60.5t95 -60.5q95 0 95 173v904q0 108 -69 108q-5 0 -87 -19v41l331 119v-933z" />
<glyph unicode="k" d="M1021 0h-450v37q78 0 78 23q0 9 -315 441v-300q0 -159 149 -164v-37h-480v37q93 4 130 56q30 44 30 141v945q0 97 -81 97q-12 0 -36 -1t-36 -1v41l324 93v-866l180 154q144 123 144 155q0 23 -42 31q-30 3 -60 5v39h423v-39q-109 -9 -179 -48q-50 -28 -147 -113 l-170 -149l237 -318q156 -209 301 -222v-37z" />
<glyph unicode="l" horiz-adv-x="569" d="M532 0h-495v37q103 0 136 51q24 37 24 148v928q0 119 -78 119l-4 2q-41 0 -78 -7v37l339 101v-1204q0 -94 31 -131q33 -41 125 -44v-37z" />
<glyph unicode="m" horiz-adv-x="1593" d="M1575 0h-456v37q95 4 124 52q21 35 21 136v395q0 216 -164 216q-98 0 -212 -115v-483q0 -108 19 -142q29 -51 126 -59v-37h-464v37q92 4 122 50q22 34 22 128v387q0 231 -155 231q-101 0 -220 -105v-490q0 -107 19 -143q29 -54 125 -58v-37h-464v37q97 4 126 58 q19 36 19 143v457q0 115 -82 115q-27 0 -52 -5v41l304 113v-160q97 75 147 102q87 47 171 47q153 0 218 -169q88 89 142 122q83 51 177 51q247 0 247 -332v-400q0 -97 21 -132q29 -49 119 -51v-37z" />
<glyph unicode="n" d="M994 0h-432v41q81 3 109 53q20 36 20 122v371q0 234 -140 234l-4 4q-89 0 -208 -119v-490q0 -86 20 -121q28 -50 110 -54v-41h-439v41q83 4 110 51q22 38 21 269l-1 289q0 168 -93 168q-6 0 -37 -4v37l309 108v-160q112 94 127 104q70 45 156 45q122 0 186 -85 q58 -76 58 -202v-445q0 -85 20 -120q26 -45 108 -59v-37z" />
<glyph unicode="o" d="M965 494q0 -210 -124 -357q-131 -156 -338 -156q-198 0 -323 141q-121 136 -121 336q0 213 126 352q131 144 342 144q199 0 320 -131q118 -128 118 -329zM771 412q0 171 -59 303q-77 172 -226 172q-126 0 -188 -117q-49 -92 -49 -230q0 -178 58 -314q77 -181 231 -181 q233 0 233 367z" />
<glyph unicode="p" d="M994 510q0 -207 -116 -362q-127 -170 -327 -170q-86 0 -192 78v-257q0 -120 24 -155q32 -46 146 -46v-41h-499v41q99 4 127 57q18 34 18 144v939q0 76 -56 76q-22 0 -73 -4v41l313 114v-147q148 136 289 136q163 0 260 -145q86 -128 86 -299zM808 432q0 146 -54 252 q-68 134 -199 134q-100 0 -196 -116v-527q81 -115 203 -115q128 0 194 129q52 101 52 243z" />
<glyph unicode="q" d="M991 -443h-485v41q117 -1 151 54q23 38 23 164v296q-163 -138 -298 -138q-169 0 -265 143q-84 125 -84 302q0 220 124 371q133 162 349 162q95 0 222 -67l127 80v-1186q0 -178 136 -181v-41zM680 207v462q0 108 -37 158q-44 58 -148 58q-144 0 -219 -135 q-60 -108 -60 -266q0 -150 61 -251q73 -121 213 -121q112 0 190 95z" />
<glyph unicode="r" horiz-adv-x="682" d="M684 833q0 -39 -23 -68t-61 -29q-23 0 -74 34.5t-75 34.5q-28 0 -76.5 -53.5t-48.5 -82.5v-477q0 -94 43 -126q34 -25 127 -25v-41h-498v41q90 0 121 51q23 38 23 130v428q0 160 -69 160q-6 0 -75 -11v37l328 127v-190q122 179 237 179q121 0 121 -119z" />
<glyph unicode="s" horiz-adv-x="797" d="M707 242q0 -122 -98 -197q-89 -67 -215 -67q-38 0 -111.5 20.5t-110.5 20.5q-19 0 -43 -25h-39v310h45q63 -267 274 -267q64 0 105.5 39.5t41.5 102.5q0 87 -121 160q-62 38 -224 135q-121 93 -121 221q0 113 84 187q80 72 194 72q39 0 115.5 -21.5t115.5 -21.5 q11 0 37 22h19l5 -279h-39q-53 244 -248 244q-60 0 -102.5 -38t-42.5 -98q0 -85 124 -157l231 -135q124 -94 124 -228z" />
<glyph unicode="t" horiz-adv-x="569" d="M581 134q-130 -164 -259 -164q-179 0 -179 276v598h-155v54q142 20 202 86q54 60 76 206h61v-264h203v-82h-203v-602q0 -149 103 -149q59 0 123 71z" />
<glyph unicode="u" d="M998 73l-298 -99v164q-96 -84 -132 -109q-81 -55 -157 -55q-257 0 -257 330v469q0 67 -31 94q-28 24 -97 25v36h305v-598q0 -231 133 -231q56 0 123 35q64 33 102 78v531q0 90 -31 116q-24 20 -118 33v36h326v-665q0 -100 18 -123q22 -28 114 -32v-35z" />
<glyph unicode="v" d="M982 887q-71 -14 -126 -149l-306 -757h-39l-298 706q-47 111 -58 128q-42 65 -113 77v36h408v-36q-97 0 -97 -59l5 -4q0 -31 10 -56l212 -520l194 501q18 46 18 75q0 32 -34 47q-10 4 -61 16v36h285v-41z" />
<glyph unicode="w" horiz-adv-x="1505" d="M1446 892q-53 -21 -98 -134l-306 -773h-35l-231 546l-248 -546h-41l-315 777q-24 60 -40 82q-26 37 -73 52v32h380v-32q-93 -19 -92 -71l2 -4q1 -30 15 -67l190 -508l181 400l-58 142q-23 57 -41 75q-24 24 -78 33v32h423v-32q-118 -19 -118 -71q0 -27 15 -67l185 -495 l186 475q20 51 20 91q0 48 -82 67v32h259v-36z" />
<glyph unicode="x" d="M988 0h-421v37l-4 4h20q62 0 62 41q0 40 -190 320q-197 -315 -197 -329q0 -19 32 -26l46 -10v-37h-300v41q64 9 108 50q24 22 73 95l195 289l-190 294q-42 66 -68 85q-32 24 -103 38v36h434v-41q-89 -9 -89 -47q0 -26 119 -207q125 170 125 213q0 22 -25 31l-44 10v41 h326v-43q-116 -18 -185 -116l-151 -216l248 -378q43 -66 73 -92q42 -37 106 -46v-37z" />
<glyph unicode="y" d="M986 896q-57 -19 -87 -71q-10 -17 -43 -108l-231 -624q-88 -235 -145 -333q-121 -207 -263 -207q-60 0 -103 31q-47 34 -50 92l-4 9q0 38 36 64q33 24 72 24q25 0 72 -20.5t72 -20.5q61 0 120 123l70 177l-283 637q-50 113 -66 138q-50 79 -115 89v32h432v-32 q-121 1 -121 -60q0 -35 111 -286q60 -136 135 -302l112 299q93 248 93 293q0 56 -93 56v32h279v-32z" />
<glyph unicode="z" horiz-adv-x="909" d="M869 287l-26 -287h-803l557 851h-257q-96 0 -133 -38q-33 -35 -42 -133h-47v248h751l-570 -850h309q116 0 158 49q34 39 53 160h50z" />
<glyph unicode="{" horiz-adv-x="983" d="M788 -479q-163 17 -284 98q-145 97 -145 247q0 66 29 194t29 193q0 172 -222 257v47q119 69 156 106q66 67 66 170q0 21 -54 355l-2 2q0 269 427 352v-56q-216 -70 -216 -290q0 -56 14.5 -167t14.5 -167q0 -190 -314 -327q314 -122 314 -371q0 -53 -15.5 -158.5 t-15.5 -158.5q0 -206 218 -279v-47z" />
<glyph unicode="|" horiz-adv-x="410" d="M256 -22h-102v1434h102v-1434z" />
<glyph unicode="}" horiz-adv-x="983" d="M788 499q-222 -108 -222 -261q0 -62 28 -182.5t28 -182.5q0 -289 -427 -352v51q119 44 169 121q47 74 47 203q0 137 -26 270q-5 25 -5 13q0 222 324 341q-139 49 -223 133q-101 101 -101 232l5 7q0 54 14 162t14 162q0 98 -61.5 174.5t-156.5 99.5v52q177 -27 287 -104 q140 -97 140 -257q0 -62 -28 -183.5t-28 -183.5l-4 -9q0 -168 226 -254v-52z" />
<glyph unicode="~" horiz-adv-x="1108" d="M1027 559q-62 -88 -106 -123q-66 -53 -150 -53q-74 0 -220 69.5t-224 69.5q-106 0 -172 -147l-74 102q90 176 256 176q75 0 232 -69.5t204 -69.5q86 0 180 148z" />
<glyph unicode="&#xa1;" horiz-adv-x="682" d="M460 1296l-5 -5q0 -52 -33 -85.5t-85 -33.5q-49 0 -82 33t-33 82q0 50 36.5 84.5t86.5 34.5q45 0 80 -33t35 -77zM453 153q0 -175 -118 -175q-106 0 -106 171l-2 4q0 14 21 242l56 609q4 39 33 39q30 0 34 -39l63 -609q19 -184 19 -242z" />
<glyph unicode="&#xa2;" d="M919 304q-138 -326 -415 -326q-59 0 -113 18l-75 -241h-83l86 274q-102 61 -160 184q-54 113 -54 240q0 203 128 346q133 149 334 149q20 0 40 -2l76 242h82l-80 -255q212 -56 212 -212q0 -93 -88 -93q-59 0 -85 40q-15 24 -31 89q-14 61 -36 87l-211 -672 q66 -38 147 -38q97 0 169 57q53 42 116 139zM586 882q-19 3 -43 3q-128 0 -204 -119q-66 -103 -66 -239q0 -187 108 -302z" />
<glyph unicode="&#xa3;" d="M1001 279q0 -24 -28 -85q-44 -95 -130 -151.5t-190 -56.5q-112 0 -291 125q-54 -65 -87 -89q-52 -38 -115 -38q-137 0 -137 125q0 78 58 120q51 37 132 37q32 0 90 -10l6 35q0 89 -43 381h-221v92h219q-14 69 -14 137q0 209 93 337q105 146 306 146q101 0 176 -44 q90 -53 90 -146q0 -46 -27.5 -77.5t-72.5 -31.5q-69 0 -77 64q-2 19 -12 117q-19 63 -108 63q-194 0 -194 -278q0 -100 22 -287h256v-92h-249q2 -39 2 -97q0 -102 -49 -348q158 -71 307 -71q84 0 151 38q23 13 125 95zM289 158q0 13 -51 25q-43 10 -66 10q-96 0 -96 -78 q0 -74 82 -74q50 0 90.5 34t40.5 83z" />
<glyph unicode="&#xa4;" d="M1069 221l-98 -102l-201 200q-107 -83 -256 -83q-143 0 -260 83l-197 -200l-102 102l201 197q-84 115 -84 260q0 149 84 256l-201 201l102 98l197 -197q111 80 260 80q158 0 256 -80l201 197l98 -98l-197 -201q80 -107 80 -256q0 -145 -80 -260zM813 678q0 130 -85 218.5 t-214 88.5q-128 0 -215.5 -89.5t-87.5 -217.5q0 -132 86 -221.5t217 -89.5q129 0 215 92q84 89 84 219z" />
<glyph unicode="&#xa5;" d="M1004 1300q-78 -13 -166 -166q-27 -47 -110 -227l-83 -180h188v-71h-221l-22 -47v-61h243v-69h-243v-216q0 -118 15 -149q26 -53 126 -58v-56h-440v56q97 5 124 49q20 33 20 141v233h-249v69h249v44l-30 64h-219v71h185l-168 355q-49 103 -70 135q-54 81 -113 92v51h411 v-56l-26 1q-33 1 -54 -9q-28 -14 -27 -44l3 -4q7 -61 114 -280q33 -67 119 -241h2q220 469 220 510q0 68 -99 67v56h321v-60z" />
<glyph unicode="&#xa6;" horiz-adv-x="410" d="M264 546h-118v862h118v-862zM264 -568h-118v857h118v-857z" />
<glyph unicode="&#xa7;" d="M886 535q0 -224 -264 -237q186 -158 186 -292q0 -122 -97 -192q-86 -63 -212 -63q-108 0 -193 51q-101 60 -101 161q0 49 33 79.5t82 30.5q108 0 108 -104q0 -36 -30 -64q-34 -32 -37 -44q14 -58 145 -58q68 0 114 38q50 41 50 107l4 2q0 85 -135 193q-64 51 -253 201 q-138 132 -143 269l-5 6q0 233 268 246q-97 88 -126 126q-59 78 -59 164l4 11q0 118 88 185q79 61 201 61q110 0 186 -52q88 -59 88 -164q0 -45 -31.5 -74.5t-76.5 -29.5q-42 0 -72.5 27.5t-30.5 69.5q0 30 33.5 72t33.5 43q0 29 -50 45q-35 11 -73 11q-68 0 -117 -38 q-54 -41 -54 -107q0 -81 139 -193l258 -207q139 -136 139 -280zM771 483q0 91 -145 210q-141 116 -235 116q-54 0 -91.5 -42.5t-37.5 -97.5q0 -87 140 -205q137 -115 227 -115q59 0 100.5 37.5t41.5 96.5z" />
<glyph unicode="&#xa8;" horiz-adv-x="682" d="M627 1251q0 -38 -30.5 -67t-68.5 -29q-41 0 -71.5 30.5t-30.5 71.5q0 42 30 70.5t72 28.5t70.5 -31t28.5 -74zM256 1252q0 -42 -29 -70.5t-71 -28.5q-40 0 -70.5 29.5t-30.5 69.5t30.5 70t70.5 30q43 0 71.5 -28.5t28.5 -71.5z" />
<glyph unicode="&#xa9;" horiz-adv-x="1556" d="M1488 678q0 -298 -206 -503.5t-504 -205.5q-299 0 -504 205t-205 504q0 298 205.5 503.5t503.5 205.5t504 -205.5t206 -503.5zM1426 678q0 273 -187.5 460.5t-460.5 187.5q-272 0 -459.5 -188t-187.5 -460t187.5 -460t459.5 -188t460 188t188 460zM1165 405 q-157 -170 -351 -170q-190 0 -308 125q-115 122 -115 313q0 194 122.5 321t316.5 127q23 0 217 -45l2 -1q38 6 60 46h26l12 -293l-35 -7q-80 236 -277 236q-146 0 -225 -121q-67 -104 -67 -257q0 -161 75 -261q84 -112 240 -112q138 0 277 128z" />
<glyph unicode="&#xaa;" horiz-adv-x="565" d="M539 701q-54 -62 -115 -62q-62 0 -83 87q-98 -83 -190 -83q-56 0 -93 47q-34 44 -34 102q0 101 114 171q59 36 203 84v59q0 102 -91 102q-95 0 -95 -54q0 -8 2 -24t2 -24q0 -57 -57 -57q-59 0 -59 63q0 67 78 104q61 29 137 29q192 0 192 -193v-275q0 -60 40 -60 q17 0 49 24v-40zM340 777v226q-96 -30 -133 -53q-68 -44 -68 -117q0 -40 21 -73q24 -38 62 -38q60 0 118 55z" />
<glyph unicode="&#xab;" d="M986 -37h-89l-399 480l399 475h89l-242 -475zM528 -37h-93l-397 480l397 475h93l-244 -475z" />
<glyph unicode="&#xac;" horiz-adv-x="1155" d="M1094 221h-136v434h-897v136h1033v-570z" />
<glyph unicode="&#xad;" horiz-adv-x="682" d="M611 460h-540v175h540v-175z" />
<glyph unicode="&#xae;" horiz-adv-x="1556" d="M1488 678q0 -298 -206 -503.5t-504 -205.5q-299 0 -504 205t-205 504q0 298 205.5 503.5t503.5 205.5t504 -205.5t206 -503.5zM1426 678q0 273 -187.5 460.5t-460.5 187.5q-272 0 -459.5 -188t-187.5 -460t187.5 -460t459.5 -188t460 188t188 460zM1184 254h-206 l-296 384h-68v-226q0 -102 62 -117q17 -4 47 -6v-35h-351v35q68 2 90 34q17 25 17 92v538q0 63 -22 87.5t-85 26.5v35h295q169 0 251 -35q125 -53 125 -197q0 -166 -217 -214l194 -247q48 -60 69 -79q43 -37 95 -43v-33zM901 883q0 161 -229 161q-58 0 -58 -58v-288l36 -2 q251 -14 251 187z" />
<glyph unicode="&#xaf;" horiz-adv-x="682" d="M660 1225h-638v128h638v-128z" />
<glyph unicode="&#xb0;" horiz-adv-x="819" d="M702 1092q0 -125 -83.5 -209t-208.5 -84q-126 0 -209.5 83.5t-83.5 209.5q0 125 84 208.5t209 83.5t208.5 -83.5t83.5 -208.5zM623 1092q0 91 -61.5 157t-151.5 66q-93 0 -153 -65t-60 -158q0 -92 61 -158t152 -66q92 0 152.5 65.5t60.5 158.5z" />
<glyph unicode="&#xb1;" horiz-adv-x="1124" d="M1078 578h-448v-328h-136v328h-448v135h448v323h136v-323h448v-135zM1078 0h-1032v135h1032v-135z" />
<glyph unicode="&#xb2;" horiz-adv-x="532" d="M499 802l-50 -147h-415v17l92 98q134 142 153 168q83 110 83 205q0 67 -39.5 109.5t-105.5 42.5q-100 0 -156 -138l-22 7q37 215 228 215q87 0 139 -54.5t52 -141.5q0 -142 -309 -437h201q2 0 5.5 -1t5.5 -1q80 0 115 66z" />
<glyph unicode="&#xb3;" horiz-adv-x="532" d="M481 893q0 -117 -91 -186q-82 -63 -203 -63q-134 0 -134 73q0 46 53 46q113 -71 160 -71q60 0 97 44q35 41 35 102q0 79 -51 126t-131 47q-13 0 -46 -2v21q183 59 183 164q0 53 -42 84q-37 28 -92 28q-60 0 -94 -29q-27 -23 -54 -83l-19 10q40 180 215 180q71 0 120 -37 q54 -41 54 -110q0 -86 -88 -147q128 -64 128 -197z" />
<glyph unicode="&#xb4;" horiz-adv-x="682" d="M521 1423l-293 -346h-67l112 346h248z" />
<glyph unicode="&#xb5;" d="M999 179q0 -246 -186 -246q-157 0 -179 194q-54 -72 -146 -124q-97 -55 -182 -55q-68 0 -145 56q0 -10 -1 -30t-1 -30q0 -39 18.5 -113.5t18.5 -113.5q0 -108 -78 -108q-93 0 -93 102q0 10 11 58q30 132 30 216q0 38 -4.5 111t-4.5 109l-4 695h186v-580q0 -112 29 -165 q40 -73 146 -73q100 0 205 112v706h190v-755q0 -93 56 -93q63 0 78 164h56v-37z" />
<glyph unicode="&#xb6;" horiz-adv-x="928" d="M862 1286h-112v-1261h-62v1261h-158v-1261h-59v755q-405 7 -405 275q0 140 125 212q101 58 253 58h418v-39z" />
<glyph unicode="&#xb7;" horiz-adv-x="512" d="M370 680q0 -47 -33.5 -81.5t-80.5 -34.5q-49 0 -81.5 34.5t-32.5 83.5t32.5 83t81.5 34t81.5 -35t32.5 -84z" />
<glyph unicode="&#xb8;" horiz-adv-x="682" d="M496 -209q0 -81 -69 -133q-63 -48 -146 -48q-38 0 -94 7v43q27 -4 48 -4q48 0 84.5 31.5t36.5 78.5q0 73 -88 73q-9 0 -18 -1l111 178h60l-50 -79q125 -32 125 -146z" />
<glyph unicode="&#xb9;" horiz-adv-x="532" d="M418 655h-297v21q55 0 77.5 18t22.5 71v468q0 46 -33 46q-13 0 -74 -23v21l203 105v-623q0 -53 26 -69q18 -11 75 -14v-21z" />
<glyph unicode="&#xba;" horiz-adv-x="635" d="M599 962q0 -131 -77 -222q-81 -97 -210 -97q-123 0 -201 87q-75 84 -75 209q0 132 79 218q81 90 212 90q124 0 198 -80t74 -205zM478 911q0 106 -36 187q-48 107 -141 107q-147 0 -147 -215q0 -111 36 -195q48 -112 144 -112q144 0 144 228z" />
<glyph unicode="&#xbb;" d="M984 434l-395 -479h-93l246 479l-246 473h93zM526 434l-397 -479h-89l242 479l-242 473h89z" />
<glyph unicode="&#xbc;" horiz-adv-x="1536" d="M1342 170h-99v-170h-96v170h-275v95l313 441h58v-451h99v-85zM1264 1384l-935 -1438h-89l935 1438h89zM497 644h-296v31q53 0 71 12q25 16 25 68v450q0 40 -27 40q-11 0 -76 -25v30l206 106v-606q0 -49 23 -63q16 -10 74 -12v-31zM1147 255v307l-220 -307h220z" />
<glyph unicode="&#xbd;" horiz-adv-x="1536" d="M1365 150l-50 -150h-408v23q106 108 196 207q119 131 119 245q0 62 -36.5 101t-97.5 39q-94 0 -148 -134l-29 10q37 215 225 215q85 0 137 -54t52 -140q0 -139 -290 -415q32 0 95.5 -1t95.5 -1q74 0 109 65zM1240 1384l-935 -1438h-89l935 1438h89zM474 644h-296v31 q53 0 71 12q25 16 25 68v450q0 40 -27 40q-11 0 -76 -25v30l205 106v-606q0 -49 23 -63q17 -10 75 -12v-31z" />
<glyph unicode="&#xbe;" horiz-adv-x="1536" d="M1346 170h-100v-170h-95v170h-275v95l313 441h57v-451h100v-85zM1267 1384l-935 -1438h-89l935 1438h89zM613 882q0 -114 -89 -182q-81 -63 -198 -63q-134 0 -134 75q0 50 56 50q2 0 56 -34t98 -34q54 0 88 40t34 95q0 160 -190 160q-14 0 -30 -1v29q176 57 176 154 q0 48 -35.5 75.5t-84.5 27.5l-4 2h-4q-85 0 -135 -112l-27 14q41 181 213 181q70 0 119 -38q54 -41 54 -109q0 -82 -81 -140q118 -64 118 -190zM1151 255v307l-221 -307h221z" />
<glyph unicode="&#xbf;" horiz-adv-x="909" d="M586 1289q0 -48 -35.5 -83.5t-83.5 -35.5q-51 0 -83.5 36t-32.5 87q0 48 34 80.5t82 32.5q49 0 84 -34t35 -83zM815 241q0 -123 -123 -197q-104 -63 -235 -63q-153 0 -255 96q-106 98 -106 249q0 99 61 201q27 45 128 169q82 101 113 176q22 54 46 173h41 q0 -130 -96.5 -374.5t-96.5 -374.5q0 -96 63 -168q65 -76 160 -76q65 0 118 32q63 37 63 97q0 3 -36.5 59.5t-36.5 89.5q0 39 24.5 66t63.5 27q104 0 104 -182z" />
<glyph unicode="&#xc0;" horiz-adv-x="1479" d="M786 1444h-67l-294 346h249zM1440 0h-516v48l27 -1q101 -4 101 67q0 65 -44 162q-13 28 -73 156h-512q-112 -243 -112 -318q0 -68 138 -66v-48h-410v48q86 18 145 108q28 43 82 170l447 1054h47l505 -1173q40 -93 58 -114q37 -44 117 -48v-45zM898 527l-216 520 l-218 -520h434z" />
<glyph unicode="&#xc1;" horiz-adv-x="1479" d="M1054 1790l-294 -346h-67l112 346h249zM1440 0h-516v48l27 -1q101 -4 101 67q0 65 -44 162q-13 28 -73 156h-512q-112 -243 -112 -318q0 -68 138 -66v-48h-410v48q86 18 145 108q28 43 82 170l447 1054h47l505 -1173q40 -93 58 -114q37 -44 117 -48v-45zM898 527 l-216 520l-218 -520h434z" />
<glyph unicode="&#xc2;" horiz-adv-x="1479" d="M1030 1445h-67l-222 203l-225 -203h-67l235 356h119zM1440 0h-516v48l27 -1q101 -4 101 67q0 65 -44 162q-13 28 -73 156h-512q-112 -243 -112 -318q0 -68 138 -66v-48h-410v48q86 18 145 108q28 43 82 170l447 1054h47l505 -1173q40 -93 58 -114q37 -44 117 -48v-45z M898 527l-216 520l-218 -520h434z" />
<glyph unicode="&#xc3;" horiz-adv-x="1479" d="M1076 1667q-61 -203 -211 -203q-49 0 -153 41t-145 41q-61 0 -104 -82h-60q74 203 222 203q52 0 146 -39.5t135 -40.5q6 -4 11 -4q55 0 110 84h49zM1440 0h-516v48l27 -1q101 -4 101 67q0 65 -44 162q-13 28 -73 156h-512q-112 -243 -112 -318q0 -68 138 -66v-48h-410v48 q86 18 145 108q28 43 82 170l447 1054h47l505 -1173q40 -93 58 -114q37 -44 117 -48v-45zM898 527l-216 520l-218 -520h434z" />
<glyph unicode="&#xc4;" horiz-adv-x="1479" d="M1026 1539q0 -38 -31 -67t-69 -29q-41 0 -71 30t-30 71q0 42 29.5 71t71.5 29t71 -31.5t29 -73.5zM654 1540q0 -41 -29 -70t-70 -29q-40 0 -71 29.5t-31 69.5t31 69.5t71 29.5q43 0 71 -28t28 -71zM1440 0h-516v48l27 -1q101 -4 101 67q0 65 -44 162q-13 28 -73 156h-512 q-112 -243 -112 -318q0 -68 138 -66v-48h-410v48q86 18 145 108q28 43 82 170l447 1054h47l505 -1173q40 -93 58 -114q37 -44 117 -48v-45zM898 527l-216 520l-218 -520h434z" />
<glyph unicode="&#xc5;" horiz-adv-x="1479" d="M931 1636q0 -81 -55.5 -136.5t-136.5 -55.5q-80 0 -135.5 55.5t-55.5 136.5t55 136t136 55t136.5 -55t55.5 -136zM1440 0h-516v48l27 -1q101 -4 101 67q0 65 -44 162q-13 28 -73 156h-512q-112 -243 -112 -318q0 -68 138 -66v-48h-410v48q86 18 145 108q28 43 82 170 l447 1054h47l505 -1173q40 -93 58 -114q37 -44 117 -48v-45zM861 1636q0 51 -35.5 86.5t-86.5 35.5t-86.5 -35.5t-35.5 -86.5t35.5 -86.5t86.5 -35.5t86.5 35.5t35.5 86.5zM898 527l-216 520l-218 -520h434z" />
<glyph unicode="&#xc6;" horiz-adv-x="1821" d="M1740 350l-97 -350h-1093v56q109 3 144 45q31 37 31 148v183h-259q-35 -73 -72 -156q-41 -92 -41 -162q0 -69 139 -66v-48h-411v48q86 18 145 108q24 37 82 170l397 914q-33 61 -178 60v56h1098l11 -309h-63q-30 130 -81.5 173t-183.5 43h-289q-74 0 -74 -21v-488h295 q120 0 162.5 37.5t58.5 156.5h56v-484h-56q-11 108 -51 148q-43 42 -150 42h-315v-462q0 -65 24 -84q19 -15 82 -15h197q172 0 260 52.5t165 204.5h67zM725 527v520l-218 -520h218z" />
<glyph unicode="&#xc7;" horiz-adv-x="1366" d="M1302 242q-254 -275 -569 -272l-20 -33q125 -31 125 -146q0 -81 -69 -133q-63 -48 -146 -48q-40 0 -94 7v43q26 -4 48 -4q48 0 84.5 31.5t36.5 78.5q0 73 -88 73q-9 0 -18 -1l83 134q-281 23 -449 221q-162 191 -162 476q0 312 195.5 514.5t506.5 202.5q124 0 277 -52 q41 -14 71 -19l2 -2q56 6 97 73h41l20 -468l-57 -11q-129 378 -442 378q-231 0 -359 -194q-110 -167 -110 -411q0 -260 120 -419q133 -179 385 -179q220 0 443 205z" />
<glyph unicode="&#xc8;" horiz-adv-x="1251" d="M672 1444h-67l-294 346h249zM1220 350l-97 -350h-1092v56q114 4 147 47q27 35 27 146v832q0 125 -24 162q-33 51 -150 55v58h1075l11 -309h-63q-32 132 -80 173q-52 43 -185 43h-289q-74 0 -74 -21v-488h295q120 0 161.5 37t59.5 157h56v-484h-56q-13 109 -52 148 q-42 42 -149 42h-315v-462q0 -66 22 -84q18 -15 84 -15h197q173 0 260 52t164 205h67z" />
<glyph unicode="&#xc9;" horiz-adv-x="1251" d="M940 1790l-294 -346h-67l112 346h249zM1220 350l-97 -350h-1092v56q114 4 147 47q27 35 27 146v832q0 125 -24 162q-33 51 -150 55v58h1075l11 -309h-63q-32 132 -80 173q-52 43 -185 43h-289q-74 0 -74 -21v-488h295q120 0 161.5 37t59.5 157h56v-484h-56 q-13 109 -52 148q-42 42 -149 42h-315v-462q0 -66 22 -84q18 -15 84 -15h197q173 0 260 52t164 205h67z" />
<glyph unicode="&#xca;" horiz-adv-x="1251" d="M916 1445h-67l-222 203l-225 -203h-67l235 356h119zM1220 350l-97 -350h-1092v56q114 4 147 47q27 35 27 146v832q0 125 -24 162q-33 51 -150 55v58h1075l11 -309h-63q-32 132 -80 173q-52 43 -185 43h-289q-74 0 -74 -21v-488h295q120 0 161.5 37t59.5 157h56v-484h-56 q-13 109 -52 148q-42 42 -149 42h-315v-462q0 -66 22 -84q18 -15 84 -15h197q173 0 260 52t164 205h67z" />
<glyph unicode="&#xcb;" horiz-adv-x="1251" d="M912 1539q0 -38 -31 -67t-69 -29q-41 0 -71 30t-30 71q0 42 29.5 71t71.5 29t71 -31.5t29 -73.5zM540 1540q0 -41 -29 -70t-70 -29q-40 0 -71 29.5t-31 69.5t31 69.5t71 29.5q43 0 71 -28t28 -71zM1220 350l-97 -350h-1092v56q114 4 147 47q27 35 27 146v832 q0 125 -24 162q-33 51 -150 55v58h1075l11 -309h-63q-32 132 -80 173q-52 43 -185 43h-289q-74 0 -74 -21v-488h295q120 0 161.5 37t59.5 157h56v-484h-56q-13 109 -52 148q-42 42 -149 42h-315v-462q0 -66 22 -84q18 -15 84 -15h197q173 0 260 52t164 205h67z" />
<glyph unicode="&#xcc;" horiz-adv-x="682" d="M390 1444h-67l-293 346h248zM652 0h-617v52q120 3 159.5 43t39.5 160v827q0 132 -29 170q-37 49 -170 48v56h617v-56q-134 1 -173 -49q-32 -41 -32 -180v-797q0 -133 31 -173q38 -50 174 -49v-52z" />
<glyph unicode="&#xcd;" horiz-adv-x="682" d="M652 1790l-293 -346h-67l112 346h248zM647 0h-617v52q120 3 159 43t39 160v827q0 133 -28 170q-37 49 -170 48v56h617v-56q-135 1 -173 -49q-32 -42 -32 -180v-797q0 -134 30 -173q38 -50 175 -49v-52z" />
<glyph unicode="&#xce;" horiz-adv-x="682" d="M631 1445h-67l-222 203l-224 -203h-67l235 356h119zM650 0h-618v52q120 3 159.5 43t39.5 160v827q0 132 -29 170q-37 49 -170 48v56h618v-56q-136 1 -174 -49q-31 -40 -31 -180v-797q0 -134 30 -173q38 -50 175 -49v-52z" />
<glyph unicode="&#xcf;" horiz-adv-x="682" d="M627 1539q0 -38 -30.5 -67t-68.5 -29q-41 0 -71.5 30t-30.5 71q0 42 30 71t72 29t70.5 -31t28.5 -74zM256 1540q0 -42 -29 -70.5t-71 -28.5q-40 0 -70.5 29.5t-30.5 69.5t30.5 69.5t70.5 29.5q43 0 71.5 -28t28.5 -71zM650 0h-618v52q120 3 159.5 43t39.5 160v827 q0 132 -29 170q-37 49 -170 48v56h618v-56q-136 1 -174 -49q-31 -40 -31 -180v-797q0 -134 30 -173q38 -50 175 -49v-52z" />
<glyph unicode="&#xd0;" horiz-adv-x="1479" d="M1422 676q0 -333 -234 -513q-211 -163 -554 -163h-577v52q95 1 135 37q44 38 44 131v408h-177v115h177v360q0 108 -34 150q-39 46 -145 45v54h443q421 0 639 -124q283 -161 283 -552zM1184 665q0 290 -167 446q-163 152 -455 152q-110 0 -110 -97v-423h205v-115h-205 v-509q0 -33 120 -33q291 0 448 143q164 148 164 436z" />
<glyph unicode="&#xd1;" horiz-adv-x="1479" d="M1076 1667q-61 -203 -211 -203q-49 0 -153 41t-145 41q-61 0 -104 -82h-60q74 203 222 203q52 0 146 -39.5t135 -40.5q6 -4 11 -4q55 0 110 84h49zM1440 1304q-130 -22 -160 -74q-21 -36 -21 -178v-1078h-46l-881 1088l1 -764q0 -138 25 -182q37 -65 164 -68v-48h-483v48 q130 8 167 67q27 43 27 182v895q-81 114 -194 112v56h345l773 -978v670q0 134 -26 178q-36 61 -159 74v56h468v-56z" />
<glyph unicode="&#xd2;" horiz-adv-x="1479" d="M786 1444h-67l-294 346h249zM1409 659q0 -293 -187 -488q-190 -197 -482 -197q-297 0 -486 203q-184 198 -184 497q0 303 185 503q190 205 491 205t487 -214q176 -204 176 -509zM1163 726q0 229 -95 383q-113 184 -328 184q-229 0 -339 -215q-85 -166 -85 -419 q0 -243 90 -403q112 -200 336 -200q421 0 421 670z" />
<glyph unicode="&#xd3;" horiz-adv-x="1479" d="M1054 1790l-294 -346h-67l112 346h249zM1409 659q0 -293 -187 -488q-190 -197 -482 -197q-297 0 -486 203q-184 198 -184 497q0 303 185 503q190 205 491 205t487 -214q176 -204 176 -509zM1163 726q0 229 -95 383q-113 184 -328 184q-229 0 -339 -215q-85 -166 -85 -419 q0 -243 90 -403q112 -200 336 -200q421 0 421 670z" />
<glyph unicode="&#xd4;" horiz-adv-x="1479" d="M1030 1445h-67l-222 203l-225 -203h-67l235 356h119zM1409 659q0 -293 -187 -488q-190 -197 -482 -197q-297 0 -486 203q-184 198 -184 497q0 303 185 503q190 205 491 205t487 -214q176 -204 176 -509zM1163 726q0 229 -95 383q-113 184 -328 184q-229 0 -339 -215 q-85 -166 -85 -419q0 -243 90 -403q112 -200 336 -200q421 0 421 670z" />
<glyph unicode="&#xd5;" horiz-adv-x="1479" d="M1076 1667q-61 -203 -211 -203q-49 0 -153 41t-145 41q-61 0 -104 -82h-60q74 203 222 203q52 0 146 -39.5t135 -40.5q6 -4 11 -4q55 0 110 84h49zM1409 659q0 -293 -187 -488q-190 -197 -482 -197q-297 0 -486 203q-184 198 -184 497q0 303 185 503q190 205 491 205 t487 -214q176 -204 176 -509zM1163 726q0 229 -95 383q-113 184 -328 184q-229 0 -339 -215q-85 -166 -85 -419q0 -243 90 -403q112 -200 336 -200q421 0 421 670z" />
<glyph unicode="&#xd6;" horiz-adv-x="1479" d="M1026 1539q0 -38 -31 -67t-69 -29q-41 0 -71 30t-30 71q0 42 29.5 71t71.5 29t71 -31.5t29 -73.5zM654 1540q0 -41 -29 -70t-70 -29q-40 0 -71 29.5t-31 69.5t31 69.5t71 29.5q43 0 71 -28t28 -71zM1409 659q0 -293 -187 -488q-190 -197 -482 -197q-297 0 -486 203 q-184 198 -184 497q0 303 185 503q190 205 491 205t487 -214q176 -204 176 -509zM1163 726q0 229 -95 383q-113 184 -328 184q-229 0 -339 -215q-85 -166 -85 -419q0 -243 90 -403q112 -200 336 -200q421 0 421 670z" />
<glyph unicode="&#xd7;" horiz-adv-x="1155" d="M995 266l-77 -78l-341 340l-340 -340l-77 78l340 340l-340 340l77 78l340 -340l341 340l77 -78l-340 -340z" />
<glyph unicode="&#xd8;" horiz-adv-x="1479" d="M1469 1382l-224 -232q164 -203 164 -491q0 -293 -187 -488q-190 -197 -482 -197q-272 0 -457 177l-171 -177h-102l223 231q-163 194 -163 469q0 303 185 503q190 205 491 205q268 0 450 -178l171 178h102zM1081 1085q-113 208 -341 208q-229 0 -339 -215 q-85 -166 -85 -419q0 -177 50 -316zM1163 726q0 158 -49 288l-716 -743q111 -215 344 -215q421 0 421 670z" />
<glyph unicode="&#xd9;" horiz-adv-x="1479" d="M786 1444h-67l-294 346h249zM1438 1300q-124 -5 -161 -70q-25 -44 -25 -180v-586q0 -246 -141 -373q-134 -121 -383 -121q-280 0 -404 165q-108 144 -108 433v544q0 103 -36.5 143.5t-138.5 42.5v54h581v-54q-122 -3 -158 -52q-28 -38 -28 -158v-108q1 -147 1 -151 l1 -261q0 -247 49 -343q73 -143 295 -143q237 0 315 153q52 102 52 366v480q0 128 -26 165q-34 49 -156 52v54h471v-52z" />
<glyph unicode="&#xda;" horiz-adv-x="1479" d="M1054 1790l-294 -346h-67l112 346h249zM1438 1300q-124 -5 -161 -70q-25 -44 -25 -180v-586q0 -246 -141 -373q-134 -121 -383 -121q-280 0 -404 165q-108 144 -108 433v544q0 103 -36.5 143.5t-138.5 42.5v54h581v-54q-122 -3 -158 -52q-28 -38 -28 -158v-108 q1 -147 1 -151l1 -261q0 -247 49 -343q73 -143 295 -143q237 0 315 153q52 102 52 366v480q0 128 -26 165q-34 49 -156 52v54h471v-52z" />
<glyph unicode="&#xdb;" horiz-adv-x="1479" d="M1030 1445h-67l-222 203l-225 -203h-67l235 356h119zM1438 1300q-124 -5 -161 -70q-25 -44 -25 -180v-586q0 -246 -141 -373q-134 -121 -383 -121q-280 0 -404 165q-108 144 -108 433v544q0 103 -36.5 143.5t-138.5 42.5v54h581v-54q-122 -3 -158 -52q-28 -38 -28 -158 v-108q1 -147 1 -151l1 -261q0 -247 49 -343q73 -143 295 -143q237 0 315 153q52 102 52 366v480q0 128 -26 165q-34 49 -156 52v54h471v-52z" />
<glyph unicode="&#xdc;" horiz-adv-x="1479" d="M1026 1539q0 -38 -31 -67t-69 -29q-41 0 -71 30t-30 71q0 42 29.5 71t71.5 29t71 -31.5t29 -73.5zM654 1540q0 -41 -29 -70t-70 -29q-40 0 -71 29.5t-31 69.5t31 69.5t71 29.5q43 0 71 -28t28 -71zM1438 1300q-124 -5 -161 -70q-25 -44 -25 -180v-586q0 -246 -141 -373 q-134 -121 -383 -121q-280 0 -404 165q-108 144 -108 433v544q0 103 -36.5 143.5t-138.5 42.5v54h581v-54q-122 -3 -158 -52q-28 -38 -28 -158v-108q1 -147 1 -151l1 -261q0 -247 49 -343q73 -143 295 -143q237 0 315 153q52 102 52 366v480q0 128 -26 165q-34 49 -156 52 v54h471v-52z" />
<glyph unicode="&#xdd;" horiz-adv-x="1479" d="M1054 1790l-294 -346h-67l112 346h249zM1425 1300q-108 -13 -224 -156q-36 -44 -160 -237l-192 -298v-346q0 -126 36 -164.5t160 -42.5v-56h-613v56q121 4 158 35q43 36 43 155v346l-324 490q-69 105 -105 143q-69 74 -150 84v51h572v-56l-36 1q-113 3 -113 -53l4 -4 q12 -58 327 -522q308 458 308 511q0 70 -138 67v56h447v-60z" />
<glyph unicode="&#xde;" horiz-adv-x="1139" d="M1118 678q0 -248 -236 -332q-135 -48 -445 -48q-2 -11 -2 -34q0 -129 38 -171t166 -41v-52h-618v52q120 3 159.5 43t39.5 160v827q0 133 -28 170q-37 49 -171 48v56h618v-56q-124 1 -163 -41t-39 -167v-17q304 0 448 -55q233 -89 233 -342zM884 700q0 278 -375 278 q-23 0 -45 -11q-27 -13 -27 -33v-541h124q323 0 323 307z" />
<glyph unicode="&#xdf;" d="M974 422q0 -167 -82 -292q-94 -143 -253 -143q-77 0 -132 42q-60 45 -60 120q0 87 79 87q82 0 82 -79q0 -12 -5 -34t-5 -34q0 -46 56 -46q150 0 150 269q0 443 -295 462v57q215 -1 215 271q0 254 -192 254q-183 0 -183 -319v-1037h-298v36q86 6 112 49q20 33 20 125v756 q0 456 357 456q153 0 250 -85q102 -89 102 -240q0 -194 -191 -276q273 -80 273 -399z" />
<glyph unicode="&#xe0;" horiz-adv-x="909" d="M501 1077h-67l-294 346h249zM870 73q-88 -99 -186 -99q-101 0 -133 140q-160 -133 -307 -133q-91 0 -150 76q-55 70 -55 163q0 163 184 276q96 59 328 137v95q0 164 -147 164q-54 0 -95 -16q-59 -23 -59 -66l5 -5q2 -54 2 -77q0 -93 -93 -93q-41 0 -67 28t-26 69l-2 4 q0 109 126 169q99 47 222 47q308 0 308 -312v-444q0 -97 65 -97q28 0 80 39v-65zM548 196v365q-155 -48 -214 -86q-109 -70 -109 -188q0 -66 33 -118q38 -61 100 -61q96 0 190 88z" />
<glyph unicode="&#xe1;" horiz-adv-x="909" d="M769 1423l-294 -346h-67l112 346h249zM870 73q-88 -99 -186 -99q-101 0 -133 140q-160 -133 -307 -133q-91 0 -150 76q-55 70 -55 163q0 163 184 276q96 59 328 137v95q0 164 -147 164q-54 0 -95 -16q-59 -23 -59 -66l5 -5q2 -54 2 -77q0 -93 -93 -93q-41 0 -67 28 t-26 69l-2 4q0 109 126 169q99 47 222 47q308 0 308 -312v-444q0 -97 65 -97q28 0 80 39v-65zM548 196v365q-155 -48 -214 -86q-109 -70 -109 -188q0 -66 33 -118q38 -61 100 -61q96 0 190 88z" />
<glyph unicode="&#xe2;" horiz-adv-x="909" d="M678 1045h-67l-222 203l-225 -203h-67l236 356h118zM870 73q-88 -99 -186 -99q-101 0 -133 140q-160 -133 -307 -133q-91 0 -150 76q-55 70 -55 163q0 163 184 276q96 59 328 137v95q0 164 -147 164q-54 0 -95 -16q-59 -23 -59 -66l5 -5q2 -54 2 -77q0 -93 -93 -93 q-41 0 -67 28t-26 69l-2 4q0 109 126 169q99 47 222 47q308 0 308 -312v-444q0 -97 65 -97q28 0 80 39v-65zM548 196v365q-155 -48 -214 -86q-109 -70 -109 -188q0 -66 33 -118q38 -61 100 -61q96 0 190 88z" />
<glyph unicode="&#xe3;" horiz-adv-x="909" d="M791 1326q-60 -203 -211 -203q-50 0 -151.5 41t-146.5 41q-62 0 -104 -82h-60q73 203 222 203q31 0 145 -34q109 -32 147 -50q56 0 110 84h49zM870 73q-88 -99 -186 -99q-101 0 -133 140q-160 -133 -307 -133q-91 0 -150 76q-55 70 -55 163q0 163 184 276q96 59 328 137 v95q0 164 -147 164q-54 0 -95 -16q-59 -23 -59 -66l5 -5q2 -54 2 -77q0 -93 -93 -93q-41 0 -67 28t-26 69l-2 4q0 109 126 169q99 47 222 47q308 0 308 -312v-444q0 -97 65 -97q28 0 80 39v-65zM548 196v365q-155 -48 -214 -86q-109 -70 -109 -188q0 -66 33 -118 q38 -61 100 -61q96 0 190 88z" />
<glyph unicode="&#xe4;" horiz-adv-x="909" d="M741 1251q0 -38 -31 -67t-69 -29q-41 0 -71 30.5t-30 71.5q0 42 29.5 70.5t71.5 28.5t71 -31.5t29 -73.5zM369 1252q0 -41 -29 -70t-70 -29q-40 0 -71 29.5t-31 69.5t31 70t71 30q43 0 71 -28.5t28 -71.5zM870 73q-88 -99 -186 -99q-101 0 -133 140q-160 -133 -307 -133 q-91 0 -150 76q-55 70 -55 163q0 163 184 276q96 59 328 137v95q0 164 -147 164q-54 0 -95 -16q-59 -23 -59 -66l5 -5q2 -54 2 -77q0 -93 -93 -93q-41 0 -67 28t-26 69l-2 4q0 109 126 169q99 47 222 47q308 0 308 -312v-444q0 -97 65 -97q28 0 80 39v-65zM548 196v365 q-155 -48 -214 -86q-109 -70 -109 -188q0 -66 33 -118q38 -61 100 -61q96 0 190 88z" />
<glyph unicode="&#xe5;" horiz-adv-x="909" d="M646 1233q0 -81 -55.5 -136.5t-136.5 -55.5t-136 55.5t-55 136.5t55 136t136 55t136.5 -55t55.5 -136zM870 73q-88 -99 -186 -99q-101 0 -133 140q-160 -133 -307 -133q-91 0 -150 76q-55 70 -55 163q0 163 184 276q96 59 328 137v95q0 164 -147 164q-54 0 -95 -16 q-59 -23 -59 -66l5 -5q2 -54 2 -77q0 -93 -93 -93q-41 0 -67 28t-26 69l-2 4q0 109 126 169q99 47 222 47q308 0 308 -312v-444q0 -97 65 -97q28 0 80 39v-65zM576 1233q0 51 -35.5 86.5t-86.5 35.5t-86.5 -35.5t-35.5 -86.5t35.5 -86.5t86.5 -35.5t86.5 35.5t35.5 86.5z M548 196v365q-155 -48 -214 -86q-109 -70 -109 -188q0 -66 33 -118q38 -61 100 -61q96 0 190 88z" />
<glyph unicode="&#xe6;" horiz-adv-x="1366" d="M1354 335q-150 -361 -434 -361q-226 0 -327 200q-15 -8 -69 -60q-137 -133 -307 -133q-91 0 -150 76q-55 70 -55 163q0 163 184 276q96 59 328 137v95q0 164 -147 164q-54 0 -95 -16q-59 -23 -59 -66l5 -5q2 -51 2 -77q0 -93 -93 -93q-41 0 -67 28t-26 69l-2 4 q0 109 126 169q99 47 222 47q208 0 273 -129q115 131 290 131q179 0 276 -132q84 -114 93 -302h-624v-95q0 -30 22 -91q75 -209 293 -209q175 0 300 227zM1123 592q-24 278 -216 278t-207 -278h423zM521 196v365q-155 -48 -214 -86q-109 -70 -109 -188q0 -66 33 -118 q38 -61 100 -61q96 0 190 88z" />
<glyph unicode="&#xe7;" horiz-adv-x="909" d="M862 304q-117 -279 -348 -320l-30 -47q125 -31 125 -146q0 -81 -69 -133q-62 -48 -146 -48q-39 0 -94 7v43q27 -4 48 -4q48 0 84.5 31.5t36.5 78.5q0 73 -88 73q-9 0 -18 -1l88 140q-183 -1 -298 149q-106 138 -106 326q0 206 130 349q135 146 339 146q115 0 211 -55 q113 -65 113 -172q0 -93 -89 -93q-77 0 -98 67q-10 34 -37 124q-34 66 -130 66q-129 0 -205 -119q-65 -102 -65 -239q0 -157 79 -268q89 -125 240 -125q97 0 169 57q53 42 116 139z" />
<glyph unicode="&#xe8;" horiz-adv-x="909" d="M469 1077h-66l-294 346h248zM865 335q-150 -361 -434 -361q-192 0 -296 147q-91 128 -91 328q0 201 107 345q119 160 312 160q179 0 276 -132q84 -114 93 -302h-626q-2 -28 -2 -21q0 -159 79 -261q86 -113 241 -113q175 0 300 227zM634 592q-25 278 -216 278 q-193 0 -207 -278h423z" />
<glyph unicode="&#xe9;" horiz-adv-x="909" d="M769 1423l-294 -346h-67l112 346h249zM865 335q-150 -361 -434 -361q-192 0 -296 147q-91 128 -91 328q0 201 107 345q119 160 312 160q179 0 276 -132q84 -114 93 -302h-626q-2 -28 -2 -21q0 -159 79 -261q86 -113 241 -113q175 0 300 227zM634 592q-25 278 -216 278 q-193 0 -207 -278h423z" />
<glyph unicode="&#xea;" horiz-adv-x="909" d="M745 1045h-67l-222 203l-225 -203h-67l235 356h119zM865 335q-150 -361 -434 -361q-192 0 -296 147q-91 128 -91 328q0 201 107 345q119 160 312 160q179 0 276 -132q84 -114 93 -302h-626q-2 -28 -2 -21q0 -159 79 -261q86 -113 241 -113q175 0 300 227zM634 592 q-25 278 -216 278q-193 0 -207 -278h423z" />
<glyph unicode="&#xeb;" horiz-adv-x="909" d="M741 1251q0 -38 -31 -67t-69 -29q-41 0 -71 30.5t-30 71.5q0 42 29.5 70.5t71.5 28.5t71 -31.5t29 -73.5zM369 1252q0 -41 -29 -70t-70 -29q-40 0 -71 29.5t-31 69.5t31 70t71 30q43 0 71 -28.5t28 -71.5zM865 335q-150 -361 -434 -361q-192 0 -296 147q-91 128 -91 328 q0 201 107 345q119 160 312 160q179 0 276 -132q84 -114 93 -302h-626q-2 -28 -2 -21q0 -159 79 -261q86 -113 241 -113q175 0 300 227zM634 592q-25 278 -216 278q-193 0 -207 -278h423z" />
<glyph unicode="&#xec;" horiz-adv-x="569" d="M366 1077h-67l-294 346h249zM564 0h-488v41q103 0 135 48q24 36 24 139v463q0 123 -62 123q-9 0 -87 -11v37l329 119v-717q0 -110 19 -146q29 -55 130 -55v-41z" />
<glyph unicode="&#xed;" horiz-adv-x="569" d="M564 1423l-294 -346h-67l112 346h249zM493 0h-488v41q104 0 136 48q24 36 24 139v463q0 123 -62 123q-9 0 -87 -11v37l328 119v-717q0 -111 19 -146q30 -55 130 -55v-41z" />
<glyph unicode="&#xee;" horiz-adv-x="582" d="M581 1045h-67l-222 203l-224 -203h-67l235 356h119zM535 0h-488v41q104 0 136 48q24 36 24 139v463q0 123 -63 123q-8 0 -86 -11v37l328 119v-717q0 -110 19 -146q29 -55 130 -55v-41z" />
<glyph unicode="&#xef;" horiz-adv-x="574" d="M573 1251q0 -38 -30.5 -67t-68.5 -29q-41 0 -71.5 30.5t-30.5 71.5q0 42 30 70.5t72 28.5t70.5 -31t28.5 -74zM202 1252q0 -42 -29 -70.5t-71 -28.5q-40 0 -70.5 29.5t-30.5 69.5t30.5 70t70.5 30q43 0 71.5 -28.5t28.5 -71.5zM531 0h-488v41q104 0 136 48q24 36 24 139 v463q0 123 -63 123q-8 0 -86 -11v37l328 119v-717q0 -110 19 -146q29 -55 130 -55v-41z" />
<glyph unicode="&#xf0;" d="M965 494q0 -209 -125 -357q-131 -156 -337 -156q-197 0 -323 142q-121 136 -121 335q0 212 127 352q131 144 341 144q45 0 87 -7q-67 122 -151 222l-247 -135l-30 55l233 132q-95 97 -188 158l29 45q108 -55 245 -157l249 139l36 -53l-231 -132q151 -132 270 -330 q136 -226 136 -397zM771 412q0 172 -59 303q-77 172 -226 172q-126 0 -188 -117q-49 -92 -49 -230q0 -178 58 -314q77 -181 231 -181q233 0 233 367z" />
<glyph unicode="&#xf1;" d="M849 1326q-61 -203 -212 -203q-50 0 -150.5 41t-147.5 41q-62 0 -103 -82h-61q74 203 223 203q30 0 145 -34q110 -33 146 -50q57 0 110 84h50zM994 0h-432v41q81 3 109 53q20 36 20 122v371q0 234 -140 234l-4 4q-90 -1 -208 -119v-490q0 -84 21 -121q29 -50 109 -54v-41 h-439v41q134 6 134 180q0 19 -1.5 57t-1.5 55l-1 317q0 168 -93 168q-10 0 -37 -4v37l309 108v-160q110 93 127 104q70 45 156 45q122 0 186 -85q58 -76 58 -202v-445q0 -85 20 -119q27 -47 108 -60v-37z" />
<glyph unicode="&#xf2;" d="M558 1077h-67l-293 346h248zM965 494q0 -210 -124 -357q-131 -156 -338 -156q-198 0 -323 141q-121 136 -121 336q0 213 126 352q131 144 342 144q199 0 320 -131q118 -128 118 -329zM771 412q0 171 -59 303q-77 172 -226 172q-126 0 -188 -117q-49 -92 -49 -230 q0 -178 58 -314q77 -181 231 -181q233 0 233 367z" />
<glyph unicode="&#xf3;" d="M826 1423l-293 -346h-67l112 346h248zM965 494q0 -210 -124 -357q-131 -156 -338 -156q-198 0 -323 141q-121 136 -121 336q0 213 126 352q131 144 342 144q199 0 320 -131q118 -128 118 -329zM771 412q0 171 -59 303q-77 172 -226 172q-126 0 -188 -117 q-49 -92 -49 -230q0 -178 58 -314q77 -181 231 -181q233 0 233 367z" />
<glyph unicode="&#xf4;" d="M802 1045h-67l-222 203l-224 -203h-67l235 356h119zM965 494q0 -210 -124 -357q-131 -156 -338 -156q-198 0 -323 141q-121 136 -121 336q0 213 126 352q131 144 342 144q199 0 320 -131q118 -128 118 -329zM771 412q0 171 -59 303q-77 172 -226 172q-126 0 -188 -117 q-49 -92 -49 -230q0 -178 58 -314q77 -181 231 -181q233 0 233 367z" />
<glyph unicode="&#xf5;" d="M849 1326q-61 -203 -212 -203q-50 0 -150.5 41t-147.5 41q-62 0 -103 -82h-61q74 203 223 203q30 0 145 -34q110 -33 146 -50q57 0 110 84h50zM965 494q0 -210 -124 -357q-131 -156 -338 -156q-198 0 -323 141q-121 136 -121 336q0 213 126 352q131 144 342 144 q199 0 320 -131q118 -128 118 -329zM771 412q0 171 -59 303q-77 172 -226 172q-126 0 -188 -117q-49 -92 -49 -230q0 -178 58 -314q77 -181 231 -181q233 0 233 367z" />
<glyph unicode="&#xf6;" d="M798 1251q0 -38 -30.5 -67t-68.5 -29q-41 0 -71.5 30.5t-30.5 71.5q0 42 30 70.5t72 28.5t70.5 -31t28.5 -74zM427 1252q0 -42 -29 -70.5t-71 -28.5q-40 0 -70.5 29.5t-30.5 69.5t30.5 70t70.5 30q43 0 71.5 -28.5t28.5 -71.5zM965 494q0 -210 -124 -357 q-131 -156 -338 -156q-198 0 -323 141q-121 136 -121 336q0 213 126 352q131 144 342 144q199 0 320 -131q118 -128 118 -329zM771 412q0 171 -59 303q-77 172 -226 172q-126 0 -188 -117q-49 -92 -49 -230q0 -178 58 -314q77 -181 231 -181q233 0 233 367z" />
<glyph unicode="&#xf7;" horiz-adv-x="1155" d="M690 973q0 -48 -33.5 -82.5t-81.5 -34.5q-50 0 -82 34.5t-32 84.5q0 49 32.5 83t81.5 34q48 0 81.5 -35.5t33.5 -83.5zM1113 551h-1071v110h1071v-110zM694 236q0 -49 -35 -82.5t-84 -33.5q-46 0 -80 35t-34 81q0 50 32 84.5t82 34.5t84.5 -34.5t34.5 -84.5z" />
<glyph unicode="&#xf8;" d="M1013 954l-145 -157q97 -124 97 -303q0 -210 -124 -357q-132 -156 -338 -156q-168 0 -289 109l-101 -109h-102l152 164q-104 133 -104 313q0 213 126 352q131 144 342 144q172 0 289 -103l95 103h102zM705 731q-77 156 -219 156q-126 0 -188 -117q-49 -92 -49 -230 q0 -140 38 -261zM771 412q0 128 -36 242l-417 -452q77 -157 220 -157q233 0 233 367z" />
<glyph unicode="&#xf9;" d="M558 1077h-67l-293 346h248zM998 73l-298 -99v164q-90 -81 -132 -109q-82 -55 -157 -55q-257 0 -257 330v469q0 119 -128 119v36h305v-598q0 -231 133 -231q56 0 123 35q64 33 102 78v531q0 89 -31 116q-24 21 -118 33v36h326v-665q0 -98 19 -123q22 -29 113 -32v-35z " />
<glyph unicode="&#xfa;" d="M826 1423l-293 -346h-67l112 346h248zM998 73l-298 -99v164q-90 -81 -132 -109q-82 -55 -157 -55q-257 0 -257 330v469q0 119 -128 119v36h305v-598q0 -231 133 -231q56 0 123 35q64 33 102 78v531q0 89 -31 116q-24 21 -118 33v36h326v-665q0 -98 19 -123 q22 -29 113 -32v-35z" />
<glyph unicode="&#xfb;" d="M735 1045h-66l-223 203l-224 -203h-67l235 356h119zM998 73l-298 -99v164q-90 -81 -132 -109q-82 -55 -157 -55q-257 0 -257 330v469q0 119 -128 119v36h305v-598q0 -231 133 -231q56 0 123 35q64 33 102 78v531q0 89 -31 116q-24 21 -118 33v36h326v-665q0 -98 19 -123 q22 -29 113 -32v-35z" />
<glyph unicode="&#xfc;" d="M798 1251q0 -38 -30.5 -67t-68.5 -29q-41 0 -71.5 30.5t-30.5 71.5q0 42 30 70.5t72 28.5t70.5 -31t28.5 -74zM427 1252q0 -42 -29 -70.5t-71 -28.5q-40 0 -70.5 29.5t-30.5 69.5t30.5 70t70.5 30q43 0 71.5 -28.5t28.5 -71.5zM998 73l-298 -99v164q-90 -81 -132 -109 q-82 -55 -157 -55q-257 0 -257 330v469q0 119 -128 119v36h305v-598q0 -231 133 -231q56 0 123 35q64 33 102 78v531q0 89 -31 116q-24 21 -118 33v36h326v-665q0 -98 19 -123q22 -29 113 -32v-35z" />
<glyph unicode="&#xfd;" d="M826 1423l-293 -346h-67l112 346h248zM986 896q-56 -19 -87 -72q-12 -20 -43 -107q-56 -155 -231 -624q-88 -236 -145 -333q-121 -207 -263 -207q-60 0 -103 31q-47 34 -50 92l-4 9q0 38 36 64q33 24 72 24q25 0 72 -20.5t72 -20.5q59 0 120 123q10 21 70 177l-283 637 q-51 114 -66 138q-50 78 -115 89v32h432v-32q-121 3 -121 -60q0 -38 108 -281q31 -69 138 -307l116 309q89 237 89 283q0 57 -93 56v32h279v-32z" />
<glyph unicode="&#xfe;" d="M994 510q0 -207 -116 -362q-127 -170 -327 -170q-86 0 -192 78v-257q0 -120 24 -155q32 -47 146 -46v-41h-499v41q99 4 127 57q18 34 18 144v1365q0 74 -31 99q-27 21 -103 20v32l317 97v-447h1v-147q148 136 289 136q163 0 260 -145q86 -128 86 -299zM808 432 q0 146 -54 252q-68 134 -199 134q-100 0 -196 -116v-527q81 -115 203 -115q128 0 194 129q52 101 52 243z" />
<glyph unicode="&#xff;" d="M798 1251q0 -38 -30.5 -67t-68.5 -29q-41 0 -71.5 30.5t-30.5 71.5q0 42 30 70.5t72 28.5t70.5 -31t28.5 -74zM427 1252q0 -42 -29 -70.5t-71 -28.5q-40 0 -70.5 29.5t-30.5 69.5t30.5 70t70.5 30q43 0 71.5 -28.5t28.5 -71.5zM986 896q-56 -19 -87 -72q-12 -20 -43 -107 q-56 -155 -231 -624q-88 -236 -145 -333q-121 -207 -263 -207q-60 0 -103 31q-47 34 -50 92l-4 9q0 38 36 64q33 24 72 24q25 0 72 -20.5t72 -20.5q59 0 120 123q10 21 70 177l-283 637q-51 114 -66 138q-50 78 -115 89v32h432v-32q-121 3 -121 -60q0 -38 108 -281 q31 -69 138 -307l116 309q89 237 89 283q0 57 -93 56v32h279v-32z" />
<glyph unicode="&#x128;" horiz-adv-x="682" d="M650 0h-618v52q120 3 159.5 43t39.5 160v827q0 132 -29 170q-37 49 -170 48v56h618v-56q-136 1 -174 -49q-31 -40 -31 -180v-797q0 -134 30 -173q38 -50 175 -49v-52zM678 1667q-61 -203 -211 -203q-50 0 -154 41t-144 41q-62 0 -104 -82h-60q73 203 222 203 q52 0 146 -39.5t135 -40.5q5 -4 11 -4q55 0 110 84h49z" />
<glyph unicode="&#x129;" horiz-adv-x="569" d="M528 0h-487v41q105 0 136 47q23 35 23 140v463q0 123 -62 123q-5 0 -87 -11v37l329 119v-717q0 -113 18 -147q29 -54 130 -54v-41zM622 1326q-61 -203 -212 -203q-50 0 -151.5 41t-146.5 41q-62 0 -103 -82h-62q74 203 224 203q30 0 147 -35q110 -33 144 -49q56 0 110 84 h50z" />
<glyph unicode="&#x131;" horiz-adv-x="569" d="M528 0h-487v41q105 0 136 47q23 35 23 140v463q0 123 -62 123q-5 0 -87 -11v37l329 119v-717q0 -113 18 -147q29 -54 130 -54v-41z" />
<glyph unicode="&#x141;" horiz-adv-x="1251" d="M1239 365l-106 -365h-1073v56q118 12 149 54q26 36 26 158v310l-223 -146v119l223 146v406q0 117 -27 152q-32 41 -143 49v56h572v-56q-121 -3 -158 -48q-32 -39 -32 -163v-259l236 153v-119l-236 -153v-484q0 -139 203 -139q228 0 315 38q118 52 210 235h64z" />
<glyph unicode="&#x142;" horiz-adv-x="569" d="M555 872l-170 -123v-537q0 -95 29 -132q33 -40 126 -43v-37h-494v37q103 0 135 51q24 38 24 148v382l-191 -139v113l191 140v432q0 119 -77 119l-5 2q-44 0 -77 -7v37l339 101v-554l170 124v-114z" />
<glyph unicode="&#x14a;" horiz-adv-x="1479" d="M1440 1304q-129 -22 -160 -75q-22 -37 -22 -177v-1081q0 -202 -41 -287q-61 -127 -241 -127q-190 0 -190 117q0 80 82 80q36 0 98 -60.5t96 -60.5q95 0 95 173v238l-825 1018l1 -764q0 -137 26 -182q37 -65 163 -68v-48h-483v48q129 7 166 67q28 45 28 182v895 q-80 113 -194 112v56h345l773 -978v670q0 132 -27 178q-36 62 -158 74v56h468v-56z" />
<glyph unicode="&#x14b;" horiz-adv-x="910" d="M873 26q0 -469 -356 -469q-69 0 -122 24q-68 31 -68 93q0 80 82 80q36 0 98.5 -60.5t95.5 -60.5q95 0 95 173l1 756q0 264 -141 264q-94 0 -212 -120v-490q0 -84 21 -121q29 -50 108 -54v-41h-438v41q134 6 134 180q0 1 -2 215l-2 214q-2 168 -93 168q-13 0 -37 -4v37 l309 108v-160q104 88 127 103q71 46 156 46q122 0 186 -85q58 -76 58 -202v-635z" />
<glyph unicode="&#x152;" horiz-adv-x="1821" d="M1752 350l-98 -350h-724q14 0 15 -1q-10 -4 -68 -12q-100 -13 -138 -13q-297 0 -486 203q-184 198 -184 497q0 303 185 503q190 205 491 205q65 0 129 -12q74 -14 60 -14h703l11 -309h-63q-31 131 -82 173.5t-183 42.5h-289q-74 0 -74 -21v-488h295q120 0 162 37.5 t59 156.5h56v-484h-56q-12 108 -51 148q-43 42 -150 42h-315v-462q0 -65 23 -84q19 -15 83 -15h197q172 0 259.5 52.5t165.5 204.5h67zM737 56v1237q-228 0 -337 -216q-84 -166 -84 -418q0 -242 88 -401q111 -200 333 -202z" />
<glyph unicode="&#x153;" horiz-adv-x="1479" d="M1451 344q-150 -360 -434 -360q-206 0 -325 196q-104 -191 -316 -191q-163 0 -262 164q-86 142 -86 314q0 181 90 328q105 171 275 171q215 0 324 -191q109 189 332 189q179 0 276 -132q85 -115 93 -302h-626q-1 -11 -1 -25q0 -158 79 -259q86 -111 240 -111 q175 0 300 227zM1220 601q-24 279 -216 279q-194 0 -207 -279h423zM600 491q0 143 -28 248q-44 165 -146 165q-212 0 -212 -459q0 -141 29 -242q45 -156 145 -156q136 0 185 168q27 93 27 276z" />
<glyph unicode="&#x160;" horiz-adv-x="1139" d="M860 1800l-235 -356h-119l-227 356h67l222 -203l225 203h67zM1025 339q0 -173 -133 -276q-121 -93 -299 -93q-93 0 -175 30q-122 45 -129 45q-50 0 -59 -67h-56l-60 441h60q128 -356 408 -356q101 0 166 61.5t65 162.5q0 135 -166 242q-103 64 -310 192 q-167 131 -167 309q0 151 108 253q105 99 257 99q49 0 142.5 -34.5t142.5 -34.5q57 0 78 67h49l41 -443h-56q-121 348 -365 348q-81 0 -142 -52q-65 -54 -65 -134q0 -112 172 -225l321 -210q172 -144 172 -325z" />
<glyph unicode="&#x161;" horiz-adv-x="797" d="M689 1410l-235 -356h-119l-227 356h67l222 -203l225 203h67zM707 242q0 -121 -98 -196q-90 -68 -215 -68q-38 0 -111 20.5t-111 20.5q-21 0 -43 -25h-39v310h45q63 -267 274 -267q63 0 105 39.5t42 102.5q0 86 -121 160q-64 40 -224 135q-121 93 -121 221q0 113 84 187 q80 72 194 72q39 0 115.5 -21.5t115.5 -21.5q12 0 37 22h19l5 -279h-39q-53 244 -248 244q-60 0 -102.5 -38.5t-42.5 -97.5q0 -84 124 -157l231 -135q124 -94 124 -228z" />
<glyph unicode="&#x168;" horiz-adv-x="1479" d="M1438 1303q-124 -4 -161 -70q-25 -45 -25 -180v-589q0 -245 -141 -372q-135 -122 -383 -122q-278 0 -403 166q-109 145 -109 432v547q0 104 -35 143q-38 42 -140 43v54h581v-54q-120 -2 -157 -52q-29 -40 -29 -158v-108q1 -150 1 -153l1 -262q0 -246 49 -342 q73 -144 295 -144q237 0 315 153q52 102 52 366v483q0 127 -26 165q-35 51 -156 52v54h471v-52zM1076 1667q-61 -203 -211 -203q-49 0 -153 41t-145 41q-61 0 -104 -82h-60q74 203 222 203q52 0 146 -39.5t135 -40.5q6 -4 11 -4q55 0 110 84h49z" />
<glyph unicode="&#x169;" d="M998 73l-298 -99v164q-96 -84 -132 -109q-81 -55 -157 -55q-257 0 -257 330v469q0 67 -31 94q-28 24 -97 25v36h305v-598q0 -231 133 -231q56 0 123 35q64 33 102 78v531q0 90 -31 116q-24 20 -118 33v36h326v-665q0 -100 18 -123q22 -28 114 -32v-35zM849 1326 q-61 -203 -212 -203q-50 0 -150.5 41t-147.5 41q-62 0 -103 -82h-61q74 203 223 203q30 0 145 -34q110 -33 146 -50q57 0 110 84h50z" />
<glyph unicode="&#x178;" horiz-adv-x="1479" d="M1026 1539q0 -38 -31 -67t-69 -29q-41 0 -71 30t-30 71q0 42 29.5 71t71.5 29t71 -31.5t29 -73.5zM654 1540q0 -41 -29 -70t-70 -29q-40 0 -71 29.5t-31 69.5t31 69.5t71 29.5q43 0 71 -28t28 -71zM1425 1300q-108 -13 -224 -156q-35 -43 -160 -237l-192 -298v-346 q0 -124 36.5 -163.5t159.5 -43.5v-56h-613v56q121 4 158 35q43 36 43 155v346l-324 490q-70 105 -105 143q-69 74 -150 84v51h572v-56l-36 1q-113 3 -113 -53l4 -4q12 -58 327 -522q308 458 308 511q0 70 -138 67v56h447v-60z" />
<glyph unicode="&#x17d;" horiz-adv-x="1251" d="M916 1800l-235 -356h-119l-227 356h67l222 -203l225 203h67zM1210 359l-64 -359h-1104v37l870 1238h-434q-150 0 -205 -57q-46 -48 -72 -201h-38l28 339h1003l-891 -1274h556q142 0 214 74q57 58 104 209z" />
<glyph unicode="&#x17e;" horiz-adv-x="909" d="M745 1410l-235 -356h-119l-227 356h67l222 -203l225 203h67zM872 879l-614 -812h334q132 0 175 42q41 39 55 172h34l-11 -281h-808v36l608 810h-300q-115 0 -155 -32q-46 -37 -52 -152h-40l6 254h768v-37z" />
<glyph unicode="&#x186;" horiz-adv-x="1366" d="M1302 687q0 -312 -195 -513q-196 -204 -507 -204q-123 0 -277 52q-41 14 -71 19l-2 2q-59 -8 -97 -73h-41l-20 468l57 11q129 -378 442 -378q231 0 359 194q110 167 110 411q0 260 -120 419q-133 179 -385 179q-220 0 -443 -205l-48 45q252 272 562 272q304 0 492 -199 q184 -194 184 -500z" />
<glyph unicode="&#x18e;" horiz-adv-x="1251" d="M1220 0h-1092l-97 350h67q77 -153 164 -205t260 -52h197q66 0 84 15q22 18 22 84v462h-315q-107 0 -147.5 -40.5t-53.5 -149.5h-56v484h56q18 -120 59.5 -157t161.5 -37h295v488q0 21 -74 21h-289q-133 0 -185 -43q-48 -41 -80 -173h-63l11 309h1075v-58 q-117 -4 -150 -55q-24 -37 -24 -162v-832q0 -111 27 -146q33 -43 147 -47v-56z" />
<glyph unicode="&#x190;" horiz-adv-x="1146" d="M1100 262q0 -140 -196 -218q-151 -60 -327 -60q-201 0 -353 91q-178 107 -178 291q0 211 302 321q-262 142 -262 322q0 161 171 252q141 75 323 75q437 0 437 -229q0 -42 -32 -73t-75 -33q-25 7 -74 28q-38 22 -81 82q-50 69 -74 89q-48 41 -121 41q-106 0 -175 -91 q-63 -84 -63 -193q0 -167 165 -244q166 35 232 35q90 0 90 -62q0 -71 -99 -71q-84 0 -229 27q-193 -71 -193 -290q0 -121 94 -201q90 -77 213 -77q100 0 158 54q40 37 71 116q18 46 54 111q38 47 106 47q116 0 116 -140z" />
<glyph unicode="&#x192;" horiz-adv-x="682" d="M712 1267q0 -82 -82 -82q-47 0 -105 74.5t-98 74.5q-118 0 -118 -226q0 -120 6 -180h246v-77h-246v-825q0 -469 -362 -469q-69 0 -122 24q-68 31 -68 93q0 80 82 80q37 0 99 -60.5t95 -60.5q95 0 95 173v1045h-164v77h164q12 478 360 478q79 0 141 -30q77 -37 77 -109z " />
<glyph unicode="&#x1a9;" horiz-adv-x="1304" d="M1247 380l-93 -380h-1097l514 646l-509 719h1058l30 -329l-58 5q-28 140 -63 181q-48 56 -179 56h-469l382 -546l-427 -536h669q85 0 126 54q20 26 56 130h60z" />
<glyph unicode="&#x1b7;" horiz-adv-x="1208" d="M1154 180q0 -295 -233 -470q-211 -159 -515 -159q-119 0 -209 34q-126 48 -126 145q0 66 32 89q27 20 95 20q30 0 90 -47q82 -64 126 -87q91 -47 197 -47q154 0 252 115q93 109 93 266q0 241 -132 383q-136 147 -375 147q-32 0 -65 -3l484 703h-482q-251 0 -276 -273h-56 l30 360h1067v-32l-421 -612q187 -38 305.5 -189t118.5 -343z" />
<glyph unicode="&#x1dd;" horiz-adv-x="909" d="M865 479q0 -200 -107 -345q-118 -160 -312 -160q-179 0 -276 132q-84 114 -93 302h626q0 4 1 10.5t1 10.5q0 159 -79 261q-86 113 -241 113q-174 0 -300 -227l-41 17q151 361 434 361q192 0 296 -147q91 -128 91 -328zM698 336h-423q25 -278 216 -278q192 0 207 278z" />
<glyph unicode="&#x254;" horiz-adv-x="909" d="M862 473q0 -206 -130 -349q-135 -146 -339 -146q-115 0 -210 55q-114 66 -114 172q0 93 89 93q77 0 98 -67q10 -34 37 -123q33 -67 130 -67q129 0 205 119q65 102 65 239q0 156 -80 268q-90 125 -239 125q-96 0 -169 -57q-55 -43 -116 -139l-42 26q137 326 415 326 q180 0 295 -151q105 -138 105 -324z" />
<glyph unicode="&#x25b;" horiz-adv-x="909" d="M837 179q0 -104 -144 -161q-111 -44 -235 -44q-145 0 -256 67q-130 78 -130 213q0 155 205 230q-177 95 -177 228q0 119 126 186q102 54 234 54q318 0 318 -170q0 -33 -25.5 -57.5t-58.5 -24.5q-19 5 -55 20q-20 11 -83 92q-45 58 -111 58q-71 0 -118 -64 q-44 -58 -44 -131q0 -115 111 -166q116 24 165 24q71 0 71 -51q0 -58 -78 -58q-61 0 -163 19q-131 -48 -131 -200q0 -83 65 -138q62 -52 147 -52q87 0 129 60q22 51 52 112.5t96 61.5q90 0 90 -108z" />
<glyph unicode="&#x283;" horiz-adv-x="922" d="M945 1267q0 -82 -82 -82q-50 0 -104 74.5t-99 74.5q-118 0 -118 -226q0 -30 3 -90t3 -90v-927q0 -202 -77 -327q-93 -151 -283 -151q-82 0 -141 29q-77 38 -77 110q0 82 82 82q50 0 104 -74.5t99 -74.5q118 0 118 226q0 30 -3 90t-3 90v927q0 202 77 327q93 151 283 151 q82 0 141 -29q77 -38 77 -110z" />
<glyph unicode="&#x292;" horiz-adv-x="909" d="M869 928l-326 -487q139 -28 231 -144.5t92 -259.5q0 -225 -175 -358q-160 -122 -391 -122q-89 0 -161 28q-96 38 -96 113q0 53 26 72q21 16 76 16q28 0 70 -35q61 -51 89 -66q65 -35 149 -35q113 0 185 85q68 81 68 196q0 178 -108 285.5t-286 107.5q-30 0 -61 -4 l346 531h-257q-96 0 -133 -38q-33 -35 -42 -133h-47v248h751z" />
<glyph unicode="&#x2c6;" horiz-adv-x="682" d="M631 1045h-67l-222 203l-224 -203h-67l235 356h119z" />
<glyph unicode="&#x2c7;" horiz-adv-x="682" d="M631 1410l-235 -356h-119l-226 356h67l222 -203l224 203h67z" />
<glyph unicode="&#x2d8;" horiz-adv-x="682" d="M627 1358q-9 -121 -87 -199q-80 -81 -199 -81q-118 0 -198 82q-78 79 -88 198h31q69 -129 257 -129q207 0 251 129h33z" />
<glyph unicode="&#x2d9;" horiz-adv-x="682" d="M450 1228q0 -45 -32 -77t-77 -32t-77 32t-32 77t32 77t77 32t77 -32t32 -77z" />
<glyph unicode="&#x2da;" horiz-adv-x="682" d="M533 1233q0 -81 -55.5 -136.5t-136.5 -55.5t-136 55.5t-55 136.5t55 136t136 55t136.5 -55.5t55.5 -135.5zM463 1233q0 51 -35.5 86.5t-86.5 35.5t-86.5 -35.5t-35.5 -86.5t35.5 -86.5t86.5 -35.5t86.5 35.5t35.5 86.5z" />
<glyph unicode="&#x2db;" horiz-adv-x="682" d="M501 -286q-45 -92 -154 -92q-79 0 -124 54q-42 50 -42 130q0 66 36 119q21 31 85 91h52q-1 -4 -51 -70q-25 -33 -25 -93q0 -134 110 -134q60 0 113 60v-65z" />
<glyph unicode="&#x2dc;" horiz-adv-x="682" d="M678 1326q-61 -203 -212 -203q-50 0 -150.5 41t-147.5 41q-62 0 -103 -82h-61q74 203 223 203q30 0 145 -34q110 -33 146 -50q57 0 110 84h50z" />
<glyph unicode="&#x2dd;" horiz-adv-x="682" d="M624 1390l-218 -346h-34l65 346h187zM311 1390l-220 -346h-33l66 346h187z" />
<glyph unicode="&#x303;" horiz-adv-x="0" d="M-175 1326q-61 -203 -212 -203q-51 0 -151.5 41t-146.5 41q-62 0 -103 -82h-61q74 203 223 203q31 0 147 -35q111 -33 144 -49q57 0 110 84h50z" />
<glyph unicode="&#x3a9;" horiz-adv-x="1542" d="M1487 376l-48 -376h-555l20 289q311 162 311 506q0 207 -112 360q-123 169 -322 169q-200 0 -327 -170q-116 -155 -116 -362q0 -178 78 -299q74 -113 235 -204l15 -289h-555l-56 371h56q39 -102 59 -133q46 -72 116 -72h268v93q-204 45 -327 177q-131 140 -131 343 q0 280 202 465q196 179 478 179q286 0 477 -175q197 -181 197 -464q0 -406 -454 -525v-93h279q62 0 112 76q41 63 52 134h48z" />
<glyph unicode="&#x3bc;" d="M999 179q0 -246 -186 -246q-157 0 -179 194q-54 -72 -146 -124q-97 -55 -182 -55q-68 0 -145 56q0 -10 -1 -30t-1 -30q0 -39 18.5 -113.5t18.5 -113.5q0 -108 -78 -108q-93 0 -93 102q0 10 11 58q30 132 30 216q0 38 -4.5 111t-4.5 109l-4 695h186v-580q0 -112 29 -165 q40 -73 146 -73q100 0 205 112v706h190v-755q0 -93 56 -93q63 0 78 164h56v-37z" />
<glyph unicode="&#x3c0;" horiz-adv-x="1149" d="M1092 788h-221q-41 -227 -41 -350q0 -7 2.5 -20.5t2.5 -20.5q0 -2 -2.5 -7.5t-2.5 -7.5q0 -233 102 -233q75 0 108 114h41q-26 -298 -188 -298q-199 0 -199 402q0 126 43 421h-241q0 -217 -51 -467q-73 -358 -204 -358q-37 0 -65 28t-28 65q0 35 58 108q160 200 160 624 h-99q-61 0 -100 -40q-24 -24 -60 -94h-50q73 181 96 214q66 95 198 95h741v-175z" />
<glyph unicode="&#x60c;" horiz-adv-x="512" d="M404 97q0 -55 -41 -88q-37 -31 -93 -31q-76 0 -121 60q-41 54 -41 132q0 208 279 344l15 -46q-210 -131 -210 -248q9 -24 26 -24q13 0 39 4.5t39 4.5q43 0 75.5 -32.5t32.5 -75.5z" />
<glyph unicode="&#x61b;" horiz-adv-x="569" d="M433 839q0 -55 -38.5 -87t-94.5 -32q-79 0 -123 55q-41 50 -41 131q0 201 278 349l15 -45q-203 -132 -203 -248q0 -25 22 -26q20 11 67 11q118 0 118 -108zM423 96q0 -49 -34 -84t-83 -35q-51 0 -85 35t-34 86q0 48 34.5 82.5t82.5 34.5q50 0 84.5 -34.5t34.5 -84.5z" />
<glyph unicode="&#x61f;" horiz-adv-x="909" d="M814 1145q0 -10 -2 -27q-10 -85 -17 -102q-21 -53 -84 -53q-39 0 -64 27t-25 66q0 33 37 89.5t37 59.5q0 60 -64 97q-54 32 -118 32q-97 0 -159.5 -72.5t-62.5 -171.5q0 -130 96 -374.5t96 -374.5h-41q-11 59 -45 173q-32 75 -114 177q-106 132 -128 168q-61 99 -61 201 q0 153 105 249q101 92 256 92q133 0 238 -64q120 -73 120 -192zM557 93q0 -47 -34.5 -79.5t-81.5 -32.5q-50 0 -86.5 33.5t-36.5 82.5t37 84t86 35q51 0 83.5 -35.5t32.5 -87.5z" />
<glyph unicode="&#x66a;" horiz-adv-x="875" d="M271 1293q0 -47 -33.5 -81.5t-80.5 -34.5q-50 0 -82.5 34.5t-32.5 84.5q0 49 33 82.5t82 33.5q48 0 81 -35t33 -84zM714 1412l-456 -1434h-101l449 1434h108zM832 95q0 -49 -34.5 -83t-83.5 -34q-47 0 -81 35t-34 82q0 50 32.5 84.5t82.5 34.5t84 -34.5t34 -84.5z" />
<glyph unicode="&#x7c0;" d="M948 730q0 -277 -87 -477q-117 -269 -356 -269q-234 0 -347 275q-82 200 -82 475q0 256 87 440q114 240 342 240q233 0 351 -238q92 -186 92 -446zM742 710q0 462 -231 462q-230 0 -230 -462q0 -457 230 -457q231 0 231 457z" />
<glyph unicode="&#x7c1;" d="M902 79q0 -82 -46 -82h-688q-46 0 -46 82q0 74 46 74h240v1230q0 46 88 46h165q22 0 37 -23q23 -36 112 -204q92 -174 92 -189q0 -25 -42 -51q-38 -25 -65 -25q-23 0 -36 24l-143 264v-1072h240q46 0 46 -74z" />
<glyph unicode="&#x7c2;" d="M869 919q0 -67 -46 -67h-460v-809q0 -46 -98 -46q-110 0 -110 46v1340q0 46 110 46q98 0 98 -46v-375h350v375q0 46 82 46q74 0 74 -46v-464z" />
<glyph unicode="&#x7c3;" d="M779 43q0 -47 -89 -47l-399 1q-46 0 -46 109q0 99 46 99h280v369h-280q-46 0 -46 82q0 74 46 74h280v653q0 46 109 46q99 0 99 -46v-1340z" />
<glyph unicode="&#x7c4;" d="M819 107q0 -110 -46 -110h-522q-46 0 -46 90v637q0 69 46 69h360v590q0 46 110 46q98 0 98 -46v-679q0 -67 -46 -67h-438v-432h438q46 0 46 -98z" />
<glyph unicode="&#x7c5;" d="M779 703q0 -94 -47 -94h-279v-566q0 -46 -113 -46q-94 0 -94 46v1340q0 46 110 46q97 0 97 -46v-566h279q47 0 47 -114z" />
<glyph unicode="&#x7c6;" d="M854 43q0 -46 -98 -46q-109 0 -109 46v594h-431q-46 0 -46 71v675q0 46 109 46q99 0 99 -46v-590h430q46 0 46 -74v-676z" />
<glyph unicode="&#x7c7;" d="M904 954q0 -14 -226 -441.5t-268 -493.5q-14 -22 -36 -22h-158q-96 0 -96 46v1340q0 46 110 46q98 0 98 -46v-1183l432 806q13 24 36 24q28 0 66 -24q42 -26 42 -52z" />
<glyph unicode="&#x7c8;" d="M904 954q0 -10 -230 -448q-234 -445 -264 -487q-16 -22 -36 -22h-158q-96 0 -96 46v1340q0 46 110 46q98 0 98 -46v-353h468q32 0 68 -22q40 -24 40 -54zM689 874h-361v-674z" />
<glyph unicode="&#x7c9;" d="M852 1053q0 -112 -65 -201t-171 -122v-687q0 -46 -98 -46q-110 0 -110 46v686q-107 33 -171.5 122.5t-64.5 201.5q0 140 98 242.5t237 102.5q143 0 244 -101t101 -244zM713 1061q0 79 -65 130q-59 47 -141 47t-141 -47q-64 -50 -64 -130q0 -77 66 -126q59 -45 139 -45 t140 45q66 49 66 126z" />
<glyph unicode="&#x7ca;" horiz-adv-x="608" d="M408 206q0 -98 -55 -154.5t-153 -54.5v1222q0 98 55 154.5t153 55.5v-1223z" />
<glyph unicode="&#x7cb;" horiz-adv-x="1435" d="M1235 516q0 -218 -149.5 -368.5t-367.5 -150.5q-220 0 -369 150t-149 370q0 215 151.5 368t365.5 153t366 -154t152 -368zM1030 525q0 123 -98 199q-90 71 -216 71q-124 0 -214 -72q-98 -77 -98 -198q0 -117 100 -192q91 -68 212 -68q122 0 213 68q101 74 101 192z" />
<glyph unicode="&#x7cc;" horiz-adv-x="1113" d="M913 1308q0 -62 -31 -128l-222 -475v-499q0 -98 -55 -154.5t-153 -54.5v709l-221 474q-31 66 -31 128q0 91 84 128l273 -585l272 585q84 -37 84 -128z" />
<glyph unicode="&#x7cd;" horiz-adv-x="1450" d="M1250 155q0 -95 -101 -159l-424 652l-423 -652q-102 64 -102 159q0 67 41 130l484 745l484 -745q41 -63 41 -130z" />
<glyph unicode="&#x7ce;" horiz-adv-x="1243" d="M1043 206q0 -98 -55 -153.5t-153 -55.5h-347q-113 0 -166 66q-39 -68 -122 -66v821q0 86 34 143q41 69 122 67v-823h479v613q0 99 55 155.5t153 54.5v-822z" />
<glyph unicode="&#x7cf;" horiz-adv-x="1208" d="M1008 206q0 -98 -55 -153.5t-153 -55.5h-600q-2 98 54.5 153t155.5 55h390v615h-600q-2 98 54.5 153t155.5 55h598v-822z" />
<glyph unicode="&#x7d0;" horiz-adv-x="1433" d="M1233 1005q0 -165 -128 -272q-112 -94 -285 -117v-411h297q1 -98 -55.5 -153t-154.5 -55h-590q-3 133 90 178q62 30 206 30v411q-174 25 -285 118q-128 106 -128 271q0 184 173 302q153 104 346 104q192 0 344 -105q170 -117 170 -301zM1029 1016q0 108 -109 164 q-86 44 -205 44q-117 0 -203 -45q-108 -56 -108 -163q0 -105 109 -158q86 -42 202 -42q119 0 204 41q110 53 110 159z" />
<glyph unicode="&#x7d1;" horiz-adv-x="1015" d="M668 842q0 -56 -40.5 -89.5t-97.5 -33.5q-80 0 -134 66q-49 62 -49 144q0 238 272 336v-45q-175 -107 -175 -218q0 -65 41 -65q13 0 37.5 9t37.5 9q46 0 77 -33.5t31 -79.5zM945 205q1 -97 -56 -152.5t-154 -55.5h-665q-2 98 54.5 153t155.5 55h665z" />
<glyph unicode="&#x7d2;" horiz-adv-x="1473" d="M1273 206q0 -98 -55 -154.5t-153 -54.5v797h-304q0 -233 -104 -230v230h-119q-139 0 -237 93q-101 94 -101 232q0 140 71 229q76 97 213 97q196 0 250 -179q24 -80 24 -339h515v-721zM657 927v202q0 209 -159 209q-177 0 -177 -209q0 -88 73 -147q68 -55 158 -55h105z " />
<glyph unicode="&#x7d3;" horiz-adv-x="933" d="M733 842q3 -112 -119 -143q-51 -13 -206 -13v-480q0 -98 -55 -154.5t-153 -54.5v1212q0 210 208 210h325q2 -141 -102 -184q-58 -24 -223 -24v-369h325z" />
<glyph unicode="&#x7d4;" horiz-adv-x="933" d="M733 206q0 -98 -55 -154.5t-153 -54.5v689h-325q-2 112 119 143q51 13 206 13v369h-325q-2 98 54.5 153t155.5 55h323v-1213z" />
<glyph unicode="&#x7d5;" horiz-adv-x="1196" d="M997 445q0 -173 -102 -305q-110 -143 -278 -143h-417v1222q0 98 55 154.5t153 55.5v-537h259q156 0 250 -151q80 -129 80 -296zM870 501q0 105 -53 187q-61 94 -161 94h-248v-577h219q90 0 141 45q40 36 79 130q23 56 23 121z" />
<glyph unicode="&#x7d6;" horiz-adv-x="1191" d="M991 1419q2 -97 -55 -152.5t-155 -55.5h-394q190 -180 291 -330q114 -169 184 -400q35 -115 35 -162v-113q0 -97 -55.5 -154t-152.5 -55l1 168q4 685 -490 1046v14q0 90 61 143q58 51 149 51h581z" />
<glyph unicode="&#x7d7;" horiz-adv-x="956" d="M756 206q0 -98 -55 -154.5t-153 -54.5v1195q-40 -71 -273 -492q-75 39 -75 120q0 68 40 139l223 396q36 64 158 64h135v-1213z" />
<glyph unicode="&#x7d8;" horiz-adv-x="1570" d="M1370 206q0 -98 -55 -153.5t-153 -55.5h-962v462q0 182 68 314q86 166 251 166q77 0 119 -47q37 -53 74 -105q109 244 321 244q150 0 247 -118q90 -110 90 -264v-443zM1161 205v315q0 385 -197 385q-115 0 -169 -144q-38 -102 -38 -241v-315h404zM649 205v315 q0 101 -26 189q-38 128 -112 128q-77 0 -121 -97q-35 -77 -35 -164l1 -371h293z" />
<glyph unicode="&#x7d9;" horiz-adv-x="1097" d="M897 960q3 -155 -245 -155v-599q0 -98 -55 -154.5t-153 -54.5v808h-244q-4 155 244 155v259q0 98 55 154.5t153 55.5v-469h245z" />
<glyph unicode="&#x7da;" horiz-adv-x="1590" d="M1390 960q4 -155 -254 -155v-599q0 -98 -55 -153.5t-153 -55.5h-186q-112 0 -165 66q-39 -68 -122 -66v808h-255q-4 155 255 155v259q0 214 156 210v-469h317v259q0 99 55 155.5t153 54.5v-469h254zM928 205v600h-317v-599z" />
<glyph unicode="&#x7db;" horiz-adv-x="1529" d="M1329 206q0 -98 -55 -153.5t-153 -55.5h-921v841q0 190 156 190h973v-822zM1121 205v582h-609q-156 0 -156 -210v-372h765z" />
<glyph unicode="&#x7dc;" horiz-adv-x="1366" d="M1166 1238q0 -48 -15 -85l-471 -1157l-465 1157q-15 37 -15 85q0 66 38 120q42 61 105 61h679q63 0 105 -61q39 -55 39 -120zM950 1211h-535l268 -779z" />
<glyph unicode="&#x7dd;" horiz-adv-x="1560" d="M1360 1083q0 -144 -101 -244.5t-245 -100.5q-23 0 -68 -1t-68 -1v-530q0 -98 -55 -153.5t-153 -55.5h-470v696q0 199 156 199h314v327q0 98 55 154t153 56h136q145 0 245.5 -100.5t100.5 -245.5zM1205 1083q0 81 -55 136t-136 55q-41 0 -86 -28q-50 -32 -50 -70v-283h136 q80 0 135.5 55t55.5 135zM670 205v531h-158q-156 0 -156 -210v-321h314z" />
<glyph unicode="&#x7de;" horiz-adv-x="1145" d="M945 206q0 -98 -55 -154.5t-153 -54.5v898h-381q0 -136 -17 -192q-33 -108 -139 -105v533q0 87 34 143q41 68 122 67v-298h381q0 -14 0 4q-1 18 -1 50v55q0 132 33 192q48 87 176 85v-1223z" />
<glyph unicode="&#x7df;" horiz-adv-x="1321" d="M1121 887q0 -156 -231 -156v-525q0 -98 -55 -154.5t-153 -54.5v739h-137q-144 0 -244.5 101t-100.5 246q0 144 100.5 245t244.5 101h137q98 0 153 -56t55 -154v-326h231v-6zM682 893v283q0 36 -52 68q-47 30 -85 30q-80 0 -135 -55.5t-55 -135.5t55 -135t135 -55h137z " />
<glyph unicode="&#x7e0;" horiz-adv-x="1200" d="M1000 1419q2 -133 -90 -178q-61 -30 -206 -30v-1005q0 -98 -55 -154.5t-153 -54.5v1214h-296q-2 98 54.5 153t155.5 55h590z" />
<glyph unicode="&#x7e1;" horiz-adv-x="1366" d="M1165 178q0 -66 -38 -121q-41 -61 -105 -61h-679q-64 0 -105 61q-38 55 -38 121q0 47 15 84l470 1157l466 -1157q14 -35 14 -84zM950 205l-267 778l-268 -778h535z" />
<glyph unicode="&#x7e2;" horiz-adv-x="1164" d="M964 712q-7 -105 -70.5 -186t-164.5 -113v-207q0 -98 -55.5 -154.5t-152.5 -54.5v415q-101 31 -164.5 112.5t-70.5 187.5q-8 119 57 217t178 135v147h-321q-2 98 54.5 153t155.5 55h319v-356q111 -38 177 -136t58 -215zM826 744q1 79 -65 130q-60 47 -142 47 q-81 0 -141 -47q-64 -51 -63 -130t65 -127q58 -44 139 -44t141 44q65 49 66 127z" />
<glyph unicode="&#x7e3;" horiz-adv-x="1137" d="M937 206q0 -98 -55 -154.5t-153 -54.5v1214h-268q-73 0 -93 -91q-10 -47 -36 -170q-34 -90 -132 -88v349q0 98 56 153t154 55h527v-1213z" />
<glyph unicode="&#x7e4;" horiz-adv-x="1145" d="M945 206q0 -98 -55 -154.5t-153 -54.5v968h-381q0 -136 -17 -192q-33 -108 -139 -105v533q0 86 34 142q41 69 122 67v-297h589v-907z" />
<glyph unicode="&#x7e5;" horiz-adv-x="1030" d="M830 206q0 -98 -55 -153.5t-153 -55.5h-422v706q0 189 156 189h268v319h-422q-2 98 54.5 153t154.5 55h419v-1213zM624 205v531h-112q-156 0 -156 -210v-321h268z" />
<glyph unicode="&#x7e6;" horiz-adv-x="1079" d="M879 712q-8 -105 -71.5 -186.5t-163.5 -113.5v-206q0 -98 -55.5 -154.5t-152.5 -54.5v415q-101 32 -164.5 113t-70.5 187q-8 119 57 217t178 135v155q0 100 54.5 156t153.5 54v-365q110 -38 176.5 -137t58.5 -215zM741 744q1 79 -65 130q-60 47 -142 47q-81 0 -141 -47 q-64 -51 -63 -130t65 -127q58 -44 139 -44t141 44q65 49 66 127z" />
<glyph unicode="&#x7e7;" horiz-adv-x="1169" d="M969 1419q2 -98 -54.5 -153t-155.5 -55h-71v-147q112 -39 177.5 -136.5t57.5 -215.5q-8 -106 -70.5 -186.5t-163.5 -112.5v-207q0 -98 -55.5 -154.5t-152.5 -54.5v415q-101 31 -164 112.5t-71 187.5q-8 118 57.5 216.5t177.5 135.5v147h-281q-2 98 54.5 153t155.5 55h559 zM786 744q1 79 -65 130q-60 47 -142 47q-81 0 -141 -47q-64 -51 -63 -130t65 -127q58 -44 139 -44t141 44q65 49 66 127z" />
<glyph unicode="&#x7e8;" horiz-adv-x="987" d="M787 375q0 -77 -33 -189q-16 -52 -55 -188q-66 -243 -243 -517q-163 -252 -358 -447q48 -4 75 -4q189 0 295 86q98 79 160 264q8 23 18 23q26 0 26 -54q0 -202 -238 -371q-221 -157 -432 -157q-53 0 -103.5 45t-50.5 97q0 14 68 101q421 538 548 933h-264q-3 143 105 185 q59 23 228 23l77 232q15 45 85 45q92 0 92 -107z" />
<glyph unicode="&#x7e9;" horiz-adv-x="997" d="M799 362q0 -128 -129 -442q-113 -274 -205 -424q101 -14 137 -31q64 -31 64 -112q0 -298 -461 -483q-120 -48 -154 -48q-194 0 -194 134q0 14 69 108q43 59 121 172q315 458 430 760l-276 2q-2 145 110 186q57 21 236 21q20 92 63 231q19 45 84 45q47 0 76 -35.5 t29 -83.5zM555 -709q0 38 -43 60q-34 18 -76 18q-16 0 -63 -14q-115 -162 -275 -322l68 -8q109 0 210 49q110 54 156 144q23 45 23 73z" />
<glyph unicode="&#x7ea;" horiz-adv-x="1102" d="M902 205q4 -208 -247 -208v-504q0 -97 -55.5 -154t-152.5 -56v714h-247q-4 208 247 208v301q0 98 55 154.5t153 54.5v-510h247z" />
<glyph unicode="&#x7eb;" horiz-adv-x="0" d="M1162 1780q2 -73 -41 -114.5t-116 -41.5h-717q-2 73 41 114.5t116 41.5h717z" />
<glyph unicode="&#x7ec;" horiz-adv-x="0" d="M1101 1893q0 -107 -81 -188.5t-195 -81.5q-110 0 -189 83q-32 33 -50 67l-256 -149q-22 38 -22 71q0 60 62 96l144 85q40 23 82 17q18 -3 82 -66q10 -13 34 -38q46 -38 113 -38q65 0 113 38q52 41 52 104q0 37 54 37q57 0 57 -37z" />
<glyph unicode="&#x7ed;" horiz-adv-x="0" d="M897 1754q0 -62 -57 -98q-49 -32 -114 -32q-67 0 -115 31q-57 36 -57 99q0 62 57 98q50 32 115 32t114 -32q57 -36 57 -98z" />
<glyph unicode="&#x7ee;" horiz-adv-x="0" d="M1038 1684q0 -55 -60 -114l-253 253l-253 -253q-60 58 -60 114q0 47 33 80l181 181q31 31 93 31q74 0 105 -31l181 -181q33 -33 33 -80z" />
<glyph unicode="&#x7ef;" horiz-adv-x="0" d="M1188 1734q0 -60 -52 -110h-875q-1 73 42 114.5t116 41.5h561l-197 197q-53 53 -53 111q0 60 53 110l352 -353q53 -53 53 -111z" />
<glyph unicode="&#x7f0;" horiz-adv-x="0" d="M1107 1695q0 -33 -22 -71l-256 149q-18 -34 -50 -67q-79 -83 -189 -83q-114 0 -195 81.5t-81 188.5q0 37 57 37q54 0 54 -37q0 -63 52 -104q48 -38 113 -38q66 0 113 38q10 12 34 38q20 21 41 42t41 24q41 6 81 -17l145 -85q62 -36 62 -96z" />
<glyph unicode="&#x7f1;" horiz-adv-x="0" d="M1189 1780q1 -73 -42 -114.5t-116 -41.5h-717q-52 50 -52 110q0 58 53 111l352 353q53 -50 53 -110q0 -58 -53 -111l-197 -197h719z" />
<glyph unicode="&#x7f2;" horiz-adv-x="0" d="M897 -235q0 -62 -57 -98q-49 -32 -114 -32q-67 0 -115 31q-57 36 -57 99q0 62 57 98q50 32 115 32t114 -32q57 -36 57 -98z" />
<glyph unicode="&#x7f3;" horiz-adv-x="0" d="M1144 1754q0 -62 -57 -98q-49 -32 -114 -32q-67 0 -115 31q-57 36 -57 99q0 62 57 98q50 32 115 32t114 -32q57 -37 57 -98zM649 1754q0 -62 -57 -98q-49 -32 -114 -32q-67 0 -115 31q-57 36 -57 99q0 62 57 98q50 32 115 32t114 -32q57 -36 57 -98z" />
<glyph unicode="&#x7f4;" horiz-adv-x="722" d="M522 1056q0 -239 -272 -337v46q175 106 175 218q0 64 -41 64q-13 0 -38 -8.5t-38 -8.5q-45 0 -76.5 33.5t-31.5 78.5q0 57 42 91q38 32 96 32q80 0 133 -66q51 -62 51 -143z" />
<glyph unicode="&#x7f5;" horiz-adv-x="722" d="M522 842q0 -56 -40.5 -89.5t-97.5 -33.5q-79 0 -133 67q-51 62 -51 143q0 238 272 336v-45q-175 -107 -175 -218q0 -65 41 -65q13 0 38 9t38 9q46 0 77 -33.5t31 -79.5z" />
<glyph unicode="&#x7f6;" horiz-adv-x="1301" d="M1101 1033q0 -214 -186 -466q-153 -207 -364 -362h501q1 -97 -56 -152.5t-154 -55.5h-642q-1 80 46 144q38 52 154 160q164 153 362 354q-22 -2 -47 -2q-158 0 -266 111t-108 269q0 155 110 269.5t264 114.5q159 0 272.5 -112.5t113.5 -271.5zM946 1041q0 88 -73 145 q-67 53 -158 53t-157 -52q-71 -57 -71 -146q0 -86 73 -141q66 -51 155 -51q88 0 156 51q75 55 75 141z" />
<glyph unicode="&#x7f7;" horiz-adv-x="1854" d="M1697 301q0 -172 -119 -291.5t-291 -119.5q-112 0 -209 57t-151 155q-54 -98 -151 -155t-209 -57q-172 0 -291 119.5t-119 291.5q0 173 122.5 296t294.5 115q-52 93 -52 199q0 172 119.5 291.5t291.5 119.5t291.5 -119.5t119.5 -291.5q0 -106 -51 -199q170 -2 287 -121.5 t117 -289.5zM1595 301q0 129 -89.5 218.5t-218.5 89.5q-47 0 -90 -13l-53 91q97 91 97 224q0 130 -89 219t-219 89q-129 0 -218.5 -89.5t-89.5 -218.5q0 -141 107 -233l-54 -89q-53 20 -111 20q-129 0 -218.5 -89.5t-89.5 -218.5t89.5 -218.5t218.5 -89.5t219 89.5t90 218.5 h102q0 -129 90 -218.5t219 -89.5t218.5 89.5t89.5 218.5zM1049 911q0 -48 -34 -81.5t-82 -33.5t-81.5 33.5t-33.5 81.5t33.5 82t81.5 34t82 -34t34 -82zM1402 301q0 -47 -34 -81t-81 -34q-48 0 -82 33.5t-34 81.5t34 82t82 34t81.5 -34t33.5 -82zM683 301q0 -48 -34 -81.5 t-82 -33.5q-47 0 -81 34t-34 81q0 48 33.5 82t81.5 34t82 -34t34 -82z" />
<glyph unicode="&#x7f8;" horiz-adv-x="1053" d="M698 1016q0 -62 -57 -98q-48 -31 -114 -31t-115 31q-58 36 -58 98q0 63 57 99q49 31 116 31q65 0 114 -32q57 -36 57 -98zM853 205q1 -97 -56 -152.5t-154 -55.5h-443q-2 98 54.5 153t155.5 55h443z" />
<glyph unicode="&#x7f9;" horiz-adv-x="1053" d="M853 1211q1 -97 -56 -152.5t-154 -55.5h-443q-2 98 54.5 153t155.5 55h443zM698 605q0 -62 -57 -98q-49 -32 -114 -32q-67 0 -116 31q-57 36 -57 99q0 62 58 98q50 32 115 32t114 -32q57 -36 57 -98zM698 129q0 -62 -57 -98q-49 -32 -114 -32q-67 0 -116 31 q-57 36 -57 99q0 62 58 98q50 32 115 32t114 -32q57 -36 57 -98z" />
<glyph unicode="&#x7fa;" horiz-adv-x="617" d="M687 -3h-757v208h757v-208z" />
<glyph unicode="&#x1ebc;" horiz-adv-x="1251" d="M1220 350l-97 -350h-1092v56q114 4 147 47q27 35 27 146v832q0 125 -24 162q-33 51 -150 55v58h1075l11 -309h-63q-32 132 -80 173q-52 43 -185 43h-289q-74 0 -74 -21v-488h295q120 0 161.5 37t59.5 157h56v-484h-56q-13 109 -52 148q-42 42 -149 42h-315v-462 q0 -66 22 -84q18 -15 84 -15h197q173 0 260 52t164 205h67zM962 1667q-61 -203 -211 -203q-49 0 -153 41t-145 41q-61 0 -104 -82h-60q74 203 222 203q52 0 146 -39.5t135 -40.5q6 -4 11 -4q55 0 110 84h49z" />
<glyph unicode="&#x1ebd;" horiz-adv-x="909" d="M865 335q-151 -361 -434 -361q-192 0 -296 147q-91 128 -91 328t107 345q118 160 312 160q179 0 276 -132q84 -114 93 -302h-626q0 -4 -1 -10.5t-1 -10.5q0 -159 79 -261q86 -113 241 -113q174 0 300 227zM634 592q-25 278 -216 278q-192 0 -207 -278h423zM792 1326 q-61 -203 -212 -203q-50 0 -151.5 41t-146.5 41q-62 0 -103 -82h-61q73 203 223 203q30 0 147 -35q110 -33 144 -49q56 0 110 84h50z" />
<glyph unicode="&#x2000;" horiz-adv-x="1146" />
<glyph unicode="&#x2001;" horiz-adv-x="2292" />
<glyph unicode="&#x2002;" horiz-adv-x="1146" />
<glyph unicode="&#x2003;" horiz-adv-x="2292" />
<glyph unicode="&#x2004;" horiz-adv-x="764" />
<glyph unicode="&#x2005;" horiz-adv-x="573" />
<glyph unicode="&#x2006;" horiz-adv-x="382" />
<glyph unicode="&#x2007;" horiz-adv-x="382" />
<glyph unicode="&#x2008;" horiz-adv-x="286" />
<glyph unicode="&#x2009;" horiz-adv-x="458" />
<glyph unicode="&#x200a;" horiz-adv-x="127" />
<glyph unicode="&#x200c;" horiz-adv-x="0" />
<glyph unicode="&#x200d;" horiz-adv-x="0" />
<glyph unicode="&#x200e;" horiz-adv-x="0" />
<glyph unicode="&#x200f;" horiz-adv-x="0" />
<glyph unicode="&#x2010;" horiz-adv-x="682" d="M611 460h-540v175h540v-175z" />
<glyph unicode="&#x2011;" horiz-adv-x="682" d="M611 460h-540v175h540v-175z" />
<glyph unicode="&#x2012;" horiz-adv-x="682" d="M611 460h-540v175h540v-175z" />
<glyph unicode="&#x2013;" horiz-adv-x="1080" d="M1099 477h-1118v78h1118v-78z" />
<glyph unicode="&#x2014;" horiz-adv-x="2048" d="M2124 477h-2200v78h2200v-78z" />
<glyph unicode="&#x2018;" horiz-adv-x="682" d="M502 1039q0 -57 -40 -90t-98 -33q-80 0 -133 66q-51 62 -51 143q0 239 272 337v-46q-175 -107 -175 -218q0 -64 41 -64q13 0 38 8.5t38 8.5q45 0 76.5 -33.5t31.5 -78.5z" />
<glyph unicode="&#x2019;" horiz-adv-x="682" d="M502 1255q0 -236 -274 -339v49q84 51 119 86q56 57 56 130q0 65 -39 65q-13 0 -38 -8.5t-38 -8.5q-46 0 -77 33t-31 79q0 56 42 90q38 31 96 31q82 0 134 -64q50 -60 50 -143z" />
<glyph unicode="&#x201a;" horiz-adv-x="682" d="M499 -11q0 -245 -316 -350v48q97 33 159 100q70 75 70 170q0 43 -23 43q-9 0 -42 -15t-49 -15q-115 0 -115 116q0 54 42 90t97 36q82 0 132 -73q45 -64 45 -150z" />
<glyph unicode="&#x201c;" horiz-adv-x="909" d="M868 1045q0 -54 -42.5 -90.5t-97.5 -36.5q-81 0 -134 65q-48 61 -48 144q0 122 78 212q72 84 194 121v-41q-84 -47 -121 -87q-54 -58 -54 -136q0 -60 35 -60q14 0 41 8.5t41 8.5q46 0 77 -31t31 -77zM363 1043q0 -53 -42 -88t-96 -35q-81 0 -135 66q-49 62 -49 145 q0 118 81 210q74 83 193 121v-43q-173 -90 -173 -216q0 -65 33 -65q13 0 39 7.5t39 7.5q46 0 78 -32t32 -78z" />
<glyph unicode="&#x201d;" horiz-adv-x="909" d="M868 1231q0 -120 -80 -210q-72 -82 -192 -121v44q173 92 173 216q0 66 -35 66q-14 0 -40 -8.5t-40 -8.5q-45 0 -75.5 32.5t-30.5 77.5q0 55 39 90.5t95 35.5q79 0 134 -69q52 -64 52 -145zM363 1233q0 -119 -78 -211q-74 -88 -192 -122v44q88 52 121 87q52 55 52 135 q0 60 -37 60q-14 0 -40 -8.5t-40 -8.5q-46 0 -77 31t-31 77q0 54 41.5 91t96.5 37q81 0 134 -67q50 -62 50 -145z" />
<glyph unicode="&#x201e;" horiz-adv-x="909" d="M868 -2q0 -120 -80 -210q-72 -82 -192 -121v44q173 92 173 216q0 67 -35 67q-14 0 -40 -9t-40 -9q-45 0 -75.5 32.5t-30.5 77.5q0 55 39.5 90.5t94.5 35.5q79 0 134 -69q52 -64 52 -145zM363 0q0 -119 -78 -211q-74 -88 -192 -122v44q87 49 121 86q52 56 52 136 q0 61 -37 61q-14 0 -40 -9t-40 -9q-46 0 -77 31t-31 77q0 54 41.5 91t96.5 37q81 0 134 -67q50 -62 50 -145z" />
<glyph unicode="&#x2020;" d="M904 918q0 -91 -84 -91q-38 0 -136 35t-150 35q0 -293 86 -379q-58 -121 -76 -408q-6 -96 -8 -415h-43q-3 322 -9 415q-17 264 -80 408q86 89 86 379q-55 0 -153.5 -35t-132.5 -35q-84 0 -84 91q0 88 84 88q40 0 137.5 -36t148.5 -36q0 69 -36.5 190t-36.5 164 q0 41 27.5 68.5t68.5 27.5q38 0 66 -29t28 -67q0 -39 -37 -159.5t-36 -194.5q54 0 151.5 36t134.5 36q84 0 84 -88z" />
<glyph unicode="&#x2021;" horiz-adv-x="1080" d="M933 -15q0 -97 -97 -97q-39 0 -106 27q-89 36 -106 40q-8 2 -65 6q4 -41 13 -84q3 -16 46 -114q30 -69 30 -119q0 -47 -30.5 -78.5t-77.5 -31.5q-46 0 -75 33.5t-29 80.5q0 52 36 152q39 109 44 161q-46 -2 -140.5 -37.5t-131.5 -35.5q-95 0 -95 93q0 43 29 70t72 27 q42 0 130 -34q93 -35 136 -38q-10 67 -29 100t-72 73q101 142 101 344q0 214 -101 328q83 58 101 179q-43 -4 -137 -39q-87 -32 -139 -32q-93 0 -93 93q0 39 26 64.5t65 25.5q44 0 110 -27q78 -32 108 -38q20 -2 60 -8q-4 49 -45 158q-39 103 -39 155q0 117 108 117 q101 0 101 -121q0 -46 -37 -144q-40 -106 -45 -165q18 2 67 8q21 3 104 38q64 27 108 27q95 0 95 -93q0 -92 -100 -92q-44 0 -106 27q-75 32 -101 37q-2 0 -67 9q10 -69 27 -102q20 -37 73 -77q-100 -146 -100 -341q0 -185 100 -331q-83 -65 -100 -179q43 7 143 45 q87 33 134 33q40 0 68.5 -26.5t28.5 -66.5z" />
<glyph unicode="&#x2022;" horiz-adv-x="717" d="M635 678q0 -118 -79.5 -197.5t-197.5 -79.5q-119 0 -197.5 79t-78.5 198t78.5 197.5t197.5 78.5t198 -78.5t79 -197.5z" />
<glyph unicode="&#x2026;" horiz-adv-x="2159" d="M1917 89q0 -50 -34 -84.5t-84 -34.5q-51 0 -83 34t-32 85q0 49 33 82.5t82 33.5t83.5 -33.5t34.5 -82.5zM1196 89q0 -51 -32.5 -85t-83.5 -34q-50 0 -83.5 34.5t-33.5 84.5q0 48 34.5 82t82.5 34q50 0 83 -33t33 -83zM475 89q0 -50 -32 -84.5t-82 -34.5t-84.5 34.5 t-34.5 84.5q0 49 35 82.5t84 33.5t81.5 -33.5t32.5 -82.5z" />
<glyph unicode="&#x202f;" horiz-adv-x="458" />
<glyph unicode="&#x2030;" horiz-adv-x="2062" d="M1991 449q0 -164 -84 -306q-98 -165 -251 -165q-114 0 -185 84q-67 79 -67 195q0 164 109 299q116 144 277 144q201 0 201 -251zM1339 449q0 -164 -84 -306q-98 -165 -251 -165q-114 0 -185 84q-68 79 -68 195q0 163 110 299q117 144 277 144q201 0 201 -251zM1220 1453 l-913 -1531h-117l818 1363q-121 -65 -246 -65q-53 0 -103 11q8 -43 8 -87q0 -154 -93 -304q-106 -171 -250 -171q-113 0 -185 88q-68 82 -68 197q0 166 113 303q119 144 282 144q41 0 132.5 -56t163.5 -56q103 0 201 49q66 33 175 115h82zM1924 453q0 165 -119 165 q-73 0 -146 -126q-87 -150 -87 -311q0 -125 99 -125q113 0 189 148q64 124 64 249zM596 1149q0 46 -26 108q-9 8 -88 58q-108 -23 -180 -177q-62 -132 -62 -257l-5 -11q0 -50 31.5 -84.5t81.5 -34.5v-4q104 0 182 154q66 131 66 248zM1272 453q0 165 -119 165 q-73 0 -146 -126q-87 -150 -87 -311q0 -125 99 -125q113 0 189 148q64 124 64 249z" />
<glyph unicode="&#x2039;" horiz-adv-x="516" d="M459 181l-41 -36q-167 167 -361 324q170 135 361 326l41 -37q-98 -151 -207 -289q128 -154 207 -288z" />
<glyph unicode="&#x203a;" horiz-adv-x="516" d="M459 469q-166 -134 -356 -324l-46 36q117 180 212 288q-67 79 -212 289l46 37q213 -209 356 -326z" />
<glyph unicode="&#x2044;" horiz-adv-x="342" d="M683 1384l-935 -1438h-89l935 1438h89z" />
<glyph unicode="&#x205f;" horiz-adv-x="573" />
<glyph unicode="&#x20ac;" d="M1023 242q-196 -272 -437 -272q-229 0 -372 187q-125 163 -149 406h-64v69h60q-2 54 1 108h-61v71h69q32 236 163 395q149 180 373 180q83 0 148 -26q97 -39 123 -45l1 -2q40 3 76 73h32l15 -468l-44 -11q-101 378 -344 378q-163 0 -261 -163q-76 -126 -97 -311h596v-71 h-602l-1 -49q0 -10 3.5 -29.5t3.5 -29.5h529v-69h-524q42 -481 381 -481q171 0 345 205z" />
<glyph unicode="&#x20b5;" d="M990 242q-181 -254 -396 -271v-118h-84v119q-237 23 -367 249q-109 190 -109 448q0 257 111 451q131 229 365 262v119h84v-115q87 -4 196 -52q32 -14 55 -19l2 -2q45 8 75 73h32l15 -468l-44 -11q-98 370 -331 378v-1203h17q170 0 343 205zM510 96v1180 q-143 -38 -221 -221q-68 -160 -68 -375q0 -199 56 -344q74 -192 233 -240z" />
<glyph unicode="&#x2122;" horiz-adv-x="2007" d="M1953 1315q-115 0 -115 -113v-522q0 -72 14 -86.5t88 -24.5v-41h-348v41q72 8 86.5 24t14.5 87v475l-316 -631h-22l-305 627l-4 -449q-1 -68 19 -96q23 -31 89 -37v-41h-268v41q67 7 89 40q17 25 17 93v510q-41 103 -141 103v41h248l315 -633l328 633h211v-41zM761 1176 h-41q-35 139 -137 139h-103v-635q0 -71 15 -86t88 -25v-41h-351v41q72 8 87.5 24t15.5 87v635h-101q-103 0 -139 -139h-41v180h707v-180z" />
<glyph unicode="&#x2126;" horiz-adv-x="1542" d="M1487 376l-48 -376h-555l20 289q311 162 311 506q0 207 -112 360q-123 169 -322 169q-200 0 -327 -170q-116 -155 -116 -362q0 -178 78 -299q74 -113 235 -204l15 -289h-555l-56 371h56q39 -102 59 -133q46 -72 116 -72h268v93q-204 45 -327 177q-131 140 -131 343 q0 280 202 465q196 179 478 179q286 0 477 -175q197 -181 197 -464q0 -406 -454 -525v-93h279q62 0 112 76q41 63 52 134h48z" />
<glyph unicode="&#x2202;" horiz-adv-x="963" d="M903 778q0 -282 -104 -505q-133 -285 -382 -285q-154 0 -247 114q-87 105 -87 263q0 171 104 309q113 150 278 150q191 0 270 -213q28 169 28 286q0 167 -14 241q-31 165 -131 165q-44 0 -114 -77t-111 -77q-85 0 -85 81q0 75 80 114q62 30 147 30q200 0 296 -210 q72 -157 72 -386zM699 493q0 260 -197 260q-138 0 -204 -175q-47 -125 -47 -293q0 -102 40 -171q48 -84 143 -84q132 0 207 174q58 135 58 289z" />
<glyph unicode="&#x2206;" horiz-adv-x="1660" d="M1598 56l-4 -56h-1531v52q80 4 120 43q28 27 65 110l536 1201h62l547 -1160q36 -77 47 -95q42 -70 74 -80q6 -2 84 -15zM1188 99l-441 974l-427 -974h868z" />
<glyph unicode="&#x220f;" horiz-adv-x="1686" d="M1656 -452h-647v69q143 6 179 81q25 51 25 241l2 1294h-742v-1347q0 -157 28 -200q38 -58 181 -63v-75h-652v75q146 8 186 94q23 50 23 213v1071q0 155 -29 206q-41 73 -180 81v68h1626v-68q-144 -13 -182 -90q-22 -45 -22 -205v-1115q0 -145 31 -191q39 -58 173 -64v-75 z" />
<glyph unicode="&#x2211;" horiz-adv-x="1460" d="M1428 52l-109 -502h-1287l603 853l-598 950h1241l36 -434l-69 6q-31 184 -73 239q-57 75 -210 75h-550l448 -722l-501 -707h785q100 0 147 70q25 37 66 172h71z" />
<glyph unicode="&#x2219;" horiz-adv-x="512" d="M370 680q0 -47 -33.5 -81.5t-80.5 -34.5q-49 0 -81.5 34.5t-32.5 83.5t32.5 83t81.5 34t81.5 -35t32.5 -84z" />
<glyph unicode="&#x221a;" horiz-adv-x="1124" d="M1327 1905l-735 -1943h-43l-348 827l-194 -119l-29 60l344 206l284 -707l643 1676h78z" />
<glyph unicode="&#x221e;" horiz-adv-x="1371" d="M1322 650q0 -132 -82 -244q-89 -121 -217 -121q-207 0 -303 273q-129 -273 -332 -273q-140 0 -232 112q-86 105 -86 247q0 153 74 258q84 119 230 119q115 0 192 -85q44 -49 114 -186q64 127 123 186q85 85 200 85q152 0 239 -113q80 -102 80 -258zM1282 659 q0 103 -65 184q-70 87 -170 87q-86 0 -157 -76q-44 -47 -100 -151q-51 -95 -51 -105t33 -59q89 -134 239 -134q110 0 190.5 72.5t80.5 181.5zM656 707q0 33 -81 115q-50 51 -90 66.5t-113 15.5q-117 0 -188 -69t-71 -185q0 -103 60 -181q65 -84 165 -84t167 70 q37 39 105 157q46 80 46 95z" />
<glyph unicode="&#x222b;" horiz-adv-x="682" d="M712 1267q0 -82 -82 -82q-47 0 -105 74.5t-98 74.5q-118 0 -118 -226q0 -30 3 -90t3 -90v-902q0 -469 -362 -469q-69 0 -122 24q-68 31 -68 93q0 80 82 80q37 0 99 -60.5t95 -60.5q95 0 95 173v1122q0 206 75 328q92 150 285 150q79 0 141 -30q77 -37 77 -109z" />
<glyph unicode="&#x2248;" horiz-adv-x="1108" d="M1027 751q-62 -88 -106 -123q-66 -53 -150 -53q-74 0 -220 69.5t-224 69.5q-106 0 -172 -147l-74 102q90 176 256 176q75 0 232 -69.5t204 -69.5q86 0 180 147zM1027 358q-63 -88 -106 -123q-67 -54 -150 -54q-74 0 -220 70t-224 70q-106 0 -172 -148l-74 103 q90 176 256 176q75 0 232 -69.5t204 -69.5q86 0 180 147z" />
<glyph unicode="&#x2260;" horiz-adv-x="1155" d="M1094 246h-558l-39 -117h-102l39 117h-373v135h418l90 274h-508v136h553l38 114h108l-39 -114h373v-136h-419l-93 -274h512v-135z" />
<glyph unicode="&#x2264;" horiz-adv-x="1124" d="M1082 242l-1040 471v127l1040 471v-140l-870 -395l870 -395v-139zM1074 0h-1032v135h1032v-135z" />
<glyph unicode="&#x2265;" horiz-adv-x="1124" d="M1082 713l-1040 -471v139l870 395l-870 395v140l1040 -471v-127zM1074 0h-1032v135h1032v-135z" />
<glyph unicode="&#x25ca;" horiz-adv-x="1012" d="M900 676l-393 -771l-394 771l394 772zM798 676l-291 604l-292 -604l292 -602z" />
<glyph unicode="&#x25cc;" horiz-adv-x="973" d="M831 772q0 -45 -45 -45q-47 0 -47 45t47 45q45 0 45 -45zM694 862q0 -45 -45 -45q-47 0 -47 45q0 47 47 47q45 0 45 -47zM924 634q0 -47 -48 -47q-45 0 -45 47q0 45 48 45q45 0 45 -45zM532 896q0 -48 -45 -48t-45 48q0 45 45 45t45 -45zM955 472q0 -45 -45 -45 q-47 0 -47 45t47 45q45 0 45 -45zM372 862q0 -45 -48 -45q-45 0 -45 45q0 47 45 47q48 0 48 -47zM924 310q0 -45 -48 -45q-45 0 -45 45q0 47 45 47q48 0 48 -47zM234 772q0 -45 -47 -45q-45 0 -45 42q0 48 45 48q47 0 47 -45zM831 172q0 -45 -45 -45t-45 45q0 48 45 48 t45 -48zM694 82q0 -45 -45 -45t-45 45q0 48 45 48t45 -48zM142 634q0 -47 -43 -47q-47 0 -47 47q0 45 45 45t45 -45zM532 51q0 -48 -45 -48t-45 48q0 45 45 45t45 -45zM110 472q0 -45 -45 -45q-47 0 -47 45t47 45q45 0 45 -45zM372 85q0 -48 -48 -48q-45 0 -45 45 q0 48 45 48q48 0 48 -45zM142 310q0 -45 -45 -45t-45 45q0 47 45 47t45 -47zM234 172q0 -45 -45 -45q-47 0 -47 45q0 48 45 48q47 0 47 -48z" />
<glyph unicode="&#x25fc;" horiz-adv-x="930" d="M0 930h930v-930h-930v930z" />
<glyph unicode="&#x2e1c;" horiz-adv-x="452" d="M506 -591l-560 748v162l560 -746v-164z" />
<glyph unicode="&#x2e1d;" horiz-adv-x="452" d="M506 162l-560 -746v162l560 746v-162z" />
<glyph unicode="&#xfb01;" horiz-adv-x="1139" d="M1113 0h-488v41q104 0 136 48q24 36 24 139v500q0 123 -56 123h-358v-603q0 -130 27 -165q33 -42 159 -46v-37h-531v37q104 -1 138 49q26 39 26 149v616h-164v77h164q-1 17 -1 34q0 193 131 319t324 126q100 0 187 -26q126 -38 126 -114q0 -82 -82 -82q-39 0 -145 79 t-153 79q-96 0 -161 -103q-57 -91 -57 -192q0 -59 12 -120h593v-686q0 -111 19 -146q30 -55 130 -55v-41z" />
<glyph unicode="&#xfb02;" horiz-adv-x="1139" d="M1070 0h-440v31q77 7 107 36t30 105v684h-385v-694q0 -77 36 -103q27 -20 109 -28v-31h-458v31q95 0 122 46q19 32 19 138v641h-141v66h145q0 201 70 323q88 154 274 154q41 0 118 -25.5t105 -25.5q24 0 74.5 25t73.5 26l10 -4v-1229q0 -78 26.5 -106.5t104.5 -28.5v-31z M767 922v288q-14 -14 -31 -14q-45 0 -112.5 73.5t-106.5 73.5q-91 0 -120 -132q-15 -68 -15 -206v-83h385z" />
<glyph unicode="&#xfd3e;" horiz-adv-x="1623" d="M1413 -773q0 -18 -29 -18q-86 0 -270 178q-228 221 -371 589q-246 0 -246 67q162 165 162 262q-65 0 -137 -69q-99 -95 -117 -106q-37 0 -65 194q-130 62 -130 111q0 52 123 129q0 180 58 184q179 -170 268 -170q0 74 -78 153q-92 93 -98 110q2 27 114 51q84 18 140 21 q157 464 470 714q102 81 146 81q23 0 23 -25q-16 -31 -86 -114l-98 -116q-135 -160 -216 -553q118 -19 118 -52q-167 -172 -167 -262q84 0 254 174q36 -1 72 -193q123 -65 123 -119q0 -43 -119 -115q0 -188 -63 -187q-157 152 -260 167q0 -74 86 -171l85 -98q0 -23 -129 -52 q42 -201 151.5 -393.5t261.5 -330.5q24 -22 24 -41zM1272 1623q-321 -217 -504 -766q-29 -1 -105 -4.5t-91 -25.5q64 -55 138 -170q49 97 85 97q18 0 80 -97q23 64 133 176q-34 27 -90 31q61 271 121 406q75 169 233 353zM1311 454q0 22 -108 70q1 21 1 40q0 97 -31 108 q-37 -33 -89 -78.5t-98 -64.5q114 -51 114 -86q0 -30 -111 -79q75 -20 192 -134q22 0 22 138q108 58 108 86zM948 443q0 61 -46.5 106.5t-107.5 45.5q-65 0 -108 -43.5t-43 -108.5q0 -63 43.5 -105.5t107.5 -42.5q60 0 107 44t47 104zM600 360q-109 51 -109 88q0 31 108 79 q-67 44 -194 133q-21 0 -21 -136q-108 -62 -108 -89t108 -67q1 -51 4 -78q8 -71 26 -71l88 79q52 47 98 62zM1326 -726q-85 71 -183 216q-165 244 -216 540q79 -1 94 26l-81 82q-45 50 -65 95q-43 -96 -81 -96q-40 0 -80 96q-29 -73 -130 -181q153 -24 191 -19 q157 -504 551 -759z" />
<glyph unicode="&#xfd3f;" horiz-adv-x="1684" d="M1444 484q0 -52 -124 -128q-3 -183 -57 -183q-182 168 -268 168q0 -69 88 -166l88 -97q0 -31 -118 -53q-86 -16 -136 -17q-177 -489 -470 -716q-107 -83 -146 -83q-26 0 -24 24q27 42 91 116t90 113q98 148 144.5 265.5t74.5 291.5q-117 22 -117 56q166 165 166 258 q-81 0 -255 -173q-26 1 -49 82q-19 67 -20 110q-125 69 -125 120q0 44 118 114q5 90 8 107q14 80 57 80q93 -87 117 -104q66 -47 143 -61q0 74 -67 146q-95 102 -106 122q1 20 129 53q-77 417 -410 722q-25 23 -25 40t28 17q92 0 272 -176q230 -225 368 -589q248 0 248 -65 q-162 -171 -162 -264q65 0 136 69q97 94 116 104q38 0 67 -192q130 -65 130 -111zM1071 868q-86 23 -156 23l-36 -7q-162 504 -551 759q311 -285 398 -752q-83 0 -93 -27q60 -58 81 -82q41 -47 66 -95q43 97 78 97q43 0 81 -97q22 64 132 181zM1379 484q0 29 -108 67 q0 143 -29 151q-56 -54 -190 -143q113 -48 113 -87q0 -29 -110 -80q28 -8 93 -74q58 -59 99 -59q24 0 24 138q108 63 108 87zM1011 476q0 62 -45.5 105t-107.5 43q-61 0 -106.5 -43.5t-45.5 -104.5t45.5 -106.5t106.5 -45.5q62 0 107.5 45t45.5 107zM668 389 q-113 51 -113 87q0 37 108 81q-73 20 -192 132q-19 0 -19 -138q-110 -57 -110 -86q0 -25 110 -68q0 -150 28 -149q4 2 89 76q52 45 99 65zM1080 92q-58 60 -75 80q-39 46 -63 88q-49 -96 -85 -96q-18 0 -77 96q-27 -62 -133 -174q11 -23 90 -30q-49 -244 -123 -405 q-81 -176 -234 -353q329 223 505 766q194 0 195 28z" />
<glyph horiz-adv-x="0" />
<glyph horiz-adv-x="1146" d="M1100 262q0 -140 -196 -218q-151 -60 -327 -60q-201 0 -353 91q-178 107 -178 291q0 211 302 321q-262 142 -262 322q0 161 171 252q141 75 323 75q437 0 437 -229q0 -42 -32 -73t-75 -33q-25 7 -74 28q-38 22 -81 82q-50 69 -74 89q-48 41 -121 41q-106 0 -175 -91 q-63 -84 -63 -193q0 -167 165 -244q166 35 232 35q90 0 90 -62q0 -71 -99 -71q-84 0 -229 27q-193 -71 -193 -290q0 -121 94 -201q90 -77 213 -77q100 0 158 54q40 37 71 116q18 46 54 111q38 47 106 47q116 0 116 -140zM910 1667q-61 -203 -211 -203q-50 0 -154 41t-144 41 q-62 0 -104 -82h-60q73 203 222 203q52 0 146 -39.5t135 -40.5q5 -4 11 -4q55 0 110 84h49z" />
<glyph horiz-adv-x="909" d="M837 179q0 -104 -144 -161q-111 -44 -235 -44q-145 0 -256 67q-130 78 -130 213q0 155 205 230q-177 95 -177 228q0 119 126 186q102 54 234 54q318 0 318 -170q0 -33 -25.5 -57.5t-58.5 -24.5q-19 5 -55 20q-20 11 -83 92q-45 58 -111 58q-71 0 -118 -64 q-44 -58 -44 -131q0 -115 111 -166q116 24 165 24q71 0 71 -51q0 -58 -78 -58q-61 0 -163 19q-131 -48 -131 -200q0 -83 65 -138q62 -52 147 -52q87 0 129 60q22 51 52 112.5t96 61.5q90 0 90 -108zM792 1326q-61 -203 -212 -203q-50 0 -151.5 41t-146.5 41q-62 0 -103 -82 h-61q73 203 223 203q30 0 147 -35q110 -33 144 -49q56 0 110 84h50z" />
<glyph horiz-adv-x="1366" d="M1302 687q0 -312 -195 -513q-196 -204 -507 -204q-123 0 -277 52q-41 14 -71 19l-2 2q-59 -8 -97 -73h-41l-20 468l57 11q129 -378 442 -378q231 0 359 194q110 167 110 411q0 260 -120 419q-133 179 -385 179q-220 0 -443 -205l-48 45q252 272 562 272q304 0 492 -199 q184 -194 184 -500zM1020 1667q-61 -203 -211 -203q-50 0 -154 41t-144 41q-62 0 -104 -82h-60q73 203 222 203q52 0 146 -39.5t135 -40.5q5 -4 11 -4q55 0 110 84h49z" />
<glyph horiz-adv-x="909" d="M862 473q0 -206 -130 -349q-135 -146 -339 -146q-115 0 -210 55q-114 66 -114 172q0 93 89 93q77 0 98 -67q10 -34 37 -123q33 -67 130 -67q129 0 205 119q65 102 65 239q0 156 -80 268q-90 125 -239 125q-96 0 -169 -57q-55 -43 -116 -139l-42 26q137 326 415 326 q180 0 295 -151q105 -138 105 -324zM792 1326q-61 -203 -212 -203q-50 0 -151.5 41t-146.5 41q-62 0 -103 -82h-61q73 203 223 203q30 0 147 -35q110 -33 144 -49q56 0 110 84h50z" />
<glyph horiz-adv-x="608" d="M678 -3h-154q-108 0 -163 63q-53 -65 -161 -63v1222q0 99 55 155.5t153 54.5v-1224h270v-208z" />
<glyph horiz-adv-x="608" d="M678 -3h-154q-108 0 -163 63q-51 -63 -161 -63h-270v208h270v1014q0 99 55 155.5t153 54.5v-1224h270v-208z" />
<glyph horiz-adv-x="608" d="M408 206q0 -98 -55 -153.5t-153 -55.5h-270v208h270v1014q0 98 55 154.5t153 55.5v-1223z" />
<glyph horiz-adv-x="1435" d="M1505 -3h-376q-106 0 -163 62q-115 -62 -248 -62q-220 0 -369 150t-149 370q0 215 151.5 368t365.5 153t366 -154t152 -368q0 -173 -102 -311h372v-208zM1030 525q0 123 -98 199q-90 71 -216 71q-124 0 -214 -72q-98 -77 -98 -198q0 -117 100 -192q91 -68 212 -68 q122 0 213 68q101 74 101 192z" />
<glyph horiz-adv-x="1435" d="M1505 -3h-376q-107 0 -163 62q-115 -62 -248 -62q-135 0 -249 62q-57 -62 -163 -62h-376v208h371q-101 138 -101 312q0 215 151.5 368t365.5 153t366 -154t152 -368q0 -173 -102 -311h372v-208zM1030 525q0 123 -98 199q-90 71 -216 71q-124 0 -214 -72q-98 -77 -98 -198 q0 -117 100 -192q91 -68 212 -68q122 0 213 68q101 74 101 192z" />
<glyph horiz-adv-x="1435" d="M1235 516q0 -218 -149.5 -368.5t-367.5 -150.5q-135 0 -249 62q-57 -62 -163 -62h-376v208h371q-101 138 -101 312q0 215 151.5 368t365.5 153t366 -154t152 -368zM1030 525q0 123 -98 199q-90 71 -216 71q-124 0 -214 -72q-98 -77 -98 -198q0 -117 100 -192 q91 -68 212 -68q122 0 213 68q101 74 101 192z" />
<glyph horiz-adv-x="1113" d="M1183 -3h-407q-108 0 -163 63q-53 -65 -161 -63v709l-221 474q-31 66 -31 128q0 91 84 128l273 -585l272 585q84 -37 84 -128q0 -62 -31 -128l-222 -475v-500h523v-208z" />
<glyph horiz-adv-x="1113" d="M1183 -3h-407q-108 0 -163 63q-51 -63 -157 -63h-526v208h522v501l-221 474q-31 66 -31 128q0 91 84 128l273 -585l272 585q84 -37 84 -128q0 -62 -31 -128l-222 -475v-500h523v-208z" />
<glyph horiz-adv-x="1113" d="M913 1308q0 -62 -31 -128l-222 -475v-499q0 -98 -55 -153.5t-153 -55.5h-522v208h522v501l-221 474q-31 66 -31 128q0 91 84 128l273 -585l272 585q84 -37 84 -128z" />
<glyph horiz-adv-x="1450" d="M1520 -3l-371 -1l-424 652l-423 -652q-102 64 -102 159q0 67 41 130l484 745l484 -745q23 -36 35 -80h276v-208z" />
<glyph horiz-adv-x="1450" d="M1520 -3l-371 -1l-424 652l-423 -652l-372 1v208h277q11 44 34 80l484 745l484 -745q23 -36 35 -80h276v-208z" />
<glyph horiz-adv-x="1450" d="M1250 155q0 -95 -101 -159l-424 652l-423 -652l-372 1v208h277q11 44 34 80l484 745l484 -745q41 -63 41 -130z" />
<glyph horiz-adv-x="1243" d="M1313 -3h-154q-108 0 -164 63q-50 -63 -160 -63h-347q-113 0 -166 66q-39 -68 -122 -66v821q0 86 34 143q41 69 122 67v-823h479v613q0 99 55 155.5t153 54.5v-823h270v-208z" />
<glyph horiz-adv-x="1243" d="M1313 -3h-154q-108 0 -164 63q-50 -63 -160 -63h-347q-113 0 -166 66q-38 -66 -122 -66h-270v208h270v613q0 86 34 143q41 69 122 67v-823h479v613q0 99 55 155.5t153 54.5v-823h270v-208z" />
<glyph horiz-adv-x="1243" d="M1043 206q0 -98 -55 -153.5t-153 -55.5h-347q-113 0 -166 66q-38 -66 -122 -66h-270v208h270v613q0 86 34 143q41 69 122 67v-823h479v613q0 99 55 155.5t153 54.5v-822z" />
<glyph horiz-adv-x="1208" d="M1278 -3h-154q-108 0 -163 63q-51 -63 -161 -63h-600q-2 98 54.5 153t155.5 55h390v615h-600q-2 98 54.5 153t155.5 55h598v-823h270v-208z" />
<glyph horiz-adv-x="1208" d="M1278 -3h-154q-108 0 -163 63q-51 -63 -161 -63h-870v208h870v615h-600q-2 98 54.5 153t155.5 55h598v-823h270v-208z" />
<glyph horiz-adv-x="1208" d="M1008 206q0 -98 -55 -153.5t-153 -55.5h-870v208h870v615h-600q-2 98 54.5 153t155.5 55h598v-822z" />
<glyph horiz-adv-x="1433" d="M1503 -3h-565q-107 0 -164 63q-56 -63 -161 -63v619q-174 25 -285 118q-128 106 -128 271q0 184 173 302q153 104 346 104q192 0 344 -105q170 -117 170 -301q0 -165 -128 -272q-112 -94 -285 -117v-411h683v-208zM1029 1016q0 108 -109 164q-86 44 -205 44 q-117 0 -203 -45q-108 -56 -108 -163q0 -105 109 -158q86 -42 202 -42q119 0 204 41q110 53 110 159z" />
<glyph horiz-adv-x="1433" d="M1503 -3h-565q-107 0 -164 63q-57 -63 -161 -63h-683v208h683v411q-174 25 -285 118q-128 106 -128 271q0 184 173 302q153 104 346 104q192 0 344 -105q170 -117 170 -301q0 -165 -128 -272q-112 -94 -285 -117v-411h683v-208zM1029 1016q0 108 -109 164q-86 44 -205 44 q-117 0 -203 -45q-108 -56 -108 -163q0 -105 109 -158q86 -42 202 -42q119 0 204 41q110 53 110 159z" />
<glyph horiz-adv-x="1433" d="M1233 1005q0 -165 -128 -272q-112 -94 -285 -117v-411q0 -208 -210 -208h-680v208h683v411q-174 25 -285 118q-128 106 -128 271q0 184 173 302q153 104 346 104q192 0 344 -105q170 -117 170 -301zM1029 1016q0 108 -109 164q-86 44 -205 44q-117 0 -203 -45 q-108 -56 -108 -163q0 -105 109 -158q86 -42 202 -42q119 0 204 41q110 53 110 159z" />
<glyph horiz-adv-x="1015" d="M668 842q0 -56 -40.5 -89.5t-97.5 -33.5q-80 0 -134 66q-49 62 -49 144q0 238 272 336v-45q-175 -107 -175 -218q0 -65 41 -65q13 0 37.5 9t37.5 9q46 0 77 -33.5t31 -79.5zM1085 -3h-1015q-2 98 54.5 153t155.5 55h805v-208z" />
<glyph horiz-adv-x="1015" d="M668 842q0 -56 -40.5 -89.5t-97.5 -33.5q-80 0 -134 66q-49 62 -49 144q0 238 272 336v-45q-175 -107 -175 -218q0 -65 41 -65q13 0 37.5 9t37.5 9q46 0 77 -33.5t31 -79.5zM1085 -3h-1155v208h1155v-208z" />
<glyph horiz-adv-x="1015" d="M668 842q0 -56 -40.5 -89.5t-97.5 -33.5q-80 0 -134 66q-49 62 -49 144q0 238 272 336v-45q-175 -107 -175 -218q0 -65 41 -65q13 0 37.5 9t37.5 9q46 0 77 -33.5t31 -79.5zM945 205q1 -97 -56 -152.5t-154 -55.5h-805v208h1015z" />
<glyph horiz-adv-x="1473" d="M1543 -3h-154q-107 0 -163 63q-53 -65 -161 -63v797h-304q0 -233 -104 -230v230h-119q-139 0 -237 93q-101 94 -101 232q0 140 71 229q76 97 213 97q196 0 250 -179q24 -80 24 -339h515v-722h270v-208zM657 927v202q0 209 -159 209q-177 0 -177 -209q0 -88 73 -147 q68 -55 158 -55h105z" />
<glyph horiz-adv-x="1473" d="M1543 -3h-154q-107 0 -163 63q-51 -63 -161 -63h-1135v208h1135v589h-304q0 -233 -104 -230v230h-119q-139 0 -237 93q-101 94 -101 232q0 140 71 229q76 97 213 97q196 0 250 -179q24 -80 24 -339h515v-722h270v-208zM657 927v202q0 209 -159 209q-177 0 -177 -209 q0 -88 73 -147q68 -55 158 -55h105z" />
<glyph horiz-adv-x="1473" d="M1273 206q0 -98 -55 -153.5t-153 -55.5h-1135v208h1135v589h-304q0 -233 -104 -230v230h-119q-139 0 -237 93q-101 94 -101 232q0 140 71 229q76 97 213 97q196 0 250 -179q24 -80 24 -339h515v-721zM657 927v202q0 209 -159 209q-177 0 -177 -209q0 -88 73 -147 q68 -55 158 -55h105z" />
<glyph horiz-adv-x="933" d="M1003 -3h-479q-108 0 -163 63q-53 -65 -161 -63v1212q0 210 208 210h325q2 -141 -102 -184q-58 -24 -223 -24v-369h325q3 -112 -119 -143q-51 -13 -206 -13v-481h595v-208z" />
<glyph horiz-adv-x="933" d="M1003 -3h-479q-108 0 -163 63q-51 -63 -161 -63h-270v208h270v1004q0 210 208 210h325q2 -141 -102 -184q-58 -24 -223 -24v-369h325q3 -112 -119 -143q-51 -13 -206 -13v-481h595v-208z" />
<glyph horiz-adv-x="933" d="M733 842q3 -112 -119 -143q-51 -13 -206 -13v-480q0 -98 -55 -153.5t-153 -55.5h-270v208h270v1004q0 210 208 210h325q2 -141 -102 -184q-58 -24 -223 -24v-369h325z" />
<glyph horiz-adv-x="933" d="M1003 -3h-154q-108 0 -164 63q-52 -65 -160 -63v689h-325q-3 112 119 143q51 13 206 13v369h-325q-2 98 54.5 153t155.5 55h323v-1214h270v-208z" />
<glyph horiz-adv-x="933" d="M1003 -3h-154q-108 0 -164 63q-50 -63 -160 -63h-595v208h595v481h-325q-3 112 119 143q51 13 206 13v369h-325q-2 98 54.5 153t155.5 55h323v-1214h270v-208z" />
<glyph horiz-adv-x="933" d="M733 206q0 -98 -55 -153.5t-153 -55.5h-595v208h595v481h-325q-2 112 119 143q51 13 206 13v369h-325q-2 98 54.5 153t155.5 55h323v-1213z" />
<glyph horiz-adv-x="1196" d="M1266 -3h-287q-115 0 -164 64q-90 -64 -198 -64h-417v1222q0 98 55 154.5t153 55.5v-537h259q156 0 250 -151q80 -129 80 -296q0 -128 -60 -240h329v-208zM870 501q0 105 -53 187q-61 94 -161 94h-248v-577h219q90 0 141 45q40 36 79 130q23 56 23 121z" />
<glyph horiz-adv-x="1196" d="M1266 -3h-287q-115 0 -164 64q-90 -64 -198 -64h-687v208h270v1014q0 98 55 154.5t153 55.5v-537h259q156 0 250 -151q80 -129 80 -296q0 -128 -60 -240h329v-208zM870 501q0 105 -53 187q-61 94 -161 94h-248v-577h219q90 0 141 45q40 36 79 130q23 56 23 121z" />
<glyph horiz-adv-x="1197" d="M997 445q0 -173 -102 -305q-110 -143 -278 -143h-687v208h270v1014q0 98 55 154.5t153 55.5v-537h259q156 0 250 -151q80 -129 80 -296zM870 501q0 105 -53 187q-61 94 -161 94h-248v-577h219q90 0 141 45q40 36 79 130q23 56 23 121z" />
<glyph horiz-adv-x="1191" d="M1261 -3h-248q-107 0 -164 63q-56 -65 -160 -63l1 168q4 685 -490 1046v14q0 90 61 143q58 51 149 51h581q2 -97 -55 -152.5t-155 -55.5h-394q191 -181 291 -330q114 -170 184 -400q35 -115 35 -162v-114h364v-208z" />
<glyph horiz-adv-x="1191" d="M1261 -3h-248q-106 0 -164 63q-55 -63 -160 -63h-759v208h759q-12 658 -489 1006v14q0 90 61 143q58 51 149 51h581q2 -97 -55 -152.5t-155 -55.5h-394q190 -180 291 -330q114 -169 184 -400q35 -115 35 -162v-114h364v-208z" />
<glyph horiz-adv-x="1191" d="M991 1419q2 -97 -55 -152.5t-155 -55.5h-394q192 -182 291 -330q113 -169 184 -400q35 -114 35 -162v-113q0 -97 -55.5 -153t-152.5 -56h-759v208h759q-12 658 -489 1006v14q0 90 61 143q58 51 149 51h581z" />
<glyph horiz-adv-x="956" d="M1026 -3h-154q-108 0 -164 63q-52 -65 -160 -63v1195q-40 -71 -273 -492q-75 39 -75 120q0 68 40 139l223 396q36 64 158 64h135v-1214h270v-208z" />
<glyph horiz-adv-x="956" d="M1026 -3h-154q-108 0 -164 63q-50 -63 -160 -63h-618v208h618v987q-40 -71 -273 -492q-75 39 -75 120q0 68 40 139l223 396q36 64 158 64h135v-1214h270v-208z" />
<glyph horiz-adv-x="956" d="M756 206q0 -98 -55 -153.5t-153 -55.5h-618v208h618v987q-40 -71 -273 -492q-75 39 -75 120q0 68 40 139l223 396q36 64 158 64h135v-1213z" />
<glyph horiz-adv-x="1570" d="M1640 -3h-154q-107 0 -163 63q-51 -63 -161 -63h-962v462q0 182 68 314q86 166 251 166q77 0 119 -47q37 -53 74 -105q109 244 321 244q150 0 247 -118q90 -110 90 -264v-444h270v-208zM1161 205v315q0 385 -197 385q-115 0 -169 -144q-38 -102 -38 -241v-315h404z M649 205v315q0 101 -26 189q-38 128 -112 128q-77 0 -121 -97q-35 -77 -35 -164l1 -371h293z" />
<glyph horiz-adv-x="1570" d="M1640 -3h-154q-107 0 -163 63q-51 -63 -161 -63h-1232v208h270v254q0 182 68 314q86 166 251 166q77 0 119 -47q37 -53 74 -105q109 244 321 244q150 0 247 -118q90 -110 90 -264v-444h270v-208zM1161 205v315q0 385 -197 385q-115 0 -169 -144q-38 -102 -38 -241v-315 h404zM649 205v315q0 101 -26 189q-38 128 -112 128q-77 0 -121 -97q-35 -77 -35 -164l1 -371h293z" />
<glyph horiz-adv-x="1570" d="M1370 206q0 -98 -55 -153.5t-153 -55.5h-1232v208h270v254q0 182 68 314q86 166 251 166q77 0 119 -47q37 -53 74 -105q109 244 321 244q150 0 247 -118q90 -110 90 -264v-443zM1161 205v315q0 385 -197 385q-115 0 -169 -144q-38 -102 -38 -241v-315h404zM649 205v315 q0 101 -26 189q-38 128 -112 128q-77 0 -121 -97q-35 -77 -35 -164l1 -371h293z" />
<glyph horiz-adv-x="1097" d="M1167 -3h-399q-107 0 -163 63q-52 -65 -161 -63v808h-244q-4 155 244 155v259q0 99 55 155.5t153 54.5v-469h245q3 -155 -245 -155v-600h515v-208z" />
<glyph horiz-adv-x="1097" d="M1167 -3h-399q-107 0 -163 63q-51 -63 -161 -63h-514v208h514v600h-244q-4 155 244 155v259q0 99 55 155.5t153 54.5v-469h245q3 -155 -245 -155v-600h515v-208z" />
<glyph horiz-adv-x="1097" d="M897 960q3 -155 -245 -155v-599q0 -98 -55 -153.5t-153 -55.5h-514v208h514v600h-244q-4 155 244 155v259q0 98 55 154.5t153 55.5v-469h245z" />
<glyph horiz-adv-x="1590" d="M1660 -3h-407q-108 0 -164 63q-51 -63 -161 -63h-186q-112 0 -165 66q-39 -68 -122 -66v808h-255q-4 155 255 155v259q0 86 34 143q41 69 122 67v-469h317v259q0 99 55 155.5t153 54.5v-469h254q4 -155 -254 -155v-600h524v-208zM928 205v600h-317v-600h317z" />
<glyph horiz-adv-x="1590" d="M1660 -3h-407q-108 0 -164 63q-51 -63 -161 -63h-186q-112 0 -165 66q-38 -66 -122 -66h-525v208h525v600h-255q-4 155 255 155v259q0 86 34 143q41 69 122 67v-469h317v259q0 99 55 155.5t153 54.5v-469h254q4 -155 -254 -155v-600h524v-208zM928 205v600h-317v-600h317 z" />
<glyph horiz-adv-x="1590" d="M1390 960q4 -155 -254 -155v-600q0 -208 -208 -208h-186q-112 0 -165 66q-38 -66 -122 -66h-525v208h525v600h-255q-4 155 255 155v259q0 214 156 210v-469h317v259q0 99 55 155.5t153 54.5v-469h254zM928 205v600h-317v-600h317z" />
<glyph horiz-adv-x="1529" d="M1599 -3h-154q-108 0 -163 63q-51 -63 -161 -63h-921v840q0 191 156 191h973v-823h270v-208zM1121 205v582h-609q-156 0 -156 -210v-372h765z" />
<glyph horiz-adv-x="1529" d="M1599 -3h-154q-108 0 -163 63q-51 -63 -161 -63h-1191v208h270v614q0 209 156 209h973v-823h270v-208zM1121 205v582h-609q-156 0 -156 -210v-372h765z" />
<glyph horiz-adv-x="1529" d="M1329 206q0 -98 -55 -153.5t-153 -55.5h-1191v208h270v614q0 209 156 209h973v-822zM1121 205v582h-609q-156 0 -156 -210v-372h765z" />
<glyph horiz-adv-x="1366" d="M1436 -3h-568q-106 0 -162 62l-26 -63l-465 1157q-15 37 -15 85q0 66 38 120q42 61 105 61h679q63 0 105 -61q39 -55 39 -120q0 -48 -15 -85l-386 -948h671v-208zM950 1211h-535l268 -779z" />
<glyph horiz-adv-x="1366" d="M1436 -3h-568q-106 0 -162 62l-26 -63h-750v209h666l-381 948q-15 37 -15 85q0 66 38 120q42 61 105 61h679q63 0 105 -61q39 -55 39 -120q0 -48 -15 -85l-386 -948h671v-208zM950 1211h-535l268 -779z" />
<glyph horiz-adv-x="1366" d="M1166 1238q0 -48 -15 -85l-471 -1157h-750v209h666l-381 948q-15 37 -15 85q0 66 38 120q42 61 105 61h679q63 0 105 -61q39 -55 39 -120zM950 1211h-535l268 -779z" />
<glyph horiz-adv-x="1560" d="M1630 -3h-636q-107 0 -163 63q-51 -63 -161 -63h-470v696q0 199 156 199h314v327q0 108 64 164q53 46 135 46h145q145 0 245.5 -100.5t100.5 -245.5t-100 -244t-246 -101l-136 -2v-531h752v-208zM1205 1083q0 81 -55 136t-136 55q-41 0 -86 -28q-50 -32 -50 -70v-283h136 q80 0 135.5 55t55.5 135zM670 205v531h-158q-156 0 -156 -210v-321h314z" />
<glyph horiz-adv-x="1560" d="M1630 -3h-636q-107 0 -163 63q-51 -63 -161 -63h-740v208h270v478q0 209 156 209h314v327q0 108 64 164q53 46 135 46h145q145 0 245.5 -100.5t100.5 -245.5t-100 -244t-246 -101l-136 -2v-531h752v-208zM1205 1083q0 81 -55 136t-136 55q-41 0 -86 -28q-50 -32 -50 -70 v-283h136q80 0 135.5 55t55.5 135zM670 205v531h-158q-156 0 -156 -210v-321h314z" />
<glyph horiz-adv-x="1560" d="M1360 1083q0 -145 -100 -244t-246 -101l-136 -2v-530q0 -98 -55 -153.5t-153 -55.5h-740v208h270v478q0 209 156 209h314v327q0 98 55 154t153 56h136q145 0 245.5 -100.5t100.5 -245.5zM1205 1083q0 81 -55 136t-136 55q-41 0 -86 -28q-50 -32 -50 -70v-283h136 q80 0 135.5 55t55.5 135zM670 205v531h-158q-156 0 -156 -210v-321h314z" />
<glyph horiz-adv-x="1145" d="M1215 -3h-154q-108 0 -163 63q-53 -65 -161 -63v898h-381q0 -136 -17 -192q-33 -108 -139 -105v533q0 87 34 143q41 68 122 67v-298h381q0 -14 0 4q-1 18 -1 50v55q0 132 33 192q48 87 176 85v-1224h270v-208z" />
<glyph horiz-adv-x="1145" d="M1215 -3h-154q-108 0 -163 63q-51 -63 -161 -63h-807v208h807v690h-381q0 -136 -17 -192q-33 -108 -139 -105v533q0 87 34 143q41 68 122 67v-298h381q0 -14 0 4q-1 18 -1 50v55q0 132 33 192q48 87 176 85v-1224h270v-208z" />
<glyph horiz-adv-x="1145" d="M945 206q0 -98 -55 -153.5t-153 -55.5h-807v208h807v690h-381q0 -136 -17 -192q-33 -108 -139 -105v533q0 87 34 143q41 68 122 67v-298h381q0 -14 0 4q-1 18 -1 50v55q0 132 33 192q48 87 176 85v-1223z" />
<glyph horiz-adv-x="1321" d="M1391 -3h-385q-107 0 -163 63q-53 -65 -161 -63v739h-137q-144 0 -244.5 101.5t-100.5 245.5q0 145 100.5 245.5t244.5 100.5h137q98 0 153 -56t55 -154v-326h231v-6q0 -157 -231 -156v-526h501v-208zM682 893v283q0 36 -52 68q-47 30 -85 30q-80 0 -135 -55.5 t-55 -135.5t55 -135t135 -55h137z" />
<glyph horiz-adv-x="1321" d="M1391 -3h-385q-107 0 -163 63q-51 -63 -161 -63h-752v208h752v531h-137q-144 0 -244.5 101t-100.5 246q0 144 100.5 245t244.5 101h137q98 0 153 -56t55 -154v-326h231v-6q0 -156 -231 -156v-526h501v-208zM682 893v283q0 36 -52 68q-47 30 -85 30q-80 0 -135 -55.5 t-55 -135.5t55 -135t135 -55h137z" />
<glyph horiz-adv-x="1321" d="M1121 887q0 -156 -231 -156v-525q0 -98 -55 -153.5t-153 -55.5h-752v208h752v531h-137q-144 0 -244.5 101t-100.5 246q0 144 100.5 245t244.5 101h137q98 0 153 -56t55 -154v-326h231v-6zM682 893v283q0 36 -52 68q-47 30 -85 30q-80 0 -135 -55.5t-55 -135.5t55 -135 t135 -55h137z" />
<glyph horiz-adv-x="1200" d="M1270 -3h-450q-107 0 -163 63q-53 -65 -161 -63v1214h-296q-2 98 54.5 153t155.5 55h590q2 -133 -90 -178q-61 -30 -206 -30v-1006h566v-208z" />
<glyph horiz-adv-x="1200" d="M1270 -3h-450q-107 0 -163 63q-51 -63 -161 -63h-566v208h566v1006h-296q-2 98 54.5 153t155.5 55h590q2 -133 -90 -178q-61 -30 -206 -30v-1006h566v-208z" />
<glyph horiz-adv-x="1200" d="M1000 1419q2 -133 -90 -178q-61 -30 -206 -30v-1005q0 -98 -55 -153.5t-153 -55.5h-566v208h566v1006h-296q-2 98 54.5 153t155.5 55h590z" />
<glyph horiz-adv-x="1366" d="M1436 -3h-144q-111 0 -164 64q-43 -65 -106 -65h-679q-64 0 -105 61q-38 55 -38 121q0 47 15 84l470 1157l466 -1157q9 -22 13 -57h272v-208zM950 205l-267 778l-268 -778h535z" />
<glyph horiz-adv-x="1366" d="M1436 -3h-144q-111 0 -164 64q-43 -65 -106 -65l-1092 1v208h271q4 33 14 57l470 1157l466 -1157q9 -22 13 -57h272v-208zM950 205l-267 778l-268 -778h535z" />
<glyph horiz-adv-x="1366" d="M1165 178q0 -66 -38 -121q-41 -61 -105 -61l-1092 1v208h271q4 33 14 57l470 1157l466 -1157q14 -35 14 -84zM950 205l-267 778l-268 -778h535z" />
<glyph horiz-adv-x="1164" d="M1234 -3h-389q-108 0 -164 63q-52 -65 -160 -63v415q-108 33 -172 122t-64 202q0 111 65 202.5t171 125.5v147h-321q-2 98 54.5 153t155.5 55h319v-356q105 -35 170 -126.5t65 -201.5q0 -111 -64.5 -200t-170.5 -122v-208h505v-208zM826 744q0 80 -65 130q-60 47 -142 47 q-81 0 -140 -47q-64 -50 -64 -130q0 -77 65 -126q59 -45 139 -45t140 45q67 49 67 126z" />
<glyph horiz-adv-x="1164" d="M1234 -3h-389q-108 0 -164 63q-51 -63 -160 -63h-591v208h591v207q-108 33 -172 122t-64 202q0 111 65 202.5t171 125.5v147h-321q-2 98 54.5 153t155.5 55h319v-356q105 -35 170 -126.5t65 -201.5q0 -111 -64.5 -200t-170.5 -122v-208h505v-208zM826 744q0 80 -65 130 q-60 47 -142 47q-81 0 -140 -47q-64 -50 -64 -130q0 -77 65 -126q59 -45 139 -45t140 45q67 49 67 126z" />
<glyph horiz-adv-x="1164" d="M964 712q-7 -105 -70.5 -186t-164.5 -113v-207q0 -98 -55 -153.5t-153 -55.5h-591v208h591v207q-101 31 -164.5 112.5t-70.5 187.5q-8 119 57 217t178 135v147h-321q-2 98 54.5 153t155.5 55h319v-356q111 -38 177 -136t58 -215zM826 744q1 79 -65 130q-60 47 -142 47 q-81 0 -141 -47q-64 -51 -63 -130t65 -127q58 -44 139 -44t141 44q65 49 66 127z" />
<glyph horiz-adv-x="1138" d="M1208 -3h-155q-108 0 -163 63q-53 -65 -161 -63v1214h-268q-73 0 -93 -91q-10 -47 -36 -170q-34 -90 -132 -88v349q0 208 210 208h527v-1214h271v-208z" />
<glyph horiz-adv-x="1138" d="M1208 -3h-155q-108 0 -163 63q-51 -63 -161 -63h-799v208h799v1006h-268q-73 0 -93 -91q-10 -47 -36 -170q-34 -90 -132 -88v349q0 208 210 208h527v-1214h271v-208z" />
<glyph horiz-adv-x="1138" d="M937 206q0 -98 -55 -153.5t-153 -55.5h-799v208h799v1006h-268q-73 0 -93 -91q-10 -47 -36 -170q-34 -90 -132 -88v349q0 98 56 153t154 55h527v-1213z" />
<glyph horiz-adv-x="1145" d="M1215 -3h-154q-108 0 -163 63q-53 -65 -161 -63v968h-381q0 -136 -17 -192q-33 -108 -139 -105v533q0 86 34 142q41 69 122 67v-297h589v-908h270v-208z" />
<glyph horiz-adv-x="1145" d="M1215 -3h-154q-108 0 -163 63q-51 -63 -161 -63h-807v208h807v760h-381q0 -136 -17 -192q-33 -108 -139 -105v533q0 86 34 142q41 69 122 67v-297h589v-908h270v-208z" />
<glyph horiz-adv-x="1145" d="M945 206q0 -98 -55 -153.5t-153 -55.5h-807v208h807v760h-381q0 -136 -17 -192q-33 -108 -139 -105v533q0 86 34 142q41 69 122 67v-297h589v-907z" />
<glyph horiz-adv-x="1030" d="M1101 -3h-154q-108 0 -164 63q-51 -63 -161 -63h-422v705q0 190 156 190h268v319h-422q-2 98 54.5 153t154.5 55h419v-1214h271v-208zM624 205v531h-112q-156 0 -156 -210v-321h268z" />
<glyph horiz-adv-x="1030" d="M1101 -3h-154q-108 0 -164 63q-51 -63 -161 -63h-692v208h270v478q0 209 156 209h268v319h-422q-2 98 54.5 153t154.5 55h419v-1214h271v-208zM624 205v531h-112q-156 0 -156 -210v-321h268z" />
<glyph horiz-adv-x="1030" d="M830 206q0 -98 -55 -153.5t-153 -55.5h-692v208h270v478q0 209 156 209h268v319h-422q-2 98 54.5 153t154.5 55h419v-1213zM624 205v531h-112q-156 0 -156 -210v-321h268z" />
<glyph horiz-adv-x="1079" d="M1149 -3h-389q-108 0 -164 63q-52 -65 -160 -63v415q-108 33 -172 122t-64 202q0 111 65 202.5t171 125.5q0 192 17 245q39 122 191 120v-365q105 -36 170 -127.5t65 -201.5q0 -111 -64.5 -200t-170.5 -123v-207h505v-208zM741 744q0 80 -65 130q-60 47 -142 47 q-81 0 -140 -47q-64 -50 -64 -130q0 -77 65 -126q59 -45 139 -45t140 45q67 49 67 126z" />
<glyph horiz-adv-x="1079" d="M1149 -3h-389q-108 0 -164 63q-51 -63 -160 -63h-506v208h506v207q-108 33 -172 122t-64 202q0 111 65 202.5t171 125.5q0 192 17 245q39 122 191 120v-365q105 -36 170 -127.5t65 -201.5q0 -111 -64.5 -200t-170.5 -123v-207h505v-208zM741 744q0 80 -65 130 q-60 47 -142 47q-81 0 -140 -47q-64 -50 -64 -130q0 -77 65 -126q59 -45 139 -45t140 45q67 49 67 126z" />
<glyph horiz-adv-x="1079" d="M879 712q-8 -105 -71.5 -186.5t-163.5 -113.5v-206q0 -98 -55 -153.5t-153 -55.5h-506v208h506v207q-101 32 -164.5 113t-70.5 187q-8 119 57 217t178 135v155q0 100 54.5 156t153.5 54v-365q110 -38 176.5 -137t58.5 -215zM741 744q1 79 -65 130q-60 47 -142 47 q-81 0 -141 -47q-64 -51 -63 -130t65 -127q58 -44 139 -44t141 44q65 49 66 127z" />
<glyph horiz-adv-x="1169" d="M1239 -3h-435q-107 0 -163 63q-52 -65 -160 -63v415q-108 33 -172 122t-64 202q0 111 65 202.5t171 125.5v147h-281q-2 98 54.5 153t155.5 55h559q2 -128 -84 -175q-61 -33 -197 -33v-147q105 -36 170.5 -127t65.5 -202t-64.5 -200t-170.5 -122v-208h550v-208zM786 744 q0 80 -65 130q-60 47 -142 47q-81 0 -140 -47q-64 -50 -64 -130q0 -77 65 -126q59 -45 139 -45t140 45q67 49 67 126z" />
<glyph horiz-adv-x="1169" d="M1239 -3h-435q-107 0 -163 63q-51 -63 -160 -63h-551v208h551v207q-108 33 -172 122t-64 202q0 111 65 202.5t171 125.5v147h-281q-2 98 54.5 153t155.5 55h559q2 -128 -84 -175q-61 -33 -197 -33v-147q105 -36 170.5 -127t65.5 -202t-64.5 -200t-170.5 -122v-208h550 v-208zM786 744q0 80 -65 130q-60 47 -142 47q-81 0 -140 -47q-64 -50 -64 -130q0 -77 65 -126q59 -45 139 -45t140 45q67 49 67 126z" />
<glyph horiz-adv-x="1169" d="M969 1419q2 -98 -54.5 -153t-155.5 -55h-71v-147q112 -39 177.5 -136.5t57.5 -215.5q-8 -106 -70.5 -186.5t-163.5 -112.5v-207q0 -98 -55 -153.5t-153 -55.5h-551v208h551v207q-101 31 -164 112.5t-71 187.5q-8 118 57.5 216.5t177.5 135.5v147h-281q-2 98 54.5 153 t155.5 55h559zM786 744q1 79 -65 130q-60 47 -142 47q-81 0 -141 -47q-64 -51 -63 -130t65 -127q58 -44 139 -44t141 44q65 49 66 127z" />
<glyph horiz-adv-x="987" d="M1057 -3h-174q-117 0 -166 67q-8 -27 -18 -66q-58 -232 -243 -517q-164 -253 -358 -447q49 -4 75 -4q189 0 295 86q98 79 160 264q8 23 18 23q26 0 26 -54q0 -202 -238 -371q-221 -157 -432 -157q-53 0 -103.5 45t-50.5 97q0 16 86 130q30 39 107 142q296 411 423 761 q22 61 69 209q24 75 77 232q21 45 85 45q92 0 92 -107q0 -64 -29 -170h299v-208z" />
<glyph horiz-adv-x="987" d="M1057 -3h-174q-117 0 -166 67q-6 -18 -18 -66q-59 -233 -243 -517q-163 -252 -358 -447q49 -4 75 -4q189 0 295 86q98 79 160 264q8 23 18 23q26 0 26 -54q0 -202 -238 -371q-221 -157 -432 -157q-53 0 -103.5 45t-50.5 97q0 14 68 101q421 537 548 933h-534v208h603 l77 232q15 45 85 45q92 0 92 -107q0 -64 -29 -170h299v-208z" />
<glyph horiz-adv-x="987" d="M787 375q0 -77 -33 -189q-16 -52 -55 -188q-66 -243 -243 -517q-163 -252 -358 -447q48 -4 75 -4q189 0 295 86q98 79 160 264q8 23 18 23q26 0 26 -54q0 -202 -238 -371q-221 -157 -432 -157q-53 0 -103.5 45t-50.5 97q0 14 68 101q421 538 548 933h-534v208h603l77 232 q15 45 85 45q92 0 92 -107z" />
<glyph horiz-adv-x="997" d="M1067 -2h-180q-117 0 -164 63q-139 -376 -258 -565q101 -14 137 -31q64 -31 64 -112q0 -299 -461 -483q-120 -48 -154 -48q-194 0 -194 134q0 14 69 108q64 87 123 172q308 443 428 760q48 127 70 209q16 62 63 231q19 45 84 45q47 0 76 -35.5t29 -83.5q0 -61 -29 -157 h297v-207zM555 -709q0 38 -43 60q-34 18 -76 18q-16 0 -63 -14q-115 -162 -275 -322l68 -8q109 0 210 49q110 54 156 144q23 45 23 73z" />
<glyph horiz-adv-x="997" d="M1067 -2h-180q-117 0 -164 63q-139 -376 -258 -565q101 -14 137 -31q64 -31 64 -112q0 -298 -461 -483q-120 -48 -154 -48q-194 0 -194 134q0 14 69 108q43 59 121 172q315 458 430 760h-547v209h617q20 92 63 231q19 45 84 45q47 0 76 -35.5t29 -83.5q0 -61 -29 -157 h297v-207zM555 -709q0 38 -43 60q-34 18 -76 18q-16 0 -63 -14q-115 -162 -275 -322l68 -8q109 0 210 49q110 54 156 144q23 45 23 73z" />
<glyph horiz-adv-x="997" d="M799 362q0 -125 -129 -440q-116 -284 -205 -426q101 -14 137 -31q64 -31 64 -112q0 -296 -461 -483q-119 -48 -154 -48q-194 0 -194 134q0 14 69 108q43 59 121 172q315 458 430 760h-547v209h617q22 96 63 231q21 45 84 45q47 0 76 -35.5t29 -83.5zM555 -709 q0 38 -43 60q-34 18 -76 18q-16 0 -63 -14q-115 -162 -275 -322l68 -8q109 0 210 49q110 54 156 144q23 45 23 73z" />
<glyph horiz-adv-x="1102" d="M1172 -3h-154q-107 0 -163 63q-58 -63 -200 -63v-504q0 -97 -55.5 -154t-152.5 -56v714h-247q-4 208 247 208v301q0 98 55 154.5t153 54.5v-510h517v-208z" />
<glyph horiz-adv-x="1102" d="M1172 -3h-154q-107 0 -163 63q-58 -63 -200 -63v-504q0 -97 -55.5 -154t-152.5 -56v714h-517v208h517v301q0 98 55 154.5t153 54.5v-510h517v-208z" />
<glyph horiz-adv-x="1102" d="M902 205q4 -208 -247 -208v-504q0 -97 -55.5 -154t-152.5 -56v714h-517v208h517v301q0 98 55 154.5t153 54.5v-510h247z" />
<glyph d="M948 730q0 -277 -87 -477q-117 -269 -356 -269q-234 0 -347 275q-82 200 -82 475q0 256 87 440q114 240 342 240q233 0 351 -238q92 -186 92 -446zM742 710q0 462 -231 462q-230 0 -230 -462q0 -457 230 -457q231 0 231 457zM673 -235q0 -62 -57 -98q-49 -32 -114 -32 q-67 0 -115 31q-57 36 -57 99q0 62 57 98q50 32 115 32t114 -32q57 -36 57 -98z" />
<glyph d="M902 79q0 -82 -46 -82h-688q-46 0 -46 82q0 74 46 74h240v1230q0 46 88 46h165q22 0 37 -23q23 -36 112 -204q92 -174 92 -189q0 -25 -42 -51q-38 -25 -65 -25q-23 0 -36 24l-143 264v-1072h240q46 0 46 -74zM671 -235q0 -62 -57 -98q-49 -32 -114 -32q-67 0 -115 31 q-57 36 -57 99q0 62 57 98q50 32 115 32t114 -32q57 -36 57 -98z" />
<glyph d="M869 919q0 -67 -46 -67h-460v-809q0 -46 -98 -46q-110 0 -110 46v1340q0 46 110 46q98 0 98 -46v-375h350v375q0 46 82 46q74 0 74 -46v-464zM426 -235q0 -62 -57 -98q-49 -32 -114 -32q-67 0 -115 31q-57 36 -57 99q0 62 57 98q50 32 115 32t114 -32q57 -36 57 -98z" />
<glyph d="M779 43q0 -47 -89 -47l-399 1q-46 0 -46 109q0 99 46 99h280v369h-280q-46 0 -46 82q0 74 46 74h280v653q0 46 109 46q99 0 99 -46v-1340zM846 -235q0 -62 -57 -98q-49 -32 -114 -32q-67 0 -115 31q-57 36 -57 99q0 62 57 98q50 32 115 32t114 -32q57 -36 57 -98z" />
<glyph d="M819 107q0 -110 -46 -110h-522q-46 0 -46 90v637q0 69 46 69h360v590q0 46 110 46q98 0 98 -46v-679q0 -67 -46 -67h-438v-432h438q46 0 46 -98zM672 -235q0 -62 -57 -98q-49 -32 -114 -32q-67 0 -115 31q-57 36 -57 99q0 62 57 98q50 32 115 32t114 -32q57 -36 57 -98z " />
<glyph d="M779 703q0 -94 -47 -94h-279v-566q0 -46 -113 -46q-94 0 -94 46v1340q0 46 110 46q97 0 97 -46v-566h279q47 0 47 -114zM518 -235q0 -62 -57 -98q-49 -32 -114 -32q-67 0 -115 31q-57 36 -57 99q0 62 57 98q50 32 115 32t114 -32q57 -36 57 -98z" />
<glyph d="M854 43q0 -46 -98 -46q-109 0 -109 46v594h-431q-46 0 -46 71v675q0 46 109 46q99 0 99 -46v-590h430q46 0 46 -74v-676zM922 -235q0 -62 -57 -98q-49 -32 -114 -32q-67 0 -115 31q-57 36 -57 99q0 62 57 98q50 32 115 32t114 -32q57 -36 57 -98z" />
<glyph d="M904 954q0 -14 -226 -441.5t-268 -493.5q-14 -22 -36 -22h-158q-96 0 -96 46v1340q0 46 110 46q98 0 98 -46v-1183l432 806q13 24 36 24q28 0 66 -24q42 -26 42 -52zM398 -235q0 -62 -57 -98q-49 -32 -114 -32q-67 0 -115 31q-57 36 -57 99q0 62 57 98q50 32 115 32 t114 -32q57 -36 57 -98z" />
<glyph d="M904 954q0 -10 -230 -448q-234 -445 -264 -487q-16 -22 -36 -22h-158q-96 0 -96 46v1340q0 46 110 46q98 0 98 -46v-353h468q32 0 68 -22q40 -24 40 -54zM689 874h-361v-674zM400 -235q0 -62 -57 -98q-49 -32 -114 -32q-67 0 -115 31q-57 36 -57 99q0 62 57 98 q50 32 115 32t114 -32q57 -36 57 -98z" />
<glyph d="M852 1053q0 -112 -65 -201t-171 -122v-687q0 -46 -98 -46q-110 0 -110 46v686q-107 33 -171.5 122.5t-64.5 201.5q0 140 98 242.5t237 102.5q143 0 244 -101t101 -244zM713 1061q0 79 -65 130q-59 47 -141 47t-141 -47q-64 -50 -64 -130q0 -77 66 -126q59 -45 139 -45 t140 45q66 49 66 126zM681 -235q0 -62 -57 -98q-49 -32 -114 -32q-67 0 -115 31q-57 36 -57 99q0 62 57 98q50 32 115 32t114 -32q57 -36 57 -98z" />
<glyph d="M948 730q0 -277 -87 -477q-117 -269 -356 -269q-234 0 -347 275q-82 200 -82 475q0 256 87 440q114 240 342 240q233 0 351 -238q92 -186 92 -446zM742 710q0 462 -231 462q-230 0 -230 -462q0 -457 230 -457q231 0 231 457zM681 1754q0 -62 -57 -98q-49 -32 -114 -32 q-67 0 -115 31q-57 36 -57 99q0 62 57 98q50 32 115 32t114 -32q57 -36 57 -98z" />
<glyph d="M902 79q0 -82 -46 -82h-688q-46 0 -46 82q0 74 46 74h240v1230q0 46 88 46h165q22 0 37 -23q23 -36 112 -204q92 -174 92 -189q0 -25 -42 -51q-38 -25 -65 -25q-23 0 -36 24l-143 264v-1072h240q46 0 46 -74zM672 1754q0 -62 -57 -98q-49 -32 -114 -32q-67 0 -115 31 q-57 36 -57 99q0 62 57 98q50 32 115 32t114 -32q57 -36 57 -98z" />
<glyph d="M869 919q0 -67 -46 -67h-460v-809q0 -46 -98 -46q-110 0 -110 46v1340q0 46 110 46q98 0 98 -46v-375h350v375q0 46 82 46q74 0 74 -46v-464zM425 1754q0 -62 -57 -98q-49 -32 -114 -32q-67 0 -115 31q-57 36 -57 99q0 62 57 98q50 32 115 32t114 -32q57 -36 57 -98z" />
<glyph d="M779 43q0 -47 -89 -47l-399 1q-46 0 -46 109q0 99 46 99h280v369h-280q-46 0 -46 82q0 74 46 74h280v653q0 46 109 46q99 0 99 -46v-1340zM851 1754q0 -62 -57 -98q-49 -32 -114 -32q-67 0 -115 31q-57 36 -57 99q0 62 57 98q50 32 115 32t114 -32q57 -36 57 -98z" />
<glyph d="M819 107q0 -110 -46 -110h-522q-46 0 -46 90v637q0 69 46 69h360v590q0 46 110 46q98 0 98 -46v-679q0 -67 -46 -67h-438v-432h438q46 0 46 -98zM891 1754q0 -62 -57 -98q-49 -32 -114 -32q-67 0 -115 31q-57 36 -57 99q0 62 57 98q50 32 115 32t114 -32q57 -36 57 -98z " />
<glyph d="M779 703q0 -94 -47 -94h-279v-566q0 -46 -113 -46q-94 0 -94 46v1340q0 46 110 46q97 0 97 -46v-566h279q47 0 47 -114zM528 1754q0 -62 -57 -98q-49 -32 -114 -32q-67 0 -115 31q-57 36 -57 99q0 62 57 98q50 32 115 32t114 -32q57 -36 57 -98z" />
<glyph d="M854 43q0 -46 -98 -46q-109 0 -109 46v594h-431q-46 0 -46 71v675q0 46 109 46q99 0 99 -46v-590h430q46 0 46 -74v-676zM448 1754q0 -62 -57 -98q-49 -32 -114 -32q-67 0 -115 31q-57 36 -57 99q0 62 57 98q50 32 115 32t114 -32q57 -36 57 -98z" />
<glyph d="M904 954q0 -14 -226 -441.5t-268 -493.5q-14 -22 -36 -22h-158q-96 0 -96 46v1340q0 46 110 46q98 0 98 -46v-1183l432 806q13 24 36 24q28 0 66 -24q42 -26 42 -52zM391 1754q0 -62 -57 -98q-49 -32 -114 -32q-67 0 -115 31q-57 36 -57 99q0 62 57 98q50 32 115 32 t114 -32q57 -36 57 -98z" />
<glyph d="M904 954q0 -10 -230 -448q-234 -445 -264 -487q-16 -22 -36 -22h-158q-96 0 -96 46v1340q0 46 110 46q98 0 98 -46v-353h468q32 0 68 -22q40 -24 40 -54zM689 874h-361v-674zM400 1754q0 -62 -57 -98q-49 -32 -114 -32q-67 0 -115 31q-57 36 -57 99q0 62 57 98 q50 32 115 32t114 -32q57 -36 57 -98z" />
<glyph d="M852 1053q0 -112 -65 -201t-171 -122v-687q0 -46 -98 -46q-110 0 -110 46v686q-107 33 -171.5 122.5t-64.5 201.5q0 140 98 242.5t237 102.5q143 0 244 -101t101 -244zM713 1061q0 79 -65 130q-59 47 -141 47t-141 -47q-64 -50 -64 -130q0 -77 66 -126q59 -45 139 -45 t140 45q66 49 66 126zM672 1754q0 -62 -57 -98q-49 -32 -114 -32q-67 0 -115 31q-57 36 -57 99q0 62 57 98q50 32 115 32t114 -32q57 -36 57 -98z" />
<glyph horiz-adv-x="608" d="M678 -3h-154q-108 0 -163 63q-53 -65 -161 -63v1222q0 99 55 155.5t153 54.5v-1224h270v-208zM487 -227q0 -62 -57 -98q-49 -32 -114 -32q-67 0 -115 31q-57 36 -57 99q0 62 57 98q50 32 115 32t114 -32q57 -36 57 -98z" />
<glyph horiz-adv-x="608" d="M678 -3h-154q-108 0 -163 63q-51 -63 -161 -63h-270v208h270v1014q0 99 55 155.5t153 54.5v-1224h270v-208zM477 -231q0 -62 -57 -98q-49 -32 -114 -32q-67 0 -115 31q-57 36 -57 99q0 62 57 98q50 32 115 32t114 -32q57 -36 57 -98z" />
<glyph horiz-adv-x="608" d="M408 206q0 -98 -55 -153.5t-153 -55.5h-270v208h270v1014q0 98 55 154.5t153 55.5v-1223zM482 -235q0 -62 -57 -98q-49 -32 -114 -32q-67 0 -115 31q-57 36 -57 99q0 62 57 98q50 32 115 32t114 -32q57 -36 57 -98z" />
<glyph horiz-adv-x="608" d="M408 206q0 -98 -55 -154.5t-153 -54.5v1222q0 98 55 154.5t153 55.5v-1223zM477 -233q0 -62 -57 -98q-49 -32 -114 -32q-67 0 -115 31q-57 36 -57 99q0 62 57 98q50 32 115 32t114 -32q57 -36 57 -98z" />
<glyph horiz-adv-x="1435" d="M1505 -3h-376q-106 0 -163 62q-115 -62 -248 -62q-220 0 -369 150t-149 370q0 215 151.5 368t365.5 153t366 -154t152 -368q0 -173 -102 -311h372v-208zM1030 525q0 123 -98 199q-90 71 -216 71q-124 0 -214 -72q-98 -77 -98 -198q0 -117 100 -192q91 -68 212 -68 q122 0 213 68q101 74 101 192zM867 -235q0 -62 -57 -98q-49 -32 -114 -32q-67 0 -115 31q-57 36 -57 99q0 62 57 98q50 32 115 32t114 -32q57 -36 57 -98z" />
<glyph horiz-adv-x="1435" d="M1505 -3h-376q-107 0 -163 62q-115 -62 -248 -62q-135 0 -249 62q-57 -62 -163 -62h-376v208h371q-101 138 -101 312q0 215 151.5 368t365.5 153t366 -154t152 -368q0 -173 -102 -311h372v-208zM1030 525q0 123 -98 199q-90 71 -216 71q-124 0 -214 -72q-98 -77 -98 -198 q0 -117 100 -192q91 -68 212 -68q122 0 213 68q101 74 101 192zM879 -235q0 -62 -57 -98q-49 -32 -114 -32q-67 0 -115 31q-57 36 -57 99q0 62 57 98q50 32 115 32t114 -32q57 -36 57 -98z" />
<glyph horiz-adv-x="1435" d="M1235 516q0 -218 -149.5 -368.5t-367.5 -150.5q-135 0 -249 62q-57 -62 -163 -62h-376v208h371q-101 138 -101 312q0 215 151.5 368t365.5 153t366 -154t152 -368zM1030 525q0 123 -98 199q-90 71 -216 71q-124 0 -214 -72q-98 -77 -98 -198q0 -117 100 -192 q91 -68 212 -68q122 0 213 68q101 74 101 192zM878 -235q0 -62 -57 -98q-49 -32 -114 -32q-67 0 -115 31q-57 36 -57 99q0 62 57 98q50 32 115 32t114 -32q57 -36 57 -98z" />
<glyph horiz-adv-x="1435" d="M1235 516q0 -218 -149.5 -368.5t-367.5 -150.5q-220 0 -369 150t-149 370q0 215 151.5 368t365.5 153t366 -154t152 -368zM1030 525q0 123 -98 199q-90 71 -216 71q-124 0 -214 -72q-98 -77 -98 -198q0 -117 100 -192q91 -68 212 -68q122 0 213 68q101 74 101 192z M876 -235q0 -62 -57 -98q-49 -32 -114 -32q-67 0 -115 31q-57 36 -57 99q0 62 57 98q50 32 115 32t114 -32q57 -36 57 -98z" />
<glyph horiz-adv-x="1113" d="M1183 -3h-407q-108 0 -163 63q-53 -65 -161 -63v709l-221 474q-31 66 -31 128q0 91 84 128l273 -585l272 585q84 -37 84 -128q0 -62 -31 -128l-222 -475v-500h523v-208zM731 -235q0 -62 -57 -98q-49 -32 -114 -32q-67 0 -115 31q-57 36 -57 99q0 62 57 98q50 32 115 32 t114 -32q57 -36 57 -98z" />
<glyph horiz-adv-x="1113" d="M1183 -3h-407q-108 0 -163 63q-51 -63 -157 -63h-526v208h522v501l-221 474q-31 66 -31 128q0 91 84 128l273 -585l272 585q84 -37 84 -128q0 -62 -31 -128l-222 -475v-500h523v-208zM732 -235q0 -62 -57 -98q-49 -32 -114 -32q-67 0 -115 31q-57 36 -57 99q0 62 57 98 q50 32 115 32t114 -32q57 -36 57 -98z" />
<glyph horiz-adv-x="1113" d="M913 1308q0 -62 -31 -128l-222 -475v-499q0 -98 -55 -153.5t-153 -55.5h-522v208h522v501l-221 474q-31 66 -31 128q0 91 84 128l273 -585l272 585q84 -37 84 -128zM732 -235q0 -62 -57 -98q-49 -32 -114 -32q-67 0 -115 31q-57 36 -57 99q0 62 57 98q50 32 115 32 t114 -32q57 -36 57 -98z" />
<glyph horiz-adv-x="1113" d="M913 1308q0 -62 -31 -128l-222 -475v-499q0 -98 -55 -154.5t-153 -54.5v709l-221 474q-31 66 -31 128q0 91 84 128l273 -585l272 585q84 -37 84 -128zM731 -235q0 -62 -57 -98q-49 -32 -114 -32q-67 0 -115 31q-57 36 -57 99q0 62 57 98q50 32 115 32t114 -32 q57 -36 57 -98z" />
<glyph horiz-adv-x="1450" d="M1520 -3l-371 -1l-424 652l-423 -652q-102 64 -102 159q0 67 41 130l484 745l484 -745q23 -36 35 -80h276v-208zM897 -235q0 -62 -57 -98q-49 -32 -114 -32q-67 0 -115 31q-57 36 -57 99q0 62 57 98q50 32 115 32t114 -32q57 -36 57 -98z" />
<glyph horiz-adv-x="1450" d="M1520 -3l-371 -1l-424 652l-423 -652l-372 1v208h277q11 44 34 80l484 745l484 -745q23 -36 35 -80h276v-208zM897 -235q0 -62 -57 -98q-49 -32 -114 -32q-67 0 -115 31q-57 36 -57 99q0 62 57 98q50 32 115 32t114 -32q57 -36 57 -98z" />
<glyph horiz-adv-x="1450" d="M1250 155q0 -95 -101 -159l-424 652l-423 -652l-372 1v208h277q11 44 34 80l484 745l484 -745q41 -63 41 -130zM897 -235q0 -62 -57 -98q-49 -32 -114 -32q-67 0 -115 31q-57 36 -57 99q0 62 57 98q50 32 115 32t114 -32q57 -36 57 -98z" />
<glyph horiz-adv-x="1450" d="M1250 155q0 -95 -101 -159l-424 652l-423 -652q-102 64 -102 159q0 67 41 130l484 745l484 -745q41 -63 41 -130zM897 -235q0 -62 -57 -98q-49 -32 -114 -32q-67 0 -115 31q-57 36 -57 99q0 62 57 98q50 32 115 32t114 -32q57 -36 57 -98z" />
<glyph horiz-adv-x="1243" d="M1313 -3h-154q-108 0 -164 63q-50 -63 -160 -63h-347q-113 0 -166 66q-39 -68 -122 -66v821q0 86 34 143q41 69 122 67v-823h479v613q0 99 55 155.5t153 54.5v-823h270v-208zM767 -235q0 -62 -57 -98q-49 -32 -114 -32q-67 0 -115 31q-57 36 -57 99q0 62 57 98 q50 32 115 32t114 -32q57 -36 57 -98z" />
<glyph horiz-adv-x="1243" d="M1313 -3h-154q-108 0 -164 63q-50 -63 -160 -63h-347q-113 0 -166 66q-38 -66 -122 -66h-270v208h270v613q0 86 34 143q41 69 122 67v-823h479v613q0 99 55 155.5t153 54.5v-823h270v-208zM767 -235q0 -62 -57 -98q-49 -32 -114 -32q-67 0 -115 31q-57 36 -57 99 q0 62 57 98q50 32 115 32t114 -32q57 -36 57 -98z" />
<glyph horiz-adv-x="1243" d="M1043 206q0 -98 -55 -153.5t-153 -55.5h-347q-113 0 -166 66q-38 -66 -122 -66h-270v208h270v613q0 86 34 143q41 69 122 67v-823h479v613q0 99 55 155.5t153 54.5v-822zM777 -235q0 -62 -57 -98q-49 -32 -114 -32q-67 0 -115 31q-57 36 -57 99q0 62 57 98q50 32 115 32 t114 -32q57 -36 57 -98z" />
<glyph horiz-adv-x="1243" d="M1043 206q0 -98 -55 -153.5t-153 -55.5h-347q-113 0 -166 66q-39 -68 -122 -66v821q0 86 34 143q41 69 122 67v-823h479v613q0 99 55 155.5t153 54.5v-822zM776 -235q0 -62 -57 -98q-49 -32 -114 -32q-67 0 -115 31q-57 36 -57 99q0 62 57 98q50 32 115 32t114 -32 q57 -36 57 -98z" />
<glyph horiz-adv-x="1208" d="M1278 -3h-154q-108 0 -163 63q-51 -63 -161 -63h-600q-2 98 54.5 153t155.5 55h390v615h-600q-2 98 54.5 153t155.5 55h598v-823h270v-208zM777 -235q0 -62 -57 -98q-49 -32 -114 -32q-67 0 -115 31q-57 36 -57 99q0 62 57 98q50 32 115 32t114 -32q57 -36 57 -98z" />
<glyph horiz-adv-x="1208" d="M1278 -3h-154q-108 0 -163 63q-51 -63 -161 -63h-870v208h870v615h-600q-2 98 54.5 153t155.5 55h598v-823h270v-208zM776 -235q0 -62 -57 -98q-49 -32 -114 -32q-67 0 -115 31q-57 36 -57 99q0 62 57 98q50 32 115 32t114 -32q57 -36 57 -98z" />
<glyph horiz-adv-x="1208" d="M1008 206q0 -98 -55 -153.5t-153 -55.5h-870v208h870v615h-600q-2 98 54.5 153t155.5 55h598v-822zM772 -235q0 -62 -57 -98q-49 -32 -114 -32q-67 0 -115 31q-57 36 -57 99q0 62 57 98q50 32 115 32t114 -32q57 -36 57 -98z" />
<glyph horiz-adv-x="1208" d="M1008 206q0 -98 -55 -153.5t-153 -55.5h-600q-2 98 54.5 153t155.5 55h390v615h-600q-2 98 54.5 153t155.5 55h598v-822zM770 -235q0 -62 -57 -98q-49 -32 -114 -32q-67 0 -115 31q-57 36 -57 99q0 62 57 98q50 32 115 32t114 -32q57 -36 57 -98z" />
<glyph horiz-adv-x="1433" d="M1503 -3h-565q-107 0 -164 63q-56 -63 -161 -63v619q-174 25 -285 118q-128 106 -128 271q0 184 173 302q153 104 346 104q192 0 344 -105q170 -117 170 -301q0 -165 -128 -272q-112 -94 -285 -117v-411h683v-208zM1029 1016q0 108 -109 164q-86 44 -205 44 q-117 0 -203 -45q-108 -56 -108 -163q0 -105 109 -158q86 -42 202 -42q119 0 204 41q110 53 110 159zM896 -235q0 -62 -57 -98q-49 -32 -114 -32q-67 0 -115 31q-57 36 -57 99q0 62 57 98q50 32 115 32t114 -32q57 -36 57 -98z" />
<glyph horiz-adv-x="1433" d="M1503 -3h-565q-107 0 -164 63q-57 -63 -161 -63h-683v208h683v411q-174 25 -285 118q-128 106 -128 271q0 184 173 302q153 104 346 104q192 0 344 -105q170 -117 170 -301q0 -165 -128 -272q-112 -94 -285 -117v-411h683v-208zM1029 1016q0 108 -109 164q-86 44 -205 44 q-117 0 -203 -45q-108 -56 -108 -163q0 -105 109 -158q86 -42 202 -42q119 0 204 41q110 53 110 159zM897 -235q0 -62 -57 -98q-49 -32 -114 -32q-67 0 -115 31q-57 36 -57 99q0 62 57 98q50 32 115 32t114 -32q57 -36 57 -98z" />
<glyph horiz-adv-x="1433" d="M1233 1005q0 -165 -128 -272q-112 -94 -285 -117v-411q0 -208 -210 -208h-680v208h683v411q-174 25 -285 118q-128 106 -128 271q0 184 173 302q153 104 346 104q192 0 344 -105q170 -117 170 -301zM1029 1016q0 108 -109 164q-86 44 -205 44q-117 0 -203 -45 q-108 -56 -108 -163q0 -105 109 -158q86 -42 202 -42q119 0 204 41q110 53 110 159zM897 -235q0 -62 -57 -98q-49 -32 -114 -32q-67 0 -115 31q-57 36 -57 99q0 62 57 98q50 32 115 32t114 -32q57 -36 57 -98z" />
<glyph horiz-adv-x="1433" d="M1233 1005q0 -165 -128 -272q-112 -94 -285 -117v-411h297q1 -98 -55.5 -153t-154.5 -55h-590q-3 133 90 178q62 30 206 30v411q-174 25 -285 118q-128 106 -128 271q0 184 173 302q153 104 346 104q192 0 344 -105q170 -117 170 -301zM1029 1016q0 108 -109 164 q-86 44 -205 44q-117 0 -203 -45q-108 -56 -108 -163q0 -105 109 -158q86 -42 202 -42q119 0 204 41q110 53 110 159zM897 -235q0 -62 -57 -98q-49 -32 -114 -32q-67 0 -115 31q-57 36 -57 99q0 62 57 98q50 32 115 32t114 -32q57 -36 57 -98z" />
<glyph horiz-adv-x="608" d="M678 -3h-154q-108 0 -163 63q-53 -65 -161 -63v1222q0 99 55 155.5t153 54.5v-1224h270v-208zM613 1684q0 -55 -60 -114l-253 253l-253 -253q-60 58 -60 114q0 47 33 80l181 181q31 31 93 31q74 0 105 -31l181 -181q33 -33 33 -80z" />
<glyph horiz-adv-x="608" d="M678 -3h-154q-108 0 -163 63q-51 -63 -161 -63h-270v208h270v1014q0 99 55 155.5t153 54.5v-1224h270v-208zM632 1684q0 -55 -60 -114l-253 253l-253 -253q-60 58 -60 114q0 47 33 80l181 181q31 31 93 31q74 0 105 -31l181 -181q33 -33 33 -80z" />
<glyph horiz-adv-x="608" d="M408 206q0 -98 -55 -153.5t-153 -55.5h-270v208h270v1014q0 98 55 154.5t153 55.5v-1223zM618 1684q0 -55 -60 -114l-253 253l-253 -253q-60 58 -60 114q0 47 33 80l181 181q31 31 93 31q74 0 105 -31l181 -181q33 -33 33 -80z" />
<glyph horiz-adv-x="608" d="M408 206q0 -98 -55 -154.5t-153 -54.5v1222q0 98 55 154.5t153 55.5v-1223zM627 1684q0 -55 -60 -114l-253 253l-253 -253q-60 58 -60 114q0 47 33 80l181 181q31 31 93 31q74 0 105 -31l181 -181q33 -33 33 -80z" />
<glyph horiz-adv-x="1435" d="M1505 -3h-376q-106 0 -163 62q-115 -62 -248 -62q-220 0 -369 150t-149 370q0 215 151.5 368t365.5 153t366 -154t152 -368q0 -173 -102 -311h372v-208zM1030 525q0 123 -98 199q-90 71 -216 71q-124 0 -214 -72q-98 -77 -98 -198q0 -117 100 -192q91 -68 212 -68 q122 0 213 68q101 74 101 192zM1038 1684q0 -55 -60 -114l-253 253l-253 -253q-60 58 -60 114q0 47 33 80l181 181q31 31 93 31q74 0 105 -31l181 -181q33 -33 33 -80z" />
<glyph horiz-adv-x="1435" d="M1505 -3h-376q-107 0 -163 62q-115 -62 -248 -62q-135 0 -249 62q-57 -62 -163 -62h-376v208h371q-101 138 -101 312q0 215 151.5 368t365.5 153t366 -154t152 -368q0 -173 -102 -311h372v-208zM1030 525q0 123 -98 199q-90 71 -216 71q-124 0 -214 -72q-98 -77 -98 -198 q0 -117 100 -192q91 -68 212 -68q122 0 213 68q101 74 101 192zM1038 1684q0 -55 -60 -114l-253 253l-253 -253q-60 58 -60 114q0 47 33 80l181 181q31 31 93 31q74 0 105 -31l181 -181q33 -33 33 -80z" />
<glyph horiz-adv-x="1435" d="M1235 516q0 -218 -149.5 -368.5t-367.5 -150.5q-135 0 -249 62q-57 -62 -163 -62h-376v208h371q-101 138 -101 312q0 215 151.5 368t365.5 153t366 -154t152 -368zM1030 525q0 123 -98 199q-90 71 -216 71q-124 0 -214 -72q-98 -77 -98 -198q0 -117 100 -192 q91 -68 212 -68q122 0 213 68q101 74 101 192zM1038 1684q0 -55 -60 -114l-253 253l-253 -253q-60 58 -60 114q0 47 33 80l181 181q31 31 93 31q74 0 105 -31l181 -181q33 -33 33 -80z" />
<glyph horiz-adv-x="1435" d="M1235 516q0 -218 -149.5 -368.5t-367.5 -150.5q-220 0 -369 150t-149 370q0 215 151.5 368t365.5 153t366 -154t152 -368zM1030 525q0 123 -98 199q-90 71 -216 71q-124 0 -214 -72q-98 -77 -98 -198q0 -117 100 -192q91 -68 212 -68q122 0 213 68q101 74 101 192z M1038 1684q0 -55 -60 -114l-253 253l-253 -253q-60 58 -60 114q0 47 33 80l181 181q31 31 93 31q74 0 105 -31l181 -181q33 -33 33 -80z" />
<glyph horiz-adv-x="1113" d="M1183 -3h-407q-108 0 -163 63q-53 -65 -161 -63v709l-221 474q-31 66 -31 128q0 91 84 128l273 -585l272 585q84 -37 84 -128q0 -62 -31 -128l-222 -475v-500h523v-208zM872 1684q0 -55 -60 -114l-253 253l-253 -253q-60 58 -60 114q0 47 33 80l181 181q31 31 93 31 q74 0 105 -31l181 -181q33 -33 33 -80z" />
<glyph horiz-adv-x="1113" d="M1183 -3h-407q-108 0 -163 63q-51 -63 -157 -63h-526v208h522v501l-221 474q-31 66 -31 128q0 91 84 128l273 -585l272 585q84 -37 84 -128q0 -62 -31 -128l-222 -475v-500h523v-208zM870 1684q0 -55 -60 -114l-253 253l-253 -253q-60 58 -60 114q0 47 33 80l181 181 q31 31 93 31q74 0 105 -31l181 -181q33 -33 33 -80z" />
<glyph horiz-adv-x="1113" d="M913 1308q0 -62 -31 -128l-222 -475v-499q0 -98 -55 -153.5t-153 -55.5h-522v208h522v501l-221 474q-31 66 -31 128q0 91 84 128l273 -585l272 585q84 -37 84 -128zM873 1684q0 -55 -60 -114l-253 253l-253 -253q-60 58 -60 114q0 47 33 80l181 181q31 31 93 31 q74 0 105 -31l181 -181q33 -33 33 -80z" />
<glyph horiz-adv-x="1113" d="M913 1308q0 -62 -31 -128l-222 -475v-499q0 -98 -55 -154.5t-153 -54.5v709l-221 474q-31 66 -31 128q0 91 84 128l273 -585l272 585q84 -37 84 -128zM873 1684q0 -55 -60 -114l-253 253l-253 -253q-60 58 -60 114q0 47 33 80l181 181q31 31 93 31q74 0 105 -31l181 -181 q33 -33 33 -80z" />
<glyph horiz-adv-x="1450" d="M1520 -3l-371 -1l-424 652l-423 -652q-102 64 -102 159q0 67 41 130l484 745l484 -745q23 -36 35 -80h276v-208zM1038 1684q0 -55 -60 -114l-253 253l-253 -253q-60 58 -60 114q0 47 33 80l181 181q31 31 93 31q74 0 105 -31l181 -181q33 -33 33 -80z" />
<glyph horiz-adv-x="1450" d="M1520 -3l-371 -1l-424 652l-423 -652l-372 1v208h277q11 44 34 80l484 745l484 -745q23 -36 35 -80h276v-208zM1038 1684q0 -55 -60 -114l-253 253l-253 -253q-60 58 -60 114q0 47 33 80l181 181q31 31 93 31q74 0 105 -31l181 -181q33 -33 33 -80z" />
<glyph horiz-adv-x="1450" d="M1250 155q0 -95 -101 -159l-424 652l-423 -652l-372 1v208h277q11 44 34 80l484 745l484 -745q41 -63 41 -130zM1038 1684q0 -55 -60 -114l-253 253l-253 -253q-60 58 -60 114q0 47 33 80l181 181q31 31 93 31q74 0 105 -31l181 -181q33 -33 33 -80z" />
<glyph horiz-adv-x="1450" d="M1250 155q0 -95 -101 -159l-424 652l-423 -652q-102 64 -102 159q0 67 41 130l484 745l484 -745q41 -63 41 -130zM1038 1684q0 -55 -60 -114l-253 253l-253 -253q-60 58 -60 114q0 47 33 80l181 181q31 31 93 31q74 0 105 -31l181 -181q33 -33 33 -80z" />
<glyph horiz-adv-x="1243" d="M1313 -3h-154q-108 0 -164 63q-50 -63 -160 -63h-347q-113 0 -166 66q-39 -68 -122 -66v821q0 86 34 143q41 69 122 67v-823h479v613q0 99 55 155.5t153 54.5v-823h270v-208zM918 1684q0 -55 -60 -114l-253 253l-253 -253q-60 58 -60 114q0 47 33 80l181 181q31 31 93 31 q74 0 105 -31l181 -181q33 -33 33 -80z" />
<glyph horiz-adv-x="1243" d="M1313 -3h-154q-108 0 -164 63q-50 -63 -160 -63h-347q-113 0 -166 66q-38 -66 -122 -66h-270v208h270v613q0 86 34 143q41 69 122 67v-823h479v613q0 99 55 155.5t153 54.5v-823h270v-208zM908 1684q0 -55 -60 -114l-253 253l-253 -253q-60 58 -60 114q0 47 33 80 l181 181q31 31 93 31q74 0 105 -31l181 -181q33 -33 33 -80z" />
<glyph horiz-adv-x="1243" d="M1043 206q0 -98 -55 -153.5t-153 -55.5h-347q-113 0 -166 66q-38 -66 -122 -66h-270v208h270v613q0 86 34 143q41 69 122 67v-823h479v613q0 99 55 155.5t153 54.5v-822zM908 1684q0 -55 -60 -114l-253 253l-253 -253q-60 58 -60 114q0 47 33 80l181 181q31 31 93 31 q74 0 105 -31l181 -181q33 -33 33 -80z" />
<glyph horiz-adv-x="1243" d="M1043 206q0 -98 -55 -153.5t-153 -55.5h-347q-113 0 -166 66q-39 -68 -122 -66v821q0 86 34 143q41 69 122 67v-823h479v613q0 99 55 155.5t153 54.5v-822zM914 1684q0 -55 -60 -114l-253 253l-253 -253q-60 58 -60 114q0 47 33 80l181 181q31 31 93 31q74 0 105 -31 l181 -181q33 -33 33 -80z" />
<glyph horiz-adv-x="1208" d="M1278 -3h-154q-108 0 -163 63q-51 -63 -161 -63h-600q-2 98 54.5 153t155.5 55h390v615h-600q-2 98 54.5 153t155.5 55h598v-823h270v-208zM912 1684q0 -55 -60 -114l-253 253l-253 -253q-60 58 -60 114q0 47 33 80l181 181q31 31 93 31q74 0 105 -31l181 -181 q33 -33 33 -80z" />
<glyph horiz-adv-x="1208" d="M1278 -3h-154q-108 0 -163 63q-51 -63 -161 -63h-870v208h870v615h-600q-2 98 54.5 153t155.5 55h598v-823h270v-208zM918 1684q0 -55 -60 -114l-253 253l-253 -253q-60 58 -60 114q0 47 33 80l181 181q31 31 93 31q74 0 105 -31l181 -181q33 -33 33 -80z" />
<glyph horiz-adv-x="1208" d="M1008 206q0 -98 -55 -153.5t-153 -55.5h-870v208h870v615h-600q-2 98 54.5 153t155.5 55h598v-822zM912 1684q0 -55 -60 -114l-253 253l-253 -253q-60 58 -60 114q0 47 33 80l181 181q31 31 93 31q74 0 105 -31l181 -181q33 -33 33 -80z" />
<glyph horiz-adv-x="1208" d="M1008 206q0 -98 -55 -153.5t-153 -55.5h-600q-2 98 54.5 153t155.5 55h390v615h-600q-2 98 54.5 153t155.5 55h598v-822zM908 1684q0 -55 -60 -114l-253 253l-253 -253q-60 58 -60 114q0 47 33 80l181 181q31 31 93 31q74 0 105 -31l181 -181q33 -33 33 -80z" />
<glyph horiz-adv-x="1433" d="M1503 -3h-565q-107 0 -164 63q-56 -63 -161 -63v619q-174 25 -285 118q-128 106 -128 271q0 184 173 302q153 104 346 104q192 0 344 -105q170 -117 170 -301q0 -165 -128 -272q-112 -94 -285 -117v-411h683v-208zM1029 1016q0 108 -109 164q-86 44 -205 44 q-117 0 -203 -45q-108 -56 -108 -163q0 -105 109 -158q86 -42 202 -42q119 0 204 41q110 53 110 159zM1038 1684q0 -55 -60 -114l-253 253l-253 -253q-60 58 -60 114q0 47 33 80l181 181q31 31 93 31q74 0 105 -31l181 -181q33 -33 33 -80z" />
<glyph horiz-adv-x="1433" d="M1503 -3h-565q-107 0 -164 63q-57 -63 -161 -63h-683v208h683v411q-174 25 -285 118q-128 106 -128 271q0 184 173 302q153 104 346 104q192 0 344 -105q170 -117 170 -301q0 -165 -128 -272q-112 -94 -285 -117v-411h683v-208zM1029 1016q0 108 -109 164q-86 44 -205 44 q-117 0 -203 -45q-108 -56 -108 -163q0 -105 109 -158q86 -42 202 -42q119 0 204 41q110 53 110 159zM1038 1684q0 -55 -60 -114l-253 253l-253 -253q-60 58 -60 114q0 47 33 80l181 181q31 31 93 31q74 0 105 -31l181 -181q33 -33 33 -80z" />
<glyph horiz-adv-x="1433" d="M1233 1005q0 -165 -128 -272q-112 -94 -285 -117v-411q0 -208 -210 -208h-680v208h683v411q-174 25 -285 118q-128 106 -128 271q0 184 173 302q153 104 346 104q192 0 344 -105q170 -117 170 -301zM1029 1016q0 108 -109 164q-86 44 -205 44q-117 0 -203 -45 q-108 -56 -108 -163q0 -105 109 -158q86 -42 202 -42q119 0 204 41q110 53 110 159zM1038 1684q0 -55 -60 -114l-253 253l-253 -253q-60 58 -60 114q0 47 33 80l181 181q31 31 93 31q74 0 105 -31l181 -181q33 -33 33 -80z" />
<glyph horiz-adv-x="1433" d="M1233 1005q0 -165 -128 -272q-112 -94 -285 -117v-411h297q1 -98 -55.5 -153t-154.5 -55h-590q-3 133 90 178q62 30 206 30v411q-174 25 -285 118q-128 106 -128 271q0 184 173 302q153 104 346 104q192 0 344 -105q170 -117 170 -301zM1029 1016q0 108 -109 164 q-86 44 -205 44q-117 0 -203 -45q-108 -56 -108 -163q0 -105 109 -158q86 -42 202 -42q119 0 204 41q110 53 110 159zM1038 1684q0 -55 -60 -114l-253 253l-253 -253q-60 58 -60 114q0 47 33 80l181 181q31 31 93 31q74 0 105 -31l181 -181q33 -33 33 -80z" />
<glyph horiz-adv-x="608" d="M678 -3h-154q-108 0 -163 63q-53 -65 -161 -63v1222q0 99 55 155.5t153 54.5v-1224h270v-208zM477 -235q0 -62 -57 -98q-49 -32 -114 -32q-67 0 -115 31q-57 36 -57 99q0 62 57 98q50 32 115 32t114 -32q57 -36 57 -98zM613 1684q0 -55 -60 -114l-253 253l-253 -253 q-60 58 -60 114q0 47 33 80l181 181q31 31 93 31q74 0 105 -31l181 -181q33 -33 33 -80z" />
<glyph horiz-adv-x="608" d="M678 -3h-154q-108 0 -163 63q-51 -63 -161 -63h-270v208h270v1014q0 99 55 155.5t153 54.5v-1224h270v-208zM469 -235q0 -62 -57 -98q-49 -32 -114 -32q-67 0 -115 31q-57 36 -57 99q0 62 57 98q50 32 115 32t114 -32q57 -36 57 -98zM617 1684q0 -55 -60 -114l-253 253 l-253 -253q-60 58 -60 114q0 47 33 80l181 181q31 31 93 31q74 0 105 -31l181 -181q33 -33 33 -80z" />
<glyph horiz-adv-x="608" d="M408 206q0 -98 -55 -153.5t-153 -55.5h-270v208h270v1014q0 98 55 154.5t153 55.5v-1223zM469 -235q0 -62 -57 -98q-49 -32 -114 -32q-67 0 -115 31q-57 36 -57 99q0 62 57 98q50 32 115 32t114 -32q57 -36 57 -98zM614 1688q0 -55 -60 -114l-253 253l-253 -253 q-60 58 -60 114q0 47 33 80l181 181q31 31 93 31q74 0 105 -31l181 -181q33 -33 33 -80z" />
<glyph horiz-adv-x="608" d="M408 206q0 -98 -55 -154.5t-153 -54.5v1222q0 98 55 154.5t153 55.5v-1223zM475 -235q0 -62 -57 -98q-49 -32 -114 -32q-67 0 -115 31q-57 36 -57 99q0 62 57 98q50 32 115 32t114 -32q57 -36 57 -98zM613 1684q0 -55 -60 -114l-253 253l-253 -253q-60 58 -60 114 q0 47 33 80l181 181q31 31 93 31q74 0 105 -31l181 -181q33 -33 33 -80z" />
<glyph horiz-adv-x="1435" d="M1505 -3h-376q-106 0 -163 62q-115 -62 -248 -62q-220 0 -369 150t-149 370q0 215 151.5 368t365.5 153t366 -154t152 -368q0 -173 -102 -311h372v-208zM1030 525q0 123 -98 199q-90 71 -216 71q-124 0 -214 -72q-98 -77 -98 -198q0 -117 100 -192q91 -68 212 -68 q122 0 213 68q101 74 101 192zM897 -235q0 -62 -57 -98q-49 -32 -114 -32q-67 0 -115 31q-57 36 -57 99q0 62 57 98q50 32 115 32t114 -32q57 -36 57 -98zM1038 1684q0 -55 -60 -114l-253 253l-253 -253q-60 58 -60 114q0 47 33 80l181 181q31 31 93 31q74 0 105 -31 l181 -181q33 -33 33 -80z" />
<glyph horiz-adv-x="1435" d="M1505 -3h-376q-107 0 -163 62q-115 -62 -248 -62q-135 0 -249 62q-57 -62 -163 -62h-376v208h371q-101 138 -101 312q0 215 151.5 368t365.5 153t366 -154t152 -368q0 -173 -102 -311h372v-208zM1030 525q0 123 -98 199q-90 71 -216 71q-124 0 -214 -72q-98 -77 -98 -198 q0 -117 100 -192q91 -68 212 -68q122 0 213 68q101 74 101 192zM897 -235q0 -62 -57 -98q-49 -32 -114 -32q-67 0 -115 31q-57 36 -57 99q0 62 57 98q50 32 115 32t114 -32q57 -36 57 -98zM1038 1684q0 -55 -60 -114l-253 253l-253 -253q-60 58 -60 114q0 47 33 80l181 181 q31 31 93 31q74 0 105 -31l181 -181q33 -33 33 -80z" />
<glyph horiz-adv-x="1435" d="M1235 516q0 -218 -149.5 -368.5t-367.5 -150.5q-135 0 -249 62q-57 -62 -163 -62h-376v208h371q-101 138 -101 312q0 215 151.5 368t365.5 153t366 -154t152 -368zM1030 525q0 123 -98 199q-90 71 -216 71q-124 0 -214 -72q-98 -77 -98 -198q0 -117 100 -192 q91 -68 212 -68q122 0 213 68q101 74 101 192zM897 -235q0 -62 -57 -98q-49 -32 -114 -32q-67 0 -115 31q-57 36 -57 99q0 62 57 98q50 32 115 32t114 -32q57 -36 57 -98zM1038 1684q0 -55 -60 -114l-253 253l-253 -253q-60 58 -60 114q0 47 33 80l181 181q31 31 93 31 q74 0 105 -31l181 -181q33 -33 33 -80z" />
<glyph horiz-adv-x="1435" d="M1235 516q0 -218 -149.5 -368.5t-367.5 -150.5q-220 0 -369 150t-149 370q0 215 151.5 368t365.5 153t366 -154t152 -368zM1030 525q0 123 -98 199q-90 71 -216 71q-124 0 -214 -72q-98 -77 -98 -198q0 -117 100 -192q91 -68 212 -68q122 0 213 68q101 74 101 192z M897 -235q0 -62 -57 -98q-49 -32 -114 -32q-67 0 -115 31q-57 36 -57 99q0 62 57 98q50 32 115 32t114 -32q57 -36 57 -98zM1038 1684q0 -55 -60 -114l-253 253l-253 -253q-60 58 -60 114q0 47 33 80l181 181q31 31 93 31q74 0 105 -31l181 -181q33 -33 33 -80z" />
<glyph horiz-adv-x="1113" d="M1183 -3h-407q-108 0 -163 63q-53 -65 -161 -63v709l-221 474q-31 66 -31 128q0 91 84 128l273 -585l272 585q84 -37 84 -128q0 -62 -31 -128l-222 -475v-500h523v-208zM733 -235q0 -62 -57 -98q-49 -32 -114 -32q-67 0 -115 31q-57 36 -57 99q0 62 57 98q50 32 115 32 t114 -32q57 -36 57 -98zM874 1684q0 -55 -60 -114l-253 253l-253 -253q-60 58 -60 114q0 47 33 80l181 181q31 31 93 31q74 0 105 -31l181 -181q33 -33 33 -80z" />
<glyph horiz-adv-x="1113" d="M1183 -3h-407q-108 0 -163 63q-51 -63 -157 -63h-526v208h522v501l-221 474q-31 66 -31 128q0 91 84 128l273 -585l272 585q84 -37 84 -128q0 -62 -31 -128l-222 -475v-500h523v-208zM733 -235q0 -62 -57 -98q-49 -32 -114 -32q-67 0 -115 31q-57 36 -57 99q0 62 57 98 q50 32 115 32t114 -32q57 -36 57 -98zM874 1684q0 -55 -60 -114l-253 253l-253 -253q-60 58 -60 114q0 47 33 80l181 181q31 31 93 31q74 0 105 -31l181 -181q33 -33 33 -80z" />
<glyph horiz-adv-x="1113" d="M913 1308q0 -62 -31 -128l-222 -475v-499q0 -98 -55 -153.5t-153 -55.5h-522v208h522v501l-221 474q-31 66 -31 128q0 91 84 128l273 -585l272 585q84 -37 84 -128zM733 -235q0 -62 -57 -98q-49 -32 -114 -32q-67 0 -115 31q-57 36 -57 99q0 62 57 98q50 32 115 32 t114 -32q57 -36 57 -98zM874 1684q0 -55 -60 -114l-253 253l-253 -253q-60 58 -60 114q0 47 33 80l181 181q31 31 93 31q74 0 105 -31l181 -181q33 -33 33 -80z" />
<glyph horiz-adv-x="1113" d="M913 1308q0 -62 -31 -128l-222 -475v-499q0 -98 -55 -154.5t-153 -54.5v709l-221 474q-31 66 -31 128q0 91 84 128l273 -585l272 585q84 -37 84 -128zM731 -235q0 -62 -57 -98q-49 -32 -114 -32q-67 0 -115 31q-57 36 -57 99q0 62 57 98q50 32 115 32t114 -32 q57 -36 57 -98zM874 1684q0 -55 -60 -114l-253 253l-253 -253q-60 58 -60 114q0 47 33 80l181 181q31 31 93 31q74 0 105 -31l181 -181q33 -33 33 -80z" />
<glyph horiz-adv-x="1450" d="M1520 -3l-371 -1l-424 652l-423 -652q-102 64 -102 159q0 67 41 130l484 745l484 -745q23 -36 35 -80h276v-208zM897 -235q0 -62 -57 -98q-49 -32 -114 -32q-67 0 -115 31q-57 36 -57 99q0 62 57 98q50 32 115 32t114 -32q57 -36 57 -98zM1038 1684q0 -55 -60 -114 l-253 253l-253 -253q-60 58 -60 114q0 47 33 80l181 181q31 31 93 31q74 0 105 -31l181 -181q33 -33 33 -80z" />
<glyph horiz-adv-x="1450" d="M1520 -3l-371 -1l-424 652l-423 -652l-372 1v208h277q11 44 34 80l484 745l484 -745q23 -36 35 -80h276v-208zM897 -235q0 -62 -57 -98q-49 -32 -114 -32q-67 0 -115 31q-57 36 -57 99q0 62 57 98q50 32 115 32t114 -32q57 -36 57 -98zM1038 1684q0 -55 -60 -114 l-253 253l-253 -253q-60 58 -60 114q0 47 33 80l181 181q31 31 93 31q74 0 105 -31l181 -181q33 -33 33 -80z" />
<glyph horiz-adv-x="1450" d="M1250 155q0 -95 -101 -159l-424 652l-423 -652l-372 1v208h277q11 44 34 80l484 745l484 -745q41 -63 41 -130zM897 -235q0 -62 -57 -98q-49 -32 -114 -32q-67 0 -115 31q-57 36 -57 99q0 62 57 98q50 32 115 32t114 -32q57 -36 57 -98zM1038 1684q0 -55 -60 -114 l-253 253l-253 -253q-60 58 -60 114q0 47 33 80l181 181q31 31 93 31q74 0 105 -31l181 -181q33 -33 33 -80z" />
<glyph horiz-adv-x="1450" d="M1250 155q0 -95 -101 -159l-424 652l-423 -652q-102 64 -102 159q0 67 41 130l484 745l484 -745q41 -63 41 -130zM897 -235q0 -62 -57 -98q-49 -32 -114 -32q-67 0 -115 31q-57 36 -57 99q0 62 57 98q50 32 115 32t114 -32q57 -36 57 -98zM1038 1684q0 -55 -60 -114 l-253 253l-253 -253q-60 58 -60 114q0 47 33 80l181 181q31 31 93 31q74 0 105 -31l181 -181q33 -33 33 -80z" />
<glyph horiz-adv-x="1243" d="M1313 -3h-154q-108 0 -164 63q-50 -63 -160 -63h-347q-113 0 -166 66q-39 -68 -122 -66v821q0 86 34 143q41 69 122 67v-823h479v613q0 99 55 155.5t153 54.5v-823h270v-208zM776 -235q0 -62 -57 -98q-49 -32 -114 -32q-67 0 -115 31q-57 36 -57 99q0 62 57 98 q50 32 115 32t114 -32q57 -36 57 -98zM914 1684q0 -55 -60 -114l-253 253l-253 -253q-60 58 -60 114q0 47 33 80l181 181q31 31 93 31q74 0 105 -31l181 -181q33 -33 33 -80z" />
<glyph horiz-adv-x="1243" d="M1313 -3h-154q-108 0 -164 63q-50 -63 -160 -63h-347q-113 0 -166 66q-38 -66 -122 -66h-270v208h270v613q0 86 34 143q41 69 122 67v-823h479v613q0 99 55 155.5t153 54.5v-823h270v-208zM776 -235q0 -62 -57 -98q-49 -32 -114 -32q-67 0 -115 31q-57 36 -57 99 q0 62 57 98q50 32 115 32t114 -32q57 -36 57 -98zM914 1684q0 -55 -60 -114l-253 253l-253 -253q-60 58 -60 114q0 47 33 80l181 181q31 31 93 31q74 0 105 -31l181 -181q33 -33 33 -80z" />
<glyph horiz-adv-x="1243" d="M1043 206q0 -98 -55 -153.5t-153 -55.5h-347q-113 0 -166 66q-38 -66 -122 -66h-270v208h270v613q0 86 34 143q41 69 122 67v-823h479v613q0 99 55 155.5t153 54.5v-822zM768 -235q0 -62 -57 -98q-49 -32 -114 -32q-67 0 -115 31q-57 36 -57 99q0 62 57 98q50 32 115 32 t114 -32q57 -36 57 -98zM911 1684q0 -55 -60 -114l-253 253l-253 -253q-60 58 -60 114q0 47 33 80l181 181q31 31 93 31q74 0 105 -31l181 -181q33 -33 33 -80z" />
<glyph horiz-adv-x="1243" d="M1043 206q0 -98 -55 -153.5t-153 -55.5h-347q-113 0 -166 66q-39 -68 -122 -66v821q0 86 34 143q41 69 122 67v-823h479v613q0 99 55 155.5t153 54.5v-822zM773 -235q0 -62 -57 -98q-49 -32 -114 -32q-67 0 -115 31q-57 36 -57 99q0 62 57 98q50 32 115 32t114 -32 q57 -36 57 -98zM920 1684q0 -55 -60 -114l-253 253l-253 -253q-60 58 -60 114q0 47 33 80l181 181q31 31 93 31q74 0 105 -31l181 -181q33 -33 33 -80z" />
<glyph horiz-adv-x="1208" d="M1278 -3h-154q-108 0 -163 63q-51 -63 -161 -63h-600q-2 98 54.5 153t155.5 55h390v615h-600q-2 98 54.5 153t155.5 55h598v-823h270v-208zM779 -235q0 -62 -57 -98q-49 -32 -114 -32q-67 0 -115 31q-57 36 -57 99q0 62 57 98q50 32 115 32t114 -32q57 -36 57 -98z M916 1684q0 -55 -60 -114l-253 253l-253 -253q-60 58 -60 114q0 47 33 80l181 181q31 31 93 31q74 0 105 -31l181 -181q33 -33 33 -80z" />
<glyph horiz-adv-x="1208" d="M1278 -3h-154q-108 0 -163 63q-51 -63 -161 -63h-870v208h870v615h-600q-2 98 54.5 153t155.5 55h598v-823h270v-208zM779 -235q0 -62 -57 -98q-49 -32 -114 -32q-67 0 -115 31q-57 36 -57 99q0 62 57 98q50 32 115 32t114 -32q57 -36 57 -98zM919 1684q0 -55 -60 -114 l-253 253l-253 -253q-60 58 -60 114q0 47 33 80l181 181q31 31 93 31q74 0 105 -31l181 -181q33 -33 33 -80z" />
<glyph horiz-adv-x="1208" d="M1008 206q0 -98 -55 -153.5t-153 -55.5h-870v208h870v615h-600q-2 98 54.5 153t155.5 55h598v-822zM776 -235q0 -62 -57 -98q-49 -32 -114 -32q-67 0 -115 31q-57 36 -57 99q0 62 57 98q50 32 115 32t114 -32q57 -36 57 -98zM920 1684q0 -55 -60 -114l-253 253l-253 -253 q-60 58 -60 114q0 47 33 80l181 181q31 31 93 31q74 0 105 -31l181 -181q33 -33 33 -80z" />
<glyph horiz-adv-x="1208" d="M1008 206q0 -98 -55 -153.5t-153 -55.5h-600q-2 98 54.5 153t155.5 55h390v615h-600q-2 98 54.5 153t155.5 55h598v-822zM772 -235q0 -62 -57 -98q-49 -32 -114 -32q-67 0 -115 31q-57 36 -57 99q0 62 57 98q50 32 115 32t114 -32q57 -36 57 -98zM917 1684 q0 -55 -60 -114l-253 253l-253 -253q-60 58 -60 114q0 47 33 80l181 181q31 31 93 31q74 0 105 -31l181 -181q33 -33 33 -80z" />
<glyph horiz-adv-x="1433" d="M1503 -3h-565q-107 0 -164 63q-56 -63 -161 -63v619q-174 25 -285 118q-128 106 -128 271q0 184 173 302q153 104 346 104q192 0 344 -105q170 -117 170 -301q0 -165 -128 -272q-112 -94 -285 -117v-411h683v-208zM1029 1016q0 108 -109 164q-86 44 -205 44 q-117 0 -203 -45q-108 -56 -108 -163q0 -105 109 -158q86 -42 202 -42q119 0 204 41q110 53 110 159zM897 -235q0 -62 -57 -98q-49 -32 -114 -32q-67 0 -115 31q-57 36 -57 99q0 62 57 98q50 32 115 32t114 -32q57 -36 57 -98zM1038 1684q0 -55 -60 -114l-253 253l-253 -253 q-60 58 -60 114q0 47 33 80l181 181q31 31 93 31q74 0 105 -31l181 -181q33 -33 33 -80z" />
<glyph horiz-adv-x="1433" d="M1503 -3h-565q-107 0 -164 63q-57 -63 -161 -63h-683v208h683v411q-174 25 -285 118q-128 106 -128 271q0 184 173 302q153 104 346 104q192 0 344 -105q170 -117 170 -301q0 -165 -128 -272q-112 -94 -285 -117v-411h683v-208zM1029 1016q0 108 -109 164q-86 44 -205 44 q-117 0 -203 -45q-108 -56 -108 -163q0 -105 109 -158q86 -42 202 -42q119 0 204 41q110 53 110 159zM897 -235q0 -62 -57 -98q-49 -32 -114 -32q-67 0 -115 31q-57 36 -57 99q0 62 57 98q50 32 115 32t114 -32q57 -36 57 -98zM1038 1684q0 -55 -60 -114l-253 253l-253 -253 q-60 58 -60 114q0 47 33 80l181 181q31 31 93 31q74 0 105 -31l181 -181q33 -33 33 -80z" />
<glyph horiz-adv-x="1433" d="M1233 1005q0 -165 -128 -272q-112 -94 -285 -117v-411q0 -208 -210 -208h-680v208h683v411q-174 25 -285 118q-128 106 -128 271q0 184 173 302q153 104 346 104q192 0 344 -105q170 -117 170 -301zM1029 1016q0 108 -109 164q-86 44 -205 44q-117 0 -203 -45 q-108 -56 -108 -163q0 -105 109 -158q86 -42 202 -42q119 0 204 41q110 53 110 159zM897 -235q0 -62 -57 -98q-49 -32 -114 -32q-67 0 -115 31q-57 36 -57 99q0 62 57 98q50 32 115 32t114 -32q57 -36 57 -98zM1038 1684q0 -55 -60 -114l-253 253l-253 -253q-60 58 -60 114 q0 47 33 80l181 181q31 31 93 31q74 0 105 -31l181 -181q33 -33 33 -80z" />
<glyph horiz-adv-x="1433" d="M1233 1005q0 -165 -128 -272q-112 -94 -285 -117v-411h297q1 -98 -55.5 -153t-154.5 -55h-590q-3 133 90 178q62 30 206 30v411q-174 25 -285 118q-128 106 -128 271q0 184 173 302q153 104 346 104q192 0 344 -105q170 -117 170 -301zM1029 1016q0 108 -109 164 q-86 44 -205 44q-117 0 -203 -45q-108 -56 -108 -163q0 -105 109 -158q86 -42 202 -42q119 0 204 41q110 53 110 159zM897 -235q0 -62 -57 -98q-49 -32 -114 -32q-67 0 -115 31q-57 36 -57 99q0 62 57 98q50 32 115 32t114 -32q57 -36 57 -98zM1038 1684q0 -55 -60 -114 l-253 253l-253 -253q-60 58 -60 114q0 47 33 80l181 181q31 31 93 31q74 0 105 -31l181 -181q33 -33 33 -80z" />
<glyph horiz-adv-x="608" d="M678 -3h-154q-108 0 -163 63q-53 -65 -161 -63v1222q0 99 55 155.5t153 54.5v-1224h270v-208zM741 1780q2 -73 -41 -114.5t-116 -41.5h-717q-2 73 41 114.5t116 41.5h717z" />
<glyph horiz-adv-x="608" d="M678 -3h-154q-108 0 -163 63q-51 -63 -161 -63h-270v208h270v1014q0 99 55 155.5t153 54.5v-1224h270v-208zM742 1780q2 -73 -41 -114.5t-116 -41.5h-717q-2 73 41 114.5t116 41.5h717z" />
<glyph horiz-adv-x="608" d="M408 206q0 -98 -55 -153.5t-153 -55.5h-270v208h270v1014q0 98 55 154.5t153 55.5v-1223zM748 1780q2 -73 -41 -114.5t-116 -41.5h-717q-2 73 41 114.5t116 41.5h717z" />
<glyph horiz-adv-x="608" d="M408 206q0 -98 -55 -154.5t-153 -54.5v1222q0 98 55 154.5t153 55.5v-1223zM744 1780q2 -73 -41 -114.5t-116 -41.5h-717q-2 73 41 114.5t116 41.5h717z" />
<glyph horiz-adv-x="1435" d="M1505 -3h-376q-106 0 -163 62q-115 -62 -248 -62q-220 0 -369 150t-149 370q0 215 151.5 368t365.5 153t366 -154t152 -368q0 -173 -102 -311h372v-208zM1030 525q0 123 -98 199q-90 71 -216 71q-124 0 -214 -72q-98 -77 -98 -198q0 -117 100 -192q91 -68 212 -68 q122 0 213 68q101 74 101 192zM1162 1780q2 -73 -41 -114.5t-116 -41.5h-717q-2 73 41 114.5t116 41.5h717z" />
<glyph horiz-adv-x="1435" d="M1505 -3h-376q-107 0 -163 62q-115 -62 -248 -62q-135 0 -249 62q-57 -62 -163 -62h-376v208h371q-101 138 -101 312q0 215 151.5 368t365.5 153t366 -154t152 -368q0 -173 -102 -311h372v-208zM1030 525q0 123 -98 199q-90 71 -216 71q-124 0 -214 -72q-98 -77 -98 -198 q0 -117 100 -192q91 -68 212 -68q122 0 213 68q101 74 101 192zM1162 1780q2 -73 -41 -114.5t-116 -41.5h-717q-2 73 41 114.5t116 41.5h717z" />
<glyph horiz-adv-x="1435" d="M1235 516q0 -218 -149.5 -368.5t-367.5 -150.5q-135 0 -249 62q-57 -62 -163 -62h-376v208h371q-101 138 -101 312q0 215 151.5 368t365.5 153t366 -154t152 -368zM1030 525q0 123 -98 199q-90 71 -216 71q-124 0 -214 -72q-98 -77 -98 -198q0 -117 100 -192 q91 -68 212 -68q122 0 213 68q101 74 101 192zM1162 1780q2 -73 -41 -114.5t-116 -41.5h-717q-2 73 41 114.5t116 41.5h717z" />
<glyph horiz-adv-x="1435" d="M1235 516q0 -218 -149.5 -368.5t-367.5 -150.5q-220 0 -369 150t-149 370q0 215 151.5 368t365.5 153t366 -154t152 -368zM1030 525q0 123 -98 199q-90 71 -216 71q-124 0 -214 -72q-98 -77 -98 -198q0 -117 100 -192q91 -68 212 -68q122 0 213 68q101 74 101 192z M1162 1780q2 -73 -41 -114.5t-116 -41.5h-717q-2 73 41 114.5t116 41.5h717z" />
<glyph horiz-adv-x="1113" d="M1183 -3h-407q-108 0 -163 63q-53 -65 -161 -63v709l-221 474q-31 66 -31 128q0 91 84 128l273 -585l272 585q84 -37 84 -128q0 -62 -31 -128l-222 -475v-500h523v-208zM995 1780q2 -73 -41 -114.5t-116 -41.5h-717q-2 73 41 114.5t116 41.5h717z" />
<glyph horiz-adv-x="1113" d="M1183 -3h-407q-108 0 -163 63q-51 -63 -157 -63h-526v208h522v501l-221 474q-31 66 -31 128q0 91 84 128l273 -585l272 585q84 -37 84 -128q0 -62 -31 -128l-222 -475v-500h523v-208zM996 1780q2 -73 -41 -114.5t-116 -41.5h-717q-2 73 41 114.5t116 41.5h717z" />
<glyph horiz-adv-x="1113" d="M913 1308q0 -62 -31 -128l-222 -475v-499q0 -98 -55 -153.5t-153 -55.5h-522v208h522v501l-221 474q-31 66 -31 128q0 91 84 128l273 -585l272 585q84 -37 84 -128zM996 1780q2 -73 -41 -114.5t-116 -41.5h-717q-2 73 41 114.5t116 41.5h717z" />
<glyph horiz-adv-x="1113" d="M913 1308q0 -62 -31 -128l-222 -475v-499q0 -98 -55 -154.5t-153 -54.5v709l-221 474q-31 66 -31 128q0 91 84 128l273 -585l272 585q84 -37 84 -128zM994 1780q2 -73 -41 -114.5t-116 -41.5h-717q-2 73 41 114.5t116 41.5h717z" />
<glyph horiz-adv-x="1450" d="M1520 -3l-371 -1l-424 652l-423 -652q-102 64 -102 159q0 67 41 130l484 745l484 -745q23 -36 35 -80h276v-208zM1162 1780q2 -73 -41 -114.5t-116 -41.5h-717q-2 73 41 114.5t116 41.5h717z" />
<glyph horiz-adv-x="1450" d="M1520 -3l-371 -1l-424 652l-423 -652l-372 1v208h277q11 44 34 80l484 745l484 -745q23 -36 35 -80h276v-208zM1162 1780q2 -73 -41 -114.5t-116 -41.5h-717q-2 73 41 114.5t116 41.5h717z" />
<glyph horiz-adv-x="1450" d="M1250 155q0 -95 -101 -159l-424 652l-423 -652l-372 1v208h277q11 44 34 80l484 745l484 -745q41 -63 41 -130zM1162 1780q2 -73 -41 -114.5t-116 -41.5h-717q-2 73 41 114.5t116 41.5h717z" />
<glyph horiz-adv-x="1450" d="M1250 155q0 -95 -101 -159l-424 652l-423 -652q-102 64 -102 159q0 67 41 130l484 745l484 -745q41 -63 41 -130zM1162 1780q2 -73 -41 -114.5t-116 -41.5h-717q-2 73 41 114.5t116 41.5h717z" />
<glyph horiz-adv-x="1243" d="M1313 -3h-154q-108 0 -164 63q-50 -63 -160 -63h-347q-113 0 -166 66q-39 -68 -122 -66v821q0 86 34 143q41 69 122 67v-823h479v613q0 99 55 155.5t153 54.5v-823h270v-208zM1041 1780q2 -73 -41 -114.5t-116 -41.5h-717q-2 73 41 114.5t116 41.5h717z" />
<glyph horiz-adv-x="1243" d="M1313 -3h-154q-108 0 -164 63q-50 -63 -160 -63h-347q-113 0 -166 66q-38 -66 -122 -66h-270v208h270v613q0 86 34 143q41 69 122 67v-823h479v613q0 99 55 155.5t153 54.5v-823h270v-208zM1045 1780q2 -73 -41 -114.5t-116 -41.5h-717q-2 73 41 114.5t116 41.5h717z" />
<glyph horiz-adv-x="1243" d="M1043 206q0 -98 -55 -153.5t-153 -55.5h-347q-113 0 -166 66q-38 -66 -122 -66h-270v208h270v613q0 86 34 143q41 69 122 67v-823h479v613q0 99 55 155.5t153 54.5v-822zM1037 1780q2 -73 -41 -114.5t-116 -41.5h-717q-2 73 41 114.5t116 41.5h717z" />
<glyph horiz-adv-x="1243" d="M1043 206q0 -98 -55 -153.5t-153 -55.5h-347q-113 0 -166 66q-39 -68 -122 -66v821q0 86 34 143q41 69 122 67v-823h479v613q0 99 55 155.5t153 54.5v-822zM1037 1780q2 -73 -41 -114.5t-116 -41.5h-717q-2 73 41 114.5t116 41.5h717z" />
<glyph horiz-adv-x="1208" d="M1278 -3h-154q-108 0 -163 63q-51 -63 -161 -63h-600q-2 98 54.5 153t155.5 55h390v615h-600q-2 98 54.5 153t155.5 55h598v-823h270v-208zM1038 1780q2 -73 -41 -114.5t-116 -41.5h-717q-2 73 41 114.5t116 41.5h717z" />
<glyph horiz-adv-x="1208" d="M1278 -3h-154q-108 0 -163 63q-51 -63 -161 -63h-870v208h870v615h-600q-2 98 54.5 153t155.5 55h598v-823h270v-208zM1037 1780q2 -73 -41 -114.5t-116 -41.5h-717q-2 73 41 114.5t116 41.5h717z" />
<glyph horiz-adv-x="1208" d="M1008 206q0 -98 -55 -153.5t-153 -55.5h-870v208h870v615h-600q-2 98 54.5 153t155.5 55h598v-822zM1037 1780q2 -73 -41 -114.5t-116 -41.5h-717q-2 73 41 114.5t116 41.5h717z" />
<glyph horiz-adv-x="1208" d="M1008 206q0 -98 -55 -153.5t-153 -55.5h-600q-2 98 54.5 153t155.5 55h390v615h-600q-2 98 54.5 153t155.5 55h598v-822zM1037 1780q2 -73 -41 -114.5t-116 -41.5h-717q-2 73 41 114.5t116 41.5h717z" />
<glyph horiz-adv-x="1433" d="M1503 -3h-565q-107 0 -164 63q-56 -63 -161 -63v619q-174 25 -285 118q-128 106 -128 271q0 184 173 302q153 104 346 104q192 0 344 -105q170 -117 170 -301q0 -165 -128 -272q-112 -94 -285 -117v-411h683v-208zM1029 1016q0 108 -109 164q-86 44 -205 44 q-117 0 -203 -45q-108 -56 -108 -163q0 -105 109 -158q86 -42 202 -42q119 0 204 41q110 53 110 159zM1162 1780q2 -73 -41 -114.5t-116 -41.5h-717q-2 73 41 114.5t116 41.5h717z" />
<glyph horiz-adv-x="1433" d="M1503 -3h-565q-107 0 -164 63q-57 -63 -161 -63h-683v208h683v411q-174 25 -285 118q-128 106 -128 271q0 184 173 302q153 104 346 104q192 0 344 -105q170 -117 170 -301q0 -165 -128 -272q-112 -94 -285 -117v-411h683v-208zM1029 1016q0 108 -109 164q-86 44 -205 44 q-117 0 -203 -45q-108 -56 -108 -163q0 -105 109 -158q86 -42 202 -42q119 0 204 41q110 53 110 159zM1162 1780q2 -73 -41 -114.5t-116 -41.5h-717q-2 73 41 114.5t116 41.5h717z" />
<glyph horiz-adv-x="1433" d="M1233 1005q0 -165 -128 -272q-112 -94 -285 -117v-411q0 -208 -210 -208h-680v208h683v411q-174 25 -285 118q-128 106 -128 271q0 184 173 302q153 104 346 104q192 0 344 -105q170 -117 170 -301zM1029 1016q0 108 -109 164q-86 44 -205 44q-117 0 -203 -45 q-108 -56 -108 -163q0 -105 109 -158q86 -42 202 -42q119 0 204 41q110 53 110 159zM1162 1780q2 -73 -41 -114.5t-116 -41.5h-717q-2 73 41 114.5t116 41.5h717z" />
<glyph horiz-adv-x="1433" d="M1233 1005q0 -165 -128 -272q-112 -94 -285 -117v-411h297q1 -98 -55.5 -153t-154.5 -55h-590q-3 133 90 178q62 30 206 30v411q-174 25 -285 118q-128 106 -128 271q0 184 173 302q153 104 346 104q192 0 344 -105q170 -117 170 -301zM1029 1016q0 108 -109 164 q-86 44 -205 44q-117 0 -203 -45q-108 -56 -108 -163q0 -105 109 -158q86 -42 202 -42q119 0 204 41q110 53 110 159zM1162 1780q2 -73 -41 -114.5t-116 -41.5h-717q-2 73 41 114.5t116 41.5h717z" />
<glyph horiz-adv-x="608" d="M678 -3h-154q-108 0 -163 63q-53 -65 -161 -63v1222q0 99 55 155.5t153 54.5v-1224h270v-208zM476 -235q0 -62 -57 -98q-49 -32 -114 -32q-67 0 -115 31q-57 36 -57 99q0 62 57 98q50 32 115 32t114 -32q57 -36 57 -98zM731 1780q2 -73 -41 -114.5t-116 -41.5h-717 q-2 73 41 114.5t116 41.5h717z" />
<glyph horiz-adv-x="608" d="M678 -3h-154q-108 0 -163 63q-51 -63 -161 -63h-270v208h270v1014q0 99 55 155.5t153 54.5v-1224h270v-208zM473 -235q0 -62 -57 -98q-49 -32 -114 -32q-67 0 -115 31q-57 36 -57 99q0 62 57 98q50 32 115 32t114 -32q57 -36 57 -98zM746 1780q2 -73 -41 -114.5 t-116 -41.5h-717q-2 73 41 114.5t116 41.5h717z" />
<glyph horiz-adv-x="608" d="M408 206q0 -98 -55 -153.5t-153 -55.5h-270v208h270v1014q0 98 55 154.5t153 55.5v-1223zM482 -235q0 -62 -57 -98q-49 -32 -114 -32q-67 0 -115 31q-57 36 -57 99q0 62 57 98q50 32 115 32t114 -32q57 -36 57 -98zM737 1780q2 -73 -41 -114.5t-116 -41.5h-717 q-2 73 41 114.5t116 41.5h717z" />
<glyph horiz-adv-x="608" d="M408 206q0 -98 -55 -154.5t-153 -54.5v1222q0 98 55 154.5t153 55.5v-1223zM473 -235q0 -62 -57 -98q-49 -32 -114 -32q-67 0 -115 31q-57 36 -57 99q0 62 57 98q50 32 115 32t114 -32q57 -36 57 -98zM740 1780q2 -73 -41 -114.5t-116 -41.5h-717q-2 73 41 114.5 t116 41.5h717z" />
<glyph horiz-adv-x="1435" d="M1505 -3h-376q-106 0 -163 62q-115 -62 -248 -62q-220 0 -369 150t-149 370q0 215 151.5 368t365.5 153t366 -154t152 -368q0 -173 -102 -311h372v-208zM1030 525q0 123 -98 199q-90 71 -216 71q-124 0 -214 -72q-98 -77 -98 -198q0 -117 100 -192q91 -68 212 -68 q122 0 213 68q101 74 101 192zM897 -235q0 -62 -57 -98q-49 -32 -114 -32q-67 0 -115 31q-57 36 -57 99q0 62 57 98q50 32 115 32t114 -32q57 -36 57 -98zM1162 1780q2 -73 -41 -114.5t-116 -41.5h-717q-2 73 41 114.5t116 41.5h717z" />
<glyph horiz-adv-x="1435" d="M1505 -3h-376q-107 0 -163 62q-115 -62 -248 -62q-135 0 -249 62q-57 -62 -163 -62h-376v208h371q-101 138 -101 312q0 215 151.5 368t365.5 153t366 -154t152 -368q0 -173 -102 -311h372v-208zM1030 525q0 123 -98 199q-90 71 -216 71q-124 0 -214 -72q-98 -77 -98 -198 q0 -117 100 -192q91 -68 212 -68q122 0 213 68q101 74 101 192zM897 -235q0 -62 -57 -98q-49 -32 -114 -32q-67 0 -115 31q-57 36 -57 99q0 62 57 98q50 32 115 32t114 -32q57 -36 57 -98zM1162 1780q2 -73 -41 -114.5t-116 -41.5h-717q-2 73 41 114.5t116 41.5h717z" />
<glyph horiz-adv-x="1435" d="M1235 516q0 -218 -149.5 -368.5t-367.5 -150.5q-135 0 -249 62q-57 -62 -163 -62h-376v208h371q-101 138 -101 312q0 215 151.5 368t365.5 153t366 -154t152 -368zM1030 525q0 123 -98 199q-90 71 -216 71q-124 0 -214 -72q-98 -77 -98 -198q0 -117 100 -192 q91 -68 212 -68q122 0 213 68q101 74 101 192zM897 -235q0 -62 -57 -98q-49 -32 -114 -32q-67 0 -115 31q-57 36 -57 99q0 62 57 98q50 32 115 32t114 -32q57 -36 57 -98zM1162 1780q2 -73 -41 -114.5t-116 -41.5h-717q-2 73 41 114.5t116 41.5h717z" />
<glyph horiz-adv-x="1435" d="M1235 516q0 -218 -149.5 -368.5t-367.5 -150.5q-220 0 -369 150t-149 370q0 215 151.5 368t365.5 153t366 -154t152 -368zM1030 525q0 123 -98 199q-90 71 -216 71q-124 0 -214 -72q-98 -77 -98 -198q0 -117 100 -192q91 -68 212 -68q122 0 213 68q101 74 101 192z M897 -235q0 -62 -57 -98q-49 -32 -114 -32q-67 0 -115 31q-57 36 -57 99q0 62 57 98q50 32 115 32t114 -32q57 -36 57 -98zM1162 1780q2 -73 -41 -114.5t-116 -41.5h-717q-2 73 41 114.5t116 41.5h717z" />
<glyph horiz-adv-x="1113" d="M1183 -3h-407q-108 0 -163 63q-53 -65 -161 -63v709l-221 474q-31 66 -31 128q0 91 84 128l273 -585l272 585q84 -37 84 -128q0 -62 -31 -128l-222 -475v-500h523v-208zM732 -235q0 -62 -57 -98q-49 -32 -114 -32q-67 0 -115 31q-57 36 -57 99q0 62 57 98q50 32 115 32 t114 -32q57 -36 57 -98zM998 1780q2 -73 -41 -114.5t-116 -41.5h-717q-2 73 41 114.5t116 41.5h717z" />
<glyph horiz-adv-x="1113" d="M1183 -3h-407q-108 0 -163 63q-51 -63 -157 -63h-526v208h522v501l-221 474q-31 66 -31 128q0 91 84 128l273 -585l272 585q84 -37 84 -128q0 -62 -31 -128l-222 -475v-500h523v-208zM733 -235q0 -62 -57 -98q-49 -32 -114 -32q-67 0 -115 31q-57 36 -57 99q0 62 57 98 q50 32 115 32t114 -32q57 -36 57 -98zM998 1780q2 -73 -41 -114.5t-116 -41.5h-717q-2 73 41 114.5t116 41.5h717z" />
<glyph horiz-adv-x="1113" d="M913 1308q0 -62 -31 -128l-222 -475v-499q0 -98 -55 -153.5t-153 -55.5h-522v208h522v501l-221 474q-31 66 -31 128q0 91 84 128l273 -585l272 585q84 -37 84 -128zM732 -235q0 -62 -57 -98q-49 -32 -114 -32q-67 0 -115 31q-57 36 -57 99q0 62 57 98q50 32 115 32 t114 -32q57 -36 57 -98zM998 1780q2 -73 -41 -114.5t-116 -41.5h-717q-2 73 41 114.5t116 41.5h717z" />
<glyph horiz-adv-x="1113" d="M913 1308q0 -62 -31 -128l-222 -475v-499q0 -98 -55 -154.5t-153 -54.5v709l-221 474q-31 66 -31 128q0 91 84 128l273 -585l272 585q84 -37 84 -128zM733 -235q0 -62 -57 -98q-49 -32 -114 -32q-67 0 -115 31q-57 36 -57 99q0 62 57 98q50 32 115 32t114 -32 q57 -36 57 -98zM998 1780q2 -73 -41 -114.5t-116 -41.5h-717q-2 73 41 114.5t116 41.5h717z" />
<glyph horiz-adv-x="1450" d="M1520 -3l-371 -1l-424 652l-423 -652q-102 64 -102 159q0 67 41 130l484 745l484 -745q23 -36 35 -80h276v-208zM897 -235q0 -62 -57 -98q-49 -32 -114 -32q-67 0 -115 31q-57 36 -57 99q0 62 57 98q50 32 115 32t114 -32q57 -36 57 -98zM1162 1780q2 -73 -41 -114.5 t-116 -41.5h-717q-2 73 41 114.5t116 41.5h717z" />
<glyph horiz-adv-x="1450" d="M1520 -3l-371 -1l-424 652l-423 -652l-372 1v208h277q11 44 34 80l484 745l484 -745q23 -36 35 -80h276v-208zM897 -235q0 -62 -57 -98q-49 -32 -114 -32q-67 0 -115 31q-57 36 -57 99q0 62 57 98q50 32 115 32t114 -32q57 -36 57 -98zM1162 1780q2 -73 -41 -114.5 t-116 -41.5h-717q-2 73 41 114.5t116 41.5h717z" />
<glyph horiz-adv-x="1450" d="M1250 155q0 -95 -101 -159l-424 652l-423 -652l-372 1v208h277q11 44 34 80l484 745l484 -745q41 -63 41 -130zM897 -235q0 -62 -57 -98q-49 -32 -114 -32q-67 0 -115 31q-57 36 -57 99q0 62 57 98q50 32 115 32t114 -32q57 -36 57 -98zM1162 1780q2 -73 -41 -114.5 t-116 -41.5h-717q-2 73 41 114.5t116 41.5h717z" />
<glyph horiz-adv-x="1450" d="M1250 155q0 -95 -101 -159l-424 652l-423 -652q-102 64 -102 159q0 67 41 130l484 745l484 -745q41 -63 41 -130zM897 -235q0 -62 -57 -98q-49 -32 -114 -32q-67 0 -115 31q-57 36 -57 99q0 62 57 98q50 32 115 32t114 -32q57 -36 57 -98zM1162 1780q2 -73 -41 -114.5 t-116 -41.5h-717q-2 73 41 114.5t116 41.5h717z" />
<glyph horiz-adv-x="1243" d="M1313 -3h-154q-108 0 -164 63q-50 -63 -160 -63h-347q-113 0 -166 66q-39 -68 -122 -66v821q0 86 34 143q41 69 122 67v-823h479v613q0 99 55 155.5t153 54.5v-823h270v-208zM779 -235q0 -62 -57 -98q-49 -32 -114 -32q-67 0 -115 31q-57 36 -57 99q0 62 57 98 q50 32 115 32t114 -32q57 -36 57 -98zM1041 1780q2 -73 -41 -114.5t-116 -41.5h-717q-2 73 41 114.5t116 41.5h717z" />
<glyph horiz-adv-x="1243" d="M1313 -3h-154q-108 0 -164 63q-50 -63 -160 -63h-347q-113 0 -166 66q-38 -66 -122 -66h-270v208h270v613q0 86 34 143q41 69 122 67v-823h479v613q0 99 55 155.5t153 54.5v-823h270v-208zM782 -235q0 -62 -57 -98q-49 -32 -114 -32q-67 0 -115 31q-57 36 -57 99 q0 62 57 98q50 32 115 32t114 -32q57 -36 57 -98zM1041 1780q2 -73 -41 -114.5t-116 -41.5h-717q-2 73 41 114.5t116 41.5h717z" />
<glyph horiz-adv-x="1243" d="M1043 206q0 -98 -55 -153.5t-153 -55.5h-347q-113 0 -166 66q-38 -66 -122 -66h-270v208h270v613q0 86 34 143q41 69 122 67v-823h479v613q0 99 55 155.5t153 54.5v-822zM776 -235q0 -62 -57 -98q-49 -32 -114 -32q-67 0 -115 31q-57 36 -57 99q0 62 57 98q50 32 115 32 t114 -32q57 -36 57 -98zM1041 1780q2 -73 -41 -114.5t-116 -41.5h-717q-2 73 41 114.5t116 41.5h717z" />
<glyph horiz-adv-x="1243" d="M1043 206q0 -98 -55 -153.5t-153 -55.5h-347q-113 0 -166 66q-39 -68 -122 -66v821q0 86 34 143q41 69 122 67v-823h479v613q0 99 55 155.5t153 54.5v-822zM779 -235q0 -62 -57 -98q-49 -32 -114 -32q-67 0 -115 31q-57 36 -57 99q0 62 57 98q50 32 115 32t114 -32 q57 -36 57 -98zM1038 1780q2 -73 -41 -114.5t-116 -41.5h-717q-2 73 41 114.5t116 41.5h717z" />
<glyph horiz-adv-x="1208" d="M1278 -3h-154q-108 0 -163 63q-51 -63 -161 -63h-600q-2 98 54.5 153t155.5 55h390v615h-600q-2 98 54.5 153t155.5 55h598v-823h270v-208zM786 -235q0 -62 -57 -98q-49 -32 -114 -32q-67 0 -115 31q-57 36 -57 99q0 62 57 98q50 32 115 32t114 -32q57 -36 57 -98z M1041 1780q2 -73 -41 -114.5t-116 -41.5h-717q-2 73 41 114.5t116 41.5h717z" />
<glyph horiz-adv-x="1208" d="M1278 -3h-154q-108 0 -163 63q-51 -63 -161 -63h-870v208h870v615h-600q-2 98 54.5 153t155.5 55h598v-823h270v-208zM782 -235q0 -62 -57 -98q-49 -32 -114 -32q-67 0 -115 31q-57 36 -57 99q0 62 57 98q50 32 115 32t114 -32q57 -36 57 -98zM1044 1780 q2 -73 -41 -114.5t-116 -41.5h-717q-2 73 41 114.5t116 41.5h717z" />
<glyph horiz-adv-x="1208" d="M1008 206q0 -98 -55 -153.5t-153 -55.5h-870v208h870v615h-600q-2 98 54.5 153t155.5 55h598v-822zM781 -235q0 -62 -57 -98q-49 -32 -114 -32q-67 0 -115 31q-57 36 -57 99q0 62 57 98q50 32 115 32t114 -32q57 -36 57 -98zM1044 1780q2 -73 -41 -114.5t-116 -41.5h-717 q-2 73 41 114.5t116 41.5h717z" />
<glyph horiz-adv-x="1208" d="M1008 206q0 -98 -55 -153.5t-153 -55.5h-600q-2 98 54.5 153t155.5 55h390v615h-600q-2 98 54.5 153t155.5 55h598v-822zM774 -235q0 -62 -57 -98q-49 -32 -114 -32q-67 0 -115 31q-57 36 -57 99q0 62 57 98q50 32 115 32t114 -32q57 -36 57 -98zM1037 1780 q2 -73 -41 -114.5t-116 -41.5h-717q-2 73 41 114.5t116 41.5h717z" />
<glyph horiz-adv-x="1433" d="M1503 -3h-565q-107 0 -164 63q-56 -63 -161 -63v619q-174 25 -285 118q-128 106 -128 271q0 184 173 302q153 104 346 104q192 0 344 -105q170 -117 170 -301q0 -165 -128 -272q-112 -94 -285 -117v-411h683v-208zM1029 1016q0 108 -109 164q-86 44 -205 44 q-117 0 -203 -45q-108 -56 -108 -163q0 -105 109 -158q86 -42 202 -42q119 0 204 41q110 53 110 159zM897 -235q0 -62 -57 -98q-49 -32 -114 -32q-67 0 -115 31q-57 36 -57 99q0 62 57 98q50 32 115 32t114 -32q57 -36 57 -98zM1162 1780q2 -73 -41 -114.5t-116 -41.5h-717 q-2 73 41 114.5t116 41.5h717z" />
<glyph horiz-adv-x="1433" d="M1503 -3h-565q-107 0 -164 63q-57 -63 -161 -63h-683v208h683v411q-174 25 -285 118q-128 106 -128 271q0 184 173 302q153 104 346 104q192 0 344 -105q170 -117 170 -301q0 -165 -128 -272q-112 -94 -285 -117v-411h683v-208zM1029 1016q0 108 -109 164q-86 44 -205 44 q-117 0 -203 -45q-108 -56 -108 -163q0 -105 109 -158q86 -42 202 -42q119 0 204 41q110 53 110 159zM897 -235q0 -62 -57 -98q-49 -32 -114 -32q-67 0 -115 31q-57 36 -57 99q0 62 57 98q50 32 115 32t114 -32q57 -36 57 -98zM1162 1780q2 -73 -41 -114.5t-116 -41.5h-717 q-2 73 41 114.5t116 41.5h717z" />
<glyph horiz-adv-x="1433" d="M1233 1005q0 -165 -128 -272q-112 -94 -285 -117v-411q0 -208 -210 -208h-680v208h683v411q-174 25 -285 118q-128 106 -128 271q0 184 173 302q153 104 346 104q192 0 344 -105q170 -117 170 -301zM1029 1016q0 108 -109 164q-86 44 -205 44q-117 0 -203 -45 q-108 -56 -108 -163q0 -105 109 -158q86 -42 202 -42q119 0 204 41q110 53 110 159zM897 -235q0 -62 -57 -98q-49 -32 -114 -32q-67 0 -115 31q-57 36 -57 99q0 62 57 98q50 32 115 32t114 -32q57 -36 57 -98zM1162 1780q2 -73 -41 -114.5t-116 -41.5h-717q-2 73 41 114.5 t116 41.5h717z" />
<glyph horiz-adv-x="1433" d="M1233 1005q0 -165 -128 -272q-112 -94 -285 -117v-411h297q1 -98 -55.5 -153t-154.5 -55h-590q-3 133 90 178q62 30 206 30v411q-174 25 -285 118q-128 106 -128 271q0 184 173 302q153 104 346 104q192 0 344 -105q170 -117 170 -301zM1029 1016q0 108 -109 164 q-86 44 -205 44q-117 0 -203 -45q-108 -56 -108 -163q0 -105 109 -158q86 -42 202 -42q119 0 204 41q110 53 110 159zM897 -235q0 -62 -57 -98q-49 -32 -114 -32q-67 0 -115 31q-57 36 -57 99q0 62 57 98q50 32 115 32t114 -32q57 -36 57 -98zM1162 1780q2 -73 -41 -114.5 t-116 -41.5h-717q-2 73 41 114.5t116 41.5h717z" />
<glyph horiz-adv-x="608" d="M678 -3h-154q-108 0 -163 63q-53 -65 -161 -63v1222q0 99 55 155.5t153 54.5v-1224h270v-208zM763 1734q0 -60 -52 -110h-875q-1 73 42 114.5t116 41.5h561l-197 197q-53 53 -53 111q0 60 53 110l352 -353q53 -53 53 -111z" />
<glyph horiz-adv-x="608" d="M678 -3h-154q-108 0 -163 63q-51 -63 -161 -63h-270v208h270v1014q0 99 55 155.5t153 54.5v-1224h270v-208zM763 1734q0 -60 -52 -110h-875q-1 73 42 114.5t116 41.5h561l-197 197q-53 53 -53 111q0 60 53 110l352 -353q53 -53 53 -111z" />
<glyph horiz-adv-x="608" d="M408 206q0 -98 -55 -153.5t-153 -55.5h-270v208h270v1014q0 98 55 154.5t153 55.5v-1223zM767 1734q0 -60 -52 -110h-875q-1 73 42 114.5t116 41.5h561l-197 197q-53 53 -53 111q0 60 53 110l352 -353q53 -53 53 -111z" />
<glyph horiz-adv-x="608" d="M408 206q0 -98 -55 -154.5t-153 -54.5v1222q0 98 55 154.5t153 55.5v-1223zM768 1734q0 -60 -52 -110h-875q-1 73 42 114.5t116 41.5h561l-197 197q-53 53 -53 111q0 60 53 110l352 -353q53 -53 53 -111z" />
<glyph horiz-adv-x="1435" d="M1505 -3h-376q-106 0 -163 62q-115 -62 -248 -62q-220 0 -369 150t-149 370q0 215 151.5 368t365.5 153t366 -154t152 -368q0 -173 -102 -311h372v-208zM1030 525q0 123 -98 199q-90 71 -216 71q-124 0 -214 -72q-98 -77 -98 -198q0 -117 100 -192q91 -68 212 -68 q122 0 213 68q101 74 101 192zM1188 1734q0 -60 -52 -110h-875q-1 73 42 114.5t116 41.5h561l-197 197q-53 53 -53 111q0 60 53 110l352 -353q53 -53 53 -111z" />
<glyph horiz-adv-x="1435" d="M1505 -3h-376q-107 0 -163 62q-115 -62 -248 -62q-135 0 -249 62q-57 -62 -163 -62h-376v208h371q-101 138 -101 312q0 215 151.5 368t365.5 153t366 -154t152 -368q0 -173 -102 -311h372v-208zM1030 525q0 123 -98 199q-90 71 -216 71q-124 0 -214 -72q-98 -77 -98 -198 q0 -117 100 -192q91 -68 212 -68q122 0 213 68q101 74 101 192zM1188 1734q0 -60 -52 -110h-875q-1 73 42 114.5t116 41.5h561l-197 197q-53 53 -53 111q0 60 53 110l352 -353q53 -53 53 -111z" />
<glyph horiz-adv-x="1435" d="M1235 516q0 -218 -149.5 -368.5t-367.5 -150.5q-135 0 -249 62q-57 -62 -163 -62h-376v208h371q-101 138 -101 312q0 215 151.5 368t365.5 153t366 -154t152 -368zM1030 525q0 123 -98 199q-90 71 -216 71q-124 0 -214 -72q-98 -77 -98 -198q0 -117 100 -192 q91 -68 212 -68q122 0 213 68q101 74 101 192zM1188 1734q0 -60 -52 -110h-875q-1 73 42 114.5t116 41.5h561l-197 197q-53 53 -53 111q0 60 53 110l352 -353q53 -53 53 -111z" />
<glyph horiz-adv-x="1435" d="M1235 516q0 -218 -149.5 -368.5t-367.5 -150.5q-220 0 -369 150t-149 370q0 215 151.5 368t365.5 153t366 -154t152 -368zM1030 525q0 123 -98 199q-90 71 -216 71q-124 0 -214 -72q-98 -77 -98 -198q0 -117 100 -192q91 -68 212 -68q122 0 213 68q101 74 101 192z M1188 1734q0 -60 -52 -110h-875q-1 73 42 114.5t116 41.5h561l-197 197q-53 53 -53 111q0 60 53 110l352 -353q53 -53 53 -111z" />
<glyph horiz-adv-x="1113" d="M1183 -3h-407q-108 0 -163 63q-53 -65 -161 -63v709l-221 474q-31 66 -31 128q0 91 84 128l273 -585l272 585q84 -37 84 -128q0 -62 -31 -128l-222 -475v-500h523v-208zM1023 1734q0 -60 -52 -110h-875q-1 73 42 114.5t116 41.5h561l-197 197q-53 53 -53 111q0 60 53 110 l352 -353q53 -53 53 -111z" />
<glyph horiz-adv-x="1113" d="M1183 -3h-407q-108 0 -163 63q-51 -63 -157 -63h-526v208h522v501l-221 474q-31 66 -31 128q0 91 84 128l273 -585l272 585q84 -37 84 -128q0 -62 -31 -128l-222 -475v-500h523v-208zM1023 1734q0 -60 -52 -110h-875q-1 73 42 114.5t116 41.5h561l-197 197 q-53 53 -53 111q0 60 53 110l352 -353q53 -53 53 -111z" />
<glyph horiz-adv-x="1113" d="M913 1308q0 -62 -31 -128l-222 -475v-499q0 -98 -55 -153.5t-153 -55.5h-522v208h522v501l-221 474q-31 66 -31 128q0 91 84 128l273 -585l272 585q84 -37 84 -128zM1023 1734q0 -60 -52 -110h-875q-1 73 42 114.5t116 41.5h561l-197 197q-53 53 -53 111q0 60 53 110 l352 -353q53 -53 53 -111z" />
<glyph horiz-adv-x="1113" d="M913 1308q0 -62 -31 -128l-222 -475v-499q0 -98 -55 -154.5t-153 -54.5v709l-221 474q-31 66 -31 128q0 91 84 128l273 -585l272 585q84 -37 84 -128zM1022 1734q0 -60 -52 -110h-875q-1 73 42 114.5t116 41.5h561l-197 197q-53 53 -53 111q0 60 53 110l352 -353 q53 -53 53 -111z" />
<glyph horiz-adv-x="1450" d="M1520 -3l-371 -1l-424 652l-423 -652q-102 64 -102 159q0 67 41 130l484 745l484 -745q23 -36 35 -80h276v-208zM1188 1734q0 -60 -52 -110h-875q-1 73 42 114.5t116 41.5h561l-197 197q-53 53 -53 111q0 60 53 110l352 -353q53 -53 53 -111z" />
<glyph horiz-adv-x="1450" d="M1520 -3l-371 -1l-424 652l-423 -652l-372 1v208h277q11 44 34 80l484 745l484 -745q23 -36 35 -80h276v-208zM1188 1734q0 -60 -52 -110h-875q-1 73 42 114.5t116 41.5h561l-197 197q-53 53 -53 111q0 60 53 110l352 -353q53 -53 53 -111z" />
<glyph horiz-adv-x="1450" d="M1250 155q0 -95 -101 -159l-424 652l-423 -652l-372 1v208h277q11 44 34 80l484 745l484 -745q41 -63 41 -130zM1188 1734q0 -60 -52 -110h-875q-1 73 42 114.5t116 41.5h561l-197 197q-53 53 -53 111q0 60 53 110l352 -353q53 -53 53 -111z" />
<glyph horiz-adv-x="1450" d="M1250 155q0 -95 -101 -159l-424 652l-423 -652q-102 64 -102 159q0 67 41 130l484 745l484 -745q41 -63 41 -130zM1188 1734q0 -60 -52 -110h-875q-1 73 42 114.5t116 41.5h561l-197 197q-53 53 -53 111q0 60 53 110l352 -353q53 -53 53 -111z" />
<glyph horiz-adv-x="1243" d="M1313 -3h-154q-108 0 -164 63q-50 -63 -160 -63h-347q-113 0 -166 66q-39 -68 -122 -66v821q0 86 34 143q41 69 122 67v-823h479v613q0 99 55 155.5t153 54.5v-823h270v-208zM1061 1734q0 -60 -52 -110h-875q-1 73 42 114.5t116 41.5h561l-197 197q-53 53 -53 111 q0 60 53 110l352 -353q53 -53 53 -111z" />
<glyph horiz-adv-x="1243" d="M1313 -3h-154q-108 0 -164 63q-50 -63 -160 -63h-347q-113 0 -166 66q-38 -66 -122 -66h-270v208h270v613q0 86 34 143q41 69 122 67v-823h479v613q0 99 55 155.5t153 54.5v-823h270v-208zM1064 1734q0 -60 -52 -110h-875q-1 73 42 114.5t116 41.5h561l-197 197 q-53 53 -53 111q0 60 53 110l352 -353q53 -53 53 -111z" />
<glyph horiz-adv-x="1243" d="M1043 206q0 -98 -55 -153.5t-153 -55.5h-347q-113 0 -166 66q-38 -66 -122 -66h-270v208h270v613q0 86 34 143q41 69 122 67v-823h479v613q0 99 55 155.5t153 54.5v-822zM1062 1734q0 -60 -52 -110h-875q-1 73 42 114.5t116 41.5h561l-197 197q-53 53 -53 111 q0 60 53 110l352 -353q53 -53 53 -111z" />
<glyph horiz-adv-x="1243" d="M1043 206q0 -98 -55 -153.5t-153 -55.5h-347q-113 0 -166 66q-39 -68 -122 -66v821q0 86 34 143q41 69 122 67v-823h479v613q0 99 55 155.5t153 54.5v-822zM1063 1734q0 -60 -52 -110h-875q-1 73 42 114.5t116 41.5h561l-197 197q-53 53 -53 111q0 60 53 110l352 -353 q53 -53 53 -111z" />
<glyph horiz-adv-x="1208" d="M1278 -3h-154q-108 0 -163 63q-51 -63 -161 -63h-600q-2 98 54.5 153t155.5 55h390v615h-600q-2 98 54.5 153t155.5 55h598v-823h270v-208zM1065 1734q0 -60 -52 -110h-875q-1 73 42 114.5t116 41.5h561l-197 197q-53 53 -53 111q0 60 53 110l352 -353q53 -53 53 -111z " />
<glyph horiz-adv-x="1208" d="M1278 -3h-154q-108 0 -163 63q-51 -63 -161 -63h-870v208h870v615h-600q-2 98 54.5 153t155.5 55h598v-823h270v-208zM1066 1734q0 -60 -52 -110h-875q-1 73 42 114.5t116 41.5h561l-197 197q-53 53 -53 111q0 60 53 110l352 -353q53 -53 53 -111z" />
<glyph horiz-adv-x="1208" d="M1008 206q0 -98 -55 -153.5t-153 -55.5h-870v208h870v615h-600q-2 98 54.5 153t155.5 55h598v-822zM1062 1734q0 -60 -52 -110h-875q-1 73 42 114.5t116 41.5h561l-197 197q-53 53 -53 111q0 60 53 110l352 -353q53 -53 53 -111z" />
<glyph horiz-adv-x="1208" d="M1008 206q0 -98 -55 -153.5t-153 -55.5h-600q-2 98 54.5 153t155.5 55h390v615h-600q-2 98 54.5 153t155.5 55h598v-822zM1072 1734q0 -60 -52 -110h-875q-1 73 42 114.5t116 41.5h561l-197 197q-53 53 -53 111q0 60 53 110l352 -353q53 -53 53 -111z" />
<glyph horiz-adv-x="1433" d="M1503 -3h-565q-107 0 -164 63q-56 -63 -161 -63v619q-174 25 -285 118q-128 106 -128 271q0 184 173 302q153 104 346 104q192 0 344 -105q170 -117 170 -301q0 -165 -128 -272q-112 -94 -285 -117v-411h683v-208zM1029 1016q0 108 -109 164q-86 44 -205 44 q-117 0 -203 -45q-108 -56 -108 -163q0 -105 109 -158q86 -42 202 -42q119 0 204 41q110 53 110 159zM1188 1734q0 -60 -52 -110h-875q-1 73 42 114.5t116 41.5h561l-197 197q-53 53 -53 111q0 60 53 110l352 -353q53 -53 53 -111z" />
<glyph horiz-adv-x="1433" d="M1503 -3h-565q-107 0 -164 63q-57 -63 -161 -63h-683v208h683v411q-174 25 -285 118q-128 106 -128 271q0 184 173 302q153 104 346 104q192 0 344 -105q170 -117 170 -301q0 -165 -128 -272q-112 -94 -285 -117v-411h683v-208zM1029 1016q0 108 -109 164q-86 44 -205 44 q-117 0 -203 -45q-108 -56 -108 -163q0 -105 109 -158q86 -42 202 -42q119 0 204 41q110 53 110 159zM1188 1734q0 -60 -52 -110h-875q-1 73 42 114.5t116 41.5h561l-197 197q-53 53 -53 111q0 60 53 110l352 -353q53 -53 53 -111z" />
<glyph horiz-adv-x="1433" d="M1233 1005q0 -165 -128 -272q-112 -94 -285 -117v-411q0 -208 -210 -208h-680v208h683v411q-174 25 -285 118q-128 106 -128 271q0 184 173 302q153 104 346 104q192 0 344 -105q170 -117 170 -301zM1029 1016q0 108 -109 164q-86 44 -205 44q-117 0 -203 -45 q-108 -56 -108 -163q0 -105 109 -158q86 -42 202 -42q119 0 204 41q110 53 110 159zM1188 1734q0 -60 -52 -110h-875q-1 73 42 114.5t116 41.5h561l-197 197q-53 53 -53 111q0 60 53 110l352 -353q53 -53 53 -111z" />
<glyph horiz-adv-x="1433" d="M1233 1005q0 -165 -128 -272q-112 -94 -285 -117v-411h297q1 -98 -55.5 -153t-154.5 -55h-590q-3 133 90 178q62 30 206 30v411q-174 25 -285 118q-128 106 -128 271q0 184 173 302q153 104 346 104q192 0 344 -105q170 -117 170 -301zM1029 1016q0 108 -109 164 q-86 44 -205 44q-117 0 -203 -45q-108 -56 -108 -163q0 -105 109 -158q86 -42 202 -42q119 0 204 41q110 53 110 159zM1188 1734q0 -60 -52 -110h-875q-1 73 42 114.5t116 41.5h561l-197 197q-53 53 -53 111q0 60 53 110l352 -353q53 -53 53 -111z" />
<glyph horiz-adv-x="608" d="M678 -3h-154q-108 0 -163 63q-53 -65 -161 -63v1222q0 99 55 155.5t153 54.5v-1224h270v-208zM479 -235q0 -62 -57 -98q-49 -32 -114 -32q-67 0 -115 31q-57 36 -57 99q0 62 57 98q50 32 115 32t114 -32q57 -36 57 -98zM767 1734q0 -60 -52 -110h-875q-1 73 42 114.5 t116 41.5h561l-197 197q-53 53 -53 111q0 60 53 110l352 -353q53 -53 53 -111z" />
<glyph horiz-adv-x="608" d="M678 -3h-154q-108 0 -163 63q-51 -63 -161 -63h-270v208h270v1014q0 99 55 155.5t153 54.5v-1224h270v-208zM470 -235q0 -62 -57 -98q-49 -32 -114 -32q-67 0 -115 31q-57 36 -57 99q0 62 57 98q50 32 115 32t114 -32q57 -36 57 -98zM767 1734q0 -60 -52 -110h-875 q-1 73 42 114.5t116 41.5h561l-197 197q-53 53 -53 111q0 60 53 110l352 -353q53 -53 53 -111z" />
<glyph horiz-adv-x="608" d="M408 206q0 -98 -55 -153.5t-153 -55.5h-270v208h270v1014q0 98 55 154.5t153 55.5v-1223zM478 -235q0 -62 -57 -98q-49 -32 -114 -32q-67 0 -115 31q-57 36 -57 99q0 62 57 98q50 32 115 32t114 -32q57 -36 57 -98zM768 1734q0 -60 -52 -110h-875q-1 73 42 114.5 t116 41.5h561l-197 197q-53 53 -53 111q0 60 53 110l352 -353q53 -53 53 -111z" />
<glyph horiz-adv-x="608" d="M408 206q0 -98 -55 -154.5t-153 -54.5v1222q0 98 55 154.5t153 55.5v-1223zM481 -235q0 -62 -57 -98q-49 -32 -114 -32q-67 0 -115 31q-57 36 -57 99q0 62 57 98q50 32 115 32t114 -32q57 -36 57 -98zM773 1734q0 -60 -52 -110h-875q-1 73 42 114.5t116 41.5h561 l-197 197q-53 53 -53 111q0 60 53 110l352 -353q53 -53 53 -111z" />
</font>
</defs>
</svg>
