<?xml version="1.0" standalone="no"?>
<!DOCTYPE svg PUBLIC "-//W3C//DTD SVG 1.1//EN" "http://www.w3.org/Graphics/SVG/1.1/DTD/svg11.dtd" >
<svg xmlns="http://www.w3.org/2000/svg" xmlns:xlink="http://www.w3.org/1999/xlink" version="1.1">
<metadata></metadata>
<defs>
<font id="ddc_uchenregular" horiz-adv-x="0" >
<font-face units-per-em="2048" ascent="1638" descent="-410" />
<missing-glyph horiz-adv-x="1248" />
<glyph unicode="&#xf68;&#xf7c;&#xf7e;" horiz-adv-x="1460" d="M828 2098q0 -34 -17 -64t-45 -52t-67 -36t-81 -14q-32 0 -57 13t-43 33t-28 44t-10 48q0 26 14 56t39 56t60 44t75 18q44 0 75 -17t50 -40t27 -48t8 -41zM740 2054q0 14 -8 33t-23 36t-37 29t-48 12q-16 0 -32 -16t-16 -32q0 -56 38 -84t80 -28q14 0 30 14t16 36z M704 1654q18 50 34 99t36 94t49 82t74 65t110 43t159 15q68 0 113 2t82 14t78 36t105 68q26 0 26 -12q0 -40 -47 -88t-116 -90t-148 -70t-145 -28q-76 0 -141 -30t-113 -76t-76 -101t-28 -105q0 -16 -19 -26t-29 -10q-20 0 -42 44q-34 66 -91 110t-124 71t-138 39t-133 12 q-8 0 -22 1t-14 9t10 36t28 58t45 53t61 23q36 0 93 -23t117 -68t115 -111t85 -152zM942 1488l-50 -144q-8 -22 -14 -35t-36 -13h-52q32 -42 59 -77t54 -72t55 -82t60 -107q20 -40 45 -96t52 -116t53 -118t50 -106l-54 534q-8 70 -18 116t-22 74t-26 39t-30 11h-12l84 192 h228q-6 -34 -18 -78t-23 -89t-19 -85t-8 -66v-788q0 -12 -9 -28t-25 -16q-14 0 -30 17t-26 27q-70 90 -133 185t-129 196t-140 208t-164 221q-12 -4 -31 -25t-37 -46t-32 -50t-14 -35q10 4 21 5t21 1q32 0 60 -26t47 -66t30 -87t11 -89q0 -40 -24 -93t-66 -101t-97 -82 t-117 -34q-50 0 -109 20t-110 68t-85 128t-34 200q0 108 25 216t47 200h-22q-36 0 -46 6t-10 30q0 8 9 30t21 46t24 47t18 33h280l-54 -144l-7 -21t-9 -15t-18 -9t-34 -3q-16 -20 -35 -57t-34 -80t-25 -90t-10 -89q0 -54 10 -115t37 -113t77 -86t132 -34q148 0 148 124 q0 18 -6 39t-18 39t-32 30t-46 12q-56 0 -82 -12t-34 -12q-10 0 -12 9t-2 15q0 18 25 78t59 130t72 131t64 81h-54q-36 0 -46 6t-10 30q0 8 10 30t22 46t24 47t18 33h388z" />
<glyph />
<glyph unicode="&#xd;" horiz-adv-x="1248" />
<glyph unicode=" "  horiz-adv-x="1248" />
<glyph unicode="&#x09;" horiz-adv-x="1248" />
<glyph unicode="&#xa0;" horiz-adv-x="1248" />
<glyph unicode="!" horiz-adv-x="550" d="M238 404v98q0 134 -12 236t-26 194t-26 185t-12 209q0 178 112 178q114 0 114 -178q0 -116 -12 -209t-26 -185t-26 -194t-12 -236v-98h-74zM162 98q0 42 33 77t79 35t80 -35t34 -77q0 -44 -34 -79t-80 -35t-79 35t-33 79z" />
<glyph unicode="&#x22;" horiz-adv-x="696" d="M494 1244l-70 380q0 8 -2 16t-2 18q0 44 30 74t76 30t75 -30t29 -74q0 -12 -4 -32l-66 -382h-66zM138 1244l-70 380q0 8 -2 16t-2 18q0 44 30 74t76 30t75 -30t29 -74q0 -12 -4 -32l-66 -382h-66z" />
<glyph unicode="#" horiz-adv-x="1262" d="M590 1400l-56 -332h302l56 332h96l-56 -332h224l-24 -114h-220l-70 -412h226l-24 -114h-224l-58 -340h-94l58 340h-302l-58 -340h-96l58 340h-222l24 114h220l70 412h-226l24 114h222l56 332h94zM514 954l-70 -412h302l70 412h-302z" />
<glyph unicode="$" horiz-adv-x="1070" d="M904 1488v-510h-62q-24 152 -88 260t-156 148v-510q82 -22 153 -58t123 -91t82 -133t30 -182q0 -96 -31 -175t-83 -135t-123 -87t-151 -31v-144h-96v156q-68 16 -126 59t-108 107l-62 -162h-60v542l74 8q4 -74 27 -140t61 -120t87 -94t107 -62v536q-72 26 -133 55 t-105 74t-69 111t-25 166q0 198 91 312t241 116v146h96v-160q114 -36 206 -150l38 148h62zM598 114q40 0 83 15t79 44t59 71t23 96q0 138 -64 207t-180 91v-524zM308 1164q0 -202 194 -252v496q-90 -2 -142 -72t-52 -172z" />
<glyph unicode="%" horiz-adv-x="1698" d="M1132 -16q-132 0 -204 85t-72 223q0 106 34 203t96 170t145 116t183 43q128 0 187 -73t59 -201q0 -110 -34 -212t-92 -181t-136 -126t-166 -47zM1144 80q74 0 134 48t103 118t66 152t23 152q0 88 -38 133t-106 45q-58 0 -112 -43t-96 -112t-67 -154t-25 -169 q0 -80 31 -125t87 -45zM1466 1506l-1220 -1624l-56 42l1006 1340q-44 -28 -103 -42t-115 -14q-72 0 -128 34q6 -24 6 -48q0 -72 -31 -161t-87 -167t-134 -132t-170 -54q-132 0 -206 83t-74 215q0 108 35 206t95 173t143 119t179 44q68 0 120 -23t74 -73q4 -10 4 -28t4 -22 q26 -48 80 -68t98 -20q116 0 219 62t203 200zM760 1294q-36 24 -50 48t-14 58v8q-16 6 -35 11t-39 5q-56 0 -109 -45t-95 -114t-68 -154t-26 -165t30 -125t94 -45t122 45t102 113t70 150t26 154q0 12 -2 28t-6 28z" />
<glyph unicode="&#x26;" horiz-adv-x="1590" d="M922 832h502v-88h-34q-40 0 -68 -10t-50 -30t-42 -51t-42 -73l-56 -106q-26 -52 -52 -102t-66 -102q40 -50 88 -87t112 -37q72 0 118 60t58 150l76 -16q0 -34 -17 -79t-37 -85q-46 -98 -104 -137t-160 -39q-84 0 -150 29t-124 97q-72 -86 -165 -114t-187 -28 q-102 0 -179 35t-128 93t-76 131t-25 151q0 138 89 257t237 193q-40 88 -62 159t-22 129q0 84 22 152t64 117t102 76t136 27q138 0 218 -73t80 -201q0 -60 -26 -118t-71 -107t-106 -88t-133 -61q90 -172 170 -303t146 -221l12 18q52 86 91 157t39 131q0 32 -13 53t-35 33 t-50 16t-56 4h-24v88zM680 1416q-68 0 -115 -53t-47 -143q0 -30 9 -68t23 -78t30 -77t30 -63q222 80 222 296q0 80 -39 133t-113 53zM474 770l-22 -14q-144 -86 -144 -256q0 -70 25 -138t66 -124t95 -90t112 -34q26 0 57 6t61 16t56 26t44 34q-216 254 -350 574z" />
<glyph unicode="'" horiz-adv-x="356" d="M138 1244l-70 380q0 8 -2 16t-2 18q0 44 30 74t76 30t75 -30t29 -74q0 -12 -4 -32l-66 -382h-66z" />
<glyph unicode="(" horiz-adv-x="646" d="M98 744q0 286 114 522t338 384v-64q-96 -98 -157 -175t-94 -166t-45 -206t-12 -295t12 -295t45 -206t94 -166t157 -175v-64q-224 148 -338 384t-114 522z" />
<glyph unicode=")" horiz-adv-x="646" d="M550 744q0 -142 -29 -274t-86 -248t-142 -213t-195 -171v64q96 98 156 175t93 166t45 206t12 295t-12 295t-45 206t-93 166t-156 175v64q222 -148 337 -385t115 -521z" />
<glyph unicode="*" horiz-adv-x="546" d="M432 1262q-44 -16 -72 -25t-40 -13v-2q10 -4 43 -14t68 -24t63 -31t28 -33q0 -22 -19 -39t-41 -17q-6 0 -27 15t-45 36t-47 41t-35 32l-4 4l-4 -4v-22q0 -16 6 -37t12 -43t12 -42t6 -30q0 -52 -56 -52q-54 0 -54 52q0 10 6 29t12 41l12 44t6 38v22q-2 0 -6 4 q-10 -10 -33 -31t-48 -42t-48 -38t-29 -17q-22 0 -40 17t-18 39q0 14 28 31t63 32t68 26t43 13v2q-10 2 -43 12t-68 25t-63 32t-28 33q0 22 18 38t40 16q6 0 29 -16t48 -38t48 -43t33 -29q-2 0 6 4v22q0 14 -6 35t-12 43t-12 42t-6 32q0 56 54 56q56 0 56 -56q0 -10 -6 -29 t-12 -41l-12 -44t-6 -38v-22l4 -4q8 8 32 29t49 43t48 38t29 16q22 0 41 -16t19 -38q0 -32 -90 -64z" />
<glyph unicode="+" horiz-adv-x="1180" d="M518 1092h146v-340h326v-146h-326v-328h-146v328h-340v146h340v340z" />
<glyph unicode="," horiz-adv-x="356" d="M32 -32q42 42 76 73t56 56t34 48t12 49v20t-4 20q-16 -4 -35 -6t-25 -2q-42 0 -70 32t-28 74q0 44 34 74t76 30q58 0 96 -49t38 -121q0 -52 -12 -94t-38 -83t-68 -82t-102 -91z" />
<glyph unicode="-" horiz-adv-x="582" d="M32 616v122h524v-122h-524z" />
<glyph unicode="." horiz-adv-x="340" d="M64 332q0 44 30 74t76 30t75 -30t29 -74t-29 -75t-75 -31t-76 31t-30 75z" />
<glyph unicode="/" horiz-adv-x="550" d="M582 1504l-510 -1520h-104l510 1520h104z" />
<glyph unicode="0" horiz-adv-x="1084" d="M80 704q0 152 36 286t99 234t147 158t180 58t179 -58t146 -158t99 -234t36 -286t-36 -286t-99 -234t-146 -158t-179 -58t-180 58t-147 158t-99 234t-36 286zM284 704q0 -132 21 -249t56 -204t82 -137t99 -50t99 50t82 137t56 204t21 249t-21 248t-56 203t-82 137t-99 50 t-99 -50t-82 -137t-56 -203t-21 -248z" />
<glyph unicode="1" horiz-adv-x="900" d="M316 76q36 0 67 23t31 89v902q0 42 -10 67t-30 38t-50 16t-70 3h-94v74q102 4 182 42t160 110h80v-1252q0 -66 30 -90t68 -24h64v-74h-518v76h90v0z" />
<glyph unicode="2" horiz-adv-x="1052" d="M64 76q28 44 64 90t90 109t130 151t182 216q190 228 190 438q0 126 -65 194t-185 68q-48 0 -95 -14t-83 -41t-59 -64t-23 -83q0 -14 10 -23t22 -15q52 -28 81 -62t29 -84t-34 -82t-84 -32q-32 0 -59 19t-46 50t-30 72t-11 85q0 80 35 148t94 118t137 78t164 28 q82 0 156 -30t131 -82t91 -123t34 -153q0 -116 -63 -224t-173 -220q-60 -60 -123 -122t-123 -123t-111 -120t-87 -113h390q62 0 106 31t72 81q24 44 40 108q6 30 17 70t23 98h64v-518h-898v76z" />
<glyph unicode="3" horiz-adv-x="1036" d="M502 -32q-196 0 -309 87t-113 253q0 60 35 111t95 51q48 0 85 -35t37 -87q0 -36 -18 -59t-39 -39t-39 -30t-18 -34t16 -41t48 -39t81 -30t115 -12q134 0 208 86t74 230q0 142 -68 229t-182 87h-122q-56 0 -56 48t56 48h110q230 0 230 292q0 264 -228 264q-38 0 -76 -7 t-69 -21t-51 -37t-20 -53q0 -6 12 -20t27 -32t28 -40t13 -42q0 -54 -29 -90t-79 -36q-58 0 -92 45t-34 101q0 72 32 131t87 101t126 66t149 24q82 0 154 -24t126 -70t86 -112t32 -148q0 -120 -78 -211t-206 -125v-4q144 -24 230 -119t86 -245q0 -94 -35 -170t-96 -130 t-144 -83t-177 -29z" />
<glyph unicode="4" horiz-adv-x="1084" d="M784 470h218v-114h-218v-168q0 -68 30 -90t68 -22h36v-76h-438v76h38q36 0 66 23t30 89v168h-542v114l656 978h56v-978zM614 1110l-420 -624h420v624z" />
<glyph unicode="5" horiz-adv-x="1038" d="M292 1440q76 -10 153 -21t153 -11h114q70 0 119 16t59 16q16 0 16 -24q0 -46 -31 -80t-79 -58t-107 -36t-113 -12h-132q-32 0 -57 4t-71 12l-32 -388q64 28 122 46t112 18q100 0 180 -35t137 -97t88 -148t31 -190q0 -106 -35 -194t-97 -152t-147 -100t-185 -36 q-188 0 -299 88t-111 258q0 28 10 55t28 49t41 36t51 14q48 0 85 -35t37 -87q0 -40 -17 -67t-36 -45t-36 -30t-17 -20q0 -28 21 -50t56 -38t81 -25t94 -9q68 0 121 28t89 79t54 120t18 153t-19 154t-55 120t-89 78t-119 28q-122 0 -212 -80q0 -98 -64 -98q-28 0 -46 18 t-18 48q0 34 15 46t25 34l48 648h66z" />
<glyph unicode="6" horiz-adv-x="1084" d="M564 -32q-108 0 -197 49t-153 136t-99 205t-35 256q0 218 40 374t113 257t174 148t223 47q68 0 127 -17t103 -49t69 -77t25 -101q0 -58 -30 -101t-92 -43q-68 0 -91 35t-23 71q0 38 13 79t13 63q0 50 -110 50q-114 0 -182 -50t-104 -131t-46 -184t-10 -209v-96h4 q118 194 318 194q84 0 153 -33t120 -90t79 -134t28 -165q0 -100 -32 -188t-89 -154t-136 -104t-173 -38zM566 760q-52 0 -102 -26t-88 -75t-61 -118t-23 -153q0 -54 20 -111t56 -104t87 -78t111 -31q54 0 97 27t74 77t47 120t16 156q0 68 -16 126t-46 100t-74 66t-98 24z " />
<glyph unicode="7" horiz-adv-x="1014" d="M114 922v518q92 -4 185 -10t187 -6h280q32 0 75 5t71 11v-66l-126 -294q-56 -128 -95 -232t-63 -193t-35 -168t-11 -157v-168q0 -100 -35 -147t-95 -47q-96 0 -96 154q0 108 40 246t114 312l264 614h-280q-12 0 -36 1t-49 1t-47 1t-30 1q-40 0 -54 -15t-20 -31 q-12 -22 -32 -107t-40 -223h-72z" />
<glyph unicode="8" horiz-adv-x="1052" d="M542 1440q78 0 148 -25t121 -70t81 -108t30 -137q0 -102 -64 -183t-158 -125q140 -56 218 -153t78 -241q0 -100 -39 -179t-104 -135t-152 -86t-183 -30q-102 0 -184 29t-140 80t-90 121t-32 150q0 60 21 116t58 105t89 88t114 61q-208 94 -208 334q0 80 29 151t81 124 t125 83t161 30zM542 1342q-112 0 -181 -54t-69 -156q0 -114 72 -182t218 -114q100 58 147 118t47 146q0 120 -60 181t-174 61zM446 668q-106 -54 -159 -132t-53 -190q0 -142 76 -212t208 -70q68 0 126 16t100 49t66 82t24 113q0 88 -33 142t-87 90t-124 60t-144 52z" />
<glyph unicode="9" horiz-adv-x="1084" d="M516 1440q106 0 195 -49t153 -136t99 -206t35 -257q0 -218 -40 -374t-112 -256t-173 -147t-223 -47q-68 0 -127 17t-103 48t-69 76t-25 101q0 58 30 102t90 44q68 0 92 -35t24 -71q0 -40 -13 -80t-13 -64q0 -50 110 -50q114 0 182 50t104 131t46 184t10 209v98h-4 q-116 -194 -320 -194q-84 0 -153 33t-120 90t-79 133t-28 164q0 102 32 190t89 154t136 104t175 38zM514 646q52 0 102 27t88 75t61 117t23 153q0 54 -20 111t-56 105t-87 79t-111 31q-54 0 -98 -28t-74 -78t-47 -120t-17 -154q0 -68 16 -126t46 -101t74 -67t100 -24z" />
<glyph unicode=":" horiz-adv-x="340" d="M64 332q0 44 30 74t76 30t75 -30t29 -74t-29 -75t-75 -31t-76 31t-30 75zM64 744q0 44 30 75t76 31t75 -31t29 -75t-29 -75t-75 -31t-76 31t-30 75z" />
<glyph unicode=";" horiz-adv-x="382" d="M56 752q0 44 34 75t80 31t80 -31t34 -75t-34 -75t-80 -31t-80 31t-34 75zM32 -32q42 42 76 73t56 56t34 48t12 49v20t-4 20q-16 -4 -35 -6t-25 -2q-42 0 -70 32t-28 74q0 44 34 74t76 30q58 0 96 -49t38 -121q0 -52 -12 -94t-38 -83t-68 -82t-102 -91z" />
<glyph unicode="&#x3c;" horiz-adv-x="1184" d="M114 808l954 470v-146l-776 -388l776 -388v-146l-954 470v128z" />
<glyph unicode="=" horiz-adv-x="728" d="M694 954v-146h-664v146h664zM694 550v-146h-664v146h664z" />
<glyph unicode="&#x3e;" horiz-adv-x="1184" d="M110 198v148l788 392l-788 392v148l962 -476v-130z" />
<glyph unicode="?" horiz-adv-x="874" d="M570 758q-38 -34 -63 -64t-41 -60t-23 -62t-7 -70v-98h-80v98q0 120 42 213t120 191q26 30 47 65t36 68t23 62t8 47q0 130 -66 195t-186 65q-28 0 -58 -9t-55 -24t-41 -34t-16 -37q0 -22 13 -39t28 -33t28 -34t13 -42q0 -46 -30 -75t-76 -29q-48 0 -85 44t-37 108 q0 56 24 110t71 96t117 68t160 26q78 0 144 -25t115 -71t77 -112t28 -148q0 -50 -10 -93t-35 -88t-70 -95t-115 -114zM284 98q0 42 33 77t79 35t80 -35t34 -77q0 -44 -34 -79t-80 -35t-79 35t-33 79z" />
<glyph unicode="@" horiz-adv-x="1876" d="M1448 1164l-190 -584q-10 -24 -13 -46t-3 -38q0 -98 124 -98q72 0 134 35t107 96t71 142t26 171q0 134 -58 241t-157 183t-230 117t-275 41q-170 0 -314 -55t-249 -151t-165 -227t-60 -283q0 -142 56 -260t154 -203t233 -133t293 -48q74 0 135 4t114 13t102 23t101 32 l32 -88q-56 -18 -106 -33t-105 -26t-121 -16t-152 -5q-228 0 -392 61t-270 163t-156 236t-50 280q0 182 75 331t202 256t293 166t348 59q176 0 327 -50t261 -139t172 -214t62 -275q0 -114 -35 -211t-98 -169t-149 -113t-186 -41q-112 0 -171 49t-81 171h-8 q-94 -112 -192 -158t-218 -46q-112 0 -163 76t-51 248q0 98 52 194t136 172t190 123t212 47q70 0 118 -19t82 -63h8l20 62h178zM778 452q78 0 154 53t136 131t97 165t37 155q0 70 -41 114t-117 44q-72 0 -146 -43t-134 -110t-97 -148t-37 -159q0 -96 38 -149t110 -53z" />
<glyph unicode="A" horiz-adv-x="1390" d="M650 1504h64l500 -1324q22 -54 53 -72t91 -18v-90h-490v90q10 0 35 1t50 6t45 17t20 34q0 10 -2 18t-6 18l-112 302h-510q-12 -38 -26 -80t-26 -81t-20 -70t-8 -47q0 -64 28 -91t116 -27v-90h-420v90q68 0 105 35t67 125zM642 1188l-220 -606h444z" />
<glyph unicode="B" horiz-adv-x="1326" d="M712 1488q238 0 361 -90t123 -290q0 -78 -18 -136t-51 -100t-80 -69t-103 -43q138 -36 212 -130t74 -226q0 -136 -47 -216t-130 -122t-197 -54t-248 -12h-536v90h74q36 0 66 23t30 91v1080q0 68 -30 91t-66 23h-74v90h640zM436 204q0 -68 29 -91t69 -23h74q128 0 211 18 t131 55t67 97t19 144q0 102 -31 165t-88 99t-137 48t-178 12h-166v-524zM630 824q200 0 286 70t86 216q0 80 -31 136t-86 89t-129 48t-158 15h-64q-36 0 -67 -23t-31 -91v-460h194z" />
<glyph unicode="C" horiz-adv-x="1310" d="M1196 898h-74q-10 30 -24 75t-34 107q-56 166 -139 242t-219 76q-126 0 -206 -64t-127 -161t-64 -212t-17 -217q0 -316 105 -481t339 -165q92 0 162 22t119 69t81 121t48 180l84 -16q-32 -252 -155 -371t-363 -119q-144 0 -263 60t-205 163t-133 241t-47 296 q0 136 48 272t133 244t203 176t256 68q48 0 97 -12t96 -35t89 -53t74 -66l66 150h70v-590z" />
<glyph unicode="D" horiz-adv-x="1466" d="M672 1488q188 0 321 -52t218 -148t124 -234t39 -310t-39 -310t-123 -234t-216 -148t-320 -52h-606v88h72q38 0 68 24t30 90v1082q0 68 -30 91t-68 23h-72v90h602zM436 188q0 -28 15 -42t42 -22t63 -9t78 -1h138q110 0 181 60t113 153t58 204t16 213t-16 213t-58 204 t-113 153t-181 60h-138q-42 0 -78 -1t-63 -8t-42 -22t-15 -43v-1112z" />
<glyph unicode="E" horiz-adv-x="1246" d="M1164 1488v-518h-80q-18 140 -38 224t-65 127t-128 56t-223 13h-48q-50 0 -81 -7t-49 -21t-25 -32t-7 -42v-480h98q128 0 188 69t70 223h82v-680h-82q0 292 -222 292h-134v-510q0 -52 32 -78t130 -26h48q94 0 161 5t114 20t76 44t48 75t31 114t24 162h80v-518h-1084v88 h50q36 0 66 24t30 90v1082q0 68 -30 91t-66 23h-50v90h1084z" />
<glyph unicode="F" horiz-adv-x="1246" d="M1164 1488v-518h-80q-18 140 -38 224t-65 127t-128 56t-223 13h-48q-50 0 -81 -7t-49 -21t-25 -32t-7 -42v-480h98q128 0 188 69t70 223h82v-680h-82q0 292 -222 292h-134v-510q0 -66 31 -90t67 -24h72v-88h-510v88h50q36 0 66 24t30 90v1082q0 68 -30 91t-66 23h-50v90 h1084z" />
<glyph unicode="G" horiz-adv-x="1440" d="M1142 1488h72v-590h-76q-10 30 -24 75t-34 107q-56 166 -138 242t-220 76q-126 0 -206 -64t-127 -161t-64 -212t-17 -217q0 -310 99 -483t315 -173q110 0 177 32t103 82t47 113t11 123q0 54 -9 85t-29 45t-53 17t-79 3h-40v92h534v-92h-42q-16 0 -38 -3t-42 -12t-34 -26 t-14 -45v-518h-100l-14 194q-70 -102 -170 -148t-232 -46q-150 0 -266 64t-194 171t-118 244t-40 281q0 136 48 272t133 244t203 176t258 68q46 0 95 -12t96 -35t89 -53t74 -66z" />
<glyph unicode="H" horiz-adv-x="1520" d="M606 1488v-90h-72q-36 0 -67 -23t-31 -91v-442h648v442q0 68 -30 91t-68 23h-72v90h534v-90h-74q-36 0 -66 -23t-30 -91v-1082q0 -66 30 -90t66 -24h74v-88h-534v88h72q38 0 68 24t30 90v510h-648v-510q0 -66 31 -90t67 -24h72v-88h-534v88h74q36 0 66 24t30 90v1082 q0 68 -30 91t-66 23h-74v90h534z" />
<glyph unicode="I" horiz-adv-x="726" d="M638 1488v-90h-72q-36 0 -66 -23t-30 -91v-1082q0 -66 30 -90t66 -24h72v-88h-532v88h72q36 0 66 24t30 90v1082q0 68 -30 91t-66 23h-72v90h532z" />
<glyph unicode="J" horiz-adv-x="1084" d="M1028 1488v-90h-74q-36 0 -66 -23t-30 -91v-782q0 -144 -27 -243t-80 -160t-131 -88t-180 -27q-80 0 -149 24t-119 70t-79 112t-29 150q0 90 39 154t123 64q62 0 96 -29t34 -93q0 -62 -34 -99t-80 -37q-12 0 -25 8t-23 8q-12 0 -14 -16t-2 -26q0 -20 15 -53t44 -64 t72 -54t99 -23q94 0 146 41t76 107t29 150t5 172v734q0 68 -31 91t-67 23h-72v90h534z" />
<glyph unicode="K" horiz-adv-x="1490" d="M582 1488v-90h-64q-36 0 -67 -23t-31 -91v-618l488 530q44 46 61 84t17 54q0 28 -16 46t-48 18h-64v90h516v-90h-22q-40 0 -73 -10t-67 -31t-72 -57t-84 -86l-272 -294l454 -712q8 -14 23 -34t34 -39t43 -33t52 -14h34v-88h-550v88h32q52 0 87 11t35 39q0 10 -8 31 t-30 53l-340 540l-230 -248v-312q0 -66 31 -90t67 -24h64v-88h-526v88h74q36 0 66 24t30 90v1082q0 68 -30 91t-66 23h-74v90h526z" />
<glyph unicode="L" horiz-adv-x="1236" d="M598 1488v-90h-72q-36 0 -67 -23t-31 -91v-1082q0 -66 31 -90t67 -24h120q188 0 285 60t129 202q8 30 18 70t22 98l64 6v-524h-1100v88h74q36 0 66 24t30 90v1082q0 68 -30 91t-66 23h-74v90h534z" />
<glyph unicode="M" horiz-adv-x="1746" d="M518 1488l368 -1118l352 1118h436v-90h-72q-38 0 -68 -23t-30 -91v-1082q0 -66 30 -90t68 -24h72v-88h-534v88h74q36 0 66 24t30 90v1178h-4l-424 -1380h-74l-456 1384h-4v-1182q0 -66 30 -90t66 -24h74v-88h-458v88h72q36 0 67 24t31 90v1082q0 68 -31 91t-67 23h-72v90 h458z" />
<glyph unicode="N" horiz-adv-x="1536" d="M432 1488l756 -1112h4v908q0 68 -31 91t-67 23h-72v90h458v-90h-80q-38 0 -68 -23t-30 -91v-1300h-88l-868 1256l-6 -6v-1032q0 -66 30 -90t66 -24h74v-88h-446v88h66q36 0 66 24t30 90v1132l-46 64h-100v90h352z" />
<glyph unicode="O" horiz-adv-x="1520" d="M760 1520q144 0 263 -65t204 -173t133 -248t48 -290t-48 -290t-133 -248t-204 -173t-263 -65t-262 65t-204 173t-133 248t-47 290t47 290t133 248t204 173t262 65zM760 80q106 0 180 37t122 97t75 134t40 148t16 139t3 109q0 42 -3 108t-16 140t-40 148t-75 134t-122 97 t-180 37t-180 -37t-122 -97t-75 -134t-40 -148t-16 -140t-3 -108t3 -108t16 -140t40 -148t75 -134t122 -97t180 -37z" />
<glyph unicode="P" horiz-adv-x="1278" d="M712 1488q238 0 361 -94t123 -318q0 -138 -45 -219t-120 -124t-174 -56t-209 -13h-212v-462q0 -66 31 -90t67 -24h72v-88h-534v88h74q36 0 66 24t30 90v1084q0 66 -30 90t-66 24h-74v88h640zM712 1394q-40 4 -70 5t-60 1h-48q-36 0 -67 -24t-31 -90v-526h194 q200 0 286 74t86 244q0 302 -290 316z" />
<glyph unicode="Q" horiz-adv-x="1520" d="M760 1520q144 0 263 -65t204 -173t133 -248t48 -290q0 -170 -62 -326t-170 -268l46 -170q12 -46 25 -89t33 -76t49 -53t73 -20q22 0 38 29t16 99v10h80v-18q0 -146 -54 -214t-130 -68q-82 0 -139 29t-94 83t-56 132t-25 176l-2 40q-64 -34 -132 -53t-144 -19 q-144 0 -262 65t-204 173t-133 248t-47 290t47 290t133 248t204 173t262 65zM324 744q0 -54 5 -142t30 -181t77 -176t146 -127q-20 58 -20 116q0 68 23 119t62 86t88 53t101 18q90 0 168 -52t110 -162q30 58 46 121t24 124t10 114t2 89q0 42 -3 108t-16 140t-40 148t-75 134 t-122 97t-180 37t-180 -37t-122 -97t-75 -134t-40 -148t-16 -140t-3 -108zM760 80q88 0 152 26t112 68q-8 50 -23 95t-40 78t-59 53t-78 20q-40 0 -72 -18t-56 -47t-37 -65t-13 -72q0 -48 27 -88t87 -50z" />
<glyph unicode="R" horiz-adv-x="1408" d="M712 1488q238 0 361 -94t123 -318q0 -108 -28 -181t-77 -119t-117 -70t-146 -34q160 -50 214 -242q10 -34 14 -88t13 -105t30 -87t65 -36q26 0 42 15t25 36t12 44t3 41v8h80v-16q0 -154 -64 -214t-182 -60q-72 0 -115 33t-67 85t-34 115t-16 123q-8 86 -24 148t-43 102 t-69 62t-102 28h-174v-462q0 -66 31 -90t67 -24h72v-88h-534v88h74q36 0 66 24t30 90v1084q0 66 -30 90t-66 24h-74v88h640zM712 1394q-56 4 -94 5t-84 1q-36 0 -67 -24t-31 -90v-526h194q200 0 286 74t86 244q0 302 -290 316z" />
<glyph unicode="S" horiz-adv-x="1196" d="M966 1488h70v-510h-76q-18 96 -58 175t-95 136t-125 88t-148 31q-54 0 -102 -19t-83 -52t-55 -78t-20 -95q0 -90 51 -149t161 -91l302 -88q156 -44 242 -149t86 -275q0 -96 -35 -175t-98 -135t-149 -87t-188 -31q-120 0 -222 47t-186 131l-76 -162h-64v542l80 8 q8 -92 52 -172t113 -138t156 -92t181 -34q44 0 92 16t88 46t67 71t27 93q0 104 -48 173t-148 97l-188 50q-100 28 -181 57t-138 74t-89 112t-32 173q0 200 109 314t295 114q108 0 199 -41t175 -123z" />
<glyph unicode="T" horiz-adv-x="1302" d="M1172 956q-6 40 -11 80t-9 80q-10 68 -29 120t-55 86t-91 51t-137 17q-32 0 -50 -5t-27 -18t-11 -38t-2 -65v-1028q0 -100 14 -116q18 -28 104 -28h48v-92h-536v92l80 4q32 2 50 5t27 15t12 37t3 67v1076q0 54 -16 74t-80 20q-198 0 -260 -102q-12 -22 -29 -103t-39 -223 h-72v526h1178v-532h-62z" />
<glyph unicode="U" horiz-adv-x="1536" d="M606 1488v-90h-72q-36 0 -67 -23t-31 -91v-814q0 -104 21 -175t68 -115t120 -63t179 -19q84 0 150 29t112 82t70 125t24 158v792q0 68 -30 91t-66 23h-82v90h470v-90h-82q-36 0 -66 -23t-30 -91v-684q0 -156 -26 -274t-87 -197t-160 -120t-245 -41q-262 0 -398 115 t-136 321v880q0 68 -30 91t-66 23h-74v90h534z" />
<glyph unicode="V" horiz-adv-x="1408" d="M566 1488v-90h-76q-58 0 -76 -14t-18 -50q0 -10 8 -31t20 -59l336 -944l282 822q20 58 31 99t11 63q0 52 -37 83t-109 31h-24v90h468v-90h-24q-30 0 -53 -6t-44 -26t-40 -59t-41 -103l-428 -1220h-80l-478 1302q-16 46 -42 79t-96 33h-32v90h542z" />
<glyph unicode="W" horiz-adv-x="1884" d="M48 1488h486v-90h-64q-40 0 -63 -12t-23 -52q0 -10 12 -48l272 -934l234 828l-28 106q-16 54 -36 83t-78 29h-56v90h502v-90h-42q-58 0 -81 -15t-23 -49q2 -12 7 -33t15 -55l254 -892l206 768l10 40t12 47t10 43t4 30q0 58 -27 87t-111 29h-24v90h422v-90h-18 q-46 0 -79 -35t-61 -117l-344 -1262h-82l-306 1032l-284 -1032h-78l-394 1302q-10 32 -18 53t-19 34t-28 19t-47 6h-32v90z" />
<glyph unicode="X" horiz-adv-x="1374" d="M566 1488v-90h-62q-42 0 -59 -9t-17 -31q0 -16 14 -48l256 -400l218 340q16 22 16 50q0 40 -39 69t-101 29h-32v90h494v-90h-38q-40 0 -69 -17t-51 -43t-40 -58t-38 -62l-264 -396l370 -586q26 -40 43 -68t35 -46t42 -26t62 -8h36v-88h-534v88h74q76 0 76 42q0 14 -8 35 t-22 43l-292 430l-204 -310q-22 -34 -36 -69t-14 -67q0 -44 31 -74t105 -30h40v-88h-516v88h26q30 0 57 17t53 43t49 59t45 63l308 456l-372 586q-28 46 -56 66t-92 20h-20v90h526z" />
<glyph unicode="Y" horiz-adv-x="1374" d="M566 1488v-90h-78q-42 0 -59 -9t-17 -31q0 -14 8 -34t20 -42l320 -554l224 432q20 40 33 76t13 68q0 42 -29 68t-105 26h-38v90h492v-90h-30q-40 0 -70 -15t-53 -41t-41 -58t-34 -66l-314 -618v-398q0 -66 31 -90t67 -24h72v-88h-534v88h74q36 0 66 24t30 90v396 l-384 654q-24 40 -40 68t-33 45t-42 25t-67 8h-22v90h540z" />
<glyph unicode="Z" horiz-adv-x="1196" d="M1096 1488v-80l-784 -1310h282q146 0 230 15t129 62t63 134t34 233l78 -8v-534h-1060v80l784 1310h-218q-138 0 -220 -13t-127 -55t-65 -122t-38 -214h-82v502h994z" />
<glyph unicode="[" horiz-adv-x="518" d="M436 1568v-80h-144q-38 0 -68 -23t-30 -91v-1390q0 -68 30 -91t68 -23h144v-80h-356v1778h356z" />
<glyph unicode="\" horiz-adv-x="550" d="M72 1504l510 -1520h-104l-510 1520h104z" />
<glyph unicode="]" horiz-adv-x="518" d="M436 1568v-1778h-356v80h146q36 0 67 23t31 91v1390q0 68 -31 91t-67 23h-146v80h356z" />
<glyph unicode="^" horiz-adv-x="842" d="M474 1520l322 -808h-120l-256 638l-254 -638h-122l324 808h106z" />
<glyph unicode="_" horiz-adv-x="842" d="M32 -146h776v-112h-776v112z" />
<glyph unicode="`" horiz-adv-x="842" d="M550 1100l-276 180q-78 48 -78 90q0 8 5 20t17 23t30 19t44 8q32 0 94 -66l260 -274h-96z" />
<glyph unicode="a" horiz-adv-x="1018" d="M680 74q-58 -74 -158 -94q-54 -12 -194 -12q-120 0 -189 62t-69 182q0 202 228 294q48 20 141 40t233 42v28q0 20 -1 48t-3 68q-6 158 -208 158q-76 0 -130 -16t-54 -52q0 -20 10 -34q26 -44 26 -86q0 -98 -110 -98q-94 0 -94 126q0 130 140 198q134 64 240 64 q38 0 88 -10t98 -31t86 -51t56 -68q16 -36 20 -96t4 -130q0 -138 -4 -245t-4 -141q0 -62 17 -94t69 -32q66 0 80 -6t14 -18q0 -18 -13 -34t-33 -29t-45 -21t-47 -8q-90 0 -131 25t-63 71zM672 494q-212 -28 -319 -87t-107 -177q0 -70 48 -116t114 -46q164 0 218 76 q46 64 46 272v78z" />
<glyph unicode="b" horiz-adv-x="1076" d="M332 812h6q34 76 104 125t172 49q82 0 150 -44t118 -116t77 -161t27 -179q0 -100 -25 -193t-76 -165t-127 -116t-176 -44q-90 0 -160 42t-124 126l-40 -168h-122q4 22 10 80t10 152q2 30 4 62t2 62v960q0 58 -9 89t-61 35l-60 4v76l300 32v-708zM558 882q-50 0 -93 -35 t-74 -94t-49 -137t-18 -164q0 -184 65 -290t193 -106q100 0 163 106t63 290q0 210 -63 320t-187 110z" />
<glyph unicode="c" horiz-adv-x="906" d="M814 244q-52 -156 -132 -216t-210 -60q-86 0 -158 37t-124 101t-81 151t-29 187q0 128 29 231t84 176t135 112t182 39q68 0 126 -25t100 -64t65 -88t23 -97q0 -58 -26 -86t-70 -28q-48 0 -85 30t-37 84q0 44 18 71t18 33t-11 19t-29 25t-43 21t-53 9q-58 0 -103 -30 t-78 -84t-50 -130t-17 -168q0 -194 74 -304t206 -110q70 0 122 50t86 144z" />
<glyph unicode="d" horiz-adv-x="1084" d="M898 188q0 -68 30 -91t66 -23h38v-74l-296 -16v174h-8q-36 -90 -89 -140t-161 -50q-100 0 -177 44t-130 118t-80 168t-27 194q0 90 29 178t80 159t120 114t151 43q102 0 173 -49t105 -125h6v470q0 58 -9 88t-59 34l-94 8v76l332 32v-1332zM502 882q-124 0 -184 -110 t-60 -320q0 -184 60 -286t160 -102q62 0 111 31t81 84t49 124t17 149q0 86 -18 164t-49 137t-74 94t-93 35z" />
<glyph unicode="e" horiz-adv-x="970" d="M842 244q-52 -156 -149 -216t-229 -60q-86 0 -158 37t-124 101t-81 151t-29 187q0 128 29 231t84 176t135 112t182 39q86 0 158 -48t123 -123t79 -167t28 -178v-26h-640q8 -180 81 -280t199 -100q36 0 72 13t69 38t60 61t43 82zM712 642q0 116 -57 190t-153 74 q-104 0 -170 -92t-78 -248h360q36 0 56 3t29 11t11 23t2 39z" />
<glyph unicode="f" horiz-adv-x="664" d="M234 962v36q0 258 93 382t281 124q108 0 179 -52t71 -142q0 -52 -27 -83t-79 -31q-42 0 -74 28t-32 70q0 32 17 47t17 33q0 28 -28 39t-46 11q-64 0 -103 -32t-61 -87t-30 -129t-8 -158v-56h210v-120h-210v-654q0 -66 30 -90t68 -24h40v-74h-444v76h40q36 0 66 23t30 89 v654h-170v120h170z" />
<glyph unicode="g" horiz-adv-x="1068" d="M712 138q48 0 88 -18t69 -50t45 -75t16 -93q0 -158 -117 -240t-321 -82q-452 0 -452 226q0 24 12 51t36 51t60 44t86 32v6q-146 22 -146 182q0 132 174 196l18 6q-84 38 -125 111t-41 179q0 70 26 131t74 107t117 73t155 27q150 0 246 -78l60 58q30 30 62 42t60 12 q48 0 89 -31t41 -83q0 -42 -24 -70t-64 -28q-34 0 -48 17t-22 36t-16 36t-28 17q-8 0 -16 -8t-14 -12l-32 -36q36 -34 53 -89t17 -121q0 -174 -106 -257t-274 -83q-44 0 -90 -3t-84 -14t-62 -30t-24 -51q0 -40 21 -64t61 -24h420zM486 922q-94 0 -148 -70t-54 -188 q0 -128 50 -198t152 -70q46 0 83 21t62 57t39 85t14 105q0 258 -198 258zM470 -16q-52 0 -101 -8t-88 -27t-63 -54t-24 -89q0 -76 75 -111t237 -35q60 0 114 13t94 37t63 58t23 78q0 46 -28 73t-70 42t-91 19t-89 4h-52z" />
<glyph unicode="h" horiz-adv-x="1110" d="M340 796h6q38 86 125 138t183 52q134 0 217 -92t83 -296v-410q0 -66 30 -90t68 -24h36v-74h-438v76h38q34 0 65 21t31 85v418q0 140 -53 199t-125 59q-54 0 -103 -30t-85 -80t-57 -116t-21 -136v-308q0 -66 30 -90t66 -24h38v-74h-438v76h36q38 0 68 23t30 89v1094 q0 58 -9 88t-59 34l-94 8v76l332 32v-724z" />
<glyph unicode="i" horiz-adv-x="630" d="M388 1310q0 -44 -34 -79t-80 -35t-79 35t-33 79t33 79t79 35t80 -35t34 -79zM420 188q0 -66 31 -90t67 -24h36v-74h-438v76h38q36 0 66 23t30 89v576q0 58 -9 88t-59 34l-94 8v76l332 32v-814z" />
<glyph unicode="j" horiz-adv-x="582" d="M436 30q0 -100 -20 -183t-61 -142t-105 -92t-152 -33q-98 0 -158 43t-60 119q0 56 30 88t74 32q34 0 69 -19t35 -53q0 -22 -12 -51t-12 -39q0 -12 15 -22t43 -10q84 0 114 117t30 345v634q0 58 -9 88t-59 34l-92 8v76l330 32v-972zM428 1310q0 -44 -33 -79t-79 -35 t-80 35t-34 79t34 79t80 35t79 -35t33 -79z" />
<glyph unicode="k" horiz-adv-x="1080" d="M332 488l298 286q16 16 29 36t13 40q0 18 -17 31t-55 13h-60v76h430v-76h-32q-54 0 -89 -28t-69 -62l-198 -190l266 -388q16 -24 35 -51t38 -49t40 -36t41 -14h50v-76h-430v76h42q26 0 41 5t15 25q0 12 -9 23t-27 39l-230 334l-122 -128v-186q0 -68 30 -91t66 -23h36v-74 h-422v76h22q38 0 68 23t30 89v1098q0 58 -9 88t-61 34l-52 4v76l292 32v-1032z" />
<glyph unicode="l" horiz-adv-x="630" d="M404 188q0 -68 30 -91t68 -23h36v-74h-438v76h38q36 0 66 23t30 89v1094q0 58 -9 88t-59 34l-94 8v76l332 32v-1332z" />
<glyph unicode="m" horiz-adv-x="1664" d="M364 796h6q38 82 118 136t170 54q98 0 166 -58t96 -156q114 214 302 214q62 0 114 -26t90 -70t58 -102t20 -120v-484q0 -64 31 -86t67 -22h16v-76h-404v76h24q36 0 66 23t30 89v410q0 268 -166 268q-114 0 -172 -100t-58 -272v-304q0 -66 30 -90t68 -24h20v-76h-406v76 h22q36 0 66 23t30 89v406q0 272 -166 272q-110 0 -174 -93t-64 -261v-324q0 -66 30 -90t66 -24h26v-74h-412v76h24q36 0 66 23t30 89v576q0 58 -9 88t-59 34l-78 8v76l316 32v-206z" />
<glyph unicode="n" horiz-adv-x="1132" d="M340 796h6q38 86 125 138t183 52q134 0 217 -92t83 -296v-410q0 -66 30 -90t68 -24h24v-74h-426v76h38q34 0 65 21t31 85v418q0 140 -53 199t-125 59q-54 0 -103 -30t-85 -80t-57 -116t-21 -136v-308q0 -66 30 -90t66 -24h38v-74h-438v76h36q38 0 68 23t30 89v578 q0 58 -9 88t-59 34l-70 6v76l308 34v-208z" />
<glyph unicode="o" horiz-adv-x="970" d="M72 486q0 106 33 200t89 164t131 111t161 41q84 0 159 -41t131 -111t89 -164t33 -200q0 -108 -33 -202t-89 -164t-131 -111t-159 -41q-86 0 -161 41t-131 111t-89 164t-33 202zM250 486q0 -88 19 -164t52 -134t76 -91t93 -33t93 33t75 91t51 134t19 164q0 86 -19 163 t-51 134t-75 90t-93 33t-93 -33t-76 -90t-52 -134t-19 -163z" />
<glyph unicode="p" horiz-adv-x="1060" d="M356 808h4q42 78 114 128t156 50q96 0 166 -47t116 -120t68 -161t22 -172q0 -106 -28 -200t-79 -165t-121 -112t-152 -41q-176 0 -262 154h-4v-322q0 -66 30 -90t66 -24h38v-74h-438v76h36q38 0 68 23t30 89v966q0 60 -9 90t-59 34l-62 4v76l300 32v-194zM352 452 q0 -74 18 -142t50 -119t75 -81t95 -30q112 0 173 105t61 301q0 68 -11 137t-38 125t-72 91t-115 35q-52 0 -96 -32t-75 -89t-48 -134t-17 -167z" />
<glyph unicode="q" horiz-adv-x="1060" d="M874 -200q0 -66 30 -89t66 -23h38v-76h-438v74h36q38 0 68 24t30 90v322h-4q-86 -154 -264 -154q-82 0 -152 41t-121 112t-79 165t-28 200q0 84 22 172t69 161t117 120t166 47q84 0 155 -50t115 -128h4v194l298 -32v-76l-60 -4q-26 -2 -40 -11t-20 -24t-7 -37t-1 -52 v-966zM708 452q0 90 -18 167t-49 134t-75 89t-96 32q-70 0 -115 -35t-72 -91t-38 -125t-11 -137q0 -196 62 -301t174 -105q50 0 94 30t76 81t50 119t18 142z" />
<glyph unicode="r" horiz-adv-x="874" d="M704 688q-44 0 -71 34t-27 78q0 22 24 62q12 16 14 25t2 13q-126 -22 -206 -224q-32 -80 -50 -156t-18 -150v-182q0 -66 30 -90t68 -24h36v-74h-438v76h38q36 0 66 23t30 89v576q0 58 -9 88t-59 34l-94 8v76l332 32v-290h6q12 58 39 108t66 87t87 58t98 21q66 0 111 -48 t45 -114q0 -68 -31 -102t-89 -34z" />
<glyph unicode="s" horiz-adv-x="874" d="M728 664h-64q-62 242 -292 242q-70 0 -124 -40t-54 -116q0 -58 41 -92t155 -60l114 -28q68 -16 122 -36t91 -52t56 -79t19 -119q0 -76 -28 -134t-73 -99t-103 -62t-118 -21q-78 0 -144 27t-132 81l-56 -92h-66v364l66 -8q14 -64 49 -115t82 -87t103 -55t114 -19 q36 0 70 12t59 32t41 46t16 56q0 96 -100 136q-46 18 -100 35t-102 30t-82 21t-36 8q-100 26 -136 95t-36 161q0 64 25 120t66 97t93 65t108 24q64 0 125 -23t117 -73l58 80h56v-322z" />
<glyph unicode="t" horiz-adv-x="776" d="M378 1334v-372h286v-120h-284v-584q0 -160 126 -160q76 0 117 68t41 174h80v-16q0 -176 -76 -258t-228 -82q-102 0 -166 63t-64 159v636h-170v120h16q60 0 98 6t59 28t29 63t8 113v40t1 45t2 43t5 34h120z" />
<glyph unicode="u" horiz-adv-x="1080" d="M906 218q0 -30 1 -52t7 -37t20 -23t40 -10l44 -4v-78l-282 -30v178h-4q-104 -194 -276 -194q-92 0 -153 29t-98 78t-52 116t-15 143v434q0 58 -9 88t-61 34l-44 4v78l284 30v-692q0 -100 45 -165t145 -65q44 0 86 31t76 85t55 126t21 152v294q0 58 -9 88t-59 34l-46 4v78 l284 30v-784z" />
<glyph unicode="v" horiz-adv-x="1036" d="M16 1002h404v-74h-26q-24 0 -47 -16t-23 -46q0 -18 9 -38t17 -36l214 -538l166 458q30 86 30 130q0 40 -17 63t-55 23h-42v74h372v-74h-16q-32 0 -59 -21t-49 -53t-39 -70t-31 -72l-274 -696h-64l-316 776q-24 58 -41 97t-57 39h-56v74z" />
<glyph unicode="w" horiz-adv-x="1482" d="M18 970h386v-76h-36q-24 0 -50 -15t-26 -47q0 -18 5 -37t11 -35l188 -502l182 518q-12 50 -31 84t-69 34h-28v76h396v-76h-8q-46 0 -84 -15t-38 -47q0 -18 6 -37t12 -35l188 -502l170 422q10 24 20 59t10 69q0 36 -17 61t-63 25h-34v76h356v-76h-8q-44 0 -70 -16t-40 -39 t-22 -49t-16 -48l-272 -758h-66l-240 618l-220 -618h-66l-302 776q-22 60 -38 97t-60 37h-26v76z" />
<glyph unicode="x" horiz-adv-x="1044" d="M452 970v-76h-40q-20 0 -38 -7t-18 -29q0 -12 9 -30t25 -40l142 -196l128 162q18 22 26 42t8 34q0 64 -74 64h-26v76h384v-76h-24q-46 0 -75 -19t-65 -65l-232 -288l226 -318q50 -70 88 -99t96 -29h18v-76h-468v76h32q28 0 50 12t22 34q0 20 -36 68l-140 198l-138 -180 q-6 -8 -23 -29t-17 -33q0 -26 15 -48t55 -22h36v-76h-390v76h24q30 0 76 25t80 71l230 284l-196 286q-16 24 -36 51t-43 50t-51 37t-60 14h-16v76h436z" />
<glyph unicode="y" horiz-adv-x="1068" d="M436 970v-76h-24q-26 0 -49 -15t-23 -47q0 -18 10 -37t16 -35l214 -538l166 458q30 86 30 128q0 86 -72 86h-40v76h372v-76h-18q-32 0 -59 -21t-49 -52t-40 -69t-30 -72l-276 -746q-68 -184 -169 -269t-207 -85q-76 0 -128 42t-52 120q0 48 34 80t88 32q34 0 61 -19 t27 -53q0 -42 -12 -59t-12 -21q0 -12 9 -19t19 -7q64 0 134 78t134 254l-304 752q-24 58 -41 96t-57 38h-40v76h388z" />
<glyph unicode="z" horiz-adv-x="866" d="M776 970v-76l-542 -814h218q144 0 206 77t62 199v8h72v-364h-760v76l538 814h-174q-80 0 -133 -25t-84 -62t-44 -80t-13 -81v-12h-74v340h728z" />
<glyph unicode="{" horiz-adv-x="646" d="M254 1294q0 74 13 127t45 85t87 47t137 15q-88 -24 -120 -79t-32 -163v-394q0 -60 -9 -103t-29 -72t-51 -47t-73 -30q42 -12 73 -31t51 -48t29 -71t9 -102v-396q0 -108 32 -163t120 -79q-82 0 -137 15t-87 48t-45 85t-13 126v392q0 96 -30 146t-114 78q84 28 114 77 t30 147v390z" />
<glyph unicode="|" horiz-adv-x="1148" d="M502 1488h144v-1488h-144v1488z" />
<glyph unicode="}" horiz-adv-x="646" d="M262 1326q0 108 -32 163t-120 79q82 0 136 -15t86 -47t45 -85t13 -127v-390q0 -98 31 -147t115 -77q-84 -28 -115 -78t-31 -146v-392q0 -74 -13 -126t-45 -85t-86 -48t-136 -15q88 24 120 79t32 163v396q0 60 9 102t29 71t51 48t73 31q-42 12 -73 30t-51 47t-29 72 t-9 103v394z" />
<glyph unicode="~" horiz-adv-x="1018" d="M84 614q56 108 116 151t124 43q34 0 84 -14t114 -48q64 -32 111 -49t71 -17q44 0 76 35t70 111l82 -82q-54 -102 -108 -148t-120 -46q-52 0 -234 80q-50 22 -84 36t-62 14q-24 0 -42 -4t-36 -19t-38 -44t-44 -79z" />
<glyph unicode="&#xad;" horiz-adv-x="582" d="M32 616v122h524v-122h-524z" />
<glyph unicode="&#xb7;" horiz-adv-x="340" d="M64 744q0 44 30 75t76 31t75 -31t29 -75t-29 -75t-75 -31t-76 31t-30 75z" />
<glyph unicode="&#xf01;" horiz-adv-x="1320" d="M424 1488l-54 -144l-7 -21t-9 -15t-18 -9t-34 -3q-16 -20 -35 -57t-34 -80t-25 -90t-10 -89q0 -54 10 -115t37 -113t77 -86t132 -34q148 0 148 124q0 18 -6 39t-18 39t-32 30t-46 12q-56 0 -82 -12t-34 -12q-10 0 -12 9t-2 15q0 18 25 78t59 130t72 131t64 81h-54 q-36 0 -46 6t-10 30q0 8 10 30t22 46t24 47t18 33h388l-50 -144q-8 -22 -14 -35t-36 -13h-52q32 -42 59 -77t54 -72t55 -82t60 -107q20 -40 51 -104t65 -134t66 -137t54 -115q20 -46 40 -90t35 -81t25 -64t10 -35q0 -34 -20 -34q-16 0 -27 5t-27 29q-66 100 -117 183 t-97 157t-90 144t-94 147t-110 165t-138 198q-12 -4 -31 -25t-37 -46t-32 -50t-14 -35q10 4 21 5t21 1q32 0 60 -26t47 -66t30 -87t11 -89q0 -40 -24 -93t-66 -101t-97 -82t-117 -34q-50 0 -109 20t-110 68t-85 128t-34 200q0 108 25 216t47 200h-22q-36 0 -46 6t-10 30 q0 8 9 30t21 46t24 47t18 33h280z" />
<glyph unicode="&#xf02;" horiz-adv-x="1960" d="M1844 1266q0 -58 -24 -108t-65 -88t-96 -60t-119 -22q-48 0 -90 21t-75 53t-52 72t-19 78t22 87t61 92t93 72t116 29q66 0 113 -25t77 -60t44 -74t14 -67zM1864 556q0 -56 -24 -106t-65 -88t-96 -60t-119 -22q-48 0 -90 21t-75 54t-52 73t-19 78t22 86t61 91t93 72 t116 29q66 0 113 -25t77 -61t44 -75t14 -67zM1706 1194q0 20 -14 50t-38 58t-58 48t-74 20q-26 0 -49 -25t-23 -53q0 -42 19 -76t48 -56t64 -34t65 -12q22 0 41 20t19 60zM1726 486q0 20 -14 50t-38 59t-58 49t-74 20q-26 0 -49 -26t-23 -54q0 -42 19 -75t48 -56t64 -34 t65 -11q22 0 41 20t19 58zM1440 -72q0 -78 -33 -148t-85 -124t-117 -85t-131 -31q-78 0 -147 37t-137 99t-138 139t-151 159t-178 159t-215 137q-40 16 -40 50q0 10 9 29t17 19q32 0 68 -14q86 -38 179 -100t188 -132t188 -142t180 -130t164 -94t141 -36q58 0 100 38t42 114 q0 34 -21 64t-54 52t-74 35t-81 13q-42 0 -78 -16q-6 -2 -18 -10t-25 -16t-26 -15t-19 -7q-10 0 -11 23t-1 41q0 24 13 59t41 67t71 55t101 23q62 0 113 -25t88 -68t57 -100t20 -119zM1140 1488l-66 -144q-18 -40 -78 -48q34 -40 46 -108t12 -132q0 -28 -12 -66t-33 -74 t-48 -65t-59 -41q64 -26 118 -77t94 -112t62 -124t22 -113q0 -6 -6 -28t-16 -22q-18 0 -48 49t-80 108t-124 108t-180 49q-54 0 -90 -4t-66 -11t-58 -18t-64 -23q0 58 7 107t33 84t75 55t137 20q8 0 21 -1l26 -2t24 -2t15 -3q30 24 55 73t25 133q0 44 -14 88t-41 77t-64 54 t-81 21h-224q-46 0 -87 -25t-73 -65t-50 -90t-18 -100q0 -56 7 -87t16 -54t17 -48t8 -69q0 -30 -10 -67t-24 -68t-31 -52t-31 -21q-20 0 -20 6q0 4 2 8t2 8q0 48 -16 88t-36 79t-36 80t-16 93q0 84 7 141t21 102t36 84t52 85q12 18 39 45t62 54t70 46t61 19h728zM1082 1926 q0 -12 -10 -35t-18 -37q-40 -56 -79 -102t-82 -79t-93 -52t-112 -19q-70 0 -127 22t-104 61t-86 91t-69 110q-12 24 -21 41t-9 29q0 8 4 15t14 7t31 -11t45 -33q32 -28 64 -55t69 -47t83 -32t108 -12q86 0 149 24t108 52t75 52t48 24q10 0 11 -3t1 -11zM934 2124 q0 -48 -21 -91t-58 -75t-87 -51t-106 -19q-42 0 -80 18t-67 45t-46 61t-17 66t20 74t55 78t82 61t103 25q60 0 102 -21t69 -51t39 -63t12 -57zM810 2064q0 64 -47 106t-117 42q-22 0 -43 -22t-21 -44q0 -52 17 -81t43 -45t56 -20t58 -4q20 0 37 17t17 51z" />
<glyph unicode="&#xf03;" horiz-adv-x="1960" d="M1828 1322q0 -28 -18 -72t-51 -85t-80 -70t-105 -29q-34 0 -75 11t-76 32t-59 52t-24 71q0 26 16 70t47 87t76 75t103 32q34 0 77 -12t80 -35t63 -55t26 -72zM1848 522q0 -28 -18 -72t-51 -86t-80 -73t-105 -31q-34 0 -75 12t-76 34t-59 54t-24 72q0 26 16 69t47 84 t76 71t103 30q34 0 77 -10t80 -31t63 -52t26 -71zM1892 994q-66 -108 -147 -160t-159 -52t-163 56t-155 160q-4 4 -6 18t-2 18q0 10 26 10q14 0 24 -6q54 -30 94 -47t70 -27t55 -13t53 -3q50 0 88 9t74 23t73 32t85 34q0 -8 -3 -26t-7 -26zM1488 1400q-16 0 -21 -22t-5 -40 q0 -80 57 -126t153 -46q16 0 23 16t7 38q0 80 -56 130t-158 50zM1508 588q-16 0 -21 -17t-5 -39q0 -78 56 -126t152 -48q16 0 24 18t8 40q0 80 -56 126t-158 46zM928 2072q0 -50 -24 -92t-61 -73t-85 -49t-96 -18q-28 0 -65 12t-70 38t-56 64t-23 90q0 48 17 87t41 67t50 43 t44 15q-4 4 -6 12q-2 6 -3 12t-1 16q0 22 14 36t31 28t31 32t14 48q0 6 -2 15t-4 19t-4 22q48 0 59 -23t13 -56t10 -70t50 -67q24 -16 47 -29t40 -34t28 -55t11 -90zM1062 1860q0 -42 -30 -94t-82 -98t-121 -78t-145 -32q-66 0 -136 36t-127 88t-93 109t-36 97q0 6 3 13 t13 7q18 0 49 -28t78 -61t109 -60t144 -27q80 0 140 22t103 48t71 48t46 22q10 0 12 -2t2 -10zM828 2038q0 52 -48 92t-124 40q-94 0 -94 -68q0 -28 13 -54t36 -46t54 -32t67 -12q40 0 68 21t28 59zM1440 -72q0 -78 -33 -148t-85 -124t-117 -85t-131 -31q-78 0 -148 39 t-138 101t-139 143t-153 163t-179 161t-215 139q-18 8 -26 13t-8 21q0 10 9 29t17 19q32 0 68 -14q86 -38 179 -100t188 -132t188 -142t180 -130t164 -94t141 -36q58 0 100 38t42 114q0 34 -21 64t-54 52t-74 35t-81 13q-42 0 -78 -16q-6 -2 -18 -10t-25 -16t-26 -15t-19 -7 q-10 0 -11 23t-1 41q0 24 13 59t41 67t71 55t101 23q62 0 113 -25t88 -68t57 -100t20 -119zM1140 1488l-66 -144q-18 -40 -78 -48q34 -40 54 -108t20 -132q0 -28 -14 -66t-38 -74t-54 -65t-62 -41q64 -26 124 -81t107 -119t76 -130t29 -116q0 -6 -6 -28t-16 -22 q-18 0 -55 52t-94 115t-137 115t-186 52q-54 0 -90 -4t-66 -11t-58 -18t-64 -23q0 58 7 107t33 84t75 55t137 20q8 0 21 -1l26 -2t24 -2t15 -3q30 24 55 73t25 133q0 44 -14 88t-41 77t-64 54t-81 21h-224q-46 0 -87 -25t-73 -65t-50 -90t-18 -100q0 -56 7 -87t16 -54 t17 -48t8 -69q0 -30 -10 -67t-24 -68t-31 -52t-31 -21q-20 0 -20 6q0 4 2 8t2 8q0 48 -18 88t-39 79t-39 80t-18 93q0 84 8 141t25 102t40 84t53 85q12 18 39 45t62 54t70 46t61 19h728z" />
<glyph unicode="&#xf04;" horiz-adv-x="2240" d="M1752 1512q54 0 123 -22t130 -68t102 -118t41 -170q0 -112 -43 -217t-120 -186t-182 -130t-231 -49q-100 0 -196 38t-191 100t-191 139t-192 153q-86 68 -175 135t-182 127t-190 110t-199 84q-56 20 -56 46q0 6 10 17t32 11q122 0 252 -57t264 -142t274 -185t283 -185 t289 -142t296 -57q134 0 213 59t79 205q0 48 -13 102t-52 101t-110 78t-189 31q-40 0 -66 -17t-26 -59q0 -40 39 -65t87 -48t87 -51t39 -72q0 -24 -6 -49t-17 -46t-24 -35t-25 -14t-58 19t-97 58t-92 97t-41 136q0 28 15 85t52 113t99 98t158 42zM916 708q26 -28 89 -79 t149 -100t191 -85t217 -36q138 0 240 47t173 103t112 103t55 47q26 0 26 -14q0 -4 -22 -41t-64 -88t-102 -110t-136 -109t-167 -83t-193 -33q-108 0 -184 23t-143 70t-139 120t-172 173z" />
<glyph unicode="&#xf05;" horiz-adv-x="1222" d="M-106 1104q18 -16 60 -48t102 -72t136 -82t161 -77t177 -58t186 -23q66 0 120 14t94 45t62 82t22 123q0 48 -13 102t-52 101t-111 78t-190 31q-88 0 -88 -74q0 -44 39 -70t86 -48t86 -49t39 -71q0 -24 -7 -49t-17 -47t-23 -36t-25 -14q-14 0 -60 20t-96 59t-90 97 t-40 136q0 28 13 85t49 114t98 99t160 42q56 0 126 -22t132 -69t104 -119t42 -170q0 -112 -45 -217t-125 -186t-187 -130t-231 -49q-100 0 -191 33t-170 83t-143 108t-109 108t-70 83t-25 35zM-88 698q26 -28 90 -77t155 -96t201 -82t226 -35q130 0 232 47t176 103t117 103 t57 47q4 0 14 -5t10 -9q0 -12 -24 -50t-69 -90t-108 -109t-140 -106t-168 -80t-189 -31q-90 0 -165 19t-147 63t-150 116t-174 180z" />
<glyph unicode="&#xf06;" horiz-adv-x="3256" d="M1578 96q22 0 26 -13t4 -33q-6 -40 -17 -76t-22 -73t-21 -77t-12 -88l-26 -638q0 -34 -46 -34t-46 34l-26 638q-2 48 -11 88t-20 76t-23 70t-18 72q0 22 4 38t32 16h222zM1752 1512q54 0 123 -22t130 -68t102 -118t41 -170q0 -112 -43 -217t-120 -186t-182 -130t-231 -49 q-100 0 -196 38t-191 100t-191 139t-192 153q-86 68 -175 135t-182 127t-190 110t-199 84q-56 20 -56 46q0 6 10 17t32 11q122 0 252 -57t264 -142t274 -185t283 -185t289 -142t296 -57q134 0 213 59t79 205q0 48 -13 102t-52 101t-110 78t-189 31q-40 0 -66 -17t-26 -59 q0 -40 39 -65t87 -48t87 -51t39 -72q0 -24 -6 -49t-17 -46t-24 -35t-25 -14t-58 19t-97 58t-92 97t-41 136q0 28 15 85t52 113t99 98t158 42zM916 708q26 -28 89 -79t149 -100t191 -85t217 -36q138 0 240 47t173 103t112 103t55 47q26 0 26 -14q0 -4 -22 -41t-64 -88 t-102 -110t-136 -109t-167 -83t-193 -33q-108 0 -184 23t-143 70t-139 120t-172 173z" />
<glyph unicode="&#xf07;" horiz-adv-x="3216" d="M2928 1488l120 24v-1248l-120 -24v1248zM2808 1344l-108 -288h-72l-108 288h288zM2808 672l-108 -288h-72l-108 288h288zM2280 1488l120 24v-1248l-120 -24v1248zM1752 1512q54 0 123 -22t130 -68t102 -118t41 -170q0 -112 -43 -217t-120 -186t-182 -130t-231 -49 q-100 0 -196 38t-191 100t-191 139t-192 153q-86 68 -175 135t-182 127t-190 110t-199 84q-56 20 -56 46q0 6 10 17t32 11q122 0 252 -57t264 -142t274 -185t283 -185t289 -142t296 -57q134 0 213 59t79 205q0 48 -13 102t-52 101t-110 78t-189 31q-40 0 -66 -17t-26 -59 q0 -40 39 -65t87 -48t87 -51t39 -72q0 -24 -6 -49t-17 -46t-24 -35t-25 -14t-58 19t-97 58t-92 97t-41 136q0 28 15 85t52 113t99 98t158 42zM916 708q26 -28 89 -79t149 -100t191 -85t217 -36q138 0 240 47t173 103t112 103t55 47q26 0 26 -14q0 -4 -22 -41t-64 -88 t-102 -110t-136 -109t-167 -83t-193 -33q-108 0 -184 23t-143 70t-139 120t-172 173z" />
<glyph unicode="&#xf08;" horiz-adv-x="1040" d="M848 -760q-34 0 -85 28t-108 74t-115 107t-103 128t-74 136t-29 131q0 82 21 141t45 99t45 65t21 41q0 10 -10 10t-29 -5t-40 -11t-41 -11t-34 -5q-12 0 -12 16q0 24 31 58t78 65t103 54t106 23q24 0 43 -10t19 -20q0 -26 -19 -55t-37 -49q-48 -84 -86 -188t-38 -218 q0 -90 28 -170t76 -149t111 -128t133 -107q4 -2 11 -11t7 -17q0 -10 -6 -16t-12 -6zM248 1050q0 26 20 50t44 49t44 55t20 66q0 22 -14 29t-42 7q-44 0 -77 -18t-59 -39t-47 -39t-41 -18q-14 0 -25 3t-11 13q0 22 31 68t81 93t113 83t125 36q40 0 62 -6t32 -17t12 -29t2 -42 q0 -66 -31 -123t-77 -103q0 -8 10 -25t25 -34t34 -30t39 -13q96 0 147 44t51 150q0 80 -8 148t-22 122q-4 12 -4 22q0 12 6 18l108 130q16 22 24 22t14 -26q8 -34 13 -71t7 -74t3 -70t1 -57q0 -76 -28 -161t-84 -156t-140 -117t-196 -46q-24 0 -53 6t-53 20t-40 33t-16 47z M250 638q0 28 26 69t68 79t96 65t108 27q32 0 71 -8t73 -20t57 -28t23 -30q0 -6 -5 -22t-12 -32t-15 -28t-14 -12q-4 0 -24 3t-47 8t-57 8t-54 3q-38 0 -83 -16t-85 -35t-71 -35t-39 -16q-16 0 -16 20zM250 382q0 30 26 71t68 79t96 65t108 27q32 0 71 -8t73 -21t57 -28 t23 -29q0 -6 -5 -22t-12 -32t-15 -28t-14 -12q-4 0 -24 3t-47 7t-57 7t-54 3q-38 0 -83 -16t-85 -34t-71 -34t-39 -16q-16 0 -16 18z" />
<glyph unicode="&#xf09;" horiz-adv-x="1360" d="M656 1006q18 16 46 35t53 42t44 47t19 52q0 34 -17 62t-43 47t-59 29t-65 10q-70 0 -151 -25t-155 -60t-133 -71t-85 -56q-16 -10 -30 -10q-12 0 -24 11t-12 21q0 14 10 20q56 60 139 123t172 116t175 87t150 34q62 0 116 -16t93 -45t61 -70t22 -91q0 -70 -18 -120 t-47 -85t-67 -59t-76 -42q90 -6 165 -60t129 -122t84 -133t30 -91q0 -10 -12 -17t-22 -7q-14 0 -21 14t-17 24q-60 60 -114 101t-113 67t-124 37t-145 11q-74 0 -126 -16t-91 -36t-69 -36t-60 -16q-10 0 -22 7t-12 21t8 22q38 42 85 83t100 74t111 56t118 31zM268 448 q32 36 78 71t102 61t122 42t138 16q84 0 152 -29t121 -73t91 -95t63 -95t37 -75t12 -33q0 -22 -22 -22q-12 0 -26 13t-26 23q-60 60 -116 98t-114 60t-123 31t-145 9q-66 0 -122 -14t-100 -30t-75 -30t-47 -14q-10 0 -22 5t-12 19q0 22 10 34t24 28z" />
<glyph unicode="&#xf0a;" horiz-adv-x="2560" d="M1304 1008q-60 -8 -118 -31t-111 -56t-100 -74t-85 -83q-8 -8 -8 -22t12 -21t22 -7q30 0 60 16t69 36t91 36t126 16q80 0 145 -11t124 -37t113 -67t114 -101q10 -10 17 -24t21 -14q10 0 22 7t12 17q0 26 -30 91t-84 133t-129 122t-165 60q38 18 76 42t67 59t47 85t18 120 q0 50 -22 91t-61 70t-93 45t-116 16q-64 0 -150 -34t-175 -87t-172 -116t-139 -123q-10 -6 -10 -20q0 -10 12 -21t24 -11q14 0 30 10q26 20 85 56t133 71t155 60t151 25q32 0 65 -10t59 -29t43 -47t17 -62q0 -28 -19 -52t-44 -47t-53 -42t-46 -35zM916 450q-14 -16 -24 -28 t-10 -34q0 -14 12 -19t22 -5q16 0 47 14t75 30t100 30t122 14q80 0 145 -9t123 -31t114 -60t116 -98q12 -10 26 -23t26 -13q22 0 22 22q0 2 -12 33t-37 75t-63 95t-91 95t-121 73t-152 29q-72 0 -138 -16t-122 -42t-102 -61t-78 -71zM1820 -174q-10 0 -16 8t-6 16 q2 24 17 66t41 83t62 70t82 29q100 0 180 -22t137 -57t87 -76t30 -77q0 -64 -52 -138t-139 -137t-200 -104t-237 -41q-310 0 -560 50t-443 138t-333 210t-229 266t-132 304t-43 326q0 186 62 376t194 361t337 311t493 224q12 4 28 8t26 4q34 0 34 -24q0 -14 -13 -32t-41 -32 q-212 -106 -384 -207t-294 -231t-188 -307t-66 -435q0 -226 107 -429t320 -356t530 -242t739 -89q32 0 88 12t108 30t91 39t39 39q0 64 -77 105t-217 41q-36 0 -62 -13t-46 -28t-33 -27t-21 -12z" />
<glyph unicode="&#xf0b;" horiz-adv-x="380" d="M200 1194q-16 0 -24 10t-20 36q-12 24 -27 51t-28 52t-23 47t-10 34q0 22 17 43t53 21h124q36 0 53 -21t17 -43q0 -12 -10 -34t-23 -47t-28 -52t-27 -51q-12 -26 -20 -36t-24 -10z" />
<glyph unicode="&#xf0c;" horiz-adv-x="380" d="M200 1194q-16 0 -24 10t-20 36q-12 24 -27 51t-28 52t-23 47t-10 34q0 22 17 43t53 21h124q36 0 53 -21t17 -43q0 -12 -10 -34t-23 -47t-28 -52t-27 -51q-12 -26 -20 -36t-24 -10z" />
<glyph unicode="&#xf0d;" horiz-adv-x="500" d="M332 1488q28 0 43 -8t15 -30q0 -38 -11 -75t-21 -77t-23 -79t-13 -79v-1822q0 -10 -10 -24t-38 -14q-14 0 -25 14t-11 24l-96 1806q0 12 -6 33t-14 42t-20 40t-24 31v82l56 136h198z" />
<glyph unicode="&#xf0e;" horiz-adv-x="890" d="M328 1488q24 0 41 -8t17 -30q0 -38 -11 -75t-23 -77q-14 -40 -24 -79t-10 -79v-1714q0 -10 -10 -24t-38 -14q-14 0 -25 14t-11 24l-96 1698q-2 12 -4 33t-8 42t-14 40t-22 31v82l56 136h182zM750 1488q22 0 42 -8t20 -30q0 -38 -12 -75t-26 -77t-25 -79t-11 -79v-1714 q0 -10 -10 -24t-26 -14q-20 0 -34 14t-14 24l-96 1698q0 12 -3 33t-8 42t-13 40t-20 31v82l54 136h182z" />
<glyph unicode="&#xf0f;" horiz-adv-x="680" d="M98 196q0 36 13 91t31 117t41 128t41 124t31 103t13 67q0 24 -23 59t-50 69t-50 64t-23 44q0 60 62 60h102q22 0 42 -5t32 -21q12 -6 30 -25t35 -44t29 -55t12 -58q0 -44 -17 -104t-42 -129t-55 -141t-55 -138t-42 -122t-17 -92q0 -44 23 -112t61 -147t85 -164t95 -162 t93 -142t75 -105q14 -18 14 -42q0 -14 -7 -24t-25 -10q-8 0 -17 12t-19 24q-14 16 -57 71t-101 134t-121 173t-116 186t-88 176t-35 140zM262 1194q-16 0 -24 10t-20 36q-12 24 -27 51t-28 52t-23 47t-10 34q0 22 17 43t53 21h124q36 0 53 -21t17 -43q0 -12 -10 -34t-23 -47 t-28 -52t-27 -51q-12 -26 -20 -36t-24 -10z" />
<glyph unicode="&#xf10;" horiz-adv-x="762" d="M480 1142q36 0 36 -26q0 -16 -8 -41t-18 -53q-16 -48 -34 -106t-18 -118v-1486q0 -16 -17 -24t-29 -8t-27 8t-17 24l-88 1468q-2 30 -16 75t-32 71v84l54 132h214zM278 1486q22 0 28 -5t6 -13q0 -10 -1 -13t-11 -15l-92 -178h2q0 -2 -6 -14h2q-4 -12 -10 -16t-28 -4 q-28 0 -36 6t-18 28h2l-102 162q0 22 15 42t65 20h184zM664 1486q26 0 34 -7t8 -17q0 -2 -2 -7t-11 -24t-31 -58t-60 -111l-4 -4q-2 -2 -2 -4h4q-6 -16 -14 -21t-32 -5q-22 0 -28 4t-10 16h2q-6 12 -6 14h2l-102 162q0 22 13 42t63 20h176z" />
<glyph unicode="&#xf11;" horiz-adv-x="840" d="M512 880q36 0 36 -24q0 -16 -8 -40t-20 -54q-18 -48 -36 -107t-18 -119v-1214q0 -16 -11 -29t-33 -13q-12 0 -28 10t-16 32l-78 1214q-2 32 -13 68t-31 58v86l58 132h198zM314 1488q22 0 26 -6t4 -16q0 -6 -5 -19t-9 -21l-80 -166q-12 -30 -50 -30q-16 0 -24 6t-22 28 l-102 162q0 22 17 42t65 20h180zM758 1488q22 0 26 -6t4 -16q0 -6 -5 -19t-9 -21l-80 -166q-12 -30 -50 -30q-16 0 -24 6t-22 28l-102 162q0 22 17 42t65 20h180zM524 1200q22 0 26 -6t4 -16q0 -6 -5 -19t-9 -21l-80 -166q-12 -30 -50 -30q-16 0 -24 6t-22 28l-102 162 q0 22 17 42t65 20h180z" />
<glyph unicode="&#xf12;" horiz-adv-x="1980" d="M1428 886q0 16 -4 28t-4 16q0 10 14 10q12 0 29 -7t35 -16t33 -18t21 -13q10 -4 13 -18t3 -32q0 -24 -5 -55t-14 -61t-22 -57t-27 -43q52 -56 67 -123t15 -167q-12 0 -35 5t-46 13t-39 20t-16 28q0 50 -17 96t-36 82t-36 59t-17 27q0 6 14 19t30 38t30 66t14 103z M558 382q0 -14 4 -26t4 -16q0 -10 -16 -10q-10 0 -28 7t-36 16t-33 17t-21 12q-8 4 -11 18t-3 32q0 24 5 55t14 61t22 57t27 43q-52 56 -67 123t-15 169q14 0 36 -5t44 -13t38 -21t16 -27q0 -52 17 -98t37 -82t37 -59t17 -27t-14 -17t-30 -38t-30 -67t-14 -104zM250 382 q0 -14 4 -26t4 -16q0 -10 -16 -10q-10 0 -28 7t-36 16t-33 17t-21 12q-8 4 -11 18t-3 32q0 24 5 55t14 61t22 57t27 43q-52 56 -67 123t-15 169q14 0 36 -5t44 -13t38 -21t16 -27q0 -52 17 -98t37 -82t37 -59t17 -27t-14 -17t-30 -38t-30 -67t-14 -104zM1732 886q0 16 -4 28 t-4 16q0 10 14 10q12 0 29 -7t35 -16t33 -18t21 -13q10 -4 13 -18t3 -32q0 -24 -5 -55t-14 -61t-22 -57t-27 -43q52 -56 67 -123t15 -167q-12 0 -35 5t-46 13t-39 20t-16 28q0 50 -17 96t-36 82t-36 59t-17 27q0 6 14 19t30 38t30 66t14 103zM1340 -760q-34 0 -85 28 t-108 74t-115 107t-103 128t-74 136t-29 131q0 82 21 141t45 99t45 65t21 41q0 10 -10 10t-29 -5t-40 -11t-41 -11t-34 -5q-12 0 -12 16q0 24 31 58t78 65t103 54t106 23q24 0 43 -10t19 -20q0 -26 -19 -55t-37 -49q-48 -84 -86 -188t-38 -218q0 -90 28 -170t76 -149 t111 -128t133 -107q4 -2 11 -11t7 -17q0 -10 -6 -16t-12 -6zM740 1050q0 26 20 50t44 49t44 55t20 66q0 22 -14 29t-42 7q-44 0 -77 -18t-59 -39t-47 -39t-41 -18q-14 0 -25 3t-11 13q0 22 31 68t81 93t113 83t125 36q40 0 62 -6t32 -17t12 -29t2 -42q0 -66 -31 -123 t-77 -103q0 -8 10 -25t25 -34t34 -30t39 -13q96 0 147 44t51 150q0 80 -8 148t-22 122q-4 12 -4 22q0 12 6 18l108 130q16 22 24 22t14 -26q8 -34 13 -71t7 -74t3 -70t1 -57q0 -76 -28 -161t-84 -156t-140 -117t-196 -46q-24 0 -53 6t-53 20t-40 33t-16 47zM742 638 q0 28 26 69t68 79t96 65t108 27q32 0 71 -8t73 -20t57 -28t23 -30q0 -6 -5 -22t-12 -32t-15 -28t-14 -12q-4 0 -24 3t-47 8t-57 8t-54 3q-38 0 -83 -16t-85 -35t-71 -35t-39 -16q-16 0 -16 20zM742 382q0 30 26 71t68 79t96 65t108 27q32 0 71 -8t73 -21t57 -28t23 -29 q0 -6 -5 -22t-12 -32t-15 -28t-14 -12q-4 0 -24 3t-47 7t-57 7t-54 3q-38 0 -83 -16t-85 -34t-71 -34t-39 -16q-16 0 -16 18z" />
<glyph unicode="&#xf13;" horiz-adv-x="2016" d="M430 538q0 120 47 226t128 185t189 125t228 46t227 -46t188 -125t129 -185t48 -226q0 -118 -48 -223t-129 -183t-188 -124t-227 -46t-228 46t-189 124t-128 183t-47 223zM574 534q0 -96 35 -180t96 -147t143 -100t174 -37q96 0 179 37t145 100t97 147t35 180t-35 181 t-97 149t-145 101t-179 37q-92 0 -174 -37t-143 -101t-96 -149t-35 -181zM1182 -270l-164 -146l-156 146l156 160zM1186 1344l-164 -152l-152 152l152 152zM1986 538l-154 -152l-160 152l160 152zM366 534l-166 -152l-148 152l148 152z" />
<glyph unicode="&#xf14;" horiz-adv-x="760" d="M640 1324q0 -28 -18 -72t-51 -85t-80 -70t-105 -29q-34 0 -75 11t-76 32t-59 52t-24 71q0 26 16 69t47 85t76 72t103 30q34 0 77 -11t80 -32t63 -52t26 -71zM640 584q0 -28 -18 -71t-51 -84t-80 -71t-105 -30q-34 0 -75 11t-76 32t-59 52t-24 71q0 26 16 69t47 84t76 71 t103 30q34 0 77 -10t80 -31t63 -52t26 -71zM704 1036q-66 -108 -147 -160t-159 -52t-163 56t-155 160v16q0 4 3 7t15 3q14 0 24 -6q54 -30 94 -47t70 -27t55 -13t53 -3q38 0 65 3t50 10t47 18t58 27q14 8 30 15t36 17h-2q4 4 14 4h-4q2 0 7 1t9 1q6 0 10 2q0 -16 -10 -32z M300 1394q-16 0 -21 -18t-5 -36q0 -80 57 -126t153 -46q16 0 23 16t7 38q0 80 -56 126t-158 46zM300 650q-16 0 -21 -17t-5 -39q0 -78 57 -122t153 -44q30 0 30 50q0 80 -56 126t-158 46z" />
<glyph unicode="&#xf15;" horiz-adv-x="2208" d="M262 1488h1684v-2302h-236q-80 0 -150 50t-137 126t-137 164t-151 164t-179 126t-220 50q-28 0 -94 -2t-140 -7t-141 -12t-99 -17v1660zM512 350q82 20 130 28t94 8q186 0 330 -53t254 -142t190 -204t139 -240t99 -251t72 -234h16v1362h-1466v-670q2 0 41 2t96 3t120 3 t111 2q150 0 262 -47t198 -120t152 -159t124 -164t112 -137t118 -75q2 2 6 4t4 12q-4 16 -11 42t-16 53t-20 54t-19 45q-52 144 -116 288t-165 260t-252 188t-379 72q-40 0 -100 -10t-124 -24v104zM370 726h1466v380h-668v140h668v136h-1466v-136h664v-140h-664v-380z M464 978h508v-114h-508v114zM1206 978h498v-114h-498v114z" />
<glyph unicode="&#xf16;" horiz-adv-x="2208" d="M1182 418v440h726v130h-1470v284h740v140h-886v-554h732v-286h-732v-154h890zM214 648h734v134h-734v706h1040v-288h-734v-138h1468v-280h-732v-440h-1042v306zM218 154h1774v-156h-806v-220h806v-498h-1774v498h802v220h-802v156zM944 -556v188h-616v-188h616z M1836 -556v188h-606v-188h606z" />
<glyph unicode="&#xf17;" horiz-adv-x="2112" d="M1884 904q-30 -14 -69 -27t-79 -24t-80 -17t-76 -6l-74 12q-32 -96 -82 -185t-120 -157t-161 -108t-205 -40q-82 0 -159 25t-144 54t-120 54t-89 25q-34 10 -49 11t-25 13q48 88 116 173t150 151t177 107t197 41q66 0 137 -11t143 -24t143 -27t137 -20q84 0 179 23 t169 51zM1180 900q-12 -300 -300 -300q-62 0 -101 19t-62 46t-35 55t-20 48q-8 0 -34 -24t-55 -53t-51 -55t-22 -28q36 -40 90 -72t115 -55t123 -36t114 -13q110 0 193 43t140 107t87 137t34 131zM1932 1088q-8 -16 -44 -28t-87 -19t-108 -11t-105 -4q-78 0 -153 15t-150 32 t-151 32t-154 15q-224 -16 -407 -154t-295 -420l-98 -12q36 152 111 279t179 218t234 141t278 50q48 0 117 -16t148 -35t162 -35t159 -16t147 9t125 21q64 14 118 32zM1970 1292q-52 -22 -128 -33t-150 -11q-94 0 -194 17t-195 38t-180 39t-149 18q-88 0 -199 -36t-219 -99 t-199 -150t-141 -189l-110 -20q42 118 135 230t210 199t241 140t226 53q98 0 195 -23t193 -50t193 -50t193 -23q44 0 95 9t95 21t73 21t31 9z" />
<glyph unicode="&#xf18;" horiz-adv-x="1060" d="M-408 128q14 8 31 33t21 51t0 53t-13 50t-23 39t-30 18q-58 8 -80 -15t-28 -57q-4 -32 9 -61t33 -52t42 -39t38 -20zM-856 -50q30 20 52 38t30 78q2 12 -5 32t-20 40t-31 35t-36 19q-22 2 -42 -7t-36 -24t-28 -33t-14 -32q-4 -26 9 -51t32 -45t44 -34t45 -16zM-354 -18 q-82 -86 -192 -131t-262 -23q-30 -22 -64 -49t-69 -48t-70 -34t-67 -9q-24 4 -46 27t-18 53q4 22 26 37t52 27t61 24t51 24q-26 10 -52 35t-45 57t-29 66t-6 60q6 48 27 89t52 69t70 41t85 7t80 -33t54 -63t27 -78t3 -76q-4 -26 -11 -62t-23 -60q34 -4 67 3t64 22t58 34 t51 33q-34 18 -66 50t-54 73t-33 85t-5 84q8 60 30 97t56 54t81 18t107 -7q34 -4 58 -33t38 -70t18 -88t-2 -89q-4 -28 -16 -54t-30 -40l24 -4q70 -10 142 6t133 57t104 109t55 162q4 30 23 40t43 6q28 -4 46 -24t12 -54q-12 -94 -68 -178t-137 -145t-174 -93t-181 -18z" />
<glyph unicode="&#xf19;" d="M-360 -4q-20 -20 -38 -87t-32 -157t-25 -193t-19 -199t-12 -173t-4 -115v-124q0 -16 -15 -22t-23 -6q-10 0 -25 7t-15 21v124q0 38 -4 115t-12 173t-19 199t-25 193t-32 156t-38 86l44 50h252z" />
<glyph unicode="&#xf1a;" horiz-adv-x="1600" d="M594 228q0 34 14 71t41 68t66 51t89 20q44 0 81 -19t64 -47t41 -60t14 -58q0 -92 -61 -152t-163 -60q-40 0 -74 16t-59 43t-39 60t-14 67zM762 354q-40 0 -54 -22t-14 -60q0 -30 17 -56t41 -46t51 -31t49 -11q60 0 60 84q0 18 -15 42t-37 47t-48 38t-50 15z" />
<glyph unicode="&#xf1b;" horiz-adv-x="1600" d="M194 228q0 34 14 71t41 68t66 51t89 20q44 0 81 -19t64 -47t41 -60t14 -58q0 -92 -61 -152t-163 -60q-40 0 -74 16t-59 43t-39 60t-14 67zM362 354q-40 0 -54 -22t-14 -60q0 -30 17 -56t41 -46t51 -31t49 -11q60 0 60 84q0 18 -15 42t-37 47t-48 38t-50 15zM994 226 q0 34 14 71t41 68t66 51t89 20q44 0 81 -19t64 -47t41 -60t14 -58q0 -92 -61 -152t-163 -60q-40 0 -74 16t-59 43t-39 60t-14 67zM1162 352q-40 0 -54 -22t-14 -60q0 -30 17 -56t41 -46t51 -31t49 -11q60 0 60 84q0 18 -15 42t-37 47t-48 38t-50 15z" />
<glyph unicode="&#xf1c;" horiz-adv-x="1600" d="M604 940q0 34 14 71t41 68t66 51t89 20q44 0 81 -19t64 -47t41 -60t14 -58q0 -92 -61 -152t-163 -60q-40 0 -74 16t-59 43t-39 60t-14 67zM772 1066q-40 0 -54 -22t-14 -60q0 -30 17 -56t41 -46t51 -31t49 -11q60 0 60 84q0 18 -15 42t-37 47t-48 38t-50 15zM184 226 q0 34 14 71t41 68t66 51t89 20q44 0 81 -19t64 -47t41 -60t14 -58q0 -92 -61 -152t-163 -60q-40 0 -74 16t-59 43t-39 60t-14 67zM352 352q-40 0 -54 -22t-14 -60q0 -30 17 -56t41 -46t51 -31t49 -11q60 0 60 84q0 18 -15 42t-37 47t-48 38t-50 15zM1004 224q0 34 14 71 t41 68t66 51t89 20q44 0 81 -19t64 -47t41 -60t14 -58q0 -92 -61 -152t-163 -60q-40 0 -74 16t-59 43t-39 60t-14 67zM1172 350q-40 0 -54 -22t-14 -60q0 -30 17 -56t41 -46t51 -31t49 -11q60 0 60 84q0 18 -15 42t-37 47t-48 38t-50 15z" />
<glyph unicode="&#xf1d;" horiz-adv-x="1600" d="M804 166l-208 -178q-16 -12 -28 -12q-26 0 -26 24q0 14 16 30l190 190l-200 192q-8 8 -8 18q0 22 22 22h106q10 0 23 -14t21 -24l104 -124l148 148q14 14 28 14q10 0 16 -6l38 -42q8 -8 8 -16q0 -10 -9 -18t-19 -14l-154 -132l188 -218q0 -10 -10 -21t-24 -11 q-16 0 -34 14z" />
<glyph unicode="&#xf1e;" horiz-adv-x="1600" d="M1186 166l-208 -178q-16 -12 -28 -12q-26 0 -26 24q0 14 16 30l190 190l-200 192q-8 8 -8 18q0 22 22 22h106q10 0 23 -14t21 -24l104 -124l148 148q14 14 28 14q10 0 16 -6l38 -42q8 -8 8 -16q0 -10 -9 -18t-19 -14l-154 -132l188 -218q0 -10 -10 -21t-24 -11 q-16 0 -34 14zM420 166l-208 -178q-16 -12 -28 -12q-26 0 -26 24q0 14 16 30l190 190l-200 192q-8 8 -8 18q0 22 22 22h106q10 0 23 -14t21 -24l104 -124l148 148q14 14 28 14q10 0 16 -6l38 -42q8 -8 8 -16q0 -10 -9 -18t-19 -14l-154 -132l188 -218q0 -10 -10 -21t-24 -11 q-16 0 -34 14z" />
<glyph unicode="&#xf1f;" horiz-adv-x="1600" d="M1176 166l-208 -178q-16 -12 -28 -12q-26 0 -26 24q0 14 16 30l190 190l-200 192q-8 8 -8 18q0 22 22 22h106q10 0 23 -14t21 -24l104 -124l148 148q14 14 28 14q10 0 16 -6l38 -42q8 -8 8 -16q0 -10 -9 -18t-19 -14l-154 -132l188 -218q0 -10 -10 -21t-24 -11 q-16 0 -34 14zM184 208q0 34 14 71t41 68t66 51t89 20q44 0 81 -19t64 -47t41 -60t14 -58q0 -92 -61 -152t-163 -60q-40 0 -74 16t-59 43t-39 60t-14 67zM352 334q-40 0 -54 -22t-14 -60q0 -30 17 -56t41 -46t51 -31t49 -11q60 0 60 84q0 18 -15 42t-37 47t-48 38t-50 15z " />
<glyph unicode="&#xf20;" horiz-adv-x="960" d="M830 600q0 -100 -40 -198t-107 -176t-153 -126t-176 -48q-66 0 -117 46t-87 106t-55 119t-19 87q0 92 31 166t79 131t107 98t115 67t104 38t72 12q54 0 100 -31t78 -78t50 -104t18 -109zM646 528q0 32 -6 81t-21 94t-42 77t-71 32t-88 -29t-79 -77t-57 -111t-22 -133 q0 -38 13 -92t34 -103t48 -84t55 -35q78 0 124 36t71 92t33 123t8 129z" />
<glyph unicode="&#xf21;" horiz-adv-x="940" d="M394 72q100 162 164 358t64 402q-34 -2 -60 -7t-64 -25q-6 -8 -19 -38t-25 -58q-12 -30 -29 -65t-39 -68t-48 -61t-56 -46l-148 -10q-20 0 -20 12q0 6 8 14l12 12q56 58 82 111t42 99q12 32 28 66t38 65t52 55t70 34l254 66q44 -18 62 -84t18 -156q0 -198 -62 -377 t-161 -316t-222 -217t-243 -80q-16 0 -16 12q0 4 6 9t10 7q56 32 98 60t76 60t64 72t64 94z" />
<glyph unicode="&#xf22;" horiz-adv-x="1020" d="M86 496q-18 0 -18 14q0 6 6 12q74 64 125 148t95 192q8 18 31 35t52 30t59 21t48 10q32 2 73 7t78 10t64 9t33 4q14 0 22 -20q14 -40 20 -93t6 -101q0 -128 -61 -214t-163 -144q76 -20 132 -74t92 -133t54 -177t18 -204v-46t-3 -76t-8 -72t-15 -32t-14 9t-8 15 q-20 40 -38 103t-36 129t-37 127t-39 99q-26 48 -64 88t-82 70t-93 46t-99 16q-10 0 -25 -3t-25 -3q-16 0 -26 6t-10 20t13 29t23 23q34 34 86 49t116 15q30 22 55 59t44 80t29 89t10 86q0 34 -8 62t-20 50q-14 -2 -33 -10t-38 -22t-36 -32t-27 -38q-20 -38 -47 -80t-56 -80 t-57 -67t-48 -41h-150z" />
<glyph unicode="&#xf23;" horiz-adv-x="1040" d="M78 560q-8 0 -17 4t-9 10q0 4 8 10t10 8q34 32 56 55t38 48t30 57t34 82q10 26 30 47t44 36t49 24t45 11q88 12 172 24t166 12q10 0 13 -7t7 -15q16 -38 20 -76t4 -64q0 -54 -22 -84t-56 -64l-40 -38q72 -4 113 -36t41 -78q0 -34 -15 -63t-38 -56t-53 -52t-60 -49 q136 -34 215 -169t79 -333q0 -30 -2 -71t-6 -71q0 -4 -2 -14t-5 -20t-8 -19t-11 -9q-8 0 -13 8t-9 18t-6 20t-2 16q-28 124 -69 224t-106 171t-160 110t-231 39q-14 0 -30 3t-16 19t15 32t31 26q34 24 81 40t103 18q20 10 49 27t55 36t44 40t18 41q0 30 -80 30q-28 0 -58 -8 t-59 -19t-53 -19t-42 -8q-22 0 -22 20t18 48t47 54t63 44t68 18q28 30 39 70t11 74q0 54 -20 84l-132 -14q-12 -36 -37 -88t-54 -99t-58 -81t-53 -34h-162z" />
<glyph unicode="&#xf24;" horiz-adv-x="1240" d="M308 792q-36 -28 -56 -57t-20 -67q0 -12 2 -28t14 -38q56 -100 135 -185t174 -147t203 -97t222 -35q52 0 108 21t102 51l22 -20q-66 -90 -152 -130t-172 -40q-134 0 -264 42t-242 115t-198 171t-132 208q-6 14 -13 31t-7 27t13 29t23 33q44 58 114 127t142 125 q20 14 53 37t55 23q12 0 25 -20t21 -32q38 -70 77 -146t89 -141t118 -107t168 -44q10 0 14 -8t4 -12q0 -10 -18 -21t-43 -20t-50 -15t-37 -6q-82 0 -158 39t-139 99t-108 129t-63 129z" />
<glyph unicode="&#xf25;" horiz-adv-x="900" d="M278 930q8 4 14 4q16 0 16 -12q0 -4 -4 -16q-16 -48 -25 -101t-14 -102t-7 -92t-2 -71q0 -70 16 -94t46 -24q20 0 46 6t52 14t52 17t46 15v54q0 114 7 204t27 174q4 10 8 18t18 12l162 50q6 2 16 2q12 0 12 -14q0 -6 -4 -11t-6 -11q-10 -22 -19 -65t-17 -97t-12 -114 t-4 -114q0 -88 19 -190t57 -205t94 -201t132 -178q14 -12 14 -20t-12 -8t-26 6q-76 26 -150 91t-135 150t-107 183t-66 188q-22 -20 -54 -42t-70 -41t-78 -31t-80 -12q-42 0 -73 26t-51 70t-30 102t-10 122t5 144t21 142q0 6 12 10z" />
<glyph unicode="&#xf26;" horiz-adv-x="1080" d="M928 774q-16 -18 -40 -61t-24 -87q0 -30 -5 -65t-20 -68t-41 -60t-66 -41q42 -16 63 -55t21 -87t-29 -87t-74 -66t-102 -41t-111 -14q-122 0 -198 54t-118 141t-56 194t-14 213q0 52 14 114t34 123t44 117t44 96l166 102q6 4 13 8t13 4q10 0 10 -10q0 -4 -5 -17t-9 -21 q-22 -58 -50 -124t-53 -136t-42 -140t-17 -132q0 -92 21 -182t56 -161t83 -115t102 -44q36 0 64 28t28 80q0 54 -17 87t-87 43q-8 2 -20 4t-12 10q0 10 12 12t20 6q110 40 147 72t37 68q0 4 -4 18t-9 30t-9 31t-4 19q0 36 21 76t43 48l162 50q6 2 16 2q12 0 12 -14 q0 -6 -4 -11t-6 -11z" />
<glyph unicode="&#xf27;" horiz-adv-x="1080" d="M526 854q16 0 27 -22t19 -54t11 -65t3 -57q0 -114 -41 -194t-141 -158q34 2 66 4t64 10t62 24t60 46q30 32 50 78t32 97t17 106t5 107q0 68 -5 109t-10 66t-10 39t-5 26q0 6 4 9t10 9l122 110q4 4 11 10t13 6q16 0 16 -16q6 -60 9 -109t4 -91t2 -82t1 -84 q-2 -210 -42 -327t-101 -175t-136 -71t-147 -15q-62 -2 -129 -14t-123 -26t-94 -26t-40 -12q-16 0 -16 14q0 16 12 43t37 54t62 48t85 25q30 24 55 60t43 80t28 92t10 96q0 34 -5 64t-15 56q-26 -4 -51 -9t-49 -9q-14 -22 -22 -61t-15 -82t-17 -83t-28 -62q-20 -12 -46 -20 t-51 -14t-45 -9t-26 -3t-12 4t-6 8q0 2 9 17t22 43t26 72t23 104q10 56 26 98t66 52z" />
<glyph unicode="&#xf28;" horiz-adv-x="980" d="M368 588q26 18 34 36t8 44q0 28 -3 52t-3 54t5 63t17 73q4 10 8 18t18 12l162 50q6 2 16 2q12 0 12 -14q0 -6 -4 -11t-6 -11q-10 -36 -14 -72t-8 -70q-6 -74 -23 -133t-71 -95l-122 -82q118 -24 202 -104t140 -198t87 -268t45 -312q0 -20 -16 -20q-6 0 -13 5t-9 11 q-10 32 -36 99t-61 146t-74 156t-73 129q-46 66 -103 110t-118 69t-121 35t-114 10q-16 0 -32 -2t-28 -2q-14 0 -14 12q0 4 5 13t9 15q26 38 71 67t139 49z" />
<glyph unicode="&#xf29;" horiz-adv-x="1060" d="M850 268q-4 -6 -19 -10t-25 -4q-48 0 -91 16t-75 42t-51 61t-19 75q0 26 22 78t49 104t49 94t22 48q0 14 -10 26t-24 20t-30 12t-26 4q-34 0 -64 -26t-57 -67t-50 -90t-41 -95q-28 -66 -57 -142t-53 -164t-39 -194t-15 -232q0 -38 8 -93t8 -89q0 -38 -28 -38 q-24 0 -42 36q-36 68 -54 159t-18 201q0 80 12 169t35 178t56 174t73 157q28 50 76 102t106 94t123 68t129 26q22 0 49 -8t51 -22t40 -34t16 -46q0 -28 -23 -83t-52 -111t-52 -102t-23 -54q0 -12 3 -28t12 -29t23 -23t36 -10q54 0 87 12t51 12q14 0 14 -10q0 -4 -4 -11 t-6 -9z" />
<glyph unicode="&#xf2a;" horiz-adv-x="1200" d="M792 988q44 -18 62 -84t18 -156q0 -32 -2 -63t-6 -61q62 24 115 41t81 17q34 0 57 -24t23 -52q0 -18 -10 -33t-32 -19q-62 -14 -130 -39t-132 -53q-36 -150 -106 -278t-159 -223t-189 -149t-198 -54q-16 0 -16 12q0 4 6 9t10 7q168 96 271 240t169 330q-84 -48 -169 -107 t-158 -125t-129 -138t-80 -146q-4 -8 -5 -16t-11 -8q-12 0 -21 9t-9 15q2 92 64 192t157 193t206 174t209 137q36 146 36 296q-34 -2 -60 -7t-64 -25q-6 -8 -19 -38t-25 -58q-12 -30 -29 -65t-39 -68t-48 -61t-56 -46l-148 -10q-20 0 -20 12q0 6 8 14l12 12q56 58 82 111 t42 99q12 32 28 66t38 65t52 55t70 34z" />
<glyph unicode="&#xf2b;" horiz-adv-x="1200" d="M186 496q-18 0 -18 14q0 6 6 12q74 64 125 148t95 192q8 18 31 35t52 30t59 21t48 10q32 2 73 7t78 10t64 9t33 4q14 0 22 -20q14 -40 20 -93t6 -101q0 -88 -30 -156q64 26 124 45t88 19q34 0 57 -24t23 -52q0 -18 -10 -33t-32 -19q-96 -22 -200 -66t-196 -90 q62 -28 109 -84t78 -132t46 -166t15 -188v-46t-3 -76t-8 -72t-15 -32t-14 9t-8 15q-20 40 -38 103t-36 129t-37 127t-39 99q-40 72 -103 126t-137 78q-70 -46 -137 -99t-124 -110t-100 -117t-63 -122q-4 -8 -5 -16t-11 -8q-12 0 -21 8t-9 16q0 56 24 115t65 118t96 116 t117 111q-16 6 -16 24q0 28 21 48t51 34t63 21t57 11q28 18 54 35t52 33q34 52 56 121t22 127q0 34 -8 62t-20 50q-14 -2 -33 -10t-38 -22t-36 -32t-27 -38q-20 -38 -47 -80t-56 -80t-57 -67t-48 -41h-150z" />
<glyph unicode="&#xf2c;" horiz-adv-x="1240" d="M138 560q-8 0 -17 4t-9 10q0 4 8 10t10 8q34 32 56 55t38 48t30 57t34 82q10 26 30 47t44 36t49 24t45 11q88 12 172 24t166 12q10 0 13 -7t7 -15q16 -38 20 -76t4 -64q0 -54 -22 -84t-56 -64l-40 -38q78 -2 120 -42q38 16 77 31t74 27t63 19t46 7q34 0 57 -24t23 -52 q0 -18 -10 -33t-32 -19q-66 -16 -140 -43t-144 -59q-22 -40 -64 -77t-82 -69q136 -34 215 -169t79 -333q0 -10 -1 -43t-4 -69t-10 -64t-19 -28q-8 0 -13 8t-9 18t-6 20t-2 16q-28 116 -66 212t-96 166t-142 112t-202 50q-108 -84 -193 -179t-115 -197q-2 -10 -12 -10t-20 8 t-10 12q0 88 57 183t145 186t193 171t203 138q-20 4 -38 4q-28 0 -58 -8t-59 -19t-53 -19t-42 -8q-22 0 -22 20t18 48t47 54t63 44t68 18q28 30 39 70t11 74q0 54 -20 84l-132 -14q-12 -36 -37 -88t-54 -99t-58 -81t-53 -34h-162z" />
<glyph unicode="&#xf2d;" horiz-adv-x="1240" d="M1214 190q-66 -90 -152 -130t-172 -40q-138 0 -272 45t-248 121q-96 -78 -173 -166t-109 -180q-4 -8 -5 -16t-11 -8t-20 8t-10 16q0 100 70 204t176 204q-40 40 -85 90t-83 100t-62 96t-24 80q0 16 24 51t61 76t83 85t90 80t82 59t60 23q12 0 25 -20t21 -32 q26 -48 52 -100t55 -101t64 -94t79 -77q38 20 86 41t95 38t87 28t62 11q34 0 57 -24t23 -52q0 -18 -10 -33t-32 -19q-40 -10 -93 -29t-99 -37q16 0 36 -11t20 -19q0 -10 -20 -18t-47 -13t-54 -8t-39 -3q-14 0 -28 1t-28 3q-52 -26 -109 -57t-115 -69q102 -72 218 -114 t242 -42q52 0 108 21t102 51zM308 792q-36 -28 -56 -57t-20 -67q0 -40 20 -81t50 -79t65 -73t63 -65q80 62 162 114q-48 30 -89 71t-75 84t-58 88t-36 85z" />
<glyph unicode="&#xf2e;" horiz-adv-x="1240" d="M352 930q8 4 14 4q16 0 16 -12q0 -4 -4 -16q-16 -48 -25 -101t-14 -102t-7 -92t-2 -71q0 -70 16 -94t46 -24q40 0 98 19t98 41v46q0 114 7 204t27 174q4 10 8 18t18 12l162 50q6 2 16 2q12 0 12 -14q0 -6 -4 -11t-6 -11q-10 -20 -19 -60t-16 -91t-12 -107t-5 -108 q38 18 81 35t82 31t71 22t50 8q34 0 57 -24t23 -52q0 -18 -10 -33t-32 -19q-74 -16 -157 -49t-157 -67q22 -160 91 -331t191 -307l16 -16t10 -16q0 -8 -12 -8q-8 0 -19 4t-21 8q-72 28 -140 88t-126 139t-102 169t-68 176q-80 -48 -162 -105t-152 -122t-124 -135t-78 -142 q-4 -8 -6 -16t-10 -8q-12 0 -21 7t-9 17q0 100 72 207t178 207q-36 6 -63 34t-45 71t-26 98t-8 115q0 64 5 144t21 142q0 6 12 10z" />
<glyph unicode="&#xf2f;" horiz-adv-x="1240" d="M1022 774q-14 -16 -33 -49t-27 -71q40 14 74 23t54 9q34 0 57 -24t23 -52q0 -18 -10 -33t-32 -19q-46 -10 -96 -26t-98 -36q-16 -34 -42 -62t-66 -42q42 -16 63 -55t21 -87t-29 -87t-74 -66t-102 -41t-111 -14q-86 0 -148 27t-106 75q-80 -70 -141 -147t-85 -157 q-2 -6 -5 -13t-13 -7t-19 5t-9 15q0 92 61 190t155 194q-46 90 -61 200t-15 220q0 52 14 114t34 123t44 117t44 96l166 102q6 4 13 8t13 4q10 0 10 -10q0 -4 -5 -17t-9 -21q-22 -58 -50 -124t-53 -136t-42 -140t-17 -132q0 -74 13 -146t37 -136q96 78 194 140t176 100 q-4 16 -8 30t-4 18q0 36 21 76t43 48l162 50q6 2 16 2q12 0 12 -14q0 -6 -4 -11t-6 -11zM724 234q0 48 -13 79t-65 45q-44 -26 -88 -54t-88 -60q34 -54 75 -86t87 -32q36 0 64 28t28 80z" />
<glyph unicode="&#xf30;" horiz-adv-x="1240" d="M604 838q16 0 27 -22t19 -54t11 -65t3 -57q0 -22 -2 -32q50 28 90 50t84 42q2 16 2 30v30q0 68 -5 109t-10 66t-10 39t-5 26q0 6 4 9t10 9l122 110q4 4 11 10t13 6q16 0 16 -16q6 -60 9 -109t4 -91t2 -82t1 -84q32 10 58 17t42 7q34 0 57 -24t23 -52q0 -18 -10 -33 t-32 -19q-34 -8 -71 -19t-75 -25q-16 -156 -59 -244t-101 -131t-126 -53t-132 -12q-48 -2 -99 -10t-99 -18t-88 -21t-66 -19q-60 -76 -88 -146q-4 -10 -9 -25t-15 -15q-20 0 -24 14t-4 26q6 66 42 135t92 138t126 134t146 123q16 60 16 118q0 34 -5 64t-15 56q-26 -4 -51 -9 t-49 -9q-14 -22 -22 -61t-15 -82t-17 -83t-28 -62q-20 -12 -46 -20t-51 -14t-45 -9t-26 -3t-12 4t-6 8q0 2 9 17t22 43t26 72t23 104q10 56 26 98t66 52zM814 538q-46 -22 -97 -48t-103 -60q-46 -76 -132 -142q34 2 66 4t64 9t62 23t60 48q28 32 48 74t32 92z" />
<glyph unicode="&#xf31;" horiz-adv-x="1240" d="M526 588q26 18 34 36t8 44q0 28 -3 52t-3 54t5 63t17 73q4 10 8 18t18 12l162 50q6 2 16 2q12 0 12 -14q0 -6 -4 -11t-6 -11q-10 -36 -14 -72t-8 -70q-4 -40 -9 -77t-19 -67q18 10 36 18t34 16q40 18 83 36t83 31t73 22t51 9q34 0 57 -24t23 -52q0 -18 -10 -33t-32 -19 q-70 -16 -150 -46t-152 -64q-42 -20 -88 -43t-96 -51q90 -46 156 -130t110 -195t70 -245t38 -278q0 -20 -16 -20q-6 0 -13 5t-9 11q-10 32 -36 99t-61 146t-74 156t-73 129q-58 84 -131 130t-149 68q-120 -88 -213 -190t-127 -210q-2 -10 -12 -10t-20 8t-10 12q0 100 71 207 t177 207q-10 2 -21 2h-21q-16 0 -32 -2t-28 -2q-14 0 -14 12q0 4 5 13t9 15q26 38 71 67t139 49z" />
<glyph unicode="&#xf32;" horiz-adv-x="1240" d="M970 268q-4 -6 -19 -10t-25 -4q-48 0 -91 16t-75 42t-51 61t-19 75q0 18 10 48q-64 -34 -129 -76t-127 -88q-34 -102 -56 -227t-22 -281q0 -38 8 -93t8 -89q0 -38 -28 -38q-24 0 -42 36q-36 68 -54 159t-18 201q0 36 2 76t8 80q-46 -52 -78 -104t-48 -106q-2 -10 -12 -10 t-20 8t-10 12q0 88 56 182t144 186q22 96 56 186t78 168q28 50 76 102t106 94t123 68t129 26q22 0 49 -8t51 -22t40 -34t16 -46q0 -16 -7 -37t-17 -49q38 14 69 22t49 8q34 0 57 -24t23 -52q0 -18 -10 -33t-32 -19q-58 -12 -121 -35t-125 -49q-16 -32 -26 -54t-10 -28 q0 -12 3 -28t12 -29t23 -23t36 -10q54 0 87 12t51 12q14 0 14 -10q0 -4 -4 -11t-6 -9zM518 526q74 54 145 99t133 73q16 28 26 49t10 25q0 14 -10 26t-24 20t-30 12t-26 4q-34 0 -64 -26t-57 -67t-50 -90t-41 -95z" />
<glyph unicode="&#xf33;" horiz-adv-x="1240" d="M750 902q42 0 79 -20t67 -52t52 -73t34 -85q38 14 69 22t49 8q34 0 57 -24t23 -52q0 -18 -10 -33t-32 -19q-34 -8 -71 -19t-75 -25q-10 -94 -53 -183t-108 -159t-146 -113t-165 -43q-56 0 -101 33t-79 81q-70 -64 -125 -134t-83 -142q-2 -8 -8 -20t-16 -12q-20 0 -23 8 t-3 18q0 94 60 185t148 183q-24 48 -36 92t-12 66q0 92 31 166t79 131t107 98t115 67t103 38t73 12zM426 442q0 -32 10 -78q96 76 193 139t175 99q-6 32 -15 66t-25 62t-39 45t-53 17q-44 0 -88 -29t-79 -77t-57 -111t-22 -133zM576 128q68 0 112 29t71 75t38 104t13 116 q-76 -36 -165 -87t-175 -113q22 -52 50 -88t56 -36z" />
<glyph unicode="&#xf34;" horiz-adv-x="960" d="M808 1280l-64 -144q-22 -48 -128 -48h-420q-36 0 -46 6t-10 30q0 8 10 30t22 46t24 47t18 33h594zM808 792l-64 -144q-22 -48 -128 -48h-420q-36 0 -46 6t-10 30q0 8 10 30t22 46t24 47t18 33h594zM808 350l-64 -144q-22 -48 -128 -48h-420q-36 0 -46 6t-10 30q0 8 10 30 t22 46t24 47t18 33h594z" />
<glyph unicode="&#xf35;" d="M-360 -812q0 -48 -24 -91t-65 -76t-97 -53t-120 -20q-66 0 -111 20t-72 49t-38 62t-11 61q0 50 29 94t75 77t103 51t113 18q70 0 113 -20t66 -50t31 -63t8 -59zM-634 -1172q62 0 108 12t84 30t69 41t63 47q26 20 44 37t32 17q8 0 13 -12t5 -20q0 -62 -44 -116t-108 -95 t-137 -65t-129 -24q-58 0 -130 24t-136 65t-108 95t-44 116q0 8 5 20t13 12q14 0 32 -17t44 -37q32 -24 63 -47t69 -41t84 -30t108 -12zM-482 -854q0 14 -11 36t-32 43t-51 35t-68 14q-68 0 -97 -14t-29 -72q0 -30 18 -55t45 -42t59 -26t60 -9q58 0 82 22t24 68z" />
<glyph unicode="&#xf36;" horiz-adv-x="2088" d="M924 1152q0 70 49 119t119 49t119 -49t49 -119t-49 -119t-119 -49t-119 49t-49 119zM204 504q0 70 49 119t119 49t119 -49t49 -119t-49 -119t-119 -49t-119 49t-49 119zM1548 504q0 70 49 119t119 49t119 -49t49 -119t-49 -119t-119 -49t-119 49t-49 119zM924 -120 q0 70 49 119t119 49t119 -49t49 -119t-49 -119t-119 -49t-119 49t-49 119z" />
<glyph unicode="&#xf37;" d="M-228 -1002q0 -64 -29 -121t-77 -100t-110 -69t-130 -26t-115 24t-75 60t-41 78t-13 80q0 78 31 139t80 103t109 64t120 22q74 0 122 -28t76 -67t40 -83t12 -76zM-362 -1060q0 20 -14 50t-40 58t-60 48t-72 20q-72 0 -104 -21t-32 -97q0 -42 20 -75t49 -56t64 -35t65 -12 q78 0 101 28t23 92z" />
<glyph unicode="&#xf38;" horiz-adv-x="1120" d="M428 1446q32 10 71 26t61 16q20 0 35 -37t23 -84t12 -91t4 -58q0 -100 -39 -188t-115 -160l70 14q88 20 143 60t85 99t41 133t11 162q0 82 -15 152t-15 96q0 12 16 20l124 98q2 2 8 2t20 -3t16 -9q10 -96 12 -165t2 -127v-122q0 -148 -49 -244t-119 -154t-149 -87 t-141 -41l-186 -36q-18 -4 -42 -13l-48 -18t-46 -17t-38 -8t-16 14q0 12 10 35t29 48t47 46t66 29l50 10q48 58 76 150t28 180q0 16 -3 38t-8 44t-10 41t-11 31q-24 -4 -45 -16t-39 -28q-10 -2 -14 -15t-7 -30t-5 -37t-6 -36q-10 -44 -26 -89t-34 -75q-46 -20 -85 -37 t-71 -17q-16 0 -16 12q0 10 6 22t13 25t14 25t9 20q16 40 24 78t12 72q10 58 28 91t64 59z" />
<glyph unicode="&#xf39;" d="M-220 1488q0 12 -4 33t-13 44t-22 46t-29 41q-18 18 -33 28t-15 20q0 6 7 16t11 14l78 88q22 22 58 22h214q16 0 33 10t29 10q16 0 19 -11t3 -23q0 -46 -26 -76t-64 -48t-78 -26t-70 -8h-40l10 -180h-68z" />
<glyph unicode="&#xf3a;" horiz-adv-x="2640" d="M1720 886q0 26 14 59t39 62t60 49t77 20q44 0 78 -19t57 -45t34 -54t11 -46q0 -38 -16 -73t-43 -61t-65 -42t-80 -16q-32 0 -62 16t-53 41t-37 54t-14 55zM1868 992q-16 0 -32 -18t-16 -34q0 -30 14 -55t34 -42t44 -27t46 -10q16 0 28 13t12 41q0 14 -10 36t-28 43 t-42 37t-50 16zM1048 1066q0 54 37 104t92 87t122 60t127 23q44 0 85 -23t73 -61t51 -85t19 -97q0 -78 -40 -176t-106 -186t-154 -148t-184 -60q-66 0 -125 26t-114 72t-107 110t-102 142q-60 90 -114 160t-103 122t-94 92t-87 70q-56 40 -100 69t-106 57q-22 10 -34 26 t-12 26q0 8 8 16t20 8t27 -4t27 -8q64 -20 131 -55t113 -63q70 -40 132 -96t119 -118t112 -126t111 -120q90 -92 186 -155t214 -63q102 0 165 44t63 140q0 70 -13 131t-45 107t-83 72t-127 26q-26 0 -43 -14t-17 -36q0 -64 32 -92t71 -44t71 -33t32 -61q0 -24 -6 -47 t-15 -41t-21 -30t-24 -12t-54 12t-89 42t-84 81t-37 129zM2120 626q0 26 14 59t39 62t60 49t77 20q44 0 78 -19t57 -45t34 -54t11 -46q0 -38 -16 -73t-43 -61t-65 -42t-80 -16q-32 0 -62 16t-53 41t-37 54t-14 55zM2268 732q-16 0 -32 -18t-16 -34q0 -30 14 -55t34 -42 t44 -27t46 -10q16 0 28 13t12 41q0 14 -10 36t-28 43t-42 37t-50 16zM2120 1190q0 26 14 59t39 62t60 49t77 20q44 0 78 -19t57 -45t34 -54t11 -46q0 -38 -16 -73t-43 -61t-65 -42t-80 -16q-32 0 -62 16t-53 41t-37 54t-14 55zM2268 1296q-16 0 -32 -18t-16 -34 q0 -30 14 -55t34 -42t44 -27t46 -10q16 0 28 13t12 41q0 14 -10 36t-28 43t-42 37t-50 16z" />
<glyph unicode="&#xf3b;" horiz-adv-x="2640" d="M1594 1066q0 -78 -37 -129t-84 -81t-89 -42t-54 -12t-24 12t-21 30t-15 41t-6 47q0 44 32 61t71 33t71 44t32 92q0 22 -17 36t-43 14q-76 0 -127 -26t-83 -72t-45 -107t-13 -131q0 -96 63 -140t165 -44q118 0 214 63t186 155q56 56 111 120t112 126t119 118t132 96 q46 28 113 63t131 55q12 4 27 8t27 4t20 -8t8 -16q0 -10 -12 -26t-34 -26q-62 -28 -106 -57t-100 -69q-42 -30 -87 -70t-94 -92t-103 -122t-114 -160q-52 -78 -103 -142t-106 -110t-114 -72t-125 -26q-96 0 -184 60t-154 148t-106 186t-40 176q0 50 19 97t51 85t73 61t85 23 q60 0 127 -23t122 -60t92 -87t37 -104zM550 886q0 26 14 59t39 62t60 49t77 20q44 0 78 -19t57 -45t34 -54t11 -46q0 -38 -16 -73t-43 -61t-65 -42t-80 -16q-32 0 -62 16t-53 41t-37 54t-14 55zM698 992q-16 0 -32 -18t-16 -34q0 -30 14 -55t34 -42t44 -27t46 -10 q16 0 28 13t12 41q0 14 -10 36t-28 43t-42 37t-50 16zM146 1192q0 26 14 59t39 62t60 49t77 20q44 0 78 -19t57 -45t34 -54t11 -46q0 -38 -16 -73t-43 -61t-65 -42t-80 -16q-32 0 -62 16t-53 41t-37 54t-14 55zM294 1298q-16 0 -32 -18t-16 -34q0 -30 14 -55t34 -42t44 -27 t46 -10q16 0 28 13t12 41q0 14 -10 36t-28 43t-42 37t-50 16zM146 618q0 26 14 59t39 62t60 49t77 20q44 0 78 -19t57 -45t34 -54t11 -46q0 -38 -16 -73t-43 -61t-65 -42t-80 -16q-32 0 -62 16t-53 41t-37 54t-14 55zM294 724q-16 0 -32 -18t-16 -34q0 -30 14 -55t34 -42 t44 -27t46 -10q16 0 28 13t12 41q0 14 -10 36t-28 43t-42 37t-50 16z" />
<glyph unicode="&#xf3c;" horiz-adv-x="1584" d="M990 1292q-166 78 -242 78q-92 0 -160 -41t-112 -118t-65 -186t-21 -245v-1184q0 -160 -5 -288t-32 -220t-88 -141t-171 -49h-84l90 110t58 83t31 82t9 109v1392q0 92 4 193t20 197t45 182t78 151t122 103t175 38q48 0 98 -15t94 -39l-16 68t-8 74q0 60 27 105t71 81 t101 65t119 57q82 24 146 68t113 102t85 127t62 145h50v-216q0 -92 -44 -153t-110 -106t-143 -80t-143 -74t-110 -89t-44 -124v-242z" />
<glyph unicode="&#xf3d;" horiz-adv-x="1440" d="M594 1534q0 74 -44 124t-110 89t-143 74t-143 80t-110 106t-44 153v216h50q26 -76 62 -145t85 -127t113 -102t146 -68q62 -28 119 -57t101 -65t71 -81t27 -105q0 -40 -8 -74l-16 -68q44 24 94 39t98 15q102 0 175 -38t122 -103t78 -151t45 -182t20 -197t4 -193v-1392 q0 -66 9 -109t31 -82t58 -83l90 -110h-84q-112 0 -172 49t-87 141t-32 220t-5 288v1184q0 136 -21 245t-65 186t-112 118t-160 41q-78 0 -242 -78v242z" />
<glyph unicode="&#xf3e;" horiz-adv-x="1282" d="M1244 -662q0 -16 -12 -31t-52 -15q-86 0 -181 77t-174 215t-131 330t-52 422q0 210 -49 347t-125 216t-168 110t-178 31q-36 0 -59 17t-23 49q0 34 25 47t61 13q104 0 221 -28t216 -111t164 -234t65 -395q0 -100 10 -228t48 -264t114 -267t208 -233q20 -12 46 -32t26 -36 z" />
<glyph unicode="&#xf3f;" d="M-24 1106q0 -32 -24 -49t-60 -17q-86 0 -177 -31t-167 -110t-125 -216t-49 -347q0 -230 -52 -422t-132 -330t-175 -215t-181 -77q-38 0 -50 15t-12 31t26 36t44 32q132 102 209 233t115 267t48 264t10 228q0 164 30 284t80 205t117 139t141 85t150 43t146 12q36 0 62 -13 t26 -47z" />
<glyph unicode="&#xf40;" horiz-adv-x="1360" d="M1272 1488l-22 -88t-23 -95t-19 -88t-8 -67v-1836q0 -18 -12 -26t-30 -8q-10 0 -23 8t-15 26l-98 1814q-2 32 -7 62t-13 54t-18 38t-22 14h-188q-4 -70 -5 -111t-2 -70t-2 -52t-3 -55q-8 -76 -10 -181t-7 -200t-17 -161t-38 -66q-10 0 -19 62t-19 152t-18 193t-14 185 q-2 30 -8 81t-14 101t-18 86t-20 36h-92q-24 0 -36 -27t-16 -47q-22 -80 -59 -167t-87 -160t-109 -120t-125 -47q-24 0 -24 22q0 4 8 11t16 11q34 18 74 85t74 150t57 163t23 126h-86q-36 0 -46 6t-10 30q0 8 9 30t21 46t24 47t18 33h1078z" />
<glyph unicode="&#xf41;" horiz-adv-x="1320" d="M1222 1488q-8 -38 -19 -80t-20 -82t-16 -75t-7 -61v-752q0 -32 -32 -32q-12 0 -38 23t-62 56t-80 73t-92 73t-98 56t-98 23q-28 0 -61 -4t-65 -10t-58 -15t-40 -19q0 8 3 36t12 62t24 65t39 43q0 70 14 138t34 125t43 101t41 66h-300q-12 0 -28 -11t-31 -29t-26 -42 t-13 -52l-64 -840q-2 -16 -8 -26t-18 -10q-44 0 -44 36l-40 902q0 14 24 56t55 88t60 82t41 36h968zM860 1298q-36 0 -80 -45t-82 -109t-63 -134t-25 -118q28 4 53 6t47 2q54 0 106 -31t98 -75t85 -93t69 -83l-42 440q-6 72 -16 118t-22 73t-27 37t-31 12h-70z" />
<glyph unicode="&#xf42;" horiz-adv-x="1360" d="M438 1296q-22 -4 -52 -35t-59 -81t-49 -117t-20 -141q64 0 116 -17t99 -53t93 -92t100 -134q-12 122 -25 229t-23 229q-6 66 -18 107t-26 63t-26 30l-18 12h-92zM1272 1488l-22 -88t-23 -95t-19 -88t-8 -67v-1836q0 -18 -13 -26t-31 -8q-10 0 -22 8t-14 26l-98 1814 q-2 32 -7 62t-13 54t-18 38t-22 14h-196q-2 -22 -3 -52t-1 -58v-52v-36v-658q0 -22 -6 -31t-12 -9q-8 0 -21 13t-27 29q-124 140 -216 212t-188 72q-52 0 -111 -6t-131 -22q0 8 5 36t18 62t35 65t56 47q0 14 -1 20t-2 11t-1 12v23q0 38 3 84t12 91t26 84t43 63h-90 q-36 0 -46 6t-10 30q0 14 7 30t17 32l48 94h1102z" />
<glyph unicode="&#xf43;" horiz-adv-x="1320" d="M1066 480l-48 532q-4 44 -9 94t-16 92t-29 70t-48 28h-210q-10 -40 -17 -76t-9 -60v-570q0 -12 -8 -21t-14 -9q-24 0 -40 18q-38 44 -98 87t-128 77t-136 56t-122 22q-14 0 -35 -2t-43 -6t-43 -9t-33 -9q0 28 8 60t23 60t37 51t52 33q0 90 18 166t78 132h-62q-36 0 -46 6 t-10 30q0 8 9 30t21 46t24 47t18 33h1072q-10 -40 -21 -88t-21 -95t-17 -88t-7 -67v-670l-66 -144q-14 -22 -45 -35t-87 -13h-338q-48 0 -101 -25t-97 -60t-72 -73t-28 -62q38 0 88 -7t90 -49q70 86 133 121t159 35q80 0 139 -28t98 -73t58 -100t19 -107q0 -76 -36 -146 t-95 -138t-135 -134t-158 -134q-10 -10 -24 -19t-32 -9q-20 0 -25 3t-5 11q0 10 10 23t22 27q54 58 105 123t92 125t65 111t24 83q0 46 -13 89t-35 76t-50 53t-58 20q-34 0 -59 -7t-43 -17t-31 -22t-25 -22q26 -24 46 -60t34 -72t21 -64t7 -36q0 -4 -2 -10t-18 -6t-30 8 t-22 18q-138 142 -352 142q-62 0 -99 -5t-77 -17q8 54 21 89t29 57t33 35t35 23q0 44 21 108t79 122h-68q-44 0 -51 7t-7 31q0 10 9 32t21 46t24 45t18 31h794zM362 1296q-32 -24 -62 -52t-53 -62t-37 -76t-14 -96q6 2 17 2h19q38 0 88 -28t100 -70t96 -88t76 -82l-16 234 q-4 62 -11 119t-19 101t-30 71t-42 27h-112z" />
<glyph unicode="&#xf44;" horiz-adv-x="1120" d="M1030 1488l-66 -144q-22 -48 -128 -48h-356q-48 0 -96 -33t-86 -84t-62 -110t-24 -109q32 16 75 20t95 4q130 0 237 -40t192 -102t148 -136t105 -143t63 -122t21 -71q0 -10 -11 -16t-25 -6q-2 0 -27 33t-70 82t-108 106t-143 106t-174 82t-200 33q-74 0 -168 -17 t-182 -51q0 30 6 63t17 62t24 51t27 30q0 122 31 216t89 152h-68q-36 0 -46 6t-10 30q0 8 9 30t21 46t24 47t18 33h848z" />
<glyph unicode="&#xf45;" horiz-adv-x="1240" d="M1114 1488l-64 -144q-22 -48 -128 -48h-170q4 -22 5 -50t1 -56t-14 -51t-18 -45q60 0 135 -25t142 -67t112 -99t45 -123q0 -80 -44 -162t-113 -148t-153 -108t-164 -42q-96 0 -178 57t-149 139t-117 172t-82 154q-18 30 -39 56t-40 47t-32 36t-13 25q0 20 32 20 q28 0 49 -12t43 -30q20 -16 48 -33t56 -17q36 0 100 13t127 39t109 63t46 83q0 44 -15 76t-38 51t-48 28t-43 9h-186q-36 0 -46 6t-10 30q0 8 9 30t21 46t24 47t18 33h782zM998 666q0 56 -29 101t-78 77t-112 49t-129 17q-28 -4 -68 -13t-85 -20t-93 -21t-96 -14 q26 -52 67 -112t97 -112t127 -86t157 -34q32 0 74 18t80 44t63 55t25 51z" />
<glyph unicode="&#xf46;" horiz-adv-x="1240" d="M1052 1488l-66 -144q-14 -30 -45 -39t-71 -9h-202q0 -10 -2 -25t-2 -19q0 -38 -5 -97t-15 -129q12 6 33 11t48 10t57 7t56 2q90 0 151 -31t99 -85t55 -125t17 -151q0 -72 -19 -141t-55 -124t-86 -88t-112 -33q-60 0 -112 18t-91 44t-65 54t-34 50q-4 -18 -24 -45t-53 -52 t-75 -43t-88 -18q-62 0 -120 26t-102 74t-71 116t-27 152q0 78 26 150t73 127t110 89t135 34q48 0 102 -8t76 -18q0 44 -12 92t-31 87t-42 64t-43 25h-198q-42 0 -51 6t-9 28q0 12 9 36t21 48t24 45t18 29h818zM760 880q-20 0 -42 -8t-41 -38t-31 -90t-12 -166q0 -36 26 -62 t65 -41t86 -22t89 -7q82 0 111 50t29 152q0 40 -16 82t-50 75t-87 54t-127 21zM366 886q-58 0 -100 -19t-69 -48t-39 -65t-12 -70q0 -42 15 -83t44 -74t69 -53t88 -20q40 0 73 15t56 57t35 119t12 201q-6 8 -27 16t-47 13t-53 8t-45 3z" />
<glyph unicode="&#xf47;" horiz-adv-x="1140" d="M1042 1488l-68 -144q-22 -48 -128 -48h-438q-46 0 -82 -35t-63 -81t-43 -93t-20 -71q14 18 57 34t99 29t116 20t108 7q64 0 112 -11t92 -11q20 0 43 8t45 19l38 19t20 8q6 0 10 -10t8 -23t6 -27t2 -22q0 -24 -22 -50t-56 -46t-73 -33t-75 -13q-40 0 -89 7t-101 14 l-104 14t-100 7q-34 0 -74 -15t-56 -25q-10 -14 -11 -33t-1 -59v-76q16 6 47 12t70 11t84 9t87 4q52 0 122 -20t145 -53t149 -77t132 -92t94 -99t36 -97q0 -4 -11 -7t-27 -3t-83 38t-165 83t-214 83t-228 38q-76 0 -143 -8t-123 -19t-99 -21t-67 -14q0 46 20 101t78 95v200 q0 78 4 132t15 96t28 78t45 78h-38q-36 0 -46 6t-10 30q0 8 9 30t21 46t24 47t18 33h874z" />
<glyph unicode="&#xf49;" horiz-adv-x="1160" d="M584 942q32 16 70 25t76 9q88 0 148 -30t96 -79t52 -113t16 -130q0 -92 -33 -201t-88 -227t-127 -238t-149 -234t-154 -218t-141 -186q-34 -40 -84 -40q-8 0 -17 4t-9 12t2 13t6 11q52 76 116 174t129 208t127 224t110 221t77 201t29 162q0 60 -23 118t-64 104t-96 75 t-119 29q-26 0 -52 -16t-47 -37t-34 -44t-13 -35q0 -18 13 -45t37 -53t56 -44t68 -18q26 0 54 8t40 8q6 0 7 -7t1 -9q0 -14 -8 -30l-48 -88q-16 -32 -42 -52t-78 -20q-36 0 -78 13t-76 45t-57 85t-23 133q0 44 19 84t49 75t65 66t67 55q40 46 72 111t32 133q0 56 -43 100 t-143 44q-40 0 -72 -16t-55 -43t-36 -61t-13 -72q0 -24 7 -45t16 -43t16 -45t7 -49q0 -30 -12 -62t-29 -57t-35 -41t-30 -16q-14 0 -18 10t-4 18q0 28 -12 55t-25 55t-25 56t-12 60q0 38 18 91t48 108t71 109t87 96t95 68t97 26q92 0 153 -16t99 -44t54 -66t16 -82 q0 -50 -10 -88t-26 -69t-39 -58t-49 -57z" />
<glyph unicode="&#xf4a;" horiz-adv-x="1180" d="M972 1488q34 0 61 -53t27 -139q0 -28 -11 -95t-30 -162t-43 -212t-50 -241l-34 -156q-6 -28 -11 -38t-21 -10q-12 0 -18 16t-6 34q0 10 -7 56t-7 104q0 38 6 78q-10 20 -49 46t-90 49t-105 39t-96 16q-36 0 -68 -6t-56 -28t-39 -68t-15 -124q0 -40 22 -117t57 -173 t80 -206t92 -219t92 -210t80 -178t57 -123t22 -48q0 -16 -6 -28t-22 -12q-26 0 -38 11t-20 27q-46 80 -111 192t-137 239t-144 262t-128 261t-92 236t-36 186q0 50 16 105t59 101t117 77t188 31q80 0 143 -26t111 -61t82 -71t54 -56l14 404q0 10 -1 26t-5 32t-15 28t-29 12 h-660q-36 0 -46 6t-10 30q0 8 10 30t22 46t24 47t18 33h802z" />
<glyph unicode="&#xf4b;" horiz-adv-x="1240" d="M1144 1488l-46 -144q-6 -18 -29 -32t-53 -16q14 -16 30 -57t16 -89q0 -70 -25 -112t-59 -65t-68 -31t-52 -8q40 -14 76 -52t63 -81t43 -84t16 -61q46 -16 71 -60t25 -128q-38 10 -78 16t-78 9t-69 4t-51 1q-82 0 -180 -26t-193 -63t-175 -78t-128 -71q-14 -10 -30 -19 t-30 -9q-16 0 -20 6t-4 18v1040q-42 0 -50 6t-8 30q0 8 9 30t21 46t24 47t18 33h1014zM208 402q22 18 63 47t95 62t115 65t124 58t122 42t107 16q20 0 39 -1t39 -5q0 8 -26 39t-62 66t-75 63t-65 34q-142 0 -240 6t-162 14zM334 1296q-10 0 -20 -3t-17 -16t-12 -42t-5 -81 q0 -36 26 -57t70 -31t101 -13t121 -3h186q18 2 38 16t36 32t26 39t10 39q0 26 -3 48t-14 38t-34 25t-61 9h-448z" />
<glyph unicode="&#xf4c;" horiz-adv-x="1240" d="M1120 1488l-34 -142q-6 -24 -54 -37t-100 -13h-22q26 -26 47 -55t36 -71t24 -103t9 -149q22 -22 37 -50t24 -56t13 -52t4 -36q-12 2 -44 8t-74 13t-88 13t-88 6q-136 0 -232 -47t-161 -130t-104 -197t-61 -252t-31 -294t-13 -320l-6 -204q0 -18 -16 -29t-30 -11 q-12 0 -24 10t-12 30v738q0 210 42 381t120 291t191 185t257 65q86 0 132 -7t68 -17q0 58 -30 119t-79 110t-112 80t-127 31h-282q-28 0 -35 7t-7 29q0 8 9 30t21 46t24 47t18 33h790z" />
<glyph unicode="&#xf4d;" horiz-adv-x="1200" d="M1122 1488l-60 -144q-22 -48 -112 -48q14 -38 28 -82t26 -89t20 -90t10 -85q24 -8 42 -30t30 -51t17 -61t5 -58q-38 18 -84 28t-96 14t-102 5t-100 1q-80 0 -173 -19t-175 -58t-142 -99t-74 -144l-28 -168q0 -22 -21 -38t-35 -16q-12 0 -26 17t-14 39l26 168 q20 122 65 219t123 163t195 101t279 35q36 0 88 -5t102 -15q0 32 -26 85t-64 105t-83 90t-83 38h-450q-36 0 -46 6t-10 30q0 8 9 30t21 46t24 47t18 33h876zM1040 520l-66 -144q-22 -48 -132 -48h-198q-48 0 -101 -25t-97 -61t-72 -74t-28 -62q38 0 88 -10t90 -52 q70 86 133 121t159 35q80 0 139 -28t98 -73t58 -100t19 -107q0 -76 -33 -150t-90 -147t-131 -144t-156 -139q-10 -10 -23 -21t-29 -11q-20 0 -25 6t-5 14q0 10 10 25t22 29q54 58 103 126t85 132t58 119t22 87q0 46 -13 89t-35 76t-50 53t-58 20q-34 0 -59 -7t-43 -17 t-31 -22t-25 -22q26 -24 46 -60t34 -72t21 -64t7 -36q0 -4 -2 -10t-18 -6t-30 8t-22 18q-70 70 -157 109t-195 39q-62 0 -99 -5t-77 -17q8 54 21 89t29 57t33 35t35 23q0 44 21 109t79 123h-62q-44 0 -51 7t-7 31q0 10 8 32t19 46t22 45t17 31h744z" />
<glyph unicode="&#xf4e;" horiz-adv-x="1180" d="M1030 1488l-66 -144q-22 -48 -128 -48h-184q-24 -8 -48 -35t-43 -62t-32 -73t-15 -68q34 16 99 32t121 16q104 0 173 -34t110 -85t57 -113t16 -118q0 -180 -90 -286t-246 -106q-50 0 -109 30t-112 81t-90 119t-43 144q-28 -52 -52 -133t-43 -177t-33 -200t-24 -200 l-72 -700q-2 -22 -16 -35t-32 -13t-27 15t-9 31l38 828q2 72 7 158t14 173t26 171t46 155t71 123t104 76q4 76 5 139t17 147h-248q-32 0 -37 7t-5 29q0 8 9 30t21 46t24 47t18 33h828zM766 938q-90 0 -160 -24t-96 -66q0 -64 22 -122t56 -102t78 -69t88 -25q112 0 164 61 t52 147q0 30 -14 65t-40 65t-64 50t-86 20z" />
<glyph unicode="&#xf4f;" horiz-adv-x="1120" d="M270 832q22 26 58 56t84 57t105 45t121 18q102 0 172 -34t112 -88t60 -119t18 -125t-49 -166t-127 -236t-173 -270t-188 -269t-173 -234t-126 -163q-8 -10 -24 -16t-26 -6q-12 0 -23 8t-11 20q0 2 29 45t78 115t110 166t126 198t126 211t110 207t78 185t29 143 q0 38 -9 80t-28 77t-49 57t-72 22q-40 0 -91 -8t-101 -20t-91 -27t-57 -29q4 -28 6 -71t2 -91q0 -36 -2 -69t-6 -60t-12 -43t-20 -16q-16 0 -21 10t-11 38l-24 156q-14 90 -31 184t-32 183t-26 169t-13 144q0 12 15 48t35 75t39 69t29 30h816l-66 -144q-22 -48 -76 -48h-532 q-18 0 -33 -12t-25 -28t-15 -32t-5 -26z" />
<glyph unicode="&#xf50;" horiz-adv-x="1200" d="M1112 1488l-22 -88t-23 -96t-19 -89t-8 -67v-874q0 -12 -4 -23t-16 -11q-14 0 -30 7t-30 17q-48 30 -126 72t-169 79t-187 64t-178 27q-20 0 -51 -1t-69 -4t-78 -9t-78 -16q0 42 13 78t33 66t44 50t46 28q0 28 20 60t53 62t73 55t80 39q-18 0 -63 11t-91 38t-82 72 t-36 115q0 48 17 89t31 55q-36 0 -46 6t-10 30q0 14 7 30t17 32l48 96h934zM874 928q-32 -4 -49 -9t-41 -12t-67 -18t-127 -25q-24 -10 -76 -29t-104 -42t-94 -49t-44 -50q20 4 41 5t41 1q72 0 162 -40t175 -94t154 -109t103 -83zM394 1296q-40 0 -62 -9t-33 -25t-14 -38 t-3 -48q0 -18 12 -44t45 -50t90 -40t149 -16q60 0 115 10t95 28t64 46t24 64q0 42 -3 66t-8 36t-12 16t-15 4h-444z" />
<glyph unicode="&#xf51;" horiz-adv-x="1200" d="M976 1488l-66 -144q-22 -48 -128 -48h-168q-66 0 -137 -26t-130 -70t-97 -100t-38 -116q22 10 68 17t132 7q68 0 144 -24t145 -66t125 -99t84 -123q20 -46 40 -98t39 -123t36 -168t30 -234t20 -322t7 -431q0 -20 -10 -30t-22 -10q-14 0 -29 11t-17 29q-14 130 -25 290 t-32 324t-60 318t-109 274t-177 193t-267 73q-42 0 -93 -10t-98 -22t-83 -22t-48 -12q0 88 29 139t75 81q0 88 8 144t22 93t34 62t46 51h-92q-32 0 -37 7t-5 29q0 8 9 30t21 46t24 47t18 33h812z" />
<glyph unicode="&#xf52;" horiz-adv-x="1220" d="M1048 1488l-66 -144q-22 -48 -128 -48h-312q-38 0 -83 -35t-83 -83t-64 -99t-26 -83q50 10 102 15t88 5q162 0 278 -38t194 -107t123 -169t65 -222l28 -168q0 -22 -13 -36t-25 -14q-14 0 -36 13t-22 35l-28 168q-14 84 -74 147t-142 106t-175 64t-173 21q-48 0 -100 -1 t-102 -5t-96 -14t-84 -28q0 26 5 58t17 61t30 51t42 30q4 82 30 167t56 161h-60q-32 0 -37 7t-5 29q0 8 9 30t21 46t24 47t18 33h804zM980 480l-66 -144q-22 -48 -132 -48h-198q-48 0 -101 -25t-97 -61t-72 -74t-28 -62q38 0 88 -7t90 -49q70 86 133 121t159 35 q80 0 139 -28t98 -73t58 -100t19 -107q0 -76 -36 -147t-95 -139t-135 -135t-158 -135q-10 -10 -21 -19t-29 -9q-20 0 -25 3t-5 11q0 10 10 25t22 29q54 58 104 123t89 125t63 111t24 83q0 46 -13 89t-35 76t-50 53t-58 20q-34 0 -59 -7t-43 -17t-31 -22t-25 -22 q26 -24 46 -60t34 -72t21 -64t7 -36q0 -4 -2 -10t-18 -6t-30 8t-22 18q-138 142 -352 142q-62 0 -99 -5t-77 -17q8 54 21 89t29 57t33 35t35 23q0 44 21 109t79 123h-68q-44 0 -51 7t-7 31q0 10 9 32t21 46t24 45t18 31h744z" />
<glyph unicode="&#xf53;" horiz-adv-x="1180" d="M1072 1488l-66 -144q-22 -48 -128 -48h-204q40 -58 61 -140t29 -178q50 -44 98 -112t87 -169t65 -238t36 -317l42 -816q0 -20 -9 -33t-27 -13t-31 13t-17 35l-72 650q-10 82 -25 173t-37 181t-53 174t-73 156q-14 -68 -39 -127t-63 -102t-92 -68t-124 -25q-78 0 -145 19 t-116 63t-77 113t-28 171q0 64 20 132t65 125t120 93t183 36q28 0 75 -5t101 -27q-22 50 -49 93t-56 75t-57 50t-52 18h-200q-32 0 -37 7t-5 29q0 8 9 30t21 46t24 47t18 33h828zM430 490q46 0 85 23t70 63t51 91t30 109q-52 54 -112 85t-136 31q-48 0 -87 -20t-66 -50 t-41 -66t-14 -66q0 -86 53 -143t167 -57z" />
<glyph unicode="&#xf54;" horiz-adv-x="1220" d="M618 1488l-66 -144q-22 -48 -130 -48q-10 0 -43 -23t-69 -65t-65 -100t-29 -128q36 6 74 6q96 0 194 -30t188 -84t165 -129t123 -167l-40 480q-6 68 -11 115t-14 75t-24 40t-39 12h-18l90 190h230q-8 -28 -21 -72t-25 -91t-21 -90t-9 -69v-772q0 -12 -10 -18t-24 -6 q-16 0 -31 7t-25 17q-144 170 -320 269t-384 99q-22 0 -57 -3t-74 -9t-74 -12t-55 -12q0 26 8 61t23 69t37 63t48 43q0 76 11 134t26 99t31 66t26 35h-110q-36 0 -46 6t-10 30q0 8 9 30t21 46t24 47t18 33h498z" />
<glyph unicode="&#xf55;" horiz-adv-x="1220" d="M618 1488l-66 -144q-22 -48 -130 -48q-10 0 -43 -23t-69 -65t-65 -100t-29 -128q36 6 74 6q120 0 242 -46q30 44 68 90t85 87t100 73t111 50q-16 58 -64 58h-18l90 190h230q-8 -28 -21 -72t-25 -91t-21 -90t-9 -69v-772q0 -12 -10 -18t-24 -6q-16 0 -31 7t-25 17 q-144 170 -320 269t-384 99q-22 0 -57 -3t-74 -9t-74 -12t-55 -12q0 26 8 61t23 69t37 63t48 43q0 76 11 134t26 99t31 66t26 35h-110q-36 0 -46 6t-10 30q0 8 9 30t21 46t24 47t18 33h498zM916 1100q-34 -8 -72 -28t-77 -48t-77 -60t-70 -64q108 -54 196 -137t144 -187 l-40 480q-2 12 -3 23t-1 21z" />
<glyph unicode="&#xf56;" horiz-adv-x="1220" d="M1132 1488l-22 -88t-23 -96t-19 -89t-8 -67v-772q0 -12 -10 -18t-24 -6q-16 0 -22 7t-16 17q-72 84 -153 157t-171 128t-187 86t-201 31q-22 0 -54 -3t-67 -9t-67 -12t-52 -12q0 26 5 56t17 60t30 54t44 38q0 76 11 135t26 103t31 71t26 37h-60q-36 0 -46 6t-10 30 q0 14 7 30t17 32l48 94h950zM434 1296q-20 0 -54 -25t-68 -69t-59 -104t-25 -130q8 2 26 3t37 2t36 1h27q76 0 163 -28t170 -80t155 -126t120 -166l-44 482q-10 104 -26 172t-48 68h-410z" />
<glyph unicode="&#xf57;" horiz-adv-x="1220" d="M1132 1488l-22 -88t-23 -96t-19 -89t-8 -67v-628l-66 -144q-14 -22 -45 -35t-87 -13h-258q-48 0 -101 -25t-97 -60t-72 -73t-28 -62q38 0 88 -7t90 -49q70 86 133 121t159 35q80 0 139 -28t98 -73t58 -100t19 -107q0 -76 -41 -153t-106 -152t-146 -148t-163 -141 q-10 -10 -21 -19t-29 -9q-20 0 -25 3t-5 11q0 10 10 25t22 29q54 58 109 128t100 138t74 125t29 89q0 46 -13 89t-35 76t-50 53t-58 20q-34 0 -59 -7t-43 -17t-31 -22t-25 -22q26 -24 46 -60t34 -72t21 -64t7 -36q0 -4 -2 -10t-18 -6t-30 8t-22 18q-138 142 -352 142 q-62 0 -99 -5t-77 -17q8 54 21 89t29 57t33 35t35 23q0 44 21 108t79 122h-68q-44 0 -51 7t-7 31q0 10 9 32t21 46t24 45t18 31h674q-138 136 -302 198t-352 62q-22 0 -54 -3t-67 -9t-67 -12t-52 -12q0 26 5 56t17 60t30 54t44 38q0 54 11 110t26 105t31 84t26 45h-60 q-36 0 -46 6t-10 30q0 14 7 30t17 32l48 94h950zM440 1296q-20 0 -55 -33t-70 -82t-61 -106t-26 -105q8 2 26 3t37 2t36 1h27q76 0 163 -22t170 -67t156 -112t121 -159l-46 440q-10 104 -26 172t-48 68h-404z" />
<glyph unicode="&#xf58;" horiz-adv-x="1320" d="M822 1488l-70 -144q-12 -26 -38 -36t-60 -12v-214q48 -34 108 -108t119 -159t108 -168t75 -131l-42 540q-6 68 -11 115t-14 75t-24 40t-39 12h-18l90 190h228q-8 -28 -21 -71t-25 -90t-20 -91t-8 -70v-794q0 -36 -32 -36q-14 0 -32 10t-32 26q-48 58 -99 123t-103 129 t-105 123t-103 107q0 -42 -23 -103t-66 -118t-104 -97t-137 -40q-72 0 -128 30t-94 78t-57 109t-19 121t20 118t59 105t99 75t142 28q24 0 58 -5t66 -11t57 -12t29 -8q0 36 -18 68t-44 55t-56 36t-54 13h-158q-42 0 -51 6t-9 28q0 12 9 36t21 48t24 45t18 29h584zM556 910 q-10 10 -33 20t-53 19t-67 14t-75 5q-88 0 -135 -45t-47 -105q0 -30 12 -62t34 -58t56 -42t76 -16q48 0 90 21t74 58t50 86t18 105z" />
<glyph unicode="&#xf59;" horiz-adv-x="1240" d="M972 1488q0 12 -4 33t-13 44t-22 46t-29 41q-18 18 -33 28t-15 20q0 6 7 16t11 14l78 88q22 22 58 22h216q16 0 33 10t29 10q16 0 19 -11t3 -23q0 -46 -26 -76t-64 -48t-78 -26t-70 -8h-30v-180h72l-64 -144q-22 -48 -128 -48h-170q4 -22 5 -50t1 -56t-14 -51t-18 -45 q60 0 135 -25t142 -67t112 -99t45 -123q0 -80 -44 -162t-113 -148t-153 -108t-164 -42q-96 0 -178 57t-149 139t-117 172t-82 154q-18 30 -39 56t-40 47t-32 36t-13 25q0 20 32 20q28 0 49 -12t43 -30q20 -16 48 -33t56 -17q36 0 100 13t127 39t109 63t46 83q0 44 -15 76 t-38 51t-48 28t-43 9h-186q-36 0 -46 6t-10 30q0 8 9 30t21 46t24 47t18 33h640zM998 666q0 56 -29 101t-78 77t-112 49t-129 17q-28 -4 -68 -13t-85 -20t-93 -21t-96 -14q26 -52 67 -112t97 -112t127 -86t157 -34q32 0 74 18t80 44t63 55t25 51z" />
<glyph unicode="&#xf5a;" horiz-adv-x="1300" d="M942 1488q0 12 -4 33t-13 44t-22 46t-29 41q-18 18 -33 28t-15 20q0 6 7 16t11 14l78 88q22 22 58 22h216q16 0 33 10t29 10q16 0 19 -11t3 -23q0 -46 -26 -76t-64 -48t-78 -26t-70 -8h-30v-180h52l-66 -144q-14 -30 -45 -39t-71 -9h-172q0 -10 -2 -25t-2 -19 q0 -38 -7 -97t-17 -129q12 6 33 11t48 10t57 7t56 2q90 0 151 -31t100 -85t56 -125t17 -151q0 -72 -19 -141t-55 -124t-87 -88t-113 -33q-60 0 -112 18t-91 44t-65 54t-34 50q-4 -18 -24 -45t-53 -52t-75 -43t-88 -18q-62 0 -120 26t-102 74t-71 116t-27 152q0 78 26 150 t73 127t110 89t135 34q48 0 102 -8t76 -18q0 44 -16 92t-40 87t-51 64t-47 25h-172q-42 0 -51 6t-9 28q0 12 9 36t21 48t24 45t18 29h670zM798 880q-20 0 -42 -8t-41 -38t-31 -90t-12 -166q0 -36 26 -62t65 -41t86 -22t89 -7q82 0 112 50t30 152q0 40 -16 82t-51 75t-88 54 t-127 21zM404 886q-58 0 -100 -19t-69 -48t-39 -65t-12 -70q0 -42 15 -83t44 -74t69 -53t88 -20q40 0 73 15t56 57t35 119t12 201q-6 8 -27 16t-47 13t-53 8t-45 3z" />
<glyph unicode="&#xf5b;" horiz-adv-x="1160" d="M940 1488q0 12 -4 33t-13 44t-22 46t-29 41q-18 18 -33 28t-15 20q0 6 7 16t11 14l78 88q22 22 58 22h194q16 0 33 10t29 10q16 0 19 -11t3 -23q0 -46 -23 -76t-56 -48t-70 -26t-67 -8h-30v-180h42l-68 -144q-18 -22 -46 -35t-82 -13h-422q-46 0 -87 -35t-74 -81t-53 -93 t-20 -71q100 52 181 70t151 18q74 0 135 -10t117 -10q20 0 44 7t46 16t37 18t19 13q14 -16 20 -41t6 -41q0 -28 -20 -53t-54 -44t-77 -31t-89 -12q-54 0 -110 7t-104 14t-83 14t-49 7q-44 0 -85 -9t-79 -33q-10 -4 -11 -20t-1 -72v-76q16 6 47 12t70 11t84 9t87 4 q64 0 128 -14t124 -38t116 -56t104 -68q94 -68 151 -140t57 -122q0 -14 -26 -14q-16 0 -80 38t-160 85t-216 85t-248 38q-166 0 -274 -19t-158 -43q0 46 19 101t77 95v200q0 78 5 132t15 96t28 78t46 78h-38q-36 0 -46 6t-10 30q0 8 9 30t21 46t24 47t18 33h772z" />
<glyph unicode="&#xf5c;" horiz-adv-x="1160" d="M926 1488q0 12 -4 33t-13 44t-22 46t-29 41q-18 18 -33 28t-15 20q0 6 7 16t11 14l78 88q22 22 58 22h216q16 0 33 10t29 10q16 0 19 -11t3 -23q0 -46 -26 -76t-64 -48t-78 -26t-70 -8h-30v-180h76l-68 -144q-22 -48 -128 -48h-428q-46 0 -82 -29t-63 -68t-43 -79 t-20 -64q100 52 171 70t141 18q74 0 135 -10t117 -10q20 0 44 7t46 16t37 18t19 13q14 -16 20 -41t6 -41q0 -28 -20 -53t-54 -44t-77 -31t-89 -12q-54 0 -107 7t-97 14t-76 14t-46 7q-46 0 -90 -6t-78 -34q-6 -16 -7 -43t-1 -37v-56q34 10 108 23t160 13q48 0 113 -18 t133 -47t133 -68t116 -81t83 -84t32 -80q0 -4 -11 -12t-27 -8q-24 0 -70 30t-121 66t-181 66t-250 30q-150 0 -256 -23t-156 -39q0 46 19 101t77 95v166q0 96 20 178t74 166h-38q-36 0 -46 6t-10 30q0 8 9 30t21 46t24 47t18 33h718zM940 520l-66 -144q-22 -48 -132 -48 h-198q-48 0 -101 -26t-97 -63t-72 -76t-28 -63q38 0 88 -7t90 -49q70 86 133 121t159 35q80 0 139 -28t98 -73t58 -100t19 -107q0 -76 -34 -151t-91 -148t-131 -144t-156 -139q-10 -10 -26 -20t-34 -10q-20 0 -27 8t-7 16q0 10 12 24l24 28q54 58 104 126t89 132t62 118 t23 86q0 46 -13 89t-35 76t-50 53t-58 20q-34 0 -59 -7t-43 -17t-31 -22t-25 -22q26 -24 46 -60t34 -72t21 -64t7 -36q0 -4 -2 -12t-18 -8t-29 10t-23 20q-64 76 -154 109t-198 33q-62 0 -99 -5t-77 -17q8 54 21 89t29 57t33 35t35 23q0 44 21 112t79 126h-68q-44 0 -51 7 t-7 31q0 10 9 32t21 46t24 45t18 31h744z" />
<glyph unicode="&#xf5d;" horiz-adv-x="1320" d="M582 826q-16 0 -23 -7l-19 -19q-18 -18 -38 -47t-37 -58t-28 -55t-11 -40q86 0 177 -25t174 -67t155 -96t122 -110l-32 524h-440zM636 1488l-42 -80q20 -12 40 -35t35 -49t24 -52t9 -44q0 -34 -10 -71t-24 -70t-29 -58t-23 -35q30 0 78 -1t102 -1t109 -1t101 -3 q-4 76 -14 154t-28 154q-18 18 -47 30t-29 22q0 6 7 16t11 14l78 88q22 22 58 22h90q34 0 65 6t59 32q10 10 30 19t32 9q16 0 19 -15t3 -27q0 -44 -21 -80t-52 -61t-67 -40t-66 -17q12 -30 14 -71t2 -75v-1002q0 -12 -8 -29t-18 -17q-18 0 -32 8t-20 16q-42 52 -114 100 t-160 84t-183 58t-181 22q-22 0 -51 -3t-59 -8t-57 -11t-43 -12q0 10 3 39t15 63t36 66t66 46q0 52 25 120t63 116h-38q-46 0 -46 26q0 6 9 30t22 49t30 45t33 20h70q12 12 21 38t15 54t9 54t3 38q0 24 -10 46t-24 38t-29 25t-23 9h-86q-80 0 -123 -19t-64 -43t-25 -48 t-4 -34q0 -60 12 -90t27 -50t27 -40t12 -60q0 -30 -15 -62t-35 -59t-42 -44t-34 -17q-10 0 -19 7t-9 13q0 12 8 29t8 37t-11 41t-25 50t-25 71t-11 102q0 68 25 140t70 132t110 98t143 38h248z" />
<glyph unicode="&#xf5e;" horiz-adv-x="1360" d="M1194 1488l-48 -96q2 0 13 -20t24 -47t23 -56t10 -51q0 -32 -12 -58t-28 -52t-36 -51t-36 -55l-42 -70q44 -66 71 -147t42 -167t20 -173t5 -161v-972q0 -18 -15 -25t-33 -7q-4 0 -10 7t-8 25l-58 904q-4 52 -13 121t-25 140t-39 138t-51 115q-18 -30 -43 -66t-55 -66 t-67 -51t-81 -21q-58 0 -112 27t-96 70t-67 100t-25 117q0 54 25 106t67 93t94 66t106 25q52 0 100 -14t88 -34t69 -41t43 -33q10 18 21 41t11 57q0 76 -24 133t-82 57h-506q-96 -46 -162 -151t-66 -255q0 -76 22 -119t49 -77t50 -74t23 -110q0 -30 -18 -61t-42 -56t-48 -41 t-36 -16q-6 0 -14 5t-8 15t11 24t11 28q0 66 -23 103t-50 73t-49 85t-22 139q0 130 40 243t97 201t119 149t104 87h792zM498 822q0 -44 21 -73t53 -46t67 -24t63 -7q42 0 70 9t49 27t37 45t34 63q-28 50 -83 81t-105 31q-34 0 -70 -3t-66 -14t-50 -32t-20 -57z" />
<glyph unicode="&#xf5f;" horiz-adv-x="1200" d="M1116 1488q-4 -40 -16 -88t-25 -95t-24 -88t-11 -67v-788q0 -48 -20 -48q-16 0 -76 48q-42 32 -119 62t-167 53t-181 37t-159 14q-20 0 -53 -1t-73 -4t-82 -9t-80 -16q0 74 28 119t71 67t98 29t109 7q60 0 149 -23t179 -57t167 -74t113 -76l-26 302q-58 50 -253 85 t-543 35q-20 0 -20 16q0 10 6 32l66 144q154 0 278 -16t217 -40t154 -54t87 -56q0 14 -4 46t-10 72t-15 82t-19 77t-21 58t-23 23h-682q-36 0 -46 6t-10 30q0 14 7 30t17 32l48 94h964z" />
<glyph unicode="&#xf60;" horiz-adv-x="1200" d="M1100 1488l-52 -144q-18 -40 -78 -48q34 -40 47 -108t13 -132q0 -28 -16 -66t-42 -74t-57 -65t-63 -41q32 -4 65 -38t62 -87t54 -116t43 -124t28 -115t10 -86q0 -30 -26 -30q-24 0 -56 48q-26 40 -58 108t-78 134t-110 114t-152 48q-22 0 -49 -10t-56 -24t-58 -31 t-51 -29q2 64 26 136t70 112q36 34 82 39t104 5q16 0 41 -2t33 -6q30 24 56 70t26 130q0 44 -14 88t-41 77t-64 54t-81 21h-224q-38 0 -81 -25t-79 -65t-60 -90t-24 -100q0 -56 10 -87t22 -54t22 -48t10 -69q0 -30 -10 -67t-24 -68t-31 -52t-31 -21q-20 0 -20 6q0 4 2 8t2 8 q0 48 -16 88t-36 79t-36 80t-16 93q0 84 7 141t21 102t36 84t52 85q12 18 39 45t62 54t70 46t61 19h714z" />
<glyph unicode="&#xf61;" horiz-adv-x="1400" d="M370 1488l-46 -144q-14 -44 -56 -48q-2 0 -15 -32t-28 -80t-27 -104t-12 -106q0 -90 60 -126t150 -36q60 0 102 22t69 58t39 80t12 90q0 34 -4 75t-13 76t-21 59t-26 24q-26 0 -35 7t-9 29q0 8 9 30t21 46t24 47t18 33h246l-50 -144q-4 -12 -16 -21t-28 -17q4 -42 8 -93 t4 -89q0 -46 -8 -76t-18 -70q34 0 92 -52t121 -125t121 -156t94 -145l-46 556q-6 68 -11 115t-14 75t-24 40t-39 12h-18l90 190h230q-8 -28 -21 -72t-25 -91t-21 -90t-9 -69v-834q0 -12 -10 -18t-22 -6q-30 0 -50 24q-58 70 -141 149t-162 146t-140 113t-73 50 q-18 -22 -41 -52t-52 -56t-66 -44t-83 -18q-66 0 -128 16t-112 54t-80 101t-30 159q0 50 10 96t25 90t31 84t28 76q-42 0 -66 6t-24 30q0 8 9 30t21 46t24 47t18 33h244z" />
<glyph unicode="&#xf62;" horiz-adv-x="1240" d="M1048 1488l-64 -144q-22 -48 -128 -48h-206q10 -10 15 -47t5 -85q0 -64 -4 -115t-16 -105q118 -24 207 -85t153 -137t107 -160t69 -154t36 -118t10 -54q0 -10 -5 -23t-21 -13q-18 0 -31 12t-21 26q-44 84 -116 179t-173 175t-230 133t-287 53q-38 0 -90 -9t-105 -22 t-99 -28t-70 -25q0 82 31 138t82 91t119 50t140 15q52 0 103 -4t95 -16v88q0 42 -18 84t-45 77t-59 57t-58 22h-198q-36 0 -46 6t-10 30q0 8 10 30t22 46t24 47t18 33h854z" />
<glyph unicode="&#xf63;" horiz-adv-x="1400" d="M752 1488l-46 -96q18 -8 32 -32t24 -58t16 -74t6 -82q0 -62 -27 -129t-93 -131q80 -10 151 -50t133 -94t112 -116t86 -116l-44 546q-6 68 -11 115t-14 75t-24 40t-39 12h-18l90 190h224q-8 -28 -20 -72t-23 -91t-19 -90t-8 -69v-796q0 -34 -26 -34q-18 0 -42 12t-52 40 q-46 44 -103 98t-128 101t-156 78t-183 31q-46 0 -78 -4t-52 -8q-22 -6 -38 -12q0 42 9 81t30 69t56 48t87 18q40 34 56 99t16 129q0 28 -6 60t-27 59t-63 44t-112 17q-126 0 -184 -48t-58 -122q0 -44 12 -82t25 -75t25 -76t12 -83q0 -30 -14 -67t-33 -69t-40 -53t-35 -21 q-12 0 -16 5t-4 9t2 8t2 8q0 48 -13 85t-28 73t-27 75t-12 91q0 84 21 177t64 173t112 132t165 52h348z" />
<glyph unicode="&#xf64;" horiz-adv-x="1340" d="M1208 1488q-18 -84 -22 -175t-4 -161v-1832q0 -16 -8 -28t-34 -12q-16 0 -21 9t-9 31q-6 34 -14 126t-17 220t-18 281t-19 308t-19 301t-17 260q-22 -24 -53 -50t-66 -48t-71 -37t-68 -15q-148 0 -228 54t-114 162l12 -320q8 -18 14 -51t9 -69t4 -68t1 -48q0 -8 -5 -14 t-23 -6q-16 0 -26 7t-14 13q-30 44 -62 95t-73 95t-96 73t-131 29q-26 0 -47 -5t-49 -17q0 14 9 54t26 82t39 75t46 33q48 0 98 -30t92 -65t69 -64t27 -25q-2 24 -7 80t-10 120t-9 120t-4 80q0 66 28 146t79 149t122 115t159 46q38 0 79 -3t81 -11t76 -21t64 -33l-6 66z M726 1322q-120 0 -185 -58t-65 -178q0 -60 24 -109t62 -85t83 -56t87 -20q50 0 93 20t75 55t49 83t17 106q0 120 -66 181t-174 61z" />
<glyph unicode="&#xf65;" horiz-adv-x="1360" d="M322 1510l-6 -66q26 20 63 33t77 21t81 11t79 3q84 0 155 -46t123 -115t81 -149t29 -146q0 -24 -5 -85t-12 -131t-13 -131t-8 -85q26 22 59 41t68 34t68 23t61 8q24 0 46 -28t39 -65t26 -73t9 -50q-28 12 -49 17t-47 5q-76 0 -137 -17t-109 -45t-86 -66t-68 -82 q-4 -6 -14 -13t-26 -7q-18 0 -23 6t-5 14q0 16 10 57t24 84t28 79t24 42l30 294q-34 -108 -128 -171t-214 -63q-32 0 -69 13t-73 33t-68 44t-54 48q-8 -104 -15 -245t-16 -294t-17 -306t-15 -281t-14 -220t-11 -122q-4 -22 -19 -30t-19 -8q-26 0 -35 14t-9 30v1828 q0 70 -4 161t-22 175zM574 1322q-54 0 -102 -16t-85 -46t-58 -75t-21 -105q0 -58 21 -106t57 -83t83 -55t99 -20q42 0 91 20t90 56t69 85t28 109q0 120 -76 178t-196 58z" />
<glyph unicode="&#xf66;" horiz-adv-x="1360" d="M792 1488l-66 -144q-10 -22 -25 -35t-53 -13h-42q126 -132 244 -293t238 -379l-34 432q-10 138 -33 189t-55 51h-14l88 192h228q-8 -34 -19 -81t-22 -96t-19 -92t-8 -69v-774q0 -12 -13 -18t-27 -6q-8 0 -20 11t-44 51t-84 108t-117 149t-135 165t-138 157t-127 127 t-101 72q-28 -14 -57 -32t-54 -43t-42 -61t-23 -86q70 0 133 -28t117 -72t97 -96t73 -102t47 -90t17 -58q0 -6 -6 -15t-20 -9q-16 0 -26 7t-22 17q-66 56 -119 103t-106 80t-111 51t-134 18q-42 0 -82 -10t-84 -14q0 6 3 35t16 64t39 68t72 49q0 58 9 103t29 82t50 71t70 72 h-92q-36 0 -46 6t-10 30q0 8 9 30t21 46t24 47t18 33h588z" />
<glyph unicode="&#xf67;" horiz-adv-x="1240" d="M1110 1488l-66 -144q-22 -48 -128 -48h-312q-68 -16 -137 -57t-124 -92t-90 -106t-35 -97q46 -4 107 -21t101 -47q36 56 67 95t64 65t72 38t91 12q86 0 165 -29t141 -80t99 -122t37 -155q0 -60 -27 -145t-73 -183t-106 -205t-125 -214t-129 -208t-120 -186t-99 -149 t-63 -98q-8 -14 -21 -23t-35 -9q-18 0 -21 8t-3 18l2 6q18 50 70 151t121 228t143 268t137 269t103 231t40 155q0 62 -5 112t-29 86t-75 56t-145 20q-54 0 -108 -16t-104 -56q40 -28 70 -67t52 -83t39 -87t33 -79q0 -6 -4 -13t-26 -7q-8 0 -18 4t-16 14q-124 126 -243 196 t-257 70q-20 0 -59 -5t-61 -11q0 36 13 71t31 62t36 44t30 19q0 36 12 83t34 96t51 94t65 79h-60q-36 0 -46 6t-10 30q0 14 7 30t17 32l48 94h882z" />
<glyph unicode="&#xf68;" horiz-adv-x="1460" d="M942 1488l-50 -144q-8 -22 -14 -35t-36 -13h-52q32 -42 59 -77t54 -72t55 -82t60 -107q20 -40 45 -96t52 -116t53 -118t50 -106l-54 534q-8 70 -18 116t-22 74t-26 39t-30 11h-12l84 192h228q-6 -34 -18 -78t-23 -89t-19 -85t-8 -66v-788q0 -12 -9 -28t-25 -16 q-14 0 -30 17t-26 27q-70 90 -133 185t-129 196t-140 208t-164 221q-12 -4 -31 -25t-37 -46t-32 -50t-14 -35q10 4 21 5t21 1q32 0 60 -26t47 -66t30 -87t11 -89q0 -40 -24 -93t-66 -101t-97 -82t-117 -34q-50 0 -109 20t-110 68t-85 128t-34 200q0 108 25 216t47 200h-22 q-36 0 -46 6t-10 30q0 8 9 30t21 46t24 47t18 33h280l-54 -144l-7 -21t-9 -15t-18 -9t-34 -3q-16 -20 -35 -57t-34 -80t-25 -90t-10 -89q0 -54 10 -115t37 -113t77 -86t132 -34q148 0 148 124q0 18 -6 39t-18 39t-32 30t-46 12q-56 0 -82 -12t-34 -12q-10 0 -12 9t-2 15 q0 18 25 78t59 130t72 131t64 81h-54q-36 0 -46 6t-10 30q0 8 10 30t22 46t24 47t18 33h388z" />
<glyph unicode="&#xf69;" horiz-adv-x="1320" d="M1228 1488l-22 -88t-23 -95t-18 -88t-7 -67v-752q0 -14 -11 -27t-27 -13t-27 13t-13 27l-66 610q-4 42 -8 93t-13 94t-26 72t-49 29h-182q-8 -58 -10 -99t-4 -93q0 -22 -1 -87t-7 -136t-23 -126t-49 -55q-8 0 -17 37t-17 97t-16 137t-14 157q-2 30 -8 60t-16 54t-23 39 t-29 15h-98q0 -78 -28 -159t-76 -145t-113 -105t-139 -41q-12 0 -20 10t-8 20q0 4 22 19t28 19q32 24 63 71t57 103t42 112t16 96h-88q-36 0 -46 6t-10 30q0 8 9 30t21 46t24 47t18 33h1052zM306 600l-4 -64q54 40 136 66t150 26q92 0 161 -40t114 -102t68 -134t23 -134 q0 -24 -3 -68t-6 -93t-8 -94t-7 -67q26 20 57 39t64 34t64 24t59 9q24 0 46 -28t39 -65t26 -73t9 -50q-28 12 -49 17t-47 5q-76 0 -135 -17t-105 -45t-82 -66t-66 -82q-4 -6 -14 -13t-26 -7q-18 0 -23 6t-5 14q0 16 10 57t24 84t28 79t24 42q8 32 14 59t10 53t5 54t1 66v18 q-38 -108 -117 -171t-199 -63q-32 0 -68 9t-72 25t-67 37t-53 45l-64 -668q-2 -16 -16 -29t-30 -13t-25 12t-9 30v920q0 70 -5 161t-23 175zM546 436q-48 0 -92 -12t-79 -38t-56 -67t-21 -99q0 -36 21 -73t57 -67t83 -49t99 -19q42 0 83 12t73 38t52 66t20 96q0 112 -66 162 t-174 50z" />
<glyph unicode="&#xf6a;" horiz-adv-x="1202" d="M1048 1488l-64 -144q-22 -48 -128 -48h-192q2 -10 10 -55t8 -101q0 -52 -11 -111t-17 -105q108 -36 192 -99t148 -138t108 -153t72 -143t40 -109t12 -50q0 -10 -2 -16t-18 -6q-18 0 -25 5t-17 19q-34 80 -116 170t-185 165t-211 124t-192 49q-38 0 -102 -1t-136 -5 t-140 -10t-114 -16q0 82 33 132t88 78t124 38t141 10q58 0 107 -7t93 -9q0 56 -12 116t-35 111t-55 84t-74 33h-202q-36 0 -46 6t-10 30q0 8 10 30t22 46t24 47t18 33h854z" />
<glyph unicode="&#xf6b;" horiz-adv-x="1400" d="M1242 1344q-10 -26 -41 -36t-85 -10h-32q0 -46 23 -125t57 -160t74 -147t74 -84q8 -4 16 -11t8 -11q0 -22 -24 -22q-66 0 -124 46t-106 117t-85 156t-57 165q-4 20 -16 48t-36 28h-100q-10 0 -20 -37t-18 -86t-14 -101t-8 -82q-6 -82 -14 -185t-18 -193t-20 -152t-18 -62 q-28 0 -39 66t-16 161t-7 200t-10 181q-4 32 -4 55t-1 52t-2 71t-5 112h-224q-12 0 -27 -11t-30 -29t-26 -42t-15 -52l-64 -1398q-2 -16 -8 -26t-18 -10q-44 0 -44 36l-40 1460q0 14 24 56t55 88t60 82t41 36h1046z" />
<glyph unicode="&#xf6c;" horiz-adv-x="1260" d="M1094 1488l-64 -144q-22 -48 -128 -48h-214q2 -10 10 -55t8 -101q0 -44 -11 -94t-25 -94q42 6 90 11t104 5q72 0 141 -10t124 -39t88 -80t33 -133q-34 8 -82 15t-100 13t-106 9t-100 3q-66 0 -142 -22t-154 -59t-156 -88t-146 -108t-122 -117t-88 -118q-8 -14 -16 -19 t-26 -5q-16 0 -18 6t-2 16q0 6 12 50t39 110t71 144t108 153t148 138t194 97v28q0 56 -15 116t-39 111t-53 84t-55 33h-218q-36 0 -46 6t-10 30q0 8 10 30t22 46t24 47t18 33h892z" />
<glyph unicode="&#xf71;" d="M-100 0v-34q0 -22 -10 -48t-24 -28q10 -16 22 -44t12 -50q0 -42 -21 -89t-63 -79q36 0 75 -25t76 -68t68 -102t53 -125q0 -10 -7 -19t-19 -9t-34 28q-32 40 -60 68t-62 46t-78 26t-110 8q-26 0 -65 -7t-87 -17q0 12 2 45t17 66t46 59t89 26q30 20 51 45t21 49 q0 42 -37 64t-123 22h-62q-64 0 -112 -22t-48 -64q0 -32 8 -56t17 -42l17 -34t8 -32q0 -24 -10 -57t-24 -65t-31 -54t-31 -22q-12 0 -16 6t-4 10t2 8t2 8q0 40 -12 76t-26 68t-26 58t-12 48q0 72 29 137t73 114t95 78t93 29h338z" />
<glyph unicode="&#xf72;" d="M-762 2320q82 0 160 -73t154 -183t154 -238t162 -238q0 -14 -13 -21t-23 -7q-22 0 -65 43t-100 107t-124 140t-138 140t-144 107t-139 43q-20 0 -45 -8t-48 -23t-38 -36t-15 -47q0 -22 7 -46t24 -45t45 -35t70 -14q38 0 66 12t47 25t31 25t18 12q8 0 11 -7t3 -11 q0 -54 -21 -98t-55 -76t-77 -50t-85 -18q-40 0 -79 18t-69 47t-49 67t-19 78q0 104 48 182t113 128t131 75t102 25z" />
<glyph unicode="&#xf73;" d="M-762 2320q82 0 160 -73t154 -183t154 -238t162 -238q0 -14 -13 -21t-23 -7q-22 0 -65 43t-100 107t-124 140t-138 140t-144 107t-139 43q-20 0 -45 -8t-48 -23t-38 -36t-15 -47q0 -22 7 -46t24 -45t45 -35t70 -14q38 0 66 12t47 25t31 25t18 12q8 0 11 -7t3 -11 q0 -54 -21 -98t-55 -76t-77 -50t-85 -18q-40 0 -79 18t-69 47t-49 67t-19 78q0 104 48 182t113 128t131 75t102 25zM-100 0v-34q0 -22 -10 -48t-24 -28q10 -16 22 -44t12 -50q0 -42 -21 -89t-63 -79q36 0 75 -25t76 -68t68 -102t53 -125q0 -10 -7 -19t-19 -9t-34 28 q-32 40 -60 68t-62 46t-78 26t-110 8q-26 0 -65 -7t-87 -17q0 12 2 45t17 66t46 59t89 26q30 20 51 45t21 49q0 42 -37 64t-123 22h-62q-64 0 -112 -22t-48 -64q0 -32 8 -56t17 -42l17 -34t8 -32q0 -24 -10 -57t-24 -65t-31 -54t-31 -22q-12 0 -16 6t-4 10t2 8t2 8 q0 40 -12 76t-26 68t-26 58t-12 48q0 72 29 137t73 114t95 78t93 29h338z" />
<glyph unicode="&#xf74;" d="M48 48q0 -78 -33 -145t-85 -117t-117 -78t-131 -28q-78 0 -148 33t-139 89t-140 128t-153 148t-176 152t-210 140q-16 10 -28 22t-12 28q0 10 9 16t17 6q32 0 68 -14q86 -38 179 -95t188 -120t188 -126t180 -113t164 -82t141 -32q58 0 100 28t42 104q0 34 -21 64t-54 52 t-74 35t-81 13q-42 0 -78 -16q-6 -2 -18 -10t-25 -16t-26 -15t-19 -7q-10 0 -11 23t-1 41q0 24 13 59t41 67t71 55t101 23q62 0 113 -25t88 -68t57 -100t20 -119z" />
<glyph unicode="&#xf75;" d="M38 -768q0 34 -21 64t-54 52t-74 35t-81 13q-24 0 -48 -10t-45 -22t-39 -22t-34 -10q-10 0 -11 23t-1 41q0 24 13 59t41 67t71 55t101 23q62 0 113 -25t88 -68t57 -100t20 -119q0 -78 -33 -145t-85 -117t-117 -78t-131 -28q-76 0 -139 37t-122 96t-117 136t-123 158 t-142 158t-173 139q-16 10 -28 22t-12 28q0 10 9 18t17 8q14 0 32 -2t36 -12q122 -70 241 -174t232 -202t218 -168t199 -70q58 0 100 32t42 108zM-120 320v-34q0 -22 -10 -48t-24 -28q10 -16 22 -44t12 -50q0 -42 -21 -89t-63 -79q36 0 75 -25t76 -68t68 -102t53 -125 q0 -10 -7 -19t-19 -9t-34 28q-32 40 -60 68t-62 46t-78 26t-110 8q-26 0 -65 -7t-87 -17q0 12 2 45t17 66t46 59t89 26q30 20 51 45t21 49q0 42 -37 64t-123 22h-62q-64 0 -112 -22t-48 -64q0 -32 8 -56t17 -42l17 -34t8 -32q0 -24 -10 -57t-24 -65t-31 -54t-31 -22 q-12 0 -16 6t-4 10t2 8t2 8q0 40 -12 76t-26 68t-26 58t-12 48q0 72 29 137t73 114t95 78t93 29h338z" />
<glyph unicode="&#xf76;" d="M-1044 1548q88 106 171 213t160 193t149 140t136 54q36 0 98 -17t122 -58t104 -111t44 -174q0 -40 -17 -71t-44 -53t-61 -33t-68 -11q-42 0 -84 11t-74 34t-52 60t-20 91q0 4 3 12t11 8q12 0 30 -9t38 -21t42 -21t44 -9q34 0 57 12t37 31t20 42t6 45q0 52 -40 75t-80 23 q-56 0 -123 -36t-137 -89t-139 -115t-127 -115t-103 -89t-67 -36q-10 0 -23 5t-13 19zM-120 480v-790l-124 74q-82 50 -146 90t-137 67t-169 42t-242 15q-22 0 -54 -2t-66 -5t-66 -8t-52 -11q0 52 21 96t57 76t84 50t102 18q102 0 208 -30t201 -80t170 -113t117 -129v640h96 z" />
<glyph unicode="&#xf77;" d="M-200 -312v-36q0 -24 -11 -47t-27 -27q10 -20 24 -45t14 -59q0 -50 -28 -115t-76 -103q90 0 169 -102t125 -298q0 -10 -5 -21t-19 -11q-6 0 -17 8t-21 24q-34 64 -63 105t-63 64t-82 31t-120 8q-28 0 -75 -6t-99 -18q0 16 3 52t19 72t51 64t99 28q18 12 33 31t26 39 t17 40t6 34q0 50 -41 73t-137 23h-78q-72 0 -118 -34t-46 -84q0 -38 13 -66t29 -50t29 -40t13 -38q0 -36 -16 -70t-39 -61t-50 -44t-47 -17q-10 0 -15 7t-5 17q0 12 10 23t10 27q0 26 -8 51t-18 50t-18 52t-8 59q0 86 26 161t68 131t92 87t98 31h376zM-120 480v-790l-124 74 q-82 50 -146 90t-137 67t-169 42t-242 15q-22 0 -54 -2t-66 -5t-66 -8t-52 -11q0 52 21 96t57 76t84 50t102 18q102 0 208 -30t201 -80t170 -113t117 -129v640h96zM-1044 1548q88 106 171 213t160 193t149 140t136 54q36 0 98 -17t122 -58t104 -111t44 -174q0 -40 -17 -71 t-44 -53t-61 -33t-68 -11q-42 0 -84 11t-74 34t-52 60t-20 91q0 4 3 12t11 8q12 0 30 -9t38 -21t42 -21t44 -9q34 0 57 12t37 31t20 42t6 45q0 52 -40 75t-80 23q-56 0 -123 -36t-137 -89t-139 -115t-127 -115t-103 -89t-67 -36q-10 0 -23 5t-13 19z" />
<glyph unicode="&#xf78;" d="M-554 480l-46 -96q34 -22 53 -80t19 -142q0 -62 -28 -129t-116 -131q66 -10 132 -40t126 -73t111 -95t87 -106l-48 460q-8 76 -17 123t-21 73t-26 35t-32 9l90 192h222l-22 -88t-23 -95t-19 -88t-8 -67v-670q0 -12 -14 -18t-32 -6q-10 0 -26 8t-24 16q-46 42 -96 85 t-114 77t-145 56t-187 22q-84 0 -135 -8t-67 -16q0 42 11 81t35 69t62 48t90 18q34 26 62 73t28 107q0 26 -5 61t-28 67t-71 54t-136 22q-126 0 -199 -48t-73 -122q0 -44 16 -76t36 -61t36 -62t16 -77q0 -30 -13 -66t-32 -66t-40 -50t-35 -20q-20 0 -20 6q0 4 2 8t2 8 q0 48 -13 85t-28 73t-27 75t-12 91q0 84 26 171t73 159t113 118t148 46h382zM-1044 1548q88 106 171 213t160 193t149 140t136 54q36 0 98 -17t122 -58t104 -111t44 -174q0 -40 -17 -71t-44 -53t-61 -33t-68 -11q-42 0 -84 11t-74 34t-52 60t-20 91q0 4 3 12t11 8 q12 0 30 -9t38 -21t42 -21t44 -9q34 0 57 12t37 31t20 42t6 45q0 52 -40 75t-80 23q-56 0 -123 -36t-137 -89t-139 -115t-127 -115t-103 -89t-67 -36q-10 0 -23 5t-13 19z" />
<glyph unicode="&#xf79;" d="M-170 -552q-12 4 -25 11t-21 13q-46 42 -96 85t-114 77t-145 56t-187 22q-84 0 -135 -8t-67 -16q0 42 11 81t35 69t62 48t90 18q34 26 62 73t28 107q0 26 -5 61t-28 67t-71 54t-136 22q-126 0 -199 -48t-73 -122q0 -44 16 -76t36 -61t36 -62t16 -77q0 -30 -13 -66 t-32 -66t-40 -50t-35 -20q-20 0 -20 6q0 4 2 8t2 8q0 48 -13 85t-28 73t-27 75t-12 91q0 84 26 171t73 159t113 118t148 46h382l-46 -96q34 -22 53 -80t19 -142q0 -62 -28 -129t-116 -131q66 -10 132 -40t126 -73t111 -95t87 -106l-48 460q-8 76 -17 123t-21 73t-26 35 t-32 9l90 192h222l-22 -88t-23 -95t-19 -88t-8 -67v-670q0 -10 -10 -16t-26 -8h36v-38q0 -22 -13 -46t-33 -28q14 -18 27 -45t13 -59q0 -24 -7 -54t-21 -60t-36 -57t-50 -45q54 0 106 -30t99 -85t86 -133t69 -176q0 -10 -6 -21t-22 -11q-10 0 -24 8t-24 24q-44 64 -79 108 t-77 72t-100 40t-148 12q-34 0 -93 -6t-123 -18q0 16 4 52t24 72t63 64t121 28q44 24 71 70t27 74q0 50 -51 73t-167 23h-96q-90 0 -152 -35t-62 -85q0 -38 15 -65t32 -49t32 -40t15 -38q0 -36 -17 -70t-42 -61t-54 -44t-55 -17t-26 24q0 12 13 22t13 26q0 26 -7 51t-15 50 t-15 51t-7 58q0 86 30 161t77 131t106 89t117 33h412zM-1044 1548q88 106 171 213t160 193t149 140t136 54q36 0 98 -17t122 -58t104 -111t44 -174q0 -40 -17 -71t-44 -53t-61 -33t-68 -11q-42 0 -84 11t-74 34t-52 60t-20 91q0 4 3 12t11 8q12 0 30 -9t38 -21t42 -21t44 -9 q34 0 57 12t37 31t20 42t6 45q0 52 -40 75t-80 23q-56 0 -123 -36t-137 -89t-139 -115t-127 -115t-103 -89t-67 -36q-10 0 -23 5t-13 19z" />
<glyph unicode="&#xf7a;" d="M-98 1586q0 -26 -22 -26t-68 30t-108 76t-136 99t-152 99q-122 70 -239 103t-207 33h-34t-40 -4q0 26 14 60t35 64t44 51t39 21q150 0 276 -60t232 -148t194 -189t162 -183q10 -10 10 -26z" />
<glyph unicode="&#xf7b;" d="M-162 1600q0 -20 -16 -20q-10 0 -26 6t-26 22q-40 64 -99 125t-132 115t-157 101t-172 83q-42 16 -86 26t-90 14q0 26 17 59t42 61t52 48t45 20q60 0 123 -32t126 -85t121 -120t109 -135t91 -132t66 -112q12 -24 12 -44zM-964 1920q70 0 140 -26t139 -69t135 -101 t130 -120q20 -20 20 -30q0 -14 -16 -14q-10 0 -36 10q-84 36 -148 65t-123 50t-122 32t-145 11q-22 0 -42 -1t-46 -3q0 26 11 60t27 64t37 51t39 21z" />
<glyph unicode="&#xf7c;" d="M-1164 1894h-34t-40 -4q0 26 14 60t34 64t42 51t38 21q50 0 127 -32t155 -88t145 -131t97 -161l6 16q18 78 40 150t67 127t124 87t211 32q54 0 90 2t68 12t69 32t91 62q26 0 26 -12q0 -40 -43 -90t-105 -94t-130 -73t-118 -29q-68 0 -129 -28t-108 -72t-74 -98t-27 -104 q0 -16 -19 -26t-29 -10q-20 0 -42 44q-34 66 -101 119t-145 92t-158 60t-142 21z" />
<glyph unicode="&#xf7d;" d="M-1040 1920q16 4 32 4h32q36 0 95 -11t120 -43t116 -87t83 -145l2 16q8 64 35 110t85 78t153 52t241 32q62 4 101 22t71 38q26 0 26 -12q0 -44 -34 -87t-87 -76t-119 -53t-132 -20q-150 0 -225 -33t-75 -119q0 -16 -10 -28t-20 -12q-26 0 -48 48q-22 46 -59 75t-84 46 t-100 23t-107 6q-62 0 -105 -6t-101 -16q0 26 12 59t30 63t37 51t35 25zM-1016 2220q36 0 93 -12t117 -47t115 -97t85 -162l6 28q18 82 46 133t83 83t147 48t238 28q62 4 103 24t73 40q26 0 26 -16q0 -44 -34 -86t-88 -75t-121 -54t-133 -21q-150 0 -227 -38t-77 -146 q0 -16 -10 -27t-20 -11q-26 0 -48 46q-24 56 -61 91t-82 55t-96 28t-105 8q-62 0 -106 -6t-102 -16q0 26 12 59t30 63t37 51t35 25t32 4h32z" />
<glyph unicode="&#xf7e;" d="M-272 1908q0 -58 -24 -108t-65 -88t-96 -60t-119 -22q-48 0 -90 21t-75 53t-52 72t-19 78t22 87t61 92t93 72t116 29q66 0 113 -25t77 -60t44 -74t14 -67zM-410 1830q0 28 -11 61t-34 62t-57 48t-82 19q-26 0 -49 -25t-23 -53q0 -50 16 -86t43 -60t63 -35t74 -11 q22 0 41 20t19 60z" />
<glyph unicode="&#xf7f;" horiz-adv-x="816" d="M540 1266q0 -58 -24 -108t-65 -88t-96 -60t-119 -22q-48 0 -90 21t-75 53t-52 72t-19 78t22 87t61 92t93 72t116 29q66 0 113 -25t77 -60t44 -74t14 -67zM540 636q0 -56 -24 -106t-65 -88t-96 -60t-119 -22q-48 0 -90 21t-75 54t-52 73t-19 78t22 86t61 91t93 72t116 29 q66 0 113 -25t77 -61t44 -75t14 -67zM402 1194q0 20 -14 50t-38 58t-58 48t-74 20q-26 0 -49 -25t-23 -53q0 -42 19 -76t48 -56t64 -34t65 -12q22 0 41 20t19 60zM402 566q0 20 -14 50t-38 59t-58 49t-74 20q-26 0 -49 -26t-23 -54q0 -42 19 -75t48 -56t64 -34t65 -11 q22 0 41 20t19 58z" />
<glyph unicode="&#xf80;" d="M-1064 1582q88 106 171 223t160 214t149 161t136 64q44 0 107 -19t121 -62t99 -115t41 -176q0 -40 -17 -74t-44 -60t-61 -40t-68 -14q-42 0 -84 14t-74 41t-52 67t-20 94q0 4 3 12t11 8q12 0 30 -9t38 -21t42 -21t44 -9q34 0 57 12t37 31t20 42t6 45q0 52 -40 75t-80 23 q-56 0 -123 -39t-138 -98t-139 -128t-127 -128t-103 -98t-66 -39q-10 0 -23 5t-13 19z" />
<glyph unicode="&#xf81;" d="M-1044 1548q88 106 171 213t160 193t149 140t136 54q36 0 98 -17t122 -58t104 -111t44 -174q0 -40 -17 -71t-44 -53t-61 -33t-68 -11q-42 0 -84 11t-74 34t-52 60t-20 91q0 4 3 12t11 8q12 0 30 -9t38 -21t42 -21t44 -9q34 0 57 12t37 31t20 42t6 45q0 52 -40 75t-80 23 q-56 0 -123 -36t-137 -89t-139 -115t-127 -115t-103 -89t-67 -36q-10 0 -23 5t-13 19zM-120 312v-36q0 -24 -11 -47t-27 -27q10 -20 24 -45t14 -59q0 -50 -28 -115t-76 -103q90 0 169 -102t125 -298q0 -10 -5 -21t-19 -11q-6 0 -17 8t-21 24q-34 64 -63 105t-65 64t-84 31 t-120 8q-28 0 -72 -6t-96 -18q0 16 3 52t19 72t50 64t98 28q18 12 33 31t26 39t17 40t6 34q0 50 -41 73t-137 23h-78q-72 0 -118 -34t-46 -84q0 -38 13 -66t29 -50t29 -40t13 -38q0 -36 -16 -70t-39 -61t-50 -44t-47 -17q-10 0 -15 7t-5 17q0 12 10 23t10 27q0 26 -8 51 t-18 50t-18 52t-8 59q0 86 26 161t68 131t92 87t98 31h376z" />
<glyph unicode="&#xf82;" d="M-370 2072q0 -50 -24 -92t-61 -73t-85 -48t-96 -17q-28 0 -65 12t-70 37t-56 63t-23 90q0 48 17 87t41 67t50 43t44 15q-4 4 -6 12q-2 6 -3 12t-1 16q0 22 14 36t31 28t31 32t14 48q0 6 -2 14t-4 18t-4 22q48 0 59 -22t13 -55t10 -70t50 -67q24 -16 47 -29t40 -34t28 -55 t11 -90zM-236 1860q0 -42 -30 -94t-82 -98t-121 -78t-145 -32q-66 0 -136 36t-127 88t-93 109t-36 97q0 6 3 13t13 7q18 0 49 -28t78 -61t109 -60t144 -27q80 0 140 22t103 48t71 48t46 22q10 0 12 -2t2 -10zM-470 2038q0 52 -48 92t-124 40q-94 0 -94 -68q0 -28 13 -54 t36 -45t54 -31t67 -12q40 0 68 20t28 58z" />
<glyph unicode="&#xf83;" d="M-218 1926q0 -12 -10 -35t-18 -37q-40 -56 -79 -102t-82 -79t-93 -52t-112 -19q-70 0 -127 22t-104 61t-86 91t-69 110q-12 24 -21 41t-9 29q0 8 4 15t14 7t31 -11t45 -33q32 -28 64 -55t69 -47t83 -32t108 -12q86 0 149 24t108 52t75 52t48 24q10 0 11 -3t1 -11z M-366 2124q0 -48 -21 -91t-58 -75t-87 -51t-106 -19q-42 0 -80 18t-67 45t-46 61t-17 66t20 74t55 78t82 61t103 25q60 0 102 -21t69 -51t39 -63t12 -57zM-490 2064q0 64 -47 106t-117 42q-22 0 -43 -22t-21 -44q0 -52 17 -81t43 -45t56 -20t58 -4q20 0 37 17t17 51z" />
<glyph unicode="&#xf84;" d="M-952 182q4 10 14 10q68 0 134 -27t125 -69t108 -93t85 -98t56 -84t20 -53t-16 -16q-4 0 -47 39t-114 85t-163 85t-196 39q-20 0 -49 -6t-35 -6q-16 0 -16 16q0 4 3 9t5 9z" />
<glyph unicode="&#xf85;" horiz-adv-x="1238" d="M620 942q32 16 70 25t76 9q88 0 148 -30t96 -79t52 -113t16 -130q0 -78 -38 -168t-94 -180t-122 -178t-122 -166t-94 -140t-38 -100q0 -60 21 -101t56 -68t81 -39t96 -12q34 0 68 6q4 -16 4 -26q0 -26 -10 -56t-26 -56t-35 -43t-39 -17q-70 2 -135 33t-116 77t-82 103 t-31 109t33 124t83 152t109 166t109 170t83 160t33 136t-23 118t-64 104t-96 75t-119 29q-26 0 -52 -16t-47 -37t-34 -44t-13 -35q0 -18 13 -45t37 -53t56 -44t68 -18q26 0 54 8t40 8q6 0 7 -7t1 -9q0 -14 -8 -30l-48 -88q-16 -32 -42 -52t-78 -20q-36 0 -78 13t-76 45 t-57 85t-23 133q0 44 19 84t49 75t65 66t67 55q40 46 72 111t32 133q0 56 -43 100t-143 44q-40 0 -72 -16t-55 -43t-36 -61t-13 -72q0 -24 7 -45t16 -43t16 -45t7 -49q0 -30 -12 -62t-29 -57t-35 -41t-30 -16q-14 0 -18 10t-4 18q0 28 -12 55t-25 55t-25 56t-12 60 q0 38 18 91t48 108t71 109t87 96t95 68t97 26q92 0 153 -16t99 -44t54 -66t16 -82q0 -50 -10 -88t-26 -69t-39 -58t-49 -57z" />
<glyph unicode="&#xf86;" d="M-696 1812q20 -10 38 -21t37 -20t42 -15t57 -6t50 10t16 26q0 28 -25 44t-62 29t-81 23t-81 25t-62 38t-25 59q0 22 24 56t61 65t83 53t88 22q58 0 97 -15t85 -33l-106 -98q-28 14 -43 24t-28 16t-30 8t-49 2q-62 0 -62 -46q0 -30 23 -46t58 -25t75 -15t75 -19t58 -34 t23 -61q0 -22 -17 -58t-48 -71t-74 -61t-93 -26q-70 0 -116 22t-92 52z" />
<glyph unicode="&#xf87;" d="M-528 2118v-380l-126 -48v380z" />
<glyph unicode="&#xf88;" horiz-adv-x="1240" d="M96 864l368 210l-368 222v192h1032v-192l-368 -212l368 -220v-192h-1032v192zM306 1296l304 -168l330 168h-634zM918 864l-304 168l-330 -168h634z" />
<glyph unicode="&#xf89;" horiz-adv-x="1240" d="M240 938q0 -8 -20 -22t-47 -29t-52 -26t-33 -11q-6 0 -12 7t-6 19v258q0 30 28 89t78 118t115 102t141 43q40 0 68 -19t49 -47t37 -61t32 -61q20 26 49 59t64 62t74 48t79 19q72 0 120 -28t77 -71t41 -95t12 -100v-254q-46 -34 -88 -61t-62 -27q-12 0 -12 14v246 q0 22 -3 54t-21 61t-54 50t-102 21q-28 0 -48 -17t-33 -44t-20 -59t-7 -62v-184q0 -12 -21 -27t-49 -29t-56 -23t-40 -9v264q0 42 -5 77t-22 60t-51 40t-92 15q-14 0 -32 -8t-35 -23t-29 -34t-12 -43v-252z" />
<glyph unicode="&#xf8a;" horiz-adv-x="1512" d="M456 1294h-192v-1440h-192v1536l96 96h384l96 -96v-1440h240v1440l96 96h384l96 -96v-1536h-192v1440h-192v-1440l-96 -96h-432l-96 96v1440z" />
<glyph unicode="&#xf8b;" horiz-adv-x="1152" d="M1102 1336q-54 0 -97 -23t-75 -62t-56 -88t-40 -99q-38 -120 -52 -272q-52 12 -119 22t-125 10q-18 0 -50 -4t-68 -9t-69 -10t-53 -9q14 56 47 83t68 58t61 81t26 152q0 34 -8 59t-18 43t-21 30t-19 24h-182q-84 0 -122 -65t-38 -209q0 -76 7 -136t15 -102t15 -67t7 -33 q0 -12 -3 -14t-13 -2q-12 0 -28 46t-31 110t-25 132t-10 114q0 36 10 105t35 138t68 120t109 51h340q-12 -52 -21 -83t-15 -47q-8 -20 -10 -28q12 -12 20 -34q8 -20 14 -51t6 -79q0 -52 -7 -91t-17 -65q-10 -30 -24 -52l188 -22q-6 26 -10 48q-10 44 -10 66q0 150 47 237 t112 132t132 57t109 12v-174z" />
<glyph unicode="&#xf8c;" horiz-adv-x="1280" d="M974 1410q0 8 20 22t47 29t51 26t34 11q6 0 12 -7t6 -19v-258q0 -30 -28 -89t-78 -118t-116 -102t-140 -43q-40 0 -68 19t-49 47t-37 61t-32 61q-20 -28 -49 -60t-64 -61t-74 -48t-79 -19q-72 0 -120 28t-77 71t-41 95t-12 100v254q46 34 88 61t62 27q12 0 12 -14v-246 q0 -22 3 -54t21 -61t54 -50t102 -21q26 0 47 17t34 44t20 59t7 62v184q0 12 21 27t49 29t56 23t40 9v-264q0 -42 5 -77t22 -60t51 -40t92 -15q14 0 32 8t35 23t29 34t12 43v252z" />
<glyph unicode="&#xf8d;" d="M-1192 -118l368 210l-368 222v192h1032v-192l-368 -212l368 -220v-192h-1032v192zM-982 314l304 -168l330 168h-634zM-370 -118l-304 168l-330 -168h634z" />
<glyph unicode="&#xf8e;" d="M-1056 -42q0 -8 -20 -22t-47 -29t-52 -26t-33 -11q-6 0 -12 7t-6 19v258q0 30 28 89t78 118t115 102t141 43q40 0 68 -19t49 -47t37 -61t32 -61q20 26 49 59t64 62t74 48t79 19q72 0 120 -28t77 -71t41 -95t12 -100v-254q-46 -34 -88 -61t-62 -27q-12 0 -12 14v246 q0 22 -3 54t-21 61t-54 50t-102 21q-28 0 -48 -17t-33 -44t-20 -59t-7 -62v-184q0 -12 -21 -27t-49 -29t-56 -23t-40 -9v264q0 42 -5 77t-22 60t-51 40t-92 15q-14 0 -32 -8t-35 -23t-29 -34t-12 -43v-252z" />
<glyph unicode="&#xf8f;" d="M-330 418q0 8 20 22t47 29t51 26t34 11q6 0 12 -7t6 -19v-258q0 -30 -28 -89t-78 -118t-116 -102t-140 -43q-40 0 -68 19t-49 47t-37 61t-32 61q-20 -28 -49 -60t-64 -61t-74 -48t-79 -19q-72 0 -120 28t-77 71t-41 95t-12 100v254q46 34 88 61t62 27q12 0 12 -14v-246 q0 -22 3 -54t21 -61t54 -50t102 -21q26 0 47 17t34 44t20 59t7 62v184q0 12 21 27t49 29t56 23t40 9v-264q0 -42 5 -77t22 -60t51 -40t92 -15q14 0 32 8t35 23t29 34t12 43v252z" />
<glyph unicode="&#xf90;" d="M-90 520l-22 -88t-23 -95t-19 -88t-8 -67v-866q0 -12 -11 -24t-29 -12t-29 12t-13 24l-58 726q-4 42 -10 92t-17 93t-27 72t-40 29h-182q-8 -58 -15 -128t-7 -160q0 -36 -1 -108t-8 -144t-22 -126t-43 -54q-8 0 -17 56t-17 140t-16 180t-14 176q-2 30 -8 60t-16 54 t-23 39t-29 15h-124q0 -78 -25 -158t-70 -145t-107 -105t-136 -40q-22 0 -22 18q0 10 18 26t24 20q32 24 63 72t56 104t40 112t15 96h-88q-36 0 -46 6t-10 30q0 8 9 30t21 46t24 47t18 33h1064z" />
<glyph unicode="&#xf91;" d="M-90 520q-10 -38 -22 -84t-22 -91t-17 -85t-9 -68v-510q0 -6 -4 -20t-26 -14q-16 0 -28 12l-22 22q-48 44 -107 75t-121 51t-123 30t-115 10q-14 0 -35 -2t-44 -5t-43 -7t-32 -6q0 28 8 61t23 63t37 54t52 34q0 90 18 161t78 127h-296q-26 0 -53 -48t-37 -110l-92 -610 q-2 -10 -15 -27t-29 -17q-14 0 -24 16t-10 28v610q0 74 22 138t58 111t84 74t100 27h846zM-474 328q-74 -42 -122 -111t-48 -177q42 0 95 -27t107 -68t106 -88t94 -87l-14 204q-4 62 -14 125t-26 114t-36 83t-46 32h-96z" />
<glyph unicode="&#xf92;" d="M-90 520l-22 -88t-23 -95t-18 -88t-7 -67v-862q0 -12 -8 -26t-26 -14t-31 14t-15 26l-54 720q-4 44 -9 94t-15 93t-28 72t-44 29h-186q-4 0 -4 -30v-66v-574q0 -6 -4 -16t-26 -10q-16 0 -29 8t-23 18q-48 44 -107 79t-120 60t-122 38t-115 13q-14 0 -35 -2t-43 -6t-43 -9 t-33 -9q0 28 8 60t23 60t37 51t52 33q0 90 18 168t78 134h-62q-36 0 -46 6t-10 30q0 8 9 30t21 46t24 47t18 33h1020zM-892 328q-32 -24 -63 -61t-55 -77t-39 -80t-15 -72q8 2 22 2q46 0 96 -32t99 -77t95 -96t88 -87l-12 124q-6 68 -17 148t-26 149t-34 114t-45 45h-94z " />
<glyph unicode="&#xf93;" d="M-90 520l-22 -88t-23 -95t-18 -88t-7 -67v-502l-64 -144q-22 -48 -128 -48h-346q-54 0 -96 -21t-70 -50t-45 -61t-19 -54q24 -2 52 -13t53 -27t47 -33t34 -31q32 42 62 76t65 57t79 36t104 13q66 0 116 -23t85 -63t53 -95t18 -119q0 -38 -32 -82t-80 -85t-103 -74 t-99 -51q-72 -28 -94 -28q-24 0 -24 18q0 28 41 63t91 75t91 87t41 99q0 48 -40 85t-122 37q-52 0 -104 -21t-94 -55q50 -48 63 -78t13 -64q0 -22 -20 -22q-14 0 -33 9t-37 25q-108 110 -298 110q-16 0 -27 -1t-25 -4t-34 -6t-56 -9q0 2 5 30t18 61t37 63t60 40q0 30 14 82 t70 104h-54q-36 0 -46 6t-10 30q0 8 9 30t21 46t24 47t18 33h722l-40 360q-4 44 -10 94t-17 93t-29 72t-44 29h-144q-10 -40 -16 -76t-6 -60v-432q0 -6 -4 -18t-26 -12q-16 0 -28 10t-22 20q-48 50 -103 78t-112 41t-115 15t-112 2q-14 0 -35 -2t-44 -5t-43 -7t-32 -6 q0 28 8 61t23 63t37 54t52 34q0 54 21 121t75 119h-62q-36 0 -46 6t-10 30q0 8 9 30t21 46t24 47t18 33h976zM-872 328q-36 -16 -64 -47t-47 -67t-28 -71t-9 -55q36 0 83 -19t99 -51t103 -74t93 -88l-14 156q-6 62 -14 119t-22 101t-35 70t-51 26h-94z" />
<glyph unicode="&#xf94;" d="M-160 520l-66 -144q-22 -48 -128 -48h-430q-46 0 -85 -30t-68 -76t-46 -102t-17 -110q62 30 172 30q132 0 242 -31t197 -79t153 -106t109 -109t65 -89t22 -48q0 -8 -11 -14t-25 -6q-26 0 -48 22q-144 130 -323 199t-373 69q-74 0 -168 -7t-182 -41q0 30 8 60t20 54t24 42 t22 26q0 42 5 90t16 96t30 90t47 70h-66q-36 0 -46 6t-10 30q0 8 9 30t21 46t24 47t18 33h888z" />
<glyph unicode="&#xf95;" d="M-160 520l-70 -144q-22 -48 -96 -48h-174q28 -40 28 -82q0 -20 -3 -42t-7 -42q36 -10 95 -30t115 -51t96 -76t40 -101q0 -78 -31 -147t-84 -122t-123 -83t-146 -30q-96 0 -165 44t-120 107t-88 134t-69 125q-14 22 -24 38t-20 30q-6 8 -15 22t-19 27t-17 24l-7 11 q0 6 4 11t20 5q24 0 49 -16t45 -32q24 -18 49 -38t51 -20q30 0 78 15t92 43t76 67t32 87q0 52 -29 81t-57 41h-242q-36 0 -46 6t-10 30q0 8 9 30t21 46t24 47t18 33h720zM-568 16q-28 -22 -56 -39t-58 -30t-66 -20t-80 -7q34 -38 62 -80t65 -78t89 -59t134 -23q40 0 76 5 t64 17t45 31t17 47q0 84 -74 147t-218 89z" />
<glyph unicode="&#xf96;" d="M-160 520l-66 -144q-22 -48 -128 -48h-254q10 -26 17 -59t7 -57v-104q22 12 56 20t86 8q180 0 259 -75t79 -235q0 -72 -22 -133t-61 -106t-92 -70t-115 -25q-60 0 -102 20t-69 47t-43 57t-24 52q-4 -18 -19 -45t-42 -51t-64 -42t-83 -18q-62 0 -116 14t-94 49t-63 92 t-23 141q0 156 87 242t233 86q48 0 81 -8t55 -18q0 44 -8 84t-25 70t-45 47t-66 17h-142q-42 0 -51 6t-9 28q0 12 9 36t21 48t24 45t18 29h794zM-584 -210q0 -74 59 -108t143 -34q40 0 74 6t58 22t37 47t13 83q0 82 -62 122t-194 40q-40 0 -76 -11t-52 -25v-142zM-680 -70 q-14 18 -59 28t-81 10q-118 0 -169 -31t-51 -99q0 -84 59 -126t157 -42q82 0 113 23t31 97v140z" />
<glyph unicode="&#xf97;" d="M-160 520l-66 -144q-22 -48 -104 -48h-412q-36 0 -70 -30t-62 -69t-45 -78t-17 -57q48 18 83 30t63 20t52 11t52 3q30 0 62 -7t65 -16t66 -16t61 -7q62 0 80 34q6 10 16 10q18 0 18 -20q0 -14 -12 -43t-34 -59t-51 -52t-63 -22q-40 0 -83 7t-87 16t-89 17t-87 8 q-36 0 -60 -3t-58 -21q-4 -2 -5 -19t-3 -41t-2 -52v-52q56 6 93 10t85 4q80 0 159 -22t151 -57t135 -79t109 -86t72 -78t26 -56q0 -12 -4 -24t-18 -12q-20 0 -40 16t-53 40t-80 53t-120 53t-176 40t-243 16q-34 0 -72 -3t-75 -9t-70 -13t-55 -15q0 94 29 144t51 60 q0 116 5 198t18 142t36 103t59 83l-60 -2q-36 0 -46 6t-10 30q0 12 8 31t19 41t23 45t22 41h814z" />
<glyph unicode="&#xf98;" d="M-160 520l-66 -144q-22 -48 -104 -48h-364q-26 0 -56 -13t-57 -37t-49 -57t-30 -71q34 18 80 42t112 24q42 0 69 -3t49 -6t43 -6t55 -3q28 0 62 3t48 23v-28q0 -16 -11 -37t-31 -42t-47 -35t-59 -14q-42 0 -73 7t-61 15t-62 15t-76 7q-36 0 -59 -11t-45 -27v-84 q52 10 82 12t64 2q96 0 199 -38t189 -89t142 -106t56 -91l-64 -144q-22 -48 -128 -48h-346q-54 0 -96 -21t-70 -50t-45 -61t-19 -54q24 -2 52 -13t53 -27t47 -33t34 -31q32 42 62 76t65 57t79 36t104 13q66 0 116 -23t85 -63t53 -95t18 -119q0 -38 -32 -82t-80 -85t-103 -74 t-99 -51q-72 -28 -94 -28q-24 0 -24 18q0 28 41 63t91 75t91 87t41 99q0 48 -40 85t-122 37q-52 0 -104 -21t-94 -55q50 -48 63 -78t13 -64q0 -22 -20 -22q-14 0 -33 9t-37 25q-108 110 -298 110q-16 0 -27 -1t-25 -4t-34 -6t-56 -9q0 2 5 30t18 61t37 63t60 40q0 30 14 82 t70 104h-54q-36 0 -46 6t-10 30q0 8 9 30t21 46t24 47t18 33h734q-22 28 -53 54t-91 46t-162 32t-264 12q-60 0 -122 -9t-124 -15q0 6 3 27t10 47t21 50t36 36q0 66 4 117t16 94t34 80t58 77l-56 -2q-36 0 -46 6t-10 30q0 12 8 31t19 41t23 45t22 41h756z" />
<glyph unicode="&#xf99;" d="M-1168 118q0 44 33 113t87 133t121 110t135 46q50 0 99 -4t88 -19t63 -43t24 -74q0 -34 -22 -88l-6 -14q28 22 73 35t75 13q70 0 131 -22t107 -69t73 -118t27 -169q0 -86 -32 -169t-81 -158t-106 -137t-109 -108t-89 -72t-45 -26t-18 4t-10 10q0 8 12 26t28 39t32 41 t26 32q54 70 96 127t71 107t44 97t15 99q0 38 -3 86t-22 90t-59 71t-114 29q-80 0 -130 -11t-79 -32t-40 -52t-11 -73q0 -32 14 -60t38 -48t55 -31t65 -11q24 0 51 9t49 9q8 0 8 -12q0 -16 -13 -41t-31 -51t-39 -46t-39 -26q-36 -10 -66 -10q-38 0 -73 14t-62 44t-43 75 t-16 107t12 110t33 88t52 75t71 71l7 14t3 12q0 32 -55 51t-125 19q-42 0 -84 -7t-75 -23t-53 -40t-20 -58q0 -26 15 -56t33 -62t33 -63t15 -61q0 -26 -11 -54t-27 -52t-33 -39t-29 -15t-15 15t-3 21q0 32 -20 70t-43 76t-43 74t-20 62z" />
<glyph unicode="&#xf9a;" d="M-240 520q34 0 62 -53t28 -139l-134 -614q-6 -28 -11 -38t-21 -10t-23 24t-10 60t-4 75t-3 69q-30 34 -59 58t-62 38t-74 20t-97 6q-40 0 -78 -19t-68 -49t-49 -69t-19 -79q0 -72 39 -152t86 -151t86 -123t39 -66q0 -8 -6 -18t-16 -10q-20 0 -49 17t-41 31 q-100 120 -160 198t-92 138t-43 112t-11 120q0 56 22 108t61 92t94 64t123 24q120 0 216 -51t172 -129l28 236q0 24 -18 56t-52 32h-554q-36 0 -46 6t-10 30q0 8 9 30t21 46t24 47t18 33h682z" />
<glyph unicode="&#xf9b;" d="M-986 -394q32 42 98 86t144 78t158 56t140 22q22 0 48 -1t46 -9q0 34 -11 62t-28 49t-36 32t-35 11h-90h-94t-109 3t-105 9t-82 16zM-862 328q-8 0 -18 -15t-19 -36t-16 -47t-7 -46q0 -24 34 -37t87 -21t118 -10t129 -2h126q38 0 55 28t17 66q0 46 -34 83t-92 37h-380z M-160 520l-50 -144q-10 -22 -33 -35t-43 -13h-22q22 -30 35 -63t13 -81q0 -50 -13 -96t-41 -66q14 -18 25 -46t18 -58t11 -58t4 -48q46 -16 69 -57t27 -129q-76 20 -148 25t-112 5q-68 0 -154 -14t-169 -35t-152 -48t-101 -51q-14 -10 -30 -19t-30 -9q-16 0 -20 6t-4 18v824 h-14q-42 0 -50 6t-8 30q0 8 9 30t21 46t24 47t18 33h920z" />
<glyph unicode="&#xf9c;" d="M-160 520l-66 -144q-22 -48 -112 -48h-16q50 -58 85 -137t35 -173q24 -8 42 -30t30 -51t17 -61t5 -58q-76 36 -181 53t-201 17q-118 0 -210 -16t-157 -74t-99 -170t-34 -304q0 -22 -11 -33t-25 -11q-12 0 -27 11t-15 33q0 242 27 391t93 230t178 108t280 27q40 0 86 -5 t98 -31q0 42 -31 92t-76 93t-96 71t-89 28h-326q-36 0 -46 6t-10 30q0 8 9 30t21 46t23 47t17 33h782z" />
<glyph unicode="&#xf9d;" d="M-226 -424q-22 -48 -128 -48h-334q-54 0 -96 -21t-70 -50t-45 -61t-19 -54q48 -4 92 -36t68 -60q32 42 62 75t66 56t80 35t104 12q132 0 210 -78t78 -206q0 -60 -35 -117t-85 -103t-108 -80t-102 -52q-66 -26 -94 -26q-24 0 -24 16q0 28 41 66t89 82t89 94t41 102 q0 24 -10 49t-29 46t-49 34t-70 13q-52 0 -106 -19t-92 -55q46 -52 61 -87t15 -55q0 -22 -20 -22q-14 0 -33 9t-37 25q-72 58 -140 83t-136 25q-16 0 -27 -1t-25 -4t-34 -6t-56 -9q0 2 5 30t18 61t37 63t60 40q0 30 15 82t71 104h-56q-36 0 -46 6t-10 30q0 8 9 30t21 46 t24 47t18 33h808zM-160 520l-66 -144q-22 -48 -128 -48h-16q52 -52 74 -117t22 -117q12 -12 25 -30t24 -41t19 -50t8 -55q-50 20 -110 23t-124 3q-142 0 -243 -8t-176 -35t-130 -79t-103 -142q-12 -24 -26 -48t-26 -24q-10 0 -14 9t-7 21t-3 24v18q0 114 49 199t141 142 t220 86t288 29q24 0 47 -5t45 -11q0 22 -12 56t-36 67t-59 57t-79 28h-452q-36 0 -46 6t-10 30q0 8 9 30t21 46t24 47t18 33h832z" />
<glyph unicode="&#xf9e;" d="M-160 520l-70 -144q-14 -28 -46 -38t-72 -10h-124q-12 0 -18 -10t-6 -24v-76q10 4 19 4h19q74 0 134 -30t102 -76t64 -100t22 -104q0 -68 -28 -119t-71 -85t-94 -51t-95 -17q-60 0 -115 19t-96 52t-65 75t-24 88v16q-34 -32 -64 -69t-52 -98t-35 -154t-13 -235 q0 -16 -13 -36t-33 -20q-16 0 -27 20t-11 36q0 186 15 332t57 254t116 178t192 104v22q0 52 -40 78t-102 26h-132q-42 0 -51 6t-9 28q0 12 9 36t21 48t24 45t18 29h694zM-640 -58q0 -42 17 -79t47 -65t72 -45t92 -17q26 0 54 14t50 35t37 48t15 55q0 44 -19 72t-49 44 t-67 22t-73 6q-50 0 -100 -19t-76 -53v-18z" />
<glyph unicode="&#xf9f;" d="M-1066 298q0 12 15 48t35 75t39 69t29 30h788l-66 -144q-22 -48 -128 -48h-492q-40 0 -52 -11t-12 -33q0 -10 2 -23t4 -29l30 -226q76 78 186 128t230 50q72 0 125 -29t87 -75t51 -101t17 -107q0 -58 -15 -107t-54 -108t-104 -136t-163 -193q-12 -14 -41 -31t-49 -17 q-10 0 -17 10t-7 18t18 34t44 63t58 83t58 96t44 99t18 93q0 46 -11 90t-35 77t-60 53t-86 20q-58 0 -98 -6t-70 -21t-56 -38t-56 -55q6 -34 14 -78t8 -78q0 -58 -32 -58q-14 0 -20 9t-14 33z" />
<glyph unicode="&#xfa0;" d="M-162 520q-10 -40 -20 -88t-19 -94t-14 -88t-5 -70v-660q0 -12 -10 -26t-20 -14q-16 0 -36 11t-30 21q-36 38 -99 60t-141 32t-163 13t-161 3q-20 0 -51 -1t-69 -5t-78 -10t-78 -16q0 42 13 80t33 68t44 52t46 30q0 46 44 90t104 84q-30 8 -67 27t-70 46t-55 62t-22 75 q0 48 17 79t31 45q-36 0 -46 6t-10 30q0 14 7 30t17 32l48 96h860zM-806 328q-78 0 -95 -25t-17 -75q0 -18 9 -41t39 -43t85 -33t147 -13q142 0 203 35t61 93q0 68 -11 85t-27 17h-394zM-364 32q-28 -12 -74 -23t-92 -19t-85 -13t-53 -5q-30 0 -71 -19t-78 -45t-63 -53 t-28 -41q20 4 41 5t41 1q72 0 152 -16t152 -43t128 -61t82 -68z" />
<glyph unicode="&#xfa1;" d="M-160 520l-66 -144q-22 -48 -128 -48h-428q-50 0 -85 -25t-56 -58t-31 -69t-10 -56q22 6 50 11t52 5q200 0 335 -51t217 -137t116 -199t34 -237v-182q0 -50 -38 -50q-18 0 -29 14t-13 36l-16 182q0 204 -166 318t-470 114q-64 0 -126 -10t-114 -38q0 28 6 58t17 57t24 49 t25 32q0 58 15 121t67 115h-50q-36 0 -46 6t-10 30q0 8 9 30t21 46t24 47t18 33h852z" />
<glyph unicode="&#xfa2;" d="M-320 -240l-66 -144q-22 -48 -128 -48h-184q-54 0 -96 -21t-70 -50t-45 -60t-19 -53q32 -2 69 -21t67 -41q38 80 112 117t158 37q54 0 107 -17t96 -49t70 -75t27 -95q0 -72 -35 -139t-88 -125t-116 -104t-119 -76q-62 -34 -94 -34q-24 0 -24 16q0 20 48 66t106 103 t106 121t48 122q0 30 -17 55t-44 42t-62 26t-71 9q-40 0 -80 -10t-72 -38q20 -18 43 -45t41 -55t31 -54t13 -42q0 -32 -8 -32q-46 32 -87 61t-85 51t-96 36t-118 14q-34 0 -74 -6t-68 -14q0 10 5 38t18 60t37 59t60 37q0 30 15 82t71 104h-54q-36 0 -46 6t-10 30q0 8 9 30 t21 46t24 47t18 33h656zM-160 520l-66 -144q-22 -48 -128 -48h-376q-46 0 -83 -24t-62 -58t-38 -70t-13 -58q22 6 45 11t47 5q178 0 309 -44t216 -124t127 -189t42 -237q0 -20 -15 -40t-31 -20t-31 20t-15 40q-4 112 -51 189t-130 124t-198 68t-253 21q-64 0 -124 -3 t-110 -23q0 28 8 55t19 50t24 41t25 30q0 52 22 118t74 118h-66q-36 0 -46 6t-10 30q0 8 9 30t21 46t24 47t18 33h816z" />
<glyph unicode="&#xfa3;" d="M-160 520l-60 -144q-12 -28 -45 -38t-73 -10h-112q8 -22 10 -47t2 -49v-92q76 -38 129 -106t86 -153t48 -181t15 -190v-178q0 -28 -11 -40t-27 -12q-38 0 -44 50l-12 122q-2 50 -18 118t-42 137t-58 128t-66 91q0 -48 -28 -98t-74 -92t-106 -69t-122 -27q-44 0 -100 18 t-105 54t-82 88t-33 120q0 50 30 101t82 93t119 68t143 26q22 0 50 -2t54 -6t46 -8t30 -8q0 68 -39 106t-103 38h-278q-42 0 -51 6t-9 28q0 12 9 36t21 48t24 45t18 29h782zM-534 -8q-30 28 -76 38t-96 10q-36 0 -81 -6t-85 -22t-67 -44t-27 -72q0 -28 23 -48t55 -34t68 -21 t62 -7q38 0 77 10t72 33t54 63t21 100z" />
<glyph unicode="&#xfa4;" d="M-622 520l-66 -144q-18 -22 -46 -35t-82 -13q-32 0 -68 -33t-67 -83t-52 -109t-21 -111q18 2 37 3t39 1q96 0 196 -21t193 -66t173 -113t134 -162l-36 454q-10 136 -33 188t-51 52h-16l78 192h222l-22 -88t-23 -95t-19 -88t-8 -67v-670q0 -12 -12 -22t-26 -10 q-16 0 -29 12t-19 20q-90 90 -182 146t-189 88t-198 43t-209 11q-42 0 -98 -4t-96 -16q0 52 23 110t75 86q0 60 11 119t27 107t32 82t26 44h-40q-36 0 -46 6t-10 30q0 8 9 30t21 46t24 47t18 33h426z" />
<glyph unicode="&#xfa5;" d="M-622 520l-66 -144q-18 -22 -46 -35t-82 -13q-32 0 -68 -33t-67 -83t-52 -109t-21 -111q18 2 37 3t39 1q64 0 123 -4t123 -26q22 36 61 84t88 91t107 75t118 36q-16 46 -33 61t-39 15l90 192h222l-22 -88t-23 -95t-19 -88t-8 -67v-670q0 -12 -13 -18t-27 -6q-16 0 -30 8 t-20 16q-90 90 -182 146t-187 88t-196 43t-209 11q-42 0 -98 -6t-96 -18q0 52 23 115t75 91q0 60 11 118t27 105t32 80t26 43h-40q-36 0 -46 6t-10 30q0 8 9 30t21 46t24 47t18 33h426zM-306 136q-34 -6 -79 -29t-89 -53t-82 -63t-58 -57q108 -48 202 -120t156 -180z" />
<glyph unicode="&#xfa6;" d="M-88 520l-22 -88t-23 -95t-19 -88t-8 -67v-670q0 -12 -13 -22t-27 -10q-16 0 -30 12t-20 20q-90 90 -182 147t-187 89t-196 44t-209 12q-42 0 -97 -6t-95 -18q0 52 22 112t74 88q0 60 11 118t27 106t32 81t26 43h-40q-36 0 -46 6t-10 30q0 14 7 30t17 32l48 94h960z M-816 328q-32 0 -68 -35t-67 -86t-52 -109t-21 -102q18 2 37 3t39 1q96 0 196 -22t193 -67t172 -114t133 -163l-48 454q-10 104 -32 172t-42 68h-440z" />
<glyph unicode="&#xfa7;" d="M-98 520q-20 -80 -41 -163t-21 -135v-502q0 -88 -42 -140t-126 -52h-354q-54 0 -98 -22t-76 -53t-51 -62t-21 -49q24 -2 52 -13t53 -26t47 -32t34 -31q32 42 62 75t65 57t79 36t104 12q132 0 202 -76t70 -204q0 -44 -28 -88t-70 -85t-93 -77t-96 -63t-79 -43t-42 -16 q-24 0 -24 16q0 28 41 68t89 87t89 99t41 104q0 48 -38 85t-120 37q-52 0 -104 -20t-94 -54q50 -58 62 -91t12 -49q0 -10 -6 -18t-12 -8q-8 0 -28 9t-36 25q-58 54 -133 82t-173 28q-16 0 -27 -1t-25 -4t-34 -6t-56 -9q0 2 5 30t18 61t37 63t60 40q0 44 15 89t71 97h-54 q-36 0 -46 6t-10 30q0 8 9 30t21 46t24 47t18 33h696q-52 44 -127 72t-163 44t-185 22t-195 6q-42 0 -98 -4t-96 -16q0 52 24 110t76 86q0 60 11 109t26 85t31 60t26 34h-40q-36 0 -46 6t-10 30q0 12 8 31t19 41t23 44t22 40h876zM-742 328q-32 0 -68 -26t-67 -67t-51 -89 t-20 -90q18 2 36 3t38 1q96 0 186 -11t169 -39t146 -77t117 -125l-34 372q-6 66 -25 107t-43 41h-384z" />
<glyph unicode="&#xfa8;" d="M-542 520l-70 -144q-12 -26 -38 -37t-60 -11v-206q50 -28 114 -90t129 -135t124 -146t97 -121q-14 132 -21 233t-17 177q-18 160 -43 224t-55 64h-12l90 192h216l-22 -88t-23 -95t-19 -88t-8 -67v-670q0 -10 -9 -24t-21 -14q-16 0 -33 13t-29 25q-106 112 -221 196 t-239 178q0 -38 -13 -88t-43 -94t-78 -74t-116 -30q-66 0 -118 23t-87 62t-54 92t-19 113t25 115t67 96t96 66t112 25q46 0 84 -12t48 -16q0 74 -43 119t-91 45h-142q-42 0 -51 6t-9 28q0 12 9 36t21 48t24 45t18 29h530zM-808 -58q-22 20 -58 39t-92 19q-28 0 -60 -8 t-59 -25t-45 -40t-18 -53t16 -55t41 -43t57 -27t64 -9q48 0 79 11t47 35t22 63t6 93z" />
<glyph unicode="&#xfa9;" d="M-160 520q-10 -30 -16 -55t-10 -41l-44 -142q30 0 70 -8t78 -26t64 -48t26 -76q0 -12 -3 -23t-19 -11q-12 0 -29 10t-33 10h-146q-36 0 -58 22l-78 88q-4 4 -11 14t-7 16q0 2 7 7t17 11q10 8 24 14l16 46h-262q2 -22 6 -48t4 -50q0 -40 -18 -70q44 0 104 -24t115 -64 t93 -93t38 -111q0 -36 -28 -100t-77 -126t-115 -108t-144 -46q-82 0 -145 27t-111 71t-86 100t-72 114t-68 115t-72 101l-28 32q0 10 11 13t25 3q28 0 53 -15t47 -33q20 -16 44 -22t48 -6t61 9t74 27t71 43t56 57q16 26 16 56q0 70 -33 102t-69 46h-144q-42 0 -50 6t-8 28 q0 14 8 33t20 41t25 44t23 40h740zM-660 16q-52 -50 -119 -85t-157 -35q34 -42 63 -82t67 -72t92 -51t138 -19q114 0 157 42t43 110q0 26 -19 60t-56 63t-90 49t-119 20z" />
<glyph unicode="&#xfaa;" d="M-160 520q0 -10 -6 -31l-14 -49l-54 -158q30 0 74 -8t85 -26t70 -48t29 -76q0 -12 -3 -23t-19 -11q-12 0 -29 10t-33 10h-146q-36 0 -58 22l-74 88q-4 4 -11 14t-7 16q0 4 22 18q8 8 22 14l16 46h-312q0 -36 -3 -96t-13 -124q22 12 56 18t86 6q180 0 259 -78t79 -228 q0 -72 -22 -134t-61 -107t-92 -70t-115 -25q-60 0 -102 20t-69 48t-43 58t-24 52q-4 -18 -19 -45t-42 -51t-64 -42t-83 -18q-62 0 -116 14t-94 49t-63 92t-23 141q0 156 87 242t233 86q46 0 79 -8t55 -18q-4 32 -11 70t-22 71t-41 55t-68 22h-144q-42 0 -51 6t-9 28 q0 12 9 36t21 48t24 45t18 29h836zM-622 -210q0 -60 58 -99t142 -39q82 0 132 31t50 123q0 82 -62 122t-194 40q-40 0 -75 -11t-51 -25v-142zM-720 -70q-14 18 -59 28t-81 10q-118 0 -169 -31t-51 -99q0 -84 59 -126t157 -42q82 0 113 23t31 97v140z" />
<glyph unicode="&#xfab;" d="M-160 520q-2 -26 -12 -53t-14 -43l-44 -144q30 0 70 -8t78 -26t64 -48t26 -76q0 -12 -3 -23t-19 -11q-12 0 -29 10t-33 10h-146q-36 0 -58 22l-78 88q-4 4 -11 14t-7 16q0 2 7 7t17 11q10 8 24 14l14 48h-518q-36 0 -71 -28t-64 -65t-47 -74t-18 -55q48 18 83 30t63 20 t52 11t52 3q30 0 62 -7t65 -16t66 -16t61 -7q14 0 32 2t34 7t29 11t17 14q6 -10 6 -24q0 -16 -14 -42t-37 -51t-52 -43t-61 -18q-40 0 -83 9t-87 21t-89 21t-87 9q-36 0 -60 -3t-58 -21q-4 -2 -5 -17t-3 -38t-2 -50v-51q46 10 78 11t66 1q154 0 290 -44t252 -104 q42 -22 79 -52t66 -60t45 -57t16 -43q0 -12 -3 -22t-21 -10q-14 0 -27 10t-35 28q-24 18 -68 46t-125 53t-206 43t-311 18q-34 0 -77 -3t-83 -6t-69 -6t-33 -5q0 54 7 88t17 53t23 28t23 15q0 116 5 192t18 128t36 89t59 77h-62q-36 0 -46 6t-10 28q0 12 8 31t19 41t23 45 t22 41h912z" />
<glyph unicode="&#xfac;" d="M-698 -512q-54 0 -96 -21t-70 -50t-45 -61t-19 -54q24 -2 52 -13t53 -27t47 -33t34 -31q32 42 62 76t65 57t79 36t104 13q66 0 116 -23t85 -63t53 -95t18 -119q0 -38 -32 -82t-80 -85t-103 -74t-99 -51q-72 -28 -94 -28q-24 0 -24 18q0 28 41 63t91 75t91 87t41 99 q0 48 -40 85t-122 37q-52 0 -104 -21t-94 -55q50 -48 63 -78t13 -64q0 -22 -20 -22q-14 0 -33 9t-37 25q-108 110 -298 110q-16 0 -27 -1t-25 -4t-34 -6t-56 -9q0 2 5 30t18 61t37 63t60 40q0 30 14 82t70 104h-54q-36 0 -46 6t-10 30q0 8 9 30t21 46t24 47t18 33h734 q-22 22 -62 47t-112 47t-183 36t-273 14q-60 0 -122 -9t-124 -15q0 6 3 27t10 47t21 50t36 36q0 66 4 117t16 94t34 80t58 77l-56 -2q-36 0 -46 6t-10 30q0 12 8 31t19 41t23 45t22 41h816q0 -26 -11 -53t-15 -43l-44 -144q30 0 70 -8t78 -26t64 -48t26 -76q0 -12 -3 -23 t-19 -11q-12 0 -29 10t-33 10h-146q-36 0 -58 22l-78 88q-4 4 -11 14t-7 16q0 2 7 7t17 11q10 8 24 14l14 48h-440q-26 0 -56 -13t-57 -37t-49 -57t-30 -71q34 18 77 41t109 23q42 0 68 -3t47 -6t41 -6t54 -3q28 0 59 3t45 23v-26q0 -16 -10 -37t-29 -40t-45 -33t-58 -14 q-42 0 -71 6t-57 14t-58 14t-74 6q-36 0 -59 -11t-45 -27v-84q52 10 82 12t64 2q96 0 208 -38t210 -89t163 -106t65 -91l-64 -144q-22 -48 -128 -48h-346z" />
<glyph unicode="&#xfad;" d="M-160 336v-666q-38 24 -90 52t-112 53t-125 41t-129 16q74 136 172 245t188 211v48h96zM-256 144q-62 -48 -107 -94t-87 -98q32 0 60 -13t53 -32t45 -43t36 -46v326z" />
<glyph unicode="&#xfae;" d="M-160 520l-46 -96q4 -4 12 -19t15 -36t13 -45t6 -44q0 -12 -18 -50t-41 -81t-43 -78t-22 -39q38 -74 63 -129t39 -103t19 -93t5 -99v-288q0 -34 -40 -34q-38 0 -44 34q-4 80 -12 157t-24 146t-42 127t-64 98q-18 -30 -42 -60t-53 -54t-65 -39t-80 -15t-89 21t-82 58 t-61 88t-24 109q0 54 18 101t51 80t78 52t99 19q52 0 97 -11t80 -27t60 -32t39 -28q10 16 20 53t10 69t-13 51t-30 29t-33 13t-22 3h-382q-56 0 -104 -34t-84 -84t-56 -110t-20 -110q0 -44 15 -76t33 -61t33 -62t15 -77q0 -30 -13 -68t-32 -71t-40 -55t-35 -22q-12 0 -16 5 t-4 9t2 11t2 11q0 48 -13 85t-30 73t-30 75t-13 91q0 122 30 232t79 198t111 148t128 84h690zM-776 -58q0 -66 48 -104t104 -38q40 0 65 9t44 27t34 44t37 60q-32 48 -82 75t-98 27q-64 0 -108 -24t-44 -76z" />
<glyph unicode="&#xfaf;" d="M-88 520l-22 -88t-23 -95t-19 -88t-8 -67v-670q0 -28 -26 -28q-16 0 -34 9t-30 19q-42 34 -112 61t-155 45t-180 28t-185 10q-40 0 -114 -5t-150 -25q0 74 24 119t63 67t90 29t105 7q60 0 150 -22t181 -57t167 -79t110 -86l-28 288q-58 50 -250 75t-540 25q-20 0 -20 16 q0 10 6 32l46 120q310 0 498 -19t240 -53q0 20 -7 61t-18 81t-25 69t-28 29l-634 -2q-36 0 -46 6t-10 30q0 14 7 30t17 32l48 96h912z" />
<glyph unicode="&#xfb0;" d="M-160 520l-60 -144q-18 -40 -78 -48q18 -20 27 -48t14 -56t6 -55t1 -45q0 -28 -15 -62t-40 -65t-56 -56t-63 -37q38 -14 81 -51t82 -91t69 -118t44 -132q0 -24 -24 -24q-18 0 -40 28q-14 18 -50 57t-87 79t-113 70t-126 30t-114 -11t-124 -37q0 58 11 103t38 75t75 46 t122 16q16 0 38 -2t30 -6q14 12 35 26t39 35t31 50t13 71q0 36 -17 74t-45 68t-68 49t-84 19h-202q-54 0 -100 -16t-81 -44t-55 -69t-20 -91q0 -44 11 -71t25 -50t25 -51t11 -72q0 -30 -10 -67t-24 -68t-31 -52t-31 -21q-22 0 -22 8q0 4 3 8t3 8q0 48 -16 81t-36 63t-36 65 t-16 87q0 122 32 214t83 157t115 107t130 66h690z" />
<glyph unicode="&#xfb1;" d="M-160 520v-260q0 -34 -42 -82t-105 -93t-138 -77t-139 -32q-106 0 -219 25t-225 71q76 -122 184 -173t228 -51q128 0 252 60t274 184q18 16 40 30t40 14q10 0 15 -7t5 -15q0 -10 -9 -22t-20 -24t-23 -23t-18 -19q-66 -76 -131 -143t-135 -117t-152 -79t-184 -29 q-118 0 -198 48t-138 122t-102 164t-92 174q-4 8 -10 22t-6 24q0 4 7 11t21 7q16 0 64 -16q40 -14 98 -35t126 -41t140 -34t142 -14q62 0 125 20t114 51t83 68t32 71v220h96z" />
<glyph unicode="&#xfb2;" d="M-160 520v-812l-160 96q-82 50 -146 90t-137 67t-169 42t-242 15q-22 0 -54 -2t-66 -5t-66 -8t-52 -11q0 52 21 96t57 76t84 50t102 18q102 0 214 -30t213 -80t182 -113t123 -129v640h96z" />
<glyph unicode="&#xfb3;" d="M-546 520l-46 -96q34 -22 53 -80t19 -142q0 -62 -25 -129t-111 -131q66 -10 123 -40t107 -73t92 -95t78 -106l-48 460q-8 76 -17 123t-21 73t-26 35t-32 9l90 192h222l-22 -88t-23 -95t-19 -88t-8 -67v-670q0 -12 -14 -18t-32 -6q-10 0 -26 8t-24 16q-46 42 -89 85 t-97 77t-128 56t-180 22q-84 0 -135 -8t-67 -16q0 42 11 81t35 69t62 48t90 18q34 26 62 73t28 107q0 26 -5 61t-28 67t-71 54t-136 22q-58 0 -102 -14t-75 -35t-47 -46t-16 -47q0 -44 13 -72t30 -54t30 -55t13 -73q0 -30 -14 -70t-33 -75t-40 -59t-35 -24q-12 0 -16 10 t-4 14t2 12t2 12q0 48 -13 88t-28 80t-27 82t-12 94q0 84 24 160t69 135t109 94t146 35h382z" />
<glyph unicode="&#xfb4;" d="M-88 520q-10 -42 -22 -87t-23 -89t-19 -85t-8 -75v-860q0 -18 -11 -31t-27 -13t-29 13t-15 29l-66 614q-22 -24 -52 -48t-63 -44t-68 -33t-67 -13q-120 0 -209 68t-127 176q0 -84 11 -164t25 -160q18 -34 27 -80t9 -78q0 -8 -5 -19t-15 -11q-16 0 -22 7t-10 13 q-30 44 -59 88t-66 80t-89 58t-128 22q-26 0 -47 -5t-49 -17q0 14 9 51t26 74t39 66t46 29q48 0 92 -30t77 -65t53 -64t20 -25q-4 26 -9 65t-9 84t-6 91t-2 84q0 84 28 155t83 124t136 82t187 29q58 0 117 -10t101 -40l-2 44h238zM-568 330q-54 0 -100 -9t-80 -30t-53 -57 t-19 -92t21 -94t56 -61t78 -33t85 -10q50 0 97 10t83 32t58 59t22 91q0 58 -21 95t-56 59t-79 31t-92 9z" />
<glyph unicode="&#xfb5;" d="M-672 336q-48 0 -92 -12t-79 -38t-56 -67t-21 -99q0 -54 21 -95t57 -68t83 -40t99 -13q42 0 83 14t73 41t52 69t20 98q0 112 -66 161t-174 49zM-356 40q-38 -108 -119 -182t-201 -74q-32 0 -67 10t-70 27t-65 38t-52 45l-60 -624q-2 -16 -17 -25t-31 -9t-29 8t-13 26v864 q0 70 -5 161t-23 175h196l-4 -44q54 40 136 66t150 26q92 0 161 -40t114 -101t68 -133t23 -134t-12 -123t-16 -91q52 46 96 72t98 26q24 0 46 -28t39 -65t26 -73t9 -50q-28 12 -49 17t-47 5q-76 0 -128 -13t-89 -37t-64 -58t-57 -78q-4 -6 -14 -13t-26 -7q-18 0 -23 6t-5 14 q0 16 14 53t34 77t38 72t28 38z" />
<glyph unicode="&#xfb6;" d="M-542 520l-70 -144q-12 -30 -45 -39t-73 -9q66 -64 131 -129t126 -144t119 -178t112 -229q-14 126 -23 224t-19 170q-22 158 -50 222t-56 64h-10l90 192h222l-22 -88t-23 -95t-19 -88t-8 -67v-670q0 -12 -10 -22t-24 -10q-16 0 -33 11t-25 21q-70 102 -143 203t-157 196 t-182 177t-214 146q-58 -40 -91 -95t-33 -139q44 -2 93 -30t95 -69t88 -87t74 -86t51 -68t19 -30q0 -6 -4 -23t-26 -17q-16 0 -28 8t-22 18q-98 88 -199 140t-209 52q-14 0 -35 -2t-42 -5t-41 -7t-32 -6q0 28 8 61t24 63t38 54t52 34q0 106 27 185t103 143h-46q-42 0 -51 6 t-9 28q0 12 9 36t21 48t24 45t18 29h530z" />
<glyph unicode="&#xfb7;" d="M-160 520l-66 -144q-22 -48 -132 -48h-276q-48 0 -100 -28t-95 -67t-71 -80t-28 -65q38 0 94 -27t96 -69q70 86 147 129t173 43q80 0 134 -30t87 -76t47 -102t14 -108q0 -76 -21 -142t-62 -128t-101 -124t-138 -130q-10 -10 -34 -26t-42 -16q-20 0 -25 3t-5 11 q0 10 12 32t22 36q42 58 83 106t73 95t51 97t19 112q0 46 -18 86t-46 69t-60 46t-62 17q-70 0 -112 -18t-64 -38q26 -24 54 -60t50 -72t37 -64t15 -36q0 -4 -2 -10t-18 -6t-30 8t-22 18q-34 36 -78 68t-94 58t-104 41t-108 15q-62 0 -99 -5t-77 -17q8 54 21 89t29 57t33 35 t35 23q0 22 7 53t22 65t36 69t51 63h-82q-44 0 -51 7t-7 31q0 10 9 32t21 46t24 45t18 31h816z" />
<glyph unicode="&#xfb8;" d="M-1096 520l-66 -144q-10 -22 -38 -35t-68 -13q-16 -22 -33 -56t-30 -73t-21 -81t-8 -78q0 -54 16 -110t53 -101t97 -73t146 -28q32 0 63 6t54 21t37 43t14 74t-35 71t-133 25q-22 0 -58 -7t-64 -17q0 30 24 88t60 117t79 107t83 62v10h-32q-36 0 -46 6t-10 30q0 8 9 30 t21 46t24 47t18 33h444l-66 -144q-10 -22 -39 -35t-75 -13v-10q52 -64 106 -130t107 -140t104 -160t97 -190l-42 390q-8 76 -17 123t-21 73t-26 35t-32 9l90 192h222l-22 -88t-23 -95t-19 -88t-8 -67v-670q0 -16 -10 -20t-20 -4q-14 0 -31 5t-25 19q-62 76 -110 142t-92 124 t-87 113t-93 111t-111 116t-139 130q-10 -4 -27 -18t-33 -31t-27 -34t-11 -29q36 0 74 -18t70 -51t52 -77t20 -94q0 -64 -30 -124t-79 -107t-110 -76t-123 -29q-52 0 -117 14t-123 56t-98 117t-40 197q0 50 10 100t25 98t32 95t29 91h-16q-36 0 -46 6t-10 30q0 8 9 30t21 46 t24 47t18 33h288z" />
<glyph unicode="&#xfb9;" d="M-88 520q-10 -40 -22 -87t-23 -94t-19 -87t-8 -66v-572q0 -18 -11 -36t-29 -18t-28 18t-12 36l-44 430q-4 44 -8 94t-14 92t-27 70t-49 28h-200q-6 -26 -12 -70t-10 -92q-4 -54 -9 -112t-13 -108t-20 -82t-28 -32t-29 97t-25 259q-4 62 -23 101t-53 39h-98 q0 -78 -19 -146t-57 -117t-93 -77t-129 -28q-12 0 -17 7t-5 17q0 2 7 8t15 14t16 14t12 8q126 80 126 300h-88q-36 0 -46 6t-10 30q0 8 9 30t21 46t24 47t18 33h1030zM-766 -346q-42 0 -80 -13t-67 -36t-46 -54t-17 -69t24 -72t62 -59t85 -40t91 -15q38 0 73 13t62 35t43 54 t16 70t-20 72t-54 60t-78 40t-94 14zM-954 -192l-8 -68q52 34 116 47t124 13q76 0 144 -31t118 -82t79 -117t29 -136q0 -62 -11 -106t-15 -74q52 46 96 72t98 26q24 0 46 -28t39 -65t26 -73t9 -50q-28 12 -49 17t-47 5q-76 0 -128 -13t-89 -37t-64 -58t-57 -78 q-4 -6 -14 -13t-26 -7q-18 0 -23 6t-5 14q0 16 14 53t34 77t38 72t28 38l18 202q-16 -46 -41 -89t-62 -77t-87 -54t-112 -20q-30 0 -65 12t-70 30t-67 40t-52 44l-52 -488q-4 -18 -14 -36t-34 -18q-12 0 -21 18t-9 36v986z" />
<glyph unicode="&#xfba;" d="M-902 -266q2 40 20 98t48 104q-32 0 -54 4t-22 22q0 6 7 28t19 46t29 43t37 19h56q18 32 25 72t7 62q0 24 -10 43t-24 31t-29 18t-23 6h-26q-64 0 -106 -4t-66 -16t-34 -32t-10 -52q0 -46 9 -64t21 -29t21 -23t9 -44q0 -30 -12 -63t-29 -60t-36 -45t-31 -18q-10 0 -19 7 t-9 13q0 12 8 31t8 39t-11 40t-25 46t-25 59t-11 79q0 52 30 110t75 106t100 80t103 32h228l-42 -80q20 -12 40 -32t35 -43t24 -45t9 -40q0 -58 -27 -109t-49 -79h366l-20 234q-18 18 -47 30t-29 22q0 6 7 16t11 14l78 88q22 22 58 22h90q34 0 63 6t57 32q10 10 30 19t32 9 q16 0 19 -15t3 -27q0 -44 -20 -80t-50 -61t-66 -40t-66 -17q-6 -52 -9 -96t-3 -72v-698q0 -10 -6 -18t-24 -8q-14 0 -25 8t-23 18q-28 24 -86 48t-130 44t-149 33t-143 13q-20 0 -52 -1t-66 -4t-65 -6t-49 -9q0 8 5 27t15 40t24 40t32 29zM-724 -64q-32 -32 -54 -77t-22 -91 q36 16 71 18t65 2q86 0 150 -19t112 -49t83 -66t65 -68l-30 350h-440z" />
<glyph unicode="&#xfbb;" d="M-294 88q-8 76 -19 123t-24 73t-28 35t-33 9l90 192h222l-22 -88t-23 -95t-19 -88t-8 -67v-622q0 -22 -12 -35t-30 -13q-36 0 -78 48q-58 64 -119 115t-116 87t-100 58t-71 28q-12 -22 -37 -51t-61 -55t-81 -44t-97 -18q-66 0 -121 21t-95 59t-63 92t-23 122 q0 202 74 354h-18q-36 0 -46 6t-10 30q0 8 9 30t21 46t24 47t18 33h296l-56 -144q-16 -44 -116 -48q-4 -10 -20 -37t-34 -66t-32 -86t-14 -97q0 -46 26 -81t66 -61t88 -39t92 -13q60 0 96 22t56 57t26 79t6 90q0 34 -4 74t-13 75t-21 59t-26 24q-26 0 -35 7t-9 29q0 8 9 30 t21 46t24 47t18 33h248l-56 -144q-6 -12 -17 -23t-27 -15q2 -42 3 -86t1 -82q0 -46 -7 -81t-17 -75q50 -4 100 -39t98 -87t92 -117t80 -127z" />
<glyph unicode="&#xfbc;" d="M-160 520l-64 -144q-22 -48 -128 -48h-264q16 -28 32 -80t16 -156q104 -30 186 -82t144 -111t104 -121t68 -114t38 -87t12 -41q0 -22 -24 -22q-18 0 -33 5t-23 19q-46 80 -100 154t-131 130t-185 89t-260 33q-76 0 -166 -11t-182 -31q0 120 76 177t214 57q50 0 84 -6 t82 -16q0 42 -18 81t-45 68t-58 47t-55 18h-176q-36 0 -46 6t-10 30q0 8 9 30t21 46t24 47t18 33h840z" />
<glyph unicode="&#xfbe;" horiz-adv-x="1536" d="M468 1360l336 -462l496 462l96 -110l-496 -474q6 -10 48 -63t101 -127t125 -160t123 -162t94 -130t37 -66q0 -6 -11 -17t-23 -11q-16 0 -28 8t-24 20l-564 596l-522 -494l-100 110l520 490l-568 590h360z" />
<glyph unicode="&#xfbf;" horiz-adv-x="1536" d="M468 1368l336 -462l496 462l96 -110l-496 -474q6 -10 48 -63t101 -127t125 -160t123 -162t94 -130t37 -66q0 -6 -11 -17t-23 -11q-16 0 -28 8t-24 20l-564 596l-522 -494l-100 110l520 490l-568 590h360zM446 778l-170 -156l-118 168l170 152zM1396 754l-170 -156 l-116 180l170 140zM978 1294l-168 -148l-118 164l170 148zM902 324l-162 -148l-118 164l162 148z" />
<glyph unicode="&#xfc0;" horiz-adv-x="2440" d="M154 602q0 218 84 411t229 337t339 228t414 84t414 -84t339 -228t229 -337t84 -411q0 -146 -38 -281t-108 -253t-167 -215t-215 -166t-255 -107t-283 -38t-283 38t-255 107t-215 166t-167 215t-108 253t-38 281zM324 602q0 -192 71 -360t192 -294t284 -198t349 -72 t349 72t284 198t192 294t71 360t-71 360t-192 294t-284 198t-349 72t-349 -72t-284 -198t-192 -294t-71 -360z" />
<glyph unicode="&#xfc1;" horiz-adv-x="1480" d="M90 596q0 134 51 252t140 206t207 139t254 51q134 0 252 -51t206 -139t139 -206t51 -252q0 -136 -51 -254t-139 -207t-206 -140t-252 -51q-136 0 -254 51t-207 140t-140 207t-51 254zM222 598q0 -108 40 -203t111 -165t165 -111t202 -41t202 41t165 111t111 165t40 203 t-40 202t-111 165t-165 111t-202 40t-202 -40t-165 -111t-111 -165t-40 -202z" />
<glyph unicode="&#xfc2;" horiz-adv-x="1360" d="M152 604q0 110 42 206t114 168t169 114t207 42q136 0 256 -67t194 -183q-8 82 -42 144t-85 111t-114 88t-127 77q-22 -20 -64 -20q-48 0 -83 35t-35 81t35 82t81 36t82 -35t36 -79q0 -8 -4 -24q76 -48 148 -99t129 -112t92 -137t35 -176q0 -80 -14 -148q4 -26 7 -51 t3 -53q0 -110 -42 -206t-114 -168t-168 -114t-206 -42q-142 0 -264 69t-192 191q4 -88 35 -151t80 -113t112 -90t129 -78q26 20 68 20q46 0 80 -35t34 -81t-34 -83t-78 -37q-50 0 -85 37t-35 85q0 12 2 20q-76 48 -147 99t-126 112t-88 137t-33 174q0 40 5 80t13 80 q-6 22 -7 45t-1 49zM266 600q0 -84 34 -161t92 -135t135 -92t161 -34t160 34t135 93t94 135t35 160t-35 159t-94 133t-135 92t-160 34t-161 -34t-135 -91t-92 -133t-34 -160z" />
<glyph unicode="&#xfc3;" horiz-adv-x="2280" d="M1004 -770q-46 0 -83 29t-37 63q0 38 34 62t80 50q30 16 63 37t61 49t50 67t28 91q-100 2 -180 25t-138 59t-89 80t-31 90q-48 12 -114 30t-136 41t-138 52t-122 62t-87 71t-33 80q0 34 26 71t44 57q-22 12 -49 30t-50 41t-38 48t-15 51q0 32 30 70t78 77t107 76t117 67 t109 51t81 27q50 78 100 131t107 86t127 51t162 28q6 68 42 124t89 96t116 62t123 22q44 0 91 -4t87 -19t66 -42t26 -73q0 -48 -41 -82t-91 -34q-26 0 -51 6t-51 14t-54 15t-48 7q-24 0 -51 -2t-52 -11t-47 -28t-36 -51q44 -10 103 -38t119 -69t115 -92t89 -107 q64 -6 157 -31t180 -68t149 -105t62 -144q0 -24 -7 -40t-13 -26q34 -34 61 -70t27 -104q0 -70 -45 -126t-114 -98t-149 -70t-148 -40q-4 -80 -48 -140t-110 -101t-142 -63t-142 -24q0 -96 -10 -177t-44 -140t-98 -93t-174 -34zM1262 -276q48 0 119 12t140 41t122 77t61 120 q-46 -12 -114 -24t-146 -22t-162 -17t-164 -7q-64 0 -147 6t-145 18q2 -56 53 -95t121 -63t143 -35t119 -11zM1118 -36q64 0 166 9t219 27t234 48t212 72t155 97t60 125q0 34 -16 67t-42 61q-108 -78 -245 -129t-283 -81t-293 -42t-275 -12q-198 0 -382 46t-372 116 q-22 -22 -38 -44t-16 -56q0 -44 54 -84t138 -74t189 -61t206 -46t189 -29t140 -10zM1004 266q50 0 149 7t218 22t245 41t231 63t175 87t76 116q-2 24 -28 53t-67 57t-92 54t-101 47t-95 36t-73 19q-42 -68 -103 -117t-135 -80t-158 -45t-172 -14q-54 0 -137 13t-164 44 t-143 81t-74 122q-44 -16 -119 -50t-147 -77t-124 -88t-52 -81q0 -54 58 -97t147 -78t197 -60t207 -42t176 -25t105 -8zM1084 668q84 0 150 10t123 33t108 61t103 96q-10 36 -55 86t-104 97t-121 82t-104 43q-2 -24 -13 -42t-39 -18q-40 0 -51 20t-13 42q-72 -10 -143 -31 t-133 -58t-108 -92t-70 -131q12 -64 69 -102t131 -60t149 -29t121 -7zM1104 1220q0 -30 6 -51t24 -21q14 0 16 17t2 37q0 38 22 67t55 48t73 28t76 9q18 0 45 -5t56 -12t55 -12t44 -5q34 0 64 16t30 70q0 16 -16 32t-39 29t-48 22t-43 13q8 -6 20 -13t24 -16t20 -21t8 -26 q0 -12 -14 -27t-42 -15q-20 0 -51 6t-65 6q-28 0 -82 -11t-107 -33t-93 -55t-40 -77zM1130 1314q30 22 67 47t76 47t79 36t78 14q28 0 42 -8t24 -17t19 -17t27 -8q12 0 21 3t9 21q0 4 -11 16t-29 25t-41 23t-47 10q-38 0 -86 -17t-93 -44t-82 -62t-53 -69zM1278 1390 q30 6 56 12q22 4 46 9t36 5q22 0 45 -3t39 -7q-34 30 -74 30q-28 0 -68 -13t-80 -33zM1022 -738q58 0 108 19t86 66t57 126t21 201h-20q0 -44 -4 -96t-10 -84q-8 -34 -25 -69t-45 -63t-65 -46t-85 -18q-10 0 -19 7t-9 15q0 16 6 26t14 14q56 40 98 66t71 56t44 73t15 119 l-24 2q-8 -70 -33 -117t-59 -78t-72 -51t-69 -37t-52 -35t-21 -46q0 -12 12 -21t27 -16t30 -10t23 -3zM1058 -680q32 2 63 23t55 48t40 55t18 44q-28 -48 -78 -82t-108 -62q-8 -4 -8 -16q0 -8 6 -9t12 -1z" />
<glyph unicode="&#xfc4;" horiz-adv-x="2240" d="M1268 492q0 44 -27 65t-41 23q2 -2 -13 -3t-23 -3h2q-18 -6 -42 -6q-26 0 -50 6q-12 2 -29 4t-13 2q-16 -2 -40 -21t-24 -69q2 -22 24 -34t49 -20t52 -10t31 -2t29 3t49 11t46 21t20 33zM1216 386q-18 -6 -41 -10t-51 -4t-50 4t-42 10v-124q24 -4 44 -8t48 -4q24 4 47 8 t45 14v114zM1244 198q0 4 -5 18t-15 20l-12 -4t-10 -4h2q-16 -6 -36 -11t-44 -5q-28 0 -51 3t-51 5q-6 -4 -12 -10t-6 -12q0 -10 13 -17t32 -11t39 -6t36 -2q14 0 35 2t40 6t32 11t13 17zM1124 -76q44 0 98 5t107 13t99 20t76 26q-10 18 -45 46t-75 53t-77 44t-49 23 q-28 -14 -64 -25t-70 -11q-36 0 -67 7t-59 21q-18 -10 -57 -30t-80 -45t-76 -49t-43 -38q36 -12 82 -23t97 -19t103 -13t100 -5zM1508 -100q16 4 30 8t30 8q-14 24 -38 34l-48 -12h2q-86 -22 -175 -40t-185 -18q-108 0 -212 18t-200 52q-18 -12 -28 -36q14 -4 29 -8t31 -8 q90 -24 193 -47t187 -23q40 0 88 7t99 17t102 23t95 25zM1486 -334q40 10 80 18l80 16q-6 48 -20 92t-34 82q-34 -8 -67 -16t-61 -18q-84 -22 -163 -40t-173 -18q-50 0 -100 6t-106 18t-120 28t-144 38q-10 -26 -17 -46t-13 -39t-11 -40t-7 -47q28 -6 57 -12t55 -14 q98 -22 199 -41t207 -19q96 0 185 17t173 35zM1124 -1292q200 0 397 36t391 84q-70 116 -111 209t-68 185t-46 192t-41 232q-44 -8 -83 -16t-81 -18q-86 -20 -176 -35t-182 -15t-184 17t-186 37q-40 10 -76 18t-74 14q-16 -130 -37 -235t-52 -199t-73 -188t-102 -204 q200 -48 391 -81t393 -33zM1944 -1220q-106 -28 -205 -51t-198 -40t-201 -27t-216 -10q-170 0 -331 27t-311 59q-40 10 -85 18t-91 18q-10 -20 -23 -43t-23 -43q214 -56 424 -101t440 -45q236 0 445 42t425 106zM180 -1346q82 138 140 254t99 230t71 236t54 276 q8 104 38 186t83 148t128 118t173 92q0 4 -1 8t-1 8q0 10 6 24t20 20v144q-40 16 -52 39t-12 55q0 30 9 58t39 52q4 2 7 5t7 5q-42 30 -68 78t-26 106t24 106t66 78q-22 16 -40 46t-18 54l22 58q-6 0 -10 4q-14 8 -34 26t-20 52q0 14 4 20t10 12q8 8 8 24q-4 6 -25 35 t-45 62t-47 58t-31 25q-2 -2 -2 -4t-1 -3t-1 -3q-4 -10 -12 -23t-30 -13q-32 0 -56 26t-41 62t-26 75t-9 67v12q4 30 24 37t48 7q22 0 22 10v8q-2 10 -3 32t-1 44q0 46 22 83t66 37l44 -4q10 6 18 21t16 33q10 28 29 55t63 27q46 0 69 -29t23 -73q0 -40 -22 -82t-48 -82 q-28 -42 -50 -81t-22 -77q0 -34 29 -76t61 -82q22 -28 39 -45t29 -37v648q0 70 27 99t61 39q32 -12 56 -40t24 -98q2 -166 3 -321t3 -321q10 20 25 40t33 42q32 40 59 79t27 73q0 22 -25 72t-53 104q-26 46 -44 87t-18 59q0 44 22 73t76 29q26 0 43 -10t28 -24t18 -31 t13 -31q6 -16 11 -28t11 -12t11 1t11 1q4 2 11 2h13q40 0 66 -36t26 -84q0 -24 -3 -45t-5 -31q0 -2 -1 -3t-1 -3v-4q2 -8 34 -8q22 0 45 -9t23 -43q0 -24 -10 -64t-28 -78t-43 -65t-55 -27q-22 0 -31 14t-13 24q0 2 -2 4t-2 4q-10 -10 -35 -39t-49 -60t-43 -55t-17 -26 q0 -12 1 -17t5 -9t6 -10t4 -20q-4 -34 -21 -50t-27 -24l-8 -8q0 -14 4 -26q2 -8 4 -23t4 -11q0 -24 -17 -52t-37 -44q44 -32 70 -80t26 -106t-25 -106t-71 -78q4 -4 5 -6t5 -6v2q32 -28 38 -53t6 -57q0 -30 -13 -54t-41 -40v-138q10 -4 19 -22t9 -28l-2 -16q100 -42 176 -93 t127 -116t80 -148t37 -187q30 -144 59 -263t67 -231t93 -227t139 -251l-60 -52q-206 -70 -424 -110t-452 -40q-226 0 -450 38t-446 102zM1602 1628q0 14 -5 17t-25 3q-28 0 -44 -12t-28 -24q-18 -18 -22 -18q-12 0 -20 4t-8 30q0 10 10 20l22 22q10 8 16 14l14 14q0 4 1 10 t1 10q2 10 2 22v32q0 38 -8 63t-42 25q-12 0 -28 -12q-10 -6 -22 -11t-26 -5q-4 0 -8 12t-6 28q-2 18 -6 38t-11 38t-20 30t-33 12q-16 0 -32 -9t-16 -25q0 -34 19 -67t45 -69q30 -44 57 -93t27 -113q0 -44 -36 -97t-72 -95q-20 -24 -37 -47t-19 -33q2 -2 4 -5t6 -5v2 q18 -16 44 -28q4 4 9 11t11 17q16 26 39 59t46 62t44 49t33 20q10 0 17 -8t15 -18q10 -22 20 -22q14 0 27 19t23 44t16 51t6 38zM952 1304q10 10 22 21t24 17q-4 12 -17 30t-31 40h2q-18 20 -39 45t-39 53t-30 58t-12 60q0 54 25 98t53 86q26 38 44 73t18 71q0 16 -13 25 t-29 9q-12 0 -26 -16t-25 -35t-19 -37t-8 -22l4 -16l4 -16q0 -18 -8 -22q-4 -4 -8 -2q-8 0 -28 14q-12 8 -24 15t-22 7q-30 0 -42 -25t-12 -63v-16q0 -14 5 -28t9 -24q0 -2 1 -3t1 -3q6 -8 13 -14t17 -14q12 -12 23 -22t11 -22q-10 -24 -19 -28t-19 -4q-4 0 -16 12 q-10 12 -29 27t-53 15h-8q-10 0 -16 -3t-6 -17q0 -12 7 -38t18 -51t26 -44t31 -19q2 0 5 6t7 10q6 10 14 21t28 11t48 -37t58 -79q22 -30 43 -61t37 -43zM1000 1344l-2 -2v-2zM1158 2040q0 14 -11 31t-23 27q-16 -10 -28 -27t-12 -31v-670q6 0 10 2t11 4t19 2q10 0 14 -2 l8 -4t8 -2t4 16v654zM1302 1220q0 20 -22 37t-52 31t-60 22t-44 8q-20 0 -50 -8t-59 -22t-50 -31t-21 -37q0 -16 10 -26t26 -20q28 10 69 21t75 11q32 0 71 -11t55 -21q22 10 37 19t15 27zM1260 1086q0 20 -14 35t-35 25t-45 15t-42 5q-24 0 -50 -4t-47 -13t-34 -24t-13 -39 q0 -52 21 -64t37 -12q14 0 32 6q22 8 54 10q12 0 23 -2t23 -6q10 -4 18 -6t18 -2q16 0 35 13t19 63zM1290 798q0 78 -48 127t-118 49q-68 0 -118 -49t-50 -127q0 -34 13 -65t36 -54t53 -37t66 -14t66 14t52 37t35 54t13 65zM1180 798q0 -22 -19 -38t-37 -16q-24 0 -41 16 t-17 38q0 24 17 40t41 16q18 0 37 -16t19 -40z" />
<glyph unicode="&#xfc5;" horiz-adv-x="2240" d="M868 602q0 64 29 118t77 88q-24 16 -47 48t-23 60q0 20 12 34t12 34q0 2 -11 8t-25 16t-25 27t-11 41q0 14 4 21t8 12t8 11t4 18l-22 33t-51 72t-56 70t-39 31q-4 0 -7 -8t-7 -18t-13 -18t-25 -8q-34 0 -61 28t-45 69t-28 84t-10 73v14q4 34 26 39t46 5h4q14 0 21 2t7 12 q0 4 -2 33t-2 63q0 48 24 89t72 41l52 -6q20 10 29 35t20 52t29 47t58 20q52 0 76 -31t24 -79q0 -44 -25 -89t-54 -91t-54 -92t-25 -88q0 -34 24 -72t55 -77t60 -75t39 -64h8v786q0 78 29 109t63 41q18 -6 33 -16t27 -27t19 -43t7 -64v-786h6q8 30 36 65t58 73t54 76t24 74 q0 26 -25 78t-54 108t-54 105t-25 69q0 48 24 79t82 31q42 0 64 -24t34 -53t19 -53t21 -24t26 3t28 3q42 0 69 -39t27 -91q0 -34 -5 -63t-5 -33q0 -10 9 -12t33 -2t48 -10t24 -44q0 -26 -11 -70t-31 -86t-47 -72t-59 -30q-16 0 -25 8t-14 18t-8 18t-5 8q-10 -4 -37 -36 t-57 -69t-53 -68t-21 -33q0 -12 2 -18t5 -11t6 -12t5 -21q-4 -28 -14 -44t-21 -25t-19 -14t-8 -9q0 -20 7 -32t7 -26v-10q0 -28 -21 -59t-43 -47q50 -34 80 -89t30 -119t-29 -118t-79 -88l14 -16q24 -20 36 -44t12 -44v-14q0 -18 -7 -33t-7 -29q0 -4 8 -8t18 -13t21 -27 t15 -48q0 -28 -9 -36t-9 -26q0 -6 22 -38t51 -70t57 -68t38 -30q4 0 9 9t11 19t15 19t21 9q30 0 56 -26t45 -66t31 -87t12 -89q0 -20 -16 -32t-84 -12h-9t-5 -8q0 -10 5 -41t5 -75q0 -38 -27 -74t-61 -36h-62q-18 -6 -29 -31t-25 -54t-33 -51t-51 -22q-58 0 -82 33t-24 71 q0 48 25 92t54 89t54 91t25 98q0 34 -24 72t-54 77t-58 75t-36 64h-6v-792q0 -38 -10 -66t-23 -46t-28 -27t-25 -9q-24 0 -58 36t-34 112v792h-8q-12 -28 -39 -62t-57 -73t-54 -78t-28 -75v-4q0 -42 25 -86t54 -89t54 -91t25 -90q0 -42 -24 -78t-76 -36q-40 0 -59 22t-29 51 t-19 54t-29 31h-66q-48 0 -65 38t-17 82q0 34 2 65t2 41q0 8 -14 8h-28q-24 0 -41 5t-21 39v14q0 30 10 73t28 84t45 69t61 28q12 0 20 -9t13 -19t9 -19t10 -9q12 0 39 30t56 68t51 70t22 38q0 18 -12 26t-12 36q4 30 16 48t24 27t22 13t10 8q0 14 -12 33t-12 43q0 20 14 44 t38 44l22 14q-50 34 -80 88t-30 120zM1662 1532q0 18 -7 23t-31 5t-41 -10t-29 -21t-21 -21t-15 -10q-14 0 -21 5t-7 29q0 18 26 35t46 41q0 14 2 33t2 53q0 44 -9 73t-53 29q-20 0 -39 -15t-47 -15q-6 0 -8 28t-9 61t-24 61t-51 28q-18 0 -38 -12t-20 -32q0 -44 26 -85 t56 -86t56 -97t26 -116q0 -40 -28 -86t-63 -90t-63 -79t-28 -51q14 -10 28 -22t38 -22q12 14 38 55t57 83t60 75t47 33q10 0 17 -8t13 -19t13 -19t15 -8q16 0 32 22t28 51t19 58t7 43zM986 1210q0 18 -29 50t-65 75t-65 93t-29 104q0 56 25 104t54 91t54 85t25 84v4 q0 20 -16 32t-36 12q-14 0 -30 -18t-30 -41t-23 -44t-9 -27l10 -34q0 -18 -8 -22q-4 -4 -6 -2q-6 0 -15 6l-21 14t-24 14t-22 6q-38 0 -52 -29t-14 -73v-18q0 -20 7 -37t11 -31q20 -24 46 -41t26 -35q-10 -24 -19 -29t-19 -5q-4 0 -12 10t-20 21t-31 21t-47 10h-10 q-14 0 -21 -5t-7 -23q0 -14 8 -43t21 -58t30 -51t37 -22q8 0 13 8t11 19t14 19t24 8q18 0 44 -33t55 -76t57 -83t50 -54q10 10 24 22t34 22zM1662 -336q0 14 -7 43t-19 58t-28 50t-32 21q-8 0 -15 -8t-13 -17t-13 -16t-17 -7h-14q-12 0 -39 32t-57 72t-56 79t-36 53 q-24 -10 -38 -19t-28 -19q0 -14 28 -48t63 -78t63 -93t28 -93q2 -60 -23 -110t-56 -95t-58 -88t-27 -91q0 -20 17 -25t41 -5q12 0 27 16t30 37t25 41t10 26l-6 44q0 10 16 10q14 0 35 -15t41 -15q44 0 53 27t9 85q0 18 -2 40t-2 32q-20 24 -46 43t-26 43q0 28 28 28 q6 0 15 -11t21 -25t29 -25t41 -11t31 5t7 29zM928 24q-18 -14 -48 -52t-60 -79t-56 -73t-38 -32h-4q-16 0 -24 7t-14 16t-11 17t-13 8q-20 0 -37 -21t-30 -50t-21 -58t-8 -43q0 -24 7 -29t31 -5q28 0 45 10t29 21t19 21t17 10l14 10q6 0 10 -9t14 -19q0 -24 -26 -43t-46 -43 q-4 -10 -11 -32t-7 -40v-16q0 -38 14 -67t52 -29h14q10 0 16 6q18 10 30 17t22 7h4q10 0 10 -5v-9l-10 -40v-4q6 -10 17 -29t25 -39t29 -34t31 -14q14 0 28 10t14 24q0 48 -25 91t-54 86t-54 90t-25 103v14q0 48 29 96t65 91t65 75t29 46zM1164 -44h-10l-34 -4h-20 q-8 0 -14 1t-14 3v-796q0 -6 4 -17t10 -22t15 -21t19 -12q6 2 14 12t15 21t11 22t4 17v796zM1164 2036q0 18 -15 40t-29 32q-20 -10 -34 -32t-14 -40v-774q0 -24 4 -24q10 0 17 5t27 5q14 0 21 -5t13 -5q10 0 10 24v774zM1326 120q0 28 -17 40t-45 18q-10 -6 -27 -12 t-37 -11t-41 -8t-39 -3q-34 0 -82 12t-76 22q-48 -6 -48 -58q0 -26 24 -47t57 -35t68 -21t57 -7q16 0 50 7t69 21t61 35t26 47zM1326 1076q0 22 -26 43t-61 37t-69 25t-50 9q-22 0 -57 -9t-68 -25t-57 -37t-24 -43q0 -24 12 -36t36 -22q28 10 76 24t82 14q18 0 39 -4t41 -10 t37 -12t27 -12q28 10 45 22t17 36zM1278 926q0 22 -17 39t-41 29t-51 18t-49 6q-28 0 -57 -4t-53 -15t-39 -29t-15 -44q0 -30 7 -48t17 -27t23 -12t23 -3q22 4 44 10t50 8q24 0 47 -8t45 -10q20 0 43 16t23 74zM1278 284q0 26 -9 42t-21 24t-24 11t-20 3q-22 0 -40 -7 t-44 -7q-28 0 -52 7t-48 7q-8 0 -19 -3t-21 -11t-17 -24t-7 -42q0 -30 15 -48t39 -27t53 -13t57 -8q22 4 49 8t51 13t41 27t17 48zM1312 604q0 90 -54 146t-138 56q-38 0 -73 -15t-61 -42t-42 -64t-16 -81q0 -38 15 -74t41 -63t61 -43t75 -16q42 0 77 16t60 43t40 62t15 75z M1178 604q0 -24 -19 -40t-39 -16q-24 0 -41 16t-17 40t17 41t41 17q20 0 39 -17t19 -41z" />
<glyph unicode="&#xfc6;" horiz-adv-x="2240" d="M1864 -1102q-4 -76 -65 -132t-157 -56q-12 0 -26 -21t-36 -41q-36 -32 -85 -53t-99 -21q-40 0 -86 10q-56 -48 -111 -75t-125 -27q-28 0 -71 27t-77 65h-4q-16 -4 -34 -6t-38 -2q-66 0 -130 28t-100 92q-4 12 -11 12h-7q-44 0 -86 17t-74 47t-49 69t-17 89q0 12 8 30 t21 37t32 35t41 22q-38 60 -57 121t-19 115q0 40 15 96t44 108t66 92t81 48q20 -12 43 -48t35 -58l6 8q10 10 30 27t41 31t37 25t28 11q8 0 17 -13t17 -21q40 26 105 52t151 26q78 0 144 -26t100 -40q16 -8 18 -12q12 8 23 16t23 8t27 -8t28 -18t24 -21l19 -19l26 30 q24 20 46 40t46 20q18 0 48 -34t60 -86t53 -119t23 -137q0 -48 -21 -91t-43 -81q-4 -8 -8 -12t-8 -12q48 -22 83 -58t35 -106zM1772 -742q0 98 -36 170t-98 146q-16 -8 -40 -28t-28 -34q48 -62 80 -145t32 -157q0 -26 -7 -54t-17 -55t-23 -49t-21 -38q72 60 110 113t48 131z M1630 -762q0 20 -14 61t-38 87t-58 91t-78 75q-16 -4 -39 -24t-47 -47t-47 -53t-33 -46q6 -14 14 -28t20 -24q26 -42 45 -85t19 -105q0 -70 -15 -119t-45 -93q6 -4 14 -4h16q4 0 22 6t26 16q16 14 39 63t23 103q0 26 -6 56t-6 58q0 10 4 27t14 17q12 0 21 -17t13 -40t4 -48 t4 -37q0 -50 -10 -99t-32 -79q52 10 84 43t51 72t27 84t8 89zM1336 -460q-50 38 -102 57t-116 19q-60 0 -120 -17t-108 -55q24 -32 45 -71t41 -67q24 28 61 69t69 65q12 0 31 -12t37 -30t37 -39t27 -35q12 8 21 21t21 23q14 20 31 41t25 31zM1814 -1098q0 38 -30 75t-72 49 q-12 -12 -34 -27t-44 -23q38 -20 66 -47t28 -71q0 -10 -12 -10t-27 15t-33 34t-36 34t-36 15q-8 0 -17 -3t-17 -7q38 -28 68 -67t30 -81q0 -12 4 -10t22 -2q22 0 47 10t45 27t34 39t14 50zM1324 -884q0 40 -19 91t-49 100t-67 96t-75 77q-36 -30 -71 -71t-61 -88t-43 -98 t-17 -99q0 -86 45 -162t131 -100q38 4 48 42t10 76q0 18 -6 46t-12 57t-11 53t-5 40q0 8 5 15t17 7q12 -4 23 -29t20 -54t15 -61t6 -56q0 -34 -6 -65t-18 -55q32 20 58 46t45 56t28 66t9 70zM1588 -1208q0 50 -32 76t-62 26q-22 0 -49 -6t-49 -10q34 -30 58 -56t24 -58 q0 -6 -3 -17t-19 -11q-2 0 -6 2t-4 6q-28 60 -67 95t-93 35q-10 0 -18 -4q42 -28 61 -74t19 -94q0 -20 -6 -37t-10 -31q4 -4 21 -6t31 -2q38 0 76 11t66 32t45 51t17 72zM938 -644q0 18 -14 47t-32 59t-39 56t-33 38q-36 -26 -73 -60t-64 -76t-47 -87t-20 -91q0 -70 23 -136 t63 -108q16 -18 33 -30t37 -22q-38 60 -54 141t-16 159q0 12 8 33t20 21q16 0 19 -21t3 -33q0 -40 6 -91t19 -98t40 -84t69 -49h16t16 4q-28 36 -38 83t-10 101q0 64 20 128t48 116zM666 -1028q-22 16 -41 51t-32 75t-22 76t-9 52q0 70 23 131t63 119q-12 28 -26 48t-28 38 q-26 -2 -51 -40t-43 -83t-27 -90t-9 -69q0 -42 13 -91t39 -94t63 -78t87 -45zM1298 -1280q0 16 -8 34t-16 37t-20 33t-28 18q-14 -12 -33 -20t-34 -13t-26 -15t-11 -30q0 -18 5 -34t13 -34t14 -31t6 -19q0 -4 -4 -14t-16 -10q-14 0 -26 13t-23 32t-16 38t-5 31q0 22 4 35 t6 37q-6 0 -22 3t-30 11q-40 -34 -60 -70t-20 -70q0 -40 34 -78t98 -60q46 0 85 9t68 32t47 54t18 81zM984 -1142q0 4 -6 8t-14 12q-30 0 -54 -15t-44 -35t-33 -43t-21 -41q-12 -16 -15 -23t-13 -7q-12 0 -20 13t-8 23q0 14 10 30t22 33t26 31t26 22q-52 8 -94 24 q-50 -4 -70 -32t-20 -74q0 -44 17 -73t45 -47t57 -30t61 -12q14 0 36 4t30 20l-4 32q0 54 18 103t68 77zM656 -1072q-32 0 -56 -25t-50 -59q-12 -6 -14 -8t-14 -2q-10 0 -10 10q0 46 23 67t45 35v-4q4 4 8 4l4 4q-16 6 -41 20t-37 26q-28 -4 -57 -30t-29 -54q0 -30 14 -56 t36 -47t51 -33t55 -12h10q4 0 4 4q0 134 76 160h-18z" />
<glyph unicode="&#xfc7;" horiz-adv-x="3360" d="M3248 600q-4 -14 -11 -31t-24 -29t-41 -19t-68 -7h-796q28 -14 67 -46t77 -60t74 -52t70 -30h4q44 0 90 24t94 53t93 55t89 26q42 0 74 -24t32 -80q0 -34 -22 -51t-48 -29t-50 -24t-30 -32l6 -42v-10q0 -44 -41 -68t-95 -24q-32 0 -61 8t-39 8t-10 -24v-34q0 -20 -7 -39 t-31 -23h-14q-30 0 -73 12t-84 31t-69 45t-28 60q0 10 9 17t19 14t19 12t9 15q-4 10 -38 36t-72 52t-72 50t-38 24q-10 0 -12 -2t-7 -4t-15 -5t-24 -3q-28 0 -43 7t-24 17t-12 17t-11 7q-20 0 -32 -7t-40 -7q-24 0 -48 12t-40 40h-14l-28 -24l-20 -14v-18q24 -20 36 -44 t12 -44v-14q0 -18 -7 -33t-7 -29q0 -4 10 -9t19 -12t19 -27t14 -48q0 -28 -9 -36t-9 -26q0 -6 21 -39t52 -69t58 -67t37 -31q4 0 9 9t12 19t14 19t21 9q30 0 56 -26t45 -67t31 -86t12 -89q0 -20 -16 -32t-84 -12h-9t-5 -8q0 -10 5 -41t5 -75q0 -38 -27 -74t-61 -36h-62 q-18 -6 -30 -32l-24 -52t-32 -50t-52 -24q-58 0 -82 33t-24 71q0 48 24 92t55 89t55 91t24 98q0 34 -24 72t-53 77t-58 75t-37 64h-6v-792q0 -76 -33 -112t-53 -36q-24 0 -58 36t-34 112v792h-8q-10 -28 -39 -62t-58 -72t-53 -79t-28 -75v-4q0 -44 26 -87t55 -89t53 -91 t24 -89q0 -42 -24 -78t-76 -36q-40 0 -59 24t-28 50t-19 52t-30 32h-52h-14q-48 0 -65 38t-17 82q0 34 2 65t2 41q0 8 -14 8h-28q-24 0 -41 5t-21 39v14q0 30 9 73t28 84t46 69t61 28q14 0 21 -9t12 -19t10 -19t9 -9q10 0 39 31t57 67t50 69t22 39q0 18 -12 26t-12 36 q4 28 16 48t24 27t22 12t10 9q0 14 -12 33t-12 43q0 20 14 44t38 44v18l-24 14l-14 24h-18q-44 -52 -102 -52q-14 0 -33 7t-39 7q-4 0 -9 -7t-15 -17t-24 -17t-42 -7q-24 0 -32 7t-26 7q-6 0 -39 -24t-72 -52t-67 -57t-28 -39q0 -4 7 -9t19 -10t19 -12t7 -17q0 -34 -29 -60 t-67 -45t-81 -31t-73 -12h-14q-34 4 -39 23t-5 39v42q0 6 -4 11l-4 5q-16 0 -44 -8t-68 -8q-42 0 -83 20t-41 58q0 10 5 14t5 10v42q-10 20 -34 32t-53 24t-50 29t-21 51q0 56 28 80t82 24q48 0 93 -26t89 -55t89 -53t89 -24q34 0 72 24t76 55t77 63t67 46h-796 q-78 0 -111 26t-33 60q0 24 33 58t111 34h796v4q-28 10 -64 39t-75 57t-79 50t-80 22q-8 0 -61 -24t-113 -53t-113 -53t-67 -24q-54 0 -82 27t-28 75q0 38 21 57t50 31t53 24t34 32q0 42 -5 52l-5 10q0 42 43 64t81 22q24 0 53 -5t46 -7t21 -2l-4 9t-4 25v23t4 27t16 21 t32 9l36 -2q36 -2 84 -16t91 -43t53 -83q0 -8 -7 -18t-19 -17t-19 -12t-7 -9q0 -6 28 -32t67 -55t72 -53t39 -24q18 0 26 7t32 7q28 0 42 -9t24 -21t15 -22t9 -10q20 0 34 7t38 7q30 0 54 -9t48 -29h18l38 28v24q-24 16 -38 42t-14 54q0 20 12 34t12 34q0 4 -12 9t-24 15 t-24 27t-12 41q0 14 5 21t10 12t7 10t2 19l-22 33q-22 33 -50 72t-57 70t-39 31q-4 0 -7 -10t-8 -17t-12 -16t-25 -9q-34 0 -61 28t-46 69t-28 84t-9 73v14q4 34 26 39t46 5h4q14 0 21 2t7 12q0 4 -2 33t-2 63q0 48 24 89t72 41l52 -6q20 10 30 34t19 50t28 48t59 22 q52 0 76 -31t24 -79q0 -44 -24 -89t-53 -91t-55 -92t-26 -88q0 -34 24 -72t55 -77t60 -75t39 -64h8v786q0 40 8 66t22 43t28 26t34 15q34 -14 60 -43t26 -107v-786h6q8 28 37 64t58 75t53 75t24 74q0 24 -24 77t-55 108t-55 105t-24 70q0 48 24 79t82 31q42 0 64 -24t34 -53 t19 -53t21 -24t26 3t28 3q42 0 69 -39t27 -91q0 -34 -5 -63t-5 -33q0 -10 9 -12t33 -2t48 -10t24 -44q0 -28 -12 -71t-31 -84t-45 -72t-60 -31q-14 0 -24 9t-15 16t-7 17t-6 10q-10 -4 -37 -36t-58 -68t-52 -69l-21 -33q0 -14 2 -19l4 -10t7 -12t5 -21q-4 -30 -14 -44 t-19 -24t-19 -15t-10 -9q0 -20 7 -32t7 -26v-10q0 -28 -12 -54t-36 -42v-24l48 -28h14q30 38 92 38q24 0 36 -7t32 -7q8 0 11 10t12 22t24 21t43 9q14 0 24 -2t15 -5t7 -5t12 -2q4 0 38 24t72 53t72 55t38 32q0 4 -9 9t-19 10t-19 14t-9 23q0 34 28 61t72 46t89 28t79 9 q24 0 31 -24t7 -42v-20q0 -28 10 -28t41 7t69 7q48 0 87 -29t39 -71l-6 -48q6 -20 30 -32t50 -24t48 -31t22 -57q0 -48 -32 -75t-74 -27q-44 0 -89 24t-93 53t-94 53t-94 24q-34 0 -70 -22t-74 -50t-77 -57t-67 -39v-4h796q44 0 68 -10t41 -22t24 -26t11 -34zM2226 1532 q0 18 -7 23t-31 5t-41 -10t-29 -22l-21 -21t-15 -9q-14 0 -21 5t-7 29q0 18 26 35t46 41q0 14 2 33t2 53q0 44 -9 73t-53 29q-20 0 -39 -15t-47 -15q-6 0 -8 27t-9 60t-24 62t-51 29q-18 0 -38 -12t-20 -32q0 -42 27 -85t58 -87t55 -96t24 -116q0 -38 -29 -86t-62 -91 t-62 -77t-29 -52q14 -10 28 -22t38 -22q10 14 37 55t58 84t60 75t47 32q10 0 17 -8t14 -20t12 -19t15 -7q14 0 31 22t29 51t19 57t7 44zM3024 806q0 20 -17 37t-39 29t-41 21t-29 9q-14 0 -24 -2t-24 -2l-2 2q-2 2 -2 12t14 31t14 45q0 34 -29 46t-85 12q-20 0 -39 -2 t-29 -2q-28 -20 -43 -46t-39 -26t-26 9t-2 19t9 17t21 22t22 34t10 47q0 20 -2 27t-32 7q-10 0 -38 -10t-57 -22t-53 -28t-24 -36q0 -10 9 -15t19 -12t20 -16t10 -25q0 -14 -34 -40t-75 -55t-79 -55t-52 -46q14 -20 19 -32t19 -26q14 0 48 29t74 65t88 67t96 31 q64 0 112 -26t93 -57t91 -55t98 -24q14 0 22 12t8 30zM1728 2036q0 18 -15 40t-29 32q-20 -10 -34 -32t-14 -40v-774q0 -24 4 -24q10 0 17 5t27 5q14 0 21 -5t13 -5q10 0 10 24v774zM3192 600q-16 14 -35 29t-37 15h-774q-24 0 -24 -10q0 -6 5 -13t5 -21q0 -10 -5 -22 t-5 -16q0 -6 24 -6h774q18 0 37 12t35 32zM1550 1210q0 18 -29 50t-65 75t-65 93t-29 104q0 56 24 104t55 92t55 84t24 84v4q0 20 -16 32t-36 12q-14 0 -31 -19t-29 -41t-22 -43t-10 -27l10 -34q0 -18 -7 -21l-7 -3q-10 0 -36 20t-46 20q-38 0 -52 -29t-14 -73v-18 q0 -20 7 -37t11 -31q20 -24 46 -41t26 -35q-10 -24 -19 -29t-19 -5q-4 0 -12 9t-20 21t-31 22t-47 10h-10q-14 0 -21 -5t-7 -23q0 -16 7 -44t21 -57t31 -51t37 -22q8 0 13 7t10 19t15 20t24 8t43 -32t58 -75t57 -84t48 -55q10 10 24 22t34 22zM3024 384q0 20 -8 36t-22 16 h-14q-48 0 -91 -24t-86 -52t-89 -52t-104 -24h-14q-44 0 -92 31t-88 64t-74 60t-48 27q-14 -10 -19 -29t-19 -39q14 -10 52 -38t79 -57t75 -58t34 -39q0 -14 -10 -24t-20 -17t-19 -12t-9 -9q0 -20 24 -39t53 -31t57 -21t38 -9q30 0 32 7t2 25v10q0 30 -10 46t-22 31t-21 22 t-9 17q0 14 2 16t26 2q30 0 42 -19t40 -37q10 -6 29 -13t39 -7h18q34 0 65 12t31 46q0 14 -5 19t-5 15q-4 18 -11 33t-7 29q0 10 14 10l38 -10h10q10 4 29 14t38 22t34 26t15 24zM2280 600q0 20 -12 53t-29 64t-39 55t-46 24q-38 0 -52 -48q4 -24 21 -69t17 -79t-17 -79 t-21 -69q14 -58 52 -58q24 0 46 24t39 57t29 69t12 56zM1890 1076q0 24 -26 43t-60 36t-70 26t-50 9q-24 0 -58 -9t-67 -26t-57 -36t-24 -43t12 -36t36 -22q28 10 76 24t82 14t79 -14t65 -24q28 10 45 22t17 36zM1842 926q0 24 -17 41t-41 27t-50 17t-50 7q-28 0 -57 -5 t-53 -15t-39 -26t-15 -46q0 -62 24 -76t40 -14q18 0 49 9t51 9t44 -9t42 -9q10 0 22 2t24 12t19 26t7 50zM2102 600q-6 24 -10 53t-16 55t-32 43t-48 17q-52 0 -69 -31t-17 -45q0 -20 14 -49t14 -43q0 -20 -14 -46t-14 -40q0 -24 17 -51t69 -27q28 -4 48 13t32 41t16 55 t10 55zM1876 604q0 88 -55 145t-137 57q-76 0 -134 -57t-58 -145q0 -38 14 -74t41 -62t63 -43t74 -17q82 0 137 58t55 138zM1444 514q0 18 -12 42t-12 44q0 14 12 43t12 49q0 14 -14 45t-68 31q-28 0 -45 -17t-29 -43t-14 -55t-2 -53t2 -53t12 -53t29 -41t47 -17q54 0 68 27 t14 51zM1842 284q0 52 -29 66t-43 14q-18 6 -42 -4t-44 -10t-46 7t-54 7q-16 0 -40 -14t-24 -66q0 -30 15 -47t39 -29t53 -14t57 -6q24 4 50 6t50 14t41 29t17 47zM1262 452q-6 4 -13 28t-16 62t-9 58q0 34 12 79t26 69q-10 48 -62 48q-24 0 -44 -24t-34 -55t-21 -64t-7 -53 t7 -56t21 -69t34 -57t44 -24q52 0 62 58zM1890 120q0 28 -17 40t-45 18q-20 -10 -65 -22t-79 -12t-82 12t-76 22q-48 -6 -48 -58q0 -24 24 -46t57 -36t67 -21t58 -7q14 0 50 7t70 21t60 36t26 46zM2226 -336q0 14 -7 43t-19 58t-29 50t-31 21q-10 0 -15 -7t-12 -16t-14 -17 t-17 -8h-14q-10 0 -39 32t-57 72t-55 79t-37 53q-24 -10 -38 -19t-28 -19q0 -14 29 -48t62 -77t62 -94t29 -93q0 -62 -24 -110t-55 -94t-58 -89t-27 -91q0 -20 17 -25t41 -5q10 0 27 17t31 36t24 41t10 26l-6 44q0 10 16 10q14 0 35 -15t41 -15q44 0 53 27t9 85q0 18 -2 40 t-2 32q-20 24 -46 43t-26 43q0 28 28 28q6 0 15 -12t21 -24t29 -24t41 -12t31 5t7 29zM1108 792q-14 20 -53 46t-79 57t-72 60t-32 43q0 24 22 31t36 27q0 20 -24 36t-55 28t-60 22t-39 10q-28 0 -33 -12t-5 -32q0 -24 10 -43t24 -31t24 -24t10 -26q0 -10 -7 -12t-23 -2 q-24 0 -43 26t-37 46q-16 0 -44 7t-68 7q-38 0 -55 -17t-17 -55q0 -34 15 -51t15 -21q0 -14 -10 -14q-4 0 -16 2t-32 2q-14 -10 -36 -19t-43 -21t-36 -29t-15 -37q0 -32 44 -32q48 0 91 24t89 55t94 57t110 26q42 -4 93 -35t94 -67t77 -63t48 -27zM1728 -44h-10l-34 -4h-20 q-14 0 -28 4v-796q0 -10 14 -39t34 -33q14 4 29 33t15 39v796zM1032 600v44h-788q-10 0 -22 -5t-24 -12t-21 -15t-9 -12t9 -12t21 -15t24 -12t22 -5h788v44zM1108 398q-14 20 -24 39t-14 29q-14 0 -48 -29t-77 -63t-94 -62t-99 -28q-52 0 -100 24t-94 52t-89 52t-85 24h-16 q-18 0 -28 -14t-10 -28v-10q6 -10 22 -24t36 -26t39 -22t33 -14q10 0 22 5t22 5q4 0 9 -3t5 -7v-6q0 -14 -12 -26t-18 -30v-30q0 -38 27 -50t65 -12h14q20 0 41 7t37 13l37 37t43 19q30 0 30 -18l-17 -12t-34 -41t-17 -63q0 -24 5 -33t33 -9q10 0 39 9t60 21t55 31t24 39 q-14 14 -36 21t-22 41q0 10 32 39t72 58t79 57t53 38zM1492 24q-20 -14 -48 -53t-60 -79t-58 -72t-36 -32h-4q-14 0 -24 8t-15 17t-10 16t-13 7q-20 0 -37 -21t-31 -50t-21 -58t-7 -43q0 -24 7 -29t31 -5q28 0 45 10t29 22t19 21t17 9l14 10q6 0 10 -9t14 -19q0 -24 -26 -43 t-46 -43q-4 -10 -11 -32t-7 -40v-16q0 -38 14 -67t52 -29h14q10 0 16 6q18 10 30 17t22 7h4q10 0 10 -5v-9l-10 -40v-4q6 -10 18 -29l24 -38t29 -34t31 -15t28 10t14 24q0 48 -24 91t-55 87t-55 89t-24 103v14q0 48 29 96t65 91t65 75t29 46zM1742 604q0 -24 -19 -40 t-39 -16q-24 0 -41 16t-17 40t17 41t41 17q20 0 39 -17t19 -41z" />
<glyph unicode="&#xfc8;" horiz-adv-x="2120" d="M1184 1838q0 16 -9 23t-19 7q-20 0 -47 -9t-43 -9t-46 7t-52 11q-10 0 -19 -7t-9 -23t14 -25t33 -13t40 -6t35 -2q18 0 40 2t40 6t30 13t12 25zM864 136q6 0 19 2t26 7t22 12t9 19q0 8 -8 12t-18 10t-18 15t-8 27q0 30 22 55t54 25q38 0 63 -38t39 -78q6 16 13 36t17 38 t25 30t37 12q30 0 59 -21t29 -69q0 -20 -20 -28t-38 -12q0 -16 13 -35t29 -19q14 0 26 22q8 22 13 45t19 23q12 0 32 -26q22 -16 46 -26t52 -10t54 14q4 6 9 13t5 13q-78 28 -159 61t-139 91q-30 -6 -62 -9t-60 -3q-36 0 -63 5t-61 13q-86 -58 -163 -98t-149 -60 q4 -28 17 -37t33 -9q38 0 80 21t64 33q18 -2 23 -9t6 -18t1 -24t10 -25zM1040 -1088v1224q-8 16 -17 38t-19 43t-19 36t-17 15q-20 0 -30 -8t-10 -12q0 -6 8 -13t19 -14t19 -16t8 -19q0 -48 -36 -73t-72 -25q-50 0 -64 58q-24 -10 -60 -23t-66 -13zM1086 -1084l3 6t13 40 t31 106t60 205t99 337t148 504q-36 4 -70 9t-64 27h-4q-20 -58 -82 -58q-12 0 -26 9t-26 23t-20 30t-8 32q0 18 10 25t23 11t23 8t10 14q0 16 -25 20t-33 4q-10 0 -19 -16t-16 -38l-14 -44t-13 -34v-1220zM1044 -1262l-414 1390q-16 16 -30 45t-14 49q0 10 14 22q36 6 74 23 t75 38t73 43t70 40q0 6 -4 10q-2 2 -2 4q-12 20 -12 44q0 26 14 46q-4 28 -9 46t-5 34q0 38 32 96q-14 16 -23 33t-9 39q0 34 32 62q-6 36 -19 73t-25 75t-21 76t-9 74q0 10 2 18t16 12q18 54 39 124t21 124q-24 14 -39 34t-15 42q0 10 6 25t16 25q-20 30 -26 60t-6 58 q0 46 10 78t22 54q14 24 32 42q-4 10 -9 21t-5 21q0 22 18 43t18 29q0 10 -4 19t-4 17q0 26 10 65t28 75t44 62t60 26t60 -26t43 -62t25 -75t8 -65q0 -14 -4 -23t-4 -13q4 -14 20 -28t16 -44q0 -28 -10 -50l-2 -2q0 -2 2 -2q20 -30 35 -75t15 -83q-4 -30 -11 -60t-17 -62 q0 -6 3 -11t7 -15q8 -20 8 -32q0 -40 -48 -76q10 -58 20 -121t34 -119q20 -6 23 -15t3 -29q-14 -70 -36 -142t-32 -142q14 -10 21 -32t7 -40q0 -20 -8 -39t-28 -29q6 -14 14 -37t8 -39q0 -22 -5 -42t-5 -44q28 -24 28 -66q0 -32 -22 -58q58 -48 138 -82t154 -58l6 -6t2 -8 q0 -10 -5 -24t-12 -29t-14 -29t-9 -22l-410 -1380q0 -4 -7 -9t-11 -5q-22 0 -22 14zM1066 392q18 0 42 1t47 5t39 12t16 24q0 10 -12 32q-32 0 -66 -9t-66 -11q-40 0 -74 6l-68 12q-2 -10 -2 -15v-11q0 -18 14 -27t36 -13t47 -5t47 -1zM1184 510q6 8 7 32t1 30q0 22 -5 41 t-21 33q-8 0 -22 -1t-29 -1h-29h-20t-23 1t-36 2t-35 3t-22 4q-32 -46 -32 -82q0 -14 4 -28t10 -34q24 -6 65 -10t69 -8q18 0 51 7t67 11zM1066 686q24 0 65 2t71 16q4 6 6 11t2 11q0 28 -30 28q-30 -2 -60 -8t-54 -6q-40 0 -74 6t-68 8q-2 -4 -4 -10t-2 -10q0 -18 16 -28 t40 -14t49 -5t43 -1zM1036 790v148q-8 64 -52 102t-106 42q2 -34 12 -69t22 -70t22 -70t16 -71q16 -4 39 -8t47 -4zM1084 790q24 4 46 8l44 8q10 70 32 140t36 140h-15t-25 -4q-36 -12 -59 -24t-36 -28t-18 -38t-5 -54v-148zM1062 1022q14 18 26 32q10 12 18 23t10 13 q-4 6 -13 16t-17 21t-15 19t-9 8l-14 -14t-20 -21t-17 -21t-7 -12q20 -16 32 -31t26 -33zM900 1130q14 -6 28 -11t30 -5q10 2 24 13t27 26t22 30t9 21v148q-28 0 -46 4t-40 8q-6 -64 -26 -122t-28 -112zM1156 1114q10 0 32 6t32 10q0 4 -4 15t-14 49q-10 44 -21 86t-15 80 q-22 -4 -41 -6t-41 -2v-148q16 -22 33 -45t39 -45zM910 1474q-4 -6 -4 -20q0 -16 8 -22q10 -12 31 -18t43 -9t44 -3h34q32 0 74 3t70 23q2 4 2 18q0 10 -4 19t-14 9q-28 -2 -62 -8t-66 -6q-16 0 -37 2t-44 5t-43 5t-32 2zM968 1510q46 -10 98 -10q24 0 50 5t32 13l-82 80 q-2 0 -17 -13t-33 -28t-33 -30t-15 -17zM918 1532q4 2 19 16t34 31t36 31t23 20q-28 28 -55 57t-43 57h-4q-14 -24 -25 -58t-11 -68q0 -22 4 -44t18 -42h4zM1202 1532h4q14 50 14 94q0 58 -26 116q-2 0 -2 -4q-4 -6 -20 -23t-32 -37q-20 -22 -42 -48q50 -50 104 -98z M982 1752q0 -6 11 -18t24 -26t26 -27l19 -19q6 0 18 12t26 27t24 29t10 18t-8 4t-20 -2t-25 -4t-21 -2q-12 2 -26 5t-27 5t-22 2t-9 -4zM982 1904q20 -4 41 -10t43 -2q18 0 37 5t41 9q4 16 6 28t2 26q0 18 -6 46t-18 53t-28 44t-34 19q-22 0 -39 -19t-29 -44t-18 -52t-8 -43 q0 -16 3 -30t7 -30z" />
<glyph unicode="&#xfc9;" horiz-adv-x="2000" d="M1012 -356q-218 0 -385 82t-280 214t-171 297t-58 331q0 38 12 94t34 117t49 121t59 109t64 79t62 30q-10 -38 -21 -71t-21 -66t-16 -68t-6 -77q0 -124 63 -226t162 -177t219 -116t236 -41q122 0 244 44t218 120t156 177t60 215q0 72 -6 144t-28 148q50 -30 92 -80 t70 -115t44 -143t16 -164q0 -194 -53 -371t-160 -312t-270 -215t-385 -80zM1012 -290q204 0 354 79t250 205t149 280t49 304q0 94 -18 203t-62 205q8 -42 12 -85t4 -77q0 -36 -14 -95t-47 -127t-90 -138t-142 -126t-203 -92t-272 -36q-6 0 -59 7t-130 30t-165 65t-164 111 t-126 169t-52 240q0 36 6 77t22 81q-58 -94 -97 -204t-39 -226q0 -138 52 -288t156 -275t260 -206t366 -81zM1016 376q-110 0 -215 37t-188 106t-133 166t-50 217q0 70 21 154t62 157t102 122t141 51q10 0 25 -3t15 -17q-28 -44 -42 -95t-14 -103q0 -68 21 -120t58 -88 t88 -54t109 -18q148 0 229 82t81 218q0 90 -90 180q66 -2 131 -37t117 -94t84 -137t32 -164q0 -136 -49 -240t-131 -175t-187 -108t-217 -37zM1010 444q78 0 171 27t172 83t132 143t53 207q0 50 -10 104t-34 107t-61 101t-91 84q18 -26 28 -54t10 -74q0 -94 -36 -159 t-90 -106t-116 -60t-116 -19q-38 0 -95 13t-111 49t-93 103t-39 175q0 80 40 166q-78 -30 -125 -87t-72 -118t-33 -117t-8 -84q0 -94 36 -181t104 -155t165 -108t219 -40zM1094 1692q12 -4 28 -39t16 -71q0 -26 -10 -57t-26 -63t-36 -65t-40 -63q-30 -46 -51 -85t-21 -63 q0 -18 16 -34t46 -16q16 0 31 10t15 22t-4 23t-30 17q-2 6 -3 12t-1 16q0 40 28 70t82 30q26 0 51 -12t44 -33t30 -48t11 -55q0 -112 -72 -177t-190 -65q-40 0 -80 16t-72 49t-51 85t-19 124q0 70 38 121t88 103q52 54 95 113t47 147zM1084 1648q0 -30 -13 -60t-33 -62 t-45 -63t-49 -61q-42 -50 -74 -94t-32 -76q0 -34 7 -72t26 -71t52 -55t85 -22q60 0 100 15t63 39t32 54t9 62q0 38 -18 70t-76 32q-16 0 -29 -13t-19 -31q24 -12 34 -32t10 -44q0 -16 -12 -31t-28 -27t-33 -19t-29 -7q-30 0 -51 12t-34 29t-19 36t-6 35q0 12 8 32t20 42 t27 46t27 44q38 58 73 118t35 106q0 32 -6 68h-2z" />
<glyph unicode="&#xfca;" horiz-adv-x="1800" d="M934 1390q158 0 295 -59t239 -159t161 -235t59 -285q0 -172 -63 -325t-174 -269t-261 -183t-324 -67q-148 0 -285 58t-241 158t-166 234t-62 286q0 170 60 324t169 270t260 184t333 68zM574 810q-78 0 -147 -34t-119 -89t-79 -123t-29 -136q0 -104 65 -202t164 -175 t217 -124t224 -47q142 0 269 58t227 153t165 217t83 252q-52 -116 -148 -177t-214 -61q-82 0 -140 23t-100 60t-73 84t-57 93q-24 42 -51 83t-63 73t-83 52t-111 20zM1258 394q72 0 134 34t107 88t71 118t26 124q0 116 -65 219t-164 178t-217 119t-222 44q-142 0 -271 -53 t-229 -145t-161 -216t-69 -266q26 58 66 104t90 77t106 47t114 16q80 0 137 -23t100 -60t75 -83t60 -92q24 -42 52 -83t64 -74t84 -53t112 -20zM1162 744q0 40 26 67t66 27t67 -27t27 -67t-27 -66t-67 -26t-66 26t-26 66zM462 456q0 40 26 67t66 27t67 -27t27 -67t-27 -66 t-67 -26t-66 26t-26 66z" />
<glyph unicode="&#xfcb;" horiz-adv-x="1800" d="M1684 602q0 -166 -63 -309t-170 -248t-249 -166t-302 -61q-154 0 -295 64t-250 172t-174 250t-65 298q0 160 62 302t169 248t249 168t304 62t305 -62t249 -168t168 -248t62 -302zM408 474q0 72 19 141t57 123t93 86t125 32q26 0 55 -4t56 -18t54 -40t51 -68q6 -10 8 -31 t4 -37q4 -16 4 -32q4 -10 21 -19t63 -9q40 0 72 16t54 42t33 58t11 64q0 90 -45 154t-109 105t-133 59t-117 18q-124 0 -231 -55t-185 -134t-123 -169t-45 -158q0 -138 54 -265t148 -225t220 -157t270 -61q-72 24 -157 72t-158 120t-121 170t-48 222zM900 1310 q-110 0 -211 -32t-187 -89t-153 -137t-109 -174q44 74 97 133t118 100t146 63t183 22q82 0 167 -33t154 -89t113 -131t44 -159q0 -46 -18 -91t-51 -81t-81 -58t-106 -22q-48 0 -116 42q-28 -4 -41 -36t-13 -64q0 -46 23 -84t58 -64t77 -40t82 -14q102 0 183 40t136 109 t85 161t30 196q0 126 -54 224t-141 167t-196 105t-219 36zM1612 602q0 42 -13 101t-25 101q0 -106 -29 -214t-89 -195t-153 -141t-223 -54q-56 0 -111 18t-99 52t-71 86t-27 118q0 24 7 55t33 65q22 20 35 44t13 42q0 44 -49 73t-109 29q-58 0 -100 -30t-70 -75t-41 -101 t-13 -106q0 -100 53 -195t134 -170t177 -121t182 -46q116 0 222 56t187 149t130 213t49 246zM1098 768q0 -26 -21 -44t-43 -18q-28 0 -47 18t-19 44q0 28 19 46t47 18q22 0 43 -18t21 -46zM1078 418q0 -26 -21 -44t-43 -18q-28 0 -47 18t-19 44q0 28 19 46t47 18 q22 0 43 -18t21 -46zM742 620q0 -26 -21 -44t-43 -18q-28 0 -47 18t-19 44q0 28 19 46t47 18q22 0 43 -18t21 -46z" />
<glyph unicode="&#xfcc;" horiz-adv-x="1800" d="M1600 604q0 102 -30 201t-86 183t-135 149t-175 101q64 -50 90 -105t26 -145q0 -80 -23 -150t-67 -124t-105 -88t-139 -44q0 -66 31 -119t80 -91t109 -59t120 -21q58 0 113 29t97 74t68 101t26 108zM206 602q0 -104 29 -203t84 -184t135 -154t182 -113q-62 56 -93 119 t-31 157q0 78 24 146t69 122t108 90t141 48q0 64 -31 117t-80 91t-109 59t-120 21t-116 -29t-98 -75t-68 -102t-26 -110zM902 1302q-104 0 -203 -31t-183 -87t-150 -135t-102 -177q26 30 52 53t56 38t67 23t83 8q78 0 148 -24t124 -69t90 -108t48 -141q62 0 113 31t88 80 t58 109t21 120t-29 116t-74 99t-100 69t-107 26zM904 -90q102 0 201 29t183 84t148 133t100 176q-50 -64 -104 -90t-148 -26q-78 0 -147 23t-123 66t-89 105t-47 138q-64 0 -118 -30t-92 -77t-59 -106t-21 -119t30 -115t76 -97t102 -68t108 -26zM902 1378q162 0 303 -62 t246 -169t165 -250t60 -305q0 -158 -62 -298t-168 -244t-246 -164t-298 -60q-160 0 -302 61t-248 167t-167 247t-61 303q0 158 61 299t167 247t248 167t302 61zM660 712q0 -26 -21 -44t-43 -18q-28 0 -47 18t-19 44q0 28 19 46t47 18q22 0 43 -18t21 -46zM1286 490 q0 -26 -21 -44t-43 -18q-28 0 -47 18t-19 44q0 28 19 46t47 18q22 0 43 -18t21 -46zM1088 890q0 -26 -21 -44t-43 -18q-28 0 -47 18t-19 44q0 28 19 46t47 18q22 0 43 -18t21 -46zM848 310q0 -26 -21 -44t-43 -18q-28 0 -47 18t-19 44q0 28 19 46t47 18q22 0 43 -18t21 -46z " />
<glyph unicode="&#xfcf;" horiz-adv-x="1600" d="M1194 172l-208 -178q-16 -12 -28 -12q-26 0 -26 24q0 14 16 30l190 190l-200 192q-8 8 -8 18q0 22 22 22h106q10 0 23 -14t21 -24l104 -124l148 148q14 14 28 14q10 0 16 -6l38 -42q8 -8 8 -16q0 -10 -9 -18t-19 -14l-154 -132l188 -218q0 -10 -10 -21t-24 -11 q-16 0 -34 14zM408 172l-208 -178q-16 -12 -28 -12q-26 0 -26 24q0 14 16 30l190 190l-200 192q-8 8 -8 18q0 22 22 22h106q10 0 23 -14t21 -24l104 -124l148 148q14 14 28 14q10 0 16 -6l38 -42q8 -8 8 -16q0 -10 -9 -18t-19 -14l-154 -132l188 -218q0 -10 -10 -21t-24 -11 q-16 0 -34 14zM808 894l-208 -178q-16 -12 -28 -12q-26 0 -26 24q0 14 16 30l190 190l-200 192q-8 8 -8 18q0 22 22 22h106q10 0 23 -14t21 -24l104 -124l148 148q14 14 28 14q10 0 16 -6l38 -42q8 -8 8 -16q0 -10 -9 -18t-19 -14l-154 -132l188 -218q0 -10 -10 -21t-24 -11 q-16 0 -34 14z" />
<glyph unicode="&#xfd0;" horiz-adv-x="3200" d="M3072 964q0 -8 -25 -16t-59 -15t-68 -11t-54 -4q-160 0 -290 42t-239 107t-201 145t-176 158q-72 68 -156 127t-185 102t-219 67t-260 24q-280 0 -534 -72t-496 -204q-18 -10 -43 -16t-45 -6q-22 0 -22 18t14 36t34 33t41 27t33 20q92 62 194 126t225 115t272 83t339 32 q150 0 281 -31t247 -83t217 -121t189 -145q114 -100 216 -186t198 -149t190 -100t192 -37q18 0 50 -3t63 -11t54 -20t23 -32zM1104 1008q-60 -8 -118 -31t-111 -56t-100 -74t-85 -83q-8 -8 -8 -22t12 -21t22 -7q30 0 60 16t69 36t91 36t126 16q80 0 145 -11t124 -37t113 -67 t114 -101q10 -10 17 -24t21 -14q10 0 22 7t12 17q0 26 -30 91t-84 133t-129 122t-165 60q38 18 76 42t67 59t47 85t18 120q0 50 -22 91t-61 70t-93 45t-116 16q-64 0 -150 -34t-175 -87t-172 -116t-139 -123q-10 -6 -10 -20q0 -10 12 -21t24 -11q14 0 30 10q26 20 85 56 t133 71t155 60t151 25q32 0 65 -10t59 -29t43 -47t17 -62q0 -28 -19 -52t-44 -47t-53 -42t-46 -35zM716 450q-14 -16 -24 -28t-10 -34q0 -14 12 -19t22 -5q16 0 47 14t75 30t100 30t122 14q80 0 145 -9t123 -31t114 -60t116 -98q12 -10 26 -23t26 -13q22 0 22 22q0 2 -12 33 t-37 75t-63 95t-91 95t-121 73t-152 29q-72 0 -138 -16t-122 -42t-102 -61t-78 -71z" />
<glyph unicode="&#xfd1;" horiz-adv-x="1562" d="M1384 -958q-14 0 -34 4t-39 9t-36 11t-27 10q-190 110 -360 226q-74 50 -151 105t-149 114t-135 117t-109 114l18 14q44 34 98 79t102 99t80 118t32 136q0 26 -32 49t-62 23q-34 0 -59 -7t-47 -15t-44 -15t-48 -7q-18 0 -18 16q0 12 25 41t65 61t90 56t100 24 q42 0 81 -11t69 -32t48 -49t18 -64q0 -98 -25 -160t-63 -106t-85 -77t-91 -71q32 -56 81 -117t106 -122t118 -121t119 -114q138 -126 292 -250q8 -4 23 -15t28 -23t23 -23t10 -17q0 -10 -12 -10zM684 1130q18 16 46 35t53 42t44 47t19 52q0 34 -17 62t-43 47t-59 29t-65 10 q-70 0 -151 -25t-155 -60t-133 -71t-85 -56q-16 -10 -30 -10q-12 0 -24 11t-12 21q0 14 10 20q56 60 139 123t172 116t175 87t150 34q62 0 116 -16t93 -45t61 -70t22 -91q0 -70 -18 -120t-47 -85t-67 -59t-76 -42q90 -6 165 -60t129 -122t84 -133t30 -91q0 -10 -12 -17 t-22 -7q-14 0 -21 14t-17 24q-60 60 -114 101t-113 67t-124 37t-145 11q-74 0 -126 -16t-91 -36t-69 -36t-60 -16q-10 0 -22 7t-12 21t8 22q38 42 85 83t100 74t111 56t118 31zM296 572q32 36 78 71t102 61t122 42t138 16q84 0 152 -29t121 -73t91 -95t63 -95t37 -75t12 -33 q0 -22 -22 -22q-12 0 -26 13t-26 23q-60 60 -116 98t-114 60t-123 31t-145 9q-66 0 -122 -14t-100 -30t-75 -30t-47 -14q-10 0 -22 5t-12 19q0 22 10 34t24 28z" />
<glyph unicode="&#xfd2;" horiz-adv-x="380" d="M200 742q-16 0 -24 10t-20 36q-12 24 -27 51t-28 52t-23 47t-10 34q0 22 17 43t53 21h124q36 0 53 -21t17 -43q0 -12 -10 -34t-23 -47t-28 -52t-27 -51q-12 -26 -20 -36t-24 -10zM200 1194q-16 0 -24 10t-20 36q-12 24 -27 51t-28 52t-23 47t-10 34q0 22 17 43t53 21h124 q36 0 53 -21t17 -43q0 -12 -10 -34t-23 -47t-28 -52t-27 -51q-12 -26 -20 -36t-24 -10z" />
<glyph unicode="&#xfd3;" horiz-adv-x="2160" d="M1678 1512q54 0 123 -22t130 -68t102 -118t41 -170q0 -112 -43 -229t-120 -211t-182 -154t-231 -60q-100 0 -197 48t-195 121t-195 160t-193 163q-86 68 -158 133t-144 124t-152 110t-182 93q-56 22 -56 48q0 12 10 22t32 10q122 0 244 -62t246 -156t250 -202t258 -202 t271 -156t289 -62q66 0 120 25t92 70t59 107t21 134q0 48 -13 102t-52 101t-110 78t-189 31q-40 0 -66 -17t-26 -59q0 -40 39 -65t87 -48t87 -51t39 -72q0 -24 -6 -49t-17 -46t-24 -35t-25 -14t-58 19t-97 58t-92 97t-41 136q0 28 15 85t52 113t99 98t158 42z" />
<glyph unicode="&#xfd4;" horiz-adv-x="1220" d="M-106 1104q18 -16 60 -54t102 -86t136 -100t161 -96t177 -72t186 -28q66 0 120 26t94 71t62 108t22 135q0 48 -13 102t-52 101t-111 78t-190 31q-88 0 -88 -74q0 -44 39 -70t86 -48t86 -49t39 -71q0 -24 -7 -49t-17 -47t-23 -36t-25 -14q-14 0 -60 20t-96 59t-90 97 t-40 136q0 28 13 85t49 114t98 99t160 42q56 0 126 -22t132 -69t104 -119t42 -170q0 -112 -45 -229t-125 -212t-187 -156t-231 -61q-100 0 -191 39t-170 97t-143 126t-109 126t-70 97t-25 41z" />
<glyph unicode="&#xfd5;" horiz-adv-x="1600" d="M320 1480v-560h400v560h720v-160h-560v-400h560v-720h-160v560h-400v-560h-720v160h560v400h-560v720h160z" />
<glyph unicode="&#xfd6;" horiz-adv-x="1600" d="M1440 1480v-720h-560v-400h560v-160h-720v560h-400v-560h-160v720h560v400h-560v160h720v-560h400v560h160z" />
<glyph unicode="&#xfd7;" horiz-adv-x="1600" d="M320 1480v-560h400v560h720v-160h-560v-400h560v-720h-160v560h-400v-560h-720v160h560v400h-560v720h160zM474 670q46 0 79 -33t33 -81q0 -46 -33 -79t-79 -33q-48 0 -80 33t-32 79q0 48 32 81t80 33zM520 1276q46 0 79 -33t33 -81q0 -46 -33 -79t-79 -33q-48 0 -80 33 t-32 79q0 48 32 81t80 33zM1080 630q46 0 79 -33t33 -81q0 -46 -33 -79t-79 -33q-48 0 -80 33t-32 79q0 48 32 81t80 33zM1122 1234q46 0 79 -33t33 -81q0 -46 -33 -79t-79 -33q-48 0 -80 33t-32 79q0 48 32 81t80 33z" />
<glyph unicode="&#xfd8;" horiz-adv-x="1600" d="M1440 1480v-720h-560v-400h560v-160h-720v560h-400v-560h-160v720h560v400h-560v160h720v-560h400v560h160zM1126 670q48 0 80 -33t32 -81q0 -46 -32 -79t-80 -33q-46 0 -79 33t-33 79q0 48 33 81t79 33zM1080 1276q48 0 80 -33t32 -81q0 -46 -32 -79t-80 -33 q-46 0 -79 33t-33 79q0 48 33 81t79 33zM520 630q48 0 80 -33t32 -81q0 -46 -32 -79t-80 -33q-46 0 -79 33t-33 79q0 48 33 81t79 33zM478 1234q48 0 80 -33t32 -81q0 -46 -32 -79t-80 -33q-46 0 -79 33t-33 79q0 48 33 81t79 33z" />
<glyph unicode="&#xfd9;" horiz-adv-x="1320" d="M80 526q0 -34 -23 -57t-57 -23q-32 0 -56 23t-24 57t24 57t56 23q34 0 57 -23t23 -57zM394 136q0 -34 -23 -57t-57 -23t-57 23t-23 57q0 32 23 56t57 24t57 -24t23 -56zM646 0q0 -34 -23 -57t-55 -23q-34 0 -57 23t-23 57t23 57t57 23q32 0 55 -23t23 -57zM918 -2 q0 -34 -23 -57t-57 -23t-57 23t-23 57t23 57t57 23t57 -23t23 -57zM1168 104q0 -32 -23 -56t-57 -24t-57 24t-23 56q0 34 23 57t57 23t57 -23t23 -57zM1388 236q0 -34 -23 -57t-57 -23t-57 23t-23 57t23 57t57 23t57 -23t23 -57zM204 294q0 -34 -23 -57t-55 -23 q-34 0 -57 23t-23 57q0 32 23 56t57 24q32 0 55 -24t23 -56z" />
<glyph unicode="&#xfda;" horiz-adv-x="1320" d="M1238 526q0 34 23 57t57 23q32 0 56 -23t24 -57t-24 -57t-56 -23q-34 0 -57 23t-23 57zM928 136q0 32 23 56t57 24t57 -24t23 -56q0 -34 -23 -57t-57 -23t-57 23t-23 57zM676 0q0 34 23 57t55 23q34 0 57 -23t23 -57t-23 -57t-57 -23q-32 0 -55 23t-23 57zM404 -2 q0 34 23 57t57 23t57 -23t23 -57t-23 -57t-57 -23t-57 23t-23 57zM154 104q0 34 23 57t57 23t57 -23t23 -57q0 -32 -23 -56t-57 -24t-57 24t-23 56zM-66 236q0 34 23 57t57 23t57 -23t23 -57t-23 -57t-57 -23t-57 23t-23 57zM1118 294q0 32 23 56t55 24q34 0 57 -24t23 -56 q0 -34 -23 -57t-57 -23q-32 0 -55 23t-23 57z" />
<glyph unicode="&#x2000;" horiz-adv-x="1248" />
<glyph unicode="&#x2001;" horiz-adv-x="2496" />
<glyph unicode="&#x2002;" horiz-adv-x="1248" />
<glyph unicode="&#x2003;" horiz-adv-x="2496" />
<glyph unicode="&#x2004;" horiz-adv-x="832" />
<glyph unicode="&#x2005;" horiz-adv-x="624" />
<glyph unicode="&#x2006;" horiz-adv-x="416" />
<glyph unicode="&#x2007;" horiz-adv-x="416" />
<glyph unicode="&#x2008;" horiz-adv-x="312" />
<glyph unicode="&#x2009;" horiz-adv-x="499" />
<glyph unicode="&#x200a;" horiz-adv-x="138" />
<glyph unicode="&#x2010;" horiz-adv-x="582" d="M32 616v122h524v-122h-524z" />
<glyph unicode="&#x2011;" horiz-adv-x="582" d="M32 616v122h524v-122h-524z" />
<glyph unicode="&#x2012;" horiz-adv-x="582" d="M32 616v122h524v-122h-524z" />
<glyph unicode="&#x2013;" horiz-adv-x="1082" d="M32 616v122h1024v-122h-1024z" />
<glyph unicode="&#x2014;" horiz-adv-x="2106" d="M32 616v122h2048v-122h-2048z" />
<glyph unicode="&#x202f;" horiz-adv-x="499" />
<glyph unicode="&#x205f;" horiz-adv-x="624" />
<glyph unicode="&#x25fc;" horiz-adv-x="970" d="M0 970h970v-970h-970v970z" />
</font>
</defs>
</svg>
