<?xml version="1.0" standalone="no"?>
<!DOCTYPE svg PUBLIC "-//W3C//DTD SVG 1.1//EN" "http://www.w3.org/Graphics/SVG/1.1/DTD/svg11.dtd" >
<svg xmlns="http://www.w3.org/2000/svg" xmlns:xlink="http://www.w3.org/1999/xlink" version="1.1">
<metadata>
Created by FontForge 20150102 at Thu Feb 12 08:32:22 2015
 By uniteet7
Copyright (c) 2006 by Chris Harvey. All rights reserved.
</metadata>
<defs>
<font id="Digohweli" horiz-adv-x="0" >
  <font-face 
    font-family="Digohweli"
    font-weight="400"
    font-stretch="normal"
    units-per-em="2048"
    panose-1="2 0 0 0 0 0 0 0 0 0"
    ascent="1638"
    descent="-410"
    x-height="1037"
    cap-height="1536"
    bbox="-142 -660 3339 2082"
    underline-thickness="102"
    underline-position="-103"
    unicode-range="U+0020-2060"
  />
<missing-glyph horiz-adv-x="602" 
 />
    <glyph glyph-name=".notdef" horiz-adv-x="602" 
 />
    <glyph glyph-name="space" unicode=" " horiz-adv-x="870" 
 />
    <glyph glyph-name="exclam" unicode="!" horiz-adv-x="553" 
d="M222 207q52 0 88.5 -34.5t36.5 -86.5t-36.5 -87t-88.5 -35t-89.5 35t-37.5 87t37.5 86.5t89.5 34.5zM185 393q-4 127 -21 258t-34 258.5t-30.5 249.5t-13.5 231q0 85 42 133.5t94 48.5q58 0 96.5 -48.5t38.5 -133.5q0 -109 -13.5 -231t-32 -249.5t-33.5 -258.5t-21 -258
h-72z" />
    <glyph glyph-name="quotedbl" unicode="&#x22;" horiz-adv-x="832" 
d="M531 912q-11 84 -27 154t-29.5 132.5t-24 124t-10.5 132.5q0 49 34 83t84 34t83.5 -34t33.5 -83q0 -71 -10 -132.5t-25 -124t-30 -132.5t-25 -154h-54zM149 912q-11 84 -27 154t-29.5 132.5t-24 124t-10.5 132.5q0 49 34.5 83t83.5 34q50 0 83.5 -34t33.5 -83
q0 -71 -9.5 -132.5t-24.5 -124t-30.5 -132.5t-25.5 -154h-54z" />
    <glyph glyph-name="numbersign" unicode="#" horiz-adv-x="1188" 
d="M334 531h384l82 381h-384zM317 998l114 538h118l-116 -538h384l116 538h115l-113 -538h201v-86h-219l-81 -381h300v-86h-319l-108 -501h-117l108 501h-383l-110 -501h-117l111 501l-201 -3v89h217l81 381h-298v86h317z" />
    <glyph glyph-name="dollar" unicode="$" horiz-adv-x="1172" 
d="M506 1485q-47 -8 -87 -29.5t-68 -54t-45 -72.5t-17 -79q0 -86 61 -160.5t156 -129.5v525zM597 52q54 9 100 36t80 64.5t53 82.5t19 93q0 99 -72 175.5t-180 134.5v-586zM506 694q-81 43 -156.5 93.5t-133.5 110t-92 133t-34 164.5q0 75 33 140.5t88.5 116t131 82
t163.5 38.5v109h91v-109q121 -7 215 -38.5t180 -69.5v-339h-46q-13 104 -42 169.5t-73.5 105t-103.5 57.5t-130 28v-584q80 -45 161.5 -97t146.5 -114t104 -136.5t39 -165.5q0 -80 -31.5 -155t-91.5 -132.5t-143.5 -94t-184.5 -42.5v-104h-91v104q-124 2 -222.5 26.5
t-193.5 76.5v312h54q24 -176 107 -251.5t255 -75.5v642z" />
    <glyph glyph-name="percent" unicode="%" horiz-adv-x="1895" 
d="M459 -36h-102l1102 1608h102zM1527 739q-50 0 -79.5 -43t-45.5 -102t-20 -121t-4 -100q0 -34 3 -94t18 -116.5t44.5 -98.5t78.5 -42q50 0 79.5 41t44 97.5t19 115t4.5 97.5q0 36 -4.5 98t-19 121t-43 103t-75.5 44zM1524 797q80 0 141 -37.5t101.5 -97t61 -136
t20.5 -153.5t-21.5 -150.5t-62 -131t-101.5 -92.5t-141 -35q-78 0 -138 35t-101 92.5t-62.5 131t-21.5 150.5t21.5 153.5t63.5 136t102 97t138 37.5zM395 1513q-50 0 -79 -43t-45 -101.5t-20.5 -120.5t-4.5 -101q0 -35 3.5 -94t18 -115.5t44 -98.5t78.5 -42q50 0 80 41
t44 97.5t18.5 115.5t4.5 96t-4.5 99t-18.5 120.5t-43 102.5t-76 44zM393 1572q79 0 140.5 -37t101.5 -97t60.5 -137t20.5 -154q0 -76 -21.5 -149.5t-62 -131.5t-101.5 -92.5t-141 -34.5q-78 0 -138 34.5t-101 92.5t-62.5 131.5t-21.5 149.5q0 77 21.5 154t63.5 137t102 97
t139 37z" />
    <glyph glyph-name="ampersand" unicode="&#x26;" horiz-adv-x="1825" 
d="M752 933q61 31 113 64t90.5 73t60 86t21.5 103q0 112 -53 174.5t-130 62.5q-41 0 -77 -23t-63 -58t-42 -77.5t-15 -85.5q0 -71 25 -154t70 -165zM585 763q-117 -69 -194 -162t-77 -202q0 -63 20.5 -117t57.5 -94.5t91 -63.5t123 -23q92 0 174.5 41t157.5 100
q-106 113 -193.5 249.5t-159.5 271.5zM1220 957h483v-40q-61 0 -105 -28.5t-78.5 -72.5t-63.5 -96t-57 -99q-50 -72 -98.5 -145t-110.5 -144q91 -90 170 -142t144 -52q87 0 148.5 33.5t100.5 119.5l43 -15q-32 -151 -133.5 -231.5t-250.5 -80.5q-97 0 -196.5 54.5
t-196.5 143.5q-113 -87 -246 -142.5t-290 -55.5q-108 0 -184.5 24.5t-125 68.5t-71.5 105.5t-23 135.5q0 105 39.5 187t105 146.5t149.5 115t172 93.5q-50 104 -77.5 189t-27.5 143q0 78 25 149t75 127t124.5 90t175.5 34q74 0 140 -21.5t114.5 -63t76.5 -101.5t28 -134
q0 -75 -36 -132.5t-93 -102.5t-132 -81.5t-149 -72.5q60 -115 145 -228t184 -221q50 56 88 113.5t65.5 106t40 88t12.5 60.5q-3 31 -6 56t-13 43t-30.5 27t-56.5 9z" />
    <glyph glyph-name="quotesingle" unicode="'" horiz-adv-x="502" 
d="M162 912q-11 84 -26.5 154t-29 132.5t-23.5 124t-10 132.5q0 49 33.5 83t83.5 34q49 0 83.5 -34t34.5 -83q0 -71 -10.5 -132.5t-25.5 -124t-30.5 -132.5t-24.5 -154h-55z" />
    <glyph glyph-name="parenleft" unicode="(" horiz-adv-x="832" 
d="M739 -479q-149 54 -272.5 157t-211 239.5t-137 296t-49.5 325.5t49.5 328.5t137 301.5t211 244t272.5 159v-40q-127 -84 -209 -196t-133.5 -240.5t-72 -271t-20.5 -285.5q0 -142 17.5 -280.5t64.5 -265t132 -237.5t221 -194v-41z" />
    <glyph glyph-name="parenright" unicode=")" horiz-adv-x="920" 
d="M104 -438q135 83 220 194t132.5 237.5t64 265t16.5 280.5q0 143 -20 285.5t-71 271t-134.5 240.5t-207.5 196v40q149 -54 272.5 -159t211 -244t136 -301.5t48.5 -328.5t-48.5 -325.5t-136 -296t-211 -239.5t-272.5 -157v41z" />
    <glyph glyph-name="asterisk" unicode="*" horiz-adv-x="1178" 
d="M547 1145q0 39 -11.5 80.5t-25 83.5t-25 79t-11.5 69q0 50 26 82.5t65 32.5q38 0 64 -32.5t26 -82.5q0 -32 -11.5 -69t-24.5 -79t-25 -83.5t-12 -80.5q35 21 65 51.5t59 63t56 61t53 43.5q43 26 84 18.5t58 -37.5q19 -32 4 -73t-58 -63q-26 -17 -63.5 -25.5t-80.5 -17.5
t-84 -20.5t-74 -31.5q31 -19 73 -30t85 -19t81.5 -17t65.5 -24q40 -28 56 -66t-5 -72q-17 -32 -58 -39t-84 18q-26 16 -52 44.5t-56 61t-60 63t-65 50.5q0 -38 12 -80t25 -83.5t24.5 -80t11.5 -68.5q0 -52 -26 -83.5t-64 -31.5q-39 0 -65 31.5t-26 83.5q0 30 11.5 68.5
t25 80t25 83.5t11.5 80q-34 -20 -64.5 -50.5t-59 -63t-56.5 -61t-55 -44.5q-43 -25 -83.5 -19t-58.5 38q-10 15 -10 36q0 26 16 54.5t48 46.5q24 14 64 22.5t83 18t84.5 20.5t75.5 32q-34 20 -75.5 31.5t-84.5 19t-82 16.5t-65 26q-41 26 -58 66t4 72q18 33 59.5 39
t84.5 -17q27 -18 54 -48t55.5 -61t59 -61.5t64.5 -51.5z" />
    <glyph glyph-name="plus" unicode="+" horiz-adv-x="1387" 
d="M628 1416h99v-510h534v-95h-534v-511h-99v511h-533v95h533v510z" />
    <glyph glyph-name="comma" unicode="," horiz-adv-x="711" 
d="M147 -325q52 13 98 40.5t80.5 62t54 75.5t19.5 84q0 24 -10 43.5t-25 19.5q-14 0 -24 -5.5t-20 -12.5t-24 -12.5t-36 -5.5q-45 0 -79 37.5t-34 93.5q0 58 46 99t111 41q43 0 80.5 -19.5t64.5 -52t43 -76.5t16 -94q0 -79 -29 -144.5t-79 -115.5t-115.5 -79t-137.5 -33v54z
" />
    <glyph glyph-name="hyphen" unicode="-" horiz-adv-x="752" 
d="M610 919v-136h-565v136h565z" />
    <glyph glyph-name="period" unicode="." horiz-adv-x="711" 
d="M274 207q51 0 88 -34.5t37 -86.5t-37 -87t-88 -35q-52 0 -89.5 35t-37.5 87t37.5 86.5t89.5 34.5z" />
    <glyph glyph-name="slash" unicode="/" horiz-adv-x="721" 
d="M515 1572h106l-515 -1608h-106z" />
    <glyph glyph-name="zero" unicode="0" horiz-adv-x="1202" 
d="M576 41q70 0 123 59.5t88 161.5t52 235t17 281q0 144 -17 275t-52 229t-88 156t-123 58q-72 0 -124.5 -58t-87 -156t-51.5 -229t-17 -275q0 -148 17 -281t51.5 -235t87 -161.5t124.5 -59.5zM576 -36q-115 0 -210 60t-162.5 168t-105 257.5t-37.5 328.5q0 162 37.5 306.5
t105 253t162.5 171.5t210 63q116 0 210.5 -63t162.5 -171.5t105 -253t37 -306.5q0 -179 -37 -328.5t-105 -257.5t-162.5 -168t-210.5 -60z" />
    <glyph glyph-name="one" unicode="1" horiz-adv-x="1202" 
d="M278 0v41q117 0 167 46t50 155v885q0 111 -17 170t-83 59q-27 0 -61 -9.5t-74 -20.5v43l402 203h32v-1330q0 -91 53 -146t163 -55v-41h-632z" />
    <glyph glyph-name="two" unicode="2" horiz-adv-x="1202" 
d="M75 0v41l485 502q104 110 167.5 231t63.5 263q0 67 -19.5 131.5t-58 114t-94.5 79.5t-131 30q-59 0 -115 -21.5t-101.5 -60t-77.5 -89.5t-41 -107h-40q7 95 45 178t99.5 145.5t139 98.5t163.5 36q108 0 191 -34t137 -93t82 -135.5t28 -160.5q0 -87 -30 -174t-81 -170
t-116.5 -160.5t-136.5 -149.5l-309 -321h470q34 0 70 4.5t70.5 18t62.5 37t48 62.5h54l-108 -296h-917z" />
    <glyph glyph-name="three" unicode="3" horiz-adv-x="1202" 
d="M357 800q160 20 259.5 116.5t99.5 249.5q0 104 -69 174t-182 70q-40 0 -83 -15t-82.5 -41t-73.5 -60.5t-54 -75.5l-41 17q22 71 59.5 131.5t89.5 106t118.5 72.5t148.5 27q76 0 143 -25t116.5 -69t78.5 -102.5t29 -129.5q0 -35 -16.5 -79t-44.5 -89.5t-67.5 -88.5
t-82.5 -77q60 -20 112 -62t91.5 -97t62.5 -119.5t23 -127.5q0 -135 -48.5 -236.5t-135 -169.5t-201.5 -102t-250 -34q-115 0 -179.5 35t-64.5 91q0 50 38.5 68t74.5 18q56 0 90 -17t62.5 -37.5t59 -37.5t82.5 -17q72 0 127.5 26.5t94 70t58.5 101.5t20 121q0 79 -28.5 148
t-85.5 119t-144.5 78t-204.5 28v41z" />
    <glyph glyph-name="four" unicode="4" horiz-adv-x="1202" 
d="M174 565h529v756zM703 397h-667v140l732 1035h133v-1007h199v-168h-199v-397h-198v397z" />
    <glyph glyph-name="five" unicode="5" horiz-adv-x="1202" 
d="M944 1347h-452l-104 -209q129 0 245.5 -45t205 -125t140 -190t51.5 -241q2 -119 -46.5 -223t-133.5 -182t-199 -123t-242 -45q-118 0 -190 45t-72 108q0 43 29 62.5t68 19.5q43 0 72 -18.5t60 -38.5t68 -38t99 -18q67 0 127 29t106 81t72.5 121t26.5 148
q0 106 -48.5 193.5t-139 148t-218.5 94.5t-286 34l300 601h549z" />
    <glyph glyph-name="six" unicode="6" horiz-adv-x="1202" 
d="M336 778q-8 -53 -12.5 -106t-4.5 -105q0 -106 18 -201t53 -167t90 -115t130 -43q52 0 97 28t79 77.5t54 116.5t20 142q0 97 -23.5 181.5t-62.5 147.5t-94 99t-115 36q-52 0 -116.5 -26t-112.5 -65zM1032 1532q-126 -12 -239.5 -71.5t-204.5 -152t-156.5 -212.5
t-92.5 -251q68 52 146 88.5t186 36.5q83 0 157.5 -36.5t130.5 -99t87.5 -147t31.5 -179.5q0 -113 -40 -212.5t-107.5 -172.5t-158 -116t-192.5 -43q-108 0 -199.5 47t-158 131t-102.5 196t-36 238q0 202 67.5 382t192 317t299 217t389.5 80v-40z" />
    <glyph glyph-name="seven" unicode="7" horiz-adv-x="1202" 
d="M1048 1496l-511 -1532h-134l460 1383h-425q-117 0 -192.5 -46.5t-130.5 -145.5l-46 13l136 368h843v-40z" />
    <glyph glyph-name="eight" unicode="8" horiz-adv-x="1202" 
d="M492 735q-47 -43 -82 -93t-56.5 -98.5t-31.5 -96.5t-10 -87q0 -67 21.5 -125.5t58.5 -101.5t88 -67.5t107 -24.5q57 0 109 17t89 47.5t59.5 71t22.5 86.5q0 33 -12 70.5t-32.5 74.5t-47.5 72t-57 59zM619 897q95 79 149 169.5t54 211.5q0 91 -67.5 154.5t-189.5 63.5
q-54 0 -98.5 -19.5t-75.5 -51t-49.5 -72t-18.5 -81.5q0 -56 27 -108t70 -98.5t96 -89.5t103 -79zM558 1572q95 0 175 -26t138 -72.5t90.5 -109t32.5 -137.5q0 -48 -27 -102t-73.5 -106t-104 -96t-118.5 -69q90 -59 158 -123.5t112 -129t66.5 -124t22.5 -106.5
q0 -84 -35 -158.5t-96 -129.5t-142.5 -87t-174.5 -32q-99 0 -180 28t-141 79t-92.5 120t-32.5 150q0 73 21.5 132.5t59.5 113t94.5 99.5t128.5 92q-76 60 -130.5 111t-88 100.5t-49.5 100.5t-16 117q0 74 31.5 140.5t86 116t127.5 79t157 29.5z" />
    <glyph glyph-name="nine" unicode="9" horiz-adv-x="1202" 
d="M813 761q7 50 13 111t6 120q0 101 -23 192.5t-63.5 160.5t-94.5 110t-116 41q-65 0 -110.5 -32t-75.5 -83t-44 -116.5t-14 -130.5q0 -102 17 -189t52 -148.5t89.5 -97t128.5 -35.5q60 0 127 28t108 69zM110 4q118 11 230 69t203 148.5t158 207t94 246.5q-73 -47 -145 -81
t-180 -34q-91 0 -164 41t-124 106t-79 151t-28 179q0 110 38 207.5t106 171t158.5 115t191.5 41.5q102 0 192.5 -48.5t158 -131t107.5 -194.5t40 -238q0 -206 -76.5 -388t-206 -317t-303 -213t-371.5 -78v40z" />
    <glyph glyph-name="colon" unicode=":" horiz-adv-x="711" 
d="M274 207q51 0 88 -34.5t37 -86.5t-37 -87t-88 -35q-52 0 -89.5 35t-37.5 87t37.5 86.5t89.5 34.5zM274 1060q51 0 88 -36.5t37 -85.5q0 -52 -37 -87.5t-88 -35.5q-52 0 -89.5 35.5t-37.5 87.5q0 49 37.5 85.5t89.5 36.5z" />
    <glyph glyph-name="semicolon" unicode=";" horiz-adv-x="711" 
d="M147 -325q52 13 98 40.5t80.5 62t54 75.5t19.5 84q0 24 -10 43.5t-25 19.5q-14 0 -24 -5.5t-20 -12.5t-24 -12.5t-36 -5.5q-45 0 -79 37.5t-34 93.5q0 58 46 99t111 41q43 0 80.5 -19.5t64.5 -52t43 -76.5t16 -94q0 -79 -29 -144.5t-79 -115.5t-115.5 -79t-137.5 -33v54z
M319 1060q52 0 89 -37.5t37 -89.5t-37 -89.5t-89 -37.5t-89.5 37.5t-37.5 89.5t37.5 89.5t89.5 37.5z" />
    <glyph glyph-name="less" unicode="&#x3c;" horiz-adv-x="1387" 
d="M1250 1317v-106l-983 -429l983 -411v-106l-1166 483v65z" />
    <glyph glyph-name="equal" unicode="=" horiz-adv-x="1387" 
d="M95 703h1166v-95h-1166v95zM95 1060h1166v-96h-1166v96z" />
    <glyph glyph-name="greater" unicode="&#x3e;" horiz-adv-x="1387" 
d="M1250 748l-1166 -483v106l983 411l-983 429v106l1166 -504v-65z" />
    <glyph glyph-name="question" unicode="?" horiz-adv-x="1106" 
d="M497 217q52 0 89 -37.5t37 -89.5q0 -51 -37 -88.5t-89 -37.5t-89 37.5t-37 88.5q0 52 37 89.5t89 37.5zM461 360q0 101 18 179t46.5 143.5t61 123t60.5 116.5t46 123.5t18 144.5q0 149 -71 223t-179 74q-95 0 -156 -42t-61 -106q0 -33 11.5 -53.5t24.5 -37.5t25 -36.5
t12 -45.5q0 -50 -26 -78t-65 -28q-52 0 -88.5 47.5t-36.5 119.5q0 92 39 157.5t98.5 107.5t133 61t143.5 19q95 0 174 -26t137 -73.5t89 -115.5t31 -150q0 -84 -31 -155t-80 -137t-104.5 -128t-104 -128.5t-80 -140t-31.5 -158.5h-54z" />
    <glyph glyph-name="at" unicode="@" horiz-adv-x="2140" 
d="M847 108q56 0 114 35.5t110 94t98.5 135.5t80 157t52.5 159t19 145q0 31 -14.5 62t-35.5 54.5t-47.5 36.5t-48.5 13q-63 0 -121 -36.5t-107.5 -98t-91.5 -140.5t-71.5 -160.5t-45.5 -159t-16 -138.5q0 -25 6.5 -52t19.5 -51t36.5 -40t62.5 -16zM1418 1015l186 22
l-212 -716q-12 -34 -21 -79.5t-9 -88.5q0 -45 18.5 -78.5t63.5 -33.5q85 0 168.5 62t149.5 166t106.5 236.5t40.5 274.5q0 155 -56.5 289.5t-151.5 232t-220 152.5t-263 55q-222 0 -403 -79t-309.5 -214.5t-198.5 -316.5t-70 -386q0 -181 64.5 -348t182 -294.5t283.5 -204.5
t369 -77q179 0 321 49.5t252 134.5t187.5 199t131.5 241h69q-71 -161 -161.5 -288.5t-208 -218t-266 -138t-338.5 -47.5q-231 0 -414 78t-310.5 216t-194 322t-66.5 398q2 224 82 413.5t222.5 328.5t339 217t431.5 78q167 0 309 -57.5t245.5 -163t160.5 -253t57 -328.5
q0 -160 -47 -305.5t-127 -257.5t-183.5 -177.5t-211.5 -65.5q-97 0 -161.5 36t-66.5 136q-2 56 19 155q-43 -49 -93 -106.5t-105.5 -106t-113 -81.5t-117.5 -33q-56 0 -95 22.5t-63.5 60t-37.5 86t-13 100.5q0 79 25 170.5t68 182.5t103 177t129.5 152t149 105.5t160.5 39.5
q36 0 65.5 -17t51 -44t35 -62.5t17.5 -69.5z" />
    <glyph glyph-name="A" unicode="A" horiz-adv-x="1678" 
d="M504 599h522l-256 619zM858 1572l563 -1330q23 -52 44.5 -90.5t49.5 -63.5t66 -36t96 -11v-41h-634v41q125 0 155.5 49.5t-14.5 151.5l-115 271h-599l-118 -271q-18 -41 -24.5 -78t6.5 -64t53 -43t117 -16v-41h-491v41q84 0 132.5 55t87.5 146l571 1330h54z" />
    <glyph glyph-name="B" unicode="B" horiz-adv-x="1534" 
d="M497 113q20 -7 50.5 -11.5t66 -8t71 -4.5t67.5 -1q102 0 177.5 26t124 69t72 100.5t23.5 123.5q0 72 -21 136.5t-71 112t-127.5 75.5t-190.5 28q-14 0 -41 -1t-59.5 -2.5t-70 -4.5t-71.5 -8v-630zM497 852q36 -9 106 -12.5t127 -3.5h63q70 0 125.5 24t93.5 64t58.5 94.5
t20.5 117.5q0 68 -24 126.5t-72.5 103t-125 69t-180.5 24.5q-29 0 -81 -4.5t-111 -20.5v-582zM263 1292q0 61 -12 100.5t-37.5 62t-67.5 32t-101 9.5v40h780q110 0 204 -27.5t160.5 -77t103.5 -119.5t37 -153q0 -64 -12 -113.5t-40 -91.5t-78.5 -80t-124.5 -77v-4
q149 -28 238.5 -125t89.5 -252q0 -88 -35.5 -164t-98 -131.5t-153 -88t-202.5 -32.5h-869v41q117 0 167.5 40.5t50.5 162.5v1048z" />
    <glyph glyph-name="C" unicode="C" horiz-adv-x="1561" 
d="M1434 1050h-54q-11 93 -53 174.5t-105 141t-142.5 95t-162.5 35.5q-122 0 -229.5 -56t-185.5 -159q-77 -104 -116 -244t-39 -296q0 -163 47.5 -290.5t129.5 -215.5t191.5 -135.5t235.5 -47.5q73 0 141.5 26t129.5 71t115.5 105t96.5 128l39 -22q-44 -78 -105.5 -149
t-137 -126t-166 -88t-192.5 -33q-174 0 -320.5 62t-253 168t-166 249.5t-59.5 306.5q0 170 65 320t174.5 262t256.5 176t310 64q102 0 167.5 -15.5t107 -36t69 -36.5t51.5 -16q25 0 50 30.5t34 73.5h38z" />
    <glyph glyph-name="D" unicode="D" horiz-adv-x="1667" 
d="M497 113q59 -23 120.5 -29.5t128.5 -6.5q117 0 222 48.5t182 140t122 220t45 292.5q0 142 -43 266t-118.5 216.5t-181 145.5t-228.5 53q-86 0 -140 -11t-109 -27v-1308zM263 1292q0 61 -12 100.5t-37.5 62t-67.5 32t-101 9.5v40h682q217 0 371 -44t258 -141
q237 -222 237 -569q0 -163 -53 -305.5t-156 -248.5t-254.5 -167t-345.5 -61h-739v41q117 0 167.5 40.5t50.5 162.5v1048z" />
    <glyph glyph-name="E" unicode="E" horiz-adv-x="1438" 
d="M1224 1536l18 -366h-40q-25 143 -96 216t-220 73h-389v-582h332q48 0 89.5 10t73.5 33.5t50 61t18 93.5h40v-519h-40q0 67 -18 114.5t-49 75.5t-71.5 41t-87.5 13h-337v-628q5 -39 28.5 -67t61.5 -28h321q81 0 147 28t116.5 75.5t87 112t58.5 138.5h54l-138 -431h-1188
v41q117 0 167.5 40.5t50.5 162.5v1048q0 61 -12 100.5t-37.5 62t-67.5 32t-101 9.5v40h1179z" />
    <glyph glyph-name="F" unicode="F" horiz-adv-x="1288" 
d="M1184 1536l18 -366h-41q-25 143 -96 216t-220 73h-348v-582h233q48 0 89 10t73 33.5t50 61t18 93.5h40v-519h-40q0 67 -18 114.5t-48.5 75.5t-71 41t-87.5 13h-238v-556q0 -61 11.5 -100.5t37 -62.5t67.5 -31.5t101 -8.5v-41h-669v41q117 0 167.5 40.5t50.5 162.5v1048
q0 61 -12 100.5t-37.5 62t-67.5 32t-101 9.5v40h1139z" />
    <glyph glyph-name="G" unicode="G" horiz-adv-x="1710" 
d="M1461 1050h-54q-23 95 -63 176.5t-101.5 141t-141.5 94t-184 34.5q-122 0 -229.5 -56t-185.5 -159q-77 -104 -116 -244t-39 -296q0 -163 47.5 -290.5t129.5 -215.5t191.5 -135.5t235.5 -47.5q95 0 167 27t132 79v429q0 55 -10.5 92t-34.5 59.5t-66 32t-104 9.5v40h605
v-40q-88 0 -121.5 -42t-33.5 -151v-474q-62 -36 -124 -64.5t-134 -46t-158 -28t-197 -10.5q-174 0 -320.5 62t-253 168t-166 249.5t-59.5 306.5q0 170 65 320t174.5 262t256.5 176t310 64q102 0 172 -15.5t117.5 -36t77.5 -36.5t56 -16q24 0 47.5 30.5t34.5 73.5h39z" />
    <glyph glyph-name="H" unicode="H" horiz-adv-x="1696" 
d="M497 759v-515q0 -61 11.5 -100.5t37 -62.5t67.5 -31.5t101 -8.5v-41h-669v41q117 0 167.5 40.5t50.5 162.5v1048q0 61 -12 100.5t-37.5 62t-67.5 32t-101 9.5v40h669v-40q-59 0 -101 -9.5t-67.5 -32t-37 -62t-11.5 -100.5v-456h702v456q0 61 -11 100.5t-37 62t-68 32
t-100 9.5v40h668v-40q-58 0 -100 -9.5t-68 -32t-37.5 -62t-11.5 -100.5v-1048q0 -61 11.5 -100.5t37.5 -62.5t68 -31.5t100 -8.5v-41h-668v41q117 0 166.5 40.5t49.5 162.5v515h-702z" />
    <glyph glyph-name="I" unicode="I" horiz-adv-x="858" 
d="M269 1292q0 61 -11.5 100.5t-37.5 62t-68 32t-100 9.5v40h668v-40q-58 0 -100 -9.5t-68 -32t-37 -62t-11 -100.5v-1048q0 -61 11 -100.5t37 -62.5t68 -31.5t100 -8.5v-41h-668v41q118 0 167.5 40.5t49.5 162.5v1048z" />
    <glyph glyph-name="J" unicode="J" horiz-adv-x="971" 
d="M422 1292q0 61 -11.5 100.5t-37.5 62t-67 32t-101 9.5v40h670v-40q-60 0 -101.5 -9.5t-68 -32t-37.5 -62t-11 -100.5v-800q0 -266 -118.5 -397t-310.5 -131q-40 0 -80 10.5t-70.5 33t-49.5 55t-19 77.5q2 50 41.5 81.5t82.5 31.5q59 0 84 -32.5t38.5 -73.5t29 -73.5
t60.5 -32.5q39 0 58 42t19 105v1104z" />
    <glyph glyph-name="K" unicode="K" horiz-adv-x="1698" 
d="M263 1292q0 61 -12 100.5t-37.5 62t-67.5 32t-101 9.5v40h669v-40q-59 0 -101 -9.5t-67.5 -32t-37 -62t-11.5 -100.5v-436l490 443q13 14 31.5 32t34.5 35.5t27 37t11 38.5q0 17 -27 35.5t-115 18.5v40h567v-43q-52 3 -97.5 -6.5t-89.5 -31t-89 -55t-97 -83.5l-456 -427
l623 -621q76 -79 128.5 -125.5t94 -69t84.5 -28t103 -5.5v-41h-717v41q64 0 86.5 24.5t22.5 56.5q0 18 -21.5 50.5t-64.5 75.5l-529 532v-536q0 -61 11.5 -100.5t37 -62.5t67.5 -31.5t101 -8.5v-41h-669v41q117 0 167.5 40.5t50.5 162.5v1048z" />
    <glyph glyph-name="L" unicode="L" horiz-adv-x="1444" 
d="M263 1292q0 61 -12 100.5t-37.5 62t-67.5 32t-101 9.5v40h669v-40q-59 0 -101 -9.5t-67.5 -32t-37 -62t-11.5 -100.5v-1100q0 -48 25 -81.5t63 -33.5h287q98 0 172 27t130.5 74.5t95 112t62.5 138.5l46 -11l-134 -418h-1199v41q117 0 167.5 40.5t50.5 162.5v1048z" />
    <glyph glyph-name="M" unicode="M" horiz-adv-x="2054" 
d="M263 1292q0 61 -12 100.5t-37.5 62t-67.5 32t-101 9.5v40h457l544 -1179h11l534 1179h451v-40q-59 0 -101 -9.5t-67.5 -32t-37 -62t-11.5 -100.5v-1048q0 -61 11.5 -100.5t37 -62.5t67.5 -31.5t101 -8.5v-41h-669v41q118 0 168 40.5t50 162.5v1015h-9l-573 -1259h-47
l-580 1250h-16v-1006q0 -61 11 -100.5t37 -62.5t68 -31.5t100 -8.5v-41h-537v41q117 0 167.5 40.5t50.5 162.5v1048z" />
    <glyph glyph-name="N" unicode="N" horiz-adv-x="1671" 
d="M255 1278q0 48 -20 88.5t-55.5 69t-81.5 44.5t-98 16v40h386l916 -1122h8v878q0 61 -11.5 100.5t-37.5 62t-67.5 32t-100.5 9.5v40h538v-40q-59 0 -100.5 -9.5t-67.5 -32t-37.5 -62t-11.5 -100.5v-1328h-54l-992 1249h-8v-969q0 -61 11 -100.5t36.5 -62.5t67.5 -31.5
t101 -8.5v-41h-537v41q117 0 166.5 40.5t49.5 162.5v1034z" />
    <glyph glyph-name="O" unicode="O" horiz-adv-x="1686" 
d="M843 41q119 0 211.5 55t155 153t95 233t32.5 296q0 157 -32.5 289t-95 227.5t-155 148.5t-211.5 53q-123 0 -215.5 -53t-154.5 -148.5t-94 -227.5t-32 -289q0 -161 32 -296t94 -233t154.5 -153t215.5 -55zM843 -36q-164 0 -305 64.5t-243.5 175t-162 258.5t-59.5 316
q0 164 59.5 308.5t162 253t243.5 170.5t305 62q162 0 303 -62t244 -170.5t163 -253t60 -308.5q0 -168 -60 -316t-163 -258.5t-244 -175t-303 -64.5z" />
    <glyph glyph-name="P" unicode="P" horiz-adv-x="1338" 
d="M497 797q38 -11 84.5 -22.5t93.5 -11.5q75 0 131.5 25t94 68t56.5 102t19 124q0 77 -23.5 145t-66.5 117.5t-99.5 77.5t-122.5 28q-32 0 -73.5 -2t-93.5 -21v-630zM263 1292q0 61 -12 100.5t-37.5 62t-67.5 32t-101 9.5v40h660q108 0 204 -29.5t167 -86t112 -137.5
t41 -186t-40 -182t-104 -128.5t-146.5 -76.5t-168.5 -25q-35 0 -76 2t-78.5 5.5t-68 9t-50.5 9.5v-467q0 -61 11.5 -100.5t37 -62.5t67.5 -31.5t101 -8.5v-41h-669v41q117 0 167.5 40.5t50.5 162.5v1048z" />
    <glyph glyph-name="Q" unicode="Q" horiz-adv-x="1669" 
d="M834 41q237 28 365.5 222t128.5 515q0 157 -32.5 289t-95 227.5t-155 148.5t-211.5 53q-123 0 -215.5 -53t-154 -148.5t-93.5 -227.5t-32 -289q0 -161 32 -296t93.5 -233t154 -153t215.5 -55zM1586 -481q-154 0 -304 46.5t-278.5 116.5t-230.5 153t-159 161
q-119 32 -218.5 110.5t-171 185.5t-111.5 233t-40 253q0 164 57.5 308.5t160 253t241.5 170.5t302 62q162 0 301 -62t241.5 -170.5t160.5 -253t58 -308.5q0 -134 -43 -264t-119.5 -237t-183 -185.5t-232.5 -104.5q22 -77 76 -153t130 -137t169 -99t194 -38v-41z" />
    <glyph glyph-name="R" unicode="R" horiz-adv-x="1573" 
d="M497 800h135q79 0 146 23.5t116.5 65.5t76.5 102.5t27 135.5q0 68 -21.5 129t-60.5 106t-93.5 71t-117.5 26q-26 0 -55 -2t-59.5 -6.5t-55 -10.5t-38.5 -11v-629zM263 1292q0 61 -12 100.5t-37.5 62t-67.5 32t-101 9.5v40h701q126 0 221 -29.5t158 -82.5t95 -126.5
t32 -161.5q0 -144 -94 -247t-248 -143l328 -481q90 -129 174 -176.5t174 -47.5v-41h-439l-485 722h-165v-478q0 -61 11.5 -100.5t37 -62.5t67.5 -31.5t101 -8.5v-41h-669v41q117 0 167.5 40.5t50.5 162.5v1048z" />
    <glyph glyph-name="S" unicode="S" horiz-adv-x="1305" 
d="M1007 1037q-20 209 -127.5 329.5t-292.5 120.5q-63 0 -114 -22.5t-87 -59t-55 -79.5t-19 -86q0 -81 62 -144.5t155.5 -119.5t202 -113t202.5 -122.5t156 -146.5t62 -189q0 -91 -34 -171.5t-100.5 -140t-161.5 -94.5t-216 -35q-80 0 -135 13.5t-106 31.5q-35 13 -68 27
t-71 14q-32 0 -50 -26t-22 -60h-41v519h41q6 -104 49 -185t107.5 -136.5t145.5 -83.5t167 -28q57 0 108.5 18t92.5 50.5t66 79t25 104.5q0 93 -61 161t-151.5 124.5t-197 108.5t-196.5 116.5t-151 146.5t-61 200q0 87 32.5 163.5t94 131.5t144.5 86.5t185 31.5q66 0 107 -11
t86 -25q37 -14 74.5 -31.5t72.5 -17.5q33 0 57.5 29t24.5 56h41v-535h-43z" />
    <glyph glyph-name="T" unicode="T" horiz-adv-x="1366" 
d="M1287 1536l19 -366h-41q-27 143 -97.5 216t-218.5 73h-167v-1215q0 -61 11 -100.5t37 -62.5t68 -31.5t100 -8.5v-41h-668v41q118 0 167.5 40.5t49.5 162.5v1215h-168q-148 0 -219.5 -73t-96.5 -216h-41l19 366h1246z" />
    <glyph glyph-name="U" unicode="U" horiz-adv-x="1698" 
d="M255 1292q0 61 -11 100.5t-37 62t-68 32t-100 9.5v40h668v-40q-58 0 -100 -9.5t-68 -32t-37.5 -62t-11.5 -100.5v-753q0 -99 31 -184.5t87 -151t136.5 -103t179.5 -37.5q102 0 182 37.5t135.5 103t86 151t30.5 184.5v753q0 61 -11.5 100.5t-37.5 62t-68 32t-100 9.5v40
h538v-40q-60 0 -101.5 -9.5t-67 -32t-37.5 -62t-12 -100.5v-753q0 -117 -34.5 -221.5t-108.5 -183t-189.5 -124.5t-279.5 -46q-144 0 -255 46t-186.5 125.5t-114 184.5t-38.5 225v747z" />
    <glyph glyph-name="V" unicode="V" horiz-adv-x="1641" 
d="M628 1536v-40q-133 0 -158 -60.5t22 -165.5l414 -956l379 940q45 108 16 175t-146 67v40h474v-40q-79 0 -134.5 -64.5t-108.5 -196.5l-514 -1271h-59l-582 1342q-46 101 -96.5 145.5t-134.5 44.5v40h628z" />
    <glyph glyph-name="W" unicode="W" horiz-adv-x="2095" 
d="M569 1536v-40q-86 0 -118.5 -25t-32.5 -59q0 -28 10 -66t29 -85l315 -893l256 718l-58 168q-21 56 -39.5 101.5t-44.5 75.5t-63 47.5t-93 17.5v40h598v-40q-84 0 -118.5 -26t-34.5 -60q0 -59 34 -154l307 -888l312 895q40 117 13 175t-153 58l2 40h456v-40q-53 0 -84 -16
t-54 -45.5t-40 -74.5t-37 -101l-440 -1295h-54l-355 974l-345 -974h-55l-460 1288q-23 63 -42.5 109t-43 75.5t-56.5 44.5t-80 15v40h569z" />
    <glyph glyph-name="X" unicode="X" horiz-adv-x="1678" 
d="M490 257q-38 -38 -53 -76.5t-7 -68.5t43 -50.5t96 -20.5v-41h-569v41q47 0 98 17t98.5 45t89.5 64t71 75l400 521l-378 545q-60 86 -137 137t-188 51v40h720v-40q-125 0 -152 -50t35 -144l242 -358l280 355q34 43 48.5 79t5.5 62t-45 41t-106 15v40h539v-43
q-89 5 -154.5 -35t-140.5 -134l-375 -472l433 -608q28 -41 55 -77t58.5 -64t70 -45t90.5 -17v-41h-666v39q126 4 146.5 58t-41.5 147l-284 429z" />
    <glyph glyph-name="Y" unicode="Y" horiz-adv-x="1579" 
d="M632 1536v-40q-187 0 -182 -106q0 -43 40 -107l332 -533l346 556q22 43 22 78q0 112 -160 112v40h540v-40q-100 0 -159.5 -45.5t-125.5 -146.5l-401 -640v-420q0 -61 11 -100.5t36.5 -62.5t67.5 -31.5t101 -8.5v-41h-669v41q118 0 168 40.5t50 162.5v396l-455 681
q-24 37 -46.5 69.5t-47.5 55t-58 36.5t-78 14v40h668z" />
    <glyph glyph-name="Z" unicode="Z" horiz-adv-x="1432" 
d="M1349 1536l-1019 -1448h621q58 0 112.5 24t101 67t83.5 99t62 125h41l-73 -403h-1256v39l991 1409h-476q-85 0 -143 -13.5t-97.5 -47.5t-60.5 -91.5t-35 -146.5h-41l34 387h1155z" />
    <glyph glyph-name="bracketleft" unicode="[" horiz-adv-x="781" 
d="M93 1572h506v-104h-325v-1802h325v-104h-506v2010z" />
    <glyph glyph-name="backslash" unicode="\" horiz-adv-x="721" 
d="M513 -36l-515 1608h106l515 -1608h-106z" />
    <glyph glyph-name="bracketright" unicode="]" horiz-adv-x="774" 
d="M30 -438v104h325v1802h-325v104h505v-2010h-505z" />
    <glyph glyph-name="asciicircum" unicode="^" horiz-adv-x="1174" 
d="M28 741l496 831h73l496 -831h-142l-393 660l-396 -660h-134z" />
    <glyph glyph-name="underscore" unicode="_" horiz-adv-x="1284" 
d="M1242 -226v-104h-1242v104h1242z" />
    <glyph glyph-name="grave" unicode="`" horiz-adv-x="840" 
d="M131 1534h246l115 -382h-38z" />
    <glyph glyph-name="a" unicode="a" horiz-adv-x="1069" 
d="M638 606q-62 -21 -129 -52.5t-122 -71.5t-91 -88.5t-36 -102.5q0 -76 46 -131.5t108 -55.5t113 34t111 79v389zM825 196q0 -31 12 -55t40 -24q37 0 62 26.5t50 63.5v-76q-34 -62 -94.5 -107.5t-144.5 -45.5q-32 0 -53.5 15.5t-34.5 39t-18.5 53t-5.5 56.5
q-35 -27 -67 -56.5t-69 -53t-83 -39t-105 -15.5q-115 0 -178 74.5t-63 184.5q0 102 53 170.5t136 116t183 82t193 67.5v64q0 142 -50.5 198.5t-133.5 56.5q-47 0 -78 -14t-47.5 -36t-23.5 -50.5t-7 -57.5q0 -56 -16.5 -97t-76.5 -41q-45 0 -72 34.5t-27 86.5q0 50 31 95
t84 77t121.5 51.5t145.5 19.5q92 0 156.5 -19.5t104.5 -55.5t58 -87t18 -114v-588z" />
    <glyph glyph-name="b" unicode="b" horiz-adv-x="1194" 
d="M355 170q35 -39 85 -73t129 -34q65 0 118.5 35t91.5 98.5t59.5 148t21.5 186.5q0 77 -21.5 144.5t-58.5 118.5t-87.5 79t-107.5 28q-65 0 -131 -37t-99 -90v-604zM168 1242q0 88 -8.5 129t-60.5 41q-17 0 -38.5 -3.5t-53.5 -14.5l-16 40l309 138h55v-727q22 43 59.5 82.5
t81 69t91 46.5t92.5 17q82 0 152 -36.5t119.5 -100t78 -147.5t28.5 -179q0 -129 -41.5 -241t-112.5 -196.5t-167 -133t-205 -48.5q-219 0 -363 123v1141z" />
    <glyph glyph-name="c" unicode="c" horiz-adv-x="1080" 
d="M517 -22q-92 0 -173 40t-141.5 109t-95 163t-34.5 202q0 118 38 221.5t104.5 181t156 121.5t191.5 44q79 0 145 -19.5t115 -52.5t76.5 -78t27.5 -97q0 -48 -40 -81.5t-85 -33.5q-52 0 -81 36t-29 79q0 73 -32 121.5t-127 48.5q-65 0 -115 -28t-86 -77t-54 -113.5
t-18 -139.5q0 -99 24 -188.5t66.5 -155.5t103.5 -105.5t136 -39.5q65 0 114.5 21.5t88.5 58.5t66 86.5t49 104.5l43 -14q-45 -199 -158.5 -307t-275.5 -108z" />
    <glyph glyph-name="d" unicode="d" horiz-adv-x="1202" 
d="M784 709q0 61 -20.5 112t-54.5 86t-75.5 55.5t-84.5 20.5q-57 0 -105.5 -30.5t-84.5 -86t-57.5 -132.5t-21.5 -169q0 -100 24 -186t64.5 -150t94.5 -101.5t115 -37.5q60 0 115 31.5t91 74.5v513zM784 101q-64 -58 -148 -90.5t-164 -32.5q-84 0 -156 42.5t-126 114.5
t-85.5 168t-31.5 203q0 106 39 205.5t107 177.5t158.5 124.5t191.5 46.5q69 0 120.5 -26.5t94.5 -69.5v278q0 88 -8 129t-60 41q-18 0 -39.5 -3.5t-53.5 -14.5l-15 40l309 138h55v-1264q0 -103 18.5 -139t76.5 -36q17 0 36.5 3.5t37.5 14.5l14 -31l-317 -142h-54v123z" />
    <glyph glyph-name="e" unicode="e" horiz-adv-x="1104" 
d="M722 696q0 58 -18.5 110t-51.5 92t-78.5 62.5t-94.5 22.5q-41 0 -80 -22.5t-70 -62.5t-51.5 -92t-24.5 -110h469zM535 -22q-95 0 -179.5 39t-148 108t-99 160.5t-35.5 195.5q0 125 32.5 230.5t93.5 184t146.5 121.5t191.5 43q93 0 170 -33t133.5 -89.5t86.5 -133.5
t30 -162h-704q0 -107 24.5 -198.5t68.5 -160t105.5 -108t135.5 -39.5q62 0 119 18t105.5 50.5t83 75.5t47.5 91l41 -7q-21 -79 -64.5 -150.5t-105 -123t-133.5 -82t-145 -30.5z" />
    <glyph glyph-name="f" unicode="f" horiz-adv-x="756" 
d="M679 1037v-77h-252v-718q0 -111 30.5 -156t132.5 -45v-41h-513v41q52 0 83.5 11t49.5 34.5t23.5 62.5t5.5 93v718h-198v77h198v155q0 80 28.5 149t75.5 120.5t112 81t137 29.5q143 0 237.5 -43.5t94.5 -138.5q0 -45 -27.5 -66.5t-64.5 -21.5q-52 0 -76 30t-43 66t-46 67
t-85 31q-26 0 -54 -16t-51 -42t-36.5 -61t-13.5 -75v-265h252z" />
    <glyph glyph-name="g" unicode="g" horiz-adv-x="1182" 
d="M547 390q40 0 76.5 20.5t64.5 55t45 80.5t17 100q0 76 -19.5 142t-50.5 114.5t-75.5 75.5t-91.5 27q-95 0 -139 -80t-44 -200q0 -70 16 -131t45 -106.5t69 -71.5t87 -26zM312 9q-43 -34 -64.5 -84t-21.5 -93q0 -69 88.5 -122t267.5 -53q95 0 170 16.5t127 43t79 60
t27 67.5q0 70 -63.5 102t-171.5 32q-68 0 -136.5 3.5t-130 7.5t-106.5 9.5t-65 10.5zM1071 985v-86h-179q28 -43 44.5 -96t16.5 -105q0 -81 -32.5 -148t-90.5 -114.5t-139 -73.5t-176 -26q-36 0 -73 7t-65 17q-27 -26 -46 -57.5t-19 -63.5t31.5 -49.5t87.5 -21.5l351 -17
q167 -7 228 -69t61 -164q0 -183 -149.5 -290t-410.5 -107q-235 0 -350.5 57.5t-115.5 154.5q0 43 19.5 81.5t49.5 74.5t67.5 70t73.5 66q-52 18 -88 49.5t-36 76.5q0 32 14.5 64.5t41 63.5t61 57t75.5 43q-97 46 -150 124.5t-53 183.5q0 76 32.5 145t88 118.5t131.5 79.5
t163 30q86 0 160.5 -21.5t106.5 -53.5h269z" />
    <glyph glyph-name="h" unicode="h" horiz-adv-x="1223" 
d="M377 849q170 211 366 211q50 0 93 -25.5t74.5 -66.5t51 -99t19.5 -123v-504q0 -54 5.5 -93t23.5 -62.5t49.5 -34.5t83.5 -11v-41h-513v41q52 0 84 11t50 34.5t23.5 62.5t5.5 93v469q0 102 -43 155.5t-108 53.5q-60 0 -131 -41t-134 -109v-528q0 -111 30.5 -156t131.5 -45
v-41h-511v41q51 0 82.5 11t50 34.5t24 62.5t5.5 93v1000q0 88 -8 129t-60 41q-18 0 -39.5 -3.5t-52.5 -14.5l-17 40l310 138h54v-723z" />
    <glyph glyph-name="i" unicode="i" horiz-adv-x="727" 
d="M233 730q0 87 -8 128t-60 41q-18 0 -39.5 -3.5t-52.5 -14.5l-17 41l310 138h54v-818q0 -111 30.5 -156t131.5 -45v-41h-513v41q53 0 84.5 11t50 34.5t24 62.5t5.5 93v488zM325 1572q43 0 75.5 -30.5t32.5 -73.5t-32.5 -73.5t-75.5 -30.5t-75.5 30.5t-32.5 73.5t32.5 73.5
t75.5 30.5z" />
    <glyph glyph-name="j" unicode="j" horiz-adv-x="727" 
d="M420 0q0 -162 -24.5 -257t-73 -145t-119 -63.5t-160.5 -13.5q-86 0 -135.5 36t-49.5 88q0 43 26 65.5t71 22.5q32 0 51 -21.5t35.5 -46.5t38 -46.5t56.5 -21.5q43 0 70 36.5t27 140.5v956q0 87 -8 128t-60 41q-18 0 -39.5 -3.5t-52.5 -14.5l-17 41l310 138h54v-1060z
M325 1572q43 0 75.5 -30.5t32.5 -73.5t-32.5 -73.5t-75.5 -30.5t-75.5 30.5t-32.5 73.5t32.5 73.5t75.5 30.5z" />
    <glyph glyph-name="k" unicode="k" horiz-adv-x="1202" 
d="M386 590l252 227q44 39 82.5 75.5t38.5 67.5q0 23 -16 29.5t-66 6.5v41h430v-41q-53 0 -94 -5.5t-81 -25t-84 -52t-100 -86.5l-190 -165l307 -388q57 -73 99.5 -118.5t78 -70t69 -34.5t74.5 -10v-41h-513v41q41 0 54.5 13t13.5 39q0 20 -27 60.5t-57 77.5l-271 338v-327
q0 -111 31 -156t132 -45v-41h-513v41q52 0 83.5 11t50 34.5t24 62.5t5.5 93v1000q0 88 -8 129t-60 41q-18 0 -40 -3.5t-52 -14.5l-17 40l310 138h54v-982z" />
    <glyph glyph-name="l" unicode="l" horiz-adv-x="725" 
d="M409 242q0 -54 5.5 -93t24 -62.5t50 -34.5t82.5 -11v-41h-513v41q52 0 84 11t50 34.5t24 62.5t6 93v1000q0 88 -8.5 129t-60.5 41q-17 0 -38.5 -3.5t-53.5 -14.5l-16 40l310 138h54v-1330z" />
    <glyph glyph-name="m" unicode="m" horiz-adv-x="1807" 
d="M199 730q0 87 -8 128t-60 41q-18 0 -40 -3.5t-52 -14.5l-17 41l310 138h54v-215q36 43 81.5 82.5t94 69t96 46.5t90.5 17t86 -17t79 -45t61.5 -69t34.5 -89q26 46 66.5 86.5t90.5 70t105 46.5t109 17t100.5 -26.5t81.5 -70t55.5 -102.5t20.5 -126v-493q0 -54 5.5 -93
t23.5 -62.5t49.5 -34.5t83.5 -11v-41h-513v41q52 0 84 11t50 34.5t23.5 62.5t5.5 93v463q0 43 -13.5 82.5t-37.5 69t-54 46.5t-64 17q-77 0 -155 -43t-113 -105v-530q0 -54 5.5 -93t23.5 -62.5t49.5 -34.5t83.5 -11v-41h-513v41q52 0 84 11t49.5 34.5t23.5 62.5t6 93v463
q0 88 -50 151.5t-120 63.5q-34 0 -72 -11.5t-75.5 -32t-69 -47.5t-52.5 -57v-530q0 -111 31 -156t132 -45v-41h-513v41q52 0 83.5 11t50 34.5t24 62.5t5.5 93v488z" />
    <glyph glyph-name="n" unicode="n" horiz-adv-x="1219" 
d="M199 730q0 87 -8 128t-60 41q-18 0 -40 -3.5t-52 -14.5l-17 41l310 138h54v-211q172 211 366 211q50 0 93 -25.5t74.5 -66.5t50.5 -99t19 -123v-504q0 -111 30.5 -156t132.5 -45v-41h-512v41q52 0 83 11t49.5 34.5t24 62.5t5.5 93v469q0 102 -43 155.5t-108 53.5
q-59 0 -130 -41t-135 -109v-528q0 -111 31 -156t132 -45v-41h-513v41q52 0 83.5 11t50 34.5t24 62.5t5.5 93v488z" />
    <glyph glyph-name="o" unicode="o" horiz-adv-x="1194" 
d="M608 54q54 0 100 31.5t80 85t53 123.5t19 148q0 114 -17.5 212t-57 171.5t-103 115.5t-156.5 42q-47 0 -91.5 -30.5t-78 -83t-54 -122.5t-20.5 -146q0 -113 21.5 -212.5t63.5 -174t103 -117.5t138 -43zM571 -22q-108 0 -199.5 41.5t-158 112.5t-103.5 168t-37 206
q0 115 37 215.5t103.5 175.5t158 119t199.5 44t200 -39.5t158.5 -108.5t104 -162t37.5 -201q0 -118 -37.5 -221.5t-104 -182t-158.5 -123t-200 -44.5z" />
    <glyph glyph-name="p" unicode="p" horiz-adv-x="1215" 
d="M379 280q0 -95 70.5 -160.5t182.5 -65.5q53 0 99.5 29.5t80 84t54 129t20.5 166.5q0 233 -69 345t-177 112q-82 0 -148.5 -51.5t-112.5 -116.5v-472zM192 730q0 87 -8 128t-59 41q-19 0 -40.5 -3.5t-52.5 -14.5l-17 41l310 138h54v-233q28 40 62.5 81t78 75t94 55.5
t108.5 21.5q84 0 153 -38.5t117.5 -105.5t74.5 -155t26 -190q0 -129 -32.5 -237t-92.5 -188.5t-144.5 -124t-191.5 -43.5q-78 0 -136 17.5t-117 58.5v-250q0 -112 30.5 -156.5t133.5 -44.5v-41h-513v41q52 0 83 11t49.5 34.5t24 62.5t5.5 93v926z" />
    <glyph glyph-name="q" unicode="q" horiz-adv-x="1207" 
d="M786 786q0 43 -16 74.5t-40 56.5q-25 25 -73.5 45.5t-93.5 20.5q-61 0 -115.5 -31.5t-94 -87.5t-62 -130t-22.5 -158q0 -93 21.5 -173t59.5 -139t88 -93.5t109 -34.5q85 0 150.5 43t88.5 84v523zM786 162q-29 -33 -61.5 -66t-72.5 -60t-89.5 -42.5t-112.5 -15.5
q-79 0 -147 38t-120 105t-81 156t-29 191q0 122 40 230t109 188.5t163 127t202 46.5q62 0 119 -22.5t80 -54.5l143 77h45v-1256q0 -54 5.5 -93t23.5 -62.5t49.5 -34.5t83.5 -11v-41h-513v41q52 0 84 11t49.5 34.5t23.5 62.5t6 93v358z" />
    <glyph glyph-name="r" unicode="r" horiz-adv-x="891" 
d="M194 730q0 87 -7.5 128t-59.5 41q-19 0 -40.5 -3.5t-52.5 -14.5l-16 41l310 138h54v-217q54 88 123 152.5t146 64.5q60 0 103 -36.5t43 -88.5q0 -49 -28 -75t-80 -26q-32 0 -51 10t-35 23.5t-31.5 23.5t-38.5 10q-38 0 -75.5 -46.5t-75.5 -115.5v-497q0 -111 30 -156
t133 -45v-41h-513v41q52 0 83.5 11t49.5 34.5t23.5 62.5t5.5 93v488z" />
    <glyph glyph-name="s" unicode="s" horiz-adv-x="981" 
d="M122 360h40q10 -67 39.5 -122t71 -96t93.5 -64.5t106 -23.5q36 0 71 12.5t62 33t43 47.5t16 56q0 64 -41 106.5t-101.5 75.5t-132.5 64.5t-133.5 73.5t-102 100.5t-40.5 146.5q0 127 81.5 208.5t223.5 81.5q86 0 139 -20.5t96 -20.5q15 0 29 11t18 30h41v-346h-41
q-4 56 -26.5 107t-58 89.5t-83 60t-96.5 21.5q-84 0 -133.5 -41t-49.5 -97q0 -63 43 -106t106 -76.5t139 -65.5t139 -74t106 -99.5t43 -141.5q0 -65 -23.5 -123t-68.5 -100.5t-113 -66t-156 -23.5q-48 0 -85.5 7.5t-69 17.5t-56 18.5t-47.5 8.5q-18 0 -30 -9.5t-18 -20.5
h-40v360z" />
    <glyph glyph-name="t" unicode="t" horiz-adv-x="752" 
d="M18 960v55q55 0 102.5 29t86.5 81t66 121t41 148h54v-357h251v-77h-251v-741q0 -45 29.5 -78t72.5 -33q50 0 82.5 36.5t53.5 74.5h49q-32 -109 -102 -175t-187 -66q-95 0 -140 66t-45 175v741h-163z" />
    <glyph glyph-name="u" unicode="u" horiz-adv-x="1219" 
d="M368 1037v-737q0 -37 15.5 -72.5t44.5 -60.5t67 -39.5t81 -14.5q56 0 121.5 48.5t102.5 118.5v537q0 103 -32.5 141t-129.5 38v41h349v-729q0 -103 19.5 -139t75.5 -36q18 0 37 3.5t38 14.5l13 -31l-316 -142h-54v216q-26 -45 -63 -85t-81 -69t-90 -45.5t-87 -16.5
q-61 0 -115 25t-95 68.5t-64.5 102.5t-23.5 126v517q0 103 -33 141t-130 38v41h350z" />
    <glyph glyph-name="v" unicode="v" horiz-adv-x="1170" 
d="M470 1037v-41q-59 0 -89.5 -18t-30.5 -47q0 -32 9 -61.5t25 -65.5l226 -551l235 574q15 38 22.5 71t7.5 55q0 25 -33.5 34t-95.5 9v41h349v-41q-52 0 -82 -34.5t-60 -101.5l-368 -882h-54l-369 860q-20 48 -38 79.5t-36.5 48.5t-39 23.5t-48.5 6.5v41h470z" />
    <glyph glyph-name="w" unicode="w" horiz-adv-x="1700" 
d="M452 1037v-41q-88 0 -88 -56q0 -28 12 -71.5t29 -82.5l203 -506l194 498l-22 58q-8 20 -24.5 47t-41.5 52t-59 43t-77 18v41h524v-41q-59 0 -100.5 -18t-41.5 -56q0 -16 10.5 -52t27.5 -84l204 -506l169 483q7 21 15 43.5t14.5 45.5t11 42.5t4.5 32.5q0 33 -20.5 51
t-78.5 18v41h384v-41q-39 0 -70.5 -6.5t-59.5 -28t-54 -63.5t-51 -112l-298 -808h-54l-269 695l-269 -695h-54l-315 800q-28 74 -47.5 118t-40 65.5t-48.5 28t-71 6.5v41h452z" />
    <glyph glyph-name="x" unicode="x" horiz-adv-x="1188" 
d="M308 199q-26 -31 -32.5 -56.5t-6.5 -43.5q0 -24 22.5 -41t72.5 -17v-41h-336v41q26 0 65.5 29t96.5 102l269 354l-209 332q-17 28 -36.5 54t-46.5 44t-63.5 29t-85.5 11v41h488v-41q-41 0 -55.5 -13t-17.5 -37q-4 -15 11 -41t32 -58l102 -160l90 126q24 32 48.5 73
t24.5 65q0 45 -90 45v41h362v-41q-28 0 -54 -6.5t-54 -27t-64.5 -60t-86.5 -102.5l-133 -179l287 -425q49 -71 106 -113t109 -42v-41h-509v41q65 0 86.5 20.5t21.5 44.5q0 19 -21.5 56t-43.5 69l-149 228z" />
    <glyph glyph-name="y" unicode="y" horiz-adv-x="1211" 
d="M231 730q-66 139 -122.5 202.5t-108.5 63.5v41h476v-41q-73 0 -91.5 -25t-18.5 -57q0 -39 26 -89.5t53 -108.5l201 -425l214 529q39 100 25.5 138t-99.5 38v41h337v-41q-66 0 -94.5 -42t-66.5 -137l-417 -1020q-25 -62 -62.5 -112.5t-79 -86.5t-88 -56.5t-89.5 -20.5
q-64 0 -105.5 32.5t-45.5 78.5q-2 51 24 83t91 32q34 0 50.5 -7t29 -13.5t27.5 -13t42 -6.5q29 0 52 19t40 47t31 61t26 60l66 158z" />
    <glyph glyph-name="z" unicode="z" horiz-adv-x="1106" 
d="M45 54l682 906h-372q-38 0 -75.5 -11t-53.5 -27q-25 -23 -37.5 -72.5t-16.5 -99.5h-41v287h863v-41l-696 -919h441q39 0 78 10t58 23q26 21 47 84q11 32 16.5 65.5t10.5 70.5h40l-22 -330h-922v54z" />
    <glyph glyph-name="braceleft" unicode="{" horiz-adv-x="842" 
d="M720 1532q-60 -5 -112 -34.5t-92 -74.5t-62.5 -103.5t-22.5 -122.5q0 -87 18.5 -151.5t18.5 -123.5q0 -55 -24 -111.5t-66 -106t-97 -89t-119 -59.5q64 -17 119 -54t97 -87.5t66 -111.5t24 -122q0 -37 -5.5 -68t-13 -64.5t-13 -68t-5.5 -75.5q0 -67 22.5 -127
t62.5 -106.5t92 -75.5t112 -34v-41q-92 0 -174.5 36t-143.5 97t-97 143.5t-36 174.5q0 69 17.5 131t17.5 150q0 57 -19.5 105.5t-56 85.5t-84 58.5t-101.5 21.5v54q54 0 101.5 21.5t84 59t56 86t19.5 104.5q0 50 -5.5 89.5t-12 72t-12 61t-5.5 57.5q0 91 36 172t97 141
t143.5 95t174.5 35v-40z" />
    <glyph glyph-name="bar" unicode="|" horiz-adv-x="688" 
d="M336 1536v-2058h-108v2058h108z" />
    <glyph glyph-name="braceright" unicode="}" horiz-adv-x="842" 
d="M43 1572q93 0 175 -35t143 -95t97.5 -141t36.5 -172q0 -29 -6 -57.5t-12.5 -61t-12 -72t-5.5 -89.5q0 -56 20.5 -104.5t56 -86t83 -59t101.5 -21.5v-54q-54 0 -101.5 -21.5t-83 -58.5t-56 -85.5t-20.5 -105.5q0 -88 18 -150t18 -131q0 -92 -36.5 -174.5t-97.5 -143.5
t-143 -97t-175 -36v41q61 5 112.5 34t91.5 75.5t62.5 106.5t22.5 127q0 41 -5.5 75.5t-12 68t-12.5 64.5t-6 68q0 61 23.5 122t64.5 111.5t96 87.5t121 54q-66 20 -121 59.5t-96 89t-64.5 106t-23.5 111.5q0 59 18 123.5t18 151.5q0 64 -22.5 122.5t-62.5 103.5t-91.5 74.5
t-112.5 34.5v40z" />
    <glyph glyph-name="asciitilde" unicode="~" horiz-adv-x="1401" 
d="M1272 953q0 -181 -85 -272t-230 -91q-97 0 -177 32.5t-148.5 71t-132 71t-126.5 32.5q-86 0 -151.5 -62t-81.5 -145h-54q0 178 89.5 270.5t251.5 92.5q77 0 156 -32.5t154.5 -71t144.5 -71t123 -32.5q47 0 81.5 17t58 46t41.5 66t32 78h54z" />
    <glyph glyph-name="nonbreakingspace" unicode="&#xa0;" horiz-adv-x="950" 
 />
    <glyph glyph-name="exclamdown" unicode="&#xa1;" horiz-adv-x="553" 
d="M222 1572q52 0 88.5 -35t36.5 -87q0 -51 -36.5 -86.5t-88.5 -35.5t-89.5 35.5t-37.5 86.5q0 52 37.5 87t89.5 35zM257 1143q12 -126 28.5 -257.5t32.5 -258.5t27.5 -249.5t11.5 -230.5q0 -86 -38.5 -134.5t-96.5 -48.5q-52 0 -94 48.5t-42 134.5q0 108 13.5 230.5
t30.5 249.5t34 258.5t21 257.5h72z" />
    <glyph glyph-name="cent" unicode="&#xa2;" horiz-adv-x="1182" 
d="M323 625q0 -94 22.5 -174t61.5 -147l248 672q-25 7 -58 7q-66 0 -116 -28t-85.5 -77t-54 -113.5t-18.5 -139.5zM953 1536l-183 -495q102 -26 160.5 -87.5t58.5 -140.5q0 -48 -39.5 -81.5t-84.5 -33.5q-52 0 -81.5 36t-29.5 79q0 34 -3 63.5t-21 52.5l-260 -703
q82 -82 185 -82q65 0 115 22t88.5 58t65.5 86t50 104l31 -19q-48 -199 -155 -308t-270 -109q-49 0 -95.5 12t-89.5 35l-171 -463h-91l188 511q-86 67 -137 179t-51 240q0 118 38.5 221.5t106 181t157 121.5t190.5 44h30t30 -3l178 479h90z" />
    <glyph glyph-name="sterling" unicode="&#xa3;" horiz-adv-x="1243" 
d="M332 194q-24 16 -48 24t-56 8q-52 0 -81.5 -28t-29.5 -69q0 -39 18 -67t57 -28q30 0 52.5 14.5t39 38t29 52.5t19.5 55zM95 856h222q-5 52 -10 100.5t-5 105.5q0 99 27.5 191t83 163t138.5 113.5t199 42.5q75 0 129 -24t91 -57.5t55 -73t18 -72.5q0 -35 -25.5 -67
t-64.5 -32q-45 0 -69 31t-26 107q-4 118 -142 118q-72 0 -115 -29t-64.5 -76.5t-28 -104.5t-6.5 -111q0 -17 2 -54.5t5.5 -83t8 -95t8.5 -92.5h308l2 -76h-303l-2 -109q0 -111 -19.5 -208t-57.5 -198q180 -93 382 -93q205 0 257 180l39 -9q-7 -69 -32 -137t-68 -122
t-105 -87t-143 -33q-116 0 -210.5 55.5t-166.5 131.5q-32 -76 -88 -131.5t-129 -55.5q-59 0 -102 44t-43 107q0 79 56.5 131t144.5 52q25 0 48 -4.5t47 -6.5q16 116 10 239t-23 254h-233v76z" />
    <glyph glyph-name="currency" unicode="&#xa4;" horiz-adv-x="1243" 
d="M90 217l-68 65l177 170q-59 61 -91.5 143t-32.5 175q0 95 32.5 174.5t91.5 144.5l-177 170l68 65l177 -169q65 58 150 87.5t182 29.5q196 0 332 -117l176 169l68 -65l-177 -170q59 -63 92 -143.5t33 -175.5q0 -93 -33 -174t-92 -144l177 -170l-68 -65l-176 169
q-136 -117 -332 -117q-97 0 -182 29.5t-150 87.5zM174 770q0 -85 32.5 -159t90.5 -130t136 -87.5t166 -31.5t164.5 31.5t134 87.5t92 130t34.5 159q0 84 -34.5 158.5t-92 131t-134 88t-164.5 31.5t-166 -31.5t-136 -88t-90.5 -131t-32.5 -158.5z" />
    <glyph glyph-name="yen" unicode="&#xa5;" horiz-adv-x="1401" 
d="M732 761l145 332h-276zM539 640l-60 142h-380v85h341l-97 226h-244v86h209l-64 147q-34 79 -94 124.5t-150 45.5v40h668v-40q-73 0 -113 -14t-53.5 -40t-4.5 -65.5t29 -93.5l41 -104h347l56 127q43 84 9.5 137t-147.5 53v40h539v-40q-101 0 -169 -41t-120 -151l-56 -125
h220v-86h-259l-103 -226h362v-85h-401l-52 -116v-422q0 -122 47.5 -162.5t166.5 -40.5v-41h-684v41q63 0 105 8.5t67 31.5t34.5 62.5t9.5 100.5v396z" />
    <glyph glyph-name="brokenbar" unicode="&#xa6;" horiz-adv-x="523" 
d="M255 829h-108v707h108v-707zM255 -438h-108v738h108v-738z" />
    <glyph glyph-name="section" unicode="&#xa7;" horiz-adv-x="1182" 
d="M436 920q-76 -45 -127.5 -107.5t-51.5 -148.5q0 -79 46.5 -145.5t112 -124.5t139 -108.5t124.5 -100.5q71 39 125 102t54 142q0 84 -45 150.5t-112 125t-139 110.5t-126 105zM397 955q-58 58 -103.5 131t-45.5 154q0 70 26 131t72.5 105t108.5 70t135 26q59 0 113 -19
t94.5 -53t65.5 -81.5t25 -103.5q0 -39 -26 -69t-67 -30q-38 0 -66.5 24.5t-28.5 63.5q0 26 9 53t9 57q0 52 -39 78t-89 26q-41 0 -80.5 -13.5t-69 -39.5t-47.5 -61t-18 -76q0 -74 45 -135t112 -116.5t146 -110t145.5 -117.5t112 -140t45.5 -174q0 -59 -21.5 -116t-58 -108
t-84 -91.5t-99.5 -68.5q60 -58 105.5 -125t45.5 -155q0 -72 -26 -135.5t-72 -110.5t-109 -75.5t-138 -28.5q-56 0 -109 19.5t-95 53t-67 81t-25 103.5q0 39 26 69.5t67 30.5q45 0 65.5 -31.5t20.5 -70.5q0 -31 -9.5 -60.5t-9.5 -60.5q0 -26 16 -42t37.5 -23.5t46.5 -11
t45 -3.5q36 0 74.5 17.5t68 44.5t48.5 61.5t19 70.5q0 73 -45 134t-113 118.5t-145.5 115t-145.5 122t-113 139t-45 167.5q0 129 74.5 229.5t186.5 160.5z" />
    <glyph glyph-name="dia" unicode="&#xa8;" horiz-adv-x="840" 
d="M571 1429q50 0 85.5 -33.5t35.5 -82.5q0 -52 -35.5 -87.5t-85.5 -35.5q-49 0 -84 35.5t-35 87.5q0 49 35 82.5t84 33.5zM183 1429q50 0 84.5 -33.5t34.5 -82.5q0 -52 -34.5 -87.5t-84.5 -35.5t-85 35.5t-35 87.5q0 49 35 82.5t85 33.5z" />
    <glyph glyph-name="copyright" unicode="&#xa9;" horiz-adv-x="1714" 
d="M1595 770q0 152 -58 286t-158.5 232t-235 156t-285.5 58t-285.5 -58t-234 -156t-158 -232t-58.5 -286q0 -153 58.5 -286.5t158 -234t234 -158t285.5 -57.5t285.5 56.5t235 154.5t158.5 233.5t58 291.5zM1664 770q0 -167 -62.5 -313.5t-172.5 -256.5t-256.5 -173
t-314.5 -63q-166 0 -313.5 63t-256.5 173t-172.5 256.5t-63.5 313.5q0 168 63.5 313.5t172.5 254t256.5 171.5t313.5 63q168 0 314.5 -63t256.5 -171.5t172.5 -254t62.5 -313.5zM1252 970h-41q-32 123 -123.5 194t-218.5 71q-97 0 -162 -35.5t-106 -97t-58 -140t-17 -165.5
q0 -92 18.5 -176t62.5 -148t117 -102.5t182 -38.5q101 0 196 45t154 136l46 -25q-80 -117 -193 -175t-251 -58q-104 0 -198.5 37.5t-166 105t-114.5 159.5t-43 200q0 120 41 218t113.5 168t172.5 108t221 38q60 0 101 -12t104 -31q11 -4 20 -7.5t20 -3.5q26 0 39 17.5
t20 36.5h41z" />
    <glyph glyph-name="ordfeminine" unicode="&#xaa;" horiz-adv-x="813" 
d="M433 1285q-36 -11 -78.5 -28t-79 -42t-60 -57.5t-23.5 -71.5q0 -40 30.5 -69.5t73.5 -29.5q38 0 70.5 21.5t66.5 39.5v237zM599 1041q0 -15 6.5 -33.5t26.5 -20.5q17 2 35 16t31 23v-52q-45 -32 -87 -58t-89 -26q-43 0 -63.5 32.5t-25.5 71.5q-51 -39 -115.5 -71.5
t-136.5 -32.5q-59 0 -106 42t-47 105q0 58 41 105.5t103.5 85t133.5 64.5t127 45q0 34 -2 69.5t-13 62.5t-37 43.5t-73 16.5q-60 0 -82.5 -24t-22.5 -68q0 -34 -14.5 -64.5t-57.5 -30.5q-32 0 -52.5 19t-20.5 49q0 47 27.5 78.5t69 51t90 26t94.5 6.5q88 0 140 -20t77.5 -52
t34 -69t8.5 -73v-317z" />
    <glyph glyph-name="guillemotleft" unicode="&#xab;" horiz-adv-x="1239" 
d="M1009 0l-449 520l449 517h71l-289 -517l289 -520h-71zM563 0l-450 520l450 517h69l-289 -517l289 -520h-69z" />
    <glyph glyph-name="logicalnot" unicode="&#xac;" horiz-adv-x="1397" 
d="M1321 1037v-466h-99v367h-1177v99h1276z" />
    <glyph glyph-name="sfthyphen" unicode="&#xad;" horiz-adv-x="752" 
d="M610 621v-136h-565v136h565z" />
    <glyph glyph-name="registered" unicode="&#xae;" horiz-adv-x="1717" 
d="M1591 770q0 152 -58 286t-158.5 232t-235 156t-285.5 58t-286 -58t-234 -156t-158 -232t-59 -286q0 -153 59 -286.5t158 -234t234 -158t286 -57.5t285.5 56.5t235 154.5t158.5 233.5t58 291.5zM1660 770q0 -167 -63 -313.5t-172.5 -256.5t-256.5 -173t-314 -63t-314 63
t-256.5 173t-173 256.5t-63.5 313.5q0 168 63.5 313.5t173 254t256.5 171.5t314 63t314 -63t256.5 -171.5t172.5 -254t63 -313.5zM732 797q52 0 108.5 8t102.5 31.5t75.5 63.5t29.5 105q0 95 -68 157t-169 62q-25 0 -50.5 -3t-51.5 -14v-410h23zM539 1100q0 84 -22 108.5
t-88 24.5v41h429q77 0 146 -14t122 -44t84.5 -78.5t31.5 -116.5q0 -59 -21.5 -100.5t-58.5 -72.5t-84.5 -50.5t-99.5 -32.5l231 -313q24 -34 42.5 -57.5t35.5 -38.5t38.5 -21.5t52.5 -6.5v-41h-229l-349 459h-91v-265q0 -93 42 -123t101 -30v-41h-436v41q52 0 87.5 30
t35.5 123v619z" />
    <glyph glyph-name="macron" unicode="&#xaf;" horiz-adv-x="840" 
d="M25 1364h705v-142h-705v142z" />
    <glyph glyph-name="degree" unicode="&#xb0;" horiz-adv-x="977" 
d="M709 1227q0 51 -21.5 97.5t-56 80.5t-82 54t-101.5 20q-53 0 -99.5 -20t-82 -54t-57 -79t-21.5 -97q0 -54 20 -101.5t56 -84t84.5 -56.5t105.5 -20t103 21t80 56.5t53 83t19 99.5zM813 1227q0 -72 -28 -136.5t-76.5 -112t-114.5 -75.5t-140 -28q-79 0 -145.5 28
t-117.5 75.5t-79 112t-28 138.5q0 70 29 133t79 109.5t115.5 73.5t140.5 27q74 0 140.5 -27t116 -74.5t79 -110.5t29.5 -133z" />
    <glyph glyph-name="plusminus" unicode="&#xb1;" horiz-adv-x="1387" 
d="M95 332h533v427h-533v95h533v513h99v-513h534v-95h-534v-427h534v-95h-1166v95z" />
    <glyph glyph-name="twosuperior" unicode="&#xb2;" horiz-adv-x="887" 
d="M67 795q58 41 134.5 99.5t146.5 127.5t118.5 142.5t48.5 141.5q0 69 -50.5 114.5t-123.5 45.5q-136 0 -181 -131h-54q7 49 33 92t63 75t83.5 51t96.5 19q133 0 205.5 -59.5t72.5 -167.5q0 -69 -44.5 -138t-107.5 -130.5t-133.5 -117.5t-119.5 -99h249q52 0 93 13t60 54
h54l-67 -173h-577v41z" />
    <glyph glyph-name="threesuperior" unicode="&#xb3;" horiz-adv-x="770" 
d="M219 1181q41 0 78 11.5t66.5 32.5t47.5 54.5t18 73.5q0 63 -36 92.5t-102 29.5q-52 0 -97 -28.5t-74 -71.5l-43 21q36 83 104.5 129.5t165.5 46.5q39 0 78.5 -10t70 -30.5t50 -53t19.5 -75.5q0 -52 -30.5 -98t-73.5 -78q72 -25 112.5 -76t40.5 -130q0 -77 -32.5 -131
t-87 -89.5t-120.5 -52t-135 -16.5q-15 0 -44.5 3.5t-58 12.5t-49 23.5t-20.5 39.5t20.5 35t43.5 10q22 0 45 -9t47.5 -20.5t51.5 -20.5t59 -9q63 0 109.5 46.5t46.5 107.5q0 52 -21 88t-57.5 59t-86 33t-106.5 10v40z" />
    <glyph glyph-name="acute" unicode="&#xb4;" horiz-adv-x="840" 
d="M623 1534l-325 -382h-38l117 382h246z" />
    <glyph glyph-name="mu" unicode="&#xb5;" horiz-adv-x="1233" 
d="M296 1037v-634q0 -140 41.5 -219.5t134.5 -79.5q41 0 79.5 13.5t74.5 35t67.5 48.5t56.5 56v780h188v-761q0 -21 4 -53.5t14.5 -63t26 -52t41.5 -21.5q24 0 41 15.5t29.5 37t18 46.5t8.5 43h51q0 -52 -15.5 -99t-45 -83.5t-73.5 -59t-100 -22.5q-52 0 -87.5 18t-57 48.5
t-31.5 69t-12 81.5q-34 -41 -75 -80.5t-86.5 -70t-99 -48.5t-114.5 -18q-63 0 -105 22.5t-74 67.5h-4q0 -74 7.5 -132t16 -105.5t16 -87t7.5 -79.5q0 -49 -21.5 -89t-73.5 -40q-54 0 -77.5 43t-23.5 89q0 47 10 88.5t22.5 96t22.5 129t10 186.5v884h188z" />
    <glyph glyph-name="paragraph" unicode="&#xb6;" horiz-adv-x="1262" 
d="M998 -438h-86v1947h-220v-1947h-86v1149q-121 0 -219 23t-169 72.5t-111 131t-40 198.5q0 206 123.5 321t378.5 115h588v-63h-159v-1947z" />
    <glyph glyph-name="periodcentered" unicode="&#xb7;" horiz-adv-x="654" 
d="M274 872q51 0 88 -36t37 -86q0 -52 -37 -87t-88 -35q-52 0 -89.5 35t-37.5 87q0 50 37.5 86t89.5 36z" />
    <glyph glyph-name="ced" unicode="&#xb8;" horiz-adv-x="840" 
d="M422 13h73l-86 -130q138 -36 138 -163q0 -77 -66 -138q-61 -58 -171 -58q-41 0 -105 6v45q17 -2 30 -2h25q59 0 95 37q38 38 38 86q0 30 -26 54t-63 24q-17 0 -28 -2z" />
    <glyph glyph-name="onesuperior" unicode="&#xb9;" horiz-adv-x="772" 
d="M149 1470l239 102h41v-691q0 -70 7 -86q4 -9 21 -15q15 -10 92 -10v-38h-379v38q74 0 93 8q13 6 19 19q5 14 5 84v436q0 43 -1 70t-4 40q-6 34 -36 34q-24 0 -76 -22z" />
    <glyph glyph-name="ordmasculine" unicode="&#xba;" horiz-adv-x="871" 
d="M571 1164q0 45 -11 105.5t-35.5 115t-65.5 93t-102 38.5q-45 0 -73.5 -21.5t-44 -54.5t-22.5 -70.5t-7 -70.5q0 -40 10.5 -100.5t34 -115.5t60.5 -96t94 -41q48 0 79.5 18.5t49.5 48.5t25.5 70t7.5 81zM737 1235q0 -67 -29 -129.5t-76 -111t-110 -76.5t-134 -28
t-134.5 25t-110 68t-72.5 102.5t-26 132.5q0 77 26 141t73.5 111.5t113 74.5t145.5 27q73 0 134.5 -27t105.5 -72.5t69 -106t25 -131.5z" />
    <glyph glyph-name="guillemotright" unicode="&#xbb;" horiz-adv-x="1239" 
d="M403 520l-290 517h70l449 -517l-449 -520h-70zM849 520l-289 517h70l450 -517l-450 -520h-70z" />
    <glyph glyph-name="onequarter" unicode="&#xbc;" horiz-adv-x="1841" 
d="M393 -56h-104l1097 1628h105zM158 795q38 0 62 3.5t36.5 13.5t16 28t3.5 46v453q0 77 -6.5 99.5t-32.5 22.5q-20 0 -40.5 -6.5t-38.5 -17.5l-22 33l241 102h48v-686q0 -28 4 -46t18 -28t37.5 -13.5t62.5 -3.5v-41h-389v41zM1491 655h-2l-305 -362h307v362zM1491 0v205
h-405v86l446 526h108v-524h129v-88h-129v-205h-149z" />
    <glyph glyph-name="onehalf" unicode="&#xbd;" horiz-adv-x="1815" 
d="M1102 41q55 43 131.5 101.5t146.5 126t120 140t50 143.5q0 69 -51 114t-124 45q-135 0 -180 -131h-54q6 50 32 93t63.5 75t84 50.5t95.5 18.5q134 0 206 -59.5t72 -167.5q0 -68 -44 -137t-107.5 -131t-133.5 -117.5t-120 -98.5h250q52 0 92.5 12.5t60.5 53.5h54l-67 -172
h-577v41zM377 -56h-103l1097 1628h104zM158 795q38 0 62 3.5t36.5 13.5t16 28t3.5 46v453q0 77 -6.5 99.5t-32.5 22.5q-20 0 -40.5 -6.5t-38.5 -17.5l-22 33l241 102h48v-686q0 -28 4 -46t18 -28t37.5 -13.5t62.5 -3.5v-41h-389v41z" />
    <glyph glyph-name="threequarters" unicode="&#xbe;" horiz-adv-x="1844" 
d="M1516 655h-3l-304 -362h307v362zM1516 0v205h-404v86l444 526h108v-524h129v-88h-129v-205h-148zM418 -56h-104l1098 1628h104zM215 1181q40 0 77.5 11.5t66.5 32.5t47.5 54.5t18.5 73.5q0 122 -138 122q-52 0 -97.5 -28.5t-74.5 -71.5l-42 21q35 83 104 129.5t166 46.5
q39 0 78.5 -10t70 -30.5t49.5 -53t19 -75.5q0 -52 -30 -98t-73 -78q71 -25 112 -76t41 -130q0 -77 -32.5 -131t-87 -89.5t-121.5 -52t-134 -16.5q-16 0 -45.5 3.5t-57.5 12.5t-48.5 23.5t-20.5 39.5t20.5 35t43.5 10q22 0 44.5 -9t47.5 -20.5t52 -20.5t59 -9q63 0 109 46.5
t46 107.5q0 52 -21.5 88t-57 59t-85.5 33t-106 10v40z" />
    <glyph glyph-name="questiondown" unicode="&#xbf;" horiz-adv-x="1041" 
d="M558 1177q0 -102 -18 -179.5t-46.5 -143t-61.5 -123.5t-61 -116.5t-45.5 -123t-17.5 -146.5q0 -149 70 -222t185 -73q81 0 145 33.5t64 92.5q0 27 -11 50.5t-25 46.5t-25 46.5t-8 51.5q0 47 24.5 70.5t63.5 23.5q52 0 87.5 -41.5t35.5 -113.5q0 -91 -38 -156.5
t-97 -107.5t-132 -62t-143 -20q-95 0 -174.5 24.5t-136.5 72t-88.5 115.5t-31.5 154q0 84 31.5 155t80 136.5t103.5 127.5t103.5 128.5t80.5 140t32 159.5h54zM528 1572q54 0 91.5 -35t37.5 -87q0 -51 -37.5 -86.5t-91.5 -35.5q-52 0 -87.5 35.5t-35.5 86.5q0 52 35.5 87
t87.5 35z" />
    <glyph glyph-name="Agra" unicode="&#xc0;" horiz-adv-x="1678" 
d="M504 599h522l-256 619zM858 1572l563 -1330q23 -52 44.5 -90.5t49.5 -63.5t66 -36t96 -11v-41h-634v41q125 0 155.5 49.5t-14.5 151.5l-115 271h-599l-118 -271q-18 -41 -24.5 -78t6.5 -64t53 -43t117 -16v-41h-491v41q84 0 132.5 55t87.5 146l571 1330h54zM554 2047h246
l114 -383h-37z" />
    <glyph glyph-name="Aacu" unicode="&#xc1;" horiz-adv-x="1678" 
d="M504 599h522l-256 619zM858 1572l563 -1330q23 -52 44.5 -90.5t49.5 -63.5t66 -36t96 -11v-41h-634v41q125 0 155.5 49.5t-14.5 151.5l-115 271h-599l-118 -271q-18 -41 -24.5 -78t6.5 -64t53 -43t117 -16v-41h-491v41q84 0 132.5 55t87.5 146l571 1330h54zM1109 2047
l-326 -383h-37l117 383h246z" />
    <glyph glyph-name="Acir" unicode="&#xc2;" horiz-adv-x="1678" 
d="M504 599h522l-256 619zM858 1572l563 -1330q23 -52 44.5 -90.5t49.5 -63.5t66 -36t96 -11v-41h-634v41q125 0 155.5 49.5t-14.5 151.5l-115 271h-599l-118 -271q-18 -41 -24.5 -78t6.5 -64t53 -43t117 -16v-41h-491v41q84 0 132.5 55t87.5 146l571 1330h54zM730 2039h201
l211 -362h-35l-301 234l-252 -234h-34z" />
    <glyph glyph-name="Atil" unicode="&#xc3;" horiz-adv-x="1678" 
d="M504 599h522l-256 619zM858 1572l563 -1330q23 -52 44.5 -90.5t49.5 -63.5t66 -36t96 -11v-41h-634v41q125 0 155.5 49.5t-14.5 151.5l-115 271h-599l-118 -271q-18 -41 -24.5 -78t6.5 -64t53 -43t117 -16v-41h-491v41q84 0 132.5 55t87.5 146l571 1330h54zM480 1724
q6 153 63 216q56 69 144 69q48 0 82 -15q24 -11 60.5 -30t81.5 -48q91 -61 134 -61q33 0 62 29q25 32 43 125h35q2 -75 -16.5 -129.5t-49 -89.5t-68.5 -51.5t-77 -18.5q-88 0 -217 88q-33 24 -56 38t-37 20q-24 9 -47 9q-46 0 -72 -41q-11 -17 -32 -110h-33z" />
    <glyph glyph-name="Adia" unicode="&#xc4;" horiz-adv-x="1678" 
d="M504 599h522l-256 619zM858 1572l563 -1330q23 -52 44.5 -90.5t49.5 -63.5t66 -36t96 -11v-41h-634v41q125 0 155.5 49.5t-14.5 151.5l-115 271h-599l-118 -271q-18 -41 -24.5 -78t6.5 -64t53 -43t117 -16v-41h-491v41q84 0 132.5 55t87.5 146l571 1330h54zM983 1894
q50 0 85.5 -33.5t35.5 -82.5q0 -52 -35.5 -87.5t-85.5 -35.5q-49 0 -84 35.5t-35 87.5q0 49 35 82.5t84 33.5zM595 1894q50 0 84.5 -33.5t34.5 -82.5q0 -52 -34.5 -87.5t-84.5 -35.5t-85 35.5t-35 87.5q0 49 35 82.5t85 33.5z" />
    <glyph glyph-name="Arin" unicode="&#xc5;" horiz-adv-x="1678" 
d="M504 599h522l-256 619zM858 1572l563 -1330q23 -52 44.5 -90.5t49.5 -63.5t66 -36t96 -11v-41h-634v41q125 0 155.5 49.5t-14.5 151.5l-115 271h-599l-118 -271q-18 -41 -24.5 -78t6.5 -64t53 -43t117 -16v-41h-491v41q84 0 132.5 55t87.5 146l571 1330h54zM832 2082
q88 0 149 -60q60 -61 60 -149q0 -91 -60 -151q-61 -62 -149 -62q-89 0 -149 62q-63 67 -63 151q0 88 61 149q60 60 151 60zM832 2009q-57 0 -95 -39q-41 -41 -41 -97q0 -54 41 -95q36 -41 95 -41q54 0 92 41q41 41 41 95q0 56 -41 97q-38 39 -92 39z" />
    <glyph glyph-name="AE" unicode="&#xc6;" horiz-adv-x="2198" 
d="M692 675h408l23 707zM2063 1536l17 -366h-41q-24 143 -94 216t-221 73h-389v-582h332q47 0 89 10t74 33.5t49.5 61t17.5 93.5h41v-519h-41q0 67 -17.5 114.5t-48.5 75.5t-71 41t-88 13h-337v-628q4 -39 27.5 -67t62.5 -28h321q82 0 147.5 28t116 75.5t86.5 112t59 138.5
h54l-138 -431h-1187v41q116 0 166 40.5t50 162.5v346h-466l-214 -348q-17 -41 -36.5 -78t-20.5 -64t27 -43t102 -16v-41h-479v41q60 -7 131 33.5t158 167.5l750 1211q-24 24 -66 33.5t-102 9.5v40h1179z" />
    <glyph glyph-name="Cced" unicode="&#xc7;" horiz-adv-x="1561" 
d="M1434 1050h-54q-11 93 -53 174.5t-105 141t-142.5 95t-162.5 35.5q-122 0 -229.5 -56t-185.5 -159q-77 -104 -116 -244t-39 -296q0 -163 47.5 -290.5t129.5 -215.5t191.5 -135.5t235.5 -47.5q73 0 141.5 26t129.5 71t115.5 105t96.5 128l39 -22q-44 -78 -105.5 -149
t-137 -126t-166 -88t-192.5 -33q-174 0 -320.5 62t-253 168t-166 249.5t-59.5 306.5q0 170 65 320t174.5 262t256.5 176t310 64q102 0 167.5 -15.5t107 -36t69 -36.5t51.5 -16q25 0 50 30.5t34 73.5h38zM834 13h73l-86 -130q138 -36 138 -163q0 -77 -66 -138
q-61 -58 -171 -58q-41 0 -105 6v45q17 -2 30 -2h25q59 0 95 37q38 38 38 86q0 30 -26 54t-63 24q-17 0 -28 -2z" />
    <glyph glyph-name="Egra" unicode="&#xc8;" horiz-adv-x="1438" 
d="M1224 1536l18 -366h-40q-25 143 -96 216t-220 73h-389v-582h332q48 0 89.5 10t73.5 33.5t50 61t18 93.5h40v-519h-40q0 67 -18 114.5t-49 75.5t-71.5 41t-87.5 13h-337v-628q5 -39 28.5 -67t61.5 -28h321q81 0 147 28t116.5 75.5t87 112t58.5 138.5h54l-138 -431h-1188
v41q117 0 167.5 40.5t50.5 162.5v1048q0 61 -12 100.5t-37.5 62t-67.5 32t-101 9.5v40h1179zM439 2047h246l115 -383h-38z" />
    <glyph glyph-name="Eacu" unicode="&#xc9;" horiz-adv-x="1438" 
d="M1224 1536l18 -366h-40q-25 143 -96 216t-220 73h-389v-582h332q48 0 89.5 10t73.5 33.5t50 61t18 93.5h40v-519h-40q0 67 -18 114.5t-49 75.5t-71.5 41t-87.5 13h-337v-628q5 -39 28.5 -67t61.5 -28h321q81 0 147 28t116.5 75.5t87 112t58.5 138.5h54l-138 -431h-1188
v41q117 0 167.5 40.5t50.5 162.5v1048q0 61 -12 100.5t-37.5 62t-67.5 32t-101 9.5v40h1179zM994 2047l-326 -383h-37l117 383h246z" />
    <glyph glyph-name="Ecir" unicode="&#xca;" horiz-adv-x="1438" 
d="M1224 1536l18 -366h-40q-25 143 -96 216t-220 73h-389v-582h332q48 0 89.5 10t73.5 33.5t50 61t18 93.5h40v-519h-40q0 67 -18 114.5t-49 75.5t-71.5 41t-87.5 13h-337v-628q5 -39 28.5 -67t61.5 -28h321q81 0 147 28t116.5 75.5t87 112t58.5 138.5h54l-138 -431h-1188
v41q117 0 167.5 40.5t50.5 162.5v1048q0 61 -12 100.5t-37.5 62t-67.5 32t-101 9.5v40h1179zM614 2039h201l211 -362h-34l-302 234l-252 -234h-34z" />
    <glyph glyph-name="Edia" unicode="&#xcb;" horiz-adv-x="1438" 
d="M1224 1536l18 -366h-40q-25 143 -96 216t-220 73h-389v-582h332q48 0 89.5 10t73.5 33.5t50 61t18 93.5h40v-519h-40q0 67 -18 114.5t-49 75.5t-71.5 41t-87.5 13h-337v-628q5 -39 28.5 -67t61.5 -28h321q81 0 147 28t116.5 75.5t87 112t58.5 138.5h54l-138 -431h-1188
v41q117 0 167.5 40.5t50.5 162.5v1048q0 61 -12 100.5t-37.5 62t-67.5 32t-101 9.5v40h1179zM876 1894q50 0 85.5 -33.5t35.5 -82.5q0 -52 -35.5 -87.5t-85.5 -35.5q-49 0 -84 35.5t-35 87.5q0 49 35 82.5t84 33.5zM488 1894q50 0 84.5 -33.5t34.5 -82.5q0 -52 -34.5 -87.5
t-84.5 -35.5t-85 35.5t-35 87.5q0 49 35 82.5t85 33.5z" />
    <glyph glyph-name="Igra" unicode="&#xcc;" horiz-adv-x="858" 
d="M269 1292q0 61 -11.5 100.5t-37.5 62t-68 32t-100 9.5v40h668v-40q-58 0 -100 -9.5t-68 -32t-37 -62t-11 -100.5v-1048q0 -61 11 -100.5t37 -62.5t68 -31.5t100 -8.5v-41h-668v41q118 0 167.5 40.5t49.5 162.5v1048zM109 2047h246l115 -383h-38z" />
    <glyph glyph-name="Iacu" unicode="&#xcd;" horiz-adv-x="858" 
d="M269 1292q0 61 -11.5 100.5t-37.5 62t-68 32t-100 9.5v40h668v-40q-58 0 -100 -9.5t-68 -32t-37 -62t-11 -100.5v-1048q0 -61 11 -100.5t37 -62.5t68 -31.5t100 -8.5v-41h-668v41q118 0 167.5 40.5t49.5 162.5v1048zM666 2047l-325 -383h-38l117 383h246z" />
    <glyph glyph-name="Icir" unicode="&#xce;" horiz-adv-x="858" 
d="M269 1292q0 61 -11.5 100.5t-37.5 62t-68 32t-100 9.5v40h668v-40q-58 0 -100 -9.5t-68 -32t-37 -62t-11 -100.5v-1048q0 -61 11 -100.5t37 -62.5t68 -31.5t100 -8.5v-41h-668v41q118 0 167.5 40.5t49.5 162.5v1048zM285 2039h200l211 -362h-34l-301 234l-253 -234h-34z
" />
    <glyph glyph-name="Idia" unicode="&#xcf;" horiz-adv-x="858" 
d="M269 1292q0 61 -11.5 100.5t-37.5 62t-68 32t-100 9.5v40h668v-40q-58 0 -100 -9.5t-68 -32t-37 -62t-11 -100.5v-1048q0 -61 11 -100.5t37 -62.5t68 -31.5t100 -8.5v-41h-668v41q118 0 167.5 40.5t49.5 162.5v1048zM579 1894q50 0 85.5 -33.5t35.5 -82.5
q0 -52 -35.5 -87.5t-85.5 -35.5q-49 0 -84 35.5t-35 87.5q0 49 35 82.5t84 33.5zM191 1894q50 0 84.5 -33.5t34.5 -82.5q0 -52 -34.5 -87.5t-84.5 -35.5t-85 35.5t-35 87.5q0 49 35 82.5t85 33.5z" />
    <glyph glyph-name="Eth" unicode="&#xd0;" horiz-adv-x="1667" 
d="M497 856h366v-93h-366v-650q59 -23 120.5 -29.5t128.5 -6.5q117 0 222 48.5t182 140t122 220t45 292.5q0 142 -43 266t-118.5 216.5t-181 145.5t-228.5 53q-86 0 -140 -11t-109 -27v-565zM263 763h-218v93h218v436q0 61 -12 100.5t-37.5 62t-67.5 32t-101 9.5v40h682
q217 0 371 -44t258 -141q237 -222 237 -569q0 -163 -53 -305.5t-156 -248.5t-254.5 -167t-345.5 -61h-739v41q117 0 167.5 40.5t50.5 162.5v519z" />
    <glyph glyph-name="Ntil" unicode="&#xd1;" horiz-adv-x="1671" 
d="M255 1278q0 48 -20 88.5t-55.5 69t-81.5 44.5t-98 16v40h386l916 -1122h8v878q0 61 -11.5 100.5t-37.5 62t-67.5 32t-100.5 9.5v40h538v-40q-59 0 -100.5 -9.5t-67.5 -32t-37.5 -62t-11.5 -100.5v-1328h-54l-992 1249h-8v-969q0 -61 11 -100.5t36.5 -62.5t67.5 -31.5
t101 -8.5v-41h-537v41q117 0 166.5 40.5t49.5 162.5v1034zM463 1724q7 153 63 216q56 69 145 69q47 0 81 -15q25 -11 61 -30t82 -48q90 -61 133 -61q33 0 63 29q24 32 43 125h34q2 -75 -16 -129.5t-49 -89.5t-69 -51.5t-77 -18.5q-88 0 -217 88q-33 24 -55.5 38t-37.5 20
q-24 9 -47 9q-45 0 -72 -41q-11 -17 -32 -110h-33z" />
    <glyph glyph-name="Ogra" unicode="&#xd2;" horiz-adv-x="1686" 
d="M843 41q119 0 211.5 55t155 153t95 233t32.5 296q0 157 -32.5 289t-95 227.5t-155 148.5t-211.5 53q-123 0 -215.5 -53t-154.5 -148.5t-94 -227.5t-32 -289q0 -161 32 -296t94 -233t154.5 -153t215.5 -55zM843 -36q-164 0 -305 64.5t-243.5 175t-162 258.5t-59.5 316
q0 164 59.5 308.5t162 253t243.5 170.5t305 62q162 0 303 -62t244 -170.5t163 -253t60 -308.5q0 -168 -60 -316t-163 -258.5t-244 -175t-303 -64.5zM563 2047h245l115 -383h-37z" />
    <glyph glyph-name="Oacu" unicode="&#xd3;" horiz-adv-x="1686" 
d="M843 41q119 0 211.5 55t155 153t95 233t32.5 296q0 157 -32.5 289t-95 227.5t-155 148.5t-211.5 53q-123 0 -215.5 -53t-154.5 -148.5t-94 -227.5t-32 -289q0 -161 32 -296t94 -233t154.5 -153t215.5 -55zM843 -36q-164 0 -305 64.5t-243.5 175t-162 258.5t-59.5 316
q0 164 59.5 308.5t162 253t243.5 170.5t305 62q162 0 303 -62t244 -170.5t163 -253t60 -308.5q0 -168 -60 -316t-163 -258.5t-244 -175t-303 -64.5zM1118 2047l-325 -383h-37l116 383h246z" />
    <glyph glyph-name="Ocir" unicode="&#xd4;" horiz-adv-x="1686" 
d="M843 41q119 0 211.5 55t155 153t95 233t32.5 296q0 157 -32.5 289t-95 227.5t-155 148.5t-211.5 53q-123 0 -215.5 -53t-154.5 -148.5t-94 -227.5t-32 -289q0 -161 32 -296t94 -233t154.5 -153t215.5 -55zM843 -36q-164 0 -305 64.5t-243.5 175t-162 258.5t-59.5 316
q0 164 59.5 308.5t162 253t243.5 170.5t305 62q162 0 303 -62t244 -170.5t163 -253t60 -308.5q0 -168 -60 -316t-163 -258.5t-244 -175t-303 -64.5zM739 2039h201l210 -362h-34l-301 234l-252 -234h-35z" />
    <glyph glyph-name="Otil" unicode="&#xd5;" horiz-adv-x="1686" 
d="M843 41q119 0 211.5 55t155 153t95 233t32.5 296q0 157 -32.5 289t-95 227.5t-155 148.5t-211.5 53q-123 0 -215.5 -53t-154.5 -148.5t-94 -227.5t-32 -289q0 -161 32 -296t94 -233t154.5 -153t215.5 -55zM843 -36q-164 0 -305 64.5t-243.5 175t-162 258.5t-59.5 316
q0 164 59.5 308.5t162 253t243.5 170.5t305 62q162 0 303 -62t244 -170.5t163 -253t60 -308.5q0 -168 -60 -316t-163 -258.5t-244 -175t-303 -64.5zM489 1724q6 153 63 216q56 69 144 69q47 0 82 -15q24 -11 60.5 -30t81.5 -48q90 -61 133 -61q33 0 63 29q25 32 43 125h34
q3 -75 -15.5 -129.5t-49.5 -89.5t-69 -51.5t-76 -18.5q-88 0 -218 88q-33 24 -55.5 38t-36.5 20q-24 9 -48 9q-45 0 -71 -41q-11 -17 -32 -110h-33z" />
    <glyph glyph-name="Odia" unicode="&#xd6;" horiz-adv-x="1686" 
d="M843 41q119 0 211.5 55t155 153t95 233t32.5 296q0 157 -32.5 289t-95 227.5t-155 148.5t-211.5 53q-123 0 -215.5 -53t-154.5 -148.5t-94 -227.5t-32 -289q0 -161 32 -296t94 -233t154.5 -153t215.5 -55zM843 -36q-164 0 -305 64.5t-243.5 175t-162 258.5t-59.5 316
q0 164 59.5 308.5t162 253t243.5 170.5t305 62q162 0 303 -62t244 -170.5t163 -253t60 -308.5q0 -168 -60 -316t-163 -258.5t-244 -175t-303 -64.5zM991 1894q50 0 85.5 -33.5t35.5 -82.5q0 -52 -35.5 -87.5t-85.5 -35.5q-49 0 -84 35.5t-35 87.5q0 49 35 82.5t84 33.5z
M603 1894q50 0 84.5 -33.5t34.5 -82.5q0 -52 -34.5 -87.5t-84.5 -35.5t-85 35.5t-35 87.5q0 49 35 82.5t85 33.5z" />
    <glyph glyph-name="multiply" unicode="&#xd7;" horiz-adv-x="1215" 
d="M549 759l-375 393l72 57l368 -382l369 382l71 -57l-377 -393l377 -388l-73 -61l-367 382l-366 -382l-74 61z" />
    <glyph glyph-name="Oslash" unicode="&#xd8;" horiz-adv-x="1686" 
d="M255 -226l-99 70l201 298q-18 14 -32.5 28.5t-31.5 30.5q-103 113 -161.5 260t-58.5 317q0 164 59.5 308.5t162 253t243.5 170.5t305 62q217 0 390 -108l5 -5l189 283l95 -65l-190 -285q17 -12 30 -25.5t28 -27.5q106 -108 164.5 -252.5t58.5 -308.5q0 -226 -103 -410.5
t-277 -292.5q-43 -25 -88 -46.5t-95 -35.5q-95 -29 -153 -29h-108q-57 0 -155 29q-49 14 -93 34t-87 46zM1052 1444q-92 52 -209 52q-123 0 -215.5 -53t-154.5 -148.5t-94 -227.5t-32 -289q0 -166 30 -297q13 -54 31.5 -103.5t43.5 -92.5l714 1066q-25 27 -53.5 50.5
t-60.5 42.5zM843 41q119 0 211.5 55t155 153t95 233t32.5 296q0 160 -33 289q-23 97 -69 179l-711 -1065q45 -52 104 -86q90 -54 215 -54z" />
    <glyph glyph-name="Ugra" unicode="&#xd9;" horiz-adv-x="1698" 
d="M255 1292q0 61 -11 100.5t-37 62t-68 32t-100 9.5v40h668v-40q-58 0 -100 -9.5t-68 -32t-37.5 -62t-11.5 -100.5v-753q0 -99 31 -184.5t87 -151t136.5 -103t179.5 -37.5q102 0 182 37.5t135.5 103t86 151t30.5 184.5v753q0 61 -11.5 100.5t-37.5 62t-68 32t-100 9.5v40
h538v-40q-60 0 -101.5 -9.5t-67 -32t-37.5 -62t-12 -100.5v-753q0 -117 -34.5 -221.5t-108.5 -183t-189.5 -124.5t-279.5 -46q-144 0 -255 46t-186.5 125.5t-114 184.5t-38.5 225v747zM646 2047h246l115 -383h-37z" />
    <glyph glyph-name="Uacu" unicode="&#xda;" horiz-adv-x="1698" 
d="M255 1292q0 61 -11 100.5t-37 62t-68 32t-100 9.5v40h668v-40q-58 0 -100 -9.5t-68 -32t-37.5 -62t-11.5 -100.5v-753q0 -99 31 -184.5t87 -151t136.5 -103t179.5 -37.5q102 0 182 37.5t135.5 103t86 151t30.5 184.5v753q0 61 -11.5 100.5t-37.5 62t-68 32t-100 9.5v40
h538v-40q-60 0 -101.5 -9.5t-67 -32t-37.5 -62t-12 -100.5v-753q0 -117 -34.5 -221.5t-108.5 -183t-189.5 -124.5t-279.5 -46q-144 0 -255 46t-186.5 125.5t-114 184.5t-38.5 225v747zM1201 2047l-325 -383h-38l117 383h246z" />
    <glyph glyph-name="Ucir" unicode="&#xdb;" horiz-adv-x="1698" 
d="M255 1292q0 61 -11 100.5t-37 62t-68 32t-100 9.5v40h668v-40q-58 0 -100 -9.5t-68 -32t-37.5 -62t-11.5 -100.5v-753q0 -99 31 -184.5t87 -151t136.5 -103t179.5 -37.5q102 0 182 37.5t135.5 103t86 151t30.5 184.5v753q0 61 -11.5 100.5t-37.5 62t-68 32t-100 9.5v40
h538v-40q-60 0 -101.5 -9.5t-67 -32t-37.5 -62t-12 -100.5v-753q0 -117 -34.5 -221.5t-108.5 -183t-189.5 -124.5t-279.5 -46q-144 0 -255 46t-186.5 125.5t-114 184.5t-38.5 225v747zM823 2039h201l210 -362h-34l-301 234l-253 -234h-34z" />
    <glyph glyph-name="Udia" unicode="&#xdc;" horiz-adv-x="1698" 
d="M255 1292q0 61 -11 100.5t-37 62t-68 32t-100 9.5v40h668v-40q-58 0 -100 -9.5t-68 -32t-37.5 -62t-11.5 -100.5v-753q0 -99 31 -184.5t87 -151t136.5 -103t179.5 -37.5q102 0 182 37.5t135.5 103t86 151t30.5 184.5v753q0 61 -11.5 100.5t-37.5 62t-68 32t-100 9.5v40
h538v-40q-60 0 -101.5 -9.5t-67 -32t-37.5 -62t-12 -100.5v-753q0 -117 -34.5 -221.5t-108.5 -183t-189.5 -124.5t-279.5 -46q-144 0 -255 46t-186.5 125.5t-114 184.5t-38.5 225v747zM1067 1891q50 0 85.5 -33.5t35.5 -82.5q0 -52 -35.5 -87.5t-85.5 -35.5q-49 0 -84 35.5
t-35 87.5q0 49 35 82.5t84 33.5zM679 1891q50 0 84.5 -33.5t34.5 -82.5q0 -52 -34.5 -87.5t-84.5 -35.5t-85 35.5t-35 87.5q0 49 35 82.5t85 33.5z" />
    <glyph glyph-name="Yacu" unicode="&#xdd;" horiz-adv-x="1579" 
d="M632 1536v-40q-187 0 -182 -106q0 -43 40 -107l332 -533l346 556q22 43 22 78q0 112 -160 112v40h540v-40q-100 0 -159.5 -45.5t-125.5 -146.5l-401 -640v-420q0 -61 11 -100.5t36.5 -62.5t67.5 -31.5t101 -8.5v-41h-669v41q118 0 168 40.5t50 162.5v396l-455 681
q-24 37 -46.5 69.5t-47.5 55t-58 36.5t-78 14v40h668zM1109 2047l-326 -383h-37l117 383h246z" />
    <glyph glyph-name="Thorn" unicode="&#xde;" horiz-adv-x="1338" 
d="M497 470q38 -11 84.5 -22.5t93.5 -11.5q75 0 131.5 24.5t94 67.5t56.5 102t19 124q0 78 -23.5 145.5t-66.5 117.5t-99.5 78t-122.5 28q-32 0 -73.5 -2.5t-93.5 -20.5v-630zM497 1188q42 4 93.5 10t114.5 11q108 0 204 -30t167 -86t112 -137t41 -186q0 -106 -40 -182.5
t-104 -128.5t-146.5 -77t-168.5 -25q-35 0 -76 2.5t-78.5 5.5t-68 8.5t-50.5 10.5v-140q0 -61 11.5 -100.5t37 -62.5t67.5 -31.5t101 -8.5v-41h-669v41q117 0 167.5 40.5t50.5 162.5v1048q0 61 -12 100.5t-37.5 62t-67.5 32t-101 9.5v40h669v-40q-59 0 -101 -9.5t-67.5 -32
t-37 -62t-11.5 -100.5v-104z" />
    <glyph glyph-name="germandbls" unicode="&#xdf;" horiz-adv-x="1471" 
d="M662 360h41q8 -67 37.5 -122t71.5 -96t93.5 -64.5t107.5 -23.5q71 0 121 45t50 104q0 64 -40 106.5t-98.5 75.5t-127.5 64.5t-127.5 73.5t-98 100.5t-39.5 146.5q0 127 81 208.5t223 81.5q26 0 20.5 -1.5t-10.5 -1.5q-3 0 0 3q42 22 69.5 61.5t40 81t9 80t-16.5 59.5
q-12 38 -46 67.5t-78 48.5t-90.5 28.5t-84.5 9.5q-35 0 -93 2t-113.5 -14t-96 -57t-40.5 -125v-1060q0 -111 30.5 -156t132.5 -45v-41h-513v41q52 0 83.5 11t49.5 34.5t23.5 62.5t5.5 93v950q0 103 39 171.5t96 110.5t126 62t129 28t101.5 8h49.5q72 0 143 -15.5t130 -45.5
t101.5 -69t56.5 -86l2 -17q9 -40 7 -101t-20.5 -116t-53 -94t-89.5 -36q-7 0 -28.5 -2.5t-52.5 2.5q-84 0 -133.5 -41t-49.5 -97q0 -63 43 -105t106 -75.5t139 -64.5t139 -72.5t106 -100.5t43 -145q0 -65 -24 -123t-69 -100.5t-113 -66t-156 -23.5q-47 0 -84 7.5t-69 17.5
t-57 18.5t-47 8.5q-15 0 -29 -9.5t-18 -20.5h-41v360z" />
    <glyph glyph-name="agra" unicode="&#xe0;" horiz-adv-x="1069" 
d="M638 606q-62 -21 -129 -52.5t-122 -71.5t-91 -88.5t-36 -102.5q0 -76 46 -131.5t108 -55.5t113 34t111 79v389zM825 196q0 -31 12 -55t40 -24q37 0 62 26.5t50 63.5v-76q-34 -62 -94.5 -107.5t-144.5 -45.5q-32 0 -53.5 15.5t-34.5 39t-18.5 53t-5.5 56.5
q-35 -27 -67 -56.5t-69 -53t-83 -39t-105 -15.5q-115 0 -178 74.5t-63 184.5q0 102 53 170.5t136 116t183 82t193 67.5v64q0 142 -50.5 198.5t-133.5 56.5q-47 0 -78 -14t-47.5 -36t-23.5 -50.5t-7 -57.5q0 -56 -16.5 -97t-76.5 -41q-45 0 -72 34.5t-27 86.5q0 50 31 95
t84 77t121.5 51.5t145.5 19.5q92 0 156.5 -19.5t104.5 -55.5t58 -87t18 -114v-588zM222 1534h246l114 -382h-37z" />
    <glyph glyph-name="aacu" unicode="&#xe1;" horiz-adv-x="1069" 
d="M638 606q-62 -21 -129 -52.5t-122 -71.5t-91 -88.5t-36 -102.5q0 -76 46 -131.5t108 -55.5t113 34t111 79v389zM825 196q0 -31 12 -55t40 -24q37 0 62 26.5t50 63.5v-76q-34 -62 -94.5 -107.5t-144.5 -45.5q-32 0 -53.5 15.5t-34.5 39t-18.5 53t-5.5 56.5
q-35 -27 -67 -56.5t-69 -53t-83 -39t-105 -15.5q-115 0 -178 74.5t-63 184.5q0 102 53 170.5t136 116t183 82t193 67.5v64q0 142 -50.5 198.5t-133.5 56.5q-47 0 -78 -14t-47.5 -36t-23.5 -50.5t-7 -57.5q0 -56 -16.5 -97t-76.5 -41q-45 0 -72 34.5t-27 86.5q0 50 31 95
t84 77t121.5 51.5t145.5 19.5q92 0 156.5 -19.5t104.5 -55.5t58 -87t18 -114v-588zM777 1534l-326 -382h-37l117 382h246z" />
    <glyph glyph-name="acir" unicode="&#xe2;" horiz-adv-x="1069" 
d="M638 606q-62 -21 -129 -52.5t-122 -71.5t-91 -88.5t-36 -102.5q0 -76 46 -131.5t108 -55.5t113 34t111 79v389zM825 196q0 -31 12 -55t40 -24q37 0 62 26.5t50 63.5v-76q-34 -62 -94.5 -107.5t-144.5 -45.5q-32 0 -53.5 15.5t-34.5 39t-18.5 53t-5.5 56.5
q-35 -27 -67 -56.5t-69 -53t-83 -39t-105 -15.5q-115 0 -178 74.5t-63 184.5q0 102 53 170.5t136 116t183 82t193 67.5v64q0 142 -50.5 198.5t-133.5 56.5q-47 0 -78 -14t-47.5 -36t-23.5 -50.5t-7 -57.5q0 -56 -16.5 -97t-76.5 -41q-45 0 -72 34.5t-27 86.5q0 50 31 95
t84 77t121.5 51.5t145.5 19.5q92 0 156.5 -19.5t104.5 -55.5t58 -87t18 -114v-588zM398 1527h201l211 -363h-35l-301 235l-252 -235h-34z" />
    <glyph glyph-name="atil" unicode="&#xe3;" horiz-adv-x="1069" 
d="M638 606q-62 -21 -129 -52.5t-122 -71.5t-91 -88.5t-36 -102.5q0 -76 46 -131.5t108 -55.5t113 34t111 79v389zM825 196q0 -31 12 -55t40 -24q37 0 62 26.5t50 63.5v-76q-34 -62 -94.5 -107.5t-144.5 -45.5q-32 0 -53.5 15.5t-34.5 39t-18.5 53t-5.5 56.5
q-35 -27 -67 -56.5t-69 -53t-83 -39t-105 -15.5q-115 0 -178 74.5t-63 184.5q0 102 53 170.5t136 116t183 82t193 67.5v64q0 142 -50.5 198.5t-133.5 56.5q-47 0 -78 -14t-47.5 -36t-23.5 -50.5t-7 -57.5q0 -56 -16.5 -97t-76.5 -41q-45 0 -72 34.5t-27 86.5q0 50 31 95
t84 77t121.5 51.5t145.5 19.5q92 0 156.5 -19.5t104.5 -55.5t58 -87t18 -114v-588zM148 1211q6 153 63 216q56 69 144 69q48 0 82 -15q24 -11 60.5 -30t81.5 -48q91 -61 134 -61q33 0 62 29q25 32 43 125h35q2 -75 -16.5 -129t-49 -89.5t-68.5 -52t-77 -18.5q-88 0 -217 88
q-33 24 -56 38t-37 20q-24 9 -47 9q-46 0 -72 -41q-11 -17 -32 -110h-33z" />
    <glyph glyph-name="adia" unicode="&#xe4;" horiz-adv-x="1069" 
d="M638 606q-62 -21 -129 -52.5t-122 -71.5t-91 -88.5t-36 -102.5q0 -76 46 -131.5t108 -55.5t113 34t111 79v389zM825 196q0 -31 12 -55t40 -24q37 0 62 26.5t50 63.5v-76q-34 -62 -94.5 -107.5t-144.5 -45.5q-32 0 -53.5 15.5t-34.5 39t-18.5 53t-5.5 56.5
q-35 -27 -67 -56.5t-69 -53t-83 -39t-105 -15.5q-115 0 -178 74.5t-63 184.5q0 102 53 170.5t136 116t183 82t193 67.5v64q0 142 -50.5 198.5t-133.5 56.5q-47 0 -78 -14t-47.5 -36t-23.5 -50.5t-7 -57.5q0 -56 -16.5 -97t-76.5 -41q-45 0 -72 34.5t-27 86.5q0 50 31 95
t84 77t121.5 51.5t145.5 19.5q92 0 156.5 -19.5t104.5 -55.5t58 -87t18 -114v-588zM682 1429q50 0 85.5 -33.5t35.5 -82.5q0 -52 -35.5 -87.5t-85.5 -35.5q-49 0 -84 35.5t-35 87.5q0 49 35 82.5t84 33.5zM294 1429q50 0 84.5 -33.5t34.5 -82.5q0 -52 -34.5 -87.5
t-84.5 -35.5t-85 35.5t-35 87.5q0 49 35 82.5t85 33.5z" />
    <glyph glyph-name="arin" unicode="&#xe5;" horiz-adv-x="1069" 
d="M638 606q-62 -21 -129 -52.5t-122 -71.5t-91 -88.5t-36 -102.5q0 -76 46 -131.5t108 -55.5t113 34t111 79v389zM825 196q0 -31 12 -55t40 -24q37 0 62 26.5t50 63.5v-76q-34 -62 -94.5 -107.5t-144.5 -45.5q-32 0 -53.5 15.5t-34.5 39t-18.5 53t-5.5 56.5
q-35 -27 -67 -56.5t-69 -53t-83 -39t-105 -15.5q-115 0 -178 74.5t-63 184.5q0 102 53 170.5t136 116t183 82t193 67.5v64q0 142 -50.5 198.5t-133.5 56.5q-47 0 -78 -14t-47.5 -36t-23.5 -50.5t-7 -57.5q0 -56 -16.5 -97t-76.5 -41q-45 0 -72 34.5t-27 86.5q0 50 31 95
t84 77t121.5 51.5t145.5 19.5q92 0 156.5 -19.5t104.5 -55.5t58 -87t18 -114v-588zM500 1570q88 0 149 -61q60 -61 60 -149q0 -90 -60 -151q-61 -62 -149 -62q-89 0 -149 62q-63 67 -63 151q0 88 61 149q60 61 151 61zM500 1496q-57 0 -95 -39q-41 -41 -41 -97q0 -54 41 -95
q36 -41 95 -41q54 0 92 41q41 41 41 95q0 56 -41 97q-38 39 -92 39z" />
    <glyph glyph-name="ae" unicode="&#xe6;" horiz-adv-x="1493" 
d="M1186 696q0 58 -12.5 110t-36 92t-62 62.5t-88.5 22.5q-43 0 -81.5 -22.5t-70 -62.5t-52 -92t-24.5 -110h427zM671 237q-31 80 -49.5 166.5t-11.5 181.5q-58 -22 -119.5 -52.5t-113.5 -68t-84.5 -80.5t-32.5 -93q0 -38 12.5 -72t34 -60t49.5 -40.5t58 -14.5
q62 0 125.5 34t120.5 79zM998 -22q-56 0 -98 14.5t-75.5 40t-63 63t-61.5 85.5q-6 -9 -19 -18.5t-21 -20.5q-35 -29 -69.5 -58.5t-76.5 -53t-91.5 -38t-108.5 -14.5q-113 0 -177 74.5t-64 184.5q0 97 51.5 166t133 120t178.5 88.5t187 67.5q2 32 5.5 60.5t9.5 57.5
q-6 59 -19 97.5t-37 60t-57 29.5t-71 8q-47 0 -78 -14t-47.5 -36t-22.5 -50.5t-6 -57.5q0 -56 -17.5 -97t-75.5 -41q-45 0 -72 34.5t-27 86.5q0 50 31 95t84 77t122 51.5t145 19.5q107 0 168.5 -26.5t100.5 -71.5q58 47 131.5 72.5t152.5 25.5q93 0 158.5 -33t106.5 -89.5
t59.5 -133.5t18.5 -162h-627q0 -107 18 -198.5t53 -160t90.5 -108t129.5 -39.5q122 0 209.5 69t111.5 166l41 -7q-20 -79 -59.5 -150.5t-94 -123t-121 -82t-139.5 -30.5z" />
    <glyph glyph-name="cced" unicode="&#xe7;" horiz-adv-x="1080" 
d="M517 -22q-92 0 -173 40t-141.5 109t-95 163t-34.5 202q0 118 38 221.5t104.5 181t156 121.5t191.5 44q79 0 145 -19.5t115 -52.5t76.5 -78t27.5 -97q0 -48 -40 -81.5t-85 -33.5q-52 0 -81 36t-29 79q0 73 -32 121.5t-127 48.5q-65 0 -115 -28t-86 -77t-54 -113.5
t-18 -139.5q0 -99 24 -188.5t66.5 -155.5t103.5 -105.5t136 -39.5q65 0 114.5 21.5t88.5 58.5t66 86.5t49 104.5l43 -14q-45 -199 -158.5 -307t-275.5 -108zM522 13h73l-86 -130q138 -36 138 -163q0 -77 -66 -138q-61 -58 -171 -58q-41 0 -105 6v45q17 -2 30 -2h25
q59 0 95 37q38 38 38 86q0 30 -26 54t-63 24q-17 0 -28 -2z" />
    <glyph glyph-name="egra" unicode="&#xe8;" horiz-adv-x="1104" 
d="M722 696q0 58 -18.5 110t-51.5 92t-78.5 62.5t-94.5 22.5q-41 0 -80 -22.5t-70 -62.5t-51.5 -92t-24.5 -110h469zM535 -22q-95 0 -179.5 39t-148 108t-99 160.5t-35.5 195.5q0 125 32.5 230.5t93.5 184t146.5 121.5t191.5 43q93 0 170 -33t133.5 -89.5t86.5 -133.5
t30 -162h-704q0 -107 24.5 -198.5t68.5 -160t105.5 -108t135.5 -39.5q62 0 119 18t105.5 50.5t83 75.5t47.5 91l41 -7q-21 -79 -64.5 -150.5t-105 -123t-133.5 -82t-145 -30.5zM248 1534h246l115 -382h-38z" />
    <glyph glyph-name="eacu" unicode="&#xe9;" horiz-adv-x="1104" 
d="M722 696q0 58 -18.5 110t-51.5 92t-78.5 62.5t-94.5 22.5q-41 0 -80 -22.5t-70 -62.5t-51.5 -92t-24.5 -110h469zM535 -22q-95 0 -179.5 39t-148 108t-99 160.5t-35.5 195.5q0 125 32.5 230.5t93.5 184t146.5 121.5t191.5 43q93 0 170 -33t133.5 -89.5t86.5 -133.5
t30 -162h-704q0 -107 24.5 -198.5t68.5 -160t105.5 -108t135.5 -39.5q62 0 119 18t105.5 50.5t83 75.5t47.5 91l41 -7q-21 -79 -64.5 -150.5t-105 -123t-133.5 -82t-145 -30.5zM806 1534l-325 -382h-38l117 382h246z" />
    <glyph glyph-name="ecir" unicode="&#xea;" horiz-adv-x="1104" 
d="M722 696q0 58 -18.5 110t-51.5 92t-78.5 62.5t-94.5 22.5q-41 0 -80 -22.5t-70 -62.5t-51.5 -92t-24.5 -110h469zM535 -22q-95 0 -179.5 39t-148 108t-99 160.5t-35.5 195.5q0 125 32.5 230.5t93.5 184t146.5 121.5t191.5 43q93 0 170 -33t133.5 -89.5t86.5 -133.5
t30 -162h-704q0 -107 24.5 -198.5t68.5 -160t105.5 -108t135.5 -39.5q62 0 119 18t105.5 50.5t83 75.5t47.5 91l41 -7q-21 -79 -64.5 -150.5t-105 -123t-133.5 -82t-145 -30.5zM425 1527h200l211 -363h-34l-301 235l-253 -235h-34z" />
    <glyph glyph-name="edia" unicode="&#xeb;" horiz-adv-x="1104" 
d="M722 696q0 58 -18.5 110t-51.5 92t-78.5 62.5t-94.5 22.5q-41 0 -80 -22.5t-70 -62.5t-51.5 -92t-24.5 -110h469zM535 -22q-95 0 -179.5 39t-148 108t-99 160.5t-35.5 195.5q0 125 32.5 230.5t93.5 184t146.5 121.5t191.5 43q93 0 170 -33t133.5 -89.5t86.5 -133.5
t30 -162h-704q0 -107 24.5 -198.5t68.5 -160t105.5 -108t135.5 -39.5q62 0 119 18t105.5 50.5t83 75.5t47.5 91l41 -7q-21 -79 -64.5 -150.5t-105 -123t-133.5 -82t-145 -30.5zM706 1429q50 0 85.5 -33.5t35.5 -82.5q0 -52 -35.5 -87.5t-85.5 -35.5q-49 0 -84 35.5t-35 87.5
q0 49 35 82.5t84 33.5zM318 1429q50 0 84.5 -33.5t34.5 -82.5q0 -52 -34.5 -87.5t-84.5 -35.5t-85 35.5t-35 87.5q0 49 35 82.5t85 33.5z" />
    <glyph glyph-name="igra" unicode="&#xec;" horiz-adv-x="727" 
d="M233 730q0 87 -8 128t-60 41q-18 0 -39.5 -3.5t-52.5 -14.5l-17 41l310 138h54v-818q0 -111 30.5 -156t131.5 -45v-41h-513v41q53 0 84.5 11t50 34.5t24 62.5t5.5 93v488zM28 1534h246l114 -382h-37z" />
    <glyph glyph-name="iacu" unicode="&#xed;" horiz-adv-x="727" 
d="M233 730q0 87 -8 128t-60 41q-18 0 -39.5 -3.5t-52.5 -14.5l-17 41l310 138h54v-818q0 -111 30.5 -156t131.5 -45v-41h-513v41q53 0 84.5 11t50 34.5t24 62.5t5.5 93v488zM582 1534l-325 -382h-38l117 382h246z" />
    <glyph glyph-name="icir" unicode="&#xee;" horiz-adv-x="727" 
d="M233 730q0 87 -8 128t-60 41q-18 0 -39.5 -3.5t-52.5 -14.5l-17 41l310 138h54v-818q0 -111 30.5 -156t131.5 -45v-41h-513v41q53 0 84.5 11t50 34.5t24 62.5t5.5 93v488zM203 1527h201l210 -363h-34l-301 235l-253 -235h-34z" />
    <glyph glyph-name="idia" unicode="&#xef;" horiz-adv-x="727" 
d="M233 730q0 87 -8 128t-60 41q-18 0 -39.5 -3.5t-52.5 -14.5l-17 41l310 138h54v-818q0 -111 30.5 -156t131.5 -45v-41h-513v41q53 0 84.5 11t50 34.5t24 62.5t5.5 93v488zM496 1429q50 0 85.5 -33.5t35.5 -82.5q0 -52 -35.5 -87.5t-85.5 -35.5q-49 0 -84 35.5t-35 87.5
q0 49 35 82.5t84 33.5zM108 1429q50 0 84.5 -33.5t34.5 -82.5q0 -52 -34.5 -87.5t-84.5 -35.5t-85 35.5t-35 87.5q0 49 35 82.5t85 33.5z" />
    <glyph glyph-name="eth" unicode="&#xf0;" horiz-adv-x="1194" 
d="M608 54q54 0 100 31.5t80 85t53 123.5t19 148q0 114 -17.5 212t-57 171.5t-103 115.5t-156.5 42q-47 0 -91.5 -30.5t-78 -83t-54 -122.5t-20.5 -146q0 -113 21.5 -212.5t63.5 -174t103 -117.5t138 -43zM571 -22q-108 0 -199.5 41.5t-158 112.5t-103.5 168t-37 206
q0 115 37 215.5t103.5 175.5t158 119t199.5 44q59 0 102 -10q-35 64 -75 120.5t-81 107.5l-273 -146l-37 67l254 146q-34 35 -60 57.5t-44 39.5q-18 13 -42 31t-60 40l36 57q71 -36 137.5 -78t136.5 -93l275 153l41 -67l-249 -143q174 -154 278 -335q64 -95 112.5 -212.5
t48.5 -245.5q0 -118 -37.5 -221.5t-104 -182t-158.5 -123t-200 -44.5z" />
    <glyph glyph-name="ntil" unicode="&#xf1;" horiz-adv-x="1219" 
d="M199 730q0 87 -8 128t-60 41q-18 0 -40 -3.5t-52 -14.5l-17 41l310 138h54v-211q172 211 366 211q50 0 93 -25.5t74.5 -66.5t50.5 -99t19 -123v-504q0 -111 30.5 -156t132.5 -45v-41h-512v41q52 0 83 11t49.5 34.5t24 62.5t5.5 93v469q0 102 -43 155.5t-108 53.5
q-59 0 -130 -41t-135 -109v-528q0 -111 31 -156t132 -45v-41h-513v41q52 0 83.5 11t50 34.5t24 62.5t5.5 93v488zM235 1211q7 153 63 216q56 69 144 69q48 0 82 -15q24 -11 60.5 -30t81.5 -48q91 -61 134 -61q33 0 63 29q24 32 43 125h34q2 -75 -16 -129t-49 -89.5t-69 -52
t-77 -18.5q-88 0 -217 88q-33 24 -56 38t-37 20q-24 9 -47 9q-46 0 -72 -41q-11 -17 -32 -110h-33z" />
    <glyph glyph-name="ogra" unicode="&#xf2;" horiz-adv-x="1194" 
d="M608 54q54 0 100 31.5t80 85t53 123.5t19 148q0 114 -17.5 212t-57 171.5t-103 115.5t-156.5 42q-47 0 -91.5 -30.5t-78 -83t-54 -122.5t-20.5 -146q0 -113 21.5 -212.5t63.5 -174t103 -117.5t138 -43zM571 -22q-108 0 -199.5 41.5t-158 112.5t-103.5 168t-37 206
q0 115 37 215.5t103.5 175.5t158 119t199.5 44t200 -39.5t158.5 -108.5t104 -162t37.5 -201q0 -118 -37.5 -221.5t-104 -182t-158.5 -123t-200 -44.5zM297 1534h246l114 -382h-37z" />
    <glyph glyph-name="oacu" unicode="&#xf3;" horiz-adv-x="1194" 
d="M608 54q54 0 100 31.5t80 85t53 123.5t19 148q0 114 -17.5 212t-57 171.5t-103 115.5t-156.5 42q-47 0 -91.5 -30.5t-78 -83t-54 -122.5t-20.5 -146q0 -113 21.5 -212.5t63.5 -174t103 -117.5t138 -43zM571 -22q-108 0 -199.5 41.5t-158 112.5t-103.5 168t-37 206
q0 115 37 215.5t103.5 175.5t158 119t199.5 44t200 -39.5t158.5 -108.5t104 -162t37.5 -201q0 -118 -37.5 -221.5t-104 -182t-158.5 -123t-200 -44.5zM854 1534l-326 -382h-37l117 382h246z" />
    <glyph glyph-name="ocir" unicode="&#xf4;" horiz-adv-x="1194" 
d="M608 54q54 0 100 31.5t80 85t53 123.5t19 148q0 114 -17.5 212t-57 171.5t-103 115.5t-156.5 42q-47 0 -91.5 -30.5t-78 -83t-54 -122.5t-20.5 -146q0 -113 21.5 -212.5t63.5 -174t103 -117.5t138 -43zM571 -22q-108 0 -199.5 41.5t-158 112.5t-103.5 168t-37 206
q0 115 37 215.5t103.5 175.5t158 119t199.5 44t200 -39.5t158.5 -108.5t104 -162t37.5 -201q0 -118 -37.5 -221.5t-104 -182t-158.5 -123t-200 -44.5zM472 1527h201l211 -363h-35l-301 235l-252 -235h-35z" />
    <glyph glyph-name="otil" unicode="&#xf5;" horiz-adv-x="1194" 
d="M608 54q54 0 100 31.5t80 85t53 123.5t19 148q0 114 -17.5 212t-57 171.5t-103 115.5t-156.5 42q-47 0 -91.5 -30.5t-78 -83t-54 -122.5t-20.5 -146q0 -113 21.5 -212.5t63.5 -174t103 -117.5t138 -43zM571 -22q-108 0 -199.5 41.5t-158 112.5t-103.5 168t-37 206
q0 115 37 215.5t103.5 175.5t158 119t199.5 44t200 -39.5t158.5 -108.5t104 -162t37.5 -201q0 -118 -37.5 -221.5t-104 -182t-158.5 -123t-200 -44.5zM222 1211q6 153 63 216q56 69 144 69q47 0 82 -15q24 -11 60.5 -30t81.5 -48q90 -61 133 -61q34 0 63 29q25 32 43 125h35
q2 -75 -16.5 -129t-49 -89.5t-69 -52t-76.5 -18.5q-88 0 -217 88q-34 24 -56.5 38t-36.5 20q-24 9 -48 9q-45 0 -71 -41q-11 -17 -32 -110h-33z" />
    <glyph glyph-name="odia" unicode="&#xf6;" horiz-adv-x="1194" 
d="M608 54q54 0 100 31.5t80 85t53 123.5t19 148q0 114 -17.5 212t-57 171.5t-103 115.5t-156.5 42q-47 0 -91.5 -30.5t-78 -83t-54 -122.5t-20.5 -146q0 -113 21.5 -212.5t63.5 -174t103 -117.5t138 -43zM571 -22q-108 0 -199.5 41.5t-158 112.5t-103.5 168t-37 206
q0 115 37 215.5t103.5 175.5t158 119t199.5 44t200 -39.5t158.5 -108.5t104 -162t37.5 -201q0 -118 -37.5 -221.5t-104 -182t-158.5 -123t-200 -44.5zM749 1429q50 0 85.5 -33.5t35.5 -82.5q0 -52 -35.5 -87.5t-85.5 -35.5q-49 0 -84 35.5t-35 87.5q0 49 35 82.5t84 33.5z
M361 1429q50 0 84.5 -33.5t34.5 -82.5q0 -52 -34.5 -87.5t-84.5 -35.5t-85 35.5t-35 87.5q0 49 35 82.5t85 33.5z" />
    <glyph glyph-name="divide" unicode="&#xf7;" horiz-adv-x="1176" 
d="M106 763v95h890v-95h-890zM552 1267q49 0 84 -34t35 -86q0 -50 -37 -85q-33 -36 -82 -36q-52 0 -87 36q-36 40 -36 85q0 52 35.5 86t87.5 34zM552 599q49 0 84 -35.5t35 -84.5q0 -50 -37 -86q-33 -36 -82 -36q-52 0 -87 36q-36 40 -36 86q0 49 35.5 84.5t87.5 35.5z" />
    <glyph glyph-name="oslash" unicode="&#xf8;" horiz-adv-x="1194" 
d="M974 1278l95 -65l-170 -273l30 -30q67 -67 104.5 -160t37.5 -201q0 -118 -37.5 -221.5t-104 -182t-158.5 -123t-200 -44.5q-110 0 -198 40l-34 18l-160 -262l-97 73l160 257q-7 6 -13.5 13.5t-13.5 15.5q-66 72 -104 168t-38 205q0 115 37 215.5t103.5 175.5t158 119
t199.5 44q104 0 199 -39l32 -16zM608 54q54 0 100 31.5t80 85t53 123.5t19 148q0 107 -17 211q-14 72 -39 133l-393 -635q14 -15 28.5 -29t30.5 -25q58 -43 138 -43zM682 942q-65 41 -156 41q-47 0 -91.5 -30.5t-78 -83t-54 -122.5t-20.5 -146q0 -118 22 -215q8 -31 17 -62
t20 -59l394 632q-26 25 -53 45z" />
    <glyph glyph-name="ugra" unicode="&#xf9;" horiz-adv-x="1219" 
d="M368 1037v-737q0 -37 15.5 -72.5t44.5 -60.5t67 -39.5t81 -14.5q56 0 121.5 48.5t102.5 118.5v537q0 103 -32.5 141t-129.5 38v41h349v-729q0 -103 19.5 -139t75.5 -36q18 0 37 3.5t38 14.5l13 -31l-316 -142h-54v216q-26 -45 -63 -85t-81 -69t-90 -45.5t-87 -16.5
q-61 0 -115 25t-95 68.5t-64.5 102.5t-23.5 126v517q0 103 -33 141t-130 38v41h350zM276 1534h246l114 -382h-37z" />
    <glyph glyph-name="uacu" unicode="&#xfa;" horiz-adv-x="1219" 
d="M368 1037v-737q0 -37 15.5 -72.5t44.5 -60.5t67 -39.5t81 -14.5q56 0 121.5 48.5t102.5 118.5v537q0 103 -32.5 141t-129.5 38v41h349v-729q0 -103 19.5 -139t75.5 -36q18 0 37 3.5t38 14.5l13 -31l-316 -142h-54v216q-26 -45 -63 -85t-81 -69t-90 -45.5t-87 -16.5
q-61 0 -115 25t-95 68.5t-64.5 102.5t-23.5 126v517q0 103 -33 141t-130 38v41h350zM831 1534l-326 -382h-37l117 382h246z" />
    <glyph glyph-name="ucir" unicode="&#xfb;" horiz-adv-x="1219" 
d="M368 1037v-737q0 -37 15.5 -72.5t44.5 -60.5t67 -39.5t81 -14.5q56 0 121.5 48.5t102.5 118.5v537q0 103 -32.5 141t-129.5 38v41h349v-729q0 -103 19.5 -139t75.5 -36q18 0 37 3.5t38 14.5l13 -31l-316 -142h-54v216q-26 -45 -63 -85t-81 -69t-90 -45.5t-87 -16.5
q-61 0 -115 25t-95 68.5t-64.5 102.5t-23.5 126v517q0 103 -33 141t-130 38v41h350zM452 1527h201l211 -363h-35l-301 235l-252 -235h-34z" />
    <glyph glyph-name="udia" unicode="&#xfc;" horiz-adv-x="1219" 
d="M368 1037v-737q0 -37 15.5 -72.5t44.5 -60.5t67 -39.5t81 -14.5q56 0 121.5 48.5t102.5 118.5v537q0 103 -32.5 141t-129.5 38v41h349v-729q0 -103 19.5 -139t75.5 -36q18 0 37 3.5t38 14.5l13 -31l-316 -142h-54v216q-26 -45 -63 -85t-81 -69t-90 -45.5t-87 -16.5
q-61 0 -115 25t-95 68.5t-64.5 102.5t-23.5 126v517q0 103 -33 141t-130 38v41h350zM731 1429q50 0 85.5 -33.5t35.5 -82.5q0 -52 -35.5 -87.5t-85.5 -35.5q-49 0 -84 35.5t-35 87.5q0 49 35 82.5t84 33.5zM343 1429q50 0 84.5 -33.5t34.5 -82.5q0 -52 -34.5 -87.5
t-84.5 -35.5t-85 35.5t-35 87.5q0 49 35 82.5t85 33.5z" />
    <glyph glyph-name="yacu" unicode="&#xfd;" horiz-adv-x="1211" 
d="M231 730q-66 139 -122.5 202.5t-108.5 63.5v41h476v-41q-73 0 -91.5 -25t-18.5 -57q0 -39 26 -89.5t53 -108.5l201 -425l214 529q39 100 25.5 138t-99.5 38v41h337v-41q-66 0 -94.5 -42t-66.5 -137l-417 -1020q-25 -62 -62.5 -112.5t-79 -86.5t-88 -56.5t-89.5 -20.5
q-64 0 -105.5 32.5t-45.5 78.5q-2 51 24 83t91 32q34 0 50.5 -7t29 -13.5t27.5 -13t42 -6.5q29 0 52 19t40 47t31 61t26 60l66 158zM888 1534l-325 -382h-38l117 382h246z" />
    <glyph glyph-name="thorn" unicode="&#xfe;" horiz-adv-x="1194" 
d="M355 280q0 -95 70 -160.5t183 -65.5q52 0 98 29.5t80 84t54 129t20 166.5q0 233 -69 345t-177 112q-81 0 -148 -51.5t-111 -116.5v-472zM168 1242q0 88 -8.5 129t-60.5 41q-17 0 -38.5 -3.5t-53.5 -14.5l-16 40l309 138h55v-745q27 40 62 81t77.5 75t94 55.5t109.5 21.5
q84 0 153 -38.5t117.5 -105.5t74.5 -155t26 -190q0 -129 -33 -237t-92.5 -188.5t-144.5 -124t-191 -43.5q-80 0 -137 17.5t-116 58.5v-250q0 -112 30.5 -156.5t131.5 -44.5v-41h-513v41q52 0 84 11t50 34.5t24 62.5t6 93v1438z" />
    <glyph glyph-name="ydia" unicode="&#xff;" horiz-adv-x="1211" 
d="M231 730q-66 139 -122.5 202.5t-108.5 63.5v41h476v-41q-73 0 -91.5 -25t-18.5 -57q0 -39 26 -89.5t53 -108.5l201 -425l214 529q39 100 25.5 138t-99.5 38v41h337v-41q-66 0 -94.5 -42t-66.5 -137l-417 -1020q-25 -62 -62.5 -112.5t-79 -86.5t-88 -56.5t-89.5 -20.5
q-64 0 -105.5 32.5t-45.5 78.5q-2 51 24 83t91 32q34 0 50.5 -7t29 -13.5t27.5 -13t42 -6.5q29 0 52 19t40 47t31 61t26 60l66 158zM780 1429q50 0 85.5 -33.5t35.5 -82.5q0 -52 -35.5 -87.5t-85.5 -35.5q-49 0 -84 35.5t-35 87.5q0 49 35 82.5t84 33.5zM392 1429
q50 0 84.5 -33.5t34.5 -82.5q0 -52 -34.5 -87.5t-84.5 -35.5t-85 35.5t-35 87.5q0 49 35 82.5t85 33.5z" />
    <glyph glyph-name="tsaa" unicode="&#x13a0;" horiz-adv-x="1712" 
d="M123 0v102q91 0 136.5 25t45.5 94v1106q-5 62 -50 84.5t-132 22.5v102h426q91 0 181.5 -2t177.5 -16t170 -45.5t159 -90.5q78 -61 136 -132t97 -148.5t58.5 -159t19.5 -164.5q0 -84 -20 -168t-60 -162.5t-100 -150.5t-139 -133q-82 -63 -170.5 -96.5t-181 -48.5t-189 -17
t-194.5 -2h-371zM674 123q53 0 100.5 2t94 11t94 28.5t98.5 54.5q69 47 120 107t84 128.5t49.5 143.5t16.5 152q0 81 -18 160t-53.5 151t-88 135t-122.5 111q-56 38 -108 59.5t-104.5 32t-106.5 12.5t-112 2h-124v-1290h55h125z" />
    <glyph glyph-name="tsae" unicode="&#x13a1;" horiz-adv-x="1698" 
d="M305 1327q-5 62 -50 84.5t-132 22.5v102h604q101 0 196.5 -20t169.5 -63.5t119 -112.5t45 -166q0 -73 -30 -137t-83.5 -114.5t-128 -86.5t-163.5 -54l244 -454q31 -59 58 -106.5t54.5 -82t58.5 -53t72 -18.5q58 0 93.5 18.5t56 50.5t31 75.5t18.5 94.5l98 -8
q-10 -65 -25.5 -125.5t-47.5 -107t-85 -74t-137 -27.5q-87 0 -146 16t-104 52.5t-83.5 95.5t-83.5 145l-265 494h-165v-547q0 -69 45.5 -94t136.5 -25v-102h-553v102q91 0 136.5 25t45.5 94v1106zM494 1413v-528h233q78 0 141 20t106.5 56t67 85.5t23.5 108.5
q0 67 -30 115.5t-82 80t-121.5 47t-147.5 15.5h-190z" />
    <glyph glyph-name="tsai" unicode="&#x13a2;" horiz-adv-x="1423" 
d="M375 1413q-69 0 -106.5 -45.5t-53.5 -136.5h-102l41 305h895h221l41 -305h-103q-15 91 -52.5 136.5t-106.5 45.5h-242v-1192q0 -69 45.5 -94t136.5 -25v-102h-553v102q91 0 136.5 25t45.5 94v1192h-243v0z" />
    <glyph glyph-name="tsao" unicode="&#x13a3;" horiz-adv-x="2064" 
d="M1239 1251q173 -16 299.5 -76.5t209.5 -163.5t123 -248t40 -329q0 -127 -30.5 -216t-83 -145.5t-123 -82t-150.5 -25.5q-105 0 -169 34.5t-99 94.5t-46.5 141t-11.5 175h105q0 -79 11 -142.5t36 -107.5t66 -68t102 -24q54 0 92 27t62.5 74.5t36 112.5t11.5 142
q0 99 -14.5 191t-46.5 172.5t-81 147t-119 114t-160.5 74t-204.5 26.5q-39 0 -84.5 -2.5t-92.5 -10.5t-92 -22.5t-83 -39t-65 -60.5t-38 -86q83 -14 149.5 -57.5t113.5 -106.5t72 -141t25 -160q0 -96 -31.5 -186t-91 -159t-144.5 -111t-191 -42q-98 0 -175.5 38.5
t-131.5 104.5t-82.5 153t-28.5 185q0 93 27.5 175.5t77.5 146.5t121 106t157 54q24 87 80.5 148t132 100t162.5 57.5t170 21.5v72q-5 61 -51 84t-132 23v102h553v-102q-91 0 -136.5 -25t-45.5 -94v-64zM301 463q1 -75 16.5 -147.5t48.5 -129t84.5 -91t122.5 -34.5
q63 0 109.5 35.5t77.5 91.5t46 124.5t15 133.5q0 46 -8.5 93t-25 91t-40 82.5t-54 67.5t-67.5 45.5t-79 16.5q-65 0 -112 -36t-77 -91.5t-44 -122.5t-13 -129z" />
    <glyph glyph-name="tsau" unicode="&#x13a4;" horiz-adv-x="2165" 
d="M1962 866q0 58 -19 100.5t-51.5 71.5t-76.5 46t-95 26l9 78q67 -6 127 -27.5t106 -60t73 -94t27 -129.5q0 -85 -19 -146t-51 -100.5t-74.5 -58.5t-90.5 -19q-70 0 -118.5 14t-82 41t-55.5 67t-39 93h-78q-2 -87 -16.5 -174t-43.5 -170t-74 -158.5t-106 -138.5
q-46 -47 -96 -78t-103 -50t-107.5 -26.5t-108.5 -7.5q-140 0 -258 60.5t-204 167t-134.5 253t-48.5 318.5q0 105 21.5 206t62 190.5t99 165t133 130t164 85t191.5 30.5q93 0 172.5 -26.5t146 -74t119 -112t91 -141t62 -161t32.5 -171.5h203q4 -32 16.5 -68t34 -66
t52.5 -49.5t71 -19.5q27 0 51.5 13t43.5 37t30.5 58t11.5 76zM354 784q0 -72 8 -143.5t26.5 -141t48.5 -135.5t75 -126q34 -48 71 -81t76 -54t78.5 -30.5t77.5 -9.5q61 0 117 28t105 76.5t88.5 115.5t68 144.5t44 163.5t15.5 173q0 76 -15 158.5t-43 161.5t-69 151t-93 126
t-114 86t-133 32q-66 0 -123 -30t-105 -81t-86 -119.5t-64 -145.5t-40 -159t-14 -160z" />
    <glyph glyph-name="tsav" unicode="&#x13a5;" horiz-adv-x="799" 
d="M305 967h189v-746q0 -69 45.5 -94t136.5 -25v-102h-553v102q91 0 136.5 25t45.5 94v746zM264 1436q0 27 11 51.5t29.5 43t43 29.5t51.5 11q28 0 52.5 -11t43 -29.5t29.5 -43t11 -51.5q0 -28 -11 -52.5t-29.5 -43t-43 -29.5t-52.5 -11q-27 0 -51.5 11t-43 29.5t-29.5 43
t-11 52.5z" />
    <glyph glyph-name="tsaga" unicode="&#x13a6;" horiz-adv-x="1473" 
d="M488 180q70 -52 152 -79t164 -27q52 0 105.5 17.5t97 49t71 75.5t27.5 97q0 54 -19 98.5t-50.5 82t-73.5 68.5t-87 58.5t-90.5 51.5t-85.5 47q-34 19 -76 43h-500v123h308q-8 6 -15 11q-47 38 -84.5 81.5t-60 93t-22.5 105.5q0 105 39.5 180t106.5 122.5t155 70t186 22.5
q45 0 90 -7.5t86 -20.5t78 -29.5t66 -34.5q19 -12 30.5 -10.5t18 12t9 29t3.5 40.5h103v-446h-103q0 38 -7 74.5t-18.5 68.5t-27 57.5t-33.5 41.5q-60 54 -146.5 84t-189.5 30q-39 0 -82 -11.5t-79.5 -39.5t-60 -75.5t-23.5 -119.5q0 -47 20 -88t53 -76t75.5 -66t86.5 -57
q37 -22 73 -42h592v-123h-376q46 -26 89 -54q52 -32 97 -69t78.5 -80.5t52.5 -96t19 -116.5q0 -68 -23.5 -122.5t-64 -97t-94 -73t-114.5 -50t-126 -29t-127 -9.5q-51 0 -99.5 11.5t-93.5 29t-86 39t-77 41.5q-20 11 -30 3.5t-14.5 -25t-5 -41.5t-0.5 -46h-102v447h102
q0 -54 13 -93t32.5 -67.5t43 -48.5t44.5 -35z" />
    <glyph glyph-name="tsaka" unicode="&#x13a7;" horiz-adv-x="1649" 
d="M709 1456q-78 0 -150 -21t-134 -59t-111.5 -93t-80.5 -122l-86 47q31 78 85 144t131 115t177 76.5t222 27.5q115 0 214 -29.5t180 -83.5t144.5 -128t106.5 -163t65.5 -190t22.5 -207q0 -179 -60.5 -327t-166 -254.5t-248.5 -165t-307 -58.5q-106 0 -206.5 22t-179 74
t-126 138.5t-47.5 216.5q0 82 27 154t75.5 125.5t115.5 84.5t148 31q78 0 142.5 -32t110 -85.5t70.5 -122.5t25 -143q0 -53 -12 -103.5t-34.5 -95.5t-56 -83t-75.5 -66q11 -3 16.5 -3.5t26.5 -0.5q95 0 172.5 27t138.5 74.5t105.5 112.5t73.5 140.5t43 158.5t14 167
q0 99 -19 189t-55 168t-87 141t-114 108t-138 69.5t-158 24.5zM315 428q1 -58 13 -112t36.5 -95.5t63 -66.5t92.5 -25q48 0 83 26t58 67.5t34.5 92.5t11.5 101q0 51 -14.5 103t-41.5 94t-65 68t-86 26q-50 0 -85.5 -26t-58 -66.5t-32.5 -90t-9 -96.5z" />
    <glyph glyph-name="tsage" unicode="&#x13a8;" horiz-adv-x="1462" 
d="M305 1327q-5 62 -50 84.5t-132 22.5v102h553v-102q-87 0 -132 -22.5t-50 -84.5v-221q27 7 51.5 15.5t53 16.5t63.5 13.5t83 5.5q77 0 131.5 -21t89.5 -52t51.5 -65.5t16.5 -62.5q0 -32 -12 -64.5t-26 -66t-26 -68.5t-12 -71q0 -27 6 -52.5t20.5 -46t38.5 -32.5t60 -12
q58 0 93.5 15t56 43.5t31 69t18.5 91.5l78 -8q-10 -65 -26.5 -125.5t-50 -107t-89.5 -74t-145 -27.5q-53 0 -100.5 12t-83.5 39.5t-57.5 71t-21.5 106.5q0 41 12 73.5t27 63t27 61t12 68.5q0 32 -15 57t-38 42t-51 26t-55 9q-35 0 -65.5 -6t-56.5 -14t-48.5 -17.5
t-40.5 -16.5v-774q0 -69 45.5 -94t136.5 -25v-102h-553v102q91 0 136.5 25t45.5 94v1106z" />
    <glyph glyph-name="tsagi" unicode="&#x13a9;" horiz-adv-x="1640" 
d="M471 -39q-104 0 -171.5 35.5t-106.5 95t-54.5 136t-15.5 157.5q0 52 13.5 93t36 69.5t50 43.5t56.5 15q49 0 80.5 -32.5t31.5 -88.5q0 -24 -7.5 -50.5t-22 -50.5t-36.5 -44.5t-51 -32.5q-22 -9 -32 -29.5t-6.5 -46t19 -52.5t43 -49.5t67.5 -37t92 -14.5q54 0 95 16.5
t75 48.5t63 78.5t58 106.5l147 305l-412 682q-21 37 -41.5 60t-44.5 36t-54 18t-71 5v102h553v-102q-51 0 -86.5 -3t-53.5 -13t-19.5 -29.5t14.5 -51.5l307 -514l240 492q18 37 15 60t-25 36t-60.5 18t-91.5 5v102h524v-102q-46 0 -77 -5t-53 -18t-38.5 -36t-34.5 -60
l-520 -1071q-25 -53 -58.5 -104t-80.5 -91t-109.5 -64t-146.5 -24z" />
    <glyph glyph-name="tsago" unicode="&#x13aa;" horiz-adv-x="1661" 
d="M782 1571h84l518 -1350h2q14 -37 36 -60t50 -36t60 -18t67 -5v-102h-552v102q51 0 85.5 3t53.5 13.5t23 30t-5 52.5l-137 354h-543l-137 -356q-8 -30 -0.5 -49t29 -29.5t57 -14.5t84.5 -4v-102h-496v102q49 0 82 5t55 18t37 36t29 60zM571 678h449l-225 584z" />
    <glyph glyph-name="tsagu" unicode="&#x13ab;" horiz-adv-x="1305" 
d="M391 508q0 -25 -7.5 -51.5t-22 -50.5t-36.5 -44t-51 -32q-23 -9 -26 -31t9 -50t38 -58t63 -54.5t83 -40.5t98 -16q44 0 81.5 19t68 50.5t53.5 73.5t38 87.5t23 92.5t8 89v823q0 69 -45.5 94t-136.5 25v102h553v-102q-91 0 -137 -25t-46 -94v-803q0 -67 -14.5 -134
t-42.5 -128t-69.5 -113t-94.5 -90t-118 -60t-140 -22q-95 0 -169 38.5t-124.5 101t-77 142t-26.5 161.5q0 52 13.5 93t36 69.5t50 43.5t56.5 15q49 0 80.5 -32.5t31.5 -88.5z" />
    <glyph glyph-name="tsagv" unicode="&#x13ac;" horiz-adv-x="1411" 
d="M305 1327q-5 62 -50 84.5t-132 22.5v102h1134l41 -305h-102q-15 87 -49.5 132t-97.5 50h-555v-528h264q69 0 94 42t25 120h102v-447h-102q0 72 -22.5 114.5t-84.5 47.5h-276v-639h555q63 5 97.5 50t49.5 132h102l-41 -305h-1134v102q91 0 136.5 25t45.5 94v1106z" />
    <glyph glyph-name="tsaha" unicode="&#x13ad;" horiz-adv-x="1765" 
d="M1006 885h616v-123l-643 -797h-162v797h-153q-14 -47 -43 -87.5t-66.5 -70.5t-81.5 -47.5t-88 -17.5q-65 0 -114 26.5t-82 67.5t-49.5 91t-16.5 97q0 48 19 99t55 92t89 67.5t122 26.5q48 0 91.5 -16.5t78.5 -45.5t59 -70t33 -89h147v442q-5 62 -50 84.5t-132 22.5v102
h553v-102q-91 0 -136.5 -25t-45.5 -94v-430zM1006 762v-572l460 572h-460zM262 836q0 -45 10.5 -87t29.5 -74.5t46.5 -52.5t61.5 -20t58 20.5t39.5 52.5t22.5 70.5t7 75.5q0 42 -8.5 82.5t-27.5 73t-48 52.5t-70 20q-32 0 -55 -20t-37.5 -51t-21.5 -69t-7 -73z" />
    <glyph glyph-name="tsahe" unicode="&#x13ae;" horiz-adv-x="1346" 
d="M305 897q-5 62 -50 84.5t-132 22.5v102h553v-102q-87 0 -132 -22.5t-50 -84.5v-203h61q115 0 207.5 30t157 81t99 119t34.5 143q0 37 -7.5 80.5t-25.5 87t-46.5 83.5t-71 70.5t-99 49t-129.5 18.5q-23 0 -52.5 -3.5t-61 -10.5t-61 -17.5t-50.5 -25.5l-54 76
q63 49 142.5 72.5t164.5 23.5q111 0 206 -33t165 -95.5t110 -152.5t40 -203q0 -92 -30 -165t-82 -129.5t-122 -97.5t-151 -67.5t-169 -39t-175 -13.5v-354q0 -69 45.5 -94t136.5 -25v-102h-553v102q91 0 136.5 25t45.5 94v676z" />
    <glyph glyph-name="tsahi" unicode="&#x13af;" horiz-adv-x="1880" 
d="M418 -35q-65 0 -119.5 31t-93.5 83.5t-60.5 121.5t-21.5 145q0 52 13.5 93t36 69.5t50 43.5t56.5 15q49 0 80.5 -32.5t31.5 -88.5q0 -24 -7.5 -50.5t-22 -50.5t-36.5 -44.5t-51 -32.5q-26 -12 -26 -43q0 -45 14 -74.5t39.5 -47.5t59.5 -25.5t75 -7.5q55 0 92 24.5
t60.5 67.5t35.5 102t17 128t5.5 145t0.5 153q0 69 -2 135t-2 129q0 76 10 151t33.5 143.5t63 127.5t98.5 102.5t139.5 68t186.5 24.5q99 0 178 -26t140 -72t105 -109.5t72 -139.5t41.5 -161t13.5 -174q0 -93 2 -197.5t-5 -207t-27.5 -196.5t-65.5 -166t-119.5 -114.5
t-189.5 -42.5q-62 0 -116 31t-94 83.5t-62.5 121.5t-22.5 145q0 52 13.5 93t36 69.5t50 43.5t56.5 15q49 0 80.5 -32.5t31.5 -88.5q0 -24 -7.5 -50.5t-22 -50.5t-36 -44.5t-50.5 -32.5q-27 -11 -27 -43q0 -45 14 -74.5t39.5 -47.5t59.5 -25.5t75 -7.5q52 0 86.5 32t56.5 86
t33 124.5t15.5 147t3.5 155t-2 147.5h-735v-96q0 -88 -1 -174t-10.5 -164t-31.5 -144.5t-64 -115t-107.5 -76t-162.5 -27.5zM1145 1458q-32 0 -70.5 -4.5t-78 -22t-76 -53t-65 -98t-45.5 -156.5t-17 -229v-10h733q-6 124 -21.5 229.5t-55 181.5t-112 119t-192.5 43z" />
    <glyph glyph-name="tsaho" unicode="&#x13b0;" horiz-adv-x="1122" 
d="M494 762v-541q0 -69 45.5 -94t136.5 -25v-102h-553v102q91 0 136.5 25t45.5 94v1106q-5 62 -50 84.5t-132 22.5v102h553v-102q-91 0 -136.5 -25t-45.5 -94v-430h276q61 3 84 45.5t23 116.5h102v-447h-102q0 77 -25 119.5t-94 42.5h-264z" />
    <glyph glyph-name="tsahu" unicode="&#x13b1;" horiz-adv-x="1268" 
d="M494 1413v-1192q0 -69 45.5 -94t136.5 -25v-102h-553v102q43 0 76 5t56 17t35.5 32t14.5 51v1108q0 69 -45.5 94t-136.5 25v102h770h221l41 -305h-102q-16 91 -53.5 136.5t-106.5 45.5h-399z" />
    <glyph glyph-name="tsahv" unicode="&#x13b2;" horiz-adv-x="2068" 
d="M1743 524q0 -48 -9 -108.5t-29.5 -122.5t-53 -121t-79.5 -105t-109 -74t-142 -28q-68 0 -117 9.5t-91 30.5t-81 55.5t-86 84.5q-41 -48 -83 -82t-87 -55.5t-94 -32t-104 -10.5q-89 0 -171.5 36t-145.5 99.5t-100.5 150t-37.5 187.5q0 80 32 151t79.5 129.5t103 102.5
t102.5 70l31 -60q-35 -24 -66.5 -59.5t-54 -82.5t-34.5 -106t-9 -130q3 -81 25 -152t60 -124t90.5 -83.5t117.5 -30.5q37 0 79 16t81 42t70.5 58.5t48.5 64.5q-32 51 -59.5 102.5t-53.5 97.5q-41 71 -78 142.5t-65.5 146t-45 151.5t-16.5 158q0 57 11 118t33.5 119.5
t56 111.5t79 93t102 63.5t124.5 23.5q97 0 162 -43t103.5 -113.5t54.5 -162.5t16 -189q0 -101 -16.5 -190t-49.5 -179.5t-83 -187.5t-118 -213q18 -33 45.5 -73.5t64 -76t82 -59t99.5 -21.5q52 2 94 24t74.5 58t56 83t39 97.5t22.5 101.5t7 97v15q0 69 -45.5 93.5
t-136.5 24.5v103h508v-103q-55 0 -93.5 -4t-63 -16.5t-35.5 -36t-11 -61.5v-15zM754 1059q0 -92 18 -176.5t48.5 -165t70 -157t82.5 -152.5q35 73 67.5 153t57 163t39 166.5t14.5 162.5q0 43 -4.5 92t-15 96.5t-26.5 91t-40 76.5t-56 52.5t-73 19.5q-31 0 -56.5 -21
t-45.5 -56t-35 -79.5t-25 -91.5t-15 -92.5t-5 -81.5z" />
    <glyph glyph-name="tsala" unicode="&#x13b3;" horiz-adv-x="2204" 
d="M1542 -35h-94l-342 1182l-338 -1182h-94l-389 1350q-11 37 -32.5 60t-50 36t-62.5 18t-68 5v102h549v-102q-56 0 -91 -3t-52.5 -15t-19.5 -36t9 -65l281 -973l344 1194h88l342 -1194l280 973q12 39 8 62.5t-24 36t-56.5 16.5t-89.5 4v102h492v-102q-49 0 -83 -5t-57 -18
t-37.5 -36t-25.5 -60z" />
    <glyph glyph-name="tsale" unicode="&#x13b4;" horiz-adv-x="1774" 
d="M322 537q1 -86 15.5 -169t48.5 -148t90 -104.5t140 -39.5q75 0 126 41t83 105.5t46 143.5t14 154q0 78 -18.5 157.5t-55 144.5t-92.5 106t-131 41q-52 0 -92 -19t-69.5 -51t-50 -75t-33 -91t-17.5 -98.5t-4 -97.5zM123 520q0 116 34.5 217.5t98.5 177t155 119t205 43.5
q78 0 142.5 -14t118.5 -45q-4 38 -1.5 85t11.5 95.5t26 96t41 87.5q53 87 139 138t201 51q102 0 170.5 -34.5t110 -90t59 -125t17.5 -139.5t-12 -120.5t-33 -83t-48.5 -48t-58.5 -15.5q-26 0 -42.5 23t-16.5 74q0 12 1.5 21t4.5 21.5t6 32t6 52.5q6 59 -2 116.5t-29.5 103
t-58.5 73.5t-90 28q-28 0 -56.5 -7t-55.5 -24t-52.5 -45t-46.5 -71q-20 -39 -34 -96.5t-19 -123.5t0.5 -136.5t23.5 -137.5q17 -59 31 -128t14 -154q0 -110 -33 -213t-97 -183t-158 -128t-217 -48q-111 0 -196 44.5t-142.5 120t-87 176.5t-29.5 214z" />
    <glyph glyph-name="tsali" unicode="&#x13b5;" horiz-adv-x="1520" 
d="M854 1571q114 0 213 -29t172.5 -83t115.5 -131.5t42 -174.5t-27 -175.5t-82 -134t-138.5 -86t-197.5 -30.5q-52 0 -97 15t-78.5 38.5t-52.5 52.5t-19 58q0 49 32.5 81t87.5 32q25 0 51.5 -10.5t50.5 -28.5t44.5 -43.5t32.5 -55.5q6 -15 24 -18.5t43 -3.5q36 0 61.5 23
t41 60.5t23 86.5t7.5 100q0 91 -26 156t-70 106.5t-104 60.5t-127 19q-76 0 -143 -19.5t-118.5 -66.5t-83.5 -126.5t-38 -199.5v-823q0 -69 45.5 -94t136.5 -25v-102h-553v102q43 0 76 5t56 17t35.5 32t14.5 51v817q0 146 45 249.5t121 169.5t175.5 97t207.5 31z" />
    <glyph glyph-name="tsalo" unicode="&#x13b6;" horiz-adv-x="1688" 
d="M889 -35q-115 0 -214 29.5t-180.5 83t-145 128t-107 163.5t-66 190t-22.5 207q0 179 60.5 327t166 254.5t248.5 165t307 58.5q45 0 102.5 -8t114.5 -20.5t106 -29t78 -34.5q19 -13 29 -13t16 10t9.5 25.5t5 34t2.5 35.5h102v-467h-102q0 65 -20 116.5t-55 91t-81.5 68
t-100.5 46t-112 26t-115 8.5q-137 0 -239 -59t-170.5 -155t-102.5 -218t-34 -248q0 -148 44 -276t121 -222t181 -148t225 -54q124 0 206 26t130.5 71.5t68 108t19.5 136.5q0 51 -16 100t-52 86.5t-95 60.5t-144 23q-69 0 -94 -42t-25 -120h-102v447h102q0 -34 4 -63
t14.5 -50.5t27 -34t42.5 -12.5q96 0 187.5 -24t162.5 -71.5t114.5 -116.5t43.5 -159q0 -129 -48 -220.5t-134 -149t-204 -84.5t-259 -27z" />
    <glyph glyph-name="tsalu" unicode="&#x13b7;" horiz-adv-x="1946" 
d="M305 1327q-5 62 -50 84.5t-132 22.5v102h360l482 -1251l481 1251h377v-102q-86 0 -132 -23t-51 -84v-1120q3 -31 15.5 -51t35.5 -32t56 -17t76 -5v-102h-553v102q91 0 136.5 25t45.5 94v989l-477 -1245h-76l-471 1225v-969q0 -69 45.5 -94t136.5 -25v-102h-487v102
q91 0 136.5 25t45.5 94v1106z" />
    <glyph glyph-name="tsalv" unicode="&#x13b8;" horiz-adv-x="1458" 
d="M965 446q-94 0 -158 2.5t-106.5 9t-67.5 19t-40 32.5t-24.5 49t-21.5 69q-8 24 -15.5 38.5t-25 22.5t-50.5 10.5t-91 3.5q-35 0 -58 -11t-36.5 -31.5t-19 -50.5t-5.5 -68h-103v446h103q0 -38 5.5 -68t19 -51t36.5 -32t58 -11q80 -1 135.5 -4t92.5 -10t59 -19.5t36 -32
t23 -47t20 -65.5q8 -29 16.5 -44.5t31.5 -23t66 -9t120 -1.5v580q0 79 -28 138.5t-75 99t-109 59.5t-130 20q-39 0 -72 -0.5t-57.5 -4t-40 -11t-19.5 -20.5q-3 -10 -1.5 -27.5t3.5 -37.5t2 -40t-6 -35q-14 -35 -34.5 -61t-45 -41t-50.5 -18t-50 6q-47 18 -65 66t3 108
q23 65 91 120q35 29 66.5 48.5t71 31t93 16.5t133.5 5q100 0 192 -26t162.5 -80.5t112 -138t41.5 -198.5v-907q0 -69 45.5 -94t136.5 -25v-102h-553v102q91 0 137 25t46 94v225z" />
    <glyph glyph-name="tsama" unicode="&#x13b9;" horiz-adv-x="2214" 
d="M1085 1327q-5 62 -50 84.5t-132 22.5v102h553v-102q-91 0 -136.5 -25t-45.5 -94v-326q0 -12 3.5 -26t14 -25.5t28 -19t46.5 -7.5q27 0 54.5 20t57.5 50t64 64.5t75.5 64.5t91 50t110.5 20q76 0 128 -34.5t84 -88t46 -119t14 -127.5q0 -89 -31 -151t-81 -103.5
t-113.5 -64.5t-128.5 -33l-19 78q51 8 96.5 28t80 52t55 76.5t20.5 103.5q0 70 -12.5 114.5t-35.5 70t-57 35t-77 9.5q-32 0 -64 -21t-66.5 -53t-71.5 -68.5t-78.5 -68.5t-89 -53t-101.5 -21q-39 0 -72 11.5t-58.5 31t-45 44.5t-31.5 51q-42 -26 -88.5 -50t-97.5 -47
q54 -85 79 -183.5t25 -195.5q0 -94 -20.5 -174.5t-64.5 -139t-112.5 -91.5t-164.5 -33q-76 0 -137 32t-103.5 82t-65 112.5t-22.5 123.5q0 99 33 176t87 137t122.5 106.5t140.5 84.5q-43 56 -110.5 89.5t-164.5 33.5q-44 0 -85 -11t-77.5 -30.5t-66.5 -47t-51 -60.5l-72 59
q30 45 70.5 78.5t88.5 55t102 32t110 10.5q124 0 216.5 -39.5t160.5 -105.5q51 27 95 54t77 56.5t52 62t19 70.5v201zM680 51q34 0 59 20t42 51t27.5 67.5t16 69.5t7.5 57t2 30q0 93 -11 189t-45 180q-61 -29 -115 -69t-95 -89.5t-65 -107.5t-24 -123q0 -39 12 -87t37 -90
t63 -70t89 -28z" />
    <glyph glyph-name="tsame" unicode="&#x13ba;" horiz-adv-x="2183" 
d="M779 1571q93 0 173.5 -25.5t147.5 -70.5t120.5 -106t93 -133.5t64.5 -152.5t36 -162h245v394q0 69 -45.5 94t-136.5 25v102h553v-102q-86 0 -132 -22t-50 -83v-1120q5 -62 50 -84.5t132 -22.5v-102h-553v102q87 0 132 22.5t50 84.5v589h-235q2 -125 -21 -235.5t-67 -203
t-105.5 -166t-137 -124t-162 -77.5t-179.5 -27q-102 0 -188 32t-156 87.5t-123 131t-89 163t-54.5 183t-18.5 190.5q0 89 18 184.5t54 186.5t90.5 172.5t127.5 142.5t164.5 97t201.5 36zM1223 752q0 64 -11.5 142.5t-35.5 158.5t-61 155.5t-88.5 134.5t-117.5 94.5
t-147 35.5q-61 0 -117 -28t-104.5 -76.5t-88.5 -115.5t-68.5 -144.5t-44 -163.5t-15.5 -173q0 -76 15 -158.5t43 -161.5t69 -151t93 -126t114 -86t133 -32q65 0 122.5 30t105.5 81t86 119.5t64 145.5t40 159t14 160z" />
    <glyph glyph-name="tsami" unicode="&#x13bb;" horiz-adv-x="1665" 
d="M305 1315q0 69 -45.5 94t-136.5 25v102h553v-102q-87 0 -132 -22.5t-50 -84.5v-442h677v430q0 69 -45.5 94t-136.5 25v102h553v-102q-91 0 -136.5 -25t-45.5 -94v-1094q0 -69 45.5 -94t136.5 -25v-102h-553v102q91 0 136.5 25t45.5 94v541h-677v-541q0 -69 45.5 -94
t136.5 -25v-102h-553v102q91 0 136.5 25t45.5 94v1094z" />
    <glyph glyph-name="tsamo" unicode="&#x13bc;" horiz-adv-x="1284" 
d="M124 942q63 80 151.5 134.5t203.5 68.5v183q-5 61 -50.5 83.5t-132.5 22.5v102h552v-102q-86 0 -131.5 -22.5t-50.5 -83.5v-192q109 -21 195.5 -73t146.5 -127t92 -170t32 -202q0 -68 -15 -138.5t-44.5 -137t-72.5 -125.5t-99 -103t-124.5 -69.5t-148.5 -25.5
q-103 0 -181.5 38.5t-131 101t-79 142t-26.5 160.5q0 52 13.5 93.5t35.5 70t50 43.5t56 15q51 0 82.5 -33t31.5 -89q0 -24 -7.5 -50.5t-22 -50.5t-36.5 -44t-52 -32q-27 -12 -27 -43q0 -29 23 -65t64 -67.5t98.5 -53t126.5 -21.5q49 0 90 21.5t74 58t57 84t40 99t24 103.5
t8 98q0 99 -20 188.5t-64 157.5t-113.5 108t-167.5 40q-53 0 -105 -9t-100 -28t-91.5 -49t-79.5 -72z" />
    <glyph glyph-name="tsamu" unicode="&#x13bd;" horiz-adv-x="1778" 
d="M635 98q40 0 71.5 14t59.5 42.5t54.5 71.5t58.5 102l153 305l-409 682h-2q-22 37 -42.5 60t-44.5 36t-54 18t-70 5v102h288l426 -713l240 492q18 37 14.5 60t-25 36t-60 18t-91.5 5v102h524v-102q-46 0 -76.5 -5t-52.5 -18t-38.5 -36t-34.5 -60l-527 -1071
q-29 -55 -61.5 -105.5t-71.5 -89t-86.5 -61.5t-107.5 -23q-92 0 -161 43t-114.5 120.5t-68 184t-21.5 234.5q0 69 -45.5 94t-136.5 25v102h508v-102q-91 0 -136.5 -25t-45.5 -94q0 -100 10.5 -182.5t33 -142t57.5 -92t85 -32.5z" />
    <glyph glyph-name="tsana" unicode="&#x13be;" horiz-adv-x="1741" 
d="M154 762q0 96 21 193.5t62.5 187.5t103 168t141.5 136t178 91t214 33q114 0 211.5 -30.5t176.5 -85t140 -129t102 -162t62 -185t21 -197.5q0 -113 -25 -217.5t-71 -195t-111.5 -165.5t-146.5 -128t-176.5 -82t-200.5 -29q-110 0 -205 29t-173 82t-138 126.5t-101.5 162
t-63 189t-21.5 208.5zM885 53q84 0 154 32.5t126 87t97.5 126.5t69 151t41 159.5t13.5 152.5h-1034q2 -74 19 -155.5t48 -160.5t76 -150t103.5 -125t130 -86t156.5 -32zM852 1479q-73 0 -135.5 -25.5t-114.5 -69t-93 -101.5t-72 -124t-50.5 -136.5t-28.5 -137.5h1018
q-11 74 -34.5 147t-58.5 139t-80 122.5t-99.5 97.5t-117.5 64.5t-134 23.5z" />
    <glyph glyph-name="tsahna" unicode="&#x13bf;" horiz-adv-x="1616" 
d="M123 1249h293v287h188v-287h295v-123h-295v-477q0 -83 17.5 -157.5t52 -131t85.5 -89.5t118 -33q78 0 142.5 31t102.5 77v152q0 69 -45.5 93.5t-136.5 24.5v103h553v-103q-86 0 -132 -22.5t-50 -83.5v-545h-189v232q-46 -34 -102.5 -54t-124.5 -20q-113 0 -202 43.5
t-150.5 118t-94 174t-32.5 211.5v456h-293v123z" />
    <glyph glyph-name="tsanah" unicode="&#x13c0;" horiz-adv-x="1849" 
d="M915 1460q-135 0 -237 -59t-171 -155t-103.5 -218t-34.5 -248q0 -148 44 -276t121 -222t181 -148t225 -54q87 0 162.5 13t132 47t89 92.5t32.5 150.5v160q0 31 -12.5 51.5t-36 32.5t-57 17t-76.5 5v103h552v-103q-38 0 -70 -3.5t-55.5 -14.5t-37 -32t-13.5 -56v-41
q0 -66 -3.5 -117t-14.5 -80q-35 -97 -104.5 -162t-158.5 -104.5t-188.5 -56.5t-193.5 -17q-115 0 -214 30t-180 83t-144.5 127.5t-106.5 163.5t-65.5 189.5t-22.5 207.5q0 179 60.5 327t166 254.5t248.5 165t307 58.5q45 0 102.5 -8t114.5 -20.5t106 -29t78 -34.5
q19 -13 29 -13t16 10t9.5 25.5t5 34t2.5 35.5h102v-467h-102q0 65 -20 116.5t-55 91t-81.5 68t-100.5 46t-112 26t-115 8.5z" />
    <glyph glyph-name="tsane" unicode="&#x13c1;" horiz-adv-x="2058" 
d="M412 508q0 -25 -7.5 -51.5t-22 -50.5t-36.5 -44t-51 -32q-27 -11 -27 -43q0 -45 12 -82.5t36 -65.5t59.5 -43.5t81.5 -15.5q62 0 102.5 23.5t65 66t36 100t15.5 125t3 143t-1 152.5q0 81 -2 157.5t-2 147.5q0 69 10 138.5t32.5 133.5t58 119.5t86.5 96.5t118.5 64.5
t153.5 23.5q90 0 151 -32t103.5 -87t71 -129t52.5 -158l273 -944q10 -37 32 -60t50.5 -36t62 -18t68.5 -5v-102h-570v102q43 0 74 1.5t50.5 7.5t28.5 18t9 33q0 12 -2.5 26.5t-7.5 32.5l-272 950q-20 70 -37.5 122t-39.5 86.5t-51.5 51.5t-74.5 17q-41 0 -77.5 -6.5
t-67.5 -27.5t-56 -60.5t-43 -105.5t-27.5 -162.5t-9.5 -231.5q0 -46 1 -93t1 -95q0 -88 -2 -174t-12.5 -164t-34 -144.5t-66.5 -115t-109 -76t-163 -27.5q-79 0 -135 40.5t-91.5 104.5t-52 143t-16.5 155q0 52 13.5 93t36 69.5t50 43.5t56.5 15q50 0 81.5 -32.5t31.5 -88.5z
" />
    <glyph glyph-name="tsani" unicode="&#x13c2;" horiz-adv-x="1546" 
d="M305 1327q-5 62 -50 84.5t-132 22.5v102h553v-102q-87 0 -132 -22.5t-50 -84.5v-448q25 17 52.5 33t61 28t73.5 19.5t91 7.5q116 0 203.5 -29t146.5 -79t89 -117t30 -144v-391q2 -31 15 -51t35.5 -32t55.5 -17t76 -5v-102h-553v102q43 0 76 5t56 17t36 32t15 51v391
q0 51 -13.5 95.5t-45.5 78t-86.5 53t-135.5 19.5q-86 0 -153 -15.5t-125 -62.5v-545q0 -69 45.5 -94t136.5 -25v-102h-553v102q91 0 136.5 25t45.5 94v1106z" />
    <glyph glyph-name="tsano" unicode="&#x13c3;" horiz-adv-x="1382" 
d="M1198 1413l-833 -1290h632q70 0 107.5 45.5t52.5 136.5h103l-41 -305h-1065v123l831 1290h-545q-69 0 -106.5 -45.5t-52.5 -136.5h-103l41 305h979v-123z" />
    <glyph glyph-name="tsanu" unicode="&#x13c4;" horiz-adv-x="1677" 
d="M330 729q-9 38 -25.5 61.5t-42 36t-60 17t-79.5 4.5v102h532v-102q-35 0 -68 -1t-58 -7t-38.5 -19.5t-9.5 -38.5q8 -52 37.5 -88.5t73 -59t97.5 -32.5t112 -10q76 0 145.5 20t122 68t84 127t31.5 197v40q0 117 -31.5 196t-84 127t-122 68.5t-145.5 20.5q-58 0 -112 -10
t-97.5 -32.5t-73 -59t-37.5 -88.5q-4 -25 9.5 -38.5t38.5 -19.5t58 -7t68 -1v-102h-532v102q45 0 79.5 4t60 17t42 36.5t25.5 61.5q14 58 54.5 104.5t104 79.5t148 50.5t186.5 17.5q108 0 207.5 -31t175.5 -97t121 -169.5t45 -249.5v-817q2 -31 15 -51t35.5 -32t55.5 -17
t76 -5v-102h-553v102q43 0 76 5t56 17t36 32t15 51v379q-75 -57 -168 -83t-193 -26q-102 0 -186.5 17.5t-148 50.5t-104 79.5t-54.5 104.5z" />
    <glyph glyph-name="tsanv" unicode="&#x13c5;" horiz-adv-x="2374" 
d="M1401 1104q28 7 54 16.5t55 17.5t64 13.5t83 5.5q77 0 131.5 -21t89.5 -52t51.5 -65.5t16.5 -62.5q0 -32 -12 -64.5t-26 -66t-26 -68.5t-12 -71q0 -27 6 -52.5t20 -46t38.5 -32.5t60.5 -12q58 0 93 15t55.5 43.5t31 69t18.5 91.5l78 -8q-10 -65 -26 -125.5t-50 -107
t-90 -74t-145 -27.5q-52 0 -99.5 12t-83.5 39.5t-57.5 71t-21.5 106.5q0 41 12 73.5t27 63t27 61t12 68.5q0 32 -15 57t-38 42t-51.5 26t-55.5 9q-59 0 -105 -14.5t-81 -28.5q12 -54 18 -110t6 -112q0 -89 -18 -184.5t-54 -186.5t-90.5 -172.5t-127 -142.5t-164 -97
t-201.5 -36q-140 0 -258 60.5t-204 167t-134.5 253t-48.5 318.5q0 105 21.5 206t62 190.5t99 165t133 130t164 85t191.5 30.5q109 0 200.5 -36.5t164 -100t125.5 -148.5t86 -182zM354 784q0 -64 11.5 -142.5t35.5 -158.5t61 -155.5t88.5 -134.5t117 -94.5t147.5 -35.5
q61 0 117 28t105 76.5t88.5 115.5t68 144.5t44 163.5t15.5 173q0 76 -15 158.5t-43 161.5t-69 151t-93 126t-114 86t-133 32q-66 0 -123 -30t-105 -81t-86 -119.5t-64 -145.5t-40 -159t-14 -160z" />
    <glyph glyph-name="tsaqua" unicode="&#x13c6;" horiz-adv-x="1425" 
d="M807 1413v-1290h244q69 0 106.5 45.5t52.5 136.5h103l-41 -305h-1116l-41 305h102q16 -91 53.5 -136.5t106.5 -45.5h241v1290h-243q-69 0 -106.5 -45.5t-53.5 -136.5h-102l41 305h895h221l41 -305h-103q-15 91 -52.5 136.5t-106.5 45.5h-242z" />
    <glyph glyph-name="tsaque" unicode="&#x13c7;" horiz-adv-x="2046" 
d="M848 549h168q0 -106 11.5 -182.5t32 -128.5t48 -83t59.5 -48t66.5 -22t69.5 -5q84 0 144 24t101.5 67.5t67 103.5t39 133t18 156.5t4.5 172.5q0 104 -23 197.5t-64.5 173.5t-98.5 144.5t-125 109.5t-144.5 69.5t-156.5 24.5q-78 0 -153 -19.5t-140 -57t-117.5 -91
t-83.5 -121.5l-61 35q31 78 84 145t129 117t174.5 78.5t220.5 28.5q115 0 217 -29.5t188 -83.5t154.5 -129t116 -166t73 -195.5t25.5 -215.5q0 -187 -35 -333t-110 -247t-192 -154t-281 -53q-39 0 -86.5 11.5t-95 35.5t-90.5 60.5t-72 85.5q-29 -43 -67.5 -78.5t-84 -61
t-99 -39.5t-112.5 -14q-89 0 -169.5 35t-141.5 95.5t-97 140.5t-36 170q0 79 23.5 145.5t61.5 119t85 91.5t94 65l33 -59q-35 -25 -58 -55.5t-36 -72t-17 -95.5t-2 -125q2 -68 23.5 -130t59.5 -108.5t90.5 -74t117.5 -27.5q57 0 103 28.5t78 75t49.5 105t17.5 117.5z" />
    <glyph glyph-name="tsaqui" unicode="&#x13c8;" horiz-adv-x="1753" 
d="M436 1456q-68 -2 -117.5 -29.5t-83 -73.5t-51 -107t-20.5 -128l-62 10q0 83 20.5 162.5t65 142t113 100.5t164.5 38q51 0 95 -13.5t83 -37t73.5 -55t65.5 -68.5q2 2 4.5 3.5t4.5 4.5q74 84 168.5 125t205.5 41q89 0 173 -26.5t149 -82t104 -141.5t39 -205q0 -68 -19 -133
t-52 -122t-77.5 -102.5t-96.5 -75t-108 -39.5t-112 5q17 -79 17 -157q0 -57 -10.5 -118t-31.5 -119.5t-53.5 -111t-76.5 -92t-100 -63t-124 -23.5q-65 0 -116 23.5t-89.5 62.5t-65 90.5t-43.5 108t-24.5 113.5t-7.5 108q0 89 15.5 174t41.5 166.5t60.5 161t73.5 157.5
l61 125q-21 31 -49 67t-61.5 66t-70.5 49.5t-75 18.5zM584 481q0 -65 13.5 -136t41.5 -130t72 -97t106 -38q31 0 55.5 19t43.5 51t33 73t23 85t13 87.5t4 79.5q0 91 -18 176t-48.5 165t-70.5 157t-84 153q-42 -81 -76 -164.5t-58 -166t-37 -162t-13 -152.5zM977 1090
q46 -82 88 -165t70 -169q60 -16 106.5 -8t81.5 32t59.5 61t39 81t20 90.5t4.5 89.5q-4 96 -30.5 163.5t-68.5 109.5t-95 61.5t-109 19.5q-54 0 -95 -11t-74 -32t-60.5 -52.5t-53.5 -72.5q32 -51 61.5 -101.5t55.5 -96.5z" />
    <glyph glyph-name="tsaquo" unicode="&#x13c9;" horiz-adv-x="2578" 
d="M1235 342l281 979q-51 2 -76 34t-25 79q0 66 44.5 101.5t113.5 35.5q26 0 49 -9t40.5 -25t26.5 -38.5t7 -48.5q35 10 78 20.5t108 10.5q77 0 131.5 -21t89.5 -52t51.5 -65.5t16.5 -62.5q0 -32 -12 -64.5t-26 -66t-26 -68.5t-12 -71q0 -27 6 -53t20.5 -46t38.5 -32.5
t60 -12.5q58 0 93.5 15t56 43.5t30.5 69t19 91.5l78 -8q-10 -65 -26.5 -125.5t-50.5 -107t-90 -74t-145 -27.5q-52 0 -99.5 12.5t-83.5 39.5t-57.5 71t-21.5 107q0 40 12 73t27 63t27 61t12 69q0 32 -15 57t-38 42t-51.5 25.5t-55.5 8.5q-56 0 -99 -12.5t-77 -26.5
l-389 -1368h-125l-367 1270q-38 -112 -74.5 -197.5t-78 -143t-90.5 -87t-113 -29.5q-59 0 -105 19t-80 52.5t-57 78t-37 95.5t-20 105t-6 107q0 45 12 80t32 59t46 36.5t53 12.5q48 0 79.5 -36t31.5 -99q0 -43 -20.5 -88.5t-63.5 -73.5q-25 -15 -25 -47q0 -26 5 -59.5
t21.5 -63.5t47.5 -50.5t82 -20.5q61 0 106.5 46.5t88 134.5t86.5 215.5t102 289.5h76z" />
    <glyph glyph-name="tsaquu" unicode="&#x13ca;" horiz-adv-x="2300" 
d="M887 436q0 77 24 150.5t70 130.5t113.5 92t154.5 35q50 0 96 -11.5t81.5 -32.5t57 -49t21.5 -61q0 -24 -8 -42t-20.5 -29.5t-28.5 -17t-31 -5.5q-62 0 -104 33t-62 86q-12 26 -37 26q-46 0 -78 -32t-52.5 -77.5t-30 -95.5t-9.5 -87q1 -85 17.5 -145.5t44 -101.5t63 -65
t75.5 -37t81 -16.5t80 -3.5q106 0 186 26.5t138.5 74t97.5 111.5t62 139.5t32.5 158t9.5 166.5q0 148 -44 277t-121 225t-181.5 151t-224.5 55q-78 0 -153 -21t-140 -59.5t-117.5 -93.5t-83.5 -123l-61 35q31 78 84 145t128.5 117t174.5 78.5t221 28.5q115 0 214 -29.5
t180 -83.5t144.5 -128t106.5 -163t65.5 -190t22.5 -207q0 -179 -45.5 -327t-139.5 -254.5t-237.5 -165t-339.5 -58.5q-60 0 -119.5 10.5t-114.5 33.5t-102.5 59t-82.5 88q-29 -42 -66 -77.5t-82.5 -60.5t-98 -39t-110.5 -14q-59 0 -118 13.5t-113 42t-100.5 72t-80.5 104
t-53.5 138.5t-19.5 175q0 74 15 135t39.5 111t57 90t67.5 71.5t71 55t67 41.5l41 -39q-35 -25 -66.5 -64t-55.5 -94t-38 -128t-14 -165q0 -98 17 -180t54.5 -140.5t96.5 -91t143 -32.5q57 0 106 29t85.5 75.5t57 105.5t20.5 118v28v0z" />
    <glyph glyph-name="tsaquv" unicode="&#x13cb;" horiz-adv-x="1454" 
d="M788 80q111 0 188.5 20t127 54t72 78.5t22.5 93.5q0 48 -8.5 82.5t-32 56t-64.5 31.5t-106 10v98q81 0 145 -12.5t108.5 -44t67.5 -85.5t23 -136q0 -89 -42 -156t-119 -113t-185 -69t-240 -23q-121 0 -228.5 37.5t-188 101.5t-127.5 150t-47 184q0 58 19.5 114t55.5 106
t87 91.5t114 71.5q-99 48 -157 132t-58 200q0 97 34 174.5t99.5 131.5t161 83t219.5 29q62 0 135.5 -10t143 -40t127 -86t88.5 -147q19 -60 1.5 -107.5t-63.5 -66.5q-24 -9 -50 -5.5t-49 17.5t-43 37t-32 54q-8 21 -6.5 44t5 45.5t4 44t-10.5 38.5q-10 15 -27.5 27.5
t-45 21.5t-66.5 13.5t-92 4.5q-85 0 -148.5 -22t-106 -62t-64 -95t-21.5 -122q0 -59 16 -108.5t46.5 -85.5t74 -56t98.5 -20h193v-117h-168q-75 -3 -134.5 -30.5t-101 -70.5t-64 -98t-22.5 -112q0 -72 35 -140t95 -120.5t140.5 -84.5t171.5 -32z" />
    <glyph glyph-name="tsasa" unicode="&#x13cc;" horiz-adv-x="1726" 
d="M305 1327q-5 62 -50 84.5t-132 22.5v102h553v-102q-87 0 -132 -22.5t-50 -84.5v-442h784v430q0 69 -45.5 94t-136.5 25v102h508v-102q-91 0 -137 -25t-46 -94v-715v-4q0 -74 -15.5 -149.5t-46.5 -145.5t-78 -131t-110.5 -106.5t-143 -72t-175.5 -26.5q-94 0 -171 28
t-137.5 76.5t-105.5 114t-74.5 140t-44 155t-14.5 158.5v690zM877 82q61 0 114 22t98 60.5t80 91t59 114.5t37 130t13 137v125h-784v-166q0 -111 25 -205t74 -162.5t120.5 -107.5t163.5 -39z" />
    <glyph glyph-name="tsas" unicode="&#x13cd;" horiz-adv-x="2290" 
d="M1280 631q0 -146 8 -250.5t34 -171t74.5 -98t129.5 -31.5q84 0 146 25.5t106 70.5t71.5 106.5t43.5 134.5t22 154.5t6 165.5q0 99 -21 191t-62 171.5t-100.5 145.5t-136.5 112.5t-171 72.5t-203 26q-78 0 -153 -19.5t-140 -57t-117.5 -91t-83.5 -121.5l-61 35
q31 78 84 145t128.5 117t174.5 78.5t221 28.5q140 0 257.5 -31t212.5 -86.5t167.5 -132t121 -167.5t73 -193.5t24.5 -208.5q0 -179 -38.5 -324.5t-117 -248.5t-199 -158.5t-284.5 -55.5q-70 0 -131.5 25t-111.5 74.5t-86 123t-54 170.5h-190q-10 -79 -43.5 -150.5t-87 -126
t-126 -86.5t-161.5 -32t-160 35.5t-120.5 96t-76 141t-26.5 170.5q0 93 30.5 174t85 141.5t130.5 95.5t168 35q80 0 146.5 -30.5t116.5 -81.5t82 -118t42 -141h174q-6 70 -6 150q0 69 -46 94t-137 25v102h553v-102q-91 0 -136.5 -25t-45.5 -94zM291 420q1 -67 16 -131.5
t45 -115t76 -81.5t109 -31q55 0 97 32t70 82.5t42 111.5t14 119q0 60 -17.5 122t-49.5 112.5t-78 83t-103 32.5q-58 0 -100 -32t-69 -81.5t-40 -109t-12 -113.5z" />
    <glyph glyph-name="tsase" unicode="&#x13ce;" horiz-adv-x="1473" 
d="M813 590h-670v119l670 827h188v-823h127q35 0 58 11t36.5 31.5t19 50.5t5.5 68h103v-446h-103q0 38 -5.5 68t-19 51t-36.5 32t-58 11h-127v-383q3 -31 15.5 -51t35.5 -32t56 -17t76 -5v-102h-553v102q91 0 136.5 25t45.5 94v369zM813 713v630l-512 -630h512z" />
    <glyph glyph-name="tsasi" unicode="&#x13cf;" horiz-adv-x="1380" 
d="M305 1315q0 69 -45.5 94t-136.5 25v102h553v-102q-87 0 -132 -22.5t-50 -84.5v-407h196q80 0 153.5 -19.5t136.5 -53t114 -80t87.5 -100t56 -112t19.5 -117.5q0 -98 -45 -178.5t-119 -138t-169.5 -89.5t-196.5 -32h-604v102q91 0 136.5 25t45.5 94v1094zM494 123h190
q78 0 147.5 27t121.5 73t82 106.5t30 127.5q0 59 -23.5 120.5t-67 111.5t-106.5 82t-141 32h-233v-680z" />
    <glyph glyph-name="tsaso" unicode="&#x13d0;" horiz-adv-x="1446" 
d="M1038 864q-28 0 -55.5 -9.5t-55 -26t-55 -38.5t-55.5 -47v-536q2 -31 15 -51t35.5 -32t55.5 -17t76 -5v-102h-553v102q91 0 137 25t46 94v363q-38 -25 -79.5 -40.5t-84.5 -15.5q-84 0 -147.5 34t-107 87.5t-65.5 117.5t-22 124q0 34 7.5 63t21.5 50.5t35.5 34t50.5 12.5
q49 0 70.5 -32.5t21.5 -88.5q0 -44 -14 -73t-46 -58q-22 -21 -11.5 -43.5t36.5 -41t58.5 -30.5t54.5 -12q61 0 115.5 29.5t105.5 74.5v551q-5 62 -50.5 84.5t-132.5 22.5v102h553v-102q-91 0 -136.5 -25t-45.5 -94v-371q38 28 78.5 46t85.5 18q84 0 147.5 -34t107 -87.5
t65.5 -117.5t22 -124q0 -34 -7.5 -63t-21.5 -50.5t-36 -34t-50 -12.5q-49 0 -70.5 32.5t-21.5 88.5q0 44 14 73t46 58q22 21 11.5 43.5t-36.5 41t-58.5 30.5t-54.5 12z" />
    <glyph glyph-name="tsasu" unicode="&#x13d1;" horiz-adv-x="1702" 
d="M709 768q100 0 180.5 -24.5t137.5 -73.5t87.5 -122.5t30.5 -170.5q0 -89 -34.5 -164.5t-98 -130.5t-152.5 -86t-198 -31q-146 0 -248.5 41t-167 105t-94 141t-29.5 149q0 86 22.5 154t60 124.5t84.5 104.5t96.5 93t96.5 90t84 96q-78 11 -140.5 34t-106.5 58t-67.5 81.5
t-23.5 104.5q0 53 25.5 95.5t67.5 72.5t97.5 46t115.5 16q51 0 95.5 -18t77.5 -50t51.5 -76t18.5 -96q0 -31 -3.5 -61.5t-8.5 -61.5q-2 -14 -4.5 -26t-5.5 -25q55 9 94 35.5t74 61t71.5 72.5t86.5 69.5t119 52t169 20.5q117 0 183.5 -47t66.5 -153q0 -34 -5.5 -75.5
t-10.5 -72.5h-105q5 29 9.5 58.5t4.5 58.5q0 45 -10 72t-28.5 42t-46.5 20t-64 5q-58 0 -103.5 -24t-87 -59.5t-84.5 -77t-95.5 -77t-119.5 -59.5t-157 -24q-30 -57 -70 -108t-83 -99t-85 -94t-75 -94.5t-53.5 -100t-20.5 -110.5q0 -56 13 -118t50 -114t102 -85.5t169 -33.5
q90 0 154 24t104.5 63.5t59.5 89.5t19 102q0 72 -14.5 127t-48 91.5t-89.5 55.5t-140 19v98zM399 1354q0 -48 19 -82.5t50 -57t71 -35t82 -18.5q12 32 19 68t7 78q0 85 -38 123t-107 38q-29 0 -49 -12t-32 -29t-17 -37t-5 -36z" />
    <glyph glyph-name="tsasv" unicode="&#x13d2;" horiz-adv-x="1485" 
d="M305 1327q-5 62 -50 84.5t-132 22.5v102h604q67 0 136 -6t132 -21t118.5 -41t96.5 -66.5t64.5 -96.5t23.5 -131q0 -84 -31 -146.5t-84.5 -107.5t-124 -75.5t-149.5 -51.5l248 -465l57 -107q19 -37 41.5 -60t48 -36t55 -18t64.5 -5v-102h-553v102q49 0 84 4t55.5 14
t25.5 27.5t-7 45.5l-307 575v117h6q78 0 147 20t120.5 56t81.5 85.5t30 108.5q0 67 -36.5 115.5t-96 80t-135.5 47t-154 15.5h-190v-1192q0 -69 45.5 -94t136.5 -25v-102h-553v102q91 0 136.5 25t45.5 94v1106z" />
    <glyph glyph-name="tsada" unicode="&#x13d3;" horiz-adv-x="1305" 
d="M913 508q0 56 32 88.5t81 32.5q28 0 56 -15t50.5 -43.5t36 -69.5t13.5 -93q0 -82 -26.5 -161.5t-77.5 -142t-125 -101t-169 -38.5q-113 0 -202 44.5t-150.5 120t-94 174.5t-32.5 208v815q-5 62 -50 84.5t-132 22.5v102h553v-102q-91 0 -136.5 -25t-45.5 -94v-823
q0 -42 8 -89t23 -92.5t38 -87.5t53.5 -73.5t67.5 -50.5t82 -19q52 0 98 16t82.5 40.5t62.5 54.5t38.5 58t8.5 50t-26 31q-29 12 -51 32t-36.5 44t-22 50.5t-7.5 51.5z" />
    <glyph glyph-name="tsata" unicode="&#x13d4;" horiz-adv-x="2193" 
d="M1917 1315l-516 -1350h-84l-215 557l-213 -557h-84l-520 1350q-14 37 -36 60t-50 36t-60.5 18t-66.5 5v102h317l485 -1262l162 420l-323 842h188l229 -596l230 596h131l-295 -768l190 -494l469 1219l17 43h250v-102q-49 0 -81.5 -5t-55 -18t-37.5 -36t-29 -60h-2z" />
    <glyph glyph-name="tsade" unicode="&#x13d5;" horiz-adv-x="1430" 
d="M590 1460q-47 0 -94.5 -11.5t-85.5 -39.5t-62 -75.5t-24 -119.5q0 -47 20 -88t53 -76t75.5 -66t86.5 -57t86 -49q29 -16 54 -30h608v-123h-396q13 -9 26 -17q52 -32 97 -69t78.5 -80.5t52.5 -96t19 -116.5q0 -68 -23.5 -122.5t-64 -97t-94 -73t-114.5 -50t-126 -29
t-127 -9.5q-51 0 -99.5 12.5t-93.5 31t-86 41t-77 42.5q-20 11 -30 3.5t-14.5 -24.5t-5 -41t-0.5 -46h-102v446h102q0 -54 13 -93t32.5 -67.5t43 -48.5t44.5 -35q70 -52 152 -82t164 -30q52 0 105.5 17.5t97 49t71 75.5t27.5 97q0 54 -19 98.5t-50.5 82t-73.5 68.5t-87 58.5
t-90.5 51.5t-85.5 47q-38 22 -86.5 49t-98.5 59t-97.5 69.5t-85 81t-60 93t-22.5 105.5q0 105 39.5 180t106.5 123t155 70.5t186 22.5q131 0 215.5 -26t134.5 -65.5t72.5 -86t30.5 -87.5q7 -36 19 -59.5t33 -36.5t52.5 -18t77.5 -5v-103h-543v103q45 0 79.5 5.5t57.5 19
t34.5 36.5t11.5 58q0 13 -1.5 29.5t-9.5 33.5t-26 33.5t-50.5 29t-83 20t-124.5 7.5z" />
    <glyph glyph-name="tsate" unicode="&#x13d6;" horiz-adv-x="1528" 
d="M948 829q100 0 183.5 -25t144.5 -77t95 -131t34 -188q0 -89 -36 -169.5t-98.5 -141.5t-146 -96.5t-178.5 -35.5q-113 0 -199 44.5t-143.5 120t-87 174.5t-29.5 208v901h-127q-61 -5 -96 -50t-49 -132h-102l41 305h522v-1044q0 -83 17.5 -150.5t52 -116.5t85 -75.5
t117.5 -26.5q86 0 146 25t97.5 65t54 91t16.5 104q0 60 -15 118t-51 103.5t-96.5 73.5t-151.5 28v98z" />
    <glyph glyph-name="tsadi" unicode="&#x13d7;" horiz-adv-x="1595" 
d="M903 315q-24 -74 -54 -137.5t-75 -111t-109 -74.5t-155 -27q-89 0 -161 38.5t-122 100.5t-77 140t-27 157q0 45 12 80t32 59t46 37t53 13q48 0 79.5 -36t31.5 -99q0 -44 -20.5 -89t-63.5 -73q-25 -15 -25 -47q0 -26 18 -55.5t49.5 -54t75.5 -40.5t95 -16q61 0 101.5 21.5
t69.5 61.5t50.5 95t44.5 123l330 934q12 39 2 62.5t-35 36t-61 16.5t-74 4v102h539v-102q-91 0 -137 -25t-46 -94v-1094q0 -69 46 -94t137 -25v-102h-371v924l-199 -609v0z" />
    <glyph glyph-name="tsati" unicode="&#x13d8;" horiz-adv-x="1595" 
d="M903 315q-24 -74 -54 -137.5t-75 -111t-109 -74.5t-155 -27q-89 0 -161 38.5t-122 100.5t-77 140t-27 157q0 45 12 80t32 59t46 37t53 13q48 0 79.5 -36t31.5 -99q0 -44 -20.5 -89t-63.5 -73q-25 -15 -25 -47q0 -26 18 -55.5t49.5 -54t75.5 -40.5t95 -16q61 0 101.5 21.5
t69.5 61.5t50.5 95t44.5 123l330 934q3 10 6 27t0 32.5t-14 27t-35 11.5h-412q-62 -5 -96.5 -50t-48.5 -132h-103l41 305h1033v-102q-91 0 -137 -25t-46 -94v-1094q0 -69 46 -94t137 -25v-102h-371v924l-199 -609v0z" />
    <glyph glyph-name="tsado" unicode="&#x13d9;" horiz-adv-x="1693" 
d="M900 -35h-105l-518 1350q-15 37 -35.5 60t-47 36t-57 18t-65.5 5v102h563v-102q-51 0 -85.5 -3t-53.5 -13.5t-23 -30t5 -52.5l409 -1061l408 1063q8 30 0.5 49t-29 29.5t-57 14.5t-84.5 4v102h496v-102q-49 0 -82 -5t-55 -18t-37 -36t-29 -60z" />
    <glyph glyph-name="tsadu" unicode="&#x13da;" horiz-adv-x="1307" 
d="M362 180q70 -52 152 -79t164 -27q52 0 105.5 17.5t97 49t71 75.5t27.5 97q0 54 -19 98.5t-50.5 82t-73.5 68.5t-87 58.5t-90.5 51.5t-85.5 47q-38 22 -86.5 49t-98.5 59t-97.5 69.5t-85 81t-60 93t-22.5 105.5q0 105 39.5 180t106.5 122.5t155 70t186 22.5q45 0 90 -7.5
t86 -20.5t78 -29.5t66 -34.5q19 -12 30.5 -10.5t18 12t9 29t3.5 40.5h103v-446h-103q0 38 -7 74.5t-18.5 68.5t-27 57.5t-33.5 41.5q-60 54 -146.5 84t-189.5 30q-39 0 -82 -11.5t-79.5 -39.5t-60 -75.5t-23.5 -119.5q0 -47 20 -88t53 -76t75.5 -66t86.5 -57t86.5 -49
t76.5 -43q54 -32 109 -63t106.5 -63.5t96.5 -69.5t78.5 -80.5t52.5 -96t19 -116.5q0 -68 -23.5 -122.5t-64 -97t-94 -73t-114.5 -50t-126 -29t-127 -9.5q-51 0 -99.5 11.5t-93.5 29t-86 39t-77 41.5q-20 11 -30 3.5t-14.5 -25t-5 -41.5t-0.5 -46h-102v447h102q0 -54 13 -93
t32.5 -67.5t43 -48.5t44.5 -35z" />
    <glyph glyph-name="tsadv" unicode="&#x13db;" horiz-adv-x="1917" 
d="M1182 985h-168q0 106 -14 182.5t-37 129t-53.5 84t-63 48t-65.5 22t-62 5.5q-65 -2 -117.5 -40.5t-97.5 -104.5q96 -75 170.5 -162t126 -188t78 -218t26.5 -251q0 -56 -11 -117.5t-33.5 -120t-56 -111.5t-78.5 -93t-101.5 -63.5t-124.5 -23.5q-65 0 -116 23.5t-89.5 63
t-65 91.5t-43.5 108.5t-24.5 113.5t-7.5 108q0 67 7 150.5t22.5 173.5t40 182.5t59.5 179t81 162t104.5 132t130 88.5t157.5 32q104 1 194.5 -47t147.5 -140q26 42 60 76t74.5 59t88 38.5t100.5 13.5q180 0 276.5 -114t96.5 -329q0 -80 -22.5 -146t-58.5 -118.5t-82 -91.5
t-93 -65l-31 59q36 24 57 55t32 72t13.5 95.5t0.5 125.5q-2 68 -12.5 130t-35 109t-66 75t-105.5 28q-49 0 -87.5 -29t-65 -75.5t-40.5 -105.5t-14 -118zM692 475q0 102 -12 206t-39.5 202t-72 186t-109.5 160q-39 -78 -67.5 -173t-48 -194.5t-29 -197.5t-9.5 -183
q0 -65 12 -136t39 -130t70 -97t104 -38q31 0 55 19t42 51t30.5 73t20 85t11 87.5t3.5 79.5z" />
    <glyph glyph-name="tsadla" unicode="&#x13dc;" horiz-adv-x="1815" 
d="M920 1571q68 0 121 -25t89 -66t55 -92.5t19 -105.5q0 -56 -15 -103t-41.5 -87.5t-63.5 -74.5t-80 -63q68 -35 145 -67.5t152.5 -68t144 -77.5t121 -95t83.5 -120.5t31 -154.5q0 -201 -84 -303.5t-262 -102.5q-82 0 -144.5 35t-104.5 93t-63.5 133t-21.5 155q0 48 15 95.5
t41 92t61 84.5t74 74q-82 37 -167.5 71t-166.5 74q-60 -29 -121.5 -54t-118.5 -50q42 -35 79 -76t65 -87.5t44.5 -97.5t16.5 -104q0 -94 -22 -174.5t-68 -139t-116 -91.5t-166 -33q-76 0 -137 31.5t-103.5 85t-65 124.5t-22.5 150q0 95 27.5 167.5t74 127.5t109 96.5t132 74
t142.5 60.5t142 56q-39 28 -70.5 60t-54 70.5t-35 84.5t-12.5 100q0 61 24 118.5t68.5 102t108 71t141.5 26.5zM465 80q51 0 85 24t53.5 62t27.5 85.5t8 94.5q0 51 -13 98t-36.5 90.5t-56 82.5t-70.5 73q-40 -22 -76 -49.5t-63.5 -65t-43.5 -88.5t-16 -120q0 -53 12 -104
t37 -92t63 -66t89 -25zM1352 80q48 0 77.5 22t45.5 60.5t21 90.5t5 112q0 57 -17 104t-47 86t-71.5 70.5t-89.5 58.5q-62 -66 -94.5 -148.5t-32.5 -173.5q0 -36 9.5 -84.5t32.5 -92.5t62.5 -74.5t98.5 -30.5zM1063 1260q0 42 -8 78t-27 62t-51 41t-80 15q-36 0 -63 -15.5
t-44.5 -43t-26.5 -65.5t-9 -83q0 -77 40.5 -133.5t108.5 -101.5q35 21 64.5 46t50.5 55t33 66t12 79z" />
    <glyph glyph-name="tsatla" unicode="&#x13dd;" horiz-adv-x="1432" 
d="M305 1128q0 115 45 198.5t121 138t175.5 80.5t207.5 26q100 0 177.5 -29t131 -80t81.5 -121t28 -151q0 -52 -13.5 -93t-36 -69.5t-50.5 -43.5t-56 -15q-49 0 -80.5 32.5t-31.5 88.5q0 24 7 50.5t21 51t36 44.5t52 32q15 5 15.5 22t-11 39t-34.5 46t-55 44.5t-72 33.5
t-86 13q-76 0 -145.5 -20t-122 -59.5t-84 -99t-31.5 -138.5v-1026h542q69 0 107 45.5t53 136.5h102l-41 -305h-1134v102q91 0 136.5 25t45.5 94v907z" />
    <glyph glyph-name="tsatle" unicode="&#x13de;" horiz-adv-x="1421" 
d="M1036 123q69 0 107 45.5t53 136.5h102l-41 -305h-1134v102q43 0 76 5t56 17t35.5 32t14.5 51v1108q0 69 -45.5 94t-136.5 25v102h553v-102q-91 0 -136.5 -25t-45.5 -94v-1192h542v0z" />
    <glyph glyph-name="tsatli" unicode="&#x13df;" horiz-adv-x="1690" 
d="M915 1456q-88 0 -163 -26.5t-136 -74t-107 -111.5t-77 -139.5t-47 -158t-16 -166.5q0 -148 44 -276t121 -222t181 -148t225 -54q56 0 114.5 12t113.5 37t103.5 63.5t84.5 91t57 120t21 151.5h102q0 -75 -18 -147.5t-53.5 -138t-89.5 -121.5t-126 -96.5t-162.5 -63.5
t-199.5 -23q-115 0 -214 30t-180 83t-144.5 127.5t-106.5 163.5t-65.5 189.5t-22.5 207.5q0 179 60.5 327t166 254.5t248.5 165t307 58.5q45 0 102.5 -8t114.5 -20.5t106 -29t78 -34.5q19 -13 29 -13t16 10t9.5 25.5t5 34t2.5 35.5h102v-467h-102q0 65 -20 116.5t-55 90.5
t-81.5 66.5t-100.5 45t-112 25.5t-115 8z" />
    <glyph glyph-name="tsatlo" unicode="&#x13e0;" horiz-adv-x="1669" 
d="M549 653h-76q-77 0 -141 26.5t-110.5 68.5t-72.5 93.5t-26 100.5q0 60 21 108t57 81t83 51t99 18q81 0 137.5 -30.5t93 -87.5t53.5 -138t19 -182h490v553q0 69 -46 94t-137 25v102h553v-102q-91 0 -136.5 -25t-45.5 -94v-553h182v-109h-182v-141q0 -128 -32.5 -229.5
t-94 -172t-150.5 -108t-202 -37.5q-166 0 -251 114.5t-85 328.5v245zM688 311q1 -54 17 -96.5t43.5 -72.5t67 -46t87.5 -16q67 0 118 31.5t85.5 87t52 131t17.5 162.5v161h-488v-53v-289zM250 952q0 -52 19.5 -88.5t53 -59t78.5 -32.5t95 -10h53q-2 93 -11 157t-29 104
t-53.5 57.5t-84.5 17.5q-30 0 -52.5 -13t-38 -34t-23 -47t-7.5 -52z" />
    <glyph glyph-name="tsatlu" unicode="&#x13e1;" horiz-adv-x="2099" 
d="M326 1010q0 61 12 126t37 127.5t63.5 118t90 98t117 67t145.5 24.5q106 0 185 -48t142 -126q3 5 7.5 10t9.5 10q77 79 164 116.5t192 37.5q103 0 189.5 -29.5t149.5 -89t98.5 -148.5t35.5 -208q0 -53 -17 -101t-45 -90.5t-64 -78.5t-74.5 -66.5t-76.5 -54.5t-69 -41
l-33 59q35 24 71 56.5t64.5 75.5t45.5 99t14 127q-8 187 -88.5 281t-223.5 94q-49 0 -91 -13.5t-76.5 -36.5t-60.5 -53.5t-44 -64.5q52 -90 108.5 -184.5t103.5 -193.5t77.5 -203.5t30.5 -214.5q0 -57 -9.5 -118t-30 -120t-52.5 -111t-76 -92t-100.5 -63t-127.5 -23
q-65 0 -116 23.5t-89.5 62.5t-65 90.5t-43.5 108t-24.5 113.5t-7.5 108q0 89 15.5 174t41.5 166.5t60.5 161t73.5 157.5l63 125q-18 33 -48.5 68.5t-66 65t-73 48.5t-70.5 19q-78 0 -138 -40.5t-100.5 -105t-61.5 -143.5t-21 -157v-15q0 -69 45.5 -93.5t136.5 -24.5v-103
h-508v103q54 0 92.5 4t63 16.5t36 36t11.5 61.5v15zM1323 475q0 91 -18 176t-48.5 165t-70 157t-82.5 153q-36 -73 -69.5 -153t-59.5 -163t-41.5 -166.5t-15.5 -162.5q0 -65 13.5 -136t41.5 -130t72 -97t106 -38q31 0 55.5 19t43.5 51t33 73t23 85t13 87.5t4 79.5z" />
    <glyph glyph-name="tsatlv" unicode="&#x13e2;" horiz-adv-x="1380" 
d="M494 221q0 -69 45.5 -94t136.5 -25v-102h-553v102q43 0 76 5t56 17t35.5 32t14.5 51v1120q-5 62 -50 84.5t-132 22.5v102h604q101 0 196.5 -20t169.5 -63.5t119 -112.5t45 -166q0 -89 -43.5 -163.5t-119.5 -128.5t-179.5 -84t-224.5 -30h-196v-547zM494 1413v-528h233
q78 0 141 20t106.5 56t67 85.5t23.5 108.5q0 67 -30 115.5t-82 80t-121.5 47t-147.5 15.5h-190z" />
    <glyph glyph-name="tsatsa" unicode="&#x13e3;" horiz-adv-x="1776" 
d="M1292 1245q0 42 -21.5 80t-67.5 67t-117.5 46.5t-170.5 17.5q-88 0 -163 -26.5t-136 -74t-107 -111.5t-77 -139.5t-47 -158t-16 -166.5q0 -148 43 -276t123 -222t193 -148t253 -54q30 0 71 4.5t84.5 13.5t85.5 23t75.5 32.5t54 42t20.5 52.5q0 9 -4 19.5t-12 15.5
q-34 24 -57 61t-23 74q0 45 12.5 77.5t32 54t44.5 32t50 10.5t52.5 -12t50 -35.5t37 -58t14.5 -80.5q0 -82 -27 -147t-74 -114t-109.5 -83.5t-134 -56t-147.5 -31t-149 -9.5q-190 0 -334.5 65t-242 175.5t-147.5 255.5t-50 305q0 179 60.5 327t166 254.5t248.5 165t307 58.5
q107 0 198.5 -20.5t161 -61t115 -102t59.5 -142.5q6 -36 18.5 -59t34 -36.5t53.5 -18.5t77 -5v-102h-543v102q91 0 136.5 25t45.5 94z" />
    <glyph glyph-name="tsatse" unicode="&#x13e4;" horiz-adv-x="1739" 
d="M487 0v1413h-127q-61 -5 -96 -50t-49 -132h-102l41 305h522v-1300l647 1079q21 34 18.5 57t-24.5 37t-61.5 19.5t-92.5 5.5v102h504v-102q-41 0 -67.5 -2.5t-45.5 -10.5t-34 -24.5t-33 -44.5l-811 -1352h-189z" />
    <glyph glyph-name="tsatsi" unicode="&#x13e5;" horiz-adv-x="1833" 
d="M305 1327q-5 62 -50 84.5t-132 22.5v102h553v-102q-91 0 -136.5 -25t-45.5 -94v-590l688 401q54 31 107 47.5t104 16.5q54 0 110.5 -26t102.5 -68t75 -96t29 -111q0 -28 -12 -49.5t-30 -36t-39.5 -22t-39.5 -7.5q-27 0 -48.5 14t-36.5 37t-23 52.5t-8 60.5q0 13 3 27
t7 26.5t7 22.5t3 16q0 8 -5.5 18.5t-15 19.5t-23.5 15.5t-32 6.5q-34 0 -81 -24t-103 -56l-35 -21v-768q-1 -35 11 -57.5t35 -36.5t57.5 -19.5t78.5 -5.5v-102h-553v102q43 0 76 5t56 17t36 32t15 51v674l-516 -299v-361q0 -69 45.5 -94t136.5 -25v-102h-553v102
q91 0 136.5 25t45.5 94v1106z" />
    <glyph glyph-name="tsatso" unicode="&#x13e6;" horiz-adv-x="1690" 
d="M825 897l531 -676q30 -37 52 -60t44 -36t49 -18t66 -5v-102h-566v102q51 0 87.5 4t56.5 13.5t23 26.5t-13 44l-459 582l-202 -197v-354q0 -69 45.5 -94t136.5 -25v-102h-553v102q43 0 76 5t56 17t35.5 32t14.5 51v1108q0 69 -45.5 94t-136.5 25v102h553v-102
q-91 0 -136.5 -25t-45.5 -94v-563l593 575q33 32 36 53t-17 33t-60.5 16.5t-93.5 4.5v102h566v-102q-53 0 -83.5 -1.5t-54.5 -12t-49.5 -33t-66.5 -64.5z" />
    <glyph glyph-name="tsatsu" unicode="&#x13e7;" horiz-adv-x="1346" 
d="M1040 512q-5 -102 -32 -200t-81.5 -175.5t-139.5 -124.5t-205 -47q-95 0 -179 35.5t-146 96.5t-98 141.5t-36 169.5q0 109 34 193.5t94.5 143t144.5 89t184 30.5q86 0 152 -18t120 -55v24v512q-5 62 -50.5 84.5t-131.5 22.5v102h553v-102q-91 0 -137 -25t-46 -94v-803z
M580 752q-164 0 -239 -88.5t-75 -255.5q0 -53 20 -108t61 -100t104 -73.5t149 -28.5q75 0 123.5 38t77 96t40 127.5t11.5 132.5v151q-31 29 -61 50t-62.5 34t-69 19t-79.5 6z" />
    <glyph glyph-name="tsatsv" unicode="&#x13e8;" horiz-adv-x="2087" 
d="M1950 1094l-181 -115l-180 115l-180 -115q-6 21 -10 35.5t-7.5 26.5t-6.5 24.5t-7 28.5q-22 84 -71.5 151t-117 114t-149.5 72t-170 25q-127 0 -221 -58t-156.5 -153t-93 -216t-30.5 -247q0 -148 40 -276.5t109.5 -223t162.5 -148.5t198 -54q102 0 195 35t164 98t113 151
t42 193v74l211 -135l180 114l180 -114v-154l-180 115l-180 -115l-129 80q-27 -96 -77.5 -179.5t-129.5 -145t-188.5 -97t-254.5 -35.5q-104 0 -194.5 30t-165 83.5t-132.5 128t-98 164t-60.5 190t-20.5 207.5q0 179 56.5 327t154.5 253.5t229 164t280 58.5q122 0 218 -32
t169 -87t125 -127t87 -151l116 73l180 -114l181 114v-153z" />
    <glyph glyph-name="tsawa" unicode="&#x13e9;" horiz-adv-x="2140" 
d="M1762 106q46 0 79 20t57 54.5t41 80.5t31 97l88 -20q-13 -66 -32 -127t-52 -108t-84 -75t-128 -28q-56 0 -101 6.5t-83.5 24.5t-73.5 51t-72 86q-48 -57 -111.5 -96t-135 -62.5t-148 -34t-150.5 -10.5q-115 0 -214 29.5t-180 83t-144.5 128t-106.5 163.5t-65.5 190
t-22.5 207q0 179 57.5 327t163 254.5t253.5 165t328 58.5q91 0 180.5 -19t165.5 -56t132.5 -92t81.5 -126q21 -60 3.5 -108t-65.5 -66q-24 -9 -49.5 -6t-49.5 16.5t-43.5 36.5t-31.5 55q-9 21 -7.5 41t4.5 39t4 37t-9 35q-14 21 -38.5 39t-64.5 31t-97 20.5t-136 7.5
q-98 0 -178 -26.5t-143 -74t-109 -111.5t-76.5 -139.5t-45.5 -158t-15 -166.5q0 -148 44 -276t121 -222t181 -148t225 -54q87 0 159.5 13.5t125 47.5t81.5 92.5t29 149.5v147q0 35 -11.5 58t-34 36.5t-57 19t-79.5 5.5v103h553v-103q-37 0 -69 -4.5t-56 -13.5t-37.5 -23
t-13.5 -33v-192q0 -65 24 -116.5t59.5 -87t76 -54.5t72.5 -19z" />
    <glyph glyph-name="tsawe" unicode="&#x13ea;" horiz-adv-x="2214" 
d="M1380 -35q-74 0 -132.5 9t-109.5 31t-96.5 57t-93.5 88q-3 -7 -7 -11.5t-9 -9.5q-74 -84 -158.5 -124t-195.5 -40q-89 0 -171.5 36t-145.5 99.5t-100.5 150t-37.5 187.5q0 80 31.5 151t79 129.5t102.5 102.5t102 70l33 -60q-49 -35 -82 -71.5t-52 -81t-26 -99.5t-4 -126
q3 -81 25 -149t60 -118t90.5 -78t117.5 -28q79 0 147.5 47.5t126.5 124.5q-30 49 -56.5 98t-51.5 94q-41 71 -78 142.5t-65.5 146t-45 151.5t-16.5 158q0 57 10.5 118t31.5 119.5t53.5 111.5t76.5 93t99.5 63.5t123.5 23.5q65 0 114.5 -23.5t86 -63t60.5 -91.5t38.5 -108.5
t20.5 -113.5t6 -108q0 -89 -15.5 -174t-41.5 -167t-60.5 -161.5t-72.5 -157.5l-54 -110q17 -31 40 -68t62 -69.5t99 -54t150 -21.5q62 0 118.5 29t106 79t92 118t77 146t60.5 162.5t43 167.5q-68 6 -143.5 34t-140 80t-106.5 127t-42 175q0 62 17.5 128t57 120.5t102.5 89.5
t155 35q65 0 110.5 -23.5t76 -62.5t48 -90.5t26.5 -108t11 -113.5t2 -108q0 -66 -8.5 -148.5t-26.5 -172t-46.5 -182t-68 -179.5t-92 -163t-118 -132.5t-145.5 -89.5t-175 -33zM754 1059q0 -91 17.5 -175t47.5 -163.5t69 -155.5t81 -151q39 81 69 168.5t50.5 172.5t31 162
t10.5 136q0 43 -3.5 90t-12.5 92t-24.5 85t-38 70t-53.5 48t-72 18q-31 0 -55.5 -19.5t-43.5 -51.5t-33 -73.5t-23 -85.5t-13 -87.5t-4 -79.5zM1626 1214q0 -60 16 -118t50 -105t86.5 -78.5t124.5 -38.5q8 47 12 92t4 89q0 65 -2.5 136t-18 130t-49 97t-94.5 38
q-35 0 -59.5 -20.5t-40 -54.5t-22.5 -77.5t-7 -89.5z" />
    <glyph glyph-name="tsawi" unicode="&#x13eb;" horiz-adv-x="1741" 
d="M154 762q0 96 21 193.5t62.5 187.5t103 168t141.5 136t178 91t214 33q114 0 211.5 -30.5t176.5 -85t140 -129t102 -162t62 -185t21 -197.5q0 -113 -25 -217.5t-71 -195t-111.5 -165.5t-146.5 -128t-176.5 -82t-200.5 -29q-110 0 -205 29t-173 82t-138 126.5t-101.5 162
t-63 189t-21.5 208.5zM352 782q0 -74 15.5 -157t46 -164t75.5 -155t104 -130t132 -89.5t160 -33.5q80 0 147 29.5t121 79t95.5 115.5t70.5 139q-121 4 -206 19t-142.5 40t-92.5 57t-55 69t-29.5 77.5t-17.5 81.5q-6 29 -12.5 58t-21 55t-39.5 48.5t-67 39.5t-104.5 27
t-150.5 11q-16 -57 -22.5 -111.5t-6.5 -105.5zM961 780q6 -30 12.5 -59t21 -55t39.5 -49t67.5 -40t105 -27t151.5 -11q14 57 21 113.5t7 109.5q0 83 -17 168.5t-49.5 165t-79.5 149.5t-106.5 122t-130.5 82t-151 30q-78 0 -143.5 -29t-119.5 -78t-96 -114.5t-71 -137.5
q120 -3 204 -18t141 -39t91.5 -56t54.5 -68.5t30 -77t18 -81.5z" />
    <glyph glyph-name="tsawo" unicode="&#x13ec;" horiz-adv-x="1898" 
d="M932 -35q-125 0 -231 50.5t-192.5 135t-153 195t-111 230t-67.5 240.5t-23 226q0 57 10.5 118t31.5 119.5t53 111.5t76 93t100 63.5t124 23.5q97 0 166.5 -36.5t114 -100t65 -148.5t20.5 -182q0 -76 -22.5 -140t-59.5 -117.5t-85 -97.5t-98.5 -80t-101 -64.5t-91.5 -51.5
q40 -98 95.5 -184t124 -150t150 -101.5t174.5 -37.5q112 0 199.5 47t153.5 125.5t112 179.5t74.5 209t41.5 215t13 197q0 27 -3 56t-12 53.5t-26 40.5t-45 16q-29 0 -62 14t-63 40.5t-52.5 66t-31.5 90.5q-5 27 0 52.5t17.5 45t31.5 31.5t44 12q54 0 101 -23.5t86 -63.5
t69.5 -94.5t52 -116.5t32.5 -128.5t11 -130.5q0 -75 -8.5 -160.5t-27.5 -173t-50.5 -175t-77.5 -167t-107.5 -147.5t-141.5 -118.5t-179.5 -79t-220.5 -28.5zM346 1059q0 -81 17 -181t51 -206q60 25 118.5 65.5t105.5 94.5t76 120t29 142q0 84 -12 151t-39 114t-70 72
t-104 25q-31 0 -55.5 -19.5t-43.5 -51.5t-33 -73.5t-23 -85.5t-13 -87.5t-4 -79.5z" />
    <glyph glyph-name="tsawu" unicode="&#x13ed;" horiz-adv-x="1425" 
d="M528 80q66 0 117.5 14t90 36.5t66.5 51.5t48 58q-34 52 -61.5 104t-53.5 100q-41 71 -78 142.5t-65 145.5t-45 151t-17 159q0 57 10.5 118t31.5 119.5t53.5 111.5t76.5 93t100 63.5t124 23.5q65 0 116 -23.5t89.5 -63t65 -91.5t43.5 -108.5t24.5 -113.5t7.5 -108
q0 -89 -15.5 -174t-41.5 -167t-60.5 -161.5t-73.5 -157.5q-18 -35 -35.5 -71.5t-36.5 -72t-40.5 -69t-46.5 -61.5q-75 -84 -169.5 -124t-205.5 -40q-62 0 -126 16.5t-122.5 54t-106.5 99.5t-79 154q-7 15 -9 30t-2 29q0 24 7.5 46t21.5 38.5t34 26.5t46 10q21 0 46 -10.5
t46.5 -30t36 -46.5t14.5 -60q0 -23 -4 -47t-4 -46q0 -26 11 -52.5t33.5 -48t56.5 -35t81 -13.5zM723 1059q0 -92 18 -176.5t48.5 -165t70 -157t82.5 -152.5q35 73 67.5 153t57 163t39 166.5t14.5 162.5q0 43 -5.5 90t-16.5 92t-29 85t-43 70t-57.5 48t-73.5 18
q-31 0 -55.5 -19.5t-43.5 -51.5t-33 -73.5t-23 -85.5t-13 -87.5t-4 -79.5z" />
    <glyph glyph-name="tsawv" unicode="&#x13ee;" horiz-adv-x="1413" 
d="M774 1571q61 0 129.5 -9.5t132 -38t115 -79.5t80.5 -135q5 -16 7.5 -31t2.5 -29q0 -24 -7.5 -46t-21.5 -38.5t-34 -26.5t-45 -10q-22 0 -47 10.5t-46.5 30t-36 47t-14.5 60.5q0 23 4 46.5t4 45.5q0 28 -18.5 46.5t-50.5 30t-75.5 16.5t-94.5 5q-89 0 -152.5 -34
t-107 -90.5t-69.5 -129.5t-39.5 -150t-18 -152.5t-4.5 -137.5v-14q48 45 94.5 79t97 57t108 34.5t126.5 11.5q112 0 199 -40.5t146.5 -107.5t90.5 -152.5t31 -176.5q0 -104 -41.5 -194.5t-112.5 -158t-165.5 -106.5t-201.5 -39q-88 0 -165 30t-142 83t-116.5 126.5
t-87.5 161t-55 185.5t-19 201q0 86 13 180t42 185t76 173.5t116 144.5t161.5 99t211.5 37zM766 829q-54 0 -106.5 -12.5t-102.5 -39t-95.5 -68.5t-84.5 -101q12 -95 39.5 -189t75 -169.5t116.5 -122.5t164 -47q64 0 121.5 25.5t100.5 73t68 115.5t25 152q0 70 -20 138.5
t-60 123t-100 88t-141 33.5z" />
    <glyph glyph-name="tsaya" unicode="&#x13ef;" horiz-adv-x="2046" 
d="M123 406q0 79 23.5 145.5t61.5 119t85 91.5t94 65l33 -59q-35 -25 -58 -55.5t-36 -72t-17 -95.5t-2 -125q2 -68 23.5 -130t59.5 -108.5t90.5 -74t117.5 -27.5q57 0 103 28.5t78 75t49.5 105t17.5 117.5l2 174l-117 75l-180 -114v133l180 114l180 -114l181 114l180 -114
l180 114v-133l-180 -114l-180 114l-76 -49v-57q0 -106 11.5 -182.5t32 -128.5t48 -83t59.5 -48t66.5 -22t69.5 -5q84 0 144 24t101.5 67.5t67 103.5t39 133t18 156.5t4.5 172.5q0 104 -23 197.5t-64.5 173.5t-98.5 144.5t-125 109.5t-144.5 69.5t-156.5 24.5
q-78 0 -153 -19.5t-140 -57t-117.5 -91t-83.5 -121.5l-61 35q31 78 84 145t129 117t174.5 78.5t220.5 28.5q115 0 217 -29.5t188 -83.5t154.5 -129t116 -166t73 -195.5t25.5 -215.5q0 -187 -35 -333t-110 -247t-192 -154t-281 -53q-39 0 -86.5 11.5t-95 35.5t-90.5 60.5
t-72 85.5q-29 -43 -67.5 -78.5t-84 -61t-99 -39.5t-112.5 -14q-89 0 -169.5 35.5t-141.5 96t-97 140.5t-36 169z" />
    <glyph glyph-name="tsaye" unicode="&#x13f0;" horiz-adv-x="1507" 
d="M125 350q35 -26 67.5 -49t63.5 -43l211 1012q17 79 54 136t90 93.5t120.5 54t145.5 17.5q84 0 159 -30t132 -84t90.5 -128.5t33.5 -163.5q0 -62 -20.5 -111t-56.5 -87.5t-85.5 -68t-107.5 -50.5q75 -27 136.5 -69.5t105 -96.5t67 -116t23.5 -128q0 -98 -39 -184
t-113 -150t-180 -101.5t-240 -37.5q-124 0 -226.5 30t-193.5 81l-22 -111h-145l38 191q-38 26 -75.5 54.5t-75.5 57.5zM852 768q-48 9 -88 15t-78.5 12.5t-78.5 15.5t-89 23l-135 -658q45 -24 91.5 -42t98 -30t110.5 -18t130 -6q78 0 139 34t103 88t64 121t22 134
q0 59 -16.5 109.5t-51.5 91t-89.5 68.5t-131.5 42zM827 885q63 0 110 20t78.5 56t47.5 85.5t16 108.5q0 60 -14 114.5t-43 96t-74.5 66t-109.5 24.5q-50 0 -88 -10t-66 -34.5t-48 -67.5t-34 -109l-63 -305q49 -14 99 -22.5t90.5 -13.5t67.5 -7t31 -2z" />
    <glyph glyph-name="tsayi" unicode="&#x13f1;" horiz-adv-x="2066" 
d="M1249 315q0 -111 62.5 -173t169.5 -62q54 0 98 25t75.5 70t48.5 108.5t17 140.5q0 203 -27.5 340t-86 220.5t-150 119t-219.5 35.5q-61 0 -112 -19.5t-96.5 -68t-89 -131.5t-90.5 -209.5t-100.5 -302t-119.5 -408.5h-205l-131 350q-11 37 -32.5 60.5t-50 36.5t-62.5 17.5
t-68 4.5v102h282l87 -221l79 -207q61 206 109.5 366t92.5 281t87.5 205t95 139t114.5 83t147 36v74q-5 61 -51 84t-132 23v102h553v-102q-91 0 -136.5 -25t-45.5 -94v-64q72 -7 141 -27t130 -59t112 -99.5t88 -149t57.5 -207.5t20.5 -275q0 -127 -38 -216t-98.5 -145.5
t-136.5 -82t-151 -25.5q-74 0 -139.5 24t-115 69t-78 110t-28.5 147q0 70 25 124t63.5 90.5t83.5 55.5t86 19l27 -82q-39 0 -69 -16t-51 -44t-31.5 -66t-10.5 -81z" />
    <glyph glyph-name="tsayo" unicode="&#x13f2;" horiz-adv-x="1546" 
d="M305 1128q0 115 41.5 198.5t109.5 138t156 80.5t181 26q62 0 132.5 -7t136.5 -33t120.5 -78.5t85.5 -143.5q10 -30 10 -57.5t-8 -50.5t-24.5 -40t-39.5 -26q-24 -9 -50 -6t-49 17t-43 37t-32 54q-8 21 -6.5 44t5 46t4 44t-10.5 38q-20 31 -75 44t-134 13
q-61 0 -117 -17.5t-100 -55.5t-72 -98t-32 -146v-270q25 17 52.5 33t61 28t73.5 19.5t91 7.5q116 0 203.5 -29t146.5 -79t89 -117t30 -144v-377q0 -69 45.5 -94t136.5 -25v-102h-553v102q87 0 132.5 22.5t50.5 84.5v389q0 51 -13.5 95.5t-45.5 78t-86.5 53t-135.5 19.5
q-86 0 -153 -15.5t-125 -62.5v-545q0 -69 45.5 -94t136.5 -25v-102h-553v102q91 0 136.5 25t45.5 94v907z" />
    <glyph glyph-name="tsayu" unicode="&#x13f3;" horiz-adv-x="1972" 
d="M915 1456q-87 0 -161 -26.5t-134.5 -74t-107.5 -111.5t-78.5 -139.5t-48 -158t-16.5 -166.5q0 -148 44 -276t121 -222t181 -148t225 -54q87 0 162.5 13t132 47t89 92.5t32.5 150.5v147q0 35 -11.5 58t-34.5 36.5t-57 19t-79 5.5v103h552v-103q-86 0 -134 -23.5t-48 -82.5
v-543h-188v86q-50 -33 -107.5 -56t-118 -37.5t-122.5 -21t-121 -6.5q-115 0 -214 30t-180 83t-144.5 127.5t-106.5 163.5t-65.5 189.5t-22.5 207.5q0 179 60.5 327t166 254.5t248.5 165t307 58.5q102 0 175 -23t126 -55q32 -20 61.5 -41.5t57.5 -46.5l174 131l180 -135
l180 135v-154l-180 -135l-180 135l-180 -135q-42 41 -89 78.5t-100 66.5t-114 46.5t-132 17.5z" />
    <glyph glyph-name="tsayv" unicode="&#x13f4;" horiz-adv-x="1401" 
d="M305 1327q-5 62 -50 84.5t-132 22.5v102h371h233q78 0 155 -23.5t137.5 -70.5t98 -119.5t37.5 -169.5q0 -109 -53.5 -191.5t-143.5 -132.5q68 -29 123 -70.5t94 -92.5t60.5 -109t21.5 -119q0 -98 -45 -178.5t-119 -138t-169.5 -89.5t-196.5 -32h-604v102q91 0 136.5 25
t45.5 94v1106zM494 123h190q78 0 147.5 27t121.5 73t82 106.5t30 127.5q0 59 -23.5 115t-67 99.5t-106.5 70t-141 26.5h-233v-645zM494 1413v-528h233q55 0 99 20t74.5 56t46.5 85.5t16 108.5q0 67 -23 115.5t-61.5 80t-89 47t-105.5 15.5h-190z" />
    <glyph glyph-name="uni2000" unicode="&#x2000;" horiz-adv-x="1024" 
 />
    <glyph glyph-name="uni2001" unicode="&#x2001;" horiz-adv-x="2048" 
 />
    <glyph glyph-name="enspace" unicode="&#x2002;" horiz-adv-x="1024" 
 />
    <glyph glyph-name="emspace" unicode="&#x2003;" horiz-adv-x="2048" 
 />
    <glyph glyph-name="threeperemspace" unicode="&#x2004;" horiz-adv-x="682" 
 />
    <glyph glyph-name="fourperemspace" unicode="&#x2005;" horiz-adv-x="512" 
 />
    <glyph glyph-name="sixperemspace" unicode="&#x2006;" horiz-adv-x="342" 
 />
    <glyph glyph-name="figurespace" unicode="&#x2007;" horiz-adv-x="1044" 
 />
    <glyph glyph-name="punctuationspace" unicode="&#x2008;" horiz-adv-x="553" 
 />
    <glyph glyph-name="thinspace" unicode="&#x2009;" horiz-adv-x="256" 
 />
    <glyph glyph-name="hairspace" unicode="&#x200a;" horiz-adv-x="86" 
 />
    <glyph glyph-name="zerospace" unicode="&#x200b;" 
 />
    <glyph glyph-name="ZWNJ" unicode="&#x200c;" 
 />
    <glyph glyph-name="ZWJ" unicode="&#x200d;" 
 />
    <glyph glyph-name="afii299" unicode="&#x200e;" 
 />
    <glyph glyph-name="afii300" unicode="&#x200f;" 
 />
    <glyph glyph-name="hyphen1" unicode="&#x2010;" horiz-adv-x="694" 
d="M553 563v-123h-512v123h512z" />
    <glyph glyph-name="hyphennobreak" unicode="&#x2011;" horiz-adv-x="694" 
d="M553 563v-123h-512v123h512z" />
    <glyph glyph-name="figuredash" unicode="&#x2012;" horiz-adv-x="1144" 
d="M989 766v-123h-936v123h936z" />
    <glyph glyph-name="endash" unicode="&#x2013;" horiz-adv-x="1206" 
d="M41 485v78h1024v-78h-1024z" />
    <glyph glyph-name="emdash" unicode="&#x2014;" horiz-adv-x="2349" 
d="M141 485v78h1966v-78h-1966z" />
    <glyph glyph-name="afii00208" unicode="&#x2015;" horiz-adv-x="3371" 
d="M141 485v78h2988v-78h-2988z" />
    <glyph glyph-name="uni2016" unicode="&#x2016;" horiz-adv-x="819" 
d="M258 1393v-1866h-98v1866h98zM559 1393v-1866h-98v1866h98z" />
    <glyph glyph-name="underscoredbl" unicode="&#x2017;" horiz-adv-x="1226" 
d="M1126 -445v-94h-1126v94h1126zM1126 -205v-94h-1126v94h1126z" />
    <glyph glyph-name="quoteleft" unicode="&#x2018;" horiz-adv-x="710" 
d="M461 1376q-47 -12 -89 -36.5t-73 -57.5t-49.5 -69.5t-18.5 -73.5q0 -23 9.5 -40.5t23.5 -17.5q12 0 21.5 5.5t18.5 11.5t21.5 11t32.5 5q41 0 72 -33.5t31 -85.5q0 -53 -42 -90t-102 -37q-38 0 -72 17.5t-58.5 47.5t-39 69.5t-14.5 84.5q0 72 26.5 131.5t71.5 103.5
t104.5 70.5t125.5 32.5v-49z" />
    <glyph glyph-name="quoteright" unicode="&#x2019;" horiz-adv-x="710" 
d="M133 918q47 12 89 36.5t73 56t49 68.5t18 76q0 23 -9 40t-23 17q-13 0 -22 -5t-18 -11t-21.5 -11t-32.5 -5q-41 0 -72 33.5t-31 84.5q0 54 42 90.5t101 36.5q39 0 73 -17t58.5 -47t39 -70t14.5 -85q0 -71 -26.5 -130.5t-72 -104.5t-104.5 -72t-125 -31v50z" />
    <glyph glyph-name="quotesinglbase" unicode="&#x201a;" horiz-adv-x="653" 
d="M133 -295q47 12 89 37t73 56.5t49 68.5t18 76q0 22 -9 39.5t-23 17.5q-13 0 -22 -5t-18 -11.5t-21.5 -11.5t-32.5 -5q-41 0 -72 34t-31 85q0 53 42 90t101 37q39 0 73 -17.5t58.5 -47t39 -69.5t14.5 -85q0 -72 -26.5 -131.5t-72 -104.5t-104.5 -71.5t-125 -30.5v49z" />
    <glyph glyph-name="quotereversed" unicode="&#x201b;" horiz-adv-x="710" 
d="M461 868q-66 4 -125.5 31t-104.5 72t-71.5 104.5t-26.5 130.5q0 45 14.5 85t39 70t58.5 47t72 17q60 0 102 -36.5t42 -90.5q0 -51 -31 -84.5t-72 -33.5q-20 0 -32.5 5t-21.5 11t-18.5 11t-21.5 5q-14 0 -23.5 -17t-9.5 -40q0 -39 18.5 -76t49.5 -68.5t73 -56t89 -36.5
v-50z" />
    <glyph glyph-name="quotedblleft" unicode="&#x201c;" horiz-adv-x="1157" 
d="M461 1376q-47 -12 -89 -36.5t-73 -57.5t-49.5 -69.5t-18.5 -73.5q0 -23 9.5 -40.5t23.5 -17.5q12 0 21.5 5.5t18.5 11.5t21.5 11t32.5 5q41 0 72 -33.5t31 -85.5q0 -53 -42 -90t-102 -37q-38 0 -72 17.5t-58.5 47.5t-39 69.5t-14.5 84.5q0 72 26.5 131.5t71.5 103.5
t104.5 70.5t125.5 32.5v-49zM924 1376q-47 -12 -89 -36.5t-73 -57.5t-49.5 -69.5t-18.5 -73.5q0 -23 9.5 -40.5t23.5 -17.5q12 0 21.5 5.5t18.5 11.5t21.5 11t32.5 5q41 0 72 -33.5t31 -85.5q0 -53 -42 -90t-102 -37q-38 0 -72 17.5t-58.5 47.5t-39 69.5t-14.5 84.5
q0 72 26.5 131.5t71.5 103.5t104.5 70.5t125.5 32.5v-49z" />
    <glyph glyph-name="quotedblright" unicode="&#x201d;" horiz-adv-x="1157" 
d="M133 918q47 12 89 36.5t73 56t49 68.5t18 76q0 23 -9 40t-23 17q-13 0 -22 -5t-18 -11t-21.5 -11t-32.5 -5q-41 0 -72 33.5t-31 84.5q0 54 42 90.5t101 36.5q39 0 73 -17t58.5 -47t39 -70t14.5 -85q0 -71 -26.5 -130.5t-72 -104.5t-104.5 -72t-125 -31v50zM596 918
q47 12 89 36.5t73 56t49 68.5t18 76q0 23 -9 40t-23 17q-13 0 -22 -5t-18 -11t-21.5 -11t-32.5 -5q-41 0 -72 33.5t-31 84.5q0 54 42 90.5t101 36.5q39 0 73 -17t58.5 -47t39 -70t14.5 -85q0 -71 -26.5 -130.5t-72 -104.5t-104.5 -72t-125 -31v50z" />
    <glyph glyph-name="quotedblbase" unicode="&#x201e;" horiz-adv-x="1116" 
d="M133 -295q47 12 89 37t73 56.5t49 68.5t18 76q0 22 -9 39.5t-23 17.5q-13 0 -22 -5t-18 -11.5t-21.5 -11.5t-32.5 -5q-41 0 -72 34t-31 85q0 53 42 90t101 37q39 0 73 -17.5t58.5 -47t39 -69.5t14.5 -85q0 -72 -26.5 -131.5t-72 -104.5t-104.5 -71.5t-125 -30.5v49z
M596 -295q47 12 89 37t73 56.5t49 68.5t18 76q0 22 -9 39.5t-23 17.5q-13 0 -22 -5t-18 -11.5t-21.5 -11.5t-32.5 -5q-41 0 -72 34t-31 85q0 53 42 90t101 37q39 0 73 -17.5t58.5 -47t39 -69.5t14.5 -85q0 -72 -26.5 -131.5t-72 -104.5t-104.5 -71.5t-125 -30.5v49z" />
    <glyph glyph-name="uni201F" unicode="&#x201f;" horiz-adv-x="1157" 
d="M461 868q-66 4 -125.5 31t-104.5 72t-71.5 104.5t-26.5 130.5q0 45 14.5 85t39 70t58.5 47t72 17q60 0 102 -36.5t42 -90.5q0 -51 -31 -84.5t-72 -33.5q-20 0 -32.5 5t-21.5 11t-18.5 11t-21.5 5q-14 0 -23.5 -17t-9.5 -40q0 -39 18.5 -76t49.5 -68.5t73 -56t89 -36.5
v-50zM924 868q-66 4 -125.5 31t-104.5 72t-71.5 104.5t-26.5 130.5q0 45 14.5 85t39 70t58.5 47t72 17q60 0 102 -36.5t42 -90.5q0 -51 -31 -84.5t-72 -33.5q-20 0 -32.5 5t-21.5 11t-18.5 11t-21.5 5q-14 0 -23.5 -17t-9.5 -40q0 -39 18.5 -76t49.5 -68.5t73 -56t89 -36.5
v-50z" />
    <glyph glyph-name="dagger" unicode="&#x2020;" horiz-adv-x="1095" 
d="M522 -479q0 323 -20.5 617.5t-96.5 583.5q65 52 91 121t26 151q-46 0 -87.5 -15t-84 -31.5t-83.5 -30.5t-82 -14q-47 0 -87 29.5t-40 82.5q0 52 40 80t87 28q41 0 82 -15t83.5 -31.5t84 -30.5t87.5 -14q0 50 -17 98.5t-37 96t-37 95t-17 99.5q0 56 33.5 103.5t97.5 47.5
q63 0 96.5 -47.5t33.5 -103.5q0 -52 -16.5 -99.5t-37 -95t-37.5 -96t-17 -98.5q43 0 86 14t86 30.5t83.5 31.5t80.5 15q48 0 87.5 -28t39.5 -80q0 -53 -39.5 -82.5t-87.5 -29.5q-40 0 -80.5 14t-83.5 30.5t-86 31.5t-86 15q0 -82 26 -151t92 -121q-79 -289 -98.5 -583.5
t-19.5 -617.5h-45z" />
    <glyph glyph-name="daggerdbl" unicode="&#x2021;" horiz-adv-x="985" 
d="M513 1112q43 0 81 12t74.5 27t73 27t75.5 12q50 0 82 -27t32 -72t-32 -73.5t-82 -28.5q-39 0 -75.5 13t-73 28.5t-74.5 28t-81 12.5q7 -73 32.5 -116t79.5 -78q-65 -75 -88.5 -150.5t-23.5 -170.5q0 -97 23.5 -180t88.5 -159q-54 -36 -79.5 -80t-32.5 -115q43 0 81 12.5
t74.5 28.5t73 28.5t75.5 12.5q50 0 82 -28.5t32 -73.5t-32 -72t-82 -27q-39 0 -75.5 12t-73 27t-74.5 27.5t-81 12.5q0 -40 15 -84.5t32.5 -88.5t33.5 -86t16 -75q0 -53 -35.5 -90t-86.5 -37q-52 0 -87 37t-35 90q0 33 15.5 75t33.5 86t34 88.5t14 84.5q-43 0 -81.5 -12.5
t-74.5 -27.5t-72 -27t-77 -12q-50 0 -81.5 27t-31.5 72t31.5 73.5t81.5 28.5q41 0 77 -12.5t72 -28.5t74.5 -28.5t81.5 -12.5q-6 71 -32 115t-81 80q66 76 89.5 159t23.5 180q0 95 -23.5 170.5t-89.5 150.5q55 35 81 79t32 115q-43 0 -81.5 -12.5t-74.5 -28t-72 -28.5
t-77 -13q-50 0 -81.5 28.5t-31.5 73.5t31.5 72t81.5 27q41 0 77 -12t72 -27t74.5 -27t81.5 -12q0 40 -16 85t-34 88t-32.5 85t-14.5 76q0 52 35 89t87 37q51 0 86.5 -37t35.5 -89q0 -34 -16 -76t-33.5 -85t-32.5 -88t-15 -85z" />
    <glyph glyph-name="bullet" unicode="&#x2022;" horiz-adv-x="817" 
d="M95 677q0 60 23.5 111.5t64.5 91.5t95 62t115 22t115.5 -22t95 -62t63 -91.5t22.5 -111.5t-22.5 -112t-63 -90.5t-95 -60t-115.5 -21.5t-115 21.5t-95 60t-64.5 90.5t-23.5 112z" />
    <glyph glyph-name="onedotenleader" unicode="&#x2024;" horiz-adv-x="594" 
d="M274 207q51 0 88 -34.5t37 -86.5t-37 -87t-88 -35q-52 0 -89.5 35t-37.5 87t37.5 86.5t89.5 34.5z" />
    <glyph glyph-name="twodotenleader" unicode="&#x2025;" horiz-adv-x="987" 
d="M707 207q52 0 89.5 -34.5t37.5 -86.5t-37.5 -87t-89.5 -35t-89.5 35t-37.5 87t37.5 86.5t89.5 34.5zM274 207q51 0 88 -34.5t37 -86.5t-37 -87t-88 -35q-52 0 -89.5 35t-37.5 87t37.5 86.5t89.5 34.5z" />
    <glyph glyph-name="ellipsis" unicode="&#x2026;" horiz-adv-x="1378" 
d="M1138 207q52 0 89.5 -34.5t37.5 -86.5t-37.5 -87t-89.5 -35t-88.5 35t-36.5 87t36.5 86.5t88.5 34.5zM707 207q52 0 89.5 -34.5t37.5 -86.5t-37.5 -87t-89.5 -35t-89.5 35t-37.5 87t37.5 86.5t89.5 34.5zM274 207q51 0 88 -34.5t37 -86.5t-37 -87t-88 -35q-52 0 -89.5 35
t-37.5 87t37.5 86.5t89.5 34.5z" />
    <glyph glyph-name="uni2027" unicode="&#x2027;" horiz-adv-x="596" 
d="M274 872q51 0 88 -36t37 -86q0 -52 -37 -87t-88 -35q-52 0 -89.5 35t-37.5 87q0 50 37.5 86t89.5 36z" />
    <glyph glyph-name="uni2028" unicode="&#x2028;" 
 />
    <glyph glyph-name="uni2029" unicode="&#x2029;" 
 />
    <glyph glyph-name="uni202A" unicode="&#x202a;" 
 />
    <glyph glyph-name="uni202B" unicode="&#x202b;" 
 />
    <glyph glyph-name="afii61573" unicode="&#x202c;" 
 />
    <glyph glyph-name="afii61574" unicode="&#x202d;" 
 />
    <glyph glyph-name="afii61575" unicode="&#x202e;" 
 />
    <glyph glyph-name="uni202F" unicode="&#x202f;" horiz-adv-x="410" 
 />
    <glyph glyph-name="perthousand" unicode="&#x2030;" horiz-adv-x="2515" 
d="M2272 739q-49 0 -78.5 -43t-45.5 -102t-20.5 -121t-4.5 -100q0 -34 3.5 -94t18.5 -116.5t44 -98.5t79 -42q49 0 78.5 41t44.5 97.5t19 115t4 97.5q0 36 -4 98t-19 121t-43 103t-76 44zM2270 797q79 0 140.5 -37.5t101.5 -97t60.5 -136t20.5 -153.5t-21.5 -150.5t-62 -131
t-101.5 -92.5t-140 -35t-139 35t-100.5 92.5t-62 131t-21.5 150.5t21.5 153.5t63 136t102 97t138.5 37.5zM459 -36h-102l1102 1608h102zM1527 739q-50 0 -79.5 -43t-45.5 -102t-20 -121t-4 -100q0 -34 3 -94t18 -116.5t44.5 -98.5t78.5 -42q50 0 79.5 41t44 97.5t19 115
t4.5 97.5q0 36 -4.5 98t-19 121t-43 103t-75.5 44zM1524 797q80 0 141 -37.5t101.5 -97t61 -136t20.5 -153.5t-21.5 -150.5t-62 -131t-101.5 -92.5t-141 -35q-78 0 -138 35t-101 92.5t-62.5 131t-21.5 150.5t21.5 153.5t63.5 136t102 97t138 37.5zM395 1513q-50 0 -79 -43
t-45 -101.5t-20.5 -120.5t-4.5 -101q0 -35 3.5 -94t18 -115.5t44 -98.5t78.5 -42q50 0 80 41t44 97.5t18.5 115.5t4.5 96t-4.5 99t-18.5 120.5t-43 102.5t-76 44zM393 1572q79 0 140.5 -37t101.5 -97t60.5 -137t20.5 -154q0 -76 -21.5 -149.5t-62 -131.5t-101.5 -92.5
t-141 -34.5q-78 0 -138 34.5t-101 92.5t-62.5 131.5t-21.5 149.5q0 77 21.5 154t63.5 137t102 97t139 37z" />
    <glyph glyph-name="uni2031" unicode="&#x2031;" horiz-adv-x="3190" 
d="M2272 739q-49 0 -78.5 -43t-45.5 -102t-20.5 -121t-4.5 -100q0 -34 3.5 -94t18.5 -116.5t44 -98.5t79 -42q49 0 78.5 41t44.5 97.5t19 115t4 97.5q0 36 -4 98t-19 121t-43 103t-76 44zM2270 797q79 0 140.5 -37.5t101.5 -97t60.5 -136t20.5 -153.5t-21.5 -150.5t-62 -131
t-101.5 -92.5t-140 -35t-139 35t-100.5 92.5t-62 131t-21.5 150.5t21.5 153.5t63 136t102 97t138.5 37.5zM459 -36h-102l1102 1608h102zM1527 739q-50 0 -79.5 -43t-45.5 -102t-20 -121t-4 -100q0 -34 3 -94t18 -116.5t44.5 -98.5t78.5 -42q50 0 79.5 41t44 97.5t19 115
t4.5 97.5q0 36 -4.5 98t-19 121t-43 103t-75.5 44zM1524 797q80 0 141 -37.5t101.5 -97t61 -136t20.5 -153.5t-21.5 -150.5t-62 -131t-101.5 -92.5t-141 -35q-78 0 -138 35t-101 92.5t-62.5 131t-21.5 150.5t21.5 153.5t63.5 136t102 97t138 37.5zM395 1513q-50 0 -79 -43
t-45 -101.5t-20.5 -120.5t-4.5 -101q0 -35 3.5 -94t18 -115.5t44 -98.5t78.5 -42q50 0 80 41t44 97.5t18.5 115.5t4.5 96t-4.5 99t-18.5 120.5t-43 102.5t-76 44zM393 1572q79 0 140.5 -37t101.5 -97t60.5 -137t20.5 -154q0 -76 -21.5 -149.5t-62 -131.5t-101.5 -92.5
t-141 -34.5q-78 0 -138 34.5t-101 92.5t-62.5 131.5t-21.5 149.5q0 77 21.5 154t63.5 137t102 97t139 37zM3018 739q-50 0 -79 -43t-45 -102t-20.5 -121t-4.5 -100q0 -34 3.5 -94t18 -116.5t44 -98.5t78.5 -42q50 0 79 41t44 97.5t19.5 115t4.5 97.5q0 36 -4.5 98t-19.5 121
t-43 103t-75 44zM3016 797q79 0 139.5 -37.5t101.5 -97t61.5 -136t20.5 -153.5t-21.5 -150.5t-62.5 -131t-101.5 -92.5t-140.5 -35q-79 0 -138.5 35t-100.5 92.5t-62.5 131t-21.5 150.5t21.5 153.5t63.5 136t101.5 97t139.5 37.5z" />
    <glyph glyph-name="minute" unicode="&#x2032;" horiz-adv-x="413" 
d="M330 1534l-248 -662h-60l62 662h246z" />
    <glyph glyph-name="second" unicode="&#x2033;" horiz-adv-x="805" 
d="M330 1534l-248 -662h-60l62 662h246zM759 1534l-246 -662h-61l63 662h244z" />
    <glyph glyph-name="uni2034" unicode="&#x2034;" horiz-adv-x="1194" 
d="M330 1534l-248 -662h-60l62 662h246zM759 1534l-246 -662h-61l63 662h244zM1190 1534l-248 -662h-60l62 662h246z" />
    <glyph glyph-name="uni2035" unicode="&#x2035;" horiz-adv-x="413" 
d="M267 1534l63 -662h-61l-249 662h247z" />
    <glyph glyph-name="uni2036" unicode="&#x2036;" horiz-adv-x="805" 
d="M698 1534l61 -662h-59l-248 662h246zM267 1534l63 -662h-61l-249 662h247z" />
    <glyph glyph-name="uni2037" unicode="&#x2037;" horiz-adv-x="1194" 
d="M1127 1534l61 -662h-59l-248 662h246zM698 1534l61 -662h-59l-248 662h246zM267 1534l63 -662h-61l-249 662h247z" />
    <glyph glyph-name="uni2038" unicode="&#x2038;" horiz-adv-x="1116" 
d="M28 -660l496 832h73l496 -832h-142l-393 660l-396 -660h-134z" />
    <glyph glyph-name="guilsinglleft" unicode="&#x2039;" horiz-adv-x="776" 
d="M563 0l-450 520l450 517h69l-289 -517l289 -520h-69z" />
    <glyph glyph-name="guilsinglright" unicode="&#x203a;" horiz-adv-x="776" 
d="M403 520l-290 517h70l449 -517l-449 -520h-70z" />
    <glyph glyph-name="uni203E" unicode="&#x203e;" horiz-adv-x="1360" 
d="M18 1276h1355v-142h-1355v142z" />
    <glyph glyph-name="uni203F" unicode="&#x203f;" horiz-adv-x="1636" 
d="M165 -179q45 -36 95 -65.5t106 -40.5q93 -25 211.5 -42.5t265.5 -17.5q149 0 266.5 17.5t207.5 42.5q69 16 114.5 45.5t75.5 60.5h88q-25 -133 -244 -220q-217 -89 -508 -89q-298 0 -518 85q-215 89 -241 224h81z" />
    <glyph glyph-name="uni2040" unicode="&#x2040;" horiz-adv-x="1581" 
d="M61 1186q27 138 241 226q220 86 518 86q292 0 508 -88q220 -89 244 -224h-85q-32 32 -77.5 61t-114.5 45q-88 25 -206.5 42t-268.5 17q-147 0 -264.5 -17t-212.5 -42q-56 -11 -105.5 -40.5t-95.5 -65.5h-81z" />
    <glyph glyph-name="uni2043" unicode="&#x2043;" horiz-adv-x="694" 
d="M610 621v-136h-565v136h565z" />
    <glyph glyph-name="fraction" unicode="&#x2044;" horiz-adv-x="663" 
d="M515 1572h106l-515 -1608h-106z" />
    <glyph glyph-name="uni204B" unicode="&#x204b;" horiz-adv-x="1204" 
d="M226 1509h-159v63h588q255 0 378.5 -115t123.5 -321q0 -117 -39.5 -198.5t-111 -131t-170.5 -72.5t-217 -23v-1149h-86v1947h-221v-1947h-86v1947z" />
    <glyph glyph-name="uni204C" unicode="&#x204c;" horiz-adv-x="1218" 
d="M1161 1129h-158v-734h158v-63h-587q-255 0 -378 115.5t-123 320.5q0 118 39 199t110 130.5t169.5 72t218.5 22.5h551v-63zM917 1129h-221v-734h221v734z" />
    <glyph glyph-name="uni204D" unicode="&#x204d;" horiz-adv-x="1218" 
d="M73 407h158v734h-158v63h587q254 0 377.5 -115t123.5 -321q0 -117 -39.5 -198.5t-110.5 -131.5t-170.5 -72.5t-217.5 -22.5h-550v64zM317 407h220v734h-220v-734z" />
    <glyph glyph-name="uni204E" unicode="&#x204e;" horiz-adv-x="1120" 
d="M547 485q0 39 -11.5 81t-25 84t-25 78.5t-11.5 68.5q0 50 26 82.5t65 32.5q38 0 64 -32.5t26 -82.5q0 -32 -11.5 -68.5t-24.5 -78.5t-25 -84t-12 -81q35 21 65 51.5t59 63t56 61t53 44.5q43 25 84 18t58 -38q19 -32 4 -73t-58 -63q-26 -16 -63.5 -25t-80.5 -18t-84 -20.5
t-74 -31.5q31 -18 73 -29t85 -19.5t81.5 -17.5t65.5 -24q40 -28 56 -66t-5 -72q-17 -32 -58 -38.5t-84 17.5q-26 17 -52 45t-56 60.5t-60 63.5t-65 51q0 -39 12 -81t25 -83.5t24.5 -80t11.5 -67.5q0 -52 -26 -83.5t-64 -31.5q-39 0 -65 31.5t-26 83.5q0 29 11.5 67.5t25 80
t25 83.5t11.5 81q-34 -20 -64.5 -51t-59 -63.5t-56.5 -60.5t-55 -45q-43 -24 -83.5 -18.5t-58.5 37.5q-10 15 -10 36q0 27 16 55t48 47q24 13 64 22t83 18t84.5 20t75.5 32q-34 20 -75.5 31.5t-84.5 19.5t-82 17t-65 25q-41 27 -58 66.5t4 71.5q18 33 59.5 39t84.5 -17
q27 -18 54 -47.5t55.5 -61t59 -62t64.5 -51.5z" />
    <glyph glyph-name="uni204F" unicode="&#x204f;" horiz-adv-x="653" 
d="M508 -379q-72 4 -138 33t-115.5 79t-78.5 115.5t-29 144.5q0 50 16 94t43 76.5t64.5 52t79.5 19.5q66 0 112 -41t46 -99q0 -56 -34 -93.5t-79 -37.5q-22 0 -36 5.5t-24 12.5t-20.5 12.5t-23.5 5.5q-15 0 -25.5 -19.5t-10.5 -43.5q0 -43 20.5 -84t54.5 -75.5t80.5 -62
t97.5 -40.5v-54zM336 1060q52 0 89.5 -37.5t37.5 -89.5t-37.5 -89.5t-89.5 -37.5q-51 0 -88.5 37.5t-37.5 89.5t37.5 89.5t88.5 37.5z" />
    <glyph glyph-name="uni2050" unicode="&#x2050;" horiz-adv-x="782" 
d="M95 603q18 -36 38 -65.5t46 -42.5q38 -25 88 -43.5t110 -18.5q63 0 111.5 18.5t87.5 43.5q30 18 49 47t30 61h37q-13 -135 -102 -224q-93 -86 -213 -86q-122 0 -215 86q-89 84 -101 224h34zM657 933q-17 37 -37.5 67t-45.5 42q-39 25 -88.5 43t-110.5 18
q-63 0 -111.5 -18t-87.5 -43q-29 -16 -48.5 -46.5t-30.5 -62.5h-36q8 136 101 224q91 88 213 88t215 -86q92 -88 102 -226h-35z" />
    <glyph glyph-name="uni2051" unicode="&#x2051;" horiz-adv-x="1120" 
d="M547 29q0 38 -11.5 80t-25 84t-25 79t-11.5 69q0 49 26 82t65 33q38 0 64 -33t26 -82q0 -32 -11.5 -69t-24.5 -79t-25 -84t-12 -80q35 21 65 51t59 62.5t56 61.5t53 44q43 26 84 18.5t58 -38.5q19 -32 4 -72.5t-58 -62.5q-26 -17 -63.5 -26t-80.5 -17.5t-84 -20
t-74 -31.5q31 -19 73 -30t85 -19.5t81.5 -17t65.5 -24.5q40 -27 56 -65t-5 -73q-17 -32 -58 -38.5t-84 18.5q-26 16 -52 44t-56 60.5t-60 63.5t-65 51q0 -39 12 -80.5t25 -83t24.5 -80t11.5 -68.5q0 -52 -26 -83.5t-64 -31.5q-39 0 -65 31.5t-26 83.5q0 30 11.5 68.5t25 80
t25 83t11.5 80.5q-34 -20 -64.5 -51t-59 -63.5t-56.5 -60.5t-55 -44q-43 -25 -83.5 -19.5t-58.5 37.5q-10 16 -10 37q0 26 16 54t48 47q24 13 64 22t83 18.5t84.5 20.5t75.5 32q-34 20 -75.5 31.5t-84.5 19t-82 16.5t-65 25q-41 27 -58 66.5t4 71.5q18 33 59.5 39.5
t84.5 -17.5q27 -17 54 -47t55.5 -61.5t59 -61.5t64.5 -51zM547 1255q0 39 -11.5 81t-25 83.5t-25 78.5t-11.5 69q0 50 26 82.5t65 32.5q38 0 64 -32.5t26 -82.5q0 -32 -11.5 -69t-24.5 -78.5t-25 -83.5t-12 -81q35 21 65 51.5t59 63t56 61t53 44.5q43 25 84 18t58 -38
q19 -32 4 -73t-58 -63q-26 -16 -63.5 -25t-80.5 -18t-84 -20.5t-74 -31.5q31 -18 73 -29t85 -19.5t81.5 -17.5t65.5 -24q40 -28 56 -66t-5 -72q-17 -32 -58 -38.5t-84 17.5q-26 17 -52 45t-56 60.5t-60 63.5t-65 51q0 -39 12 -81t25 -83.5t24.5 -80t11.5 -68.5
q0 -51 -26 -82.5t-64 -31.5q-39 0 -65 31.5t-26 82.5q0 30 11.5 68.5t25 80t25 83.5t11.5 81q-34 -20 -64.5 -51t-59 -63.5t-56.5 -60.5t-55 -45q-43 -24 -83.5 -18.5t-58.5 37.5q-10 15 -10 36q0 27 16 55t48 47q24 13 64 22t83 18t84.5 20t75.5 32q-34 20 -75.5 31.5
t-84.5 19.5t-82 16.5t-65 25.5q-41 26 -58 66t4 72q18 33 59.5 39t84.5 -17q27 -18 54 -47.5t55.5 -61t59 -62t64.5 -51.5z" />
    <glyph glyph-name="uni2053" unicode="&#x2053;" horiz-adv-x="1611" 
d="M1567 953q0 -181 -105.5 -272t-286.5 -91q-123 0 -222 32.5t-186.5 71t-165 71t-156.5 32.5q-55 0 -103.5 -17t-86.5 -45t-65.5 -66.5t-36.5 -78.5h-67q0 178 111 270.5t316 92.5q95 0 194 -32.5t193 -71t180 -71t153 -32.5q62 0 103.5 17t72 46t51.5 66t40 78h67z" />
    <glyph glyph-name="uni2054" unicode="&#x2054;" horiz-adv-x="1581" 
d="M61 -488q27 138 241 223q220 86 518 86q292 0 508 -88q222 -88 244 -221h-85q-32 31 -77.5 61t-114.5 45q-88 25 -206.5 42t-268.5 17q-147 0 -264.5 -17t-212.5 -42q-56 -11 -105.5 -40.5t-95.5 -65.5h-81z" />
    <glyph glyph-name="uni2057" unicode="&#x2057;" horiz-adv-x="1585" 
d="M1190 1534l-248 -662h-60l62 662h246zM1619 1534l-246 -662h-60l62 662h244zM330 1534l-248 -662h-60l62 662h246zM759 1534l-246 -662h-61l63 662h244z" />
    <glyph glyph-name="uni205F" unicode="&#x205f;" horiz-adv-x="455" 
 />
    <glyph glyph-name="uni2060" unicode="&#x2060;" 
 />
    <glyph glyph-name="tsadoOLD" horiz-adv-x="1671" 
d="M782 1571h105l518 -1350q15 -37 35.5 -60t47 -36t57 -18t65.5 -5v-102h-563v102q51 0 85.5 3t53.5 13.5t23 30t-5 52.5l-409 1061l-408 -1063q-8 -30 -0.5 -49t29 -29.5t57 -14.5t84.5 -4v-102h-496v102q49 0 82 5t55 18t37 36t29 60z" />
    <glyph glyph-name="cherokeespace" horiz-adv-x="870" 
 />
    </font>
</defs>
</svg>
